v -0.03131634 -0.10683822 0.10826526
v -0.02641524 -0.10683822 0.10826526
v -0.02977547 -0.10683822 0.10983257
v -0.02117380 -0.01849619 0.10826526
v 0.03190281 -0.10683822 0.12996641
v -0.02341394 -0.09615405 0.10826526
v -0.02939179 -0.10683822 0.11021446
v -0.02937942 -0.10658975 0.11019855
v -0.02082107 -0.01542422 0.10826526
v 0.03190281 -0.10683822 0.13339808
v -0.02315404 -0.09520536 0.10826526
v -0.02285082 -0.09405336 0.10826526
v -0.02243620 -0.09226890 0.10826526
v -0.02231863 -0.09156867 0.10826526
v -0.02191020 -0.08906140 0.10826526
v 0.00727358 0.11036887 0.10826526
v 0.00892584 0.12392173 0.10826526
v 0.03190281 0.12392173 0.12490113
v -0.02448451 -0.10683822 0.11429056
v -0.01332710 -0.05531479 0.11884666
v -0.01514644 -0.05531479 0.11731116
v -0.01496080 -0.05224281 0.11716265
v -0.01314764 -0.05224281 0.11869815
v -0.01104364 0.01371442 0.11335175
v -0.01448430 0.01217843 0.11059900
v -0.01601899 0.01217843 0.10928361
v -0.01718238 0.01217843 0.10826526
v 0.02635814 -0.10683822 0.13492032
v 0.03190281 -0.09213337 0.13415124
v 0.02932231 -0.09213337 0.13489115
v 0.00336880 0.12392173 0.10826526
v 0.03190281 0.12392173 0.12878628
v -0.02105622 -0.10683822 0.11709635
v -0.01179241 -0.05531479 0.12008514
v -0.01161296 -0.05224281 0.11993927
v -0.01916262 -0.10683822 0.11862919
v -0.01108077 -0.04429179 0.11952026
v -0.00739257 0.01525041 0.11596130
v -0.00494202 0.02618305 0.11645458
v -0.00453360 0.05206900 0.11302821
v -0.01092606 0.04899703 0.10826526
v -0.01194093 0.04321447 0.10826526
v -0.01412538 0.01685417 0.11029402
v -0.01425534 0.01525041 0.11040540
v -0.01579002 0.01525041 0.10906880
v -0.01699673 0.01337560 0.10826526
v 0.02469969 -0.10683822 0.13505556
v 0.02961935 -0.08906140 0.13492032
v 0.02731113 -0.09213337 0.13509800
v 0.03190281 -0.08906140 0.13427058
v 0.00312126 0.12283748 0.10826526
v 0.01346802 0.12392173 0.11645192
v 0.03186568 0.12392173 0.12877833
v 0.03190281 0.12265679 0.12893745
v -0.00973173 -0.05531479 0.12162063
v -0.01228129 -0.10134931 0.12361492
v -0.01033818 -0.10134931 0.12515042
v -0.00876636 -0.06453073 0.12317469
v -0.00859928 -0.06145875 0.12302353
v -0.01883464 -0.10683822 0.11888643
v -0.00806090 -0.05330444 0.12261778
v -0.00206449 -0.01235223 0.12272650
v -0.00359917 -0.01235223 0.12161267
v -0.00585788 0.01525041 0.11707248
v 0.00340592 0.04592504 0.12012757
v 0.00187124 0.04592504 0.11898190
v -0.01071566 0.05010384 0.10826526
v 0.00960036 0.07969424 0.12019121
v 0.01304722 0.11958481 0.11681524
v 0.00309651 0.12272455 0.10826526
v -0.01200281 0.04285306 0.10826526
v -0.01669970 0.01525041 0.10826526
v 0.02424176 -0.10683822 0.13509004
v 0.02424176 -0.09827733 0.13523324
v 0.03190281 -0.07128457 0.13480893
v 0.03190281 -0.06988411 0.13484606
v 0.03190281 -0.06758012 0.13487523
v 0.03038050 -0.06453073 0.13509800
v 0.02424176 -0.09520536 0.13528364
v 0.02731113 -0.06453073 0.13535258
v 0.02379620 0.11958481 0.12483483
v 0.01712527 0.12392173 0.11907207
v 0.01333806 0.12265679 0.11655800
v 0.01955106 0.11531566 0.12262573
v 0.02334446 0.11651282 0.12515307
v 0.03177904 0.12392173 0.12875181
v 0.03156864 0.12265679 0.12883402
v 0.03190281 0.11958481 0.12925038
v -0.01762793 -0.10683822 0.11982259
v -0.01041862 -0.10442130 0.12520346
v -0.00880349 -0.10134931 0.12611574
v -0.00496678 -0.06265591 0.12566225
v -0.00660047 -0.06453073 0.12470754
v 0.00306557 -0.01542422 0.12643132
v 0.01141971 0.05206900 0.12499130
v 0.00919194 0.05206900 0.12345845
v 0.01130213 0.07662225 0.12196009
v 0.01466235 0.11651282 0.11857351
v 0.02117239 -0.10683822 0.13512982
v 0.03190281 -0.06453073 0.13490175
v 0.03190281 -0.06195568 0.13491766
v 0.03038050 -0.06145875 0.13510330
v 0.02117239 -0.09827733 0.13524916
v 0.02117239 -0.10134931 0.13520938
v 0.02424176 -0.06453073 0.13535258
v 0.02731113 -0.06145875 0.13534198
v 0.03190281 -0.00008690 0.13488849
v 0.03190281 0.00133615 0.13488584
v 0.03190281 0.00298508 0.13488053
v 0.02533089 0.11958481 0.12591684
v 0.02564030 0.12152737 0.12571529
v 0.02626532 0.12392173 0.12555882
v 0.02487915 0.11651282 0.12614226
v 0.03137681 0.12392173 0.12855821
v 0.03004015 0.12265679 0.12809412
v 0.03118497 0.11958481 0.12900640
v 0.03190281 0.11651282 0.12945458
v -0.01043100 -0.10683822 0.12519550
v -0.00888394 -0.10442130 0.12615551
v -0.00889631 -0.10683822 0.12619530
v -0.00541852 -0.07065210 0.12594866
v -0.00296178 -0.10683822 0.12913370
v -0.00265856 -0.09827733 0.12904087
v -0.00251004 -0.09520536 0.12899844
v -0.00233677 -0.09213337 0.12893214
v -0.00387146 -0.09213337 0.12813920
v 0.00119053 -0.05664748 0.12871468
v 0.00660525 -0.02156818 0.12910187
v 0.00531809 -0.01849619 0.12810207
v 0.00921669 0.02444377 0.12634646
v 0.00946422 0.02751575 0.12619795
v 0.01295439 0.05206900 0.12595397
v 0.01810920 -0.10683822 0.13498396
v 0.01810920 -0.10442130 0.13502374
v 0.03190281 -0.05892888 0.13492032
v 0.03190281 -0.00184877 0.13489115
v 0.02117239 -0.09520536 0.13524651
v 0.01810920 -0.10134931 0.13506087
v 0.02424176 -0.06145875 0.13533667
v 0.03190281 0.00413707 0.13487258
v 0.03142631 0.00298508 0.13488053
v 0.02711929 0.12258901 0.12642868
v 0.02744108 0.12392173 0.12635972
v 0.02458830 0.11344086 0.12628812
v 0.03030624 0.12392173 0.12797212
v 0.01624654 0.03980367 0.12887380
v 0.01810920 0.03980367 0.12972243
v 0.02570218 0.04779985 0.13178568
v 0.02709454 0.04888408 0.13215696
v 0.03038050 0.05206900 0.13293928
v 0.03190281 0.05358241 0.13314348
v 0.00400618 -0.10683822 0.13187053
v 0.00399381 -0.10442130 0.13188115
v 0.00400000 -0.09827733 0.13188115
v -0.00030084 -0.09520536 0.12994785
v -0.00030084 -0.09213337 0.12984443
v 0.00255195 -0.05549549 0.12924508
v 0.00583172 -0.03997747 0.12980730
v 0.00890109 -0.02156818 0.12998498
v 0.00890109 -0.01849619 0.12979934
v 0.01256453 0.01525041 0.12913370
v 0.00685278 -0.01849619 0.12897457
v 0.01102985 0.01525041 0.12828771
v 0.01271305 0.04899703 0.12610248
v 0.01680967 -0.10683822 0.13488584
v 0.01625273 -0.10442130 0.13487788
v 0.01622179 -0.10134931 0.13488319
v 0.02174789 -0.05838677 0.13501313
v 0.02162413 -0.06145875 0.13504762
v 0.03190281 0.00515354 0.13486198
v 0.03164290 0.00515354 0.13486198
v 0.01503983 0.01525041 0.13008045
v 0.01810920 0.03673169 0.12990277
v 0.02488534 0.03980367 0.13201374
v 0.02731113 0.03980367 0.13267674
v 0.03038050 0.04899703 0.13306923
v 0.03190281 0.05051042 0.13326018
v 0.00439604 -0.10683822 0.13202170
v 0.00583172 -0.10442130 0.13257862
v 0.00583172 -0.10134931 0.13258392
v 0.00583172 -0.09827733 0.13251497
v 0.00412376 -0.09520536 0.13183076
v 0.00276235 -0.05838677 0.12947579
v 0.00890109 -0.08601201 0.13294724
v 0.01641362 -0.10683822 0.13485402
v 0.00890109 -0.10442130 0.13336625
v 0.00890109 -0.10683822 0.13331056
v 0.00890109 -0.10134931 0.13336891
v 0.00583172 -0.10683822 0.13252292
f 1 2 5
f 1 5 10
f 1 10 28
f 1 28 47
f 1 47 73
f 1 73 99
f 1 99 133
f 1 133 165
f 1 165 185
f 1 185 187
f 1 187 189
f 1 189 178
f 1 178 152
f 1 152 122
f 1 122 120
f 1 120 118
f 1 118 89
f 1 89 60
f 1 60 36
f 1 36 33
f 1 33 19
f 1 19 7
f 1 7 3
f 1 3 4
f 1 4 9
f 1 9 27
f 1 27 46
f 1 46 72
f 1 72 71
f 1 71 42
f 1 42 41
f 1 41 67
f 1 67 70
f 1 70 51
f 1 51 31
f 1 31 17
f 1 17 16
f 1 16 15
f 1 15 14
f 1 14 13
f 1 13 12
f 1 12 11
f 1 11 6
f 1 6 2
f 2 6 5
f 3 7 8
f 3 8 9
f 3 9 4
f 5 6 11
f 5 11 12
f 5 12 13
f 5 13 14
f 5 14 15
f 5 15 16
f 5 16 17
f 5 17 18
f 5 18 32
f 5 32 54
f 5 54 88
f 5 88 117
f 5 117 151
f 5 151 177
f 5 177 170
f 5 170 140
f 5 140 109
f 5 109 108
f 5 108 107
f 5 107 136
f 5 136 135
f 5 135 101
f 5 101 100
f 5 100 77
f 5 77 76
f 5 76 75
f 5 75 50
f 5 50 29
f 5 29 10
f 7 19 20
f 7 20 21
f 7 21 22
f 7 22 9
f 7 9 8
f 9 22 23
f 9 23 24
f 9 24 25
f 9 25 26
f 9 26 27
f 10 29 30
f 10 30 28
f 17 31 52
f 17 52 82
f 17 82 112
f 17 112 143
f 17 143 145
f 17 145 114
f 17 114 86
f 17 86 53
f 17 53 32
f 17 32 18
f 19 33 20
f 20 34 35
f 20 35 23
f 20 23 21
f 20 33 36
f 20 36 34
f 21 23 22
f 23 35 37
f 23 37 24
f 24 38 39
f 24 39 40
f 24 40 41
f 24 41 42
f 24 42 43
f 24 43 44
f 24 44 25
f 24 37 38
f 25 44 26
f 26 44 45
f 26 45 27
f 27 45 46
f 28 30 48
f 28 48 49
f 28 49 47
f 29 50 30
f 30 50 48
f 31 51 52
f 32 53 54
f 34 55 35
f 34 36 56
f 34 56 57
f 34 57 58
f 34 58 59
f 34 59 55
f 35 55 37
f 36 60 57
f 36 57 56
f 37 55 61
f 37 61 62
f 37 62 63
f 37 63 38
f 38 64 39
f 38 63 62
f 38 62 64
f 39 65 66
f 39 66 40
f 39 64 65
f 40 67 41
f 40 66 68
f 40 68 69
f 40 69 70
f 40 70 67
f 42 71 43
f 43 45 44
f 43 71 45
f 45 71 72
f 45 72 46
f 47 49 74
f 47 74 73
f 48 50 75
f 48 75 76
f 48 76 77
f 48 77 78
f 48 78 49
f 49 79 74
f 49 78 80
f 49 80 79
f 51 70 52
f 52 81 82
f 52 70 83
f 52 83 84
f 52 84 85
f 52 85 81
f 53 86 54
f 54 87 88
f 54 86 87
f 55 59 61
f 57 60 89
f 57 89 90
f 57 90 91
f 57 91 92
f 57 92 93
f 57 93 58
f 58 93 59
f 59 93 61
f 61 93 92
f 61 92 62
f 62 92 94
f 62 94 95
f 62 95 96
f 62 96 65
f 62 65 64
f 65 96 97
f 65 97 66
f 66 97 68
f 68 97 84
f 68 84 98
f 68 98 69
f 69 98 84
f 69 84 83
f 69 83 70
f 73 74 99
f 74 79 99
f 77 100 78
f 78 100 101
f 78 101 102
f 78 102 80
f 79 103 104
f 79 104 99
f 79 80 105
f 79 105 103
f 80 106 105
f 80 102 107
f 80 107 108
f 80 108 109
f 80 109 106
f 81 110 111
f 81 111 82
f 81 85 110
f 82 111 112
f 84 97 85
f 85 113 110
f 85 97 95
f 85 95 113
f 86 114 87
f 87 115 116
f 87 116 88
f 87 114 115
f 88 116 117
f 89 118 90
f 90 119 91
f 90 118 120
f 90 120 119
f 91 121 92
f 91 119 122
f 91 122 123
f 91 123 124
f 91 124 125
f 91 125 126
f 91 126 127
f 91 127 121
f 92 121 127
f 92 127 128
f 92 128 129
f 92 129 94
f 94 129 130
f 94 130 131
f 94 131 95
f 95 131 132
f 95 132 113
f 95 97 96
f 99 104 134
f 99 134 133
f 101 135 102
f 102 135 136
f 102 136 107
f 103 137 138
f 103 138 134
f 103 134 104
f 103 105 137
f 105 138 137
f 105 106 139
f 105 139 138
f 106 109 140
f 106 140 141
f 106 141 139
f 110 115 142
f 110 142 143
f 110 143 111
f 110 113 115
f 111 143 112
f 113 144 116
f 113 116 115
f 113 132 144
f 114 145 115
f 115 145 143
f 115 143 142
f 116 144 146
f 116 146 147
f 116 147 117
f 117 147 148
f 117 148 149
f 117 149 150
f 117 150 151
f 119 120 122
f 122 152 153
f 122 153 154
f 122 154 123
f 123 154 155
f 123 155 156
f 123 156 124
f 124 156 125
f 125 156 127
f 125 127 126
f 127 157 158
f 127 158 128
f 127 156 157
f 128 159 160
f 128 160 161
f 128 161 162
f 128 162 129
f 128 158 159
f 129 162 163
f 129 163 164
f 129 164 130
f 130 164 132
f 130 132 131
f 132 164 163
f 132 163 161
f 132 161 146
f 132 146 144
f 133 134 165
f 134 138 166
f 134 166 165
f 138 167 166
f 138 139 167
f 139 168 169
f 139 169 167
f 139 141 168
f 140 170 171
f 140 171 141
f 141 171 168
f 146 161 147
f 147 161 172
f 147 172 173
f 147 173 174
f 147 174 148
f 148 174 149
f 149 174 150
f 150 174 175
f 150 175 176
f 150 176 151
f 151 176 177
f 152 178 153
f 153 178 179
f 153 179 180
f 153 180 154
f 154 181 182
f 154 182 155
f 154 180 181
f 155 182 156
f 156 182 183
f 156 183 157
f 157 183 158
f 158 183 182
f 158 182 159
f 159 182 184
f 159 184 174
f 159 174 172
f 159 172 160
f 160 172 161
f 161 163 162
f 165 166 185
f 166 186 187
f 166 187 185
f 166 167 186
f 167 188 186
f 167 169 168
f 167 168 188
f 168 184 188
f 168 171 176
f 168 176 175
f 168 175 184
f 170 177 171
f 171 177 176
f 172 174 173
f 174 184 175
f 178 189 179
f 179 189 187
f 179 187 186
f 179 186 180
f 180 186 188
f 180 188 181
f 181 188 184
f 181 184 182

