v -0.10017001 0.16204785 -0.00096925
v -0.09996226 0.16204785 -0.00030205
v -0.09749590 0.16559407 0.00434306
v -0.09840148 0.16562663 0.00134067
v -0.09972787 0.16336016 -0.00081762
v -0.09981310 0.16322001 -0.00096925
v -0.09654771 0.16204785 -0.00096925
v -0.09848137 0.16204785 0.00401957
v -0.09826830 0.16255748 0.00440877
v -0.09713900 0.16454932 0.00633455
v -0.09670219 0.16659635 0.00531859
v -0.09712301 0.16738771 0.00327656
v -0.09909930 0.16554028 -0.00096925
v -0.04575025 0.16524158 -0.00096925
v -0.04575025 0.16404109 0.00269528
v -0.04575025 0.16396323 0.00303394
v -0.04575025 0.16367302 0.00440877
v -0.04575025 0.16355128 0.00499510
v -0.04575025 0.16309827 0.00747687
v -0.04575025 0.16300766 0.00806320
v -0.04575025 0.16274435 0.01055003
v -0.04575025 0.16271321 0.01113130
v -0.04575025 0.16265658 0.01361813
v -0.04575025 0.16204785 0.04307596
v -0.09740534 0.16204785 0.00704724
v -0.09736805 0.16255748 0.00691077
v -0.09611090 0.16559407 0.00740611
v -0.09437433 0.16255748 0.01292061
v -0.09407069 0.16446720 0.01234439
v -0.09461937 0.16798087 0.00747687
v -0.09353268 0.16651283 0.01144468
v -0.09410265 0.16739903 0.00939760
v -0.09675546 0.16996987 -0.00058511
v -0.09745329 0.16790442 0.00134067
v -0.09884893 0.16614334 -0.00096925
v -0.09551429 0.16872409 0.00447953
v -0.09636659 0.16943758 0.00134067
v -0.04575025 0.16848768 -0.00096925
v -0.04575025 0.16204785 0.05066787
v -0.09665957 0.16204785 0.00856360
v -0.09452881 0.16554453 0.01046916
v -0.09441162 0.16204785 0.01307224
v -0.09110893 0.16204785 0.01863223
v -0.09072006 0.16389387 0.01808634
v -0.09432639 0.17061258 0.00363543
v -0.09148714 0.16777560 0.01298126
v -0.09070941 0.16703238 0.01502835
v -0.09370847 0.17006047 0.00568251
v -0.09714432 0.16957065 -0.00096925
v -0.09776225 0.16863066 -0.00096925
v -0.09483244 0.17103444 0.00134067
v -0.09543438 0.17127794 -0.00096925
v -0.09635061 0.17045969 -0.00096925
v -0.04575025 0.16840556 0.02895359
v -0.07410009 0.17567356 -0.00096925
v -0.04575025 0.16364895 0.04817598
v -0.04633621 0.16356543 0.04802940
v -0.04631490 0.16204785 0.05039492
v -0.09086389 0.16204785 0.01892034
v -0.08987308 0.16274577 0.01972906
v -0.08776363 0.16409489 0.02129092
v -0.09157770 0.17080370 0.00747687
v -0.09228085 0.17176351 0.00430263
v -0.09085324 0.17331223 0.00291768
v -0.09278691 0.17256902 0.00134067
v -0.09025130 0.16981981 0.01130821
v -0.08769970 0.16710033 0.01814700
v -0.08945758 0.16880337 0.01377482
v -0.09099706 0.17035351 0.00926112
v -0.09328231 0.17285498 -0.00096925
v -0.04575025 0.16820738 0.03202675
v -0.07675289 0.17619594 -0.00096925
v -0.04575025 0.16437519 0.04667984
v -0.05721910 0.16719943 0.03670724
v -0.05247281 0.16450401 0.04342977
v -0.05522683 0.16204785 0.04522413
v -0.05432658 0.16420814 0.04292432
v -0.05637211 0.16381883 0.04238854
v -0.08997430 0.16204785 0.01994135
v -0.08854136 0.16204785 0.02155881
v -0.08817913 0.16255748 0.02172560
v -0.08625078 0.16282646 0.02345425
v -0.08464738 0.16402835 0.02431858
v -0.08622415 0.16478856 0.02202888
v -0.08649582 0.16645479 0.01999695
v -0.09125275 0.17354724 0.00134067
v -0.08999028 0.17291586 0.00496477
v -0.08709243 0.17298380 0.00820473
v -0.08910068 0.17362227 0.00413077
v -0.08929777 0.17435983 0.00134067
v -0.08820043 0.17049650 0.01252130
v -0.08925516 0.17089005 0.01038829
v -0.08453552 0.16706352 0.02118477
v -0.08564884 0.16781099 0.01913768
v -0.08640527 0.16882036 0.01686314
v -0.09289877 0.17309706 -0.00096925
v -0.04633621 0.16827674 0.03202675
v -0.04575025 0.16769208 0.03512012
v -0.07701924 0.17624124 -0.00096925
v -0.04575025 0.16513256 0.04429915
v -0.04940451 0.16735798 0.03724808
v -0.05247281 0.16733816 0.03714699
v -0.05554645 0.16726596 0.03690437
v -0.05926463 0.16685684 0.03615630
v -0.06475135 0.17045686 0.02517280
v -0.06781966 0.17035068 0.02470778
v -0.06942306 0.17024167 0.02438429
v -0.07395094 0.17050924 0.02186208
v -0.07579937 0.17033087 0.02145266
v -0.05599923 0.16204785 0.04476922
v -0.05827382 0.16204785 0.04342472
v -0.07882506 0.16726030 0.02449043
v -0.08087060 0.16683702 0.02394454
v -0.08828566 0.16204785 0.02183680
v -0.08532390 0.16204785 0.02470778
v -0.08522268 0.16204785 0.02479876
v -0.08252727 0.16204785 0.02696210
v -0.07954952 0.16204785 0.02913555
v -0.07282163 0.16204785 0.03384638
v -0.08260185 0.16479139 0.02505149
v -0.09174816 0.17379214 -0.00096925
v -0.08613359 0.17246002 0.01044388
v -0.08504690 0.17342974 0.00934705
v -0.08613359 0.17367465 0.00729996
v -0.08622415 0.17448582 0.00440877
v -0.08622415 0.17510164 0.00134067
v -0.08694861 0.17530973 -0.00096925
v -0.08929777 0.17470383 -0.00096925
v -0.08716168 0.16982831 0.01456838
v -0.08511615 0.17046111 0.01557424
v -0.08617620 0.17094668 0.01357264
v -0.08369919 0.16985661 0.01762132
v -0.08248998 0.16756183 0.02189746
v -0.04633621 0.16775295 0.03509485
v -0.07826573 0.17638846 -0.00096925
v -0.04575025 0.16726596 0.03699030
v -0.04633621 0.16729003 0.03707117
v -0.04940451 0.16788885 0.03509485
v -0.06168305 0.17043704 0.02532949
v -0.07994371 0.16790300 0.02288309
v -0.08008754 0.17465570 0.00747687
v -0.08008754 0.17377092 0.01033774
v -0.08315584 0.17439805 0.00747687
v -0.08315584 0.17363784 0.00991316
v -0.07395094 0.17134164 0.01975434
v -0.07690205 0.17079803 0.01980488
v -0.08008754 0.17047102 0.01868278
v -0.08165365 0.17023884 0.01823798
v -0.05861475 0.16204785 0.04321748
v -0.08286819 0.17066072 0.01663569
v -0.08171758 0.17637713 -0.00013526
v -0.08227690 0.17642952 -0.00096925
v -0.08605901 0.17552350 -0.00096925
v -0.07964008 0.17647057 -0.00096925
v -0.08042846 0.17651021 -0.00096925
v -0.08106237 0.17637713 -0.00013526
v -0.08066817 0.17651021 -0.00096925
f 1 2 3
f 1 3 4
f 1 4 5
f 1 5 6
f 1 6 13
f 1 13 35
f 1 35 50
f 1 50 49
f 1 49 53
f 1 53 52
f 1 52 70
f 1 70 96
f 1 96 121
f 1 121 128
f 1 128 127
f 1 127 153
f 1 153 152
f 1 152 157
f 1 157 155
f 1 155 154
f 1 154 135
f 1 135 99
f 1 99 72
f 1 72 55
f 1 55 38
f 1 38 14
f 1 14 7
f 1 7 24
f 1 24 39
f 1 39 58
f 1 58 76
f 1 76 110
f 1 110 111
f 1 111 149
f 1 149 119
f 1 119 118
f 1 118 117
f 1 117 116
f 1 116 115
f 1 115 114
f 1 114 80
f 1 80 79
f 1 79 59
f 1 59 43
f 1 43 42
f 1 42 40
f 1 40 25
f 1 25 8
f 1 8 2
f 2 8 9
f 2 9 10
f 2 10 3
f 3 10 11
f 3 11 12
f 3 12 4
f 4 13 5
f 4 12 13
f 5 13 6
f 7 14 15
f 7 15 16
f 7 16 17
f 7 17 18
f 7 18 19
f 7 19 20
f 7 20 21
f 7 21 22
f 7 22 23
f 7 23 24
f 8 25 9
f 9 25 26
f 9 26 10
f 10 27 11
f 10 26 28
f 10 28 29
f 10 29 27
f 11 30 12
f 11 27 31
f 11 31 32
f 11 32 30
f 12 33 34
f 12 34 35
f 12 35 13
f 12 30 36
f 12 36 37
f 12 37 33
f 14 38 54
f 14 54 71
f 14 71 98
f 14 98 136
f 14 136 100
f 14 100 73
f 14 73 56
f 14 56 39
f 14 39 24
f 14 24 23
f 14 23 22
f 14 22 21
f 14 21 20
f 14 20 19
f 14 19 18
f 14 18 17
f 14 17 16
f 14 16 15
f 25 40 26
f 26 40 28
f 27 41 31
f 27 29 41
f 28 42 43
f 28 43 29
f 28 40 42
f 29 31 41
f 29 43 44
f 29 44 31
f 30 32 45
f 30 45 36
f 31 46 32
f 31 44 47
f 31 47 46
f 32 46 48
f 32 48 45
f 33 49 50
f 33 50 34
f 33 37 45
f 33 45 51
f 33 51 52
f 33 52 53
f 33 53 49
f 34 50 35
f 36 45 37
f 38 55 54
f 39 56 57
f 39 57 58
f 43 59 60
f 43 60 44
f 44 60 61
f 44 61 47
f 45 48 62
f 45 62 63
f 45 63 64
f 45 64 65
f 45 65 51
f 46 47 66
f 46 66 48
f 47 61 67
f 47 67 68
f 47 68 66
f 48 66 69
f 48 69 62
f 51 65 52
f 52 65 70
f 54 55 72
f 54 72 71
f 56 73 74
f 56 74 57
f 57 74 75
f 57 75 58
f 58 75 77
f 58 77 78
f 58 78 76
f 59 79 60
f 60 79 80
f 60 80 81
f 60 81 61
f 61 81 82
f 61 82 83
f 61 83 84
f 61 84 85
f 61 85 67
f 62 69 64
f 62 64 63
f 64 86 65
f 64 69 87
f 64 87 88
f 64 88 89
f 64 89 90
f 64 90 86
f 65 86 70
f 66 68 91
f 66 91 92
f 66 92 69
f 67 91 68
f 67 85 93
f 67 93 94
f 67 94 95
f 67 95 91
f 69 92 87
f 70 86 96
f 71 97 98
f 71 72 99
f 71 99 97
f 73 100 101
f 73 101 102
f 73 102 103
f 73 103 74
f 74 104 77
f 74 77 75
f 74 103 105
f 74 105 106
f 74 106 107
f 74 107 108
f 74 108 109
f 74 109 104
f 76 78 110
f 77 104 78
f 78 111 110
f 78 104 112
f 78 112 113
f 78 113 111
f 80 114 81
f 81 114 115
f 81 115 82
f 82 115 83
f 83 93 85
f 83 85 84
f 83 115 116
f 83 116 117
f 83 117 118
f 83 118 119
f 83 119 120
f 83 120 93
f 86 90 121
f 86 121 96
f 87 92 91
f 87 91 88
f 88 91 122
f 88 122 123
f 88 123 89
f 89 123 124
f 89 124 125
f 89 125 90
f 90 125 126
f 90 126 127
f 90 127 128
f 90 128 121
f 91 95 129
f 91 129 130
f 91 130 131
f 91 131 122
f 93 132 130
f 93 130 94
f 93 120 113
f 93 113 133
f 93 133 132
f 94 130 95
f 95 130 129
f 97 134 98
f 97 99 135
f 97 135 134
f 98 134 136
f 100 136 137
f 100 137 101
f 101 137 138
f 101 138 139
f 101 139 105
f 101 105 102
f 102 105 103
f 104 109 140
f 104 140 112
f 105 139 141
f 105 141 106
f 106 141 142
f 106 142 143
f 106 143 144
f 106 144 145
f 106 145 107
f 107 145 108
f 108 145 144
f 108 144 146
f 108 146 109
f 109 146 147
f 109 147 148
f 109 148 140
f 111 113 149
f 112 140 113
f 113 140 133
f 113 120 149
f 119 149 120
f 122 131 130
f 122 130 123
f 123 144 143
f 123 143 125
f 123 125 124
f 123 130 150
f 123 150 147
f 123 147 146
f 123 146 144
f 125 143 151
f 125 151 152
f 125 152 126
f 126 153 127
f 126 152 153
f 130 132 148
f 130 148 150
f 132 133 140
f 132 140 148
f 134 139 138
f 134 138 137
f 134 137 136
f 134 135 154
f 134 154 139
f 139 154 155
f 139 155 156
f 139 156 141
f 141 156 151
f 141 151 143
f 141 143 142
f 147 150 148
f 151 156 155
f 151 155 157
f 151 157 152

