v -0.03731561 0.17444072 -0.08440052
v -0.03424721 0.17434862 -0.08440052
v -0.03099344 0.17415291 -0.08765628
v -0.03406184 0.17422198 -0.08765628
v -0.04019620 0.17423349 -0.08440052
v -0.03117881 0.17402627 -0.08440052
v -0.02792260 0.17379603 -0.08765628
v -0.02664939 0.17349670 -0.09044973
v -0.02774943 0.17358880 -0.09091205
v -0.03099344 0.17384208 -0.09072647
v -0.03386183 0.17364635 -0.09085019
v -0.03713024 0.17395720 -0.08765628
v -0.04019620 0.17419896 -0.08458936
v -0.04038157 0.17421047 -0.08440052
v -0.02815920 0.17354275 -0.08440052
v -0.02664939 0.17347367 -0.08633119
v -0.02664939 0.17358880 -0.08765628
v -0.02664939 0.17357728 -0.08896185
v -0.02865677 0.17340460 -0.09263761
v -0.02664939 0.17251814 -0.09491012
v -0.03099344 0.17339309 -0.09258877
v -0.03270570 0.17331250 -0.09232179
v -0.03713024 0.17349670 -0.08979207
v -0.03878639 0.17332401 -0.08927766
v -0.04316216 0.17365788 -0.08440052
v -0.03996204 0.17353123 -0.08751954
v -0.04206699 0.17339309 -0.08640608
v -0.02799090 0.17350820 -0.08440052
v -0.02664939 0.17339309 -0.08545539
v -0.02664939 0.17196554 -0.09686358
v -0.02664939 0.17157411 -0.09813659
v -0.02664939 0.17086034 -0.09997284
v -0.03099344 0.17278292 -0.09412223
v -0.02764942 0.17074521 -0.09999562
v -0.03099344 0.17160866 -0.09686358
v -0.03386183 0.17258722 -0.09352317
v -0.03475211 0.17307073 -0.09195390
v -0.03713024 0.17282897 -0.09132879
v -0.03713024 0.17168923 -0.09379340
v -0.04005717 0.17084882 -0.09384874
v -0.04264750 0.17054950 -0.09286225
v -0.04633299 0.17068765 -0.09014695
v -0.04820867 0.17037682 -0.08952184
v -0.04315972 0.17363485 -0.08449820
v -0.04325728 0.17363485 -0.08440052
v -0.05156732 0.17109059 -0.08440052
v -0.04333777 0.17361183 -0.08440052
v -0.04929895 0.17073370 -0.08756513
v -0.05156732 0.17077975 -0.08533167
v -0.02664939 0.17313981 -0.08440052
v -0.02664939 0.17031925 -0.10122630
v -0.03099344 0.17059555 -0.09906773
v -0.03409111 0.17095244 -0.09704590
v -0.03713024 0.17061857 -0.09606918
v -0.03894493 0.17031925 -0.09549942
v -0.04098891 0.16995085 -0.09491012
v -0.04350851 0.16962850 -0.09384874
v -0.04940627 0.16875355 -0.09072972
v -0.05025508 0.16978968 -0.08852883
v -0.05128439 0.17039984 -0.08648421
v -0.05156732 0.17050345 -0.08597957
v -0.04633299 0.16981270 -0.09168366
v -0.04539394 0.16755626 -0.09575336
v -0.04855990 0.16771742 -0.09291760
v -0.05156732 0.16657768 -0.08440052
v -0.02664939 0.16969758 -0.08440052
v -0.03308863 0.17035379 -0.09867378
v -0.02664939 0.16998539 -0.10171141
v -0.03099344 0.16964001 -0.10060119
v -0.03513505 0.17005447 -0.09819193
v -0.03713024 0.16970909 -0.09760264
v -0.04326460 0.16801675 -0.09637196
v -0.05156732 0.16778650 -0.08992881
v -0.05156732 0.16876507 -0.08862000
v -0.05156732 0.16919103 -0.08805024
v -0.05156732 0.17001992 -0.08676747
v -0.03960837 0.16765987 -0.09897983
v -0.03783026 0.16658921 -0.10102444
v -0.04326460 0.16641652 -0.09790542
v -0.04616226 0.16546097 -0.09677893
v -0.04744035 0.16675038 -0.09496222
v -0.05060632 0.16686551 -0.09193761
v -0.05156732 0.16765987 -0.09008834
v -0.05156732 0.12977228 -0.09497849
v -0.05156732 0.12665239 -0.09588034
v -0.05156732 0.05682917 -0.11766139
v -0.02664939 0.09326618 -0.11766139
v -0.03409111 0.16927161 -0.09979051
v -0.03099344 0.16810885 -0.10249931
v -0.02664939 0.16740659 -0.10477509
v -0.02702257 0.16736054 -0.10472625
v -0.03406184 0.16762533 -0.10191001
v -0.03693755 0.16802827 -0.09997284
v -0.03578385 0.16724542 -0.10155514
v -0.03693755 0.16558762 -0.10209233
v -0.03911811 0.16453999 -0.10174072
v -0.04488417 0.16417159 -0.09844914
v -0.04836965 0.16470116 -0.09575662
v -0.04948677 0.16578333 -0.09390735
v -0.05147951 0.16481628 -0.09285248
v -0.05156732 0.16633593 -0.09136134
v -0.05156732 0.07178389 -0.11766139
v -0.02664939 0.10942971 -0.11766139
v -0.02664939 0.16703819 -0.10503554
v -0.02906898 0.16695761 -0.10438765
v -0.03099344 0.16638198 -0.10403277
v -0.03389842 0.16542645 -0.10345324
v -0.03276667 0.16427519 -0.10462532
v -0.03481308 0.16321605 -0.10418579
v -0.03689121 0.16232959 -0.10362254
v -0.03641558 0.14351819 -0.11102940
v -0.03846199 0.14228635 -0.11049545
v -0.04233773 0.14333399 -0.10799503
v -0.04016449 0.16230657 -0.10201094
v -0.04116453 0.16317000 -0.10110584
v -0.04299873 0.16230657 -0.10033097
v -0.04536955 0.16254832 -0.09878123
v -0.04690375 0.16254832 -0.09774915
v -0.04893309 0.16254832 -0.09621243
v -0.05046729 0.16254832 -0.09492641
v -0.05156732 0.16488535 -0.09268644
v -0.05156732 0.16439031 -0.09295341
v -0.04164503 0.12073498 -0.11362750
v -0.03971813 0.12265756 -0.11422330
v -0.05111853 0.07290060 -0.11766139
v -0.05156732 0.09505062 -0.11161218
v -0.04541589 0.13492987 -0.10817736
v -0.04501100 0.13800371 -0.10780620
v -0.04384267 0.13186755 -0.11002011
v -0.04230847 0.13186755 -0.11101638
v -0.02684208 0.10931458 -0.11766139
v -0.03043732 0.11554284 -0.11686373
v -0.02664939 0.11474849 -0.11702326
v -0.02664939 0.16564518 -0.10587553
v -0.02799821 0.16580635 -0.10536112
v -0.03099344 0.16483930 -0.10492485
v -0.02664939 0.16443636 -0.10652668
v -0.02664939 0.16307790 -0.10714853
v -0.02682500 0.16145463 -0.10773131
v -0.03389842 0.16232959 -0.10490531
v -0.03570824 0.16116683 -0.10458299
v -0.03425453 0.14438162 -0.11135498
v -0.03406184 0.14106603 -0.11234798
v -0.03731561 0.14118115 -0.11136801
v -0.02664939 0.16154674 -0.10775084
v -0.03906933 0.14023713 -0.11086336
v -0.04013278 0.14118115 -0.10999082
v -0.04332314 0.14076670 -0.10825224
v -0.04438415 0.14158409 -0.10722992
v -0.04480124 0.13953486 -0.10760108
v -0.05156732 0.16254832 -0.09378363
v -0.04194016 0.13403190 -0.11078848
v -0.03867419 0.12728558 -0.11374470
v -0.03713024 0.12571988 -0.11458144
v -0.03713024 0.12265756 -0.11511212
v -0.04741596 0.08151194 -0.11766139
v -0.03962545 0.13800371 -0.11112707
v -0.04803550 0.12496006 -0.10780620
v -0.04308410 0.13499894 -0.10980849
v -0.02855921 0.10795612 -0.11766139
v -0.02792260 0.11565797 -0.11688326
v -0.03248373 0.11477151 -0.11678559
v -0.03406184 0.12571988 -0.11523910
v -0.03099344 0.12879372 -0.11496562
v -0.03099344 0.13692152 -0.11381308
v -0.02873483 0.13691002 -0.11380983
v -0.02664939 0.11562343 -0.11688977
v -0.03099344 0.14413986 -0.11203543
v -0.03264716 0.13662221 -0.11376424
v -0.03548872 0.13329510 -0.11365355
v -0.03607410 0.13124587 -0.11392052
v -0.02664939 0.14413986 -0.11221125
v -0.02792260 0.14413986 -0.11223078
v -0.04115965 0.13800371 -0.11030337
v -0.04326460 0.13800371 -0.10897176
v -0.04158893 0.13606960 -0.11051174
v -0.03711073 0.12850591 -0.11407028
v -0.03406184 0.12879372 -0.11477353
v -0.04036450 0.09396845 -0.11766139
v -0.04569151 0.08500023 -0.11766139
v -0.04634031 0.08386049 -0.11766139
v -0.04669154 0.08314671 -0.11766139
v -0.03099344 0.10540035 -0.11766139
v -0.03711804 0.09842378 -0.11766139
v -0.03726439 0.09825109 -0.11766139
v -0.03737659 0.09811294 -0.11766139
v -0.03947178 0.09523482 -0.11766139
v -0.02664939 0.13474567 -0.11392052
v -0.02664939 0.13384769 -0.11406051
f 1 2 3
f 1 3 4
f 1 4 5
f 1 5 14
f 1 14 25
f 1 25 45
f 1 45 47
f 1 47 46
f 1 46 65
f 1 65 66
f 1 66 50
f 1 50 28
f 1 28 15
f 1 15 6
f 1 6 2
f 2 6 3
f 3 6 7
f 3 7 8
f 3 8 9
f 3 9 10
f 3 10 4
f 4 10 11
f 4 11 12
f 4 12 5
f 5 12 13
f 5 13 14
f 6 15 16
f 6 16 7
f 7 16 17
f 7 17 18
f 7 18 8
f 8 19 9
f 8 18 17
f 8 17 16
f 8 16 29
f 8 29 50
f 8 50 66
f 8 66 87
f 8 87 103
f 8 103 133
f 8 133 167
f 8 167 189
f 8 189 188
f 8 188 172
f 8 172 145
f 8 145 138
f 8 138 137
f 8 137 134
f 8 134 104
f 8 104 90
f 8 90 68
f 8 68 51
f 8 51 32
f 8 32 31
f 8 31 30
f 8 30 20
f 8 20 19
f 9 19 10
f 10 19 21
f 10 21 11
f 11 21 22
f 11 22 23
f 11 23 12
f 12 23 13
f 13 23 24
f 13 24 14
f 14 24 26
f 14 26 27
f 14 27 25
f 15 28 29
f 15 29 16
f 19 20 30
f 19 30 31
f 19 31 21
f 21 31 32
f 21 32 33
f 21 33 22
f 22 33 34
f 22 34 35
f 22 35 36
f 22 36 37
f 22 37 23
f 23 37 36
f 23 36 38
f 23 38 24
f 24 27 26
f 24 38 39
f 24 39 40
f 24 40 41
f 24 41 42
f 24 42 43
f 24 43 27
f 25 44 45
f 25 27 44
f 27 46 47
f 27 47 44
f 27 43 48
f 27 48 49
f 27 49 46
f 28 50 29
f 32 51 34
f 32 34 33
f 34 51 52
f 34 52 35
f 35 53 36
f 35 52 53
f 36 53 38
f 38 53 39
f 39 53 54
f 39 54 40
f 40 54 41
f 41 43 42
f 41 54 55
f 41 55 56
f 41 56 57
f 41 57 43
f 43 58 59
f 43 59 60
f 43 60 61
f 43 61 49
f 43 49 48
f 43 57 62
f 43 62 63
f 43 63 64
f 43 64 58
f 44 47 45
f 46 49 61
f 46 61 76
f 46 76 75
f 46 75 74
f 46 74 73
f 46 73 83
f 46 83 101
f 46 101 121
f 46 121 122
f 46 122 151
f 46 151 126
f 46 126 102
f 46 102 86
f 46 86 85
f 46 85 84
f 46 84 65
f 51 67 52
f 51 68 69
f 51 69 67
f 52 67 53
f 53 67 70
f 53 70 54
f 54 70 71
f 54 71 55
f 55 71 56
f 56 71 72
f 56 72 63
f 56 63 57
f 57 63 62
f 58 64 73
f 58 73 59
f 59 73 74
f 59 74 75
f 59 75 60
f 60 75 76
f 60 76 61
f 63 72 77
f 63 77 78
f 63 78 79
f 63 79 80
f 63 80 81
f 63 81 64
f 64 81 82
f 64 82 83
f 64 83 73
f 65 84 66
f 66 84 85
f 66 85 86
f 66 86 87
f 67 69 88
f 67 88 70
f 68 89 69
f 68 90 91
f 68 91 89
f 69 89 92
f 69 92 88
f 70 88 93
f 70 93 71
f 71 93 77
f 71 77 72
f 77 93 94
f 77 94 78
f 78 94 95
f 78 95 96
f 78 96 79
f 79 96 97
f 79 97 80
f 80 97 98
f 80 98 81
f 81 98 99
f 81 99 82
f 82 99 100
f 82 100 101
f 82 101 83
f 86 102 125
f 86 125 156
f 86 156 182
f 86 182 181
f 86 181 180
f 86 180 179
f 86 179 187
f 86 187 186
f 86 186 185
f 86 185 184
f 86 184 183
f 86 183 160
f 86 160 131
f 86 131 103
f 86 103 87
f 88 92 94
f 88 94 93
f 89 91 92
f 90 104 91
f 91 104 105
f 91 105 92
f 92 105 94
f 94 105 106
f 94 106 107
f 94 107 95
f 95 107 108
f 95 108 96
f 96 108 109
f 96 109 110
f 96 110 111
f 96 111 112
f 96 112 113
f 96 113 114
f 96 114 115
f 96 115 97
f 97 115 116
f 97 116 117
f 97 117 118
f 97 118 98
f 98 100 99
f 98 118 119
f 98 119 120
f 98 120 100
f 100 121 101
f 100 120 122
f 100 122 121
f 102 123 124
f 102 124 125
f 102 126 127
f 102 127 128
f 102 128 129
f 102 129 130
f 102 130 123
f 103 131 132
f 103 132 133
f 104 134 105
f 105 134 135
f 105 135 136
f 105 136 108
f 105 108 106
f 106 108 107
f 108 136 137
f 108 137 138
f 108 138 139
f 108 139 111
f 108 111 140
f 108 140 109
f 109 140 111
f 109 111 141
f 109 141 110
f 110 141 111
f 111 142 143
f 111 143 144
f 111 144 112
f 111 139 145
f 111 145 142
f 112 144 146
f 112 146 147
f 112 147 113
f 113 147 148
f 113 148 149
f 113 149 118
f 113 118 117
f 113 117 116
f 113 116 115
f 113 115 114
f 118 149 119
f 119 149 150
f 119 150 120
f 120 151 122
f 120 150 151
f 123 130 152
f 123 152 124
f 124 153 154
f 124 154 155
f 124 155 156
f 124 156 125
f 124 152 157
f 124 157 153
f 126 158 127
f 126 151 158
f 127 151 128
f 127 158 151
f 128 150 129
f 128 151 150
f 129 150 159
f 129 159 152
f 129 152 130
f 131 160 132
f 132 161 133
f 132 160 162
f 132 162 163
f 132 163 164
f 132 164 165
f 132 165 161
f 133 165 166
f 133 166 167
f 133 161 165
f 134 137 135
f 135 137 136
f 138 145 139
f 142 168 143
f 142 145 168
f 143 168 169
f 143 169 144
f 144 157 146
f 144 169 170
f 144 170 171
f 144 171 153
f 144 153 157
f 145 172 173
f 145 173 168
f 146 157 174
f 146 174 147
f 147 174 148
f 148 175 150
f 148 150 149
f 148 174 176
f 148 176 175
f 150 175 152
f 150 152 159
f 152 175 176
f 152 176 174
f 152 174 157
f 153 171 177
f 153 177 154
f 154 177 171
f 154 171 155
f 155 171 178
f 155 178 163
f 155 163 162
f 155 162 179
f 155 179 180
f 155 180 181
f 155 181 182
f 155 182 156
f 160 183 162
f 162 183 184
f 162 184 185
f 162 185 186
f 162 186 187
f 162 187 179
f 163 178 169
f 163 169 165
f 163 165 164
f 165 169 168
f 165 168 173
f 165 173 166
f 166 173 172
f 166 172 188
f 166 188 189
f 166 189 167
f 169 178 171
f 169 171 170

