v 0.14681382 0.12516290 0.03811687
v 0.14356777 0.12516290 0.03811687
v 0.14694244 0.12269604 0.03811687
v 0.14701351 0.12516290 0.03566060
v 0.12898933 0.12516290 -0.00096925
v 0.11258308 -0.17486973 0.03811687
v 0.14694244 0.12263436 0.03811687
v 0.14715568 0.12263436 0.03509435
v 0.14705414 0.12516290 0.03509435
v 0.13362654 0.12516290 -0.00096925
v 0.11475275 -0.18112940 -0.00096925
v 0.11461398 -0.18112940 -0.00064787
v 0.11469860 -0.17807667 -0.00040683
v 0.11416041 -0.18112940 0.00134163
v 0.11376777 -0.18112940 0.00441006
v 0.11384563 -0.18421298 0.00747849
v 0.11260678 -0.17499307 0.03811687
v 0.14634670 0.10730896 0.03811687
v 0.14715906 0.12263436 0.03202592
v 0.14652272 0.10730896 0.03509435
v 0.14699659 0.12516290 0.03202592
v 0.13375516 0.12516290 -0.00083152
v 0.13456075 0.11344529 -0.00096925
v 0.11527063 -0.18334959 -0.00096925
v 0.11465798 -0.18319541 -0.00053309
v 0.11446166 -0.18421298 0.00141050
v 0.11400133 -0.18421298 0.00441006
v 0.11439396 -0.18612482 0.00747849
v 0.11452936 -0.18603230 0.01054692
v 0.12019893 -0.18960926 0.03811687
v 0.14616054 0.10422538 0.03811687
v 0.13033987 -0.17745995 0.03411490
v 0.13128424 -0.17807667 0.02895749
v 0.13325760 -0.17675071 0.01842077
v 0.13336591 -0.17696656 0.01668378
v 0.14681382 0.11958162 0.02895749
v 0.14688151 0.12263436 0.02895749
v 0.13335914 -0.17684323 0.01054692
v 0.13329820 -0.17671987 0.00867985
v 0.13340313 -0.17696656 0.01361535
v 0.14664796 0.12516290 0.02895749
v 0.13404964 0.12516290 -0.00051014
v 0.13675750 0.12263436 0.00229813
v 0.13684889 0.11958162 0.00216422
v 0.13470292 0.11036169 -0.00096925
v 0.11619807 -0.18368878 -0.00096925
v 0.11468844 -0.18581645 0.00248177
v 0.11453274 -0.18597062 0.00441006
v 0.12064912 -0.18939341 0.02045619
v 0.12232460 -0.18985595 0.02283977
v 0.12253447 -0.18957842 0.03811687
v 0.14559189 0.09488211 0.03811687
v 0.12801111 -0.17807667 0.03798679
v 0.12961213 -0.17832334 0.03512114
v 0.12760493 -0.18112940 0.03764627
v 0.13003862 -0.17949510 0.03344918
v 0.13057681 -0.17832334 0.03226313
v 0.13032295 -0.18020434 0.03140229
v 0.13052942 -0.18119108 0.02884272
v 0.13178181 -0.17807667 0.02588907
v 0.13095929 -0.18112940 0.02588907
v 0.13018417 -0.18282537 0.02774466
v 0.13026541 -0.18294872 0.02588907
v 0.13268218 -0.17850835 0.01668378
v 0.14612331 0.11036169 0.02588907
v 0.14620116 0.11344529 0.02588907
v 0.14636025 0.12263436 0.02588907
v 0.14547004 0.12426867 0.02124816
v 0.14626886 0.12516290 0.02645531
v 0.14633317 0.11958162 0.02588907
v 0.13258063 -0.17850835 0.01361535
v 0.13029587 -0.18294872 0.02072018
v 0.13231322 -0.17838502 0.01054692
v 0.13077990 -0.18020434 0.01054692
v 0.13041096 -0.17983431 0.00814039
v 0.13164304 -0.17813832 0.00738667
v 0.12969337 -0.17619567 -0.00096925
v 0.13067159 -0.17471556 -0.00096925
v 0.14548020 0.12075339 0.02121373
v 0.14569682 0.11036169 0.02314585
v 0.13530202 0.12516290 0.00089782
v 0.13555589 0.12516290 0.00118477
v 0.13663903 0.12516290 0.00243586
v 0.13697412 0.12516290 0.00289498
v 0.13846683 0.12278854 0.00466640
v 0.13838560 0.11958162 0.00428763
v 0.13689289 0.11649803 0.00207239
v 0.13580298 0.11036169 0.00039662
v 0.13573529 0.11344529 0.00046931
v 0.13472999 0.10730896 -0.00096925
v 0.11816127 -0.18313374 -0.00096925
v 0.11496261 -0.18581645 0.00248177
v 0.12244985 -0.18960926 0.02036054
v 0.12480230 -0.18967094 0.02282064
v 0.12507986 -0.18960926 0.02588907
v 0.12254801 -0.18957842 0.03807479
v 0.12451798 -0.18933173 0.03509435
v 0.12416257 -0.18902338 0.03699586
v 0.12468721 -0.18729658 0.03811687
v 0.12791633 -0.17807667 0.03811687
v 0.12786896 -0.17838502 0.03811687
v 0.12732738 -0.18112940 0.03811687
v 0.12725968 -0.18319541 0.03705325
v 0.12762863 -0.18421298 0.03507522
v 0.12722245 -0.18603230 0.03403839
v 0.12850192 -0.18421298 0.03202592
v 0.12751355 -0.18643316 0.03202592
v 0.12783172 -0.18683403 0.02895749
v 0.12942936 -0.18449051 0.02588907
v 0.13035002 -0.18307206 0.02282064
v 0.14548020 0.12263436 0.02120608
v 0.14319206 0.12263436 0.01361535
v 0.14406873 0.12516290 0.01668378
v 0.14422103 0.12516290 0.01723855
v 0.14536850 0.12516290 0.02146624
v 0.14558851 0.12516290 0.02238830
v 0.12926011 -0.18461385 0.02282064
v 0.12772679 -0.18646400 0.02282064
v 0.12633563 -0.18800579 0.02282064
v 0.12439951 -0.18930091 0.02088087
v 0.13490601 0.06435465 -0.00096925
v 0.13583682 0.06435465 0.00033158
v 0.13682520 0.06435465 0.00186579
v 0.13948228 0.10422538 0.00568029
v 0.14033526 0.10422538 0.00747849
v 0.13807758 0.12516290 0.00445980
v 0.13927581 0.12392948 0.00597489
v 0.13937397 0.12189431 0.00586011
v 0.13849392 0.11036169 0.00413459
v 0.13696059 0.11036169 0.00193083
v 0.13698090 0.10730896 0.00190788
v 0.13580975 0.10730896 0.00037366
v 0.13487215 0.07968005 -0.00096925
v 0.12661318 -0.18834498 0.02588907
v 0.12483953 -0.18942424 0.03202592
v 0.12656240 -0.18837582 0.02895749
v 0.12637625 -0.18797495 0.03202592
v 0.12473122 -0.18726574 0.03807479
v 0.12472107 -0.18723490 0.03811687
v 0.12626455 -0.18421298 0.03811687
v 0.12679596 -0.18523057 0.03608528
v 0.12789603 -0.18683403 0.02588907
v 0.14038603 0.10730896 0.00747849
v 0.14247109 0.12263436 0.01193192
v 0.14247786 0.12466953 0.01192810
v 0.14301942 0.12516290 0.01345849
v 0.13490601 0.06626646 -0.00096925
v 0.13851761 0.10730896 0.00411164
v 0.13950259 0.10730896 0.00564585
v 0.13839237 0.12516290 0.00490744
v 0.13919796 0.12516290 0.00607054
v 0.14003062 0.12516290 0.00755884
v 0.13948905 0.11036169 0.00566881
v 0.14241355 0.12516290 0.01200844
v 0.14270802 0.12516290 0.01261677
f 1 2 6
f 1 6 17
f 1 17 30
f 1 30 51
f 1 51 99
f 1 99 139
f 1 139 140
f 1 140 102
f 1 102 101
f 1 101 100
f 1 100 52
f 1 52 31
f 1 31 18
f 1 18 7
f 1 7 3
f 1 3 4
f 1 4 9
f 1 9 21
f 1 21 41
f 1 41 69
f 1 69 116
f 1 116 115
f 1 115 114
f 1 114 113
f 1 113 146
f 1 146 155
f 1 155 154
f 1 154 152
f 1 152 151
f 1 151 150
f 1 150 126
f 1 126 84
f 1 84 83
f 1 83 82
f 1 82 81
f 1 81 42
f 1 42 22
f 1 22 10
f 1 10 5
f 1 5 2
f 2 5 6
f 3 7 8
f 3 8 9
f 3 9 4
f 5 10 23
f 5 23 45
f 5 45 90
f 5 90 133
f 5 133 147
f 5 147 121
f 5 121 78
f 5 78 77
f 5 77 91
f 5 91 46
f 5 46 24
f 5 24 11
f 5 11 12
f 5 12 13
f 5 13 14
f 5 14 15
f 5 15 6
f 6 15 16
f 6 16 17
f 7 18 8
f 8 19 9
f 8 18 20
f 8 20 19
f 9 19 21
f 10 22 23
f 11 24 25
f 11 25 12
f 12 25 14
f 12 14 13
f 14 25 26
f 14 26 27
f 14 27 15
f 15 27 16
f 16 27 28
f 16 28 17
f 17 28 29
f 17 29 30
f 18 31 32
f 18 32 33
f 18 33 34
f 18 34 35
f 18 35 20
f 19 36 37
f 19 37 21
f 19 20 38
f 19 38 39
f 19 39 36
f 20 35 40
f 20 40 38
f 21 37 41
f 22 42 23
f 23 42 43
f 23 43 44
f 23 44 45
f 24 46 47
f 24 47 25
f 25 47 26
f 26 47 27
f 27 47 48
f 27 48 28
f 28 48 49
f 28 49 30
f 28 30 29
f 30 49 50
f 30 50 51
f 31 52 32
f 32 53 54
f 32 54 55
f 32 55 56
f 32 56 57
f 32 57 33
f 32 52 53
f 33 57 58
f 33 58 59
f 33 59 60
f 33 60 34
f 34 60 59
f 34 59 61
f 34 61 62
f 34 62 35
f 35 62 63
f 35 63 64
f 35 64 40
f 36 65 66
f 36 66 37
f 36 39 65
f 37 67 68
f 37 68 69
f 37 69 41
f 37 66 70
f 37 70 67
f 38 40 71
f 38 71 39
f 39 71 72
f 39 72 73
f 39 73 74
f 39 74 75
f 39 75 76
f 39 76 77
f 39 77 78
f 39 78 79
f 39 79 80
f 39 80 65
f 40 64 71
f 42 81 43
f 43 81 82
f 43 82 83
f 43 83 84
f 43 84 85
f 43 85 44
f 44 86 87
f 44 87 88
f 44 88 89
f 44 89 45
f 44 85 86
f 45 89 88
f 45 88 90
f 46 91 92
f 46 92 47
f 47 92 93
f 47 93 49
f 47 49 48
f 49 93 50
f 50 93 94
f 50 94 95
f 50 95 96
f 50 96 51
f 51 96 97
f 51 97 98
f 51 98 99
f 52 100 53
f 53 100 101
f 53 101 102
f 53 102 55
f 53 55 54
f 55 102 103
f 55 103 56
f 56 58 57
f 56 103 104
f 56 104 105
f 56 105 58
f 58 105 106
f 58 106 62
f 58 62 59
f 59 62 61
f 62 106 105
f 62 105 107
f 62 107 108
f 62 108 109
f 62 109 63
f 63 109 110
f 63 110 64
f 64 110 71
f 65 80 66
f 66 80 70
f 67 79 111
f 67 111 68
f 67 70 79
f 68 111 112
f 68 112 113
f 68 113 114
f 68 114 115
f 68 115 116
f 68 116 69
f 70 80 79
f 71 110 72
f 72 110 117
f 72 117 118
f 72 118 73
f 73 118 74
f 74 118 119
f 74 119 94
f 74 94 75
f 75 94 120
f 75 120 77
f 75 77 76
f 77 120 91
f 78 121 122
f 78 122 123
f 78 123 124
f 78 124 125
f 78 125 112
f 78 112 79
f 79 112 111
f 84 126 127
f 84 127 85
f 85 127 128
f 85 128 86
f 86 128 129
f 86 129 130
f 86 130 87
f 87 130 88
f 88 130 131
f 88 131 132
f 88 132 90
f 90 132 133
f 91 120 92
f 92 120 93
f 93 120 94
f 94 119 134
f 94 134 95
f 95 135 96
f 95 134 136
f 95 136 135
f 96 135 97
f 97 135 136
f 97 136 137
f 97 137 107
f 97 107 105
f 97 105 98
f 98 105 138
f 98 138 99
f 99 138 139
f 102 140 103
f 103 140 141
f 103 141 104
f 104 141 105
f 105 141 138
f 107 137 108
f 108 137 136
f 108 136 142
f 108 142 109
f 109 142 110
f 110 142 117
f 112 125 143
f 112 143 144
f 112 144 145
f 112 145 146
f 112 146 113
f 117 142 118
f 118 142 134
f 118 134 119
f 121 147 131
f 121 131 122
f 122 131 148
f 122 148 123
f 123 148 149
f 123 149 124
f 124 149 143
f 124 143 125
f 126 150 127
f 127 145 128
f 127 150 151
f 127 151 152
f 127 152 145
f 128 145 153
f 128 153 129
f 129 153 148
f 129 148 130
f 130 148 131
f 131 147 133
f 131 133 132
f 134 142 136
f 138 141 140
f 138 140 139
f 143 149 145
f 143 145 144
f 145 152 154
f 145 154 155
f 145 155 146
f 145 149 153
f 148 153 149

