v 0.03190282 -0.18948676 0.11587832
v 0.03802523 -0.18887010 0.11333753
v 0.03959268 -0.18954841 0.11293552
v 0.04243284 -0.18970259 0.11192393
v 0.03345686 -0.18967175 0.11569702
v 0.03190282 -0.18948676 0.11756517
v 0.03190282 -0.18772927 0.11587832
v 0.03802523 -0.18877761 0.11333753
v 0.04233906 -0.18735929 0.11192393
v 0.04278116 -0.18973343 0.11192393
v 0.03652477 -0.18982592 0.11729192
v 0.03345686 -0.18967175 0.11752840
v 0.03190282 -0.18846928 0.11909964
v 0.03190282 0.12516290 0.12464893
v 0.09543799 0.12516290 0.11192393
v 0.04266058 -0.18976424 0.11435437
v 0.04565481 -0.18948676 0.11192393
v 0.03903001 -0.18939426 0.11688202
v 0.04171610 -0.17989772 0.12900270
v 0.03190282 -0.17366948 0.13806759
v 0.03190282 0.12516290 0.12853763
v 0.10008674 0.12516290 0.11192393
v 0.04464334 -0.18917843 0.11370800
v 0.04270748 -0.18063771 0.12727380
v 0.04576199 -0.18942510 0.11192393
v 0.04376584 -0.17928107 0.12837473
v 0.04146826 -0.17675277 0.13197704
v 0.03652477 -0.17616694 0.13433129
v 0.03226454 -0.17360783 0.13801768
v 0.03190282 -0.17185034 0.13874550
v 0.03204348 0.12516290 0.12860595
v 0.03190282 0.12457708 0.12869003
v 0.09615473 0.12516290 0.11622515
v 0.10032789 0.12263460 0.11192393
v 0.04668638 -0.18828427 0.11290135
v 0.04657251 -0.18227186 0.12186903
v 0.04576199 -0.18119271 0.12408927
v 0.04495817 -0.18008273 0.12632791
v 0.04452277 -0.18282686 0.12280179
v 0.04847488 -0.18735929 0.11192393
v 0.04700121 -0.17937356 0.12537413
v 0.05039064 -0.17354615 0.12875572
v 0.04880310 -0.17416280 0.12933115
v 0.04477731 -0.17391615 0.13207163
v 0.03880226 -0.17413198 0.13519047
v 0.03652477 -0.17462530 0.13565554
v 0.03430757 -0.17268282 0.13761304
v 0.03335639 -0.17175784 0.13829356
v 0.03515828 -0.17064785 0.13797038
v 0.03190282 -0.17074037 0.13876651
v 0.03282051 0.12516290 0.12890549
v 0.03190282 0.12439207 0.12873207
v 0.09306672 0.12516290 0.11925466
v 0.09611454 0.12263460 0.11618048
v 0.10022741 0.11958215 0.11192393
v 0.04799928 -0.18020605 0.12332992
v 0.06399528 -0.17487197 0.11192393
v 0.05065188 -0.17191202 0.12898956
v 0.04880310 -0.17191202 0.13027704
v 0.04687394 -0.17191202 0.13151198
v 0.04533998 -0.17191202 0.13245787
v 0.05945370 -0.17336116 0.11939918
v 0.06009676 -0.17129534 0.12005080
v 0.04085200 -0.17283700 0.13463607
v 0.03973335 -0.17185034 0.13546899
v 0.03631712 -0.17175784 0.13709016
v 0.04130079 -0.17077118 0.13491197
v 0.08441897 0.12263460 0.12581029
v 0.08255009 0.12263460 0.12673517
v 0.08255009 0.12516290 0.12682713
v 0.08200082 0.12516290 0.12707674
v 0.07956926 0.12263460 0.12808045
v 0.07967644 0.12516290 0.12811724
v 0.07814249 0.12516290 0.12876623
v 0.07641427 0.12516290 0.12939157
v 0.07584491 0.12516290 0.12955711
v 0.07334637 0.12516290 0.13025077
v 0.06623257 0.12516290 0.13182465
v 0.06414264 0.12516290 0.13202171
v 0.05743746 0.12516290 0.13247364
v 0.05493892 0.12516290 0.13264180
v 0.05436955 0.12516290 0.13266282
v 0.05187101 0.12516290 0.13272326
v 0.05130164 0.12516290 0.13271537
v 0.04572850 0.11344641 0.13286776
v 0.03190282 0.00513045 0.13486204
v 0.03291429 0.12516290 0.12893964
v 0.03595540 0.12516290 0.12988292
v 0.03190282 0.12263460 0.12893702
v 0.03345686 0.12263460 0.12942574
v 0.09278539 0.12516290 0.11953055
v 0.09301984 0.12263460 0.11921263
v 0.09947718 0.11175060 0.11192393
v 0.06647372 -0.17178868 0.11192393
v 0.06240774 -0.17314533 0.11612793
v 0.06040488 -0.16885954 0.12035559
v 0.06309768 -0.15350477 0.12006393
v 0.06331873 -0.15045232 0.12026626
v 0.08984475 0.12263460 0.12222899
v 0.08831080 0.12263460 0.12336671
v 0.08595293 0.12263460 0.12490117
v 0.04245964 -0.17185034 0.13404226
v 0.06125559 -0.17222034 0.11814061
v 0.06295701 -0.17111035 0.11688466
v 0.06194554 -0.16885954 0.11870815
v 0.08449266 0.12516290 0.12586809
v 0.08415103 0.12516290 0.12603888
v 0.04880310 0.12516290 0.13258400
v 0.04572850 0.11649886 0.13277317
v 0.04266058 0.11344641 0.13254459
v 0.03345686 0.05514140 0.13334860
v 0.03190282 0.05051647 0.13325927
v 0.03652477 0.12516290 0.13003006
v 0.03345686 0.11958215 0.12978044
v 0.04075152 0.11878048 0.13185355
v 0.03190282 0.11958215 0.12924969
v 0.09153277 0.12516290 0.12069454
v 0.09148588 0.12263460 0.12069454
v 0.09934320 0.11036312 0.11192393
v 0.06318476 -0.16885954 0.11717368
v 0.09122464 0.12516290 0.12097830
v 0.08985145 0.12516290 0.12222899
v 0.08831750 0.12516290 0.12337459
v 0.08603330 0.12516290 0.12490906
v 0.04823373 0.12516290 0.13252882
v 0.04266058 0.11649886 0.13242634
v 0.03190282 0.05356893 0.13314102
v 0.04370555 0.12516290 0.13185880
v 0.03345686 0.11649886 0.12999590
v 0.04035631 0.11649886 0.13195865
v 0.03190282 0.11649886 0.12945463
v 0.04572850 0.12516290 0.13218987
v 0.04528639 0.12516290 0.13212155
f 1 2 3
f 1 3 4
f 1 4 5
f 1 5 12
f 1 12 6
f 1 6 13
f 1 13 20
f 1 20 30
f 1 30 50
f 1 50 86
f 1 86 112
f 1 112 127
f 1 127 131
f 1 131 116
f 1 116 89
f 1 89 52
f 1 52 32
f 1 32 21
f 1 21 14
f 1 14 7
f 1 7 8
f 1 8 2
f 2 8 9
f 2 9 4
f 2 4 3
f 4 10 5
f 4 9 15
f 4 15 22
f 4 22 34
f 4 34 55
f 4 55 93
f 4 93 119
f 4 119 94
f 4 94 57
f 4 57 40
f 4 40 25
f 4 25 17
f 4 17 10
f 5 10 11
f 5 11 12
f 6 12 13
f 7 14 8
f 8 14 9
f 9 14 15
f 10 16 11
f 10 17 16
f 11 13 12
f 11 16 18
f 11 18 19
f 11 19 20
f 11 20 13
f 14 21 31
f 14 31 51
f 14 51 87
f 14 87 88
f 14 88 113
f 14 113 128
f 14 128 133
f 14 133 132
f 14 132 125
f 14 125 108
f 14 108 84
f 14 84 83
f 14 83 82
f 14 82 81
f 14 81 80
f 14 80 79
f 14 79 78
f 14 78 77
f 14 77 76
f 14 76 75
f 14 75 74
f 14 74 73
f 14 73 71
f 14 71 70
f 14 70 107
f 14 107 106
f 14 106 124
f 14 124 123
f 14 123 122
f 14 122 121
f 14 121 117
f 14 117 91
f 14 91 53
f 14 53 33
f 14 33 22
f 14 22 15
f 16 17 23
f 16 23 24
f 16 24 19
f 16 19 18
f 17 25 23
f 19 24 26
f 19 26 27
f 19 27 28
f 19 28 20
f 20 28 29
f 20 29 30
f 21 32 31
f 22 33 34
f 23 25 35
f 23 35 36
f 23 36 37
f 23 37 38
f 23 38 39
f 23 39 24
f 24 39 26
f 25 40 35
f 26 39 38
f 26 38 41
f 26 41 42
f 26 42 43
f 26 43 27
f 27 43 44
f 27 44 45
f 27 45 46
f 27 46 28
f 28 46 29
f 29 46 45
f 29 45 47
f 29 47 48
f 29 48 30
f 30 48 49
f 30 49 50
f 31 32 51
f 32 52 51
f 33 53 54
f 33 54 55
f 33 55 34
f 35 56 36
f 35 40 57
f 35 57 56
f 36 56 37
f 37 56 38
f 38 56 41
f 41 56 42
f 42 58 59
f 42 59 60
f 42 60 61
f 42 61 44
f 42 44 43
f 42 56 62
f 42 62 63
f 42 63 58
f 44 61 64
f 44 64 45
f 45 64 65
f 45 65 66
f 45 66 47
f 47 66 49
f 47 49 48
f 49 66 65
f 49 65 67
f 49 67 68
f 49 68 69
f 49 69 70
f 49 70 71
f 49 71 72
f 49 72 73
f 49 73 74
f 49 74 75
f 49 75 76
f 49 76 77
f 49 77 50
f 50 77 78
f 50 78 79
f 50 79 80
f 50 80 81
f 50 81 82
f 50 82 83
f 50 83 84
f 50 84 85
f 50 85 86
f 51 52 87
f 52 88 87
f 52 89 90
f 52 90 88
f 53 91 54
f 54 91 92
f 54 92 55
f 55 92 93
f 56 57 62
f 57 94 95
f 57 95 62
f 58 63 96
f 58 96 97
f 58 97 98
f 58 98 99
f 58 99 100
f 58 100 59
f 59 100 101
f 59 101 60
f 60 101 61
f 61 67 102
f 61 102 64
f 61 101 68
f 61 68 67
f 62 95 103
f 62 103 63
f 63 104 105
f 63 105 96
f 63 103 104
f 64 102 65
f 65 102 67
f 68 101 106
f 68 106 107
f 68 107 69
f 69 107 70
f 71 73 72
f 84 108 109
f 84 109 85
f 85 109 86
f 86 109 110
f 86 110 111
f 86 111 112
f 88 90 114
f 88 114 115
f 88 115 113
f 89 116 114
f 89 114 90
f 91 117 99
f 91 99 118
f 91 118 92
f 92 118 119
f 92 119 93
f 94 98 97
f 94 97 120
f 94 120 104
f 94 104 95
f 94 119 98
f 95 104 103
f 96 105 97
f 97 105 120
f 98 119 118
f 98 118 99
f 99 117 121
f 99 121 122
f 99 122 123
f 99 123 100
f 100 123 124
f 100 124 101
f 101 124 106
f 104 120 105
f 108 125 109
f 109 125 126
f 109 126 110
f 110 126 111
f 111 127 112
f 111 126 127
f 113 115 128
f 114 116 129
f 114 129 130
f 114 130 115
f 115 130 126
f 115 126 128
f 116 131 129
f 125 132 126
f 126 132 133
f 126 133 128
f 126 130 127
f 127 130 129
f 127 129 131

