v -0.02664939 0.16622515 -0.00096925
v -0.03104123 0.16745291 -0.00096925
v -0.02664939 0.16318609 -0.00096925
v -0.02664939 0.16739733 -0.00633479
v -0.03405999 0.16794805 -0.00096925
v -0.02664939 0.16788994 -0.00914414
v -0.02664939 0.17171214 -0.03241931
v -0.02664939 0.16318862 -0.00141842
v -0.05174966 0.16549507 -0.00096925
v -0.03891803 0.15164625 -0.02448126
v -0.03842127 0.15164625 -0.02448126
v -0.03842127 0.15164625 -0.02538776
v -0.04997152 0.17042376 -0.00572229
v -0.03712970 0.16817288 -0.00096925
v -0.03405999 0.16806678 -0.00173693
v -0.05247059 0.17112100 -0.00787014
v -0.05247059 0.17153278 -0.01094083
v -0.02664939 0.17184603 -0.03369332
v -0.05247059 0.17741131 -0.05696033
v -0.02664939 0.16319115 -0.00173693
v -0.05267439 0.16558349 -0.00096925
v -0.04193424 0.15470047 -0.02452209
v -0.03891803 0.15164625 -0.02538776
v -0.05267439 0.16575275 -0.08440052
v -0.02664939 0.16969620 -0.08440052
v -0.02664939 0.16856445 -0.07723831
v -0.02664939 0.16829161 -0.07535996
v -0.02664939 0.16806426 -0.07230561
v -0.05247059 0.17050206 -0.00546912
v -0.05016258 0.16874381 -0.00096925
v -0.05267439 0.17153530 -0.01094083
v -0.05267439 0.17111089 -0.00787014
v -0.05267439 0.17049702 -0.00548545
v -0.05267439 0.17740121 -0.05676433
v -0.02664939 0.17193444 -0.03549000
v -0.04940343 0.17713343 -0.06003102
v -0.05247059 0.17745427 -0.06003102
v -0.05267439 0.17741386 -0.05696033
v -0.04193424 0.15470047 -0.02516726
v -0.05267439 0.16883728 -0.00096925
v -0.05267439 0.16697545 -0.08440052
v -0.02664939 0.17314198 -0.08440052
v -0.02798936 0.17351586 -0.08440052
v -0.02816004 0.17355123 -0.08440052
v -0.04473136 0.17638315 -0.06735657
v -0.04473136 0.17638315 -0.06799357
v -0.04940343 0.17706775 -0.06310170
v -0.05267439 0.17744417 -0.06003102
v -0.05267439 0.17745174 -0.05982685
v -0.04739602 0.17640336 -0.07094176
v -0.04810931 0.17640336 -0.07094176
v -0.05247059 0.17714860 -0.06310170
v -0.05266420 0.17075722 -0.08440052
v -0.05267439 0.17075469 -0.08439236
v -0.03117880 0.17403122 -0.08440052
v -0.03424851 0.17435206 -0.08440052
v -0.04635665 0.17647408 -0.06910425
v -0.05267439 0.17715869 -0.06289753
v -0.03712970 0.17443542 -0.08440052
v -0.03731566 0.17444047 -0.08440052
v -0.04019686 0.17423584 -0.08440052
v -0.04038282 0.17421058 -0.08440052
v -0.04316212 0.17366239 -0.08440052
v -0.04940343 0.17482698 -0.07537630
v -0.05247059 0.17496592 -0.07230561
v -0.05267439 0.17663324 -0.06613973
v -0.05267439 0.17665850 -0.06600090
v -0.05267439 0.17712586 -0.06310987
v -0.05252664 0.17080522 -0.08440052
v -0.05267439 0.17081279 -0.08426986
v -0.04325892 0.17363966 -0.08440052
v -0.05266420 0.17398069 -0.07558046
v -0.05267439 0.17496846 -0.07210961
v -0.04333790 0.17361944 -0.08440052
v -0.05267439 0.17397564 -0.07558863
v -0.05177004 0.17354871 -0.07760581
f 1 2 5
f 1 5 14
f 1 14 30
f 1 30 40
f 1 40 21
f 1 21 9
f 1 9 3
f 1 3 8
f 1 8 20
f 1 20 28
f 1 28 27
f 1 27 26
f 1 26 25
f 1 25 42
f 1 42 35
f 1 35 18
f 1 18 7
f 1 7 6
f 1 6 4
f 1 4 2
f 2 4 6
f 2 6 7
f 2 7 5
f 3 9 10
f 3 10 11
f 3 11 12
f 3 12 8
f 5 13 14
f 5 7 15
f 5 15 16
f 5 16 13
f 7 17 16
f 7 16 15
f 7 18 19
f 7 19 17
f 8 12 20
f 9 21 10
f 10 22 39
f 10 39 23
f 10 23 12
f 10 12 11
f 10 21 22
f 12 23 24
f 12 24 25
f 12 25 26
f 12 26 27
f 12 27 28
f 12 28 20
f 13 29 14
f 13 16 29
f 14 29 30
f 16 17 31
f 16 31 32
f 16 32 33
f 16 33 29
f 17 19 34
f 17 34 31
f 18 35 36
f 18 36 19
f 19 36 37
f 19 37 38
f 19 38 34
f 21 39 22
f 21 40 33
f 21 33 32
f 21 32 31
f 21 31 34
f 21 34 38
f 21 38 49
f 21 49 48
f 21 48 58
f 21 58 68
f 21 68 67
f 21 67 66
f 21 66 73
f 21 73 75
f 21 75 70
f 21 70 54
f 21 54 41
f 21 41 24
f 21 24 39
f 23 39 24
f 24 41 53
f 24 53 69
f 24 69 74
f 24 74 71
f 24 71 63
f 24 63 62
f 24 62 61
f 24 61 60
f 24 60 59
f 24 59 56
f 24 56 55
f 24 55 44
f 24 44 43
f 24 43 42
f 24 42 25
f 29 33 40
f 29 40 30
f 35 42 43
f 35 43 44
f 35 44 36
f 36 44 45
f 36 45 46
f 36 46 47
f 36 47 37
f 37 48 49
f 37 49 38
f 37 47 50
f 37 50 51
f 37 51 52
f 37 52 48
f 41 54 53
f 44 55 46
f 44 46 45
f 46 55 56
f 46 56 57
f 46 57 47
f 47 57 50
f 48 52 58
f 50 57 56
f 50 56 59
f 50 59 60
f 50 60 51
f 51 60 61
f 51 61 62
f 51 62 63
f 51 63 64
f 51 64 65
f 51 65 66
f 51 66 67
f 51 67 68
f 51 68 58
f 51 58 52
f 53 54 70
f 53 70 69
f 63 71 64
f 64 72 65
f 64 71 72
f 65 72 73
f 65 73 66
f 69 70 74
f 70 75 76
f 70 76 74
f 71 74 75
f 71 75 72
f 72 75 73
f 74 76 75

