v 0.03190281 -0.10683823 0.13339961
v 0.03190281 -0.10904971 0.13335992
v 0.03190281 -0.10683823 0.12996402
v 0.02635776 -0.10683823 0.13492155
v 0.02646679 -0.11056920 0.13495331
v 0.03190281 -0.14124929 0.13256057
v 0.02632660 -0.11363721 0.13493743
v 0.03038415 -0.13818128 0.13312964
v 0.03038415 -0.14124929 0.13305553
v 0.03190281 -0.10914166 0.12984491
v -0.02641370 -0.10683823 0.10826260
v 0.02469891 -0.10683823 0.13505654
v 0.02423942 -0.11056920 0.13517035
v 0.02423942 -0.11363721 0.13516506
v 0.03190281 -0.14431729 0.13244940
v 0.02371762 -0.13204526 0.13500360
v 0.03038415 -0.14431729 0.13291789
v 0.02349956 -0.13511326 0.13495860
v 0.03190281 -0.15627479 0.12798684
v -0.02640591 -0.13511326 0.10826260
v -0.03131235 -0.10683823 0.10826260
v 0.02423942 -0.10683823 0.13509094
v 0.02117095 -0.10683823 0.13513065
v 0.02117095 -0.11056920 0.13518623
v 0.02117095 -0.11363721 0.13521534
v 0.01810248 -0.13204526 0.13530269
v 0.02117095 -0.13204526 0.13523917
v 0.03190281 -0.15531664 0.13177975
v 0.02731568 -0.15045815 0.13316405
v 0.03038415 -0.14739015 0.13271408
v 0.02117095 -0.13511326 0.13514389
v 0.02307901 -0.13736831 0.13488714
v 0.03190281 -0.15627479 0.13165271
v -0.02875789 -0.15627479 0.10826260
v -0.02860992 -0.15525373 0.10826260
v -0.02653831 -0.13818128 0.10826260
v -0.04731668 -0.15352616 0.10826260
v -0.04491798 -0.15186634 0.11041184
v -0.02977811 -0.10683823 0.10983482
v 0.01810248 -0.10683823 0.13498507
v -0.00030834 -0.15045815 0.13506183
v 0.01810248 -0.12898209 0.13527887
v 0.00276013 -0.15045815 0.13509623
v 0.03068788 -0.15627479 0.13193591
v 0.03075018 -0.15627479 0.13192269
v 0.03190281 -0.15559731 0.13174799
v 0.02731568 -0.15352616 0.13288348
v 0.02456652 -0.15627479 0.13308465
v 0.02423942 -0.15352616 0.13337844
v 0.00276013 -0.15283901 0.13497713
v 0.00476943 -0.15229701 0.13490567
v 0.02149805 -0.15627479 0.13345520
v 0.03178599 -0.15627479 0.13169240
v -0.04765935 -0.15627479 0.10826260
v -0.04752696 -0.15520049 0.10826260
v -0.02448228 -0.10683823 0.11428945
v -0.02908498 -0.10683823 0.11046742
v -0.02938872 -0.10683823 0.11021332
v -0.04500365 -0.15352616 0.11051241
v -0.04010500 -0.15627479 0.11497498
v -0.01043273 -0.10683823 0.12519707
v -0.01762884 -0.10683823 0.11982134
v -0.01883598 -0.10683823 0.11888700
v -0.01916308 -0.10683823 0.11863026
v -0.02105556 -0.10683823 0.11709510
v 0.01680967 -0.10683823 0.13488449
v -0.00191267 -0.14875962 0.13484743
v -0.00210737 -0.15045815 0.13489508
v -0.00212294 -0.15284385 0.13489772
v -0.00030834 -0.15324549 0.13497183
v 0.01641249 -0.10683823 0.13485272
v 0.03050097 -0.15627479 0.13197297
v 0.02731568 -0.15627479 0.13257909
v 0.02423942 -0.15627479 0.13313493
v -0.00030834 -0.15477950 0.13467275
v 0.01536110 -0.15627479 0.13375694
v -0.04513604 -0.15627479 0.11063416
v -0.01891386 -0.15627479 0.12748658
v -0.01529244 -0.15045815 0.12945583
v -0.01499650 -0.14739015 0.12925996
v -0.01414761 -0.13955075 0.12871736
v -0.01742635 -0.13511326 0.12581642
v -0.00889850 -0.10683823 0.12619492
v 0.00889707 -0.10683823 0.13330962
v 0.00582860 -0.10683823 0.13252087
v -0.00644528 -0.14431729 0.13302641
v -0.00644528 -0.14739015 0.13328845
v -0.00644528 -0.15352616 0.13350813
v -0.00977076 -0.15033717 0.13236470
v -0.00336123 -0.15627479 0.13395546
v -0.00283165 -0.15627479 0.13404015
v -0.00644528 -0.15627479 0.13322757
v -0.00608703 -0.15627479 0.13332816
v -0.00030834 -0.15627479 0.13421749
v -0.00905426 -0.15627479 0.13227206
v -0.01094674 -0.15468271 0.13163683
v -0.01118817 -0.15263576 0.13183269
v -0.01118817 -0.15128080 0.13183269
v -0.01235637 -0.15033717 0.13108098
v -0.01275356 -0.13838936 0.12938436
v -0.01200591 -0.13511326 0.12925202
v -0.00296405 -0.10683823 0.12913292
v 0.00439561 -0.10683823 0.13202061
v -0.00812749 -0.13933783 0.13182475
v -0.00644528 -0.14124929 0.13265056
v -0.00840786 -0.14124929 0.13195179
v -0.00881283 -0.14431729 0.13214766
v -0.00921002 -0.14739015 0.13233559
v -0.00975518 -0.15360359 0.13238323
v -0.00994209 -0.14124929 0.13122126
v 0.00400621 -0.10683823 0.13187239
f 1 2 6
f 1 6 15
f 1 15 28
f 1 28 46
f 1 46 33
f 1 33 19
f 1 19 10
f 1 10 3
f 1 3 11
f 1 11 21
f 1 21 39
f 1 39 58
f 1 58 57
f 1 57 56
f 1 56 65
f 1 65 64
f 1 64 63
f 1 63 62
f 1 62 61
f 1 61 83
f 1 83 102
f 1 102 111
f 1 111 103
f 1 103 85
f 1 85 84
f 1 84 71
f 1 71 66
f 1 66 40
f 1 40 23
f 1 23 22
f 1 22 12
f 1 12 4
f 1 4 5
f 1 5 2
f 2 5 7
f 2 7 8
f 2 8 9
f 2 9 6
f 3 10 11
f 4 12 13
f 4 13 5
f 5 13 14
f 5 14 7
f 6 9 15
f 7 9 8
f 7 14 16
f 7 16 9
f 9 17 15
f 9 16 18
f 9 18 17
f 10 19 11
f 11 20 36
f 11 36 35
f 11 35 34
f 11 34 54
f 11 54 55
f 11 55 37
f 11 37 21
f 11 19 20
f 12 22 13
f 13 23 24
f 13 24 25
f 13 25 26
f 13 26 27
f 13 27 14
f 13 22 23
f 14 27 16
f 15 17 28
f 16 27 18
f 17 29 30
f 17 30 28
f 17 18 29
f 18 27 31
f 18 31 32
f 18 32 29
f 19 33 53
f 19 53 45
f 19 45 44
f 19 44 72
f 19 72 73
f 19 73 48
f 19 48 74
f 19 74 52
f 19 52 76
f 19 76 94
f 19 94 91
f 19 91 90
f 19 90 93
f 19 93 92
f 19 92 95
f 19 95 78
f 19 78 60
f 19 60 77
f 19 77 54
f 19 54 34
f 19 34 35
f 19 35 36
f 19 36 20
f 21 37 38
f 21 38 39
f 23 40 41
f 23 41 24
f 24 41 25
f 25 41 42
f 25 42 26
f 26 42 41
f 26 41 43
f 26 43 27
f 27 43 31
f 28 44 45
f 28 45 46
f 28 30 29
f 28 29 47
f 28 47 44
f 29 48 47
f 29 32 49
f 29 49 48
f 31 43 50
f 31 50 51
f 31 51 32
f 32 52 49
f 32 51 52
f 33 46 53
f 37 55 38
f 38 56 57
f 38 57 58
f 38 58 39
f 38 55 54
f 38 54 59
f 38 59 60
f 38 60 61
f 38 61 62
f 38 62 63
f 38 63 64
f 38 64 65
f 38 65 56
f 40 66 41
f 41 67 68
f 41 68 69
f 41 69 70
f 41 70 43
f 41 66 71
f 41 71 67
f 43 70 50
f 44 47 72
f 45 53 46
f 47 48 73
f 47 73 72
f 48 49 74
f 49 52 74
f 50 70 75
f 50 75 76
f 50 76 52
f 50 52 51
f 54 77 59
f 59 77 60
f 60 78 79
f 60 79 80
f 60 80 81
f 60 81 82
f 60 82 83
f 60 83 61
f 67 84 85
f 67 85 86
f 67 86 87
f 67 87 68
f 67 71 84
f 68 88 69
f 68 87 89
f 68 89 88
f 69 90 91
f 69 91 75
f 69 75 70
f 69 88 92
f 69 92 93
f 69 93 90
f 75 91 94
f 75 94 76
f 78 95 96
f 78 96 97
f 78 97 98
f 78 98 79
f 79 98 99
f 79 99 80
f 80 99 100
f 80 100 81
f 81 100 83
f 81 83 82
f 83 100 101
f 83 101 102
f 85 103 104
f 85 104 105
f 85 105 86
f 86 105 104
f 86 104 106
f 86 106 107
f 86 107 108
f 86 108 87
f 87 108 89
f 88 89 109
f 88 109 92
f 89 108 98
f 89 98 109
f 92 109 95
f 95 109 96
f 96 109 97
f 97 109 98
f 98 108 110
f 98 110 100
f 98 100 99
f 100 110 101
f 101 110 104
f 101 104 102
f 102 104 111
f 103 111 104
f 104 110 106
f 106 110 107
f 107 110 108

