v 0.02297450 0.13124776 -0.09743704
v 0.12553988 0.13124776 -0.00179078
v 0.02835422 0.13124776 -0.09743704
v 0.02333607 -0.08600975 -0.09743704
v 0.11474756 -0.18111964 -0.00096925
v 0.12660267 0.13124776 -0.00096925
v 0.02875962 0.12878136 -0.09743704
v 0.03030451 0.13124776 -0.09593563
v 0.03191514 0.12717823 -0.09531241
v 0.02654637 -0.15112227 -0.09743704
v 0.02839805 -0.15235544 -0.09483083
v 0.11526252 -0.18333938 -0.00096925
v 0.13202622 0.13124776 -0.00096925
v 0.02916501 0.12579088 -0.09743704
v 0.03153165 0.13124776 -0.09497247
v 0.02941702 0.12264624 -0.09743704
v 0.03177270 0.12878136 -0.09517076
v 0.05577876 0.13124776 -0.07320678
v 0.11875770 0.12572922 -0.01643658
v 0.07256438 0.04899388 -0.06532203
v 0.04064760 0.05512901 -0.09183745
v 0.03910271 0.05512901 -0.09313112
v 0.03725104 0.05512901 -0.09467030
v 0.03571711 0.05512901 -0.09588842
v 0.03376681 0.05512901 -0.09743704
v 0.02667785 -0.15238628 -0.09743704
v 0.03731678 -0.16465654 -0.09475528
v 0.11619383 -0.18367850 -0.00096925
v 0.13179613 0.13124776 -0.00123365
v 0.13215770 0.13100111 -0.00096925
v 0.08618352 0.13124776 -0.04534104
v 0.12029163 0.12572922 -0.01487852
v 0.12045599 0.12264624 -0.01507682
v 0.11892205 0.12264624 -0.01654990
v 0.11838517 0.12878136 -0.01603999
v 0.11991910 0.12878136 -0.01451969
v 0.07074557 0.04899388 -0.06685176
v 0.12055458 0.11956325 -0.01520902
v 0.09300952 0.04899388 -0.04595482
v 0.09310814 0.04594173 -0.04604925
v 0.11497765 -0.17193237 -0.03107294
v 0.10858991 -0.17193237 -0.03697470
v 0.09562817 -0.16271426 -0.04867435
v 0.08766267 -0.16271426 -0.05594532
v 0.04128309 -0.15352699 -0.09743704
v 0.03378873 0.05460490 -0.09743704
v 0.03473100 -0.16197435 -0.09743704
v 0.03731678 -0.16465654 -0.09586953
v 0.11703750 -0.18367850 -0.02014761
v 0.12003962 -0.18370934 -0.01400978
v 0.12214331 -0.18370934 -0.01400978
v 0.11949179 -0.18367850 -0.00476526
v 0.11839612 -0.18343188 -0.00173412
v 0.11815508 -0.18312357 -0.00096925
v 0.13002115 0.13124776 -0.00315054
v 0.13019645 0.13050783 -0.00334884
v 0.13300137 0.12878136 -0.00096925
v 0.10843652 0.13124776 -0.02455740
v 0.12929801 0.12572922 -0.00552069
v 0.13048134 0.12878136 -0.00364157
v 0.12204470 0.11956325 -0.01366984
v 0.13077717 0.12572922 -0.00398151
v 0.12792843 0.12264624 -0.00726761
v 0.13286988 0.11342813 -0.00294280
v 0.11802360 0.13075446 -0.01570949
v 0.12095998 0.13124776 -0.01253670
v 0.12705190 0.10587483 -0.00941113
v 0.12400594 0.10630645 -0.01250837
v 0.12162834 0.08275250 -0.01628550
v 0.12010536 0.08275250 -0.01781523
v 0.11857143 0.08275250 -0.01931664
v 0.11865909 0.07966951 -0.01941107
v 0.11871386 0.07661737 -0.01947717
v 0.11796882 -0.16884938 -0.02796626
v 0.11794690 -0.17140825 -0.02794737
v 0.11487904 -0.17498451 -0.03098796
v 0.11174543 -0.17381299 -0.03400022
v 0.10839269 -0.17498451 -0.03680473
v 0.04104204 -0.15657913 -0.09743704
v 0.04126118 -0.15463685 -0.09743704
v 0.03572806 -0.16234429 -0.09743704
v 0.03874114 -0.16465654 -0.09586953
v 0.10571926 -0.17970147 -0.03714467
v 0.10403194 -0.17967065 -0.03719189
v 0.10245417 -0.17960899 -0.03713523
v 0.11713611 -0.18327773 -0.02242333
v 0.11835230 -0.18327773 -0.02242333
v 0.11937127 -0.18358603 -0.01994931
v 0.12154069 -0.18333938 -0.01707869
v 0.12367724 -0.18226034 -0.01400978
v 0.12387446 -0.18259948 -0.01225342
v 0.12415933 -0.18284611 -0.01020433
v 0.12269114 -0.18355519 -0.01111084
v 0.12239530 -0.18358603 -0.00802304
v 0.12135443 -0.18333938 -0.00576620
v 0.12969245 -0.17618687 -0.00096925
v 0.13201527 0.12878136 -0.00202685
v 0.13359303 0.12572922 -0.00096925
v 0.11792499 0.13124776 -0.01561506
v 0.13419564 0.11342813 -0.00141306
v 0.13293563 0.11037598 -0.00304667
v 0.11864812 0.13124776 -0.01488796
v 0.12316228 0.08275250 -0.01468966
v 0.12169408 0.07966951 -0.01636104
v 0.12019302 0.07966951 -0.01789078
v 0.12075181 -0.17193237 -0.02451963
v 0.12322802 0.07966951 -0.01474632
v 0.12466334 0.07966951 -0.01321658
v 0.12620823 0.07966951 -0.01156409
v 0.12761069 0.07966951 -0.01002491
v 0.12914463 0.07966951 -0.00832521
v 0.13050324 0.07966951 -0.00679547
v 0.13426138 0.11037598 -0.00150750
v 0.13469965 0.11037598 -0.00096925
v 0.11900970 -0.17224067 -0.02658761
v 0.11779351 -0.17498451 -0.02778685
v 0.11636915 -0.17498451 -0.02935435
v 0.11476947 -0.17652601 -0.03089353
v 0.11160299 -0.17584775 -0.03383969
v 0.10966366 -0.17806749 -0.03485007
v 0.05651286 -0.16431741 -0.08308396
v 0.05992038 -0.16271426 -0.08032666
v 0.04088865 -0.15734987 -0.09743704
v 0.03858775 -0.16228264 -0.09743704
v 0.03893836 -0.16203601 -0.09743704
v 0.03946429 -0.16252929 -0.09678549
v 0.05569111 -0.16638301 -0.08260238
v 0.05715930 -0.16777034 -0.08056273
v 0.10779007 -0.17806749 -0.03637981
v 0.10909391 -0.17991728 -0.03434960
v 0.05786053 -0.16555061 -0.08139370
v 0.11828656 -0.18031808 -0.02525617
v 0.11933840 -0.18102716 -0.02313154
v 0.12039025 -0.18176706 -0.02084638
v 0.12102573 -0.18284611 -0.01879729
v 0.11226039 -0.18000977 -0.03141288
v 0.12423602 -0.18013309 -0.01595500
v 0.12471813 -0.18071886 -0.01400978
v 0.12705190 -0.17960899 -0.00943001
v 0.12545222 -0.18111964 -0.01083700
v 0.12415933 -0.18284611 -0.00914673
v 0.12990063 -0.17587858 -0.00096925
v 0.12705190 -0.17960899 -0.00937336
v 0.13455721 0.11342813 -0.00096925
v 0.12908984 0.08275250 -0.00827799
v 0.12460855 0.08275250 -0.01315048
v 0.12456473 -0.17193237 -0.01925998
v 0.12053268 -0.17498451 -0.02418913
v 0.11899875 -0.17498451 -0.02624767
v 0.13473253 0.10729300 -0.00096925
v 0.11870291 -0.17806749 -0.02586051
v 0.11745385 -0.17806749 -0.02739969
v 0.11568983 -0.17775919 -0.02939212
v 0.11430929 -0.17859161 -0.03044028
v 0.11326841 -0.17775919 -0.03175283
v 0.11119760 -0.17806749 -0.03349975
v 0.04150222 -0.16172771 -0.09564290
v 0.04014360 -0.15981626 -0.09743704
v 0.04022029 -0.15966211 -0.09743704
v 0.04196240 -0.15966211 -0.09603950
v 0.11532826 -0.18004059 -0.02839119
v 0.12097095 -0.17973231 -0.02180010
v 0.12722720 -0.17689597 -0.01279166
v 0.12674511 -0.17896157 -0.01146966
v 0.12751208 -0.17797500 -0.01064814
v 0.12933088 -0.17498451 -0.00787195
v 0.13063472 -0.17455289 -0.00173412
v 0.13066760 -0.17470704 -0.00096925
v 0.12590144 -0.17193237 -0.01707869
v 0.12429081 -0.17421377 -0.01899559
v 0.13486400 0.07966951 -0.00096925
v 0.12023684 -0.17806749 -0.02367922
v 0.12659172 -0.17498451 -0.01474632
v 0.12743538 -0.17498451 -0.01321658
v 0.12853105 -0.17498451 -0.01094087
v 0.13037177 -0.17405962 -0.00404761
v 0.13489686 0.06434711 -0.00096925
v 0.12684372 -0.17193237 -0.01502016
v 0.13487496 0.07661737 -0.00096925
v 0.13490783 0.06628939 -0.00096925
f 1 2 6
f 1 6 13
f 1 13 29
f 1 29 55
f 1 55 66
f 1 66 102
f 1 102 99
f 1 99 58
f 1 58 31
f 1 31 18
f 1 18 15
f 1 15 8
f 1 8 3
f 1 3 7
f 1 7 14
f 1 14 16
f 1 16 25
f 1 25 46
f 1 46 45
f 1 45 80
f 1 80 79
f 1 79 123
f 1 123 159
f 1 159 158
f 1 158 125
f 1 125 124
f 1 124 81
f 1 81 47
f 1 47 26
f 1 26 10
f 1 10 4
f 1 4 5
f 1 5 2
f 2 5 6
f 3 8 9
f 3 9 7
f 4 10 11
f 4 11 5
f 5 11 12
f 5 12 28
f 5 28 54
f 5 54 96
f 5 96 142
f 5 142 168
f 5 168 177
f 5 177 180
f 5 180 179
f 5 179 171
f 5 171 150
f 5 150 114
f 5 114 144
f 5 144 98
f 5 98 57
f 5 57 30
f 5 30 13
f 5 13 6
f 7 9 14
f 8 15 9
f 9 16 14
f 9 15 17
f 9 17 18
f 9 18 19
f 9 19 20
f 9 20 21
f 9 21 22
f 9 22 23
f 9 23 24
f 9 24 25
f 9 25 16
f 10 26 11
f 11 26 27
f 11 27 12
f 12 27 28
f 13 30 29
f 15 18 17
f 18 31 19
f 19 32 33
f 19 33 34
f 19 34 20
f 19 31 35
f 19 35 36
f 19 36 32
f 20 37 21
f 20 34 38
f 20 38 39
f 20 39 40
f 20 40 41
f 20 41 42
f 20 42 43
f 20 43 44
f 20 44 45
f 20 45 37
f 21 37 22
f 22 37 45
f 22 45 23
f 23 46 24
f 23 45 46
f 24 46 25
f 26 47 27
f 27 47 48
f 27 48 28
f 28 49 50
f 28 50 51
f 28 51 52
f 28 52 53
f 28 53 54
f 28 48 49
f 29 30 56
f 29 56 55
f 30 57 56
f 31 58 35
f 32 59 33
f 32 36 60
f 32 60 59
f 33 61 38
f 33 38 34
f 33 59 62
f 33 62 63
f 33 63 64
f 33 64 61
f 35 58 65
f 35 65 36
f 36 65 66
f 36 66 56
f 36 56 60
f 38 61 64
f 38 64 67
f 38 67 68
f 38 68 69
f 38 69 70
f 38 70 71
f 38 71 40
f 38 40 39
f 40 71 72
f 40 72 73
f 40 73 41
f 41 74 75
f 41 75 76
f 41 76 77
f 41 77 42
f 41 73 74
f 42 44 43
f 42 77 78
f 42 78 79
f 42 79 80
f 42 80 44
f 44 80 45
f 47 81 48
f 48 81 82
f 48 82 83
f 48 83 84
f 48 84 85
f 48 85 86
f 48 86 49
f 49 86 87
f 49 87 88
f 49 88 51
f 49 51 50
f 51 88 89
f 51 89 90
f 51 90 91
f 51 91 92
f 51 92 93
f 51 93 94
f 51 94 52
f 52 94 53
f 53 94 95
f 53 95 96
f 53 96 54
f 55 56 66
f 56 57 97
f 56 97 60
f 57 98 97
f 58 99 65
f 59 60 62
f 60 97 62
f 62 97 98
f 62 98 64
f 62 64 63
f 64 100 101
f 64 101 67
f 64 98 100
f 65 99 102
f 65 102 66
f 67 101 103
f 67 103 69
f 67 69 68
f 69 103 104
f 69 104 105
f 69 105 70
f 70 105 72
f 70 72 71
f 72 105 73
f 73 105 74
f 74 106 75
f 74 105 104
f 74 104 107
f 74 107 108
f 74 108 109
f 74 109 110
f 74 110 111
f 74 111 112
f 74 112 113
f 74 113 114
f 74 114 106
f 75 106 115
f 75 115 116
f 75 116 117
f 75 117 76
f 76 117 118
f 76 118 77
f 77 118 119
f 77 119 78
f 78 119 120
f 78 120 121
f 78 121 122
f 78 122 79
f 79 122 121
f 79 121 123
f 81 124 82
f 82 124 125
f 82 125 126
f 82 126 127
f 82 127 128
f 82 128 83
f 83 129 130
f 83 130 87
f 83 87 86
f 83 86 84
f 83 128 127
f 83 127 131
f 83 131 121
f 83 121 129
f 84 86 85
f 87 132 133
f 87 133 134
f 87 134 135
f 87 135 89
f 87 89 88
f 87 130 136
f 87 136 132
f 89 135 137
f 89 137 90
f 90 138 139
f 90 139 140
f 90 140 91
f 90 137 138
f 91 140 92
f 92 140 139
f 92 139 143
f 92 143 141
f 92 141 93
f 93 141 94
f 94 141 96
f 94 96 95
f 96 139 142
f 96 141 143
f 96 143 139
f 98 144 100
f 100 144 113
f 100 113 101
f 101 113 112
f 101 112 111
f 101 111 145
f 101 145 110
f 101 110 109
f 101 109 146
f 101 146 103
f 103 146 107
f 103 107 104
f 106 147 148
f 106 148 149
f 106 149 116
f 106 116 115
f 106 114 147
f 107 146 108
f 108 146 109
f 110 145 111
f 113 144 114
f 114 150 147
f 116 149 151
f 116 151 152
f 116 152 118
f 116 118 117
f 118 152 153
f 118 153 154
f 118 154 155
f 118 155 156
f 118 156 120
f 118 120 119
f 120 156 130
f 120 130 129
f 120 129 121
f 121 131 127
f 121 127 126
f 121 126 125
f 121 125 157
f 121 157 158
f 121 158 159
f 121 159 160
f 121 160 123
f 123 160 159
f 125 158 157
f 130 156 154
f 130 154 136
f 132 136 161
f 132 161 154
f 132 154 152
f 132 152 151
f 132 151 162
f 132 162 133
f 133 162 134
f 134 162 135
f 135 162 137
f 136 154 161
f 137 162 163
f 137 163 164
f 137 164 138
f 138 164 139
f 139 164 165
f 139 165 166
f 139 166 167
f 139 167 168
f 139 168 142
f 147 169 170
f 147 170 148
f 147 150 171
f 147 171 169
f 148 172 151
f 148 151 149
f 148 170 172
f 151 172 162
f 152 154 153
f 154 156 155
f 162 172 170
f 162 170 163
f 163 173 174
f 163 174 175
f 163 175 165
f 163 165 164
f 163 170 173
f 165 175 166
f 166 175 176
f 166 176 167
f 167 176 177
f 167 177 168
f 169 178 175
f 169 175 174
f 169 174 173
f 169 173 170
f 169 171 179
f 169 179 180
f 169 180 177
f 169 177 178
f 175 178 177
f 175 177 176

