v -0.05860843 -0.13818210 -0.16662631
v -0.05860843 -0.13511761 -0.16640391
v -0.05553903 -0.13511761 -0.16627389
v -0.05553903 -0.13818210 -0.16640391
v -0.05553903 -0.14051623 -0.16619519
v -0.05860843 -0.14074062 -0.16632521
v -0.06167781 -0.13818210 -0.16659209
v -0.05860843 -0.13313327 -0.16609939
v -0.05553903 -0.13323228 -0.16606517
v -0.06167781 -0.13511761 -0.16633889
v -0.05318700 -0.13341267 -0.16598305
v -0.05293484 -0.13511761 -0.16603437
v -0.05294353 -0.13818210 -0.16607885
v -0.05320439 -0.14017743 -0.16604122
v -0.03862696 -0.14587525 -0.16285231
v -0.06167781 -0.14068342 -0.16629100
v -0.03868783 -0.14587525 -0.16285231
v -0.06474720 -0.14029624 -0.16613018
v -0.06474720 -0.13818210 -0.16634574
v -0.06474720 -0.13500101 -0.16610965
v -0.05860843 -0.13159773 -0.16535691
v -0.06167781 -0.13325427 -0.16603437
v -0.06167781 -0.13171873 -0.16538428
v -0.06474720 -0.12897982 -0.16409777
v -0.05553903 -0.13169893 -0.16531243
v -0.05228705 -0.13225331 -0.16539112
v -0.06372552 -0.13344787 -0.16595568
v -0.04940026 -0.13204872 -0.16504554
v -0.04633521 -0.13204872 -0.16449467
v -0.04633521 -0.13511761 -0.16493605
v -0.04940026 -0.13511761 -0.16551087
v -0.05140014 -0.13511761 -0.16581882
v -0.04327017 -0.13818210 -0.16429621
v -0.04327017 -0.14125100 -0.16410460
v -0.04020078 -0.14125100 -0.16351268
v -0.03847480 -0.14431989 -0.16290021
v -0.03184039 -0.14125100 -0.16013899
v -0.03209255 -0.14431989 -0.16000556
v -0.03239688 -0.14595004 -0.15983106
v -0.02845363 -0.14670021 -0.15728540
v -0.07106423 -0.14076701 -0.16378982
v -0.03122304 -0.14654402 -0.15827766
v -0.03875304 -0.14594564 -0.16130576
v -0.06672970 -0.13995965 -0.16600016
v -0.06696882 -0.13818210 -0.16605833
v -0.06674709 -0.13594259 -0.16601385
v -0.06577323 -0.13389886 -0.16584619
v -0.06474720 -0.12721329 -0.16311577
v -0.06474720 -0.13227311 -0.16542876
v -0.06781224 -0.12897982 -0.16393353
v -0.06781224 -0.12722428 -0.16309181
v -0.04940026 -0.12954960 -0.16364269
v -0.07106423 -0.12883683 -0.16352979
v -0.04633521 -0.12974980 -0.16339977
v -0.04423534 -0.13011499 -0.16310892
v -0.04323539 -0.13199152 -0.16354347
v -0.04093552 -0.13297708 -0.16315340
v -0.04327017 -0.13511761 -0.16422436
v -0.04020078 -0.13818210 -0.16356742
v -0.03828350 -0.14125100 -0.16297890
v -0.03406201 -0.14125100 -0.16113810
v -0.03207516 -0.13818210 -0.15999529
v -0.03054047 -0.13818210 -0.15922201
v -0.03031005 -0.14125100 -0.15925281
v -0.02664939 -0.14397010 -0.15700826
v -0.02762759 -0.14457289 -0.15751807
v -0.03055786 -0.14431989 -0.15918780
v -0.03839219 -0.13818210 -0.16296864
v -0.02664939 -0.14552325 -0.15684402
v -0.03099262 -0.14664522 -0.15610154
v -0.02664939 -0.14592584 -0.15641289
v -0.02664939 -0.14668922 -0.15507506
v -0.07106423 -0.14076701 -0.16221931
v -0.07106423 -0.13818210 -0.16475471
v -0.03876174 -0.14595444 -0.15970103
v -0.07106423 -0.13800391 -0.16475812
v -0.07106423 -0.13511761 -0.16475471
v -0.07106423 -0.13493722 -0.16473760
v -0.07106423 -0.13204872 -0.16441597
v -0.07106423 -0.13185512 -0.16437149
v -0.07106423 -0.12896882 -0.16357084
v -0.06167781 -0.12422578 -0.15524956
v -0.05860843 -0.12422578 -0.15528720
v -0.05246965 -0.12422578 -0.15530773
v -0.05108712 -0.12422578 -0.15529062
v -0.04940026 -0.12422578 -0.15524956
v -0.04802208 -0.12422578 -0.15515376
v -0.04633521 -0.12422578 -0.15500321
v -0.06232560 -0.12732988 -0.16298575
v -0.07106423 -0.12734968 -0.16294811
v -0.07088163 -0.12422578 -0.15463710
v -0.06474720 -0.12422578 -0.15510928
v -0.04327017 -0.12422578 -0.15444892
v -0.04086596 -0.12422578 -0.15386040
v -0.03164041 -0.12422578 -0.15086995
v -0.02664939 -0.12422578 -0.14872119
v -0.02904056 -0.13334447 -0.15706300
v -0.03888782 -0.13422004 -0.16270176
v -0.04002688 -0.13519240 -0.16328342
v -0.03859218 -0.13626377 -0.16289337
v -0.03238819 -0.13649256 -0.15983106
v -0.02867536 -0.13511761 -0.15745306
v -0.02664939 -0.14226957 -0.15699457
v -0.02664939 -0.14662982 -0.15429151
v -0.02664939 -0.14653522 -0.15317609
v -0.04020078 -0.14421650 -0.13675936
v -0.07106423 -0.14076262 -0.16209956
v -0.04495268 -0.12422578 -0.15476027
v -0.07106423 -0.12422578 -0.15460288
v -0.02664939 -0.12422578 -0.14520381
v -0.02664939 -0.13321027 -0.15472949
v -0.02664939 -0.13511761 -0.15576964
v -0.02664939 -0.14318253 -0.13377232
v -0.02664939 -0.14284375 -0.13224288
v -0.04032252 -0.14341572 -0.13360124
v -0.04313540 -0.14325073 -0.13379969
v -0.07106423 -0.13389445 -0.14414654
v -0.04498312 -0.14291635 -0.13489802
v -0.07106423 -0.12422578 -0.15118473
v -0.04254848 -0.13903568 -0.13167490
v -0.04078771 -0.13903568 -0.13167490
v -0.02664939 -0.13944706 -0.13186308
v -0.02664939 -0.14257315 -0.13206153
v -0.04143115 -0.14288334 -0.13201705
v -0.04202242 -0.14288334 -0.13201705
v -0.07106423 -0.13315308 -0.14414654
v -0.04256152 -0.14125100 -0.13169542
v -0.07106423 -0.13305188 -0.14414996
v -0.04079640 -0.14125100 -0.13169542
v -0.02664939 -0.14121800 -0.13186992
f 1 2 3
f 1 3 4
f 1 4 5
f 1 5 6
f 1 6 7
f 1 7 2
f 2 8 9
f 2 9 3
f 2 7 10
f 2 10 8
f 3 9 11
f 3 11 12
f 3 12 4
f 4 12 13
f 4 13 14
f 4 14 5
f 5 14 15
f 5 15 6
f 6 16 7
f 6 15 17
f 6 17 16
f 7 16 18
f 7 18 19
f 7 19 20
f 7 20 10
f 8 21 9
f 8 10 22
f 8 22 23
f 8 23 24
f 8 24 21
f 9 25 26
f 9 26 11
f 9 21 25
f 10 20 27
f 10 27 22
f 11 26 28
f 11 28 29
f 11 29 30
f 11 30 31
f 11 31 32
f 11 32 12
f 12 32 13
f 13 32 31
f 13 31 33
f 13 33 14
f 14 33 34
f 14 34 15
f 15 34 35
f 15 35 36
f 15 36 37
f 15 37 38
f 15 38 39
f 15 39 40
f 15 40 17
f 16 41 18
f 16 17 41
f 17 40 42
f 17 42 43
f 17 43 41
f 18 44 19
f 18 41 44
f 19 44 45
f 19 45 46
f 19 46 20
f 20 46 47
f 20 47 27
f 21 24 48
f 21 48 25
f 22 27 49
f 22 49 50
f 22 50 24
f 22 24 23
f 24 50 51
f 24 51 48
f 25 52 26
f 25 48 52
f 26 52 28
f 27 47 53
f 27 53 50
f 27 50 49
f 28 52 54
f 28 54 29
f 29 54 55
f 29 55 56
f 29 56 57
f 29 57 58
f 29 58 30
f 30 58 33
f 30 33 31
f 33 58 59
f 33 59 35
f 33 35 34
f 35 59 60
f 35 60 36
f 36 60 61
f 36 61 37
f 37 62 63
f 37 63 64
f 37 64 65
f 37 65 66
f 37 66 67
f 37 67 38
f 37 61 68
f 37 68 62
f 38 67 39
f 39 67 69
f 39 69 40
f 40 70 42
f 40 69 71
f 40 71 72
f 40 72 70
f 41 73 107
f 41 107 117
f 41 117 126
f 41 126 128
f 41 128 119
f 41 119 109
f 41 109 90
f 41 90 53
f 41 53 81
f 41 81 80
f 41 80 79
f 41 79 78
f 41 78 77
f 41 77 76
f 41 76 74
f 41 74 44
f 41 43 75
f 41 75 73
f 42 70 43
f 43 70 75
f 44 74 45
f 45 74 76
f 45 76 77
f 45 77 46
f 46 77 78
f 46 78 79
f 46 79 47
f 47 79 80
f 47 80 81
f 47 81 53
f 48 51 82
f 48 82 83
f 48 83 84
f 48 84 85
f 48 85 86
f 48 86 87
f 48 87 88
f 48 88 89
f 48 89 52
f 50 53 90
f 50 90 51
f 51 90 91
f 51 91 92
f 51 92 82
f 52 89 54
f 54 89 93
f 54 93 94
f 54 94 95
f 54 95 55
f 55 95 96
f 55 96 97
f 55 97 57
f 55 57 56
f 57 97 98
f 57 98 99
f 57 99 58
f 58 99 59
f 59 99 100
f 59 100 68
f 59 68 60
f 60 68 61
f 62 68 100
f 62 100 98
f 62 98 63
f 63 98 101
f 63 101 102
f 63 102 103
f 63 103 64
f 64 103 65
f 65 103 112
f 65 112 111
f 65 111 96
f 65 96 110
f 65 110 122
f 65 122 130
f 65 130 123
f 65 123 114
f 65 114 113
f 65 113 105
f 65 105 104
f 65 104 72
f 65 72 71
f 65 71 69
f 65 69 66
f 66 69 67
f 70 72 104
f 70 104 105
f 70 105 106
f 70 106 75
f 73 75 107
f 75 106 107
f 82 92 91
f 82 91 109
f 82 109 119
f 82 119 110
f 82 110 96
f 82 96 95
f 82 95 94
f 82 94 93
f 82 93 108
f 82 108 88
f 82 88 87
f 82 87 86
f 82 86 85
f 82 85 84
f 82 84 83
f 88 108 89
f 89 108 93
f 90 109 91
f 96 111 97
f 97 111 112
f 97 112 102
f 97 102 98
f 98 100 99
f 98 102 101
f 102 112 103
f 105 113 106
f 106 113 114
f 106 114 115
f 106 115 116
f 106 116 107
f 107 116 118
f 107 118 117
f 110 120 121
f 110 121 122
f 110 119 120
f 114 123 124
f 114 124 115
f 115 124 125
f 115 125 116
f 116 125 118
f 117 118 125
f 117 125 127
f 117 127 120
f 117 120 126
f 119 128 120
f 120 127 129
f 120 129 121
f 120 128 126
f 121 129 130
f 121 130 122
f 123 130 129
f 123 129 124
f 124 129 127
f 124 127 125

