v 0.02627545 0.16130501 -0.08760466
v 0.03031980 0.15869506 -0.08760466
v 0.02030891 0.16130501 -0.09627009
v 0.01997349 0.16130501 -0.08760466
v 0.03043590 0.15860678 -0.08760466
v 0.02931355 0.15828017 -0.08978233
v 0.01918010 0.16130501 -0.09789935
v 0.01990254 0.16130501 -0.08761530
v 0.01996059 0.16128147 -0.08760466
v 0.03135830 0.15743567 -0.08846721
v 0.03303538 0.15647643 -0.08760466
v 0.02572718 0.15790353 -0.09526378
v 0.01950262 0.16090484 -0.09821349
v 0.01834801 0.16130501 -0.09870333
v 0.03437705 0.13124774 -0.08760466
v -0.02664294 0.16130501 -0.10390792
v 0.03323534 0.15627929 -0.08760466
v 0.03236455 0.15539067 -0.08982227
v 0.02958446 0.15561723 -0.09293170
v 0.02270843 0.15795061 -0.09839718
v 0.02066368 0.15885689 -0.09920382
v 0.01611620 0.16057235 -0.10112859
v 0.01436817 0.16130501 -0.10175953
v 0.03924059 0.13124774 -0.08760466
v -0.02664294 0.15348689 -0.10572620
v -0.02664294 0.13374295 -0.11064592
v -0.02664294 0.13314563 -0.11080566
v -0.02664294 0.13124774 -0.11138068
v -0.02664294 0.16130501 -0.10780537
v 0.03582192 0.15317204 -0.08760466
v 0.03162921 0.15414600 -0.09186949
v 0.02330185 0.15590560 -0.09878586
v 0.01929621 0.15714732 -0.10124838
v 0.01724501 0.15852439 -0.10184206
v 0.02644316 0.15585851 -0.09601984
v 0.01055603 0.16111964 -0.10460275
v 0.01084630 0.16130501 -0.10419277
v 0.03507368 0.15195681 -0.08928450
v 0.03669916 0.15027960 -0.08770050
v 0.03678302 0.15027960 -0.08760466
v 0.03506078 0.13124774 -0.09170177
v 0.03202268 0.15210099 -0.09236998
v -0.02664294 0.13124774 -0.11443155
v -0.02661069 0.16130501 -0.10781335
v -0.02664294 0.14414456 -0.11221129
v 0.03606703 0.15280718 -0.08760466
v 0.03026819 0.15304258 -0.09367445
v 0.02848791 0.15398711 -0.09497626
v 0.02537241 0.15334859 -0.09806441
v 0.01971548 0.15510230 -0.10151195
v 0.01820611 0.15624104 -0.10211094
v 0.01345223 0.15781231 -0.10448029
v 0.01125267 0.15948657 -0.10495150
v 0.00419602 0.16089896 -0.10753914
v 0.00991745 0.16130501 -0.10475183
v 0.01043347 0.16130501 -0.10446964
v 0.03473826 0.13124774 -0.09201059
v 0.02890073 0.15193915 -0.09538092
v -0.02664294 0.13385770 -0.11406151
v -0.01257480 0.13753284 -0.11390444
v -0.01257480 0.13124774 -0.11477764
v -0.02479170 0.16130501 -0.10823398
v -0.02664294 0.13475810 -0.11392041
v -0.02177940 0.16130501 -0.10882232
v -0.01720613 0.15490811 -0.11067254
v -0.01564515 0.15522294 -0.11072046
v 0.02740426 0.15311614 -0.09632067
v 0.02383723 0.15334859 -0.09912662
v 0.02310835 0.13187155 -0.10178082
v 0.02146352 0.15334859 -0.10066004
v 0.01992834 0.15334859 -0.10164239
v 0.01382634 0.15576730 -0.10469326
v 0.01224601 0.15664122 -0.10529758
v 0.00711801 0.15712672 -0.10742201
v 0.00507971 0.15885395 -0.10784264
v 0.00889830 0.15948657 -0.10598442
v 0.00599566 0.15972197 -0.10716378
v 0.00300916 0.15972197 -0.10819404
v 0.00269310 0.16130501 -0.10778140
v 0.00389286 0.16130501 -0.10733415
v 0.03367396 0.13124774 -0.09301423
v 0.03326114 0.13124774 -0.09340025
v 0.03151955 0.13124774 -0.09498159
v 0.02314060 0.13124774 -0.10180745
v -0.01257480 0.15562312 -0.11077903
v -0.00950445 0.13745340 -0.11389912
v -0.00950445 0.13124774 -0.11480160
v -0.01195557 0.13124774 -0.11478562
v -0.01871550 0.16130501 -0.10909387
v 0.01785779 0.13124774 -0.10519110
v 0.01267819 0.13124774 -0.10796243
v 0.01238147 0.13124774 -0.10811151
v 0.01209121 0.13124774 -0.10824462
v 0.00558284 0.13124774 -0.11116239
v 0.00741473 0.15507876 -0.10761901
v 0.00862094 0.15622927 -0.10693482
v 0.00599566 0.15622927 -0.10797574
v 0.00277050 0.15641758 -0.10884362
v 0.00222222 0.16130501 -0.10789588
v -0.00029985 0.15948657 -0.10896874
v -0.01257480 0.16130501 -0.10933878
v -0.01132344 0.16130501 -0.10932015
v -0.00950445 0.16130501 -0.10928820
v -0.00950445 0.15532593 -0.11073644
v -0.01564515 0.16130501 -0.10924561
v -0.01439379 0.16130501 -0.10928554
v -0.00741455 0.13692965 -0.11381659
v -0.00888522 0.13124774 -0.11475102
v 0.00346714 0.13124774 -0.11188118
v 0.00277050 0.13494054 -0.11175073
v 0.00504101 0.13494054 -0.11097603
v 0.00461529 0.13800658 -0.11079767
v 0.00435083 0.13966319 -0.11068852
v 0.00277050 0.13800658 -0.11137536
v -0.00299608 0.13124774 -0.11389113
v -0.00344760 0.13124774 -0.11400029
v -0.00453771 0.13397541 -0.11382191
v -0.00029985 0.16130501 -0.10837507
v -0.00337020 0.15948657 -0.10934677
v -0.00518919 0.16130501 -0.10905393
v -0.00825954 0.16130501 -0.10924028
v -0.00791767 0.15491399 -0.11067521
v -0.00644055 0.13124774 -0.11454071
v 0.00277050 0.13124774 -0.11210480
v 0.00277050 0.13187155 -0.11204889
f 1 2 3
f 1 3 7
f 1 7 14
f 1 14 23
f 1 23 37
f 1 37 56
f 1 56 55
f 1 55 80
f 1 80 79
f 1 79 99
f 1 99 118
f 1 118 120
f 1 120 121
f 1 121 103
f 1 103 102
f 1 102 101
f 1 101 106
f 1 106 105
f 1 105 89
f 1 89 64
f 1 64 62
f 1 62 44
f 1 44 29
f 1 29 16
f 1 16 8
f 1 8 4
f 1 4 9
f 1 9 15
f 1 15 24
f 1 24 40
f 1 40 46
f 1 46 30
f 1 30 17
f 1 17 11
f 1 11 5
f 1 5 2
f 2 5 6
f 2 6 7
f 2 7 3
f 4 8 9
f 5 10 6
f 5 11 10
f 6 10 12
f 6 12 13
f 6 13 7
f 7 13 14
f 8 15 9
f 8 16 15
f 10 11 12
f 11 17 12
f 12 17 18
f 12 18 19
f 12 19 20
f 12 20 13
f 13 20 21
f 13 21 22
f 13 22 23
f 13 23 14
f 15 16 25
f 15 25 26
f 15 26 27
f 15 27 28
f 15 28 43
f 15 43 61
f 15 61 88
f 15 88 87
f 15 87 108
f 15 108 123
f 15 123 116
f 15 116 115
f 15 115 124
f 15 124 109
f 15 109 94
f 15 94 93
f 15 93 92
f 15 92 91
f 15 91 90
f 15 90 84
f 15 84 83
f 15 83 82
f 15 82 81
f 15 81 57
f 15 57 41
f 15 41 24
f 16 29 45
f 16 45 63
f 16 63 59
f 16 59 43
f 16 43 28
f 16 28 27
f 16 27 26
f 16 26 25
f 17 30 18
f 18 30 31
f 18 31 19
f 19 31 20
f 20 32 33
f 20 33 34
f 20 34 21
f 20 31 35
f 20 35 32
f 21 34 22
f 22 34 36
f 22 36 23
f 23 36 37
f 24 38 39
f 24 39 40
f 24 41 42
f 24 42 38
f 29 44 45
f 30 46 31
f 31 46 38
f 31 38 42
f 31 42 47
f 31 47 48
f 31 48 35
f 32 35 49
f 32 49 33
f 33 49 50
f 33 50 51
f 33 51 52
f 33 52 34
f 34 52 36
f 35 48 49
f 36 52 53
f 36 53 54
f 36 54 55
f 36 55 56
f 36 56 37
f 38 46 40
f 38 40 39
f 41 57 58
f 41 58 42
f 42 58 47
f 43 59 60
f 43 60 61
f 44 62 45
f 45 62 64
f 45 64 65
f 45 65 66
f 45 66 63
f 47 58 48
f 48 58 67
f 48 67 49
f 49 68 50
f 49 67 58
f 49 58 69
f 49 69 68
f 50 70 71
f 50 71 72
f 50 72 52
f 50 52 51
f 50 68 70
f 52 72 73
f 52 73 74
f 52 74 75
f 52 75 76
f 52 76 53
f 53 76 54
f 54 76 77
f 54 77 75
f 54 75 78
f 54 78 79
f 54 79 80
f 54 80 55
f 57 81 58
f 58 81 82
f 58 82 83
f 58 83 84
f 58 84 69
f 59 63 60
f 60 85 86
f 60 86 87
f 60 87 88
f 60 88 61
f 60 63 85
f 63 66 85
f 64 89 65
f 65 89 66
f 66 89 85
f 68 69 70
f 69 84 90
f 69 90 71
f 69 71 70
f 71 90 72
f 72 91 92
f 72 92 93
f 72 93 94
f 72 94 73
f 72 90 91
f 73 94 95
f 73 95 96
f 73 96 74
f 74 96 95
f 74 95 97
f 74 97 75
f 75 98 78
f 75 77 76
f 75 97 98
f 78 99 79
f 78 98 100
f 78 100 99
f 85 101 102
f 85 102 103
f 85 103 104
f 85 104 86
f 85 89 105
f 85 105 106
f 85 106 101
f 86 104 107
f 86 107 87
f 87 107 108
f 94 109 110
f 94 110 111
f 94 111 95
f 95 111 112
f 95 112 113
f 95 113 97
f 97 113 114
f 97 114 98
f 98 114 115
f 98 115 116
f 98 116 117
f 98 117 100
f 99 100 118
f 100 117 107
f 100 107 119
f 100 119 120
f 100 120 118
f 103 121 104
f 104 121 120
f 104 120 119
f 104 119 122
f 104 122 107
f 107 122 119
f 107 117 123
f 107 123 108
f 109 124 125
f 109 125 110
f 110 114 113
f 110 113 112
f 110 112 111
f 110 125 115
f 110 115 114
f 115 125 124
f 116 123 117

