v -0.18129332 -0.13510130 -0.03268361
v -0.18076911 -0.13817478 -0.03268361
v -0.18127743 -0.13510130 -0.03241663
v -0.18125360 -0.13202782 -0.03268361
v -0.18011783 -0.14037415 -0.03268361
v -0.18075322 -0.13817478 -0.03241663
v -0.18038787 -0.13817478 -0.02934638
v -0.18090414 -0.13510130 -0.02934638
v -0.18123772 -0.13202782 -0.03241663
v -0.18077705 -0.12895435 -0.03268361
v -0.17823546 -0.14028955 -0.03268361
v -0.17608306 -0.14096628 -0.02320900
v -0.17770332 -0.14096628 -0.02320900
v -0.17745710 -0.14085349 -0.02014185
v -0.18010989 -0.14034595 -0.03241663
v -0.17994309 -0.13997938 -0.02934638
v -0.17984779 -0.13975382 -0.02768553
v -0.17997487 -0.13789280 -0.02650897
v -0.17983190 -0.13668034 -0.02471773
v -0.18033227 -0.13510130 -0.02627924
v -0.17992721 -0.13298653 -0.02433899
v -0.18084059 -0.13202782 -0.02934638
v -0.18075322 -0.12895435 -0.03241663
v -0.10635614 0.14309054 -0.00861213
v -0.10642762 0.14337252 -0.01093732
v -0.10633231 0.14314694 -0.01400757
v -0.10391780 0.14709452 -0.02934638
v -0.10353657 0.14709452 -0.03259669
v -0.10352068 0.14709452 -0.03268361
v -0.16749724 -0.13053338 -0.02785938
v -0.16108768 -0.13070257 -0.01878523
v -0.15167585 -0.13349407 -0.00097221
v -0.15228743 -0.13391703 -0.00097221
v -0.16491594 -0.14040234 -0.00097221
v -0.16545603 -0.14065611 -0.00097221
v -0.16798174 -0.12314576 -0.03268361
v -0.16600406 -0.14068432 -0.00163345
v -0.16598818 -0.14068432 -0.00097221
v -0.17489169 -0.14074071 -0.01400757
v -0.17420069 -0.14048694 -0.01093732
v -0.17709174 -0.14037415 -0.01759625
v -0.17783039 -0.13510130 -0.01707161
v -0.17991132 -0.13510130 -0.02441971
v -0.17673434 -0.13966922 -0.01555356
v -0.17733797 -0.13845675 -0.01677669
v -0.17695673 -0.13202782 -0.01500408
v -0.17758419 -0.13202782 -0.01707161
v -0.17999075 -0.12968747 -0.02712053
v -0.18018931 -0.13199963 -0.02617059
v -0.18022902 -0.12878517 -0.02916012
v -0.17999075 -0.12712155 -0.03005729
v -0.10670561 0.14125773 -0.00769944
v -0.10448966 0.14709452 -0.00491169
v -0.10484707 0.14709452 -0.00786087
v -0.10486295 0.14709452 -0.00802540
v -0.10503769 0.14709452 -0.01093732
v -0.10503769 0.14709452 -0.01108323
v -0.10499798 0.14709452 -0.01400757
v -0.10481530 0.14709452 -0.01706850
v -0.10018484 0.14709452 -0.03268361
v -0.15053214 -0.13191503 -0.00097221
v -0.15055597 -0.13199963 -0.00097221
v -0.16746548 -0.12162313 -0.03268361
v -0.16290650 -0.10442294 -0.03268361
v -0.15524202 -0.07540820 -0.03268361
v -0.14831619 -0.10442294 -0.00096911
v -0.16760050 -0.14057153 -0.00097221
v -0.16820413 -0.14057153 -0.00172969
v -0.17111901 -0.14048694 -0.00557603
v -0.17377179 -0.13989480 -0.00925474
v -0.17690907 -0.13763903 -0.01514688
v -0.17705998 -0.13510130 -0.01473710
v -0.17628956 -0.13845675 -0.01407586
v -0.17632133 -0.13202782 -0.01347051
v -0.17451044 -0.12875697 -0.01066724
v -0.17607511 -0.12923632 -0.01429007
v -0.17676611 -0.13044880 -0.01550389
v -0.10365570 0.14709452 -0.00097221
v -0.10376690 0.14709452 -0.00136026
v -0.10379867 0.14709452 -0.00147202
v -0.17972865 -0.12762909 -0.02801149
v -0.10646733 0.14038363 -0.00554499
v -0.10015307 0.14709452 -0.00097221
v -0.10155095 0.13824066 -0.03268361
v -0.15005559 -0.12957469 -0.00097221
v -0.10473587 0.12290148 -0.03268361
v -0.10281380 0.13085304 -0.03268361
v -0.16648061 -0.12895435 -0.00097221
v -0.16677448 -0.13027961 -0.00097221
v -0.16715573 -0.13202782 -0.00097221
v -0.16776729 -0.13510130 -0.00097221
v -0.16813264 -0.13749805 -0.00097221
v -0.16823589 -0.13823117 -0.00097221
v -0.16796586 -0.14031775 -0.00097221
v -0.10942987 0.12185819 -0.00097221
v -0.17134934 -0.13817478 -0.00525007
v -0.17288224 -0.13817478 -0.00755043
v -0.17389888 -0.13817478 -0.00908400
v -0.17485991 -0.13817478 -0.01093732
v -0.17632133 -0.13510130 -0.01320043
v -0.17509024 -0.13202782 -0.01093732
v -0.17363678 -0.12760090 -0.00946584
v -0.17423246 -0.12590907 -0.01155199
v -0.17386711 -0.12963108 -0.00916161
v -0.17100782 -0.12895435 -0.00584301
v -0.16972114 -0.12895435 -0.00430633
v -0.10207515 0.13491341 -0.03268361
v -0.16818824 -0.12895435 -0.00264548
v -0.16997529 -0.13202782 -0.00400831
v -0.17125404 -0.13202782 -0.00554188
v -0.17278693 -0.13202782 -0.00745729
v -0.17398624 -0.13202782 -0.00899087
v -0.17400213 -0.13510130 -0.00896603
v -0.17510614 -0.13510130 -0.01093732
f 1 2 6
f 1 6 3
f 1 3 9
f 1 9 4
f 1 4 10
f 1 10 29
f 1 29 60
f 1 60 84
f 1 84 107
f 1 107 87
f 1 87 86
f 1 86 65
f 1 65 64
f 1 64 63
f 1 63 36
f 1 36 11
f 1 11 5
f 1 5 2
f 2 5 6
f 3 6 7
f 3 7 8
f 3 8 9
f 4 9 10
f 5 11 12
f 5 12 13
f 5 13 14
f 5 14 15
f 5 15 6
f 6 16 17
f 6 17 7
f 6 15 16
f 7 17 18
f 7 18 8
f 8 18 19
f 8 19 20
f 8 20 21
f 8 21 22
f 8 22 9
f 9 22 23
f 9 23 10
f 10 23 24
f 10 24 25
f 10 25 26
f 10 26 27
f 10 27 28
f 10 28 29
f 11 30 31
f 11 31 32
f 11 32 33
f 11 33 34
f 11 34 35
f 11 35 12
f 11 36 30
f 12 35 37
f 12 37 38
f 12 38 13
f 13 38 39
f 13 39 14
f 14 39 40
f 14 40 41
f 14 41 17
f 14 17 16
f 14 16 15
f 17 41 19
f 17 19 18
f 19 42 43
f 19 43 20
f 19 41 44
f 19 44 45
f 19 45 42
f 20 43 21
f 21 46 47
f 21 47 48
f 21 48 49
f 21 49 22
f 21 43 42
f 21 42 46
f 22 49 48
f 22 48 50
f 22 50 23
f 23 50 51
f 23 51 24
f 24 52 53
f 24 53 54
f 24 54 55
f 24 55 25
f 24 51 52
f 25 55 56
f 25 56 57
f 25 57 58
f 25 58 26
f 26 58 59
f 26 59 27
f 27 59 58
f 27 58 57
f 27 57 56
f 27 56 55
f 27 55 54
f 27 54 53
f 27 53 80
f 27 80 79
f 27 79 78
f 27 78 83
f 27 83 60
f 27 60 29
f 27 29 28
f 30 36 31
f 31 61 62
f 31 62 32
f 31 36 63
f 31 63 64
f 31 64 65
f 31 65 61
f 32 62 66
f 32 66 33
f 33 66 34
f 34 66 35
f 35 38 37
f 35 66 38
f 38 66 67
f 38 67 68
f 38 68 39
f 39 68 69
f 39 69 40
f 40 69 70
f 40 70 44
f 40 44 41
f 42 45 71
f 42 71 72
f 42 72 46
f 44 70 73
f 44 73 71
f 44 71 45
f 46 72 74
f 46 74 75
f 46 75 76
f 46 76 77
f 46 77 47
f 47 77 48
f 48 77 78
f 48 78 79
f 48 79 80
f 48 80 81
f 48 81 50
f 50 81 51
f 51 81 52
f 52 82 80
f 52 80 53
f 52 81 82
f 60 83 84
f 61 85 66
f 61 66 62
f 61 65 86
f 61 86 87
f 61 87 85
f 66 88 89
f 66 89 90
f 66 90 91
f 66 91 92
f 66 92 93
f 66 93 94
f 66 94 67
f 66 85 83
f 66 83 78
f 66 78 95
f 66 95 88
f 67 94 68
f 68 94 69
f 69 94 96
f 69 96 70
f 70 96 97
f 70 97 98
f 70 98 99
f 70 99 73
f 71 73 99
f 71 99 72
f 72 99 100
f 72 100 74
f 74 100 101
f 74 101 75
f 75 102 78
f 75 78 103
f 75 103 76
f 75 101 104
f 75 104 102
f 76 103 78
f 76 78 77
f 78 102 104
f 78 104 105
f 78 105 106
f 78 106 95
f 80 82 81
f 83 107 84
f 83 85 107
f 85 87 107
f 88 108 89
f 88 95 108
f 89 108 90
f 90 108 91
f 91 106 109
f 91 109 92
f 91 108 106
f 92 109 93
f 93 96 94
f 93 109 110
f 93 110 111
f 93 111 112
f 93 112 96
f 95 106 108
f 96 112 113
f 96 113 97
f 97 113 98
f 98 113 114
f 98 114 100
f 98 100 99
f 100 114 101
f 101 112 104
f 101 114 113
f 101 113 112
f 104 112 111
f 104 111 110
f 104 110 105
f 105 110 109
f 105 109 106

