v -0.05267915 0.16883896 -0.00096925
v -0.07088871 0.17482566 -0.00096925
v -0.05267915 0.16558473 -0.00096925
v -0.05267915 0.17049817 -0.00548545
v -0.07531497 0.17641236 -0.00278226
v -0.07410608 0.17567428 -0.00096925
v -0.05267915 0.17111265 -0.00787014
v -0.09538547 0.16557759 -0.00096925
v -0.05286477 0.16557759 -0.08440052
v -0.05267915 0.16575350 -0.08440052
v -0.07701885 0.17678794 -0.00479945
v -0.07701885 0.17654430 -0.00216976
v -0.07701885 0.17624122 -0.00096925
v -0.07675708 0.17619606 -0.00096925
v -0.05267915 0.17153696 -0.01094083
v -0.05267915 0.17740124 -0.05676433
v -0.09908354 0.16557759 -0.00096925
v -0.05885688 0.16557759 -0.08440052
v -0.05267915 0.16697651 -0.08440052
v -0.08008868 0.17695434 -0.00479945
v -0.05267915 0.17741313 -0.05696033
v -0.06167922 0.17771977 -0.04775643
v -0.08006012 0.17658708 -0.00145926
v -0.07964129 0.17647061 -0.00096925
v -0.07826582 0.17638859 -0.00096925
v -0.09885033 0.16614334 -0.00096925
v -0.09994024 0.16557759 -0.00390111
v -0.05875693 0.16578797 -0.08440052
v -0.06156976 0.16557759 -0.08166468
v -0.05994203 0.16678872 -0.08284885
v -0.05267915 0.17075727 -0.08439236
v -0.05406414 0.17017845 -0.08440052
v -0.08315851 0.17693652 -0.00787014
v -0.08315851 0.17675824 -0.00479945
v -0.08290626 0.17648962 -0.00191659
v -0.08227325 0.17643021 -0.00096925
v -0.08066933 0.17650984 -0.00096925
v -0.08315851 0.17759617 -0.02628610
v -0.05267915 0.17745354 -0.05982685
v -0.06167922 0.17766391 -0.05082711
v -0.08315851 0.17755813 -0.02934863
v -0.08042660 0.17650984 -0.00096925
v -0.09776042 0.16862978 -0.00096925
v -0.09977366 0.16660211 -0.00479945
v -0.09998783 0.16712032 -0.00643279
v -0.10023533 0.16557759 -0.00520778
v -0.05754804 0.16754820 -0.08440052
v -0.06303090 0.16557759 -0.08011299
v -0.06089391 0.16806641 -0.08080717
v -0.05789548 0.16796657 -0.08376352
v -0.06482996 0.16557759 -0.07820198
v -0.08504800 0.16761833 -0.05576798
v -0.05466859 0.17047083 -0.08347768
v -0.05267915 0.17081432 -0.08426986
v -0.05584892 0.16903982 -0.08440052
v -0.05671038 0.17001324 -0.08276718
v -0.08622833 0.17697811 -0.01401151
v -0.08622833 0.17682242 -0.01094083
v -0.08622833 0.17734419 -0.02321541
v -0.08481002 0.17639454 -0.00305993
v -0.08521934 0.17648488 -0.00479945
v -0.08605700 0.17552453 -0.00096925
v -0.08622833 0.17738104 -0.02628610
v -0.05267915 0.17744402 -0.06003102
v -0.05554432 0.17730973 -0.06003102
v -0.06167922 0.17732397 -0.05389781
v -0.08315851 0.17733824 -0.03241931
v -0.09714646 0.16957229 -0.00096925
v -0.09723213 0.17051719 -0.00264343
v -0.09785561 0.16884728 -0.00166342
v -0.09880274 0.16869515 -0.00479945
v -0.09947382 0.16856203 -0.00761697
v -0.10015917 0.16745074 -0.00847447
v -0.10053517 0.16590801 -0.00761697
v -0.10044950 0.16557759 -0.00651446
v -0.05632011 0.16863810 -0.08440052
v -0.05998011 0.17011189 -0.07981082
v -0.05893779 0.16903982 -0.08178718
v -0.08415323 0.16966381 -0.05489414
v -0.08544779 0.16557759 -0.05622532
v -0.08544303 0.16562632 -0.05621715
v -0.08697557 0.16562632 -0.05446131
v -0.08789413 0.16738180 -0.05252579
v -0.08720402 0.16942848 -0.05178262
v -0.05793355 0.17058375 -0.08071733
v -0.05562999 0.17096052 -0.08164834
v -0.05267915 0.17397585 -0.07558863
v -0.08901260 0.17661443 -0.01401151
v -0.08838436 0.17649794 -0.01094083
v -0.08929341 0.17675585 -0.02321541
v -0.08919822 0.17665365 -0.01707404
v -0.08929341 0.17470444 -0.00096925
v -0.08694701 0.17530940 -0.00096925
v -0.08622833 0.17714451 -0.02934863
v -0.09084974 0.17637434 -0.02480793
v -0.05267915 0.17715997 -0.06289753
v -0.05571090 0.17678794 -0.06328954
v -0.08186870 0.17643376 -0.04037370
v -0.08315851 0.17697811 -0.03549000
v -0.08539068 0.17659303 -0.03549000
v -0.09635163 0.17046133 -0.00096925
v -0.09543306 0.17127905 -0.00096925
v -0.09328180 0.17285506 -0.00096925
v -0.09527124 0.17246877 -0.00469328
v -0.09603751 0.17268985 -0.00787014
v -0.09752721 0.17082740 -0.00479945
v -0.09783181 0.17115662 -0.00787014
v -0.09954997 0.16924306 -0.01094083
v -0.10027340 0.16770865 -0.01094083
v -0.10097303 0.16562632 -0.01094083
v -0.10061608 0.16557759 -0.00764147
v -0.08814638 0.17053501 -0.04973277
v -0.08515747 0.17055403 -0.05284430
v -0.08619978 0.17104490 -0.05078628
v -0.08609507 0.17250800 -0.04762576
v -0.08806547 0.17341486 -0.04347706
v -0.08695653 0.16557759 -0.05450214
v -0.08824157 0.16557759 -0.05293413
v -0.08823205 0.16562632 -0.05292596
v -0.08987882 0.16570358 -0.05069645
v -0.09066412 0.16677922 -0.04908760
v -0.08858425 0.16852162 -0.05078628
v -0.07477716 0.17302026 -0.05776066
v -0.07273061 0.17338871 -0.05878151
v -0.05881880 0.17102470 -0.07865115
v -0.05267915 0.17496948 -0.07210961
v -0.06336406 0.17334355 -0.06784657
v -0.06167922 0.17435618 -0.06617239
v -0.05791927 0.17657639 -0.06238303
v -0.05479709 0.17654074 -0.06529039
v -0.09073075 0.17629470 -0.01707404
v -0.09054989 0.17620081 -0.01401151
v -0.08992165 0.17601064 -0.01094083
v -0.09085926 0.17637908 -0.02321541
v -0.09084974 0.17637553 -0.02114107
v -0.09190633 0.17387364 -0.00173693
v -0.09174451 0.17379281 -0.00096925
v -0.08638540 0.17675585 -0.03223148
v -0.09239179 0.17561485 -0.02321541
v -0.09236324 0.17459271 -0.03241931
v -0.09501423 0.17395327 -0.02934863
v -0.09529504 0.17407332 -0.02628610
v -0.05267915 0.17712669 -0.06310987
v -0.05267915 0.17665839 -0.06600090
v -0.08484334 0.17641236 -0.03720501
v -0.08300144 0.17656689 -0.03836469
v -0.09240131 0.17393901 -0.03542467
v -0.09290105 0.17309752 -0.00096925
v -0.09344363 0.17294895 -0.00173693
v -0.09414326 0.17343031 -0.00564062
v -0.09656105 0.17303096 -0.01094083
v -0.09801267 0.17149773 -0.01094083
v -0.09960708 0.16942729 -0.01401151
v -0.10035907 0.16789288 -0.01401151
v -0.10115389 0.16562632 -0.01401151
v -0.10098255 0.16557759 -0.01094083
v -0.09022625 0.16869515 -0.04837710
v -0.09083546 0.17023550 -0.04622925
v -0.09137327 0.17073469 -0.04468574
v -0.09011202 0.17294182 -0.04224388
v -0.09087829 0.17333166 -0.04020220
v -0.08916966 0.17364306 -0.04138638
v -0.09002636 0.16557759 -0.05054945
v -0.09162553 0.16557759 -0.04815660
v -0.09406235 0.16758386 -0.04341173
v -0.09359592 0.16962935 -0.04268489
v -0.05267915 0.17663344 -0.06613973
v -0.09236324 0.17548292 -0.01707404
v -0.09519509 0.17396040 -0.01401151
v -0.09236324 0.17533079 -0.01401151
v -0.09502375 0.17383798 -0.01094083
v -0.09236324 0.17501821 -0.01094083
v -0.09236324 0.17462004 -0.00787014
v -0.09206815 0.17572658 -0.02012839
v -0.09259645 0.17402102 -0.00469328
v -0.09450497 0.17362167 -0.00787014
v -0.09517605 0.17405786 -0.02014473
v -0.09415278 0.17346954 -0.03435483
v -0.09446690 0.17370249 -0.03241931
v -0.09654677 0.17286576 -0.02934863
v -0.09682758 0.17317239 -0.02628610
v -0.09673239 0.17311416 -0.01401151
v -0.08929341 0.17438709 -0.03856069
v -0.09807455 0.17158212 -0.01401151
v -0.09964516 0.16953307 -0.01707404
v -0.10041142 0.16799866 -0.01707404
v -0.10126812 0.16562632 -0.01707404
v -0.10116341 0.16557759 -0.01401151
v -0.09417182 0.17052669 -0.04064321
v -0.09223949 0.17173425 -0.04144354
v -0.09430508 0.16557759 -0.04390990
v -0.09430032 0.16562632 -0.04390173
v -0.09727020 0.16557759 -0.03760518
v -0.09726068 0.16562632 -0.03759702
v -0.09700843 0.16728078 -0.03712335
v -0.09454781 0.16864167 -0.04165588
v -0.09539023 0.17164868 -0.03524500
v -0.09701319 0.17031394 -0.03409349
v -0.09599944 0.17218828 -0.03241931
v -0.09768903 0.17133253 -0.02934863
v -0.09727020 0.17065505 -0.03241931
v -0.09793176 0.17163918 -0.02628610
v -0.09964516 0.16951762 -0.02014473
v -0.09810786 0.17155241 -0.02014473
v -0.10040667 0.16798321 -0.02014473
v -0.10128716 0.16562632 -0.02014473
v -0.10127764 0.16557759 -0.01707404
v -0.09608511 0.16845981 -0.03831569
v -0.09662292 0.16932626 -0.03613517
v -0.09809834 0.16557759 -0.03549000
v -0.09808406 0.16562632 -0.03549000
v -0.09727972 0.16845981 -0.03526950
v -0.09807931 0.16869515 -0.03241931
v -0.09880274 0.16869515 -0.02934863
v -0.10017821 0.16749709 -0.02549393
v -0.09957376 0.16933458 -0.02321541
v -0.10031623 0.16780017 -0.02321541
v -0.10114437 0.16562632 -0.02321541
v -0.10129668 0.16557759 -0.02014473
v -0.09833156 0.16557759 -0.03478767
v -0.09917873 0.16557759 -0.03221515
v -0.09997356 0.16557759 -0.02934863
v -0.10052565 0.16557759 -0.02720078
v -0.10061132 0.16584145 -0.02642494
v -0.10115389 0.16557759 -0.02321541
v -0.10069223 0.16557759 -0.02640860
v -0.10114914 0.16557759 -0.02326441
v -0.10064463 0.16557759 -0.02665361
f 1 2 6
f 1 6 14
f 1 14 13
f 1 13 25
f 1 25 24
f 1 24 42
f 1 42 37
f 1 37 36
f 1 36 62
f 1 62 93
f 1 93 92
f 1 92 137
f 1 137 148
f 1 148 103
f 1 103 102
f 1 102 101
f 1 101 68
f 1 68 43
f 1 43 26
f 1 26 17
f 1 17 8
f 1 8 3
f 1 3 10
f 1 10 19
f 1 19 31
f 1 31 54
f 1 54 87
f 1 87 126
f 1 126 167
f 1 167 144
f 1 144 143
f 1 143 96
f 1 96 64
f 1 64 39
f 1 39 21
f 1 21 16
f 1 16 15
f 1 15 7
f 1 7 4
f 1 4 2
f 2 5 6
f 2 4 7
f 2 7 5
f 3 8 9
f 3 9 10
f 5 11 12
f 5 12 13
f 5 13 14
f 5 14 6
f 5 7 15
f 5 15 16
f 5 16 11
f 8 17 27
f 8 27 46
f 8 46 75
f 8 75 111
f 8 111 156
f 8 156 188
f 8 188 207
f 8 207 219
f 8 219 225
f 8 225 227
f 8 227 226
f 8 226 228
f 8 228 223
f 8 223 222
f 8 222 221
f 8 221 220
f 8 220 210
f 8 210 193
f 8 193 191
f 8 191 164
f 8 164 163
f 8 163 118
f 8 118 117
f 8 117 80
f 8 80 51
f 8 51 48
f 8 48 29
f 8 29 18
f 8 18 9
f 9 18 28
f 9 28 47
f 9 47 76
f 9 76 55
f 9 55 32
f 9 32 19
f 9 19 10
f 11 20 12
f 11 16 21
f 11 21 22
f 11 22 20
f 12 20 23
f 12 23 24
f 12 24 25
f 12 25 13
f 17 26 27
f 18 29 30
f 18 30 28
f 19 32 31
f 20 33 34
f 20 34 35
f 20 35 36
f 20 36 37
f 20 37 23
f 20 22 38
f 20 38 33
f 21 39 22
f 22 39 40
f 22 40 41
f 22 41 38
f 23 37 42
f 23 42 24
f 26 43 44
f 26 44 27
f 27 44 45
f 27 45 46
f 28 30 47
f 29 48 30
f 30 49 50
f 30 50 47
f 30 48 51
f 30 51 52
f 30 52 49
f 31 53 54
f 31 32 53
f 32 55 56
f 32 56 53
f 33 57 58
f 33 58 34
f 33 38 59
f 33 59 57
f 34 60 35
f 34 58 61
f 34 61 60
f 35 60 36
f 36 60 62
f 38 41 63
f 38 63 59
f 39 64 40
f 40 64 65
f 40 65 66
f 40 66 67
f 40 67 41
f 41 67 63
f 43 68 69
f 43 69 70
f 43 70 44
f 44 71 45
f 44 70 71
f 45 72 73
f 45 73 74
f 45 74 46
f 45 71 72
f 46 74 75
f 47 50 76
f 49 77 78
f 49 78 50
f 49 52 79
f 49 79 77
f 50 78 56
f 50 56 55
f 50 55 76
f 51 80 81
f 51 81 52
f 52 81 82
f 52 82 83
f 52 83 84
f 52 84 79
f 53 56 85
f 53 85 54
f 54 85 86
f 54 86 87
f 56 78 77
f 56 77 85
f 57 88 58
f 57 59 88
f 58 88 89
f 58 89 61
f 59 63 90
f 59 90 91
f 59 91 88
f 60 92 93
f 60 93 62
f 60 61 89
f 60 89 92
f 63 67 94
f 63 94 95
f 63 95 90
f 64 96 65
f 65 96 97
f 65 97 98
f 65 98 99
f 65 99 66
f 66 99 67
f 67 99 100
f 67 100 94
f 68 101 69
f 69 101 102
f 69 102 103
f 69 103 104
f 69 104 105
f 69 105 106
f 69 106 71
f 69 71 70
f 71 106 72
f 72 106 107
f 72 107 108
f 72 108 73
f 73 108 109
f 73 109 110
f 73 110 74
f 74 111 75
f 74 110 111
f 77 79 112
f 77 112 113
f 77 113 114
f 77 114 115
f 77 115 116
f 77 116 85
f 79 84 112
f 80 117 81
f 81 117 82
f 82 117 118
f 82 118 119
f 82 119 83
f 83 119 120
f 83 120 121
f 83 121 122
f 83 122 84
f 84 122 112
f 85 123 124
f 85 124 125
f 85 125 87
f 85 87 86
f 85 116 123
f 87 125 127
f 87 127 128
f 87 128 129
f 87 129 130
f 87 130 126
f 88 91 131
f 88 131 132
f 88 132 89
f 89 132 133
f 89 133 92
f 90 95 134
f 90 134 135
f 90 135 91
f 91 135 131
f 92 136 137
f 92 133 136
f 94 100 138
f 94 138 95
f 95 139 134
f 95 138 100
f 95 100 140
f 95 140 141
f 95 141 142
f 95 142 139
f 96 143 97
f 97 129 98
f 97 143 144
f 97 144 130
f 97 130 129
f 98 116 145
f 98 145 146
f 98 146 99
f 98 129 128
f 98 128 127
f 98 127 124
f 98 124 116
f 99 146 100
f 100 147 140
f 100 146 145
f 100 145 147
f 103 148 149
f 103 149 104
f 104 149 150
f 104 150 105
f 105 150 151
f 105 151 106
f 106 151 107
f 107 151 152
f 107 152 108
f 108 152 153
f 108 153 154
f 108 154 109
f 109 154 155
f 109 155 110
f 110 156 111
f 110 155 188
f 110 188 156
f 112 114 113
f 112 122 157
f 112 157 158
f 112 158 159
f 112 159 160
f 112 160 114
f 114 160 116
f 114 116 115
f 116 160 161
f 116 161 162
f 116 162 145
f 116 124 123
f 118 163 120
f 118 120 119
f 120 163 121
f 121 157 122
f 121 163 164
f 121 164 165
f 121 165 166
f 121 166 157
f 124 127 125
f 126 130 167
f 130 144 167
f 131 135 168
f 131 168 169
f 131 169 170
f 131 170 132
f 132 170 171
f 132 171 172
f 132 172 173
f 132 173 133
f 133 173 136
f 134 139 135
f 135 139 174
f 135 174 169
f 135 169 168
f 136 175 176
f 136 176 150
f 136 150 149
f 136 149 148
f 136 148 137
f 136 173 175
f 139 177 169
f 139 169 174
f 139 142 177
f 140 178 179
f 140 179 141
f 140 147 178
f 141 179 180
f 141 180 181
f 141 181 142
f 142 181 182
f 142 182 177
f 145 183 147
f 145 162 183
f 147 183 161
f 147 161 178
f 150 176 151
f 151 176 171
f 151 171 169
f 151 169 182
f 151 182 152
f 152 182 184
f 152 184 153
f 153 184 185
f 153 185 186
f 153 186 154
f 154 186 187
f 154 187 155
f 155 187 207
f 155 207 188
f 157 166 158
f 158 166 189
f 158 189 159
f 159 189 190
f 159 190 160
f 160 190 161
f 161 183 162
f 161 190 178
f 164 191 192
f 164 192 165
f 165 192 193
f 165 193 194
f 165 194 195
f 165 195 196
f 165 196 166
f 166 196 189
f 169 177 182
f 169 171 170
f 171 176 173
f 171 173 172
f 173 176 175
f 178 197 198
f 178 198 199
f 178 199 180
f 178 180 179
f 178 190 189
f 178 189 197
f 180 200 181
f 180 199 198
f 180 198 201
f 180 201 200
f 181 200 202
f 181 202 203
f 181 203 204
f 181 204 184
f 181 184 182
f 184 204 185
f 185 204 203
f 185 203 186
f 186 203 205
f 186 205 206
f 186 206 187
f 187 206 219
f 187 219 207
f 189 196 208
f 189 208 209
f 189 209 198
f 189 198 197
f 191 193 192
f 193 210 194
f 194 210 195
f 195 208 196
f 195 210 211
f 195 211 212
f 195 212 209
f 195 209 208
f 198 213 201
f 198 209 212
f 198 212 213
f 200 201 214
f 200 214 215
f 200 215 216
f 200 216 202
f 201 213 214
f 202 216 203
f 203 216 205
f 205 216 217
f 205 217 218
f 205 218 206
f 206 218 225
f 206 225 219
f 210 220 211
f 211 220 212
f 212 220 221
f 212 221 213
f 213 221 222
f 213 222 223
f 213 223 224
f 213 224 214
f 214 224 215
f 215 218 217
f 215 217 216
f 215 224 218
f 218 224 226
f 218 226 227
f 218 227 225
f 223 228 224
f 224 228 226

