v -0.05286698 0.16557579 -0.08440052
v -0.05785665 0.14709452 -0.08440052
v -0.05885764 0.16557579 -0.08440052
v -0.09538388 0.16557579 -0.00096925
v -0.09941851 0.14924751 -0.00096925
v -0.06310678 0.14709452 -0.08440052
v -0.09977091 0.14803533 -0.00096925
v -0.09979644 0.14794848 -0.00096925
v -0.10014883 0.14709452 -0.00096925
v -0.05886786 0.16555588 -0.08440052
v -0.06041532 0.16474174 -0.08331435
v -0.06156954 0.16557579 -0.08166468
v -0.09908655 0.16557579 -0.00096925
v -0.06056854 0.15948774 -0.08440052
v -0.06387286 0.14709452 -0.08373902
v -0.10365233 0.14709452 -0.00096925
v -0.05968500 0.16345357 -0.08440052
v -0.06483299 0.16557579 -0.07820198
v -0.06071664 0.16255619 -0.08361652
v -0.07213109 0.15641747 -0.07353878
v -0.07582355 0.16189582 -0.06805074
v -0.08542496 0.16557579 -0.05624982
v -0.09910187 0.16553961 -0.00096925
v -0.09993944 0.16557579 -0.00390111
v -0.05993014 0.16255619 -0.08440052
v -0.06541521 0.14709452 -0.08239151
v -0.10361147 0.14730259 -0.00096925
v -0.10375958 0.14709452 -0.00136125
v -0.06653367 0.15275560 -0.08021099
v -0.06959795 0.15264705 -0.07717297
v -0.07235581 0.15468424 -0.07378378
v -0.07615551 0.15948774 -0.06841008
v -0.07878569 0.16168052 -0.06489022
v -0.08731971 0.16255619 -0.05495131
v -0.08695710 0.16557579 -0.05450214
v -0.09981176 0.16321837 -0.00096925
v -0.10012841 0.16440884 -0.00287210
v -0.10023566 0.16557579 -0.00520778
v -0.06709035 0.14709452 -0.08086434
v -0.06681456 0.15028239 -0.08047233
v -0.10346336 0.14797381 -0.00096925
v -0.10369829 0.14750703 -0.00144292
v -0.10379022 0.14709452 -0.00147559
v -0.06834670 0.15028239 -0.07897782
v -0.06986863 0.15028239 -0.07744247
v -0.07259584 0.15263801 -0.07403695
v -0.07769276 0.15948774 -0.06671956
v -0.08863224 0.16255619 -0.05341597
v -0.08823899 0.16557579 -0.05293413
v -0.10021012 0.16190849 -0.00096925
v -0.10031736 0.16506558 -0.00479945
v -0.10307011 0.15485973 -0.00639196
v -0.10326929 0.15259277 -0.00479945
v -0.10311608 0.15185460 -0.00323960
v -0.10331015 0.15028239 -0.00249643
v -0.10045015 0.16557579 -0.00651446
v -0.06862760 0.14709452 -0.07935349
v -0.06867356 0.14721394 -0.07928815
v -0.10379533 0.15028239 -0.00479945
v -0.10443882 0.14721394 -0.00479945
v -0.10448479 0.14709452 -0.00491378
v -0.07017506 0.14709452 -0.07776914
v -0.07170720 0.14709452 -0.07608680
v -0.07562437 0.15028239 -0.07092543
v -0.09016949 0.16255619 -0.05142329
v -0.07586951 0.14721394 -0.07119493
v -0.09111942 0.14709452 -0.05269730
v -0.09283031 0.14709452 -0.05053311
v -0.09483741 0.14709452 -0.04797693
v -0.09102749 0.16473088 -0.04958577
v -0.09002649 0.16557579 -0.05054945
v -0.10061869 0.16557579 -0.00764147
v -0.10320800 0.15527585 -0.00843364
v -0.10349911 0.15364213 -0.00759247
v -0.10428051 0.15028239 -0.00787014
v -0.06868378 0.14709452 -0.07929632
v -0.10484229 0.14709452 -0.00786197
v -0.07582355 0.14709452 -0.07126843
v -0.09765144 0.14709452 -0.04427740
v -0.09926530 0.14709452 -0.04213772
v -0.10040419 0.14709452 -0.04061871
v -0.09122156 0.16255619 -0.04988794
v -0.09162503 0.16557579 -0.04815660
v -0.09430627 0.16557579 -0.04390990
v -0.10098130 0.16557579 -0.01094083
v -0.10381065 0.15335083 -0.01094083
v -0.10450522 0.15028239 -0.01094083
v -0.10485761 0.14709452 -0.00802530
v -0.10153287 0.14709452 -0.03855253
v -0.10045526 0.15335083 -0.03771952
v -0.10017437 0.15541698 -0.03726218
v -0.10068508 0.15643014 -0.03563700
v -0.09726841 0.16557579 -0.03760518
v -0.10116515 0.16557579 -0.01401151
v -0.10447457 0.15028239 -0.01401151
v -0.10503636 0.14709452 -0.01094083
v -0.10127751 0.16557579 -0.01707404
v -0.10129283 0.16557579 -0.02014473
v -0.10129283 0.16557579 -0.02019373
v -0.10271772 0.14709452 -0.03575951
v -0.10143583 0.15335083 -0.03549000
v -0.10101704 0.15948774 -0.03241931
v -0.10031226 0.15948774 -0.03455900
v -0.10005690 0.16110156 -0.03401182
v -0.09809576 0.16557579 -0.03549000
v -0.10499551 0.14709452 -0.01401151
v -0.10184951 0.16255619 -0.02321541
v -0.10312629 0.15510941 -0.02504476
v -0.10115494 0.16557579 -0.02321541
v -0.10290669 0.14709452 -0.03524500
v -0.10340208 0.14709452 -0.03338299
v -0.10325397 0.14963649 -0.03173331
v -0.10166054 0.15948774 -0.02934863
v -0.10100172 0.16255619 -0.02934863
v -0.10008244 0.16422792 -0.03103914
v -0.10028672 0.16229747 -0.03220698
v -0.10297818 0.14858895 -0.03378316
v -0.09833069 0.16557579 -0.03478767
v -0.10481164 0.14709452 -0.01707404
v -0.10158905 0.16255619 -0.02628610
v -0.10318758 0.15243899 -0.02862179
v -0.10389236 0.14721394 -0.02934863
v -0.10114983 0.16557579 -0.02326441
v -0.10353487 0.14709452 -0.03259898
v -0.10338165 0.15050854 -0.02952829
v -0.10029694 0.16484667 -0.02934863
v -0.10064422 0.16557579 -0.02665361
v -0.09917847 0.16557579 -0.03221515
v -0.10390768 0.14709452 -0.02934863
v -0.10069019 0.16557579 -0.02640860
v -0.10389747 0.14709452 -0.02947113
v -0.10052676 0.16557579 -0.02720078
v -0.09997519 0.16557579 -0.02934863
f 1 2 6
f 1 6 14
f 1 14 25
f 1 25 17
f 1 17 10
f 1 10 3
f 1 3 12
f 1 12 18
f 1 18 22
f 1 22 35
f 1 35 49
f 1 49 71
f 1 71 83
f 1 83 84
f 1 84 93
f 1 93 105
f 1 105 118
f 1 118 128
f 1 128 133
f 1 133 132
f 1 132 127
f 1 127 130
f 1 130 123
f 1 123 109
f 1 109 99
f 1 99 98
f 1 98 97
f 1 97 94
f 1 94 85
f 1 85 72
f 1 72 56
f 1 56 38
f 1 38 24
f 1 24 13
f 1 13 4
f 1 4 5
f 1 5 2
f 2 5 7
f 2 7 8
f 2 8 9
f 2 9 16
f 2 16 28
f 2 28 43
f 2 43 61
f 2 61 77
f 2 77 88
f 2 88 96
f 2 96 106
f 2 106 119
f 2 119 129
f 2 129 131
f 2 131 124
f 2 124 111
f 2 111 110
f 2 110 100
f 2 100 89
f 2 89 81
f 2 81 80
f 2 80 79
f 2 79 69
f 2 69 68
f 2 68 67
f 2 67 78
f 2 78 63
f 2 63 62
f 2 62 76
f 2 76 57
f 2 57 39
f 2 39 26
f 2 26 15
f 2 15 6
f 3 10 11
f 3 11 12
f 4 13 23
f 4 23 36
f 4 36 50
f 4 50 41
f 4 41 27
f 4 27 16
f 4 16 9
f 4 9 8
f 4 8 7
f 4 7 5
f 6 15 14
f 10 17 11
f 11 18 12
f 11 17 19
f 11 19 20
f 11 20 21
f 11 21 22
f 11 22 18
f 13 24 23
f 14 15 26
f 14 26 25
f 16 27 28
f 17 25 19
f 19 25 29
f 19 29 30
f 19 30 31
f 19 31 20
f 20 31 32
f 20 32 21
f 21 32 33
f 21 33 22
f 22 33 34
f 22 34 35
f 23 24 37
f 23 37 36
f 24 38 37
f 25 26 39
f 25 39 40
f 25 40 29
f 27 41 42
f 27 42 28
f 28 42 43
f 29 40 44
f 29 44 30
f 30 45 46
f 30 46 31
f 30 44 45
f 31 46 32
f 32 47 33
f 32 46 47
f 33 47 34
f 34 48 35
f 34 47 46
f 34 46 48
f 35 48 49
f 36 37 50
f 37 38 51
f 37 51 52
f 37 52 53
f 37 53 54
f 37 54 55
f 37 55 42
f 37 42 50
f 38 56 51
f 39 57 58
f 39 58 44
f 39 44 40
f 41 50 42
f 42 55 59
f 42 59 60
f 42 60 43
f 43 60 61
f 44 58 45
f 45 62 46
f 45 58 62
f 46 62 63
f 46 63 64
f 46 64 48
f 48 65 49
f 48 64 66
f 48 66 67
f 48 67 68
f 48 68 69
f 48 69 65
f 49 65 70
f 49 70 71
f 51 56 52
f 52 56 72
f 52 72 73
f 52 73 74
f 52 74 75
f 52 75 59
f 52 59 53
f 53 59 54
f 54 59 55
f 57 76 58
f 58 76 62
f 59 75 61
f 59 61 60
f 61 75 77
f 63 78 66
f 63 66 64
f 65 69 79
f 65 79 80
f 65 80 81
f 65 81 82
f 65 82 70
f 66 78 67
f 70 83 71
f 70 82 81
f 70 81 84
f 70 84 83
f 72 85 73
f 73 75 74
f 73 85 86
f 73 86 87
f 73 87 75
f 75 87 88
f 75 88 77
f 81 89 84
f 84 89 90
f 84 90 91
f 84 91 92
f 84 92 93
f 85 94 86
f 86 94 87
f 87 95 96
f 87 96 88
f 87 94 97
f 87 97 98
f 87 98 99
f 87 99 95
f 89 100 101
f 89 101 92
f 89 92 90
f 90 92 91
f 92 101 102
f 92 102 103
f 92 103 93
f 93 103 104
f 93 104 105
f 95 106 96
f 95 99 107
f 95 107 108
f 95 108 106
f 99 109 107
f 100 110 101
f 101 110 102
f 102 111 112
f 102 112 113
f 102 113 114
f 102 114 115
f 102 115 116
f 102 116 104
f 102 104 103
f 102 110 117
f 102 117 111
f 104 116 115
f 104 115 105
f 105 115 118
f 106 108 119
f 107 109 120
f 107 120 108
f 108 120 121
f 108 121 122
f 108 122 119
f 109 123 120
f 110 111 117
f 111 124 112
f 112 124 125
f 112 125 121
f 112 121 120
f 112 120 113
f 113 120 114
f 114 126 115
f 114 120 127
f 114 127 126
f 115 126 128
f 115 128 118
f 119 122 129
f 120 123 130
f 120 130 127
f 121 125 131
f 121 131 122
f 122 131 129
f 124 131 125
f 126 127 132
f 126 132 133
f 126 133 128

