v 0.03190282 -0.15627480 0.13165469
v 0.03190282 -0.15627480 0.12798705
v 0.03178590 -0.15627480 0.13169347
v 0.03190282 -0.16836112 0.13822411
v 0.03190282 -0.18774087 0.11587900
v -0.02875912 -0.15627480 0.10826260
v 0.03074928 -0.15627480 0.13192289
v 0.02731206 -0.16887488 0.13978165
v 0.02965810 -0.16707022 0.13818211
v 0.03056222 -0.16864401 0.13881223
v 0.03190282 -0.16906998 0.13857634
v 0.03190282 -0.18949025 0.11587900
v -0.02878250 -0.15819976 0.10826260
v -0.04765216 -0.15627480 0.10826260
v 0.03068693 -0.15627480 0.13193582
v 0.02731206 -0.15627480 0.13257887
v 0.02456851 -0.15627480 0.13308297
v 0.02424116 -0.15627480 0.13313467
v 0.02418660 -0.16911875 0.14034391
v 0.02312659 -0.17030560 0.14100958
v 0.03190282 -0.17076733 0.13876376
v 0.03190282 -0.18949025 0.11756580
v 0.03038295 -0.18930166 0.11605673
v -0.04529053 -0.16454370 0.10826260
v -0.04383302 -0.16471604 0.10826260
v -0.02178335 -0.17073481 0.11009803
v -0.02178335 -0.16887488 0.10956163
v -0.02178335 -0.16580534 0.10918032
v -0.02980353 -0.16056695 0.10826260
v -0.04769113 -0.15659996 0.10826260
v -0.04757421 -0.15627480 0.10834015
v 0.02149761 -0.15627480 0.13345457
v 0.01810715 -0.16806522 0.14050871
v 0.02117805 -0.17002596 0.14112914
v 0.01810715 -0.16959999 0.14127456
v 0.02312659 -0.17059499 0.14100958
v 0.03038295 -0.17194117 0.13921616
v 0.03190282 -0.17185988 0.13874438
v 0.03190282 -0.18847249 0.11910071
v 0.03038295 -0.18857980 0.11913625
v 0.03038295 -0.18930166 0.11760134
v 0.02865265 -0.18904803 0.11626031
v -0.01787068 -0.17434088 0.11272193
v -0.01787068 -0.17434088 0.11380121
v -0.04525935 -0.16453070 0.10874732
v -0.04681039 -0.16272278 0.10826260
v -0.04356802 -0.16471604 0.10826260
v -0.03161178 -0.16180907 0.10826260
v -0.04772230 -0.15966625 0.10826260
v -0.04674024 -0.15966625 0.10920294
v -0.04520479 -0.15966625 0.11067000
v -0.04515802 -0.15659996 0.11065060
v -0.04514244 -0.15627480 0.11063445
v 0.02117805 -0.15627480 0.13347073
v -0.00118339 -0.16102218 0.13815626
v -0.00022471 -0.16252443 0.13921939
v 0.02117805 -0.17090064 0.14112914
v 0.01503626 -0.16970730 0.14116793
v 0.01810715 -0.17113802 0.14127456
v -0.00031044 -0.16580534 0.14049256
v 0.02418660 -0.17174608 0.14048287
v 0.02731206 -0.17194117 0.13991414
v 0.03190282 -0.17367755 0.13806901
v 0.03038295 -0.17392467 0.13828875
v 0.02731206 -0.17433112 0.13861511
v 0.02424116 -0.17447745 0.13887363
v 0.01901128 -0.18583216 0.11961127
v 0.02117805 -0.17430186 0.13896088
v -0.00337355 -0.17070880 0.13820796
v -0.01253947 -0.17142091 0.13342549
v 0.02865265 -0.18904803 0.11722004
v -0.01244594 -0.17301747 0.13006807
v -0.02725485 -0.17082586 0.11392724
v -0.04483067 -0.16430308 0.11031131
v -0.03331870 -0.16770754 0.11711986
v -0.04699745 -0.16241387 0.10826260
v -0.04749627 -0.16075879 0.10826260
v -0.04497876 -0.16273579 0.11045672
v -0.04352905 -0.15966625 0.11220168
v -0.03564136 -0.15846314 0.11953694
v -0.03564136 -0.15805018 0.11953694
v -0.04011521 -0.15631706 0.11498714
v -0.04009962 -0.15627480 0.11497421
v 0.01535581 -0.15627480 0.13375510
v -0.00337355 -0.16102869 0.13813364
v -0.00031044 -0.15627480 0.13421718
v -0.00337355 -0.16273579 0.13915800
v 0.02117805 -0.17243542 0.14049579
v 0.01503626 -0.17086163 0.14116793
v -0.00337355 -0.16580534 0.13985597
v -0.00337355 -0.16887488 0.13914184
v -0.00031044 -0.16887488 0.13958777
v -0.00498694 -0.17045842 0.13793976
v -0.01148726 -0.17065352 0.13501858
v -0.01485434 -0.17103072 0.13248838
v -0.01578184 -0.17158024 0.13033951
v -0.02377086 -0.16490463 0.12909219
v -0.02405924 -0.16273579 0.12932808
v -0.01787068 -0.17087138 0.12938948
v -0.01690420 -0.17004221 0.13143818
v -0.01780053 -0.16799693 0.13225573
v -0.04184551 -0.16169202 0.11345223
v -0.02384880 -0.16038161 0.12913743
v -0.02240688 -0.15833308 0.12781256
v -0.01890730 -0.15627480 0.12748619
v -0.00282795 -0.15627480 0.13403946
v -0.00335796 -0.15627480 0.13395544
v -0.00497914 -0.16114899 0.13795269
v -0.00566503 -0.16273579 0.13825966
v -0.01427757 -0.16359097 0.13494102
v -0.00638209 -0.16580534 0.13856019
v -0.01430095 -0.16763601 0.13492486
v -0.00573517 -0.16887488 0.13827259
v -0.01353713 -0.16968129 0.13453386
v -0.01438669 -0.16580534 0.13498303
v -0.02154173 -0.15948091 0.12939917
v -0.02036481 -0.15811522 0.12871412
v -0.01352154 -0.16154569 0.13468574
v -0.00905549 -0.15627480 0.13227188
v -0.00608591 -0.15627480 0.13332855
v -0.00644444 -0.15627480 0.13322838
f 1 2 6
f 1 6 14
f 1 14 31
f 1 31 53
f 1 53 83
f 1 83 105
f 1 105 119
f 1 119 121
f 1 121 120
f 1 120 107
f 1 107 106
f 1 106 86
f 1 86 84
f 1 84 54
f 1 54 32
f 1 32 18
f 1 18 17
f 1 17 16
f 1 16 15
f 1 15 7
f 1 7 3
f 1 3 4
f 1 4 11
f 1 11 21
f 1 21 38
f 1 38 63
f 1 63 39
f 1 39 22
f 1 22 12
f 1 12 5
f 1 5 2
f 2 5 6
f 3 7 8
f 3 8 9
f 3 9 10
f 3 10 4
f 4 10 11
f 5 12 6
f 6 13 29
f 6 29 48
f 6 48 47
f 6 47 25
f 6 25 24
f 6 24 46
f 6 46 76
f 6 76 77
f 6 77 49
f 6 49 30
f 6 30 14
f 6 12 13
f 7 15 8
f 8 16 17
f 8 17 18
f 8 18 19
f 8 19 20
f 8 20 21
f 8 21 11
f 8 11 10
f 8 10 9
f 8 15 16
f 12 22 41
f 12 41 23
f 12 23 24
f 12 24 25
f 12 25 26
f 12 26 27
f 12 27 28
f 12 28 13
f 13 28 29
f 14 30 31
f 18 32 33
f 18 33 19
f 19 34 20
f 19 33 35
f 19 35 34
f 20 34 57
f 20 57 36
f 20 36 37
f 20 37 21
f 21 37 38
f 22 39 40
f 22 40 41
f 23 41 71
f 23 71 42
f 23 42 24
f 24 43 44
f 24 44 45
f 24 45 46
f 24 42 43
f 25 47 26
f 26 47 27
f 27 47 48
f 27 48 28
f 28 48 29
f 30 49 50
f 30 50 51
f 30 51 52
f 30 52 53
f 30 53 31
f 32 54 55
f 32 55 56
f 32 56 33
f 33 56 35
f 34 35 59
f 34 59 57
f 35 58 89
f 35 89 59
f 35 56 60
f 35 60 58
f 36 57 61
f 36 61 62
f 36 62 37
f 37 63 38
f 37 62 63
f 39 63 64
f 39 64 65
f 39 65 66
f 39 66 40
f 40 67 41
f 40 66 68
f 40 68 69
f 40 69 70
f 40 70 67
f 41 67 71
f 42 71 44
f 42 44 43
f 44 71 67
f 44 67 72
f 44 72 73
f 44 73 45
f 45 74 46
f 45 73 75
f 45 75 74
f 46 74 76
f 49 77 74
f 49 74 78
f 49 78 50
f 50 78 51
f 51 78 79
f 51 79 80
f 51 80 81
f 51 81 52
f 52 81 53
f 53 82 83
f 53 81 82
f 54 84 55
f 55 85 56
f 55 84 86
f 55 86 85
f 56 85 87
f 56 87 60
f 57 59 88
f 57 88 61
f 58 60 89
f 59 89 68
f 59 68 88
f 60 87 90
f 60 90 91
f 60 91 92
f 60 92 89
f 61 88 65
f 61 65 62
f 62 65 64
f 62 64 63
f 65 88 66
f 66 88 68
f 67 70 72
f 68 89 69
f 69 91 93
f 69 93 70
f 69 89 91
f 70 93 94
f 70 94 95
f 70 95 72
f 72 95 96
f 72 96 75
f 72 75 73
f 74 97 98
f 74 98 78
f 74 77 76
f 74 75 99
f 74 99 95
f 74 95 100
f 74 100 101
f 74 101 97
f 75 96 99
f 78 98 102
f 78 102 79
f 79 102 80
f 80 102 98
f 80 98 81
f 81 83 82
f 81 98 103
f 81 103 83
f 83 103 104
f 83 104 105
f 85 86 106
f 85 106 107
f 85 107 108
f 85 108 87
f 87 108 109
f 87 109 90
f 89 92 91
f 90 109 110
f 90 110 111
f 90 111 112
f 90 112 113
f 90 113 91
f 91 113 93
f 93 113 114
f 93 114 94
f 94 114 95
f 95 101 100
f 95 99 96
f 95 114 101
f 97 101 112
f 97 112 98
f 98 112 115
f 98 115 110
f 98 110 103
f 101 114 112
f 103 116 117
f 103 117 104
f 103 110 118
f 103 118 119
f 103 119 116
f 104 117 105
f 105 117 119
f 107 120 108
f 108 120 121
f 108 121 119
f 108 119 118
f 108 118 109
f 109 118 110
f 110 115 111
f 111 115 112
f 112 114 113
f 116 119 117

