v 0.04233640 -0.18736526 0.11192393
v 0.04388914 -0.18844474 0.11006673
v 0.04388914 -0.18906160 0.11006673
v 0.04243196 -0.18970929 0.11192393
v 0.09544008 0.12516291 0.11192393
v 0.10319183 0.12516291 0.10316617
v 0.10334711 0.12516291 0.10299578
v 0.07787621 -0.17616938 0.07646693
v 0.09892180 -0.17579928 0.05468045
v 0.07984699 -0.18727273 0.07543894
v 0.08030685 -0.18970929 0.07586491
v 0.09892180 -0.17724888 0.05468045
v 0.04278430 -0.18974013 0.11179329
v 0.04277833 -0.18974013 0.11192393
v 0.10009232 0.12516291 0.11192393
v 0.10334711 -0.14844189 0.05596401
v 0.10334711 0.12516291 0.10834586
v 0.10334711 -0.15044665 0.05563460
v 0.10080300 -0.17487400 0.05428289
v 0.08352580 -0.18961677 0.07308764
v 0.10334711 -0.18933918 0.05728165
v 0.10115536 -0.18952424 0.05986013
v 0.08590865 -0.18974013 0.07200854
v 0.08562199 -0.18992519 0.07438824
v 0.10334711 -0.17496652 0.05390804
v 0.10096425 -0.17749562 0.05445894
v 0.10230797 -0.18912328 0.05791207
v 0.04883999 -0.18980182 0.10880022
v 0.04565090 -0.18949340 0.11192393
v 0.10231394 0.12263381 0.11008378
v 0.10057009 0.12516291 0.11145252
v 0.10033121 0.12263381 0.11192393
v 0.10334711 0.11958040 0.10948175
v 0.10210491 0.12516291 0.10980548
v 0.10334711 0.12251044 0.10907850
v 0.10334711 -0.18964760 0.05970679
v 0.10334711 -0.17740309 0.05431696
v 0.10100008 -0.18970929 0.06275099
v 0.07276412 -0.18974013 0.09033054
v 0.06721009 -0.18974013 0.09585099
v 0.05103174 -0.18961677 0.10781766
v 0.04784265 -0.18933918 0.11085050
v 0.04575839 -0.18943171 0.11192393
v 0.10022968 0.11958040 0.11192393
v 0.10334711 0.11344271 0.10951582
v 0.10334711 0.11649614 0.10957830
v 0.10334711 -0.18949340 0.06112666
v 0.10000275 -0.18943171 0.06482967
v 0.07211316 -0.18915412 0.09219909
v 0.06900768 -0.18906160 0.09514106
v 0.07269245 -0.18329403 0.09870777
v 0.07137859 -0.18236876 0.10075238
v 0.04847569 -0.18736526 0.11192393
v 0.06922268 -0.17996303 0.10445541
v 0.06399711 -0.17487400 0.11192393
v 0.09934582 0.11035846 0.11192393
v 0.10334711 0.11035846 0.10929432
v 0.10334711 -0.18921581 0.06159237
v 0.10304850 -0.18940087 0.06174572
v 0.07781051 -0.18252297 0.09473214
v 0.07473490 -0.18252297 0.09787289
v 0.07247148 -0.18030230 0.10169518
v 0.07126513 -0.17872933 0.10373979
v 0.06617094 -0.17404124 0.11086754
v 0.06647552 -0.17178974 0.11192393
v 0.10334711 0.10934065 0.10920345
v 0.06879866 -0.17049434 0.11033367
v 0.10334711 -0.17752647 0.07056027
v 0.09944137 -0.17962376 0.07346816
v 0.07859286 -0.18048735 0.09568061
v 0.07669972 -0.18150516 0.09677675
v 0.07559488 -0.18048735 0.09865098
v 0.07763733 -0.17891438 0.09772522
v 0.10334711 0.10641060 0.10892515
v 0.07809121 -0.17687876 0.09814550
v 0.08110113 -0.17669371 0.09502747
v 0.10305447 -0.17727972 0.07104303
v 0.10190783 -0.17499737 0.07273551
v 0.10334711 0.10422077 0.10864686
v 0.10334711 -0.17687876 0.07075338
v 0.09997885 -0.17805079 0.07396228
f 1 2 3
f 1 3 4
f 1 4 14
f 1 14 29
f 1 29 43
f 1 43 53
f 1 53 55
f 1 55 65
f 1 65 56
f 1 56 44
f 1 44 32
f 1 32 15
f 1 15 5
f 1 5 6
f 1 6 7
f 1 7 2
f 2 7 8
f 2 8 9
f 2 9 12
f 2 12 3
f 3 10 11
f 3 11 4
f 3 12 10
f 4 11 13
f 4 13 14
f 5 15 31
f 5 31 34
f 5 34 17
f 5 17 7
f 5 7 6
f 7 16 9
f 7 9 8
f 7 17 35
f 7 35 33
f 7 33 46
f 7 46 45
f 7 45 57
f 7 57 66
f 7 66 74
f 7 74 79
f 7 79 80
f 7 80 68
f 7 68 58
f 7 58 47
f 7 47 36
f 7 36 21
f 7 21 37
f 7 37 25
f 7 25 18
f 7 18 16
f 9 16 18
f 9 18 19
f 9 19 12
f 10 12 11
f 11 20 21
f 11 21 22
f 11 22 23
f 11 23 24
f 11 24 13
f 11 12 20
f 12 19 25
f 12 25 26
f 12 26 21
f 12 21 27
f 12 27 20
f 13 24 28
f 13 28 14
f 14 28 29
f 15 30 31
f 15 32 33
f 15 33 30
f 17 34 35
f 18 25 19
f 20 27 21
f 21 36 22
f 21 26 37
f 22 36 23
f 23 36 24
f 24 36 38
f 24 38 39
f 24 39 40
f 24 40 28
f 25 37 26
f 28 40 41
f 28 41 29
f 29 42 43
f 29 41 42
f 30 33 35
f 30 35 31
f 31 35 34
f 32 44 45
f 32 45 46
f 32 46 33
f 36 47 38
f 38 40 39
f 38 47 48
f 38 48 40
f 40 42 41
f 40 48 49
f 40 49 50
f 40 50 51
f 40 51 52
f 40 52 42
f 42 53 43
f 42 52 54
f 42 54 55
f 42 55 53
f 44 56 45
f 45 56 57
f 47 58 59
f 47 59 48
f 48 59 60
f 48 60 61
f 48 61 49
f 49 61 50
f 50 61 51
f 51 61 52
f 52 61 62
f 52 62 54
f 54 62 63
f 54 63 64
f 54 64 55
f 55 64 65
f 56 65 57
f 57 65 67
f 57 67 66
f 58 60 59
f 58 68 69
f 58 69 70
f 58 70 60
f 60 71 61
f 60 70 71
f 61 71 72
f 61 72 62
f 62 72 73
f 62 73 63
f 63 73 65
f 63 65 64
f 65 73 67
f 66 67 74
f 67 73 75
f 67 75 76
f 67 76 77
f 67 77 78
f 67 78 79
f 67 79 74
f 68 80 77
f 68 77 81
f 68 81 69
f 69 81 70
f 70 81 73
f 70 73 72
f 70 72 71
f 73 81 77
f 73 77 76
f 73 76 75
f 77 80 78
f 78 80 79

