v -0.16824051 -0.13824005 -0.00096925
v -0.16766822 -0.13880511 -0.00002834
v -0.16813646 -0.13747721 -0.00096925
v -0.16796304 -0.14033079 -0.00096925
v -0.16766822 -0.14002000 -0.00002834
v -0.16374890 -0.13818354 0.00497563
v -0.16751215 -0.13677087 -0.00022080
v -0.16777227 -0.13510394 -0.00096925
v -0.16759885 -0.14058506 -0.00096925
v -0.16149442 -0.14281707 0.00606624
v -0.16487614 -0.14038728 0.00340387
v -0.16222278 -0.13818354 0.00690023
v -0.10306870 0.10569840 0.01820192
v -0.16714796 -0.13202433 -0.00096925
v -0.16598603 -0.14066982 -0.00096925
v -0.16149442 -0.14281707 0.00583101
v -0.11612734 -0.15239491 0.04663257
v -0.14305970 -0.14592492 0.02442480
v -0.16196266 -0.14123488 0.00659015
v -0.16088743 -0.13818354 0.00843991
v -0.10010319 0.10609394 0.02136682
v -0.09673881 0.12392173 0.02105675
v -0.09731110 0.12392173 0.02040452
v -0.09894126 0.12392173 0.01842646
v -0.10289527 0.10730884 0.01798808
v -0.16676643 -0.13027263 -0.00096925
v -0.10606889 0.10242102 0.01507979
v -0.10693600 0.10422923 0.01326211
v -0.16544843 -0.14066982 -0.00096925
v -0.16130365 -0.14281707 0.00583101
v -0.11612734 -0.15239491 0.04526396
v -0.06939023 -0.16118166 0.08573407
v -0.05125034 -0.16443080 0.10434924
v -0.14305970 -0.14561413 0.02442480
v -0.15936133 -0.13818354 0.00995821
v -0.15910119 -0.14072633 0.00972298
v -0.05147579 -0.16270734 0.10455240
v -0.04772988 -0.15965600 0.10826260
v -0.09757123 0.10117788 0.02494872
v -0.09909734 0.10117788 0.02340904
v -0.09878518 0.10422923 0.02309896
v -0.09469244 0.12392173 0.02317381
v -0.09628791 0.12392173 0.02152721
v -0.10024192 0.12392173 0.01667293
v -0.10402252 0.10730884 0.01645909
v -0.16647161 -0.12897298 -0.00096925
v -0.10938124 0.10338164 0.00928460
v -0.10969340 0.10730884 0.00692162
v -0.10943327 0.10968210 0.00637631
v -0.10991885 0.11055796 0.00465486
v -0.10155993 0.12392173 0.01471625
v -0.10234033 0.12265034 0.01397849
v -0.10331148 0.12265034 0.01243881
v -0.10317275 0.12392173 0.01220358
v -0.10657181 0.10730884 0.01270611
v -0.15228573 -0.13391729 -0.00096925
v -0.15136659 -0.13386079 -0.00056295
v -0.08472070 -0.15197112 0.05813741
v -0.08676707 -0.15219714 0.05754934
v -0.11472263 -0.15239491 0.04526396
v -0.06939023 -0.16118166 0.08572338
v -0.05119831 -0.16440254 0.10260642
v -0.04384524 -0.16471332 0.10826260
v -0.04530198 -0.16451555 0.10826260
v -0.04682809 -0.16270734 0.10826260
v -0.04701885 -0.16239656 0.10826260
v -0.04750443 -0.16072962 0.10826260
v -0.04771254 -0.15657640 0.10826260
v -0.05156250 -0.15352504 0.10477693
v -0.03069989 0.06128431 0.08982919
v -0.07141926 0.10117788 0.04804394
v -0.09472712 0.09809828 0.02817777
v -0.09443230 0.10117788 0.02791047
v -0.09625323 0.09809828 0.02676640
v -0.09595841 0.10117788 0.02648840
v -0.09370393 0.12392173 0.02415749
v -0.11232941 0.10281656 0.00295480
v -0.10946795 0.11957074 0.00043143
v -0.10927718 0.12126593 -0.00010318
v -0.10941593 0.12185925 -0.00096925
v -0.10339820 0.12392173 0.01176520
v -0.10641574 0.12265034 0.00642977
v -0.10697068 0.12392173 0.00440894
v -0.15166142 -0.13349350 -0.00096925
v -0.14932023 -0.13298494 -0.00007111
v -0.14585179 -0.13377604 0.00268749
v -0.08584794 -0.15078447 0.05638389
v -0.05695591 -0.15519199 0.08259055
v -0.02981544 -0.16056009 0.10826260
v -0.03161902 -0.16180325 0.10826260
v -0.05702528 -0.15813032 0.08566991
v -0.06295629 -0.16140769 0.08857820
v -0.06475988 -0.16154896 0.08833228
v -0.06935555 -0.16118166 0.08572338
v -0.05097286 -0.16426127 0.10106674
v -0.05052197 -0.16440254 0.10260642
v -0.04358511 -0.16471332 0.10826260
v -0.04733101 -0.15352504 0.10826260
v -0.04972423 -0.15352504 0.10631661
v -0.01507461 0.04899415 0.10496940
v -0.00548439 0.12265034 0.10156926
v -0.01037488 0.12265034 0.09740999
v -0.01023615 0.12392173 0.09731376
v -0.06333782 0.11852536 0.05207491
v -0.07287601 0.10422923 0.04623696
v -0.06052839 0.12392173 0.05355044
v -0.09047829 0.12392173 0.02711924
v -0.09216048 0.12392173 0.02559026
v -0.10757766 0.12392173 0.00270887
v -0.10809793 0.12392173 0.00120127
v -0.10856616 0.12392173 -0.00028495
v -0.10875692 0.12392173 -0.00096925
v -0.10591281 0.12392173 0.00678261
v -0.10624231 0.12392173 0.00610901
v -0.10645042 0.12392173 0.00562785
v -0.15055151 -0.13199607 -0.00096925
v -0.15051683 -0.13191131 -0.00096925
v -0.14906009 -0.13095071 -0.00025288
v -0.08511956 -0.14736584 0.05533605
v -0.08697518 -0.14959784 0.05465174
v -0.10528849 0.12392173 -0.00096925
v -0.08395764 -0.14990863 0.05727134
v -0.02879225 -0.15818683 0.10826260
v -0.04436550 -0.16457206 0.10689400
v -0.05093818 -0.16426127 0.10106674
v -0.01092983 0.04899415 0.10826260
v -0.01169289 0.04899415 0.10768522
v -0.01321900 0.04899415 0.10650908
v -0.00364612 0.12265034 0.10309825
v -0.00536300 0.12392173 0.10145165
v -0.05796175 0.12392173 0.05578512
v -0.15004859 -0.12956630 -0.00096925
v 0.00887491 0.12392173 0.10821983
v 0.00750488 0.11228140 0.10826260
v 0.00726209 0.11036018 0.10826260
v -0.01072172 0.05009603 0.10826260
v -0.00212001 0.12265034 0.10434924
v -0.00241483 0.12392173 0.10387879
v 0.00890960 0.12392173 0.10826260
v 0.00890960 0.12389348 0.10826260
v 0.00308263 0.12265034 0.10826260
v 0.00297858 0.12265034 0.10818775
v 0.00336010 0.12392173 0.10826260
v -0.00196394 0.12392173 0.10424232
v 0.00311732 0.12281986 0.10826260
f 1 2 3
f 1 3 8
f 1 8 14
f 1 14 26
f 1 26 46
f 1 46 80
f 1 80 112
f 1 112 121
f 1 121 132
f 1 132 117
f 1 117 116
f 1 116 84
f 1 84 56
f 1 56 29
f 1 29 15
f 1 15 9
f 1 9 4
f 1 4 5
f 1 5 2
f 2 6 7
f 2 7 3
f 2 5 6
f 3 7 8
f 4 9 10
f 4 10 5
f 5 11 12
f 5 12 6
f 5 10 11
f 6 12 13
f 6 13 14
f 6 14 8
f 6 8 7
f 9 15 16
f 9 16 10
f 10 16 31
f 10 31 17
f 10 17 18
f 10 18 19
f 10 19 11
f 11 19 20
f 11 20 12
f 12 20 13
f 13 21 22
f 13 22 23
f 13 23 24
f 13 24 25
f 13 25 14
f 13 20 21
f 14 25 27
f 14 27 28
f 14 28 26
f 15 29 30
f 15 30 16
f 16 30 60
f 16 60 31
f 17 31 61
f 17 61 32
f 17 32 33
f 17 33 18
f 18 34 35
f 18 35 36
f 18 36 19
f 18 33 37
f 18 37 38
f 18 38 34
f 19 36 20
f 20 36 35
f 20 35 39
f 20 39 40
f 20 40 21
f 21 40 41
f 21 41 42
f 21 42 43
f 21 43 22
f 22 43 42
f 22 42 76
f 22 76 108
f 22 108 107
f 22 107 106
f 22 106 131
f 22 131 103
f 22 103 130
f 22 130 138
f 22 138 144
f 22 144 143
f 22 143 139
f 22 139 133
f 22 133 121
f 22 121 112
f 22 112 111
f 22 111 110
f 22 110 109
f 22 109 83
f 22 83 115
f 22 115 114
f 22 114 113
f 22 113 81
f 22 81 54
f 22 54 51
f 22 51 44
f 22 44 24
f 22 24 23
f 24 44 25
f 25 44 45
f 25 45 27
f 26 28 47
f 26 47 48
f 26 48 49
f 26 49 50
f 26 50 46
f 27 45 44
f 27 44 28
f 28 44 51
f 28 51 52
f 28 52 53
f 28 53 54
f 28 54 55
f 28 55 47
f 29 56 57
f 29 57 58
f 29 58 59
f 29 59 60
f 29 60 30
f 31 60 94
f 31 94 61
f 32 61 33
f 33 61 62
f 33 62 63
f 33 63 64
f 33 64 65
f 33 65 66
f 33 66 67
f 33 67 37
f 34 38 68
f 34 68 35
f 35 68 69
f 35 69 70
f 35 70 71
f 35 71 72
f 35 72 73
f 35 73 74
f 35 74 75
f 35 75 39
f 37 67 38
f 38 67 66
f 38 66 65
f 38 65 64
f 38 64 63
f 38 63 97
f 38 97 90
f 38 90 89
f 38 89 123
f 38 123 135
f 38 135 134
f 38 134 140
f 38 140 139
f 38 139 143
f 38 143 145
f 38 145 141
f 38 141 136
f 38 136 126
f 38 126 98
f 38 98 68
f 39 75 76
f 39 76 42
f 39 42 41
f 39 41 40
f 46 50 77
f 46 77 78
f 46 78 79
f 46 79 80
f 47 55 54
f 47 54 49
f 47 49 48
f 49 54 81
f 49 81 82
f 49 82 83
f 49 83 50
f 50 83 77
f 51 54 52
f 52 54 53
f 56 84 57
f 57 84 85
f 57 85 86
f 57 86 58
f 58 87 88
f 58 88 89
f 58 89 90
f 58 90 91
f 58 91 92
f 58 92 59
f 58 86 87
f 59 92 60
f 60 92 93
f 60 93 94
f 61 94 125
f 61 125 95
f 61 95 62
f 62 95 125
f 62 125 96
f 62 96 97
f 62 97 63
f 68 98 99
f 68 99 69
f 69 99 100
f 69 100 70
f 70 100 101
f 70 101 102
f 70 102 71
f 71 102 103
f 71 103 104
f 71 104 105
f 71 105 73
f 71 73 72
f 73 75 74
f 73 105 104
f 73 104 106
f 73 106 107
f 73 107 108
f 73 108 76
f 73 76 75
f 77 83 78
f 78 83 79
f 79 83 109
f 79 109 80
f 80 109 110
f 80 110 111
f 80 111 112
f 81 113 82
f 82 113 114
f 82 114 115
f 82 115 83
f 84 116 85
f 85 116 117
f 85 117 118
f 85 118 86
f 86 119 120
f 86 120 87
f 86 118 121
f 86 121 119
f 87 120 122
f 87 122 88
f 88 123 89
f 88 122 119
f 88 119 123
f 90 97 124
f 90 124 125
f 90 125 91
f 91 125 92
f 92 125 93
f 93 125 94
f 96 125 97
f 97 125 124
f 98 126 127
f 98 127 128
f 98 128 99
f 99 128 100
f 100 128 129
f 100 129 101
f 101 129 130
f 101 130 103
f 101 103 102
f 103 131 104
f 104 131 106
f 117 132 118
f 118 132 121
f 119 122 120
f 119 121 123
f 121 133 134
f 121 134 135
f 121 135 123
f 126 136 127
f 127 136 137
f 127 137 128
f 128 137 129
f 129 137 138
f 129 138 130
f 133 139 140
f 133 140 134
f 136 141 142
f 136 142 137
f 137 142 143
f 137 143 144
f 137 144 138
f 141 145 142
f 142 145 143

