v 0.03190282 0.14738419 0.06929275
v 0.03190282 0.12516539 0.12464636
v 0.03190282 0.15051081 0.06929275
v 0.13221092 0.12516539 0.06929275
v 0.03190282 0.12516539 0.12853454
v 0.03190282 0.15045870 0.09954096
v 0.03346132 0.15049592 0.06929275
v 0.13665060 0.12516539 0.06929275
v 0.03190282 0.13187024 0.12783268
v 0.03204636 0.12516539 0.12860286
v 0.03424057 0.13187024 0.12898795
v 0.03270257 0.13187024 0.12823019
v 0.04266879 0.15003437 0.06929275
v 0.04222790 0.15007408 0.06929275
v 0.03959280 0.15030236 0.06929275
v 0.03915190 0.15032222 0.06929275
v 0.03652706 0.15043637 0.06929275
v 0.03190282 0.15029492 0.10260306
v 0.07335693 0.14705169 0.06929275
v 0.13534843 0.12516539 0.07134863
v 0.13654807 0.12544579 0.06929275
v 0.13327726 0.12739124 0.07355979
v 0.03190282 0.13504399 0.12727988
v 0.03452766 0.13395216 0.12888236
v 0.03291789 0.12516539 0.12893826
v 0.03652706 0.13187024 0.12981403
v 0.03190282 0.14990286 0.10567757
v 0.09482736 0.14126745 0.09647266
v 0.07598178 0.14667202 0.06929275
v 0.13353359 0.12516539 0.07388898
v 0.13350283 0.12573364 0.07385172
v 0.13640452 0.12583786 0.06929275
v 0.10205594 0.12573364 0.10973965
v 0.13606617 0.12666170 0.06929275
v 0.13479475 0.12895951 0.06929275
v 0.13352334 0.13068659 0.06929275
v 0.13314396 0.13029949 0.07034864
v 0.13256978 0.12963446 0.07192627
v 0.12758667 0.13080818 0.07718089
v 0.12674590 0.12979079 0.07922435
v 0.09295100 0.13296207 0.11602532
v 0.09365848 0.13091488 0.11684518
v 0.09576041 0.12880070 0.11574581
v 0.03190282 0.13767432 0.12623642
v 0.03959280 0.13493978 0.13002520
v 0.03660909 0.13495963 0.12919913
v 0.03563502 0.13599687 0.12842274
v 0.03596312 0.12516539 0.12988236
v 0.04370437 0.12516539 0.13185750
v 0.04398121 0.12880070 0.13180159
v 0.04414526 0.13072133 0.13177053
v 0.04435033 0.13276852 0.13168358
v 0.03190282 0.14888050 0.11070858
v 0.03346132 0.14887554 0.11069616
v 0.03521464 0.14877876 0.11039182
v 0.07642267 0.14053295 0.11795076
v 0.08163136 0.13975874 0.11680791
v 0.09813918 0.14030217 0.09668384
v 0.09789310 0.14099449 0.09340436
v 0.04266879 0.14701446 0.11488247
v 0.05494200 0.14384070 0.12101906
v 0.07643293 0.14659013 0.06929275
v 0.13328751 0.12516539 0.07417470
v 0.10786957 0.12516539 0.10324902
v 0.10052820 0.12573364 0.11144149
v 0.10210720 0.12516539 0.10980176
v 0.13201610 0.13206627 0.06929275
v 0.12373142 0.13318044 0.07916845
v 0.13035506 0.13056500 0.07378961
v 0.12470549 0.13113325 0.08037341
v 0.12092202 0.13341370 0.08267774
v 0.09380202 0.13390750 0.11398185
v 0.09090034 0.13396954 0.11710605
v 0.08985451 0.13297696 0.11915572
v 0.09180263 0.13194716 0.11800046
v 0.09065427 0.13092977 0.11984516
v 0.09273569 0.12880070 0.11892591
v 0.09423266 0.12880070 0.11739176
v 0.09616028 0.12573364 0.11623028
v 0.03190282 0.13888030 0.12562772
v 0.03330752 0.13821280 0.12649728
v 0.04266879 0.13493978 0.13070222
v 0.03959280 0.13711600 0.12906869
v 0.03768568 0.13666189 0.12879541
v 0.04529363 0.12516539 0.13211836
v 0.04573452 0.12880070 0.13208731
v 0.04880027 0.12880070 0.13252830
v 0.04551921 0.13179580 0.13191339
v 0.04639074 0.13362461 0.13185750
v 0.03190282 0.14621544 0.11765884
v 0.03371765 0.14625017 0.11809983
v 0.03652706 0.14650329 0.11795076
v 0.03959280 0.14662984 0.11795076
v 0.04266879 0.14644372 0.11795076
v 0.07642267 0.13989025 0.12001907
v 0.07925258 0.13996965 0.11787623
v 0.05822306 0.14316575 0.12124266
v 0.05734127 0.14284316 0.12292588
v 0.07807346 0.13959000 0.11956566
v 0.08012412 0.13914085 0.11885759
v 0.08261567 0.13862968 0.11787623
v 0.08367176 0.13933193 0.11581414
v 0.09728816 0.13995477 0.09891364
v 0.09933881 0.13944856 0.09784533
v 0.10280443 0.13968428 0.09231120
v 0.11630804 0.13770907 0.07806286
v 0.12409030 0.13646090 0.06929275
v 0.04266879 0.14583577 0.11982031
v 0.05494200 0.14306152 0.12327992
v 0.09615003 0.12516539 0.11621786
v 0.13197509 0.13210349 0.06929275
v 0.13194433 0.13213079 0.06929275
v 0.13029355 0.13356258 0.06929275
v 0.12149621 0.13383801 0.08113117
v 0.11748716 0.13625246 0.08213737
v 0.09362772 0.13674131 0.11067131
v 0.08953666 0.13601424 0.11578308
v 0.08867537 0.13494970 0.11793213
v 0.08781410 0.13388516 0.12006255
v 0.09265366 0.13595221 0.11272099
v 0.08461506 0.13382809 0.12296936
v 0.08665548 0.13269656 0.12210601
v 0.08735270 0.13065185 0.12272092
v 0.08938286 0.12880070 0.12186998
v 0.09119769 0.12880070 0.12033584
v 0.09307404 0.12573364 0.11926131
v 0.09153605 0.12573364 0.12068987
v 0.09587319 0.12516539 0.11649736
v 0.03190282 0.13921282 0.12543518
v 0.03218991 0.13937659 0.12548487
v 0.03424057 0.13991010 0.12586996
v 0.04551921 0.13476360 0.13121775
v 0.04266879 0.13761229 0.12944137
v 0.03959280 0.13864953 0.12812461
v 0.04573452 0.12516539 0.13218669
v 0.04880027 0.13187024 0.13229849
v 0.04823634 0.12516539 0.13252830
v 0.04880027 0.12573364 0.13257798
v 0.05187626 0.12880070 0.13272705
v 0.04880027 0.13387772 0.13197550
v 0.03190282 0.14534941 0.11906877
v 0.03286663 0.14544867 0.11922404
v 0.03491729 0.14568937 0.11950355
v 0.03959280 0.14585811 0.11985759
v 0.07390036 0.13925003 0.12216192
v 0.07642267 0.13888278 0.12155322
v 0.07306984 0.14015576 0.12109360
v 0.05494200 0.14202428 0.12481407
v 0.07028094 0.13978603 0.12280166
v 0.07185995 0.13955277 0.12256564
v 0.07881169 0.13690755 0.12311221
v 0.07946791 0.13802421 0.12100043
v 0.08255415 0.13702914 0.12029236
v 0.08427671 0.13658745 0.11965883
v 0.08542508 0.13715819 0.11782033
v 0.08858310 0.13725248 0.11480794
v 0.09471457 0.13715819 0.10851605
v 0.08658370 0.13933689 0.11255950
v 0.11815363 0.13664453 0.08009390
v 0.11640032 0.13711352 0.08112496
v 0.12576159 0.13600431 0.06929275
v 0.04266879 0.14509879 0.12135446
v 0.05187626 0.14323771 0.12357184
v 0.05187626 0.14221535 0.12511220
v 0.12863251 0.13467674 0.06929275
v 0.12847872 0.13477104 0.06929275
v 0.09060299 0.13673634 0.11373961
v 0.08748599 0.13668919 0.11670853
v 0.08630686 0.13592987 0.11875821
v 0.08546609 0.13488022 0.12088243
v 0.08255415 0.13593235 0.12182651
v 0.08228756 0.13422016 0.12403147
v 0.08107768 0.13344099 0.12565257
v 0.08325137 0.13187024 0.12506873
v 0.08563014 0.13175361 0.12343519
v 0.08393835 0.13003397 0.12549109
v 0.08784485 0.12880070 0.12306874
v 0.08984425 0.12573364 0.12222402
v 0.09122845 0.12516539 0.12097559
v 0.09277670 0.12516539 0.11952218
v 0.09306379 0.12516539 0.11924889
v 0.03190282 0.14106893 0.12408115
v 0.03190282 0.14281338 0.12278302
v 0.03652706 0.14034683 0.12621157
v 0.04880027 0.13541125 0.13119912
v 0.04266879 0.13914333 0.12835442
v 0.04573452 0.13785299 0.12960906
v 0.04573452 0.13938652 0.12852833
v 0.03959280 0.14074138 0.12659046
v 0.05187626 0.13187024 0.13249103
v 0.04880027 0.12516539 0.13258419
v 0.05187626 0.12573364 0.13274569
v 0.05494200 0.12880070 0.13270221
v 0.05494200 0.13187024 0.13251588
v 0.05187626 0.13406879 0.13206246
v 0.03190282 0.14307642 0.12239794
v 0.03371765 0.14461243 0.12072714
v 0.03346132 0.14298460 0.12301284
v 0.03652706 0.14326253 0.12341035
v 0.03959280 0.14351315 0.12375196
v 0.03959280 0.14504668 0.12139173
v 0.07642267 0.13734926 0.12370849
v 0.05494200 0.14049076 0.12673330
v 0.06107347 0.13705397 0.12932335
v 0.06414946 0.13667927 0.12892583
v 0.06567721 0.13647330 0.12868981
v 0.07475138 0.13643113 0.12557804
v 0.07642267 0.13613087 0.12524264
v 0.07948841 0.13388764 0.12605008
v 0.07969348 0.13555766 0.12411221
v 0.12824289 0.13489263 0.06929275
v 0.04266879 0.14356526 0.12391345
v 0.04573452 0.14347841 0.12390103
v 0.04880027 0.14337171 0.12378923
v 0.04880027 0.14233694 0.12532338
v 0.05187626 0.14068183 0.12696933
v 0.08171338 0.13187024 0.12595691
v 0.07493594 0.13344347 0.12871466
v 0.08276947 0.12892725 0.12637307
v 0.08436898 0.12798927 0.12580164
v 0.08547634 0.12892725 0.12472711
v 0.08831651 0.12573364 0.12337309
v 0.08956741 0.12516539 0.12243520
v 0.08984425 0.12516539 0.12222402
v 0.03652706 0.14188036 0.12494450
v 0.05187626 0.13560232 0.13126122
v 0.03959280 0.14227739 0.12528612
v 0.04880027 0.13794480 0.12966497
v 0.04880027 0.13947833 0.12862149
v 0.04266879 0.14243124 0.12544760
v 0.05130207 0.12516539 0.13271463
v 0.05187626 0.12516539 0.13272084
v 0.05436781 0.12516539 0.13266494
v 0.05494200 0.12573364 0.13267115
v 0.05800774 0.12880070 0.13253451
v 0.05800774 0.13187024 0.13239165
v 0.05494200 0.13406879 0.13208731
v 0.05800774 0.13391991 0.13203761
v 0.05187626 0.13935922 0.12850348
v 0.05494200 0.13915326 0.12826745
v 0.06107347 0.13519537 0.13085750
v 0.05800774 0.13736911 0.12954074
v 0.06398541 0.13467426 0.13061527
v 0.07028094 0.13420279 0.12940409
v 0.07335693 0.13374124 0.12896932
v 0.07358251 0.13548818 0.12700660
v 0.07614584 0.13438146 0.12717430
v 0.04573452 0.14241636 0.12543518
v 0.06284729 0.13347324 0.13179538
v 0.07335693 0.13187024 0.12960906
v 0.07539735 0.13187024 0.12890720
v 0.07813497 0.12757735 0.12875814
v 0.08255415 0.12573364 0.12684511
v 0.08451253 0.12573364 0.12587617
v 0.08605052 0.12573364 0.12490724
v 0.08831651 0.12516539 0.12336687
v 0.05187626 0.13782818 0.12972707
v 0.05494200 0.13560232 0.13121154
v 0.05494200 0.12516539 0.13264009
v 0.05800774 0.12573364 0.13246618
v 0.06414946 0.12516539 0.13201898
v 0.06414946 0.12573364 0.13203140
v 0.06107347 0.12880070 0.13228606
v 0.06107347 0.13187024 0.13213078
v 0.06107347 0.13366184 0.13189476
v 0.05800774 0.13545343 0.13107489
v 0.05494200 0.13761973 0.12967739
v 0.06398541 0.13156750 0.13185128
v 0.06568747 0.13034416 0.13175811
v 0.06489796 0.13238885 0.13158420
v 0.07335693 0.12880070 0.13012459
v 0.07649444 0.12868159 0.12914944
v 0.07642267 0.12573364 0.12941031
v 0.07817599 0.12573364 0.12877056
v 0.07970374 0.12573364 0.12812461
v 0.08201072 0.12516539 0.12707492
v 0.08255415 0.12516539 0.12682648
v 0.08415367 0.12516539 0.12603765
v 0.08449202 0.12516539 0.12586375
v 0.08603002 0.12516539 0.12490102
v 0.05744380 0.12516539 0.13247239
v 0.06624114 0.12516539 0.13182023
v 0.06628215 0.12573364 0.13182644
v 0.06414946 0.12880070 0.13201277
v 0.06605658 0.12880070 0.13180780
v 0.07335693 0.12573364 0.13026123
v 0.07335693 0.12516539 0.13024881
v 0.07584849 0.12516539 0.12955317
v 0.07642267 0.12516539 0.12939167
v 0.07784788 0.12516539 0.12887615
v 0.07814523 0.12516539 0.12876435
v 0.07939613 0.12516539 0.12823640
v 0.07968322 0.12516539 0.12811218
f 1 2 5
f 1 5 9
f 1 9 23
f 1 23 44
f 1 44 80
f 1 80 129
f 1 129 182
f 1 182 183
f 1 183 196
f 1 196 141
f 1 141 90
f 1 90 53
f 1 53 27
f 1 27 18
f 1 18 6
f 1 6 3
f 1 3 7
f 1 7 17
f 1 17 16
f 1 16 15
f 1 15 14
f 1 14 13
f 1 13 19
f 1 19 29
f 1 29 62
f 1 62 107
f 1 107 161
f 1 161 211
f 1 211 166
f 1 166 165
f 1 165 113
f 1 113 112
f 1 112 111
f 1 111 67
f 1 67 36
f 1 36 35
f 1 35 34
f 1 34 32
f 1 32 21
f 1 21 8
f 1 8 4
f 1 4 2
f 2 4 8
f 2 8 20
f 2 20 30
f 2 30 63
f 2 63 64
f 2 64 66
f 2 66 110
f 2 110 128
f 2 128 181
f 2 181 180
f 2 180 179
f 2 179 224
f 2 224 223
f 2 223 256
f 2 256 280
f 2 280 279
f 2 279 278
f 2 278 277
f 2 277 276
f 2 276 293
f 2 293 292
f 2 292 291
f 2 291 290
f 2 290 289
f 2 289 288
f 2 288 287
f 2 287 282
f 2 282 261
f 2 261 281
f 2 281 259
f 2 259 233
f 2 233 232
f 2 232 231
f 2 231 191
f 2 191 137
f 2 137 135
f 2 135 85
f 2 85 49
f 2 49 48
f 2 48 25
f 2 25 10
f 2 10 5
f 3 6 7
f 5 10 11
f 5 11 12
f 5 12 9
f 6 13 14
f 6 14 15
f 6 15 16
f 6 16 17
f 6 17 7
f 6 18 19
f 6 19 13
f 8 21 22
f 8 22 20
f 9 12 24
f 9 24 23
f 10 25 11
f 11 26 24
f 11 24 12
f 11 25 26
f 18 27 28
f 18 28 29
f 18 29 19
f 20 22 31
f 20 31 30
f 21 32 22
f 22 33 31
f 22 32 34
f 22 34 35
f 22 35 36
f 22 36 37
f 22 37 38
f 22 38 39
f 22 39 40
f 22 40 41
f 22 41 42
f 22 42 43
f 22 43 33
f 23 24 44
f 24 26 45
f 24 45 46
f 24 46 47
f 24 47 44
f 25 48 26
f 26 48 49
f 26 49 50
f 26 50 51
f 26 51 52
f 26 52 45
f 27 53 54
f 27 54 55
f 27 55 28
f 28 56 57
f 28 57 58
f 28 58 59
f 28 59 29
f 28 55 60
f 28 60 61
f 28 61 56
f 29 59 62
f 30 31 63
f 31 33 64
f 31 64 63
f 33 65 66
f 33 66 64
f 33 43 65
f 36 67 68
f 36 68 69
f 36 69 37
f 37 69 38
f 38 69 39
f 39 70 40
f 39 69 71
f 39 71 70
f 40 70 41
f 41 72 73
f 41 73 74
f 41 74 75
f 41 75 42
f 41 70 71
f 41 71 72
f 42 75 76
f 42 76 77
f 42 77 78
f 42 78 43
f 43 78 79
f 43 79 65
f 44 47 81
f 44 81 80
f 45 52 82
f 45 82 83
f 45 83 84
f 45 84 46
f 46 84 47
f 47 84 81
f 49 85 50
f 50 85 86
f 50 86 51
f 51 86 87
f 51 87 88
f 51 88 52
f 52 88 89
f 52 89 82
f 53 90 91
f 53 91 92
f 53 92 93
f 53 93 54
f 54 93 94
f 54 94 55
f 55 94 60
f 56 95 96
f 56 96 57
f 56 61 97
f 56 97 98
f 56 98 95
f 57 96 95
f 57 95 99
f 57 99 100
f 57 100 101
f 57 101 102
f 57 102 103
f 57 103 58
f 58 104 105
f 58 105 59
f 58 103 104
f 59 105 106
f 59 106 107
f 59 107 62
f 60 94 61
f 61 94 108
f 61 108 109
f 61 109 98
f 61 98 97
f 65 79 66
f 66 79 110
f 67 111 68
f 68 111 112
f 68 112 113
f 68 113 114
f 68 114 71
f 68 71 69
f 71 114 115
f 71 115 116
f 71 116 72
f 72 116 73
f 73 117 118
f 73 118 119
f 73 119 74
f 73 116 120
f 73 120 117
f 74 76 75
f 74 119 121
f 74 121 122
f 74 122 76
f 76 122 123
f 76 123 124
f 76 124 125
f 76 125 77
f 77 126 79
f 77 79 78
f 77 125 127
f 77 127 126
f 79 126 128
f 79 128 110
f 80 81 130
f 80 130 129
f 81 131 130
f 81 84 131
f 82 89 132
f 82 132 133
f 82 133 83
f 83 134 131
f 83 131 84
f 83 133 134
f 85 135 86
f 86 135 87
f 87 136 88
f 87 135 137
f 87 137 138
f 87 138 139
f 87 139 136
f 88 136 89
f 89 136 140
f 89 140 132
f 90 141 142
f 90 142 143
f 90 143 91
f 91 143 144
f 91 144 92
f 92 144 93
f 93 144 108
f 93 108 94
f 95 145 146
f 95 146 99
f 95 98 147
f 95 147 145
f 98 109 148
f 98 148 149
f 98 149 150
f 98 150 147
f 99 146 151
f 99 151 152
f 99 152 100
f 100 152 101
f 101 153 154
f 101 154 155
f 101 155 102
f 101 152 153
f 102 155 156
f 102 156 116
f 102 116 157
f 102 157 158
f 102 158 103
f 103 158 104
f 104 115 159
f 104 159 160
f 104 160 105
f 104 158 157
f 104 157 115
f 105 160 106
f 106 160 161
f 106 161 107
f 108 144 162
f 108 162 163
f 108 163 109
f 109 163 164
f 109 164 148
f 113 165 115
f 113 115 114
f 115 165 166
f 115 166 159
f 115 157 116
f 116 156 167
f 116 167 120
f 117 120 167
f 117 167 168
f 117 168 169
f 117 169 170
f 117 170 118
f 118 170 119
f 119 170 121
f 121 170 154
f 121 154 171
f 121 171 172
f 121 172 173
f 121 173 174
f 121 174 175
f 121 175 122
f 122 175 123
f 123 175 176
f 123 176 177
f 123 177 124
f 124 178 125
f 124 177 178
f 125 178 127
f 126 127 179
f 126 179 180
f 126 180 181
f 126 181 128
f 127 178 179
f 129 130 182
f 130 183 182
f 130 131 183
f 131 184 183
f 131 134 184
f 132 140 185
f 132 185 133
f 133 186 134
f 133 185 187
f 133 187 188
f 133 188 186
f 134 186 189
f 134 189 184
f 136 139 190
f 136 190 140
f 137 191 138
f 138 191 139
f 139 191 192
f 139 192 193
f 139 193 194
f 139 194 190
f 140 190 195
f 140 195 185
f 141 196 197
f 141 197 142
f 142 197 143
f 143 197 198
f 143 198 199
f 143 199 200
f 143 200 201
f 143 201 144
f 144 201 162
f 145 202 146
f 145 147 150
f 145 150 202
f 146 202 151
f 148 164 203
f 148 203 204
f 148 204 205
f 148 205 149
f 149 205 206
f 149 206 150
f 150 206 207
f 150 207 202
f 151 202 208
f 151 208 209
f 151 209 210
f 151 210 172
f 151 172 171
f 151 171 153
f 151 153 152
f 153 171 154
f 154 170 169
f 154 169 168
f 154 168 155
f 155 168 156
f 156 168 167
f 159 166 211
f 159 211 161
f 159 161 160
f 162 212 213
f 162 213 214
f 162 214 163
f 162 201 212
f 163 214 164
f 164 214 215
f 164 215 216
f 164 216 203
f 172 210 173
f 173 217 176
f 173 176 174
f 173 210 209
f 173 209 218
f 173 218 217
f 174 176 175
f 176 217 218
f 176 218 219
f 176 219 220
f 176 220 221
f 176 221 177
f 177 222 178
f 177 221 220
f 177 220 222
f 178 222 223
f 178 223 224
f 178 224 179
f 183 184 225
f 183 225 198
f 183 198 197
f 183 197 196
f 184 189 225
f 185 195 226
f 185 226 187
f 186 227 189
f 186 188 227
f 187 226 228
f 187 228 229
f 187 229 188
f 188 230 227
f 188 229 230
f 189 227 225
f 190 194 237
f 190 237 195
f 191 231 192
f 192 231 232
f 192 232 233
f 192 233 234
f 192 234 193
f 193 234 235
f 193 235 236
f 193 236 194
f 194 236 238
f 194 238 237
f 195 237 226
f 198 225 227
f 198 227 199
f 199 227 200
f 200 227 230
f 200 230 212
f 200 212 201
f 202 207 208
f 203 216 239
f 203 239 240
f 203 240 204
f 204 241 205
f 204 240 242
f 204 242 241
f 205 241 243
f 205 243 244
f 205 244 206
f 206 244 245
f 206 245 246
f 206 246 207
f 207 246 245
f 207 245 218
f 207 218 208
f 208 218 247
f 208 247 209
f 209 247 218
f 212 230 248
f 212 248 213
f 213 248 215
f 213 215 214
f 215 248 229
f 215 229 239
f 215 239 216
f 218 245 249
f 218 249 250
f 218 250 251
f 218 251 219
f 219 251 252
f 219 252 220
f 220 253 254
f 220 254 255
f 220 255 222
f 220 252 253
f 222 255 256
f 222 256 223
f 226 257 229
f 226 229 228
f 226 237 258
f 226 258 257
f 229 248 230
f 229 257 239
f 233 259 234
f 234 259 260
f 234 260 235
f 235 260 261
f 235 261 262
f 235 262 263
f 235 263 236
f 236 263 264
f 236 264 249
f 236 249 265
f 236 265 238
f 237 238 258
f 238 266 258
f 238 265 266
f 239 257 267
f 239 267 242
f 239 242 240
f 241 265 249
f 241 249 243
f 241 242 266
f 241 266 265
f 242 267 266
f 243 249 244
f 244 249 245
f 249 264 268
f 249 268 269
f 249 269 270
f 249 270 250
f 250 271 272
f 250 272 251
f 250 270 269
f 250 269 271
f 251 272 252
f 252 272 271
f 252 271 273
f 252 273 274
f 252 274 275
f 252 275 253
f 253 275 276
f 253 276 277
f 253 277 278
f 253 278 254
f 254 278 279
f 254 279 280
f 254 280 255
f 255 280 256
f 257 258 267
f 258 266 267
f 259 281 260
f 260 281 261
f 261 282 262
f 262 282 283
f 262 283 284
f 262 284 263
f 263 284 264
f 264 284 269
f 264 269 268
f 269 284 285
f 269 285 271
f 271 285 286
f 271 286 273
f 273 286 287
f 273 287 288
f 273 288 289
f 273 289 290
f 273 290 274
f 274 290 291
f 274 291 292
f 274 292 275
f 275 292 293
f 275 293 276
f 282 287 283
f 283 285 284
f 283 287 286
f 283 286 285

