v -0.07107289 -0.13800052 -0.16476004
v -0.07107289 -0.13510879 -0.16475217
v -0.07107289 -0.13818262 -0.16475217
v -0.07395764 -0.13818262 -0.16408356
v -0.07395764 -0.13510879 -0.16416222
v -0.07107289 -0.13493397 -0.16473645
v -0.07107289 -0.14076114 -0.16378465
v -0.07395764 -0.14059361 -0.16339922
v -0.07593279 -0.14008373 -0.16301378
v -0.07640059 -0.13818262 -0.16319470
v -0.07669513 -0.13510879 -0.16327336
v -0.07653053 -0.13204223 -0.16316324
v -0.07395764 -0.13204223 -0.16386331
v -0.07107289 -0.13204223 -0.16441393
v -0.07107289 -0.14076114 -0.16209345
v -0.15368252 -0.14076114 -0.08457358
v -0.15063317 -0.14067373 -0.09059897
v -0.09402963 -0.13977052 -0.15070342
v -0.08782698 -0.13974138 -0.15673667
v -0.08199684 -0.13979237 -0.15988309
v -0.08307970 -0.13800780 -0.16018200
v -0.08477763 -0.13686422 -0.15981229
v -0.08316633 -0.13510879 -0.16074836
v -0.08316633 -0.13204223 -0.16081129
v -0.07603674 -0.12971137 -0.16299019
v -0.08336558 -0.12888100 -0.16038652
v -0.07107289 -0.13185285 -0.16437461
v -0.07107289 -0.13389236 -0.14414313
v -0.15375182 -0.14073929 -0.08440052
v -0.15616011 -0.14046249 -0.08440052
v -0.15609948 -0.14045522 -0.08458931
v -0.14958496 -0.14038965 -0.09285652
v -0.10951028 -0.13978508 -0.13540397
v -0.12186361 -0.13735224 -0.12636588
v -0.11878826 -0.13731582 -0.12940217
v -0.09382173 -0.13639804 -0.15355093
v -0.08838141 -0.13818262 -0.15712998
v -0.08908310 -0.13510879 -0.15757834
v -0.08651888 -0.13510879 -0.15911222
v -0.08498554 -0.13510879 -0.15990669
v -0.08513281 -0.13204223 -0.15997749
v -0.08497688 -0.12984248 -0.15989883
v -0.07491056 -0.12766458 -0.16269128
v -0.07391433 -0.12880087 -0.16317110
v -0.08009966 -0.12897569 -0.16148776
v -0.08248196 -0.12694347 -0.16014268
v -0.08452641 -0.12779569 -0.15969431
v -0.07107289 -0.12896113 -0.16357227
v -0.07107289 -0.06635547 -0.13829867
v -0.08082734 -0.13146680 -0.13147881
v -0.08124316 -0.13372483 -0.13444431
v -0.15175935 -0.14046978 -0.08558043
v -0.13344593 -0.13070199 -0.08901789
v -0.14421395 -0.12838569 -0.08440052
v -0.15636802 -0.14036780 -0.08440052
v -0.15538045 -0.13988706 -0.08624118
v -0.13708436 -0.13703904 -0.11096416
v -0.13419094 -0.13709003 -0.11415777
v -0.13113293 -0.13722113 -0.11718620
v -0.13432088 -0.13510879 -0.11428363
v -0.09770271 -0.12897569 -0.15128551
v -0.09410760 -0.13435125 -0.15381837
v -0.09061644 -0.13510879 -0.15648497
v -0.08912642 -0.13204223 -0.15765700
v -0.08666615 -0.13204223 -0.15919088
v -0.09433283 -0.13204223 -0.15399142
v -0.08609440 -0.12888100 -0.15916728
v -0.07107289 -0.06635547 -0.14212156
v -0.07285745 -0.12740964 -0.16287218
v -0.08838141 -0.12646272 -0.15717717
v -0.07258024 -0.06635547 -0.14144508
v -0.12337962 -0.06635547 -0.08440052
v -0.15758083 -0.13861966 -0.08440052
v -0.15772811 -0.13832101 -0.08440052
v -0.15901888 -0.13510879 -0.08440052
v -0.15956464 -0.13204223 -0.08440052
v -0.13715366 -0.13510879 -0.11105855
v -0.13585422 -0.13510879 -0.11259243
v -0.13406966 -0.13204223 -0.11401619
v -0.11263759 -0.12590186 -0.13559274
v -0.09766806 -0.12590186 -0.15118325
v -0.09591815 -0.12897569 -0.15282725
v -0.08884055 -0.12897569 -0.15753114
v -0.09438481 -0.12897569 -0.15395997
v -0.09418557 -0.12679779 -0.15377905
v -0.09370044 -0.12475100 -0.15350373
v -0.10057881 -0.10506245 -0.14169680
v -0.07514447 -0.06635547 -0.13991121
v -0.12817022 -0.06635547 -0.08440052
v -0.15950400 -0.12897569 -0.08440052
v -0.13702372 -0.13314212 -0.11089337
v -0.15901021 -0.12659383 -0.08440052
v -0.13384442 -0.13038149 -0.11380380
v -0.11244701 -0.12421198 -0.13534889
v -0.10308239 -0.10915603 -0.14132709
v -0.10272721 -0.10749528 -0.14106752
v -0.09732154 -0.12413185 -0.15080568
v -0.09530309 -0.12582902 -0.15281938
v -0.10159237 -0.10418837 -0.14063488
v -0.07672112 -0.06635547 -0.13890436
v -0.14955030 -0.12070840 -0.09274640
v -0.15823056 -0.12461988 -0.08440052
v -0.09581419 -0.06635547 -0.12172491
v -0.10326431 -0.10268787 -0.13851892
v -0.15879364 -0.12590186 -0.08440052
v -0.10414793 -0.10749528 -0.13953364
v -0.10368013 -0.10442145 -0.13896727
v -0.08171096 -0.06635547 -0.13527024
v -0.07998704 -0.06635547 -0.13656027
v -0.07810719 -0.06635547 -0.13794469
v -0.09430685 -0.06635547 -0.12336891
v -0.09284281 -0.06635547 -0.12493425
v -0.09132680 -0.06635547 -0.12652320
v -0.08983678 -0.06635547 -0.12807280
v -0.08831211 -0.06635547 -0.12962242
v -0.08757576 -0.06635547 -0.13033036
v -0.08671812 -0.06635547 -0.13113269
v -0.08514148 -0.06635547 -0.13252498
v -0.08333959 -0.06635547 -0.13400381
v -0.08249062 -0.06635547 -0.13466455
f 1 2 6
f 1 6 14
f 1 14 27
f 1 27 48
f 1 48 68
f 1 68 49
f 1 49 28
f 1 28 15
f 1 15 7
f 1 7 3
f 1 3 4
f 1 4 5
f 1 5 2
f 2 5 6
f 3 7 8
f 3 8 4
f 4 8 9
f 4 9 10
f 4 10 11
f 4 11 5
f 5 11 12
f 5 12 13
f 5 13 6
f 6 13 14
f 7 15 16
f 7 16 17
f 7 17 8
f 8 18 19
f 8 19 9
f 8 17 18
f 9 19 20
f 9 20 21
f 9 21 22
f 9 22 10
f 10 22 23
f 10 23 11
f 11 23 24
f 11 24 12
f 12 25 13
f 12 24 26
f 12 26 25
f 13 25 14
f 14 25 27
f 15 28 29
f 15 29 16
f 16 29 30
f 16 30 17
f 17 30 31
f 17 31 32
f 17 32 33
f 17 33 18
f 18 33 34
f 18 34 35
f 18 35 19
f 19 36 37
f 19 37 22
f 19 22 21
f 19 21 20
f 19 35 36
f 22 37 38
f 22 38 39
f 22 39 40
f 22 40 23
f 23 40 41
f 23 41 24
f 24 41 42
f 24 42 26
f 25 43 44
f 25 44 27
f 25 26 45
f 25 45 46
f 25 46 43
f 26 42 47
f 26 47 46
f 26 46 45
f 27 44 48
f 28 49 50
f 28 50 51
f 28 51 52
f 28 52 29
f 29 52 53
f 29 53 54
f 29 54 72
f 29 72 89
f 29 89 102
f 29 102 105
f 29 105 92
f 29 92 90
f 29 90 76
f 29 76 75
f 29 75 74
f 29 74 73
f 29 73 55
f 29 55 30
f 30 55 31
f 31 55 32
f 32 55 56
f 32 56 57
f 32 57 58
f 32 58 59
f 32 59 33
f 33 59 34
f 34 59 60
f 34 60 61
f 34 61 35
f 35 61 62
f 35 62 36
f 36 62 63
f 36 63 37
f 37 63 38
f 38 64 65
f 38 65 39
f 38 63 66
f 38 66 64
f 39 65 40
f 40 65 41
f 41 65 42
f 42 65 67
f 42 67 47
f 43 68 69
f 43 69 44
f 43 46 68
f 44 69 48
f 46 47 68
f 47 67 70
f 47 70 71
f 47 71 68
f 48 69 68
f 49 72 50
f 49 68 71
f 49 71 88
f 49 88 100
f 49 100 110
f 49 110 109
f 49 109 108
f 49 108 120
f 49 120 119
f 49 119 118
f 49 118 117
f 49 117 116
f 49 116 115
f 49 115 114
f 49 114 113
f 49 113 112
f 49 112 111
f 49 111 103
f 49 103 89
f 49 89 72
f 50 72 53
f 50 53 52
f 50 52 51
f 53 72 54
f 55 73 56
f 56 73 57
f 57 73 74
f 57 74 75
f 57 75 76
f 57 76 77
f 57 77 78
f 57 78 58
f 58 78 60
f 58 60 59
f 60 78 79
f 60 79 80
f 60 80 81
f 60 81 61
f 61 81 82
f 61 82 66
f 61 66 62
f 62 66 63
f 64 83 65
f 64 66 84
f 64 84 83
f 65 83 67
f 66 82 84
f 67 83 85
f 67 85 70
f 70 85 86
f 70 86 87
f 70 87 71
f 71 87 88
f 76 90 77
f 77 90 78
f 78 90 91
f 78 91 79
f 79 91 90
f 79 90 92
f 79 92 93
f 79 93 94
f 79 94 80
f 80 94 95
f 80 95 81
f 81 95 96
f 81 96 97
f 81 97 98
f 81 98 85
f 81 85 84
f 81 84 82
f 83 84 85
f 85 98 86
f 86 98 87
f 87 98 97
f 87 97 96
f 87 96 99
f 87 99 100
f 87 100 88
f 89 101 102
f 89 103 104
f 89 104 101
f 92 105 95
f 92 95 93
f 93 95 94
f 95 106 107
f 95 107 96
f 95 105 106
f 96 107 99
f 99 107 104
f 99 104 108
f 99 108 109
f 99 109 110
f 99 110 100
f 101 105 102
f 101 104 107
f 101 107 105
f 103 111 104
f 104 111 112
f 104 112 113
f 104 113 114
f 104 114 115
f 104 115 116
f 104 116 117
f 104 117 118
f 104 118 119
f 104 119 120
f 104 120 108
f 105 107 106

