v 0.10334711 0.11649748 0.10957411
v 0.10334711 0.11957232 0.10948317
v 0.10334711 0.11345370 0.10951814
v 0.10403845 0.11345370 0.10909842
v 0.10625761 0.11345370 0.10774133
v 0.10613385 0.11649748 0.10766439
v 0.10334711 0.12249184 0.10907744
v 0.10334711 0.11037888 0.10929429
v 0.10623200 0.11037888 0.10769236
v 0.10776834 0.11037888 0.10646818
v 0.10779394 0.11345370 0.10646118
v 0.10767018 0.11649748 0.10636325
v 0.10583511 0.11957232 0.10742654
v 0.10737144 0.11957232 0.10602748
v 0.10334711 0.12488339 0.10841987
v 0.10334711 0.10935394 0.10920335
v 0.10334711 0.10640334 0.10892354
v 0.10599729 0.10730404 0.10751748
v 0.10943696 0.11037888 0.10493621
v 0.10753362 0.10730404 0.10629330
v 0.10927906 0.10730404 0.10476132
v 0.10942415 0.11345370 0.10492921
v 0.10932174 0.11649748 0.10483128
v 0.10897606 0.11957232 0.10448850
v 0.10347514 0.12513186 0.10821701
v 0.10334711 0.12513186 0.10834293
v 0.10334711 0.10422922 0.10864373
v 0.10334711 -0.17685374 0.07075006
v 0.11097330 0.11037888 0.10334127
v 0.11096049 0.11345370 0.10334127
v 0.11081539 0.10730404 0.10319437
v 0.11571457 -0.17191538 0.05908186
v 0.11085380 0.11649748 0.10318038
v 0.11196337 0.11879583 0.10136859
v 0.10869014 0.12121843 0.10418770
v 0.10826764 0.12326831 0.10371202
v 0.10787502 0.12513186 0.10325033
v 0.10334711 0.12513186 0.10299850
v 0.10334711 -0.17753703 0.07056119
v 0.10605703 -0.17741280 0.06789596
v 0.11542865 -0.17499022 0.05885801
v 0.11236025 0.11037888 0.10180929
v 0.11236452 0.11345370 0.10180230
v 0.11221942 0.10730404 0.10166240
v 0.11807883 -0.15964712 0.05834035
v 0.11725091 -0.17191538 0.05734002
v 0.11221516 0.11649748 0.10164840
v 0.13354029 0.12513186 0.07388396
v 0.14356912 0.12513186 0.03811688
v 0.10334711 -0.14843486 0.05596894
v 0.10334711 -0.18921520 0.06159318
v 0.10545531 -0.17946270 0.06721042
v 0.11510005 -0.17688480 0.05850824
v 0.11696071 -0.17499022 0.05700425
v 0.11389658 0.11037888 0.10001849
v 0.11389658 0.11345370 0.09999750
v 0.11793799 0.10848427 0.09503782
v 0.11826233 -0.15657228 0.05854322
v 0.11830928 -0.17191538 0.05580105
v 0.12420707 -0.17707115 0.04612651
v 0.11815991 -0.17499022 0.05546528
v 0.12076741 0.11345370 0.09174303
v 0.12060523 0.11649748 0.09151917
v 0.13626728 0.12420007 0.07040729
v 0.13534975 0.12513186 0.07134466
v 0.13368113 0.12264714 0.07405185
v 0.14681249 0.12513186 0.03811688
v 0.11258217 -0.17486598 0.03811688
v 0.11168598 -0.17343728 0.03954392
v 0.10334711 -0.15045368 0.05563316
v 0.10334711 -0.18946367 0.06113149
v 0.10607410 -0.18933943 0.05864115
v 0.10911689 -0.18927731 0.05553523
v 0.11116106 -0.18800388 0.05446494
v 0.11783984 -0.18570553 0.04890366
v 0.11792519 -0.17663633 0.05514349
v 0.12080581 -0.18555024 0.04572779
v 0.11800200 0.11037888 0.09511477
v 0.12073753 0.11037888 0.09171504
v 0.13697569 0.11037888 0.06835766
v 0.13575517 0.10730404 0.06970076
v 0.12183430 0.11037888 0.09017607
v 0.12407478 -0.18291022 0.04289468
v 0.12440766 -0.18113987 0.04339135
v 0.12732242 -0.18113987 0.03811688
v 0.12786440 -0.17840670 0.03811688
v 0.12791134 -0.17806503 0.03811688
v 0.13987766 0.10730404 0.06246759
v 0.13909669 0.10730404 0.06399957
v 0.13521319 0.12264714 0.07193926
v 0.13954905 0.12503868 0.06468511
v 0.13671538 0.12513186 0.06919010
v 0.13626728 0.12264714 0.07040729
v 0.13727016 0.12264714 0.06885432
v 0.13879370 0.12264714 0.06632901
v 0.14680822 0.12513186 0.03816584
v 0.14694052 0.12264714 0.03816584
v 0.14694052 0.12270925 0.03811688
v 0.11260778 -0.17499022 0.03811688
v 0.10334711 -0.18933943 0.05728406
v 0.10334711 -0.17741280 0.05431804
v 0.10334711 -0.17495916 0.05390532
v 0.11168598 -0.17371681 0.03954392
v 0.10334711 -0.18965002 0.05970444
v 0.10405980 -0.18968108 0.05965547
v 0.11459220 -0.19210366 0.04363618
v 0.11544999 -0.19210366 0.04363618
v 0.11641019 -0.19126507 0.04451759
v 0.11211274 -0.18918414 0.05242231
v 0.11618401 -0.18971214 0.04720380
v 0.11806175 -0.18909094 0.04607055
v 0.11869335 -0.18725847 0.04677009
v 0.12366082 -0.18492906 0.04225110
v 0.12022969 -0.18725847 0.04501426
v 0.12093811 -0.18884247 0.04280374
v 0.12145449 -0.18725847 0.04347529
v 0.13836693 0.11037888 0.06579037
v 0.13625874 0.12109420 0.07039330
v 0.12463384 -0.18402836 0.04123679
v 0.12625978 -0.18421471 0.03811688
v 0.14559195 0.09488049 0.03811688
v 0.14560049 0.09522214 0.03822880
v 0.14547247 0.09637131 0.03977477
v 0.14551941 0.10497463 0.04304857
v 0.14409830 0.11957232 0.05351358
v 0.14353498 0.12264714 0.05657753
v 0.14266440 0.12264714 0.05869012
v 0.13960454 0.12264714 0.06479703
v 0.14259611 0.12485231 0.05854322
v 0.13962587 0.12513186 0.06445426
v 0.13942530 0.12513186 0.06483201
v 0.14644975 0.12513186 0.04123679
v 0.14694052 0.12264714 0.03811688
v 0.14657350 0.12264714 0.04123679
v 0.14634305 0.10730404 0.03816584
v 0.14634732 0.10736616 0.03811688
v 0.12019981 -0.18958790 0.03811688
v 0.11459220 -0.19210366 0.04258688
v 0.11544999 -0.19210366 0.04258688
v 0.12253418 -0.18955684 0.03811688
v 0.12259393 -0.18952578 0.03811688
v 0.12143741 -0.18924625 0.04123679
v 0.11920547 -0.18949472 0.04401393
v 0.12428390 -0.18623353 0.04020847
v 0.12363522 -0.18828341 0.03904725
v 0.12297801 -0.18725847 0.04123679
v 0.12472346 -0.18725847 0.03811688
v 0.14616382 0.10429134 0.03811688
v 0.14615955 0.10422922 0.03816584
v 0.14593337 0.10730404 0.04123679
v 0.14569865 0.10407393 0.04148163
v 0.14558343 0.10730404 0.04341233
v 0.14427327 0.12264714 0.05351358
v 0.14411964 0.12513186 0.05351358
v 0.14398308 0.12513186 0.05408020
v 0.14317650 0.12513186 0.05671044
v 0.14274121 0.12513186 0.05800458
v 0.14233579 0.12513186 0.05885801
v 0.14563890 0.12513186 0.04632239
v 0.14558769 0.12497657 0.04677708
v 0.14607846 0.12264714 0.04430773
v 0.12148436 -0.18958790 0.03811688
v 0.12468505 -0.18732059 0.03811688
v 0.14562183 0.12264714 0.04709187
f 1 2 7
f 1 7 15
f 1 15 26
f 1 26 38
f 1 38 50
f 1 50 70
f 1 70 102
f 1 102 101
f 1 101 100
f 1 100 104
f 1 104 71
f 1 71 51
f 1 51 39
f 1 39 28
f 1 28 27
f 1 27 17
f 1 17 16
f 1 16 8
f 1 8 3
f 1 3 4
f 1 4 5
f 1 5 2
f 2 6 7
f 2 5 6
f 3 8 9
f 3 9 4
f 4 9 5
f 5 9 10
f 5 10 11
f 5 11 6
f 6 12 7
f 6 11 12
f 7 12 13
f 7 13 14
f 7 14 15
f 8 16 9
f 9 16 17
f 9 17 18
f 9 18 20
f 9 20 10
f 10 19 11
f 10 20 21
f 10 21 19
f 11 19 22
f 11 22 23
f 11 23 12
f 12 23 14
f 12 14 13
f 14 23 24
f 14 24 15
f 15 25 26
f 15 24 25
f 17 27 18
f 18 27 28
f 18 28 20
f 19 29 30
f 19 30 22
f 19 21 31
f 19 31 29
f 20 28 21
f 21 28 32
f 21 32 31
f 22 30 23
f 23 30 33
f 23 33 24
f 24 33 34
f 24 34 35
f 24 35 25
f 25 36 37
f 25 37 48
f 25 48 65
f 25 65 92
f 25 92 131
f 25 131 130
f 25 130 158
f 25 158 157
f 25 157 156
f 25 156 155
f 25 155 154
f 25 154 159
f 25 159 132
f 25 132 96
f 25 96 67
f 25 67 49
f 25 49 38
f 25 38 26
f 25 35 36
f 28 39 40
f 28 40 41
f 28 41 32
f 29 42 43
f 29 43 30
f 29 31 44
f 29 44 42
f 30 43 33
f 31 32 45
f 31 45 44
f 32 41 46
f 32 46 45
f 33 43 47
f 33 47 34
f 34 47 48
f 34 48 35
f 35 48 36
f 36 48 37
f 38 49 50
f 39 51 52
f 39 52 40
f 40 53 41
f 40 52 53
f 41 53 54
f 41 54 46
f 42 55 43
f 42 44 55
f 43 55 56
f 43 56 47
f 44 57 55
f 44 45 58
f 44 58 57
f 45 46 59
f 45 59 60
f 45 60 58
f 46 54 61
f 46 61 59
f 47 56 62
f 47 62 63
f 47 63 48
f 48 64 65
f 48 63 62
f 48 62 66
f 48 66 64
f 49 67 98
f 49 98 133
f 49 133 136
f 49 136 148
f 49 148 121
f 49 121 87
f 49 87 86
f 49 86 85
f 49 85 120
f 49 120 147
f 49 147 163
f 49 163 141
f 49 141 140
f 49 140 162
f 49 162 137
f 49 137 99
f 49 99 68
f 49 68 69
f 49 69 70
f 49 70 50
f 51 71 72
f 51 72 73
f 51 73 74
f 51 74 52
f 52 74 75
f 52 75 53
f 53 76 54
f 53 75 77
f 53 77 76
f 54 76 61
f 55 57 78
f 55 78 56
f 56 78 62
f 57 79 78
f 57 58 79
f 58 60 80
f 58 80 81
f 58 81 82
f 58 82 79
f 59 61 60
f 60 61 76
f 60 76 83
f 60 83 84
f 60 84 85
f 60 85 86
f 60 86 87
f 60 87 88
f 60 88 89
f 60 89 80
f 62 78 79
f 62 79 90
f 62 90 66
f 64 91 92
f 64 92 65
f 64 66 90
f 64 90 93
f 64 93 94
f 64 94 95
f 64 95 91
f 67 96 97
f 67 97 98
f 68 99 100
f 68 100 101
f 68 101 102
f 68 102 103
f 68 103 69
f 69 103 102
f 69 102 70
f 71 104 105
f 71 105 106
f 71 106 107
f 71 107 108
f 71 108 72
f 72 108 73
f 73 109 74
f 73 108 110
f 73 110 109
f 74 109 111
f 74 111 75
f 75 111 112
f 75 112 77
f 76 77 113
f 76 113 83
f 77 112 111
f 77 111 114
f 77 114 115
f 77 115 116
f 77 116 113
f 79 82 90
f 80 89 117
f 80 117 95
f 80 95 94
f 80 94 118
f 80 118 82
f 80 82 81
f 82 118 90
f 83 113 119
f 83 119 84
f 84 119 85
f 85 119 120
f 87 121 122
f 87 122 123
f 87 123 124
f 87 124 125
f 87 125 126
f 87 126 127
f 87 127 88
f 88 127 128
f 88 128 89
f 89 128 117
f 90 118 93
f 91 95 128
f 91 128 127
f 91 127 129
f 91 129 130
f 91 130 131
f 91 131 92
f 93 118 94
f 95 117 128
f 96 132 97
f 97 133 98
f 97 132 134
f 97 134 135
f 97 135 136
f 97 136 133
f 99 137 138
f 99 138 100
f 100 138 104
f 104 138 106
f 104 106 105
f 106 138 139
f 106 139 107
f 107 139 140
f 107 140 141
f 107 141 108
f 108 141 142
f 108 142 115
f 108 115 143
f 108 143 111
f 108 111 110
f 109 110 111
f 111 115 114
f 111 143 115
f 113 116 144
f 113 144 119
f 115 142 145
f 115 145 146
f 115 146 116
f 116 146 144
f 119 144 120
f 120 144 147
f 121 148 149
f 121 149 122
f 122 149 123
f 123 149 150
f 123 150 151
f 123 151 124
f 124 151 150
f 124 150 152
f 124 152 125
f 125 152 153
f 125 153 126
f 126 153 154
f 126 154 155
f 126 155 156
f 126 156 129
f 126 129 127
f 129 156 157
f 129 157 158
f 129 158 130
f 132 159 160
f 132 160 134
f 134 160 161
f 134 161 152
f 134 152 150
f 134 150 135
f 135 150 149
f 135 149 148
f 135 148 136
f 137 162 139
f 137 139 138
f 139 162 140
f 141 163 145
f 141 145 142
f 144 146 145
f 144 145 147
f 145 163 147
f 152 161 164
f 152 164 153
f 153 164 160
f 153 160 154
f 154 160 159
f 160 164 161

