v 0.07477041 0.14982363 -0.03429607
v 0.06543097 0.14982544 -0.02193226
v 0.07466466 0.14982544 -0.03252142
v 0.07923193 0.14982544 -0.03429607
v 0.09244463 0.13124955 -0.03429607
v 0.06489559 0.14982544 -0.01936490
v 0.08272844 0.14982544 -0.03429607
v 0.06487576 0.14982544 -0.00096925
v 0.06461137 0.14982544 -0.00171630
v 0.06451223 0.14982544 -0.00479910
v 0.06463781 0.14982544 -0.01033182
v 0.06482949 0.14982544 -0.01707482
v 0.09751425 0.13124955 -0.03429607
v 0.12525497 0.13124955 -0.00206210
v 0.08374633 0.14915624 -0.03429607
v 0.08424205 0.14982544 -0.03242355
v 0.08794346 0.14936173 -0.02878944
v 0.07722921 0.14982544 -0.00096925
v 0.12553920 0.13124955 -0.00178807
v 0.12659673 0.13124955 -0.00096925
v 0.09744815 0.13172963 -0.03429607
v 0.10073314 0.13124955 -0.03147425
v 0.08404377 0.14895985 -0.03429607
v 0.08652899 0.14982544 -0.02937338
v 0.09348235 0.14881619 -0.02194531
v 0.09278173 0.14849249 -0.02399072
v 0.09994660 0.14609208 -0.01924419
v 0.09707801 0.14627030 -0.02262059
v 0.09690616 0.14301338 -0.02842734
v 0.08425527 0.14888893 -0.03415905
v 0.09176384 0.14948358 -0.01707482
v 0.08970163 0.14982544 -0.02014130
v 0.09794387 0.14658672 -0.00096925
v 0.09790422 0.14674492 -0.00173261
v 0.10709825 0.14588113 -0.00557550
v 0.10403137 0.14662854 -0.00786884
v 0.13203648 0.13124955 -0.00096925
v 0.09742832 0.13186966 -0.03429607
v 0.10236574 0.13124955 -0.03003887
v 0.08440069 0.14869799 -0.03429607
v 0.08824089 0.14982544 -0.02630363
v 0.09404417 0.14900167 -0.02014130
v 0.10617950 0.14603207 -0.01014913
v 0.09557762 0.14831064 -0.02014130
v 0.11858583 0.14203503 -0.00096925
v 0.12783274 0.13564302 -0.00096925
v 0.12996105 0.13412640 -0.00096925
v 0.09233227 0.14262240 -0.03429607
v 0.09124167 0.14353892 -0.03429607
v 0.09894193 0.14218051 -0.02714855
v 0.09436143 0.14904350 -0.01707482
v 0.09176384 0.14956358 -0.02014130
v 0.08952978 0.14982544 -0.02316864
v 0.11323862 0.14396627 -0.00096925
v 0.10866474 0.14569384 -0.00627362
v 0.13179193 0.13124955 -0.00123349
v 0.12969666 0.13256977 -0.00278305
v 0.13175227 0.13173873 -0.00096925
v 0.09682023 0.13487744 -0.03429607
v 0.10413051 0.13124955 -0.02847627
v 0.10715773 0.14605208 -0.00759808
v 0.10866474 0.14569384 -0.00639758
v 0.11721763 0.14288608 -0.00096925
v 0.13084014 0.13310622 -0.00096925
v 0.12764767 0.13389909 -0.00382696
v 0.11482493 0.13652136 -0.01559377
v 0.10004575 0.14013652 -0.02851868
v 0.10297382 0.13995467 -0.02529235
v 0.09285444 0.14199866 -0.03429607
v 0.09911379 0.13899633 -0.03056409
v 0.13002054 0.13124955 -0.00314515
v 0.12066788 0.13279526 -0.01222390
v 0.09680701 0.13493927 -0.03429607
v 0.09831402 0.13493927 -0.03292920
v 0.10523433 0.13124955 -0.02747477
v 0.09407061 0.14047112 -0.03429607
v 0.11758777 0.13281890 -0.01529039
v 0.09963595 0.13695052 -0.03108278
v 0.09620553 0.13690870 -0.03429607
v 0.09541237 0.13834712 -0.03429607
v 0.09449362 0.13988375 -0.03429607
v 0.12095870 0.13124955 -0.01253381
v 0.12023164 0.13124955 -0.01327434
v 0.11864532 0.13124955 -0.01488587
v 0.11792486 0.13124955 -0.01561008
v 0.09676074 0.13510475 -0.03429607
v 0.09997964 0.13493927 -0.03139595
v 0.10844001 0.13124955 -0.02455508
v 0.10748161 0.13124955 -0.02543262
v 0.09650958 0.13674685 -0.03408402
v 0.10834747 0.13186966 -0.02446701
f 1 2 3
f 1 3 4
f 1 4 7
f 1 7 15
f 1 15 23
f 1 23 40
f 1 40 49
f 1 49 48
f 1 48 69
f 1 69 76
f 1 76 81
f 1 81 80
f 1 80 79
f 1 79 86
f 1 86 73
f 1 73 59
f 1 59 38
f 1 38 21
f 1 21 13
f 1 13 5
f 1 5 2
f 2 6 12
f 2 12 11
f 2 11 10
f 2 10 9
f 2 9 8
f 2 8 18
f 2 18 32
f 2 32 53
f 2 53 41
f 2 41 24
f 2 24 16
f 2 16 7
f 2 7 4
f 2 4 3
f 2 5 6
f 5 8 9
f 5 9 10
f 5 10 11
f 5 11 12
f 5 12 6
f 5 13 22
f 5 22 39
f 5 39 60
f 5 60 75
f 5 75 89
f 5 89 88
f 5 88 85
f 5 85 84
f 5 84 83
f 5 83 82
f 5 82 71
f 5 71 56
f 5 56 37
f 5 37 20
f 5 20 19
f 5 19 14
f 5 14 8
f 7 16 17
f 7 17 15
f 8 14 19
f 8 19 20
f 8 20 37
f 8 37 58
f 8 58 64
f 8 64 47
f 8 47 46
f 8 46 45
f 8 45 63
f 8 63 54
f 8 54 33
f 8 33 18
f 13 21 22
f 15 17 23
f 16 24 17
f 17 24 25
f 17 25 26
f 17 26 27
f 17 27 28
f 17 28 29
f 17 29 30
f 17 30 23
f 18 31 32
f 18 33 34
f 18 34 35
f 18 35 36
f 18 36 31
f 21 38 22
f 22 38 39
f 23 30 40
f 24 41 42
f 24 42 25
f 25 42 43
f 25 43 44
f 25 44 26
f 26 44 43
f 26 43 27
f 27 43 45
f 27 45 46
f 27 46 47
f 27 47 29
f 27 29 28
f 29 48 49
f 29 49 40
f 29 40 30
f 29 47 50
f 29 50 48
f 31 51 52
f 31 52 32
f 31 36 51
f 32 52 53
f 33 54 34
f 34 54 35
f 35 55 36
f 35 54 55
f 36 55 51
f 37 56 57
f 37 57 58
f 38 59 39
f 39 59 60
f 41 53 42
f 42 53 52
f 42 52 51
f 42 51 61
f 42 61 62
f 42 62 43
f 43 62 63
f 43 63 45
f 47 64 65
f 47 65 66
f 47 66 67
f 47 67 68
f 47 68 50
f 48 50 67
f 48 67 70
f 48 70 69
f 50 68 67
f 51 55 61
f 54 63 55
f 55 62 61
f 55 63 62
f 56 71 57
f 57 66 65
f 57 65 64
f 57 64 58
f 57 71 72
f 57 72 70
f 57 70 66
f 59 73 60
f 60 74 75
f 60 73 74
f 66 70 67
f 69 70 76
f 70 72 77
f 70 77 78
f 70 78 79
f 70 79 80
f 70 80 81
f 70 81 76
f 71 82 72
f 72 82 83
f 72 83 84
f 72 84 85
f 72 85 77
f 73 86 74
f 74 87 88
f 74 88 89
f 74 89 75
f 74 86 90
f 74 90 87
f 77 85 78
f 78 85 91
f 78 91 87
f 78 87 90
f 78 90 79
f 79 90 86
f 85 88 91
f 87 91 88

