v -0.18150118 -0.13202612 -0.03548815
v -0.18125911 -0.13202612 -0.03268361
v -0.18106546 -0.12895142 -0.03548815
v -0.18147697 -0.13202612 -0.03855593
v -0.18142856 -0.13510082 -0.03855593
v -0.18142856 -0.13510082 -0.03548815
v -0.18128332 -0.13510082 -0.03268361
v -0.18077499 -0.12895142 -0.03268361
v -0.18100494 -0.12895142 -0.03855593
v -0.18023033 -0.12700506 -0.03268361
v -0.10354405 0.14700989 -0.03268361
v -0.18122280 -0.13202612 -0.04162877
v -0.18129542 -0.13510082 -0.04162877
v -0.18093232 -0.13817553 -0.03855593
v -0.18094443 -0.13817553 -0.03548815
v -0.18124701 -0.13535470 -0.03268361
v -0.17995196 -0.12714610 -0.04392708
v -0.18066605 -0.12895142 -0.04162877
v -0.10351984 0.14709452 -0.03268361
v -0.10348353 0.14709452 -0.03292154
v -0.18087181 -0.13202612 -0.04469655
v -0.18094443 -0.13510082 -0.04469655
v -0.18076287 -0.13817553 -0.04162877
v -0.18019402 -0.14071427 -0.03855593
v -0.18019402 -0.14065785 -0.03548815
v -0.18012141 -0.14037577 -0.03268361
v -0.18076287 -0.13817553 -0.03268361
v -0.17780967 -0.12590493 -0.05389990
v -0.18021823 -0.12878217 -0.04484842
v -0.10341091 0.14709452 -0.03337715
v -0.10019144 0.14709452 -0.03268361
v -0.17997617 -0.13270313 -0.04997152
v -0.18000037 -0.12968484 -0.04710623
v -0.18023033 -0.13182866 -0.04798202
v -0.18036347 -0.13510082 -0.04776434
v -0.17983093 -0.13665228 -0.04932354
v -0.17998827 -0.13730106 -0.04776434
v -0.18027875 -0.13837299 -0.04484842
v -0.17996406 -0.14003726 -0.04393214
v -0.18010930 -0.14040398 -0.04162877
v -0.17759182 -0.14093993 -0.05083212
v -0.17788231 -0.14108097 -0.04776434
v -0.17870533 -0.14065785 -0.03548815
v -0.17823330 -0.14029114 -0.03268361
v -0.17708349 -0.12590493 -0.05621845
v -0.17742237 -0.12875397 -0.05724105
v -0.17846326 -0.12895142 -0.05389990
v -0.10328987 0.14653036 -0.03464780
v -0.10291468 0.14709452 -0.03524009
v -0.05785422 0.14709452 -0.08440052
v -0.10154701 0.13826534 -0.03268361
v -0.17789440 -0.13202612 -0.05696768
v -0.17993986 -0.13510082 -0.04981965
v -0.17751920 -0.13538290 -0.05726636
v -0.17719241 -0.13817553 -0.05644626
v -0.17801543 -0.13817553 -0.05389990
v -0.17688983 -0.13995265 -0.05577296
v -0.17720452 -0.14046039 -0.05389990
v -0.17964938 -0.13952952 -0.04597733
v -0.16910743 -0.14065785 -0.06913756
v -0.17396085 -0.14017831 -0.06216164
v -0.15374839 -0.14074247 -0.08440052
v -0.17619995 -0.14108097 -0.04776434
v -0.14262549 -0.13385966 -0.07646783
v -0.14603861 -0.13061571 -0.06151873
v -0.16798183 -0.12314053 -0.03268361
v -0.17670828 -0.12762563 -0.05844082
v -0.10272102 0.14709452 -0.03575645
v -0.17687774 -0.12965663 -0.05871925
v -0.06739159 0.11036738 -0.08440052
v -0.06310704 0.14709452 -0.08440052
v -0.10207955 0.13493677 -0.03268361
v -0.10264840 0.13177745 -0.03268361
v -0.10281785 0.13084657 -0.03268361
v -0.10474227 0.12292006 -0.03268361
v -0.17696245 -0.13456486 -0.05894199
v -0.17699877 -0.13202612 -0.05899768
v -0.17382770 -0.13710360 -0.06490037
v -0.17672038 -0.13659586 -0.05849144
v -0.17428763 -0.13814731 -0.06315387
v -0.16810286 -0.14040398 -0.07149155
v -0.16523439 -0.14048860 -0.07470613
v -0.17082609 -0.14003726 -0.06804409
v -0.14249235 -0.13371862 -0.08013297
v -0.14233501 -0.13388787 -0.07844721
v -0.15615694 -0.14046039 -0.08440052
v -0.14421102 -0.12838726 -0.08440052
v -0.07287437 0.09194739 -0.08440052
v -0.06811779 0.10774401 -0.08440052
v -0.15523709 -0.07541216 -0.03268361
v -0.16289846 -0.10441025 -0.03268361
v -0.16746139 -0.12161728 -0.03268361
v -0.10560160 0.11953506 -0.03268361
v -0.17354933 -0.12215323 -0.06134661
v -0.17054772 -0.12759743 -0.07066132
v -0.17147968 -0.12875397 -0.06947673
v -0.17089871 -0.12965663 -0.07108656
v -0.17402136 -0.13202612 -0.06544711
v -0.10153490 0.14709452 -0.03855087
v -0.06394216 0.14709452 -0.08368167
v -0.15879545 -0.12590493 -0.08440052
v -0.15601170 -0.10441025 -0.08059364
v -0.17403346 -0.13510082 -0.06533573
v -0.17092293 -0.13448025 -0.07114224
v -0.17053562 -0.13651124 -0.07071701
v -0.17120129 -0.13817553 -0.06868195
v -0.16729195 -0.13910640 -0.07353673
v -0.16432664 -0.13938848 -0.07675132
v -0.16132503 -0.13955773 -0.07990010
v -0.15832343 -0.13967056 -0.08303369
v -0.15636270 -0.14034755 -0.08440052
v -0.17020884 -0.13817553 -0.07021583
v -0.12162632 -0.06144908 -0.08440052
v -0.07393946 0.08850598 -0.08440052
v -0.10147439 0.14709452 -0.03866730
v -0.10040930 0.14709452 -0.04061630
v -0.16792131 -0.12057357 -0.07130424
v -0.15873494 -0.10441025 -0.07748030
v -0.16080459 -0.12590493 -0.08225409
v -0.16105876 -0.12895142 -0.08264895
v -0.17105605 -0.13202612 -0.07128399
v -0.17215746 -0.13202612 -0.06923880
v -0.15918276 -0.10748495 -0.07813334
v -0.15806925 -0.10748495 -0.07966723
v -0.06547927 0.14709452 -0.08234015
v -0.15901330 -0.12658193 -0.08440052
v -0.06714953 0.14709452 -0.08080626
v -0.06708901 0.14709452 -0.08086194
v -0.16225698 -0.13510082 -0.08095813
v -0.16800604 -0.13510082 -0.07435683
v -0.16771555 -0.13704719 -0.07403791
v -0.16246274 -0.13202612 -0.08120619
v -0.16855068 -0.13811910 -0.07243314
v -0.16477446 -0.13735748 -0.07725249
v -0.16182127 -0.13752674 -0.08044177
v -0.15773037 -0.13831656 -0.08440052
v -0.15758513 -0.13859865 -0.08440052
v -0.10037299 0.14709452 -0.04067705
v -0.15753671 -0.10441025 -0.07901419
v -0.10004620 0.14260942 -0.04316773
v -0.09774658 0.14709452 -0.04417513
v -0.09487811 0.14709452 -0.04793645
v -0.15926748 -0.12590493 -0.08396010
v -0.15950954 -0.12895142 -0.08440052
v -0.07582757 0.14709452 -0.07126880
v -0.07171246 0.14709452 -0.07608816
v -0.07012693 0.14709452 -0.07782454
v -0.06868664 0.14709452 -0.07930274
v -0.16086511 -0.13510082 -0.08249202
v -0.16108297 -0.13202612 -0.08274008
v -0.15883176 -0.13763957 -0.08356018
v -0.15934009 -0.13510082 -0.08407147
v -0.15901330 -0.13510082 -0.08440052
v -0.09274793 0.14709452 -0.05065494
v -0.09112609 0.14709452 -0.05270518
v -0.09107768 0.14709452 -0.05276593
v -0.15955795 -0.13202612 -0.08440052
f 1 2 3
f 1 3 4
f 1 4 5
f 1 5 6
f 1 6 7
f 1 7 2
f 2 7 16
f 2 16 27
f 2 27 26
f 2 26 44
f 2 44 66
f 2 66 92
f 2 92 91
f 2 91 90
f 2 90 93
f 2 93 75
f 2 75 74
f 2 74 73
f 2 73 72
f 2 72 51
f 2 51 31
f 2 31 19
f 2 19 11
f 2 11 10
f 2 10 8
f 2 8 3
f 3 9 4
f 3 8 10
f 3 10 11
f 3 11 9
f 4 9 12
f 4 12 13
f 4 13 5
f 5 13 14
f 5 14 15
f 5 15 6
f 6 16 7
f 6 15 16
f 9 17 18
f 9 18 12
f 9 11 17
f 11 19 20
f 11 20 17
f 12 18 21
f 12 21 22
f 12 22 13
f 13 22 23
f 13 23 14
f 14 23 24
f 14 24 15
f 15 24 25
f 15 25 26
f 15 26 27
f 15 27 16
f 17 28 29
f 17 29 18
f 17 20 30
f 17 30 28
f 18 29 21
f 19 31 50
f 19 50 71
f 19 71 100
f 19 100 125
f 19 125 128
f 19 128 127
f 19 127 148
f 19 148 147
f 19 147 146
f 19 146 145
f 19 145 156
f 19 156 155
f 19 155 154
f 19 154 142
f 19 142 141
f 19 141 138
f 19 138 116
f 19 116 115
f 19 115 99
f 19 99 68
f 19 68 49
f 19 49 30
f 19 30 20
f 21 32 22
f 21 29 33
f 21 33 34
f 21 34 32
f 22 32 35
f 22 35 36
f 22 36 37
f 22 37 38
f 22 38 23
f 23 38 39
f 23 39 40
f 23 40 24
f 24 41 42
f 24 42 25
f 24 40 41
f 25 42 63
f 25 63 43
f 25 43 26
f 26 43 44
f 28 45 46
f 28 46 47
f 28 47 33
f 28 33 29
f 28 30 48
f 28 48 45
f 30 49 48
f 31 51 50
f 32 52 53
f 32 53 35
f 32 34 47
f 32 47 52
f 33 47 34
f 35 53 36
f 36 53 54
f 36 54 55
f 36 55 56
f 36 56 57
f 36 57 58
f 36 58 59
f 36 59 37
f 37 59 39
f 37 39 38
f 39 58 41
f 39 41 40
f 39 59 58
f 41 60 42
f 41 58 61
f 41 61 60
f 42 60 62
f 42 62 63
f 43 63 62
f 43 62 44
f 44 62 64
f 44 64 65
f 44 65 66
f 45 67 46
f 45 48 49
f 45 49 68
f 45 68 67
f 46 67 69
f 46 69 52
f 46 52 47
f 50 70 89
f 50 89 88
f 50 88 114
f 50 114 113
f 50 113 87
f 50 87 62
f 50 62 86
f 50 86 111
f 50 111 137
f 50 137 136
f 50 136 153
f 50 153 157
f 50 157 144
f 50 144 126
f 50 126 101
f 50 101 71
f 50 51 72
f 50 72 73
f 50 73 74
f 50 74 75
f 50 75 65
f 50 65 70
f 52 76 54
f 52 54 53
f 52 69 77
f 52 77 76
f 54 78 79
f 54 79 55
f 54 76 78
f 55 80 57
f 55 57 56
f 55 79 78
f 55 78 80
f 57 80 61
f 57 61 58
f 60 81 82
f 60 82 62
f 60 61 83
f 60 83 81
f 61 80 78
f 61 78 83
f 62 84 85
f 62 85 64
f 62 82 86
f 62 87 84
f 64 85 88
f 64 88 89
f 64 89 65
f 65 90 91
f 65 91 92
f 65 92 66
f 65 89 70
f 65 75 93
f 65 93 90
f 67 94 95
f 67 95 96
f 67 96 97
f 67 97 98
f 67 98 69
f 67 68 99
f 67 99 94
f 69 98 77
f 71 101 102
f 71 102 100
f 76 77 103
f 76 103 78
f 77 98 103
f 78 103 104
f 78 104 105
f 78 105 106
f 78 106 83
f 81 83 107
f 81 107 108
f 81 108 82
f 82 108 109
f 82 109 110
f 82 110 111
f 82 111 86
f 83 106 112
f 83 112 107
f 84 87 113
f 84 113 114
f 84 114 85
f 85 114 88
f 94 99 95
f 95 97 96
f 95 99 115
f 95 115 116
f 95 116 117
f 95 117 118
f 95 118 97
f 97 119 120
f 97 120 121
f 97 121 122
f 97 122 98
f 97 118 123
f 97 123 124
f 97 124 119
f 98 122 103
f 100 102 125
f 101 126 124
f 101 124 102
f 102 124 127
f 102 127 128
f 102 128 125
f 103 122 121
f 103 121 104
f 104 129 130
f 104 130 131
f 104 131 105
f 104 121 132
f 104 132 129
f 105 131 133
f 105 133 112
f 105 112 106
f 107 112 133
f 107 133 131
f 107 131 134
f 107 134 108
f 108 135 109
f 108 134 135
f 109 135 136
f 109 136 110
f 110 136 137
f 110 137 111
f 116 138 117
f 117 138 118
f 118 139 124
f 118 124 123
f 118 138 140
f 118 140 141
f 118 141 142
f 118 142 139
f 119 143 126
f 119 126 144
f 119 144 120
f 119 124 143
f 120 144 132
f 120 132 121
f 124 126 143
f 124 139 145
f 124 145 146
f 124 146 147
f 124 147 148
f 124 148 127
f 129 149 135
f 129 135 134
f 129 134 131
f 129 131 130
f 129 132 150
f 129 150 149
f 132 144 150
f 135 151 136
f 135 149 151
f 136 151 152
f 136 152 153
f 138 141 140
f 139 142 154
f 139 154 155
f 139 155 156
f 139 156 145
f 144 157 150
f 149 152 151
f 149 150 157
f 149 157 152
f 152 157 153

