v -0.07106423 -0.12422578 -0.15460456
v -0.07106423 -0.12422578 -0.15118523
v -0.07106423 -0.11979034 -0.15392869
v -0.07088163 -0.12422578 -0.15463786
v -0.02664939 -0.12422578 -0.14520058
v -0.07106423 -0.11378013 -0.14878971
v -0.06992517 -0.11770574 -0.15376887
v -0.06780790 -0.11669176 -0.15396531
v -0.07106423 -0.10489791 -0.15071079
v -0.06650362 -0.06876296 -0.14450307
v -0.06481676 -0.06768667 -0.14485266
v -0.06428201 -0.06636113 -0.14473279
v -0.06282123 -0.06636113 -0.14513233
v -0.06167781 -0.06760737 -0.14569333
v -0.06474720 -0.11976769 -0.15473442
v -0.06474720 -0.12422578 -0.15511230
v -0.06474720 -0.11669744 -0.15441812
v -0.02664939 -0.12422578 -0.14871812
v -0.02664939 -0.08908781 -0.14046779
v -0.07106423 -0.06636113 -0.13830199
v -0.06678187 -0.11446555 -0.15375556
v -0.06480372 -0.11351954 -0.15391537
v -0.07106423 -0.07725997 -0.14464290
v -0.07089033 -0.06636113 -0.14220742
v -0.06175172 -0.06636113 -0.14541366
v -0.05860843 -0.06636113 -0.14595469
v -0.05746066 -0.08999982 -0.15066751
v -0.06167781 -0.11669744 -0.15466616
v -0.06167781 -0.12283794 -0.15514727
v -0.06167781 -0.12422578 -0.15525047
v -0.06167781 -0.11363285 -0.15428993
v -0.03164041 -0.12422578 -0.15087061
v -0.02664939 -0.12283228 -0.14886961
v -0.02664939 -0.08601755 -0.14033128
v -0.02664939 -0.06636113 -0.13973032
v -0.07106423 -0.06636113 -0.14212918
v -0.06027789 -0.10889718 -0.15365568
v -0.07106423 -0.06760737 -0.14241717
v -0.05074801 -0.06636113 -0.14666387
v -0.04840466 -0.06889891 -0.14752452
v -0.05553903 -0.08958064 -0.15074575
v -0.05448692 -0.10575894 -0.15365733
v -0.05860843 -0.10833637 -0.15372060
v -0.05860843 -0.11363285 -0.15447472
v -0.05860843 -0.11669744 -0.15477436
v -0.05860843 -0.12283794 -0.15519887
v -0.05860843 -0.12422578 -0.15528710
v -0.04086596 -0.12422578 -0.15386210
v -0.03160997 -0.12283794 -0.15086727
v -0.02664939 -0.11669744 -0.14916094
v -0.02664939 -0.11976769 -0.14908936
v -0.02664939 -0.06636113 -0.14316130
v -0.04940895 -0.06636113 -0.14672046
v -0.04743950 -0.06636113 -0.14677540
v -0.04633521 -0.06636113 -0.14678539
v -0.04633521 -0.06891024 -0.14752286
v -0.05338699 -0.10575894 -0.15365733
v -0.05553903 -0.11363285 -0.15449302
v -0.05553903 -0.11669744 -0.15477104
v -0.05246965 -0.12283794 -0.15523715
v -0.05553903 -0.12283794 -0.15522551
v -0.05246965 -0.12422578 -0.15530874
v -0.04327017 -0.12422578 -0.15444975
v -0.04107900 -0.12283794 -0.15379718
v -0.03163171 -0.11669744 -0.15073743
v -0.02664939 -0.11363285 -0.14908602
v -0.03153606 -0.11976769 -0.15081400
v -0.02664939 -0.10442208 -0.14814046
v -0.02934923 -0.06880261 -0.14446145
v -0.03120565 -0.06636113 -0.14469617
v -0.04340060 -0.06636113 -0.14665554
v -0.04468748 -0.06907452 -0.14750288
v -0.05133928 -0.10617247 -0.15352582
v -0.05240443 -0.10731673 -0.15375389
v -0.04940026 -0.12283794 -0.15515725
v -0.05246965 -0.11669744 -0.15468280
v -0.04633521 -0.08963162 -0.15071412
v -0.05108712 -0.12422578 -0.15529376
v -0.04495268 -0.12422578 -0.15476105
v -0.04633521 -0.12283794 -0.15488590
v -0.04327017 -0.12283794 -0.15431657
v -0.02792323 -0.10749233 -0.14888126
v -0.02664939 -0.10876688 -0.14868649
v -0.03203604 -0.11453919 -0.15064586
v -0.02664939 -0.11056258 -0.14886129
v -0.04161809 -0.09347227 -0.15059093
v -0.03099262 -0.07067196 -0.14519559
v -0.03406201 -0.06636113 -0.14543697
v -0.03837915 -0.06636113 -0.14615613
v -0.03713140 -0.06636113 -0.14601962
v -0.04159201 -0.07198616 -0.14751287
v -0.04327017 -0.07681246 -0.14846176
v -0.04442663 -0.09024906 -0.15062090
v -0.05053497 -0.10821742 -0.15369396
v -0.04802208 -0.12422578 -0.15515392
v -0.04940026 -0.12422578 -0.15524881
v -0.04633521 -0.12422578 -0.15500410
v -0.03099262 -0.07374221 -0.14557680
v -0.03853566 -0.07510739 -0.14751619
v -0.03530976 -0.06636113 -0.14569999
v -0.03406201 -0.07067196 -0.14596301
f 1 2 6
f 1 6 20
f 1 20 36
f 1 36 38
f 1 38 23
f 1 23 9
f 1 9 3
f 1 3 4
f 1 4 16
f 1 16 30
f 1 30 47
f 1 47 62
f 1 62 78
f 1 78 96
f 1 96 95
f 1 95 97
f 1 97 79
f 1 79 63
f 1 63 48
f 1 48 32
f 1 32 18
f 1 18 5
f 1 5 2
f 2 5 6
f 3 7 8
f 3 8 4
f 3 9 10
f 3 10 11
f 3 11 12
f 3 12 13
f 3 13 14
f 3 14 7
f 4 15 16
f 4 8 17
f 4 17 15
f 5 18 33
f 5 33 51
f 5 51 50
f 5 50 66
f 5 66 85
f 5 85 83
f 5 83 68
f 5 68 52
f 5 52 35
f 5 35 34
f 5 34 19
f 5 19 20
f 5 20 6
f 7 21 8
f 7 14 21
f 8 21 22
f 8 22 17
f 9 23 10
f 10 23 24
f 10 24 12
f 10 12 11
f 12 24 36
f 12 36 20
f 12 20 35
f 12 35 52
f 12 52 70
f 12 70 88
f 12 88 100
f 12 100 90
f 12 90 89
f 12 89 71
f 12 71 55
f 12 55 54
f 12 54 53
f 12 53 39
f 12 39 26
f 12 26 25
f 12 25 13
f 13 25 14
f 14 25 26
f 14 26 27
f 14 27 22
f 14 22 21
f 15 17 28
f 15 28 16
f 16 29 30
f 16 28 29
f 17 22 31
f 17 31 28
f 18 32 33
f 19 34 20
f 20 34 35
f 22 37 31
f 22 27 37
f 23 38 24
f 24 38 36
f 26 39 40
f 26 40 27
f 27 40 41
f 27 41 42
f 27 42 43
f 27 43 37
f 28 31 44
f 28 44 45
f 28 45 29
f 29 45 30
f 30 45 46
f 30 46 47
f 31 37 43
f 31 43 42
f 31 42 44
f 32 48 49
f 32 49 50
f 32 50 51
f 32 51 33
f 39 53 40
f 40 53 54
f 40 54 55
f 40 55 56
f 40 56 57
f 40 57 42
f 40 42 41
f 42 57 58
f 42 58 44
f 44 58 45
f 45 58 59
f 45 59 60
f 45 60 61
f 45 61 46
f 46 61 47
f 47 61 60
f 47 60 62
f 48 63 64
f 48 64 65
f 48 65 66
f 48 66 67
f 48 67 49
f 49 67 50
f 50 67 66
f 52 68 69
f 52 69 70
f 55 71 72
f 55 72 56
f 56 72 57
f 57 73 74
f 57 74 75
f 57 75 76
f 57 76 58
f 57 72 77
f 57 77 73
f 58 76 75
f 58 75 59
f 59 75 60
f 60 75 78
f 60 78 62
f 63 79 80
f 63 80 81
f 63 81 64
f 64 82 83
f 64 83 84
f 64 84 85
f 64 85 65
f 64 81 86
f 64 86 82
f 65 85 66
f 68 83 87
f 68 87 69
f 69 87 70
f 70 87 88
f 71 89 72
f 72 89 90
f 72 90 91
f 72 91 92
f 72 92 93
f 72 93 77
f 73 94 74
f 73 77 93
f 73 93 94
f 74 94 75
f 75 80 95
f 75 95 96
f 75 96 78
f 75 94 80
f 79 97 80
f 80 97 95
f 80 94 93
f 80 93 86
f 80 86 81
f 82 86 98
f 82 98 83
f 83 98 87
f 83 85 84
f 86 93 99
f 86 99 100
f 86 100 88
f 86 88 101
f 86 101 98
f 87 98 88
f 88 98 101
f 90 100 99
f 90 99 91
f 91 99 93
f 91 93 92

