v -0.02664939 0.10941915 -0.11766423
v -0.02684208 0.10929872 -0.11766423
v -0.02664939 0.09326290 -0.11766423
v -0.02664939 0.08233720 -0.12313469
v -0.02792260 0.07968751 -0.12355374
v -0.02792260 0.08195867 -0.12309479
v -0.02966413 0.08144250 -0.12298931
v -0.02855921 0.10793946 -0.11766423
v -0.05156732 0.05682098 -0.11766423
v -0.02664939 -0.06635547 -0.13972852
v -0.02664939 0.07968751 -0.12366492
v -0.02792260 0.07662487 -0.12416664
v -0.03406184 0.07048239 -0.12434623
v -0.03713024 0.07048239 -0.12375044
v -0.03099344 0.08889262 -0.12116487
v -0.04326460 -0.01236361 -0.13899019
v -0.04514027 -0.01052259 -0.13836304
v -0.04623055 -0.01248405 -0.13855404
v -0.03099344 0.10539299 -0.11766423
v -0.05156732 0.07177283 -0.11766423
v -0.05156732 0.05582304 -0.11786663
v -0.05156732 -0.06635547 -0.14351138
v -0.02664939 -0.06635547 -0.14316074
v -0.02664939 0.07662487 -0.12425501
v -0.04188162 0.05382716 -0.12605949
v -0.04041084 0.06760902 -0.12351953
v -0.04019620 0.07968751 -0.12098243
v -0.03713024 0.08276735 -0.12108220
v -0.05104779 -0.00140351 -0.13525010
v -0.04019620 -0.01236361 -0.13918689
v -0.04326460 -0.01542625 -0.13952042
v -0.04633299 -0.03689911 -0.14285572
v -0.04633299 -0.01542625 -0.13906431
v -0.04940383 -0.03689911 -0.14238251
v -0.04811598 -0.01358523 -0.13835164
v -0.03725219 0.08591601 -0.12036383
v -0.03713024 0.09809773 -0.11772980
v -0.03711804 0.09840744 -0.11766423
v -0.05111853 0.07289121 -0.11766423
v -0.05156732 0.06253331 -0.12027261
v -0.05156732 -0.06635547 -0.14655020
v -0.03120320 -0.06635547 -0.14469441
v -0.02664939 -0.06272504 -0.14286427
v -0.02664939 0.05821465 -0.12730239
v -0.03099344 0.01146644 -0.13535842
v -0.03406184 0.01141483 -0.13534987
v -0.04331582 0.06430551 -0.12338555
v -0.04268409 0.07968751 -0.12023270
v -0.04204992 0.08164897 -0.11999610
v -0.03737659 0.09809773 -0.11766423
v -0.03726439 0.09823537 -0.11766423
v -0.05156732 -0.03997895 -0.14245377
v -0.05156732 -0.00293483 -0.13538408
v -0.05156732 -0.00090454 -0.13494508
v -0.05156732 0.02445683 -0.12936629
v -0.04659642 0.05845553 -0.12361076
v -0.04574517 0.06127728 -0.12328578
v -0.04511100 0.06327316 -0.12306343
v -0.04019620 -0.01542625 -0.13969717
v -0.04326460 -0.03383647 -0.14249368
v -0.04326460 -0.03689911 -0.14295834
v -0.04789647 -0.04761833 -0.14442929
v -0.05096730 -0.05068097 -0.14443215
v -0.04987214 0.07048239 -0.11922070
v -0.04741596 0.08149412 -0.11766423
v -0.05156732 0.06095037 -0.12066885
v -0.04833794 0.07048239 -0.12012437
v -0.05075022 -0.06635547 -0.14666138
v -0.05156732 -0.06547798 -0.14645898
v -0.03406184 -0.06635547 -0.14543559
v -0.03247886 -0.05981726 -0.14443784
v -0.02934460 -0.03812072 -0.14139331
v -0.02664939 -0.02896723 -0.13970001
v -0.02664939 0.00838660 -0.13530711
v -0.02897630 0.01100188 -0.13527575
v -0.03406184 -0.01542625 -0.13952897
v -0.03713024 -0.01542625 -0.13970856
v -0.03713024 -0.01236361 -0.13921254
v -0.04036450 0.09395113 -0.11766423
v -0.04832575 0.05757804 -0.12316035
v -0.04794281 0.07216857 -0.11991912
v -0.03947178 0.09522436 -0.11766423
v -0.05156732 -0.05221229 -0.14452906
v -0.04019620 -0.03383647 -0.14251078
v -0.04633299 -0.05838917 -0.14595156
v -0.04940383 -0.05838917 -0.14576341
v -0.05156732 -0.06145181 -0.14594301
v -0.05156732 -0.05838917 -0.14548120
v -0.04669154 0.08312867 -0.11766423
v -0.04941115 -0.06635547 -0.14671839
v -0.03530822 -0.06635547 -0.14569785
v -0.03713024 -0.06145181 -0.14558952
v -0.03403745 -0.05863006 -0.14464595
v -0.03406184 -0.03689911 -0.14239390
v -0.03174713 -0.03383647 -0.14157291
v -0.03084222 -0.03701955 -0.14170404
v -0.03099344 -0.03997895 -0.14204328
v -0.02664939 -0.02590459 -0.13939784
v -0.02664939 -0.01666507 -0.13833738
v -0.02792260 -0.01848889 -0.13887046
v -0.03099344 -0.01848889 -0.13953753
v -0.03406184 -0.03383647 -0.14200621
v -0.03713024 -0.03383647 -0.14235114
v -0.04569151 0.08498690 -0.11766423
v -0.04634031 0.08385131 -0.11766423
v -0.04019620 -0.03689911 -0.14292414
v -0.04326460 -0.05838917 -0.14586888
v -0.04633299 -0.06635547 -0.14678396
v -0.04743547 -0.06635547 -0.14677255
v -0.03713024 -0.06635547 -0.14601712
v -0.03713024 -0.06453165 -0.14586888
v -0.04019620 -0.06145181 -0.14600572
v -0.03713024 -0.03689911 -0.14275594
v -0.03224714 -0.03180619 -0.14143323
v -0.02792260 -0.02156873 -0.13923535
v -0.04019620 -0.05838917 -0.14563229
v -0.04339631 -0.06635547 -0.14665283
v -0.03837662 -0.06635547 -0.14615395
f 1 2 8
f 1 8 19
f 1 19 38
f 1 38 51
f 1 51 50
f 1 50 82
f 1 82 79
f 1 79 104
f 1 104 105
f 1 105 89
f 1 89 65
f 1 65 39
f 1 39 20
f 1 20 9
f 1 9 3
f 1 3 10
f 1 10 23
f 1 23 43
f 1 43 73
f 1 73 98
f 1 98 99
f 1 99 74
f 1 74 44
f 1 44 24
f 1 24 11
f 1 11 4
f 1 4 5
f 1 5 6
f 1 6 7
f 1 7 2
f 2 7 8
f 3 9 10
f 4 11 12
f 4 12 5
f 5 12 7
f 5 7 6
f 7 13 14
f 7 14 15
f 7 15 8
f 7 12 16
f 7 16 17
f 7 17 18
f 7 18 13
f 8 15 14
f 8 14 19
f 9 20 40
f 9 40 66
f 9 66 55
f 9 55 54
f 9 54 53
f 9 53 52
f 9 52 83
f 9 83 88
f 9 88 87
f 9 87 69
f 9 69 41
f 9 41 22
f 9 22 21
f 9 21 10
f 10 22 41
f 10 41 68
f 10 68 90
f 10 90 109
f 10 109 108
f 10 108 117
f 10 117 118
f 10 118 110
f 10 110 91
f 10 91 70
f 10 70 42
f 10 42 23
f 10 21 22
f 11 24 12
f 12 24 16
f 13 18 14
f 14 25 26
f 14 26 27
f 14 27 28
f 14 28 19
f 14 18 29
f 14 29 25
f 16 30 31
f 16 31 32
f 16 32 33
f 16 33 18
f 16 18 17
f 16 24 30
f 18 33 34
f 18 34 35
f 18 35 29
f 19 28 36
f 19 36 37
f 19 37 38
f 20 39 40
f 23 42 43
f 24 44 45
f 24 45 46
f 24 46 30
f 25 47 27
f 25 27 26
f 25 29 47
f 27 48 49
f 27 49 50
f 27 50 51
f 27 51 37
f 27 37 36
f 27 36 28
f 27 47 48
f 29 35 52
f 29 52 53
f 29 53 54
f 29 54 55
f 29 55 56
f 29 56 57
f 29 57 58
f 29 58 47
f 30 59 31
f 30 46 59
f 31 59 32
f 32 60 61
f 32 61 62
f 32 62 34
f 32 34 33
f 32 59 60
f 34 62 63
f 34 63 52
f 34 52 35
f 37 51 38
f 39 64 40
f 39 65 64
f 40 64 67
f 40 67 66
f 41 69 68
f 42 70 71
f 42 71 72
f 42 72 73
f 42 73 43
f 44 74 75
f 44 75 45
f 45 75 76
f 45 76 77
f 45 77 78
f 45 78 59
f 45 59 46
f 47 58 48
f 48 79 49
f 48 58 57
f 48 57 56
f 48 56 80
f 48 80 81
f 48 81 79
f 49 79 82
f 49 82 50
f 52 63 83
f 55 66 67
f 55 67 80
f 55 80 56
f 59 78 77
f 59 77 84
f 59 84 60
f 60 84 61
f 61 84 85
f 61 85 62
f 62 85 86
f 62 86 87
f 62 87 63
f 63 87 88
f 63 88 83
f 64 81 67
f 64 65 89
f 64 89 81
f 67 81 80
f 68 85 90
f 68 69 87
f 68 87 86
f 68 86 85
f 70 91 92
f 70 92 71
f 71 92 93
f 71 93 94
f 71 94 95
f 71 95 96
f 71 96 97
f 71 97 72
f 72 97 96
f 72 96 98
f 72 98 73
f 74 99 100
f 74 100 101
f 74 101 75
f 75 101 76
f 76 101 102
f 76 102 103
f 76 103 77
f 77 103 84
f 79 81 104
f 81 89 105
f 81 105 104
f 84 103 106
f 84 106 85
f 85 106 107
f 85 107 108
f 85 108 109
f 85 109 90
f 91 110 111
f 91 111 92
f 92 111 112
f 92 112 94
f 92 94 93
f 94 113 102
f 94 102 101
f 94 101 114
f 94 114 95
f 94 112 113
f 95 114 101
f 95 101 100
f 95 100 115
f 95 115 96
f 96 115 98
f 98 115 99
f 99 115 100
f 102 113 103
f 103 113 106
f 106 113 107
f 107 116 112
f 107 112 117
f 107 117 108
f 107 113 116
f 110 118 112
f 110 112 111
f 112 118 117
f 112 116 113

