v -0.12817516 -0.06635547 -0.08440053
v -0.09679264 -0.06635547 -0.12058007
v -0.12337592 -0.06635547 -0.08440053
v -0.12315095 -0.04945807 -0.08440053
v -0.10934564 -0.03502441 -0.09545454
v -0.09580280 -0.06635547 -0.12171771
v -0.05157482 -0.06635547 -0.14350938
v -0.12285850 -0.06498415 -0.08440053
v -0.05968103 0.16344438 -0.08440053
v -0.09429554 -0.06635547 -0.12336030
v -0.05194976 0.16253792 -0.09339218
v -0.12162120 -0.06145128 -0.08440053
v -0.12240107 -0.06370581 -0.08440053
v -0.12275351 -0.06470524 -0.08440053
v -0.05157482 -0.06635547 -0.14654513
v -0.05157482 0.16655890 -0.08440053
v -0.06811720 0.10773181 -0.08440053
v -0.07287894 0.09197330 -0.08440053
v -0.07379379 0.08897500 -0.08440053
v -0.07393627 0.08851015 -0.08440053
v -0.05887116 0.16553622 -0.08440053
v -0.09283327 -0.06635547 -0.12493597
v -0.05157482 0.16439733 -0.09295416
v -0.05157482 0.16253792 -0.09378762
v -0.05861620 -0.06635547 -0.14594893
v -0.05157482 -0.06547225 -0.14645996
v -0.05157482 0.17109120 -0.08440053
v -0.05875868 0.16576864 -0.08440053
v -0.09131851 -0.06635547 -0.12652380
v -0.05157482 0.16488542 -0.09268648
v -0.05157482 0.06252490 -0.12026980
v -0.05185228 0.06126979 -0.12044014
v -0.07514358 -0.06635547 -0.13990786
v -0.07620091 -0.06451930 -0.13875196
v -0.07671833 -0.06635547 -0.13890406
v -0.07810561 -0.06635547 -0.13794284
v -0.07998781 -0.06635547 -0.13656184
v -0.08170503 -0.06635547 -0.13527210
v -0.08333978 -0.06635547 -0.13400671
v -0.08513949 -0.06635547 -0.13252229
v -0.08578439 -0.06635547 -0.13196259
v -0.08672174 -0.06635547 -0.13112914
v -0.08757660 -0.06635547 -0.13033217
v -0.08831148 -0.06635547 -0.12962647
v -0.08983374 -0.06635547 -0.12806905
v -0.06175820 -0.06635547 -0.14540749
v -0.05861620 -0.06451930 -0.14567517
v -0.05554169 -0.06451930 -0.14602194
v -0.05157482 -0.06145128 -0.14594285
v -0.05157482 0.17076581 -0.08533133
v -0.05237719 0.17078904 -0.08454045
v -0.05238469 0.17083553 -0.08440053
v -0.05755137 0.16753508 -0.08440053
v -0.05371948 0.16672159 -0.08893894
v -0.05157482 0.16632646 -0.09136024
v -0.05157482 0.06094440 -0.12066523
v -0.05754387 0.00241946 -0.13237629
v -0.05858621 0.00327944 -0.13159758
v -0.07257898 -0.06635547 -0.14144703
v -0.05554169 -0.04304311 -0.14223790
v -0.05247468 -0.04304311 -0.14285235
v -0.06283053 -0.06635547 -0.14512764
v -0.05157482 -0.00292634 -0.13538161
v -0.05158232 -0.05224720 -0.14453145
v -0.05247468 -0.06145128 -0.14586985
v -0.05157482 -0.05838324 -0.14548049
v -0.05157482 0.17048690 -0.08598228
v -0.05266965 0.17074257 -0.08440053
v -0.05632157 0.16862749 -0.08440053
v -0.05167230 0.16774426 -0.08989407
v -0.05157482 0.16765130 -0.09008876
v -0.05157482 0.02470914 -0.12930404
v -0.05164981 0.02447671 -0.12933446
v -0.05704145 0.00446481 -0.13210860
v -0.05734140 -0.01036398 -0.13532686
v -0.06001848 -0.01419902 -0.13510176
v -0.07090675 -0.06475173 -0.14183638
v -0.07089925 -0.06635547 -0.14220140
v -0.05157482 -0.03997509 -0.14245083
v -0.06429280 -0.06635547 -0.14472612
v -0.06384287 -0.06523982 -0.14462878
v -0.05557168 -0.00931806 -0.13560670
v -0.05554169 -0.01236285 -0.13622724
v -0.05583414 0.00327944 -0.13282647
v -0.05157482 -0.00090423 -0.13494359
v -0.05157482 -0.05222395 -0.14452536
v -0.05157482 0.17002205 -0.08676707
v -0.05406442 0.17016150 -0.08440053
v -0.05599912 0.16890640 -0.08440053
v -0.05157482 0.16779075 -0.08993058
v -0.05157482 0.02447671 -0.12935879
v -0.06337045 -0.03502441 -0.13836260
v -0.05247468 0.00606856 -0.13316716
v -0.05157482 0.16918530 -0.08805073
v -0.05584914 0.16902261 -0.08440053
v -0.05157482 0.16876694 -0.08862259
f 1 2 6
f 1 6 10
f 1 10 22
f 1 22 29
f 1 29 45
f 1 45 44
f 1 44 43
f 1 43 42
f 1 42 41
f 1 41 40
f 1 40 39
f 1 39 38
f 1 38 37
f 1 37 36
f 1 36 35
f 1 35 33
f 1 33 59
f 1 59 78
f 1 78 80
f 1 80 62
f 1 62 46
f 1 46 25
f 1 25 15
f 1 15 7
f 1 7 3
f 1 3 8
f 1 8 14
f 1 14 13
f 1 13 12
f 1 12 20
f 1 20 19
f 1 19 18
f 1 18 17
f 1 17 16
f 1 16 27
f 1 27 52
f 1 52 68
f 1 68 88
f 1 88 95
f 1 95 89
f 1 89 69
f 1 69 53
f 1 53 28
f 1 28 21
f 1 21 9
f 1 9 4
f 1 4 5
f 1 5 2
f 2 5 6
f 3 7 8
f 4 9 5
f 5 9 6
f 6 9 11
f 6 11 10
f 7 12 13
f 7 13 14
f 7 14 8
f 7 15 26
f 7 26 49
f 7 49 66
f 7 66 86
f 7 86 79
f 7 79 63
f 7 63 85
f 7 85 91
f 7 91 72
f 7 72 56
f 7 56 31
f 7 31 24
f 7 24 23
f 7 23 30
f 7 30 55
f 7 55 71
f 7 71 90
f 7 90 96
f 7 96 94
f 7 94 87
f 7 87 67
f 7 67 50
f 7 50 27
f 7 27 16
f 7 16 17
f 7 17 18
f 7 18 19
f 7 19 20
f 7 20 12
f 9 21 11
f 10 11 22
f 11 21 23
f 11 23 24
f 11 24 22
f 15 25 26
f 21 28 23
f 22 24 29
f 23 28 30
f 24 31 32
f 24 32 33
f 24 33 34
f 24 34 35
f 24 35 36
f 24 36 37
f 24 37 38
f 24 38 39
f 24 39 40
f 24 40 41
f 24 41 42
f 24 42 43
f 24 43 44
f 24 44 45
f 24 45 29
f 25 46 47
f 25 47 48
f 25 48 26
f 26 48 49
f 27 50 51
f 27 51 52
f 28 53 30
f 30 53 54
f 30 54 55
f 31 56 57
f 31 57 58
f 31 58 32
f 32 58 33
f 33 58 59
f 33 35 34
f 46 60 61
f 46 61 47
f 46 62 63
f 46 63 60
f 47 61 64
f 47 64 48
f 48 65 49
f 48 64 65
f 49 65 66
f 50 67 68
f 50 68 51
f 51 68 52
f 53 69 70
f 53 70 71
f 53 71 54
f 54 71 55
f 56 72 73
f 56 73 74
f 56 74 57
f 57 74 75
f 57 75 76
f 57 76 59
f 57 59 58
f 59 77 78
f 59 76 77
f 60 79 61
f 60 63 79
f 61 79 64
f 62 80 81
f 62 81 82
f 62 82 83
f 62 83 63
f 63 83 82
f 63 82 75
f 63 75 84
f 63 84 85
f 64 79 86
f 64 86 66
f 64 66 65
f 67 87 88
f 67 88 68
f 69 89 70
f 70 89 90
f 70 90 71
f 72 91 73
f 73 91 84
f 73 84 74
f 74 84 75
f 75 82 81
f 75 81 80
f 75 80 92
f 75 92 76
f 76 92 77
f 77 92 78
f 78 92 80
f 84 93 85
f 84 91 93
f 85 93 91
f 87 94 88
f 88 94 95
f 89 95 90
f 90 95 96
f 94 96 95

