v -0.02664274 -0.14666765 -0.15507399
v -0.02664274 -0.14661017 -0.15429259
v -0.02664274 -0.14592041 -0.15641520
v -0.02012663 -0.14893810 -0.15061302
v -0.02033940 -0.14893810 -0.15061302
v -0.02033940 -0.14893810 -0.15050221
v -0.02664274 -0.14652395 -0.15317297
v -0.02664274 -0.14551805 -0.15684088
v -0.02640337 -0.14574797 -0.15667178
v -0.00737367 -0.15238690 -0.14196514
v -0.00881653 -0.15238690 -0.14196514
v -0.01843776 -0.14672513 -0.12754424
v -0.00881653 -0.15238690 -0.14046065
v -0.02664274 -0.14316137 -0.13377211
v -0.02664274 -0.14396609 -0.15700999
v -0.02623715 -0.14370743 -0.15679424
v -0.02506690 -0.14456963 -0.15593703
v -0.02243386 -0.14431097 -0.15422844
v -0.01206128 -0.14738614 -0.14681681
v -0.01359057 -0.14738614 -0.14781980
v -0.01402276 -0.14893810 -0.14755157
v -0.00694813 -0.15043258 -0.14241999
v 0.04020722 -0.15965811 -0.09743704
v 0.04013408 -0.15980181 -0.09743704
v 0.03892395 -0.16204353 -0.09743704
v 0.03857819 -0.16227344 -0.09743704
v 0.02590503 -0.16126754 -0.10771186
v 0.02526671 -0.16126754 -0.10771186
v -0.01809201 -0.14643773 -0.12545662
v -0.02664274 -0.14281650 -0.13223846
v 0.00384334 -0.15537585 -0.12559074
v 0.02526671 -0.16126754 -0.10718121
v -0.02664274 -0.14227043 -0.15699250
v -0.02623715 -0.14255783 -0.15679424
v -0.02050563 -0.13816062 -0.15349953
v -0.02065856 -0.14123579 -0.15334208
v -0.00996682 -0.14738614 -0.14527734
v -0.01335786 -0.14431097 -0.14798891
v -0.01182856 -0.14431097 -0.14688679
v 0.04073914 -0.15350776 -0.09803767
v 0.04051972 -0.15658294 -0.09791521
v 0.04088543 -0.15735891 -0.09743704
v -0.00843088 -0.14738614 -0.14406442
v 0.03571243 -0.16235966 -0.09743704
v -0.02664274 -0.14120706 -0.13186526
v -0.02664274 -0.14255783 -0.13205770
v -0.02654965 -0.14281650 -0.13208685
v 0.02876414 -0.16126754 -0.10137902
v 0.03401027 -0.16172739 -0.09771694
v 0.02667632 -0.15235815 -0.09743704
v 0.02550608 -0.15215698 -0.09816013
v -0.02664274 0.13124774 -0.11138560
v 0.03037986 -0.16158368 -0.10068510
v -0.02664274 0.00835568 -0.13530575
v -0.00950803 0.09196022 -0.12110644
v -0.00615689 0.09221887 -0.12036586
v -0.00446802 0.09135668 -0.12002764
v -0.00398929 0.08888504 -0.12019092
v -0.00029904 0.09811057 -0.11778841
v 0.00178212 0.09811057 -0.11705366
v 0.00226086 0.09503539 -0.11724609
v 0.00466783 0.08888504 -0.11698952
v 0.00503353 0.08580987 -0.11717029
v 0.01061212 0.08828150 -0.11385808
v 0.01078499 0.08580987 -0.11397471
v 0.01967483 0.12745407 -0.10455710
v 0.02326534 0.12877611 -0.10191551
v 0.02705532 0.12265449 -0.09937304
v 0.02878408 0.11650414 -0.09831174
v 0.03375761 0.05514433 -0.09743704
v 0.04127107 -0.15350776 -0.09743704
v 0.04125778 -0.15462862 -0.09743704
v 0.03387064 0.05206916 -0.09743704
v 0.04103171 -0.15658294 -0.09743704
v 0.03471507 -0.16195730 -0.09743704
v 0.02654334 -0.15112235 -0.09743704
v 0.02297278 0.13124774 -0.09743704
v -0.02664274 0.13124774 -0.11443539
v 0.02332518 -0.08599760 -0.09743704
v -0.02664274 0.05819077 -0.12729932
v -0.02484748 0.05819077 -0.12735180
v -0.01393633 0.10282392 -0.11989935
v -0.01257326 0.09811057 -0.12051165
v -0.01257326 0.09503539 -0.12097815
v -0.01077801 0.12124623 -0.11683208
v -0.00770613 0.11848720 -0.11686706
v -0.00485367 0.11506714 -0.11682624
v -0.00068469 0.12572967 -0.11410301
v 0.00154941 0.12202222 -0.11385808
v 0.00143637 0.10015111 -0.11690205
v 0.00558540 0.13124774 -0.11116402
v 0.00759343 0.12797139 -0.11077331
v 0.00440187 0.09081062 -0.11686123
v 0.01196853 0.12877611 -0.10866820
v 0.01423587 0.12572967 -0.10800342
v 0.00875702 0.09196022 -0.11450537
v 0.01577181 0.12572967 -0.10710539
v 0.01832506 0.12860367 -0.10523936
v 0.01785963 0.13124774 -0.10519272
v 0.02313900 0.13124774 -0.10181054
v 0.02915643 0.12581589 -0.09743704
v 0.02940910 0.12265449 -0.09743704
v 0.02834524 0.13124774 -0.09743704
v -0.01257326 0.13124774 -0.11477944
v -0.01146287 0.12124623 -0.11683208
v -0.02484748 0.07968825 -0.12382384
v -0.02484748 0.07661309 -0.12437782
v -0.02664274 0.07661309 -0.12425536
v -0.02178225 0.07968825 -0.12383551
v -0.00950803 0.13124774 -0.11480276
v -0.00888302 0.13124774 -0.11475611
v -0.00643615 0.13124774 -0.11454618
v -0.00643615 0.12877611 -0.11499520
v -0.00337092 0.12877611 -0.11440041
v -0.00337092 0.12572967 -0.11487858
v -0.00140944 0.12877611 -0.11387558
v 0.00347099 0.13124774 -0.11188709
v 0.01209486 0.13124774 -0.10824834
v 0.01384358 0.12877611 -0.10778767
v 0.01238077 0.13124774 -0.10811422
v 0.01537951 0.12877611 -0.10693629
v 0.01267998 0.13124774 -0.10796843
v 0.01356431 0.13052925 -0.10764189
v 0.02345151 0.13124774 -0.10155396
v 0.02875749 0.12877611 -0.09743704
v -0.01195490 0.13124774 -0.11479110
v -0.00344406 0.13124774 -0.11400387
v -0.00299857 0.13124774 -0.11389307
v -0.00181503 0.13035680 -0.11374729
v 0.00276619 0.13124774 -0.11210869
f 1 2 7
f 1 7 14
f 1 14 30
f 1 30 46
f 1 46 45
f 1 45 52
f 1 52 78
f 1 78 108
f 1 108 80
f 1 80 54
f 1 54 33
f 1 33 15
f 1 15 8
f 1 8 3
f 1 3 4
f 1 4 5
f 1 5 6
f 1 6 2
f 2 6 7
f 3 8 9
f 3 9 4
f 4 9 10
f 4 10 11
f 4 11 5
f 5 11 13
f 5 13 6
f 6 12 7
f 6 13 12
f 7 12 14
f 8 15 16
f 8 16 9
f 9 16 17
f 9 17 18
f 9 18 19
f 9 19 20
f 9 20 21
f 9 21 10
f 10 21 22
f 10 22 23
f 10 23 24
f 10 24 25
f 10 25 26
f 10 26 27
f 10 27 28
f 10 28 11
f 11 28 32
f 11 32 13
f 12 29 30
f 12 30 14
f 12 13 31
f 12 31 32
f 12 32 29
f 13 32 31
f 15 33 34
f 15 34 16
f 16 18 17
f 16 34 35
f 16 35 36
f 16 36 18
f 18 36 19
f 19 37 22
f 19 22 20
f 19 36 38
f 19 38 39
f 19 39 37
f 20 22 21
f 22 40 41
f 22 41 42
f 22 42 23
f 22 37 43
f 22 43 40
f 23 42 74
f 23 74 72
f 23 72 71
f 23 71 73
f 23 73 70
f 23 70 102
f 23 102 101
f 23 101 125
f 23 125 103
f 23 103 77
f 23 77 79
f 23 79 76
f 23 76 50
f 23 50 75
f 23 75 44
f 23 44 26
f 23 26 25
f 23 25 24
f 26 44 27
f 27 44 28
f 28 44 32
f 29 45 46
f 29 46 47
f 29 47 30
f 29 32 48
f 29 48 49
f 29 49 50
f 29 50 51
f 29 51 52
f 29 52 45
f 30 47 46
f 32 44 53
f 32 53 48
f 33 35 34
f 33 54 55
f 33 55 56
f 33 56 57
f 33 57 58
f 33 58 59
f 33 59 60
f 33 60 61
f 33 61 62
f 33 62 63
f 33 63 35
f 35 39 38
f 35 38 36
f 35 63 64
f 35 64 65
f 35 65 66
f 35 66 67
f 35 67 68
f 35 68 39
f 37 39 43
f 39 68 69
f 39 69 70
f 39 70 43
f 40 71 72
f 40 72 41
f 40 43 73
f 40 73 71
f 41 72 74
f 41 74 42
f 43 70 73
f 44 75 48
f 44 48 53
f 48 75 49
f 49 75 50
f 50 76 52
f 50 52 51
f 52 77 103
f 52 103 124
f 52 124 100
f 52 100 99
f 52 99 122
f 52 122 120
f 52 120 118
f 52 118 91
f 52 91 117
f 52 117 130
f 52 130 128
f 52 128 127
f 52 127 112
f 52 112 111
f 52 111 110
f 52 110 126
f 52 126 104
f 52 104 78
f 52 76 79
f 52 79 77
f 54 80 81
f 54 81 82
f 54 82 83
f 54 83 84
f 54 84 55
f 55 84 85
f 55 85 86
f 55 86 87
f 55 87 56
f 56 87 57
f 57 87 88
f 57 88 59
f 57 59 58
f 59 88 89
f 59 89 90
f 59 90 60
f 60 90 91
f 60 91 92
f 60 92 61
f 61 92 93
f 61 93 62
f 62 93 92
f 62 92 94
f 62 94 95
f 62 95 63
f 63 95 96
f 63 96 64
f 64 96 95
f 64 95 97
f 64 97 66
f 64 66 65
f 66 97 98
f 66 98 99
f 66 99 100
f 66 100 67
f 67 100 101
f 67 101 68
f 68 101 102
f 68 102 69
f 69 102 70
f 78 104 105
f 78 105 106
f 78 106 107
f 78 107 108
f 80 108 107
f 80 107 81
f 81 107 109
f 81 109 82
f 82 109 85
f 82 85 83
f 83 85 84
f 85 105 110
f 85 110 111
f 85 111 112
f 85 112 113
f 85 113 86
f 85 109 107
f 85 107 105
f 86 113 114
f 86 114 115
f 86 115 87
f 87 115 88
f 88 115 116
f 88 116 117
f 88 117 91
f 88 91 89
f 89 91 90
f 91 118 92
f 92 118 94
f 94 119 95
f 94 118 120
f 94 120 119
f 95 119 121
f 95 121 99
f 95 99 97
f 97 99 98
f 99 121 119
f 99 119 123
f 99 123 122
f 100 124 101
f 101 124 125
f 103 125 124
f 104 126 105
f 105 126 110
f 105 107 106
f 112 127 113
f 113 127 114
f 114 127 128
f 114 128 129
f 114 129 115
f 115 129 116
f 116 129 117
f 117 129 130
f 119 120 122
f 119 122 123
f 128 130 129

