v 0.03184977 0.14414265 -0.08760466
v 0.03186263 0.14982544 -0.08760466
v 0.03197832 0.14274242 -0.08760466
v 0.07476445 0.14982363 -0.03429606
v 0.03676661 0.14982544 -0.08760466
v 0.07475802 0.14982544 -0.03430650
v 0.03214543 0.14107486 -0.08760466
v 0.03282029 0.13800707 -0.08760466
v 0.03438211 0.13124955 -0.08760466
v 0.03511481 0.13124955 -0.08685846
v 0.03542975 0.13124955 -0.08654537
v 0.03665092 0.13124955 -0.08536607
v 0.03823202 0.13124955 -0.08384238
v 0.03855981 0.13124955 -0.08353450
v 0.06243058 0.13124955 -0.06140434
v 0.09243936 0.13124955 -0.03429606
v 0.07922496 0.14982544 -0.03429606
v 0.03924753 0.13124955 -0.08760466
v 0.05055304 0.14982544 -0.07404791
v 0.05065588 0.14944538 -0.07415227
v 0.05627328 0.14510827 -0.07056741
v 0.05662678 0.14306248 -0.07092224
v 0.05688387 0.14107486 -0.07116749
v 0.05552773 0.13800707 -0.07300950
v 0.05399161 0.13800707 -0.07431926
v 0.09751045 0.13124955 -0.03429606
v 0.08272138 0.14982544 -0.03429606
v 0.05419086 0.13493927 -0.07447580
v 0.05572054 0.13493927 -0.07316083
v 0.05424870 0.13124955 -0.07454885
v 0.05252620 0.14982544 -0.07180933
v 0.09029266 0.14267332 -0.03709821
v 0.08426391 0.14279698 -0.04335477
v 0.09295354 0.13871446 -0.03665467
v 0.09619929 0.13690870 -0.03429606
v 0.09677775 0.13493927 -0.03432215
v 0.08749681 0.13441918 -0.04349044
v 0.05718595 0.13800707 -0.07147536
v 0.08777319 0.13186966 -0.04376178
v 0.08615352 0.13186966 -0.04529592
v 0.09742047 0.13186966 -0.03429606
v 0.08781174 0.13124955 -0.04379831
v 0.08373688 0.14915624 -0.03429606
v 0.08192439 0.14982544 -0.03534491
v 0.05577839 0.13124955 -0.07320257
v 0.08651987 0.13124955 -0.04502457
v 0.08618566 0.13124955 -0.04533245
v 0.08496448 0.13124955 -0.04645435
v 0.05784796 0.14982544 -0.06564148
v 0.06259769 0.14872526 -0.06155045
v 0.08689266 0.14549380 -0.03668076
v 0.09123746 0.14353892 -0.03429606
v 0.09232367 0.14262240 -0.03429606
v 0.09285070 0.14199866 -0.03429606
v 0.09405902 0.14047112 -0.03429606
v 0.09448965 0.13988375 -0.03429606
v 0.09540875 0.13834712 -0.03429606
v 0.09079399 0.14107486 -0.03759393
v 0.05999466 0.14982544 -0.06310024
v 0.06184570 0.14982544 -0.06086165
v 0.06268767 0.14982544 -0.05983368
v 0.09680345 0.13493927 -0.03429606
v 0.09681632 0.13487744 -0.03429606
v 0.08403253 0.14895985 -0.03429606
v 0.06318900 0.14982544 -0.05919706
v 0.08439246 0.14869799 -0.03429606
f 1 2 5
f 1 5 18
f 1 18 9
f 1 9 8
f 1 8 7
f 1 7 3
f 1 3 4
f 1 4 2
f 2 4 6
f 2 6 17
f 2 17 27
f 2 27 44
f 2 44 65
f 2 65 61
f 2 61 60
f 2 60 59
f 2 59 49
f 2 49 31
f 2 31 19
f 2 19 5
f 3 7 4
f 4 7 8
f 4 8 9
f 4 9 10
f 4 10 11
f 4 11 12
f 4 12 13
f 4 13 14
f 4 14 15
f 4 15 16
f 4 16 26
f 4 26 41
f 4 41 63
f 4 63 62
f 4 62 35
f 4 35 57
f 4 57 56
f 4 56 55
f 4 55 54
f 4 54 53
f 4 53 52
f 4 52 66
f 4 66 64
f 4 64 43
f 4 43 27
f 4 27 17
f 4 17 6
f 5 19 20
f 5 20 21
f 5 21 22
f 5 22 23
f 5 23 24
f 5 24 25
f 5 25 18
f 9 18 30
f 9 30 45
f 9 45 48
f 9 48 47
f 9 47 46
f 9 46 42
f 9 42 26
f 9 26 16
f 9 16 15
f 9 15 14
f 9 14 13
f 9 13 12
f 9 12 11
f 9 11 10
f 18 25 28
f 18 28 29
f 18 29 30
f 19 31 32
f 19 32 33
f 19 33 20
f 20 33 34
f 20 34 35
f 20 35 21
f 21 35 22
f 22 35 36
f 22 36 37
f 22 37 23
f 23 38 24
f 23 37 39
f 23 39 40
f 23 40 38
f 24 38 29
f 24 29 28
f 24 28 25
f 26 42 39
f 26 39 41
f 27 43 44
f 29 45 30
f 29 38 46
f 29 46 47
f 29 47 48
f 29 48 45
f 31 49 50
f 31 50 32
f 32 51 52
f 32 52 53
f 32 53 54
f 32 54 55
f 32 55 56
f 32 56 57
f 32 57 58
f 32 58 33
f 32 50 59
f 32 59 60
f 32 60 61
f 32 61 51
f 33 58 34
f 34 58 35
f 35 58 57
f 35 62 36
f 36 62 63
f 36 63 41
f 36 41 39
f 36 39 37
f 38 40 46
f 39 42 46
f 39 46 40
f 43 64 44
f 44 64 65
f 49 59 50
f 51 66 52
f 51 61 66
f 61 65 64
f 61 64 66

