v -0.04575024 0.14443039 0.06313006
v -0.04575024 0.14443039 0.05845563
v -0.04575024 0.14721373 0.06249007
v -0.06321940 0.15488774 0.04583780
v -0.06025640 0.15212510 0.04899383
v -0.07005492 0.15334948 0.04030378
v -0.08790160 0.15544475 0.02448601
v -0.08814185 0.15334948 0.02469306
v -0.08845645 0.15028161 0.02495659
v -0.08871957 0.14721373 0.02518874
v -0.08716371 0.14443039 0.02690793
v -0.04575024 0.16204785 0.04307706
v -0.10086333 0.14443039 -0.00096925
v -0.04575024 0.15028161 0.06162420
v -0.06931702 0.15787974 0.03966379
v -0.07263468 0.15822809 0.03680266
v -0.07297788 0.15641909 0.03711011
v -0.05172774 0.15334948 0.05574508
v -0.08763276 0.15749172 0.02422248
v -0.08926870 0.15632080 0.02279192
v -0.08968055 0.15334948 0.02314956
v -0.08998944 0.15028161 0.02353857
v -0.09025828 0.14721373 0.02381465
v -0.08891406 0.14443039 0.02537697
v -0.04575024 0.16204785 0.05066282
v -0.09977079 0.14803632 -0.00096925
v -0.09942186 0.14924692 -0.00096925
v -0.09919306 0.15021953 -0.00096925
v -0.09659042 0.16184608 -0.00096925
v -0.09655038 0.16204785 -0.00096925
v -0.10418098 0.14443039 -0.00096925
v -0.04575024 0.15154739 0.06111598
v -0.05123581 0.15521194 0.05531843
v -0.08253043 0.16204785 0.02697067
v -0.08196415 0.16151842 0.02769850
v -0.08524176 0.16198059 0.02481855
v -0.08396046 0.15948697 0.02681381
v -0.08577945 0.15948697 0.02527658
v -0.08731243 0.15948697 0.02392759
v -0.08880537 0.15948697 0.02239035
v -0.09064153 0.15719512 0.02108528
v -0.09110485 0.15334948 0.02161860
v -0.09145377 0.15028161 0.02200134
v -0.09173406 0.14721373 0.02227742
v -0.09044704 0.14443039 0.02397778
v -0.09030404 0.14443039 0.02410954
v -0.04604197 0.16204785 0.05052479
v -0.04575024 0.16155119 0.05145967
v -0.10016547 0.16204785 -0.00096925
v -0.10406658 0.14502880 -0.00096925
v -0.10414094 0.14443039 -0.00080612
v -0.04575024 0.15281316 0.06050736
v -0.04575024 0.15361851 0.05994267
v -0.04575024 0.15511020 0.05888856
v -0.04575024 0.15544648 0.05865014
v -0.04575024 0.15567066 0.05844308
v -0.04940538 0.15736756 0.05441491
v -0.05703599 0.15791595 0.04887462
v -0.07955027 0.16204785 0.02914161
v -0.08522460 0.16204785 0.02479973
v -0.08532184 0.16204785 0.02471189
v -0.08828485 0.16204785 0.02183821
v -0.09033836 0.15948697 0.02072136
v -0.09147666 0.15948697 0.01918414
v -0.09312976 0.15050924 0.01963589
v -0.09326705 0.14721373 0.02043274
v -0.09185990 0.14443039 0.02244683
v -0.09339861 0.14443039 0.02065235
v -0.09325561 0.14443039 0.02082176
v -0.04631654 0.16204785 0.05039302
v -0.04575024 0.16110972 0.05209966
v -0.04631081 0.16194438 0.05055615
v -0.05522844 0.16204785 0.04522291
v -0.10021124 0.16190816 -0.00096925
v -0.09998815 0.16204785 -0.00037946
v -0.10356893 0.14443039 0.00130836
v -0.10335156 0.14668086 0.00045504
v -0.10360897 0.14730341 -0.00096925
v -0.04575024 0.15698818 0.05706271
v -0.04773512 0.15786594 0.05495451
v -0.05685294 0.16089416 0.04569977
v -0.06045660 0.16121837 0.04299550
v -0.07282344 0.16204785 0.03384741
v -0.07317237 0.16159085 0.03409212
v -0.08853653 0.16204785 0.02156213
v -0.08997227 0.16204785 0.01994334
v -0.09115061 0.16184608 0.01868846
v -0.09409074 0.14963837 0.01853160
v -0.09372465 0.16049752 0.01498656
v -0.09308400 0.15948007 0.01647359
v -0.09431954 0.14721373 0.01889551
v -0.09439390 0.14443039 0.01925943
v -0.04731755 0.16077171 0.05165417
v -0.04575024 0.15848159 0.05543764
v -0.05827153 0.16204785 0.04342216
v -0.10346025 0.14797251 -0.00096925
v -0.10009684 0.16131321 -0.00000927
v -0.09848377 0.16204785 0.00401890
v -0.10296261 0.14443039 0.00273892
v -0.09740267 0.16204785 0.00704944
v -0.10308272 0.14872612 -0.00021005
v -0.04575024 0.15837122 0.05557568
v -0.05861473 0.16173054 0.04360411
v -0.05861473 0.16204785 0.04321510
v -0.09086461 0.16204785 0.01892061
v -0.09110485 0.16204785 0.01863199
v -0.09441106 0.16204785 0.01307287
v -0.09459411 0.15948007 0.01382579
v -0.10076036 0.14443039 0.00760786
v -0.10070316 0.14443039 0.00771452
v -0.09449115 0.14443039 0.01911512
v -0.10216751 0.14443039 0.00453340
v -0.09681923 0.16065791 0.00888784
v -0.09665906 0.16204785 0.00856157
f 1 2 12
f 1 12 25
f 1 25 48
f 1 48 71
f 1 71 94
f 1 94 102
f 1 102 79
f 1 79 56
f 1 56 55
f 1 55 54
f 1 54 53
f 1 53 52
f 1 52 32
f 1 32 14
f 1 14 3
f 1 3 4
f 1 4 5
f 1 5 6
f 1 6 7
f 1 7 8
f 1 8 9
f 1 9 10
f 1 10 11
f 1 11 24
f 1 24 46
f 1 46 45
f 1 45 67
f 1 67 69
f 1 69 68
f 1 68 92
f 1 92 111
f 1 111 110
f 1 110 109
f 1 109 112
f 1 112 99
f 1 99 76
f 1 76 51
f 1 51 31
f 1 31 13
f 1 13 2
f 2 13 12
f 3 14 4
f 4 15 16
f 4 16 17
f 4 17 6
f 4 6 5
f 4 14 18
f 4 18 15
f 6 17 7
f 7 19 20
f 7 20 21
f 7 21 22
f 7 22 8
f 7 17 19
f 8 22 9
f 9 22 23
f 9 23 10
f 10 23 24
f 10 24 11
f 12 13 26
f 12 26 27
f 12 27 28
f 12 28 29
f 12 29 30
f 12 30 49
f 12 49 75
f 12 75 98
f 12 98 100
f 12 100 114
f 12 114 107
f 12 107 106
f 12 106 105
f 12 105 86
f 12 86 85
f 12 85 62
f 12 62 61
f 12 61 60
f 12 60 34
f 12 34 59
f 12 59 83
f 12 83 104
f 12 104 95
f 12 95 73
f 12 73 70
f 12 70 47
f 12 47 25
f 13 31 50
f 13 50 78
f 13 78 96
f 13 96 74
f 13 74 49
f 13 49 30
f 13 30 29
f 13 29 28
f 13 28 27
f 13 27 26
f 14 32 18
f 15 18 33
f 15 33 34
f 15 34 35
f 15 35 36
f 15 36 16
f 16 36 37
f 16 37 38
f 16 38 17
f 17 38 19
f 18 32 33
f 19 38 39
f 19 39 40
f 19 40 41
f 19 41 20
f 20 41 21
f 21 41 42
f 21 42 43
f 21 43 22
f 22 43 44
f 22 44 23
f 23 44 45
f 23 45 46
f 23 46 24
f 25 47 48
f 31 51 50
f 32 52 33
f 33 52 53
f 33 53 54
f 33 54 55
f 33 55 56
f 33 56 57
f 33 57 58
f 33 58 59
f 33 59 34
f 34 60 35
f 35 60 36
f 36 60 61
f 36 61 39
f 36 39 38
f 36 38 37
f 39 61 62
f 39 62 40
f 40 62 63
f 40 63 41
f 41 63 64
f 41 64 65
f 41 65 42
f 42 65 66
f 42 66 43
f 43 66 44
f 44 67 45
f 44 66 68
f 44 68 69
f 44 69 67
f 47 70 48
f 48 70 72
f 48 72 73
f 48 73 71
f 49 74 75
f 50 51 76
f 50 76 77
f 50 77 78
f 56 79 80
f 56 80 57
f 57 80 58
f 58 80 81
f 58 81 82
f 58 82 83
f 58 83 84
f 58 84 59
f 59 84 83
f 62 85 63
f 63 85 86
f 63 86 87
f 63 87 64
f 64 88 65
f 64 87 89
f 64 89 90
f 64 90 88
f 65 88 66
f 66 88 91
f 66 91 92
f 66 92 68
f 70 73 72
f 71 93 94
f 71 73 93
f 73 95 93
f 74 96 97
f 74 97 75
f 75 97 98
f 76 99 100
f 76 100 77
f 77 97 101
f 77 101 78
f 77 100 97
f 78 101 96
f 79 102 80
f 80 102 81
f 81 103 82
f 81 102 103
f 82 103 83
f 83 103 104
f 86 105 87
f 87 105 106
f 87 106 107
f 87 107 89
f 88 90 89
f 88 89 108
f 88 108 109
f 88 109 91
f 89 107 108
f 91 109 110
f 91 110 111
f 91 111 92
f 93 102 94
f 93 95 104
f 93 104 102
f 96 101 97
f 97 100 98
f 99 112 100
f 100 109 113
f 100 113 114
f 100 112 109
f 102 104 103
f 107 114 113
f 107 113 108
f 108 113 109

