v -0.01257256 0.16130923 -0.10932898
v -0.01257256 0.16255600 -0.10908499
v -0.01131977 0.16130923 -0.10931837
v 0.03674190 0.14982777 -0.08760399
v 0.03185601 0.14982777 -0.08760399
v -0.01563621 0.16130923 -0.10924411
v -0.01257256 0.16487975 -0.10808786
v -0.00949752 0.16255600 -0.10904256
v -0.01563621 0.16255600 -0.10900013
v -0.01563621 0.16483555 -0.10804542
v -0.00949752 0.16130923 -0.10928655
v 0.03678745 0.15028369 -0.08760399
v 0.05054539 0.14982777 -0.07403648
v -0.00825612 0.16130923 -0.10923350
v -0.00518109 0.16130923 -0.10905317
v -0.00029519 0.16130923 -0.10836366
v 0.00222178 0.16130923 -0.10789691
v 0.00268873 0.16130923 -0.10778022
v 0.00389596 0.16130923 -0.10733469
v 0.00992076 0.16130923 -0.10474636
v 0.01044465 0.16130923 -0.10445995
v 0.06486139 0.14982777 -0.00097986
v 0.06105745 0.15005107 -0.00097986
v 0.05799381 0.15036044 -0.00097986
v -0.02484992 0.16285607 -0.00097986
v -0.02664939 0.16318171 -0.00097986
v -0.02664939 0.16130923 -0.10389773
v -0.02664939 0.16130923 -0.10780144
v -0.02479298 0.16130923 -0.10822575
v -0.02177488 0.16130923 -0.10881979
v -0.01871124 0.16130923 -0.10908499
v -0.01563621 0.16637075 -0.10695280
v -0.01257256 0.16641495 -0.10697402
v -0.00949752 0.16478438 -0.10805603
v -0.00643388 0.16255600 -0.10885162
v -0.01871124 0.16255600 -0.10884102
v -0.01871124 0.16471460 -0.10794995
v -0.01871124 0.16624980 -0.10691037
v 0.03604717 0.15280979 -0.08760399
v 0.03808580 0.15187703 -0.08615071
v 0.01085466 0.16130923 -0.10418415
v 0.01437386 0.16130923 -0.10175493
v 0.05011261 0.15149323 -0.07358034
v 0.05251569 0.14982777 -0.07179822
v -0.00029519 0.16193727 -0.10816210
v 0.00214206 0.16145810 -0.10786509
v 0.00300762 0.16250948 -0.10673004
v 0.00571821 0.16265835 -0.10551014
v 0.00890713 0.16160929 -0.10497974
v 0.00666350 0.16374927 -0.10414171
v 0.00913491 0.16327243 -0.10307032
v 0.01174300 0.16188145 -0.10293241
v 0.07721848 0.14982777 -0.00097986
v -0.02664939 0.16622421 -0.00097986
v -0.02664939 0.16155115 -0.10774840
v -0.02474742 0.16251181 -0.10797116
v -0.02177488 0.16255600 -0.10855460
v -0.01871124 0.16792456 -0.10537223
v -0.01563621 0.16795248 -0.10542527
v -0.01257256 0.16798039 -0.10543588
v -0.00949752 0.16789200 -0.10532980
v -0.00949752 0.16631725 -0.10686794
v -0.00643388 0.16452618 -0.10790752
v -0.00339301 0.16272115 -0.10833183
v -0.02177488 0.16450293 -0.10782265
v -0.02177488 0.16603580 -0.10680429
v -0.02177488 0.16785478 -0.10526614
v 0.03581939 0.15317498 -0.08760399
v 0.01834863 0.16130923 -0.09869986
v 0.01407775 0.16143484 -0.10186101
v 0.05998689 0.14982777 -0.06309974
v 0.05784575 0.14982777 -0.06563503
v 0.03531827 0.15523123 -0.08646895
v 0.03301769 0.15648033 -0.08760399
v 0.01918003 0.16130923 -0.09789366
v 0.03214073 0.15812020 -0.08641591
v 0.08423411 0.14982777 -0.03243229
v 0.06267470 0.14982777 -0.05982190
v -0.00444080 0.16426799 -0.10772718
v -0.00029519 0.16347248 -0.10705888
v 0.00461347 0.16421914 -0.10467211
v 0.00826935 0.16454480 -0.10209438
v 0.00571821 0.16493789 -0.10307032
v 0.01197078 0.16355854 -0.10076840
v 0.06951950 0.15200032 -0.00097986
v 0.08970084 0.14982777 -0.02014834
v -0.02664939 0.16739655 -0.00634746
v -0.00337023 0.16485648 -0.00097986
v -0.02664939 0.16307704 -0.10714375
v -0.02571549 0.16350504 -0.10732408
v -0.02366546 0.16426799 -0.10768475
v -0.02177488 0.16938766 -0.10324004
v -0.01257256 0.16951559 -0.10313396
v -0.00643388 0.16762217 -0.10505399
v -0.00643388 0.16606138 -0.10659214
v -0.00963419 0.16945511 -0.10274147
v -0.02484992 0.16763613 -0.10501156
v -0.02484992 0.16917133 -0.10313396
v 0.01746029 0.16161860 -0.09907114
v 0.01580888 0.16366321 -0.09766028
v 0.01494331 0.16254670 -0.09985612
v 0.01682250 0.16426333 -0.09561296
v 0.07799293 0.15184447 -0.03708916
v 0.08652331 0.14982777 -0.02938782
v -0.00431552 0.16736630 -0.10476758
v 0.00276845 0.16454711 -0.10502217
v 0.00186872 0.16737561 -0.10178676
v 0.00391874 0.16696390 -0.10124576
v 0.00583210 0.16658708 -0.10063050
v 0.00583210 0.16762450 -0.09909235
v 0.00756323 0.16724302 -0.09851952
v 0.00961325 0.16677316 -0.09778758
v 0.01197078 0.16466808 -0.09924086
v 0.01375886 0.16422379 -0.09859378
v 0.01375886 0.16423077 -0.00603983
v 0.03343908 0.15872032 -0.00097986
v 0.08951861 0.14982777 -0.02318220
v 0.08868722 0.15007201 -0.02321402
v 0.08162603 0.15198869 -0.02935600
v -0.02664939 0.16788967 -0.00914794
v -0.02664939 0.17171140 -0.03243229
v -0.00094437 0.16450990 -0.00097986
v 0.01198217 0.16439592 -0.00571098
v -0.02664939 0.16444710 -0.10651789
v -0.02664939 0.16564967 -0.10587080
v -0.02664939 0.16704298 -0.10503277
v -0.02177488 0.17035530 -0.10170189
v -0.02484992 0.17030645 -0.10159581
v -0.01257256 0.17028552 -0.10160642
v -0.01075031 0.17025761 -0.10154277
v -0.00643388 0.16878288 -0.10299606
v -0.02643300 0.17023900 -0.10147913
v -0.02664939 0.16741050 -0.10476758
v 0.01488637 0.16472622 -0.09672679
v 0.01096854 0.16740817 -0.09574026
v 0.01747168 0.16472855 -0.09378840
v 0.08138685 0.15198404 -0.03145636
v 0.08822027 0.14982777 -0.02631153
v -0.00331329 0.16802691 -0.10315518
v -0.00029519 0.16769196 -0.10229594
v 0.00284818 0.16805715 -0.10010010
v 0.00583210 0.16862006 -0.09685408
v 0.00871352 0.16772917 -0.09680104
v 0.00890713 0.16864100 -0.09072272
v -0.00726527 0.17035297 -0.06309974
v -0.00950891 0.17074608 -0.06309974
v 0.01198217 0.16460992 -0.00787499
v -0.02177488 0.17140901 -0.03549797
v -0.02484992 0.17186492 -0.03549797
v -0.02484992 0.17154160 -0.03243229
v 0.01198217 0.16261416 -0.00097986
v 0.00890713 0.16858051 -0.09378840
v -0.02664939 0.17184398 -0.03370524
v 0.01123049 0.16272813 -0.00097986
v -0.02177488 0.17113453 -0.09991977
v -0.02484992 0.17109266 -0.09991977
v -0.02177488 0.17194168 -0.09685408
v -0.01257256 0.17072980 -0.09991977
v -0.00963419 0.17052743 -0.10004706
v -0.00643388 0.17039020 -0.09903931
v -0.00458886 0.17025994 -0.09854074
v -0.00643388 0.16985520 -0.10057746
v -0.00029519 0.16886662 -0.09991977
v -0.02664939 0.16999011 -0.10170189
v -0.02664939 0.17032739 -0.10122454
v 0.01156077 0.16764078 -0.09378840
v 0.02299535 0.16426799 -0.08652199
v 0.01504581 0.16599626 -0.09378840
v 0.00583210 0.16914808 -0.09378840
v -0.01257256 0.17119967 -0.06309974
v -0.02177488 0.17156718 -0.03856366
v -0.02664939 0.17358854 -0.08764642
v -0.02664939 0.17193470 -0.03549797
v -0.02484992 0.17204635 -0.09685408
v -0.02664939 0.17086936 -0.09996220
v -0.02664939 0.17157882 -0.09812703
v -0.02664939 0.17350480 -0.09044691
v -0.00349551 0.16962258 -0.09970761
v -0.02561298 0.17341873 -0.09001199
v -0.02664939 0.17358621 -0.08896181
v -0.02664939 0.17197424 -0.09685408
v -0.02664939 0.17251622 -0.09490223
f 1 2 3
f 1 3 4
f 1 4 5
f 1 5 6
f 1 6 9
f 1 9 2
f 2 7 8
f 2 8 3
f 2 9 10
f 2 10 7
f 3 8 11
f 3 11 4
f 4 12 13
f 4 13 44
f 4 44 72
f 4 72 71
f 4 71 78
f 4 78 77
f 4 77 104
f 4 104 138
f 4 138 117
f 4 117 86
f 4 86 53
f 4 53 22
f 4 22 5
f 4 11 14
f 4 14 15
f 4 15 16
f 4 16 17
f 4 17 18
f 4 18 19
f 4 19 20
f 4 20 21
f 4 21 12
f 5 22 23
f 5 23 24
f 5 24 25
f 5 25 26
f 5 26 27
f 5 27 28
f 5 28 29
f 5 29 30
f 5 30 31
f 5 31 6
f 6 31 36
f 6 36 9
f 7 10 32
f 7 32 33
f 7 33 34
f 7 34 8
f 8 34 35
f 8 35 15
f 8 15 14
f 8 14 11
f 9 36 37
f 9 37 10
f 10 37 38
f 10 38 32
f 12 39 40
f 12 40 13
f 12 21 41
f 12 41 42
f 12 42 39
f 13 40 43
f 13 43 44
f 15 35 16
f 16 35 45
f 16 45 46
f 16 46 17
f 17 46 18
f 18 46 47
f 18 47 19
f 19 47 48
f 19 48 49
f 19 49 20
f 20 49 50
f 20 50 21
f 21 50 51
f 21 51 52
f 21 52 41
f 22 53 85
f 22 85 116
f 22 116 151
f 22 151 154
f 22 154 122
f 22 122 88
f 22 88 54
f 22 54 26
f 22 26 25
f 22 25 24
f 22 24 23
f 26 54 87
f 26 87 120
f 26 120 121
f 26 121 153
f 26 153 173
f 26 173 172
f 26 172 180
f 26 180 177
f 26 177 182
f 26 182 181
f 26 181 176
f 26 176 175
f 26 175 165
f 26 165 164
f 26 164 133
f 26 133 126
f 26 126 125
f 26 125 124
f 26 124 89
f 26 89 55
f 26 55 28
f 26 28 27
f 28 55 29
f 29 56 57
f 29 57 30
f 29 55 56
f 30 57 36
f 30 36 31
f 32 38 58
f 32 58 59
f 32 59 33
f 33 59 60
f 33 60 61
f 33 61 62
f 33 62 34
f 34 62 63
f 34 63 35
f 35 63 64
f 35 64 45
f 36 57 65
f 36 65 37
f 37 65 66
f 37 66 38
f 38 66 67
f 38 67 58
f 39 68 40
f 39 42 69
f 39 69 68
f 40 68 43
f 41 52 70
f 41 70 42
f 42 70 69
f 43 71 72
f 43 72 44
f 43 68 73
f 43 73 74
f 43 74 75
f 43 75 76
f 43 76 77
f 43 77 78
f 43 78 71
f 45 64 79
f 45 79 46
f 46 79 80
f 46 80 47
f 47 81 48
f 47 80 81
f 48 81 49
f 49 81 50
f 50 82 51
f 50 81 83
f 50 83 82
f 51 84 70
f 51 70 52
f 51 82 84
f 53 86 85
f 54 88 87
f 55 89 90
f 55 90 91
f 55 91 56
f 56 91 57
f 57 91 65
f 58 67 92
f 58 92 59
f 59 92 60
f 60 93 61
f 60 92 93
f 61 94 95
f 61 95 62
f 61 93 96
f 61 96 94
f 62 95 63
f 63 95 79
f 63 79 64
f 65 91 66
f 66 91 97
f 66 97 67
f 67 97 98
f 67 98 92
f 68 69 75
f 68 75 73
f 69 99 100
f 69 100 75
f 69 70 99
f 70 84 101
f 70 101 99
f 73 75 74
f 75 100 102
f 75 102 103
f 75 103 77
f 75 77 76
f 77 103 104
f 79 105 106
f 79 106 80
f 79 95 105
f 80 106 81
f 81 106 105
f 81 105 107
f 81 107 108
f 81 108 83
f 82 83 108
f 82 108 109
f 82 109 110
f 82 110 111
f 82 111 112
f 82 112 113
f 82 113 114
f 82 114 84
f 84 114 101
f 85 86 115
f 85 115 116
f 86 117 118
f 86 118 119
f 86 119 115
f 87 88 120
f 88 121 120
f 88 122 123
f 88 123 121
f 89 124 90
f 90 124 91
f 91 124 125
f 91 125 126
f 91 126 97
f 92 127 93
f 92 98 128
f 92 128 127
f 93 129 130
f 93 130 96
f 93 127 129
f 94 131 105
f 94 105 95
f 94 96 131
f 96 130 131
f 97 132 98
f 97 126 133
f 97 133 132
f 98 132 128
f 99 101 114
f 99 114 100
f 100 114 134
f 100 134 102
f 102 134 135
f 102 135 136
f 102 136 103
f 103 137 104
f 103 136 137
f 104 137 138
f 105 131 139
f 105 139 140
f 105 140 107
f 107 141 110
f 107 110 108
f 107 140 141
f 108 110 109
f 110 142 143
f 110 143 135
f 110 135 111
f 110 141 142
f 111 135 112
f 112 135 114
f 112 114 113
f 114 135 134
f 115 144 145
f 115 145 146
f 115 146 147
f 115 147 148
f 115 148 149
f 115 149 150
f 115 150 123
f 115 123 151
f 115 151 116
f 115 119 144
f 117 138 137
f 117 137 119
f 117 119 118
f 119 137 152
f 119 152 144
f 121 123 150
f 121 150 149
f 121 149 153
f 122 154 123
f 123 154 151
f 127 155 129
f 127 128 156
f 127 156 155
f 128 132 156
f 129 155 130
f 130 155 157
f 130 157 158
f 130 158 159
f 130 159 160
f 130 160 161
f 130 161 162
f 130 162 131
f 131 162 163
f 131 163 139
f 132 133 164
f 132 164 165
f 132 165 156
f 135 166 137
f 135 137 167
f 135 167 168
f 135 168 136
f 135 143 142
f 135 142 152
f 135 152 166
f 136 167 137
f 136 168 167
f 137 166 152
f 139 163 141
f 139 141 140
f 141 163 142
f 142 163 161
f 142 161 152
f 144 152 169
f 144 169 170
f 144 170 146
f 144 146 145
f 146 170 171
f 146 171 147
f 147 171 148
f 148 171 149
f 149 171 170
f 149 170 172
f 149 172 173
f 149 173 153
f 152 161 169
f 155 156 174
f 155 174 157
f 156 165 175
f 156 175 176
f 156 176 174
f 157 174 177
f 157 177 159
f 157 159 158
f 159 177 160
f 160 177 161
f 161 178 162
f 161 177 179
f 161 179 169
f 161 163 178
f 162 178 163
f 169 179 180
f 169 180 172
f 169 172 170
f 174 176 181
f 174 181 182
f 174 182 177
f 177 180 179

