v 0.03191408 0.15572755 -0.00096238
v 0.03191408 0.15435446 0.00442969
v 0.03191408 0.15887974 -0.00096238
v 0.12897640 0.12516292 -0.00096238
v 0.03191408 0.15411020 0.00586712
v 0.03191408 0.15805456 0.02506262
v 0.03270311 0.15882363 -0.00096238
v 0.13362042 0.12516292 -0.00096238
v 0.13221143 0.12516292 0.06929275
v 0.03191408 0.14738335 0.06929275
v 0.03191408 0.15386925 0.00748337
v 0.03191408 0.15631508 0.03664457
v 0.03960151 0.15635139 0.03509023
v 0.04266747 0.15624576 0.03509023
v 0.04266747 0.15666496 0.03202968
v 0.04573343 0.15646692 0.03202968
v 0.03345833 0.15871801 -0.00096238
v 0.04879938 0.15615665 0.03202968
v 0.05187661 0.15575726 0.03202968
v 0.13358660 0.12573394 -0.00096238
v 0.13374442 0.12573394 -0.00079732
v 0.13374442 0.12516292 -0.00083170
v 0.13664129 0.12516292 0.06929275
v 0.03191408 0.15051242 0.06929275
v 0.03191408 0.15606753 0.03816453
v 0.03191408 0.15238062 0.05977409
v 0.03191408 0.15195483 0.06222941
v 0.03960151 0.15030447 0.06929275
v 0.04573343 0.15599161 0.03509023
v 0.04879938 0.15569784 0.03509023
v 0.08255872 0.15021536 0.01668565
v 0.08255872 0.15016914 0.01361823
v 0.11324083 0.14396380 -0.00096238
v 0.08255872 0.15017905 0.01975308
v 0.07334957 0.14704996 0.06929275
v 0.07598720 0.14667039 0.06929275
v 0.07642681 0.14666708 0.06884570
v 0.13164784 0.13788387 0.05657598
v 0.13471379 0.13800600 0.05043425
v 0.13471379 0.13824036 0.04736682
v 0.13399239 0.13975538 0.02896225
v 0.13431928 0.13982139 0.02589482
v 0.13350770 0.12615313 -0.00096238
v 0.13527739 0.12573394 0.00092897
v 0.13404875 0.12516292 -0.00050845
v 0.13345135 0.12880031 -0.00048782
v 0.13942545 0.12516292 0.06482228
v 0.13862514 0.12593198 0.06573013
v 0.13655112 0.12544677 0.06929275
v 0.03345833 0.15049592 0.06929275
v 0.03652428 0.15043650 0.06929275
v 0.04222786 0.15007343 0.06929275
v 0.04266747 0.15003382 0.06929275
v 0.13164784 0.14037922 0.01975308
v 0.11630679 0.14336637 0.00134163
v 0.11804265 0.14272273 -0.00045343
v 0.11721981 0.14288447 -0.00096238
v 0.07642681 0.14658787 0.06929275
v 0.12858188 0.13745478 0.06271084
v 0.13030649 0.13659990 0.06451279
v 0.13075736 0.13685075 0.06271084
v 0.13419529 0.13707521 0.05657598
v 0.13498432 0.13738217 0.05375615
v 0.13677656 0.13684415 0.05289645
v 0.13779102 0.13763633 0.04429939
v 0.13585226 0.13933620 0.02589482
v 0.13566063 0.13929988 0.02282739
v 0.13412766 0.13977189 0.02282739
v 0.13300047 0.12880031 -0.00096238
v 0.13554791 0.12516292 0.00118345
v 0.13529994 0.12516292 0.00090146
v 0.13643840 0.12775728 0.00266214
v 0.13660748 0.12573394 0.00246269
v 0.13320336 0.13038795 -0.00021959
v 0.13961707 0.12516292 0.06444401
v 0.13923383 0.12709054 0.06414139
v 0.13640459 0.12583626 0.06929275
v 0.13368805 0.13972568 0.01975308
v 0.13339498 0.13965636 0.01788236
v 0.11835827 0.14280525 0.00134163
v 0.11858370 0.14203288 -0.00096238
v 0.13454471 0.13849121 0.01678882
v 0.13637076 0.13657019 0.01491810
v 0.13396985 0.13406824 0.00440906
v 0.13345135 0.13365235 0.00250395
v 0.12715035 0.13652729 -0.00030213
v 0.12409567 0.13646126 0.06929275
v 0.12551593 0.13677153 0.06804102
v 0.12730816 0.13659000 0.06751832
v 0.12842407 0.13681775 0.06563384
v 0.13077990 0.13396923 0.06813730
v 0.13156893 0.13487032 0.06566823
v 0.13353024 0.13372828 0.06477414
v 0.13572827 0.13599917 0.05657598
v 0.13619042 0.13641175 0.05494598
v 0.13356406 0.13673853 0.05866679
v 0.12934837 0.13601567 0.06656233
v 0.13666383 0.13385700 0.05894877
v 0.13796010 0.13512447 0.05380430
v 0.13960580 0.13383720 0.05266948
v 0.13935782 0.13651078 0.04590188
v 0.13950436 0.13665271 0.04429939
v 0.13971852 0.13682434 0.04123196
v 0.13779102 0.13781456 0.04123196
v 0.13983123 0.13692006 0.03816453
v 0.13985378 0.13695308 0.03509023
v 0.13978615 0.13691676 0.03202968
v 0.13779102 0.13801921 0.02589482
v 0.13522104 0.13897642 0.01975308
v 0.13799392 0.13756701 0.02287553
v 0.13734015 0.13744158 0.01975308
v 0.13216635 0.13102499 -0.00096238
v 0.13663002 0.12516292 0.00243518
v 0.13604389 0.12980372 0.00321235
v 0.13871531 0.12880031 0.00679560
v 0.13915492 0.12573394 0.00611472
v 0.13798264 0.12573394 0.00440906
v 0.13696818 0.12516292 0.00289598
v 0.13262850 0.13243110 0.00045442
v 0.13384586 0.13159271 0.00142416
v 0.14233360 0.12516292 0.05885249
v 0.13653984 0.12777048 0.06777279
v 0.13606643 0.12666144 0.06929275
v 0.14273939 0.12516292 0.05799965
v 0.14222088 0.12692550 0.05786898
v 0.14273939 0.12777708 0.05581944
v 0.13972978 0.12791241 0.06209185
v 0.13862514 0.12888282 0.06295156
v 0.13648348 0.13061900 0.06467097
v 0.13591989 0.12981693 0.06672051
v 0.13677656 0.13692006 0.01668565
v 0.12782666 0.13564269 -0.00096238
v 0.13830953 0.13559318 0.01668565
v 0.13774593 0.13489343 0.01372139
v 0.13712598 0.13415407 0.01055079
v 0.13659621 0.13370847 0.00841873
v 0.13867023 0.13252352 0.01055079
v 0.13936908 0.13043086 0.00892767
v 0.13058828 0.13382070 -0.00073542
v 0.12576391 0.13600576 0.06929275
v 0.12824372 0.13489343 0.06929275
v 0.12848043 0.13477130 0.06929275
v 0.13029521 0.13356324 0.06929275
v 0.13197473 0.13210432 0.06929275
v 0.13282012 0.13309454 0.06681680
v 0.13386840 0.13104809 0.06829549
v 0.13472506 0.13185677 0.06574388
v 0.13566063 0.13276447 0.06271084
v 0.13614533 0.13329258 0.06099143
v 0.12862697 0.13467558 0.06929275
v 0.13784738 0.13194589 0.05977409
v 0.13873786 0.13269845 0.05657598
v 0.13952690 0.13059919 0.05854987
v 0.13994396 0.13116692 0.05657598
v 0.14208562 0.12994895 0.05350856
v 0.14238996 0.13033183 0.05196108
v 0.14267176 0.13072792 0.04991843
v 0.14298738 0.13116692 0.04736682
v 0.14219833 0.13316716 0.04429939
v 0.14236741 0.13339491 0.04271753
v 0.14254777 0.13359954 0.04067487
v 0.14146567 0.13474819 0.04151395
v 0.14137548 0.13529282 0.03816453
v 0.14138676 0.13528292 0.03509023
v 0.13967344 0.13682105 0.02896225
v 0.14240123 0.13341470 0.02423731
v 0.13953816 0.13669232 0.02589482
v 0.13941418 0.13657679 0.02393469
v 0.13887313 0.13605528 0.01975308
v 0.13174928 0.13173794 -0.00096238
v 0.13966216 0.12880031 0.00832932
v 0.13918875 0.12516292 0.00607345
v 0.14003414 0.12573394 0.00764843
v 0.13838844 0.12516292 0.00491113
v 0.13479270 0.12895874 0.06929275
v 0.14316771 0.12516292 0.05669978
v 0.14307754 0.12583626 0.05673417
v 0.14408074 0.12573394 0.05350856
v 0.14313391 0.12841412 0.05350856
v 0.13903093 0.12995885 0.06059253
v 0.13697945 0.13122963 0.06271084
v 0.13351897 0.13068501 0.06929275
v 0.13470252 0.12908417 0.06929275
v 0.12995705 0.13412766 -0.00096238
v 0.13995523 0.13405835 0.01668565
v 0.13954944 0.13363915 0.01456046
v 0.13912111 0.13315725 0.01251780
v 0.13972978 0.13098867 0.01055079
v 0.14278447 0.12804444 0.01431974
v 0.13083626 0.13310774 -0.00096238
v 0.14337062 0.12910727 0.05073686
v 0.14562500 0.12764835 0.04359787
v 0.14486978 0.12872438 0.04449197
v 0.14500503 0.12960568 0.04123196
v 0.14329171 0.13163232 0.04429939
v 0.14334807 0.13217033 0.04151395
v 0.14519666 0.13003147 0.03816453
v 0.14395676 0.13186996 0.03816453
v 0.14268302 0.13375798 0.03816453
v 0.14268302 0.13374808 0.03509023
v 0.14527556 0.13018331 0.03509023
v 0.14313391 0.13211093 0.02306123
v 0.14227724 0.13329588 0.02219465
v 0.14047374 0.13452045 0.01975308
v 0.14219833 0.12673736 0.01227020
v 0.14002285 0.12516292 0.00755902
v 0.14241250 0.12516292 0.01200886
v 0.14397930 0.12516292 0.05407252
v 0.14411456 0.12516292 0.05350856
v 0.14563626 0.12516292 0.04631454
v 0.14583916 0.12589898 0.04449197
v 0.14200671 0.13286018 0.01975308
v 0.14262668 0.13074113 0.01757287
v 0.14315645 0.12896204 0.01660312
v 0.14409201 0.12880031 0.01975308
v 0.14405820 0.12573394 0.01668565
v 0.14297609 0.12572074 0.01342565
v 0.14641402 0.12573394 0.04123196
v 0.14581662 0.12807084 0.04123196
v 0.14600824 0.12849663 0.03816453
v 0.14614349 0.12864847 0.03509023
v 0.14609841 0.12846033 0.03202968
v 0.14492614 0.12932841 0.02589482
v 0.14569263 0.12779358 0.02589482
v 0.14483595 0.12862206 0.02279988
v 0.14299864 0.13132535 0.01975308
v 0.14270557 0.12516292 0.01262097
v 0.14644785 0.12516292 0.04123196
v 0.14554609 0.12747672 0.02380401
v 0.14536574 0.12516292 0.02147249
v 0.14406947 0.12516292 0.01668565
v 0.14302118 0.12516292 0.01346004
v 0.14677472 0.12573394 0.03816453
v 0.14702271 0.12573394 0.03509023
v 0.14695508 0.12573394 0.03202968
v 0.14589552 0.12815666 0.02896225
v 0.14680855 0.12516292 0.03816453
v 0.14659438 0.12573394 0.02896225
v 0.14612095 0.12573394 0.02589482
v 0.14562500 0.12547648 0.02279988
v 0.14557990 0.12516292 0.02239410
v 0.14701144 0.12516292 0.03566107
v 0.14705652 0.12516292 0.03509023
v 0.14698890 0.12516292 0.03202968
v 0.14663947 0.12516292 0.02896225
v 0.14626749 0.12516292 0.02645878
f 1 2 5
f 1 5 11
f 1 11 10
f 1 10 24
f 1 24 27
f 1 27 26
f 1 26 25
f 1 25 12
f 1 12 6
f 1 6 3
f 1 3 7
f 1 7 17
f 1 17 33
f 1 33 57
f 1 57 81
f 1 81 132
f 1 132 184
f 1 184 190
f 1 190 170
f 1 170 112
f 1 112 69
f 1 69 43
f 1 43 20
f 1 20 8
f 1 8 4
f 1 4 2
f 2 4 5
f 3 6 7
f 4 8 22
f 4 22 45
f 4 45 71
f 4 71 70
f 4 70 113
f 4 113 118
f 4 118 174
f 4 174 172
f 4 172 206
f 4 206 207
f 4 207 227
f 4 227 232
f 4 232 231
f 4 231 230
f 4 230 241
f 4 241 246
f 4 246 245
f 4 245 244
f 4 244 243
f 4 243 242
f 4 242 237
f 4 237 228
f 4 228 210
f 4 210 209
f 4 209 208
f 4 208 176
f 4 176 124
f 4 124 121
f 4 121 75
f 4 75 47
f 4 47 23
f 4 23 9
f 4 9 10
f 4 10 11
f 4 11 5
f 6 12 13
f 6 13 14
f 6 14 15
f 6 15 16
f 6 16 7
f 7 16 18
f 7 18 19
f 7 19 17
f 8 20 21
f 8 21 22
f 9 23 49
f 9 49 77
f 9 77 123
f 9 123 175
f 9 175 183
f 9 183 182
f 9 182 144
f 9 144 143
f 9 143 150
f 9 150 142
f 9 142 141
f 9 141 140
f 9 140 87
f 9 87 58
f 9 58 36
f 9 36 35
f 9 35 53
f 9 53 52
f 9 52 28
f 9 28 51
f 9 51 50
f 9 50 24
f 9 24 10
f 12 25 13
f 13 25 26
f 13 26 14
f 14 26 27
f 14 27 28
f 14 28 29
f 14 29 16
f 14 16 15
f 16 29 30
f 16 30 18
f 17 19 31
f 17 31 32
f 17 32 33
f 18 30 19
f 19 34 31
f 19 30 35
f 19 35 36
f 19 36 37
f 19 37 38
f 19 38 39
f 19 39 40
f 19 40 41
f 19 41 42
f 19 42 34
f 20 43 21
f 21 44 45
f 21 45 22
f 21 43 46
f 21 46 44
f 23 47 48
f 23 48 49
f 24 50 27
f 27 50 51
f 27 51 28
f 28 52 29
f 29 52 53
f 29 53 30
f 30 53 35
f 31 34 42
f 31 42 54
f 31 54 55
f 31 55 33
f 31 33 32
f 33 55 56
f 33 56 57
f 36 58 37
f 37 58 59
f 37 59 38
f 38 59 60
f 38 60 61
f 38 61 62
f 38 62 63
f 38 63 39
f 39 63 64
f 39 64 65
f 39 65 40
f 40 65 41
f 41 65 66
f 41 66 42
f 42 66 67
f 42 67 68
f 42 68 54
f 43 69 46
f 44 70 71
f 44 71 45
f 44 46 72
f 44 72 73
f 44 73 70
f 46 69 74
f 46 74 72
f 47 75 76
f 47 76 48
f 48 76 49
f 49 76 77
f 54 68 67
f 54 67 78
f 54 78 79
f 54 79 80
f 54 80 55
f 55 80 56
f 56 81 57
f 56 80 79
f 56 79 82
f 56 82 83
f 56 83 84
f 56 84 85
f 56 85 86
f 56 86 81
f 58 87 88
f 58 88 89
f 58 89 90
f 58 90 59
f 59 90 60
f 60 91 92
f 60 92 93
f 60 93 94
f 60 94 95
f 60 95 96
f 60 96 62
f 60 62 61
f 60 90 89
f 60 89 97
f 60 97 91
f 62 96 64
f 62 64 63
f 64 95 98
f 64 98 99
f 64 99 100
f 64 100 101
f 64 101 65
f 64 96 95
f 65 101 102
f 65 102 103
f 65 103 104
f 65 104 66
f 66 104 105
f 66 105 106
f 66 106 107
f 66 107 108
f 66 108 67
f 67 109 79
f 67 79 78
f 67 108 110
f 67 110 111
f 67 111 109
f 69 112 74
f 70 73 113
f 72 114 115
f 72 115 116
f 72 116 117
f 72 117 73
f 72 74 114
f 73 118 113
f 73 117 118
f 74 112 119
f 74 119 120
f 74 120 114
f 75 121 76
f 76 122 123
f 76 123 77
f 76 121 124
f 76 124 125
f 76 125 126
f 76 126 127
f 76 127 128
f 76 128 129
f 76 129 130
f 76 130 122
f 79 109 131
f 79 131 82
f 81 86 132
f 82 131 83
f 83 131 133
f 83 133 134
f 83 134 135
f 83 135 136
f 83 136 84
f 84 136 85
f 85 136 137
f 85 137 138
f 85 138 114
f 85 114 120
f 85 120 119
f 85 119 139
f 85 139 86
f 86 139 132
f 87 140 89
f 87 89 88
f 89 140 141
f 89 141 142
f 89 142 97
f 91 97 143
f 91 143 144
f 91 144 145
f 91 145 92
f 92 145 93
f 93 145 146
f 93 146 147
f 93 147 148
f 93 148 149
f 93 149 94
f 94 149 95
f 95 149 98
f 97 150 143
f 97 142 150
f 98 149 151
f 98 151 152
f 98 152 100
f 98 100 99
f 100 152 153
f 100 153 154
f 100 154 126
f 100 126 155
f 100 155 156
f 100 156 157
f 100 157 101
f 101 157 158
f 101 158 159
f 101 159 160
f 101 160 161
f 101 161 102
f 102 161 162
f 102 162 103
f 103 105 104
f 103 162 161
f 103 161 163
f 103 163 105
f 105 163 106
f 106 163 164
f 106 164 107
f 107 165 108
f 107 164 166
f 107 166 165
f 108 165 167
f 108 167 110
f 109 111 131
f 110 167 168
f 110 168 111
f 111 168 169
f 111 169 133
f 111 133 131
f 112 170 119
f 114 138 115
f 115 138 171
f 115 171 116
f 116 172 117
f 116 171 173
f 116 173 172
f 117 174 118
f 117 172 174
f 119 170 139
f 122 130 175
f 122 175 123
f 124 176 177
f 124 177 125
f 125 177 126
f 126 177 178
f 126 178 179
f 126 179 156
f 126 156 155
f 126 154 153
f 126 153 180
f 126 180 127
f 127 180 128
f 128 180 129
f 129 180 181
f 129 181 149
f 129 149 148
f 129 148 147
f 129 147 146
f 129 146 130
f 130 146 182
f 130 182 183
f 130 183 175
f 132 139 184
f 133 169 185
f 133 185 186
f 133 186 134
f 134 186 135
f 135 186 187
f 135 187 136
f 136 187 137
f 137 187 188
f 137 188 138
f 138 188 189
f 138 189 171
f 139 190 184
f 139 170 190
f 144 182 145
f 145 182 146
f 149 181 151
f 151 181 153
f 151 153 152
f 153 181 180
f 156 179 157
f 157 179 191
f 157 191 158
f 158 191 192
f 158 192 193
f 158 193 194
f 158 194 195
f 158 195 160
f 158 160 159
f 160 195 161
f 161 195 196
f 161 196 197
f 161 197 198
f 161 198 199
f 161 199 163
f 163 199 164
f 164 199 200
f 164 200 166
f 165 166 167
f 166 200 201
f 166 201 202
f 166 202 203
f 166 203 167
f 167 203 168
f 168 203 204
f 168 204 169
f 169 204 185
f 171 189 205
f 171 205 173
f 172 173 206
f 173 205 207
f 173 207 206
f 176 208 177
f 177 208 178
f 178 208 209
f 178 209 210
f 178 210 211
f 178 211 192
f 178 192 179
f 179 192 191
f 185 204 212
f 185 212 186
f 186 212 187
f 187 212 213
f 187 213 188
f 188 213 189
f 189 213 214
f 189 214 215
f 189 215 216
f 189 216 217
f 189 217 205
f 192 211 218
f 192 218 219
f 192 219 194
f 192 194 193
f 194 219 220
f 194 220 197
f 194 197 195
f 195 197 196
f 197 220 221
f 197 221 201
f 197 201 198
f 198 201 199
f 199 201 200
f 201 221 222
f 201 222 202
f 202 222 223
f 202 223 224
f 202 224 225
f 202 225 226
f 202 226 203
f 203 226 212
f 203 212 204
f 205 217 207
f 207 217 227
f 210 228 218
f 210 218 211
f 212 226 213
f 213 226 214
f 214 226 215
f 215 225 229
f 215 229 216
f 215 226 225
f 216 229 230
f 216 230 231
f 216 231 232
f 216 232 217
f 217 232 227
f 218 228 237
f 218 237 233
f 218 233 219
f 219 233 220
f 220 233 234
f 220 234 221
f 221 234 235
f 221 235 222
f 222 235 236
f 222 236 223
f 223 236 224
f 224 236 235
f 224 235 229
f 224 229 225
f 229 235 238
f 229 238 239
f 229 239 240
f 229 240 241
f 229 241 230
f 233 237 242
f 233 242 234
f 234 243 244
f 234 244 235
f 234 242 243
f 235 244 245
f 235 245 238
f 238 245 246
f 238 246 239
f 239 246 240
f 240 246 241

