v 0.03189521 0.14443039 0.12036228
v 0.03189521 0.14535347 0.11906774
v 0.03038259 0.14519806 0.11883020
v 0.03042059 0.14443039 0.11989910
v 0.03189521 0.14443039 0.11333133
v 0.03189521 0.14622005 0.11765442
v 0.03038259 0.14618944 0.11728624
v 0.02795023 0.14592334 0.11682306
v 0.02708370 0.14489900 0.11789195
v 0.02714451 0.14443039 0.11852141
v 0.03189521 0.14502851 0.08261839
v -0.04574265 0.14443039 0.05846135
v 0.03189521 0.14888334 0.11070659
v 0.03092987 0.14888805 0.11071847
v 0.02424088 0.14921536 0.10823626
v 0.01287720 0.15191397 0.09820052
v -0.00203620 0.15494226 0.08583696
v 0.02590553 0.14561250 0.11634799
v 0.02671124 0.14443039 0.11829575
v 0.03189521 0.14525222 0.08001741
v -0.04574265 0.14443039 0.06312886
v -0.04574265 0.16523984 -0.00096925
v 0.02424088 0.15599721 -0.00096925
v 0.03189521 0.15435827 0.00443461
v 0.03189521 0.15411337 0.00587168
v 0.03189521 0.15387083 0.00748690
v 0.03189521 0.14990533 0.10567091
v 0.03038259 0.15017848 0.10567091
v 0.02424088 0.15169262 0.10092027
v 0.02424088 0.15018555 0.10567091
v 0.01503593 0.15201288 0.09843805
v -0.00031074 0.15580412 0.08418610
v -0.00031074 0.15506942 0.08613387
v -0.04194209 0.16411896 0.04897193
v -0.04398678 0.16389996 0.04862751
v -0.04574265 0.16364800 0.04818807
v -0.04574265 0.16154986 0.05146602
v -0.04526378 0.16121312 0.05224988
v -0.04574265 0.16110951 0.05210736
v 0.02498579 0.14443039 0.11730999
v -0.04559062 0.14443039 0.06327138
v -0.04574265 0.14721377 0.06248752
v -0.04574265 0.16848713 -0.00096925
v 0.03189521 0.15573113 -0.00096925
v 0.03189521 0.15029858 0.10260675
v 0.03038259 0.15067064 0.10260675
v 0.02646801 0.15191633 0.09887748
v 0.02424088 0.15201759 0.09938818
v -0.02628377 0.16409305 0.05200047
v -0.02791802 0.16409541 0.05200047
v -0.02954466 0.16409305 0.05200047
v -0.02484716 0.16198315 0.05964901
v -0.04019383 0.16418254 0.04917383
v -0.04574265 0.16726498 0.03700030
v -0.04308226 0.16445098 0.04751110
v -0.04574265 0.16437328 0.04669162
v -0.04574265 0.15837086 0.05558721
v -0.03297276 0.15515185 0.06764197
v 0.02332875 0.14443039 0.11621734
v -0.00192978 0.14879385 0.09499383
v -0.00950810 0.14933311 0.08948308
v -0.01120315 0.14885508 0.08891299
v -0.04467089 0.14443039 0.06410274
v -0.04462528 0.14488487 0.06405524
v -0.04431364 0.14721377 0.06379395
v -0.04574265 0.15028209 0.06162053
v -0.04574265 0.16840471 0.02895983
v -0.03712297 0.16817394 -0.00096925
v 0.03189521 0.15888186 -0.00096925
v 0.03189521 0.15805532 0.02506430
v 0.02360239 0.16138031 0.02283149
v 0.02324514 0.16122490 0.02509992
v 0.02117763 0.16176885 0.02283149
v -0.02322812 0.16411660 0.04935198
v -0.02509800 0.16417783 0.05039712
v -0.04574265 0.16820691 0.03203587
v -0.04574265 0.16768885 0.03512379
v -0.04574265 0.16513152 0.04430442
v -0.04574265 0.15698623 0.05707178
v -0.04400199 0.15755610 0.05765374
v -0.04574265 0.15567225 0.05844947
v -0.00192978 0.14575379 0.09805800
v 0.02094200 0.14443039 0.11460212
v -0.03298796 0.15217536 0.07070614
v -0.03317799 0.14443039 0.07399597
v -0.04277821 0.14721377 0.06512413
v -0.04552221 0.15028209 0.06181055
v -0.04508895 0.15218478 0.06141863
v -0.04574265 0.15154663 0.06110983
v -0.00337399 0.16484424 0.00134669
v -0.03405972 0.16794788 -0.00096925
v 0.01196507 0.16261423 -0.00096925
v 0.02347317 0.16135676 0.01975545
v 0.01120496 0.16272962 -0.00096925
v -0.00095684 0.16450985 -0.00096925
v -0.00337399 0.16485837 -0.00096925
v -0.04574265 0.15544855 0.05866325
v -0.04559822 0.15551213 0.05871076
v -0.00246186 0.14443039 0.09848556
v 0.00003891 0.14443039 0.10024329
v 0.00870419 0.14443039 0.10624098
v -0.03503266 0.15104505 0.06996979
v -0.04179766 0.15188337 0.06430464
v -0.03843797 0.15144066 0.06714316
v -0.03102687 0.14443039 0.07574183
v -0.02955986 0.14586682 0.07659695
v -0.03288155 0.14642491 0.07375843
v -0.04372835 0.15028209 0.06334264
v -0.04574265 0.15281352 0.06050413
v -0.04574265 0.15511181 0.05890078
v -0.01414478 0.14573260 0.08881798
v -0.00372365 0.14443039 0.09751167
v -0.03573197 0.14899872 0.07050424
v -0.04219292 0.15028209 0.06462531
v -0.01568021 0.14443039 0.08805788
f 1 2 3
f 1 3 4
f 1 4 10
f 1 10 19
f 1 19 40
f 1 40 59
f 1 59 83
f 1 83 101
f 1 101 100
f 1 100 99
f 1 99 112
f 1 112 115
f 1 115 105
f 1 105 85
f 1 85 63
f 1 63 41
f 1 41 21
f 1 21 12
f 1 12 5
f 1 5 11
f 1 11 20
f 1 20 26
f 1 26 25
f 1 25 24
f 1 24 44
f 1 44 69
f 1 69 70
f 1 70 45
f 1 45 27
f 1 27 13
f 1 13 6
f 1 6 2
f 2 6 7
f 2 7 3
f 3 7 8
f 3 8 9
f 3 9 4
f 4 9 10
f 5 12 11
f 6 13 14
f 6 14 15
f 6 15 7
f 7 15 16
f 7 16 17
f 7 17 8
f 8 18 9
f 8 17 18
f 9 19 10
f 9 18 19
f 11 12 20
f 12 21 42
f 12 42 66
f 12 66 89
f 12 89 109
f 12 109 110
f 12 110 97
f 12 97 81
f 12 81 79
f 12 79 57
f 12 57 39
f 12 39 37
f 12 37 36
f 12 36 56
f 12 56 78
f 12 78 54
f 12 54 77
f 12 77 76
f 12 76 67
f 12 67 43
f 12 43 22
f 12 22 23
f 12 23 24
f 12 24 25
f 12 25 26
f 12 26 20
f 13 27 28
f 13 28 29
f 13 29 14
f 14 30 15
f 14 29 30
f 15 30 16
f 16 30 31
f 16 31 32
f 16 32 33
f 16 33 17
f 17 33 34
f 17 34 35
f 17 35 36
f 17 36 18
f 18 37 38
f 18 38 39
f 18 39 40
f 18 40 19
f 18 36 37
f 21 41 42
f 22 43 68
f 22 68 91
f 22 91 96
f 22 96 95
f 22 95 94
f 22 94 92
f 22 92 69
f 22 69 44
f 22 44 23
f 23 44 24
f 27 45 46
f 27 46 28
f 28 46 47
f 28 47 48
f 28 48 29
f 29 32 30
f 29 48 49
f 29 49 50
f 29 50 51
f 29 51 32
f 30 32 31
f 32 51 52
f 32 52 34
f 32 34 33
f 34 53 54
f 34 54 55
f 34 55 56
f 34 56 35
f 34 52 51
f 34 51 53
f 35 56 36
f 37 39 38
f 39 57 58
f 39 58 40
f 40 58 60
f 40 60 61
f 40 61 62
f 40 62 59
f 41 63 64
f 41 64 42
f 42 64 65
f 42 65 66
f 43 67 68
f 45 70 71
f 45 71 72
f 45 72 46
f 46 72 47
f 47 49 48
f 47 72 73
f 47 73 74
f 47 74 49
f 49 74 75
f 49 75 76
f 49 76 77
f 49 77 50
f 50 77 51
f 51 77 54
f 51 54 53
f 54 78 55
f 55 78 56
f 57 79 80
f 57 80 58
f 58 80 81
f 58 81 62
f 58 62 61
f 58 61 60
f 59 82 83
f 59 62 82
f 62 81 84
f 62 84 82
f 63 85 64
f 64 86 65
f 64 85 86
f 65 86 66
f 66 86 87
f 66 87 88
f 66 88 89
f 67 76 73
f 67 73 90
f 67 90 91
f 67 91 68
f 69 92 93
f 69 93 71
f 69 71 70
f 71 93 73
f 71 73 72
f 73 93 94
f 73 94 95
f 73 95 96
f 73 96 90
f 73 76 74
f 74 76 75
f 79 81 80
f 81 97 98
f 81 98 84
f 82 99 100
f 82 100 101
f 82 101 83
f 82 84 102
f 82 102 99
f 84 98 97
f 84 97 103
f 84 103 104
f 84 104 102
f 85 105 106
f 85 106 107
f 85 107 86
f 86 108 87
f 86 107 108
f 87 108 88
f 88 109 89
f 88 108 103
f 88 103 109
f 90 96 91
f 92 94 93
f 97 110 103
f 99 111 112
f 99 102 113
f 99 113 111
f 102 104 113
f 103 108 114
f 103 114 113
f 103 113 104
f 103 110 109
f 105 115 106
f 106 115 112
f 106 112 111
f 106 111 107
f 107 113 108
f 107 111 113
f 108 113 114

