v -0.10877339 0.12392173 -0.00096925
v -0.10858060 0.12392173 -0.00028337
v -0.10709343 0.13186944 -0.00096925
v -0.10528953 0.12392173 -0.00096925
v -0.10811242 0.12392173 0.00120269
v -0.10690064 0.12904086 0.00160914
v -0.10655639 0.13186944 0.00075814
v -0.10356826 0.14443039 0.00131700
v -0.10413283 0.14443039 -0.00080414
v -0.10424299 0.14414132 -0.00096925
v -0.10264566 0.13437079 -0.00096925
v 0.03190281 0.14442838 0.11333076
v 0.03190281 0.12392173 0.12490174
v -0.10696949 0.12392173 0.00441615
v -0.10323777 0.14310143 0.00318411
v -0.10296237 0.14443039 0.00273956
v -0.10417414 0.14443039 -0.00096925
v -0.10246664 0.13507944 -0.00096925
v 0.03190281 0.14443039 0.11333076
v -0.10194338 0.13724553 -0.00096925
v -0.10181945 0.13800638 -0.00096925
v -0.10135126 0.14106983 -0.00096925
v -0.10085553 0.14443039 -0.00096925
v 0.03190281 0.12392173 0.12878837
v -0.10662524 0.12549160 0.00441615
v -0.10625345 0.12392173 0.00610544
v -0.10322400 0.13078137 0.00922998
v -0.10075914 0.14443039 0.00761690
v -0.10216370 0.14443039 0.00453046
v 0.03190281 0.14443039 0.12035464
v 0.03190281 0.13186944 0.12783577
v 0.03177888 0.12392173 0.12875027
v -0.10472495 0.12392173 0.00914107
v -0.10344433 0.12880197 0.00963643
v -0.10312761 0.12431118 0.01213861
v -0.09447994 0.14443039 0.01912438
v -0.10019456 0.14325199 0.00930619
v -0.10070406 0.14443039 0.00771852
v 0.03190281 0.14307734 0.12239956
v 0.03041563 0.14443039 0.11989739
v 0.03190281 0.13504130 0.12727691
v 0.02839141 0.13424632 0.12587975
v 0.03136577 0.12392173 0.12855975
v -0.10365088 0.12549361 0.01061444
v -0.10316892 0.12392173 0.01220211
v -0.09438354 0.14443039 0.01926410
v -0.10155781 0.12392173 0.01471699
v -0.10023588 0.12392173 0.01667301
v 0.03154478 0.14277420 0.12272980
v 0.03190281 0.14281234 0.12278061
v 0.02713832 0.14443039 0.11852563
v 0.03190281 0.13767314 0.12623540
v 0.03100775 0.13732985 0.12607027
v 0.03014023 0.13513565 0.12647671
v 0.02664260 0.13186944 0.12505416
v 0.02818486 0.13186944 0.12600677
v 0.02895599 0.13629198 0.12547331
v 0.02518296 0.13738205 0.12298383
v 0.02470101 0.13493690 0.12336487
v 0.03030547 0.12392173 0.12796278
v -0.09339209 0.14443039 0.02066125
v -0.09894148 0.12392173 0.01842581
v -0.09759200 0.12880197 0.01904817
v 0.03190281 0.13921490 0.12543520
v 0.03190281 0.14106783 0.12407614
v 0.02730357 0.14321786 0.12017681
v 0.02541705 0.14280832 0.11970687
v 0.02949303 0.14222214 0.12222175
v 0.03045694 0.14114813 0.12346648
v 0.02671145 0.14443039 0.11829701
v 0.03190281 0.13888165 0.12562572
v 0.02792323 0.14017449 0.12302194
v 0.02588524 0.13942769 0.12246306
v 0.02706947 0.13824528 0.12361890
v 0.02625703 0.12392173 0.12554952
v 0.02744127 0.12392173 0.12634970
v 0.01712740 0.12392173 0.11905909
v 0.02602294 0.12392173 0.12538439
v 0.02220860 0.14002794 0.11980847
v 0.02163026 0.13800638 0.12025302
v 0.01950964 0.13397933 0.11957985
v 0.01346453 0.12392173 0.11644260
v 0.01402911 0.12392173 0.11684904
v 0.01634250 0.13701668 0.11659502
v 0.01606710 0.13493690 0.11681094
v -0.09325439 0.14443039 0.02082637
v -0.09636645 0.12880197 0.02057234
v -0.09789494 0.12392173 0.01969594
v -0.09789494 0.12573250 0.01937841
v 0.02499018 0.14443039 0.11730630
v 0.02432921 0.14359728 0.11799217
v 0.02179550 0.14309942 0.11700146
v 0.01975751 0.14250520 0.11632829
v 0.02337907 0.14207358 0.11904639
v 0.02432921 0.14105979 0.12036733
v 0.01679692 0.13906233 0.11621398
v 0.01075181 0.14218802 0.11005379
v -0.00197184 0.12392173 0.10423654
v 0.01013215 0.14014035 0.11053644
v -0.00478096 0.14223419 0.09787314
v -0.00186168 0.13957223 0.10107389
v -0.01104639 0.13341120 0.09492641
v -0.00191676 0.12443766 0.10418574
v -0.01123917 0.13186944 0.09507883
v -0.00516653 0.12573250 0.10127711
v -0.09186360 0.14443039 0.02245215
v -0.09661431 0.12573250 0.02091528
v -0.09483796 0.12880197 0.02235054
v -0.09730283 0.12392173 0.02039452
v 0.02428790 0.14443039 0.11684904
v 0.02332398 0.14443039 0.11621398
v 0.02167157 0.14443039 0.11509625
v 0.02094174 0.14443039 0.11460089
v 0.00870005 0.14443039 0.10624337
v 0.00003861 0.14443039 0.10024830
v -0.00246757 0.14443039 0.09849551
v 0.00735057 0.14262364 0.10722138
v -0.00535931 0.12392173 0.10144223
v -0.00411999 0.14414332 0.09739049
v -0.01568694 0.14443039 0.08805495
v -0.02976007 0.14443039 0.07676339
v -0.03104070 0.14443039 0.07573458
v -0.03318885 0.14443039 0.07399448
v -0.03323016 0.14414332 0.07403258
v -0.01459910 0.13186944 0.09227182
v -0.01276767 0.13186944 0.09380869
v -0.01158343 0.12880197 0.09537095
v -0.09317177 0.13186944 0.02355717
v -0.09044528 0.14443039 0.02398902
v -0.09673825 0.12392173 0.02105500
v -0.09344717 0.12880197 0.02387471
v -0.00373443 0.14443039 0.09750479
v -0.01311192 0.12880197 0.09408812
v -0.01006871 0.12573250 0.09717456
v -0.01024772 0.12392173 0.09731428
v -0.04403975 0.14443039 0.06464624
v -0.04467318 0.14443039 0.06410008
v -0.04483842 0.14283844 0.06429060
v -0.01491581 0.12880197 0.09255125
v -0.08873777 0.14443039 0.02552589
v -0.09164328 0.13186944 0.02510675
v -0.09629760 0.12392173 0.02152495
v -0.09361241 0.12573250 0.02406523
v -0.09190491 0.12880197 0.02536077
v -0.09470026 0.12392173 0.02317613
v -0.01185883 0.12573250 0.09565040
v -0.05794764 0.12392173 0.05579336
v -0.05780994 0.12573250 0.05566635
v -0.08701650 0.14443039 0.02703736
v -0.04686264 0.13800638 0.06341421
v -0.09369504 0.12392173 0.02415414
v -0.09208393 0.12573250 0.02552589
v -0.09036265 0.12573250 0.02705006
v -0.06050889 0.12392173 0.05355791
v -0.05933843 0.12573250 0.05433270
v -0.05947613 0.12392173 0.05445971
v -0.09306161 0.12392173 0.02475111
v -0.09216655 0.12392173 0.02558940
v -0.09048658 0.12392173 0.02712627
f 1 2 3
f 1 3 10
f 1 10 17
f 1 17 23
f 1 23 22
f 1 22 21
f 1 21 20
f 1 20 18
f 1 18 11
f 1 11 4
f 1 4 13
f 1 13 24
f 1 24 32
f 1 32 43
f 1 43 60
f 1 60 76
f 1 76 75
f 1 75 78
f 1 78 77
f 1 77 83
f 1 83 82
f 1 82 98
f 1 98 118
f 1 118 135
f 1 135 147
f 1 147 156
f 1 156 154
f 1 154 159
f 1 159 158
f 1 158 157
f 1 157 151
f 1 151 145
f 1 145 142
f 1 142 130
f 1 130 109
f 1 109 88
f 1 88 62
f 1 62 48
f 1 48 47
f 1 47 45
f 1 45 33
f 1 33 26
f 1 26 14
f 1 14 5
f 1 5 2
f 2 5 6
f 2 6 3
f 3 6 7
f 3 7 8
f 3 8 9
f 3 9 10
f 4 11 12
f 4 12 13
f 5 14 6
f 6 14 15
f 6 15 7
f 7 15 8
f 8 15 16
f 8 16 29
f 8 29 28
f 8 28 38
f 8 38 36
f 8 36 46
f 8 46 61
f 8 61 86
f 8 86 106
f 8 106 129
f 8 129 140
f 8 140 149
f 8 149 137
f 8 137 136
f 8 136 123
f 8 123 122
f 8 122 121
f 8 121 120
f 8 120 132
f 8 132 116
f 8 116 115
f 8 115 114
f 8 114 113
f 8 113 112
f 8 112 111
f 8 111 110
f 8 110 90
f 8 90 70
f 8 70 51
f 8 51 40
f 8 40 30
f 8 30 19
f 8 19 23
f 8 23 17
f 8 17 9
f 9 17 10
f 11 18 12
f 12 19 30
f 12 30 39
f 12 39 50
f 12 50 65
f 12 65 64
f 12 64 71
f 12 71 52
f 12 52 41
f 12 41 31
f 12 31 24
f 12 24 13
f 12 18 20
f 12 20 21
f 12 21 22
f 12 22 23
f 12 23 19
f 14 25 15
f 14 26 25
f 15 27 28
f 15 28 29
f 15 29 16
f 15 25 26
f 15 26 27
f 24 31 32
f 26 33 34
f 26 34 27
f 27 34 35
f 27 35 36
f 27 36 37
f 27 37 28
f 28 37 38
f 30 40 39
f 31 41 42
f 31 42 43
f 31 43 32
f 33 44 34
f 33 45 35
f 33 35 44
f 34 44 35
f 35 45 36
f 36 38 37
f 36 45 47
f 36 47 48
f 36 48 46
f 39 49 50
f 39 40 49
f 40 51 49
f 41 52 53
f 41 53 54
f 41 54 42
f 42 55 56
f 42 56 43
f 42 54 57
f 42 57 58
f 42 58 59
f 42 59 55
f 43 56 60
f 46 48 61
f 48 62 63
f 48 63 61
f 49 64 65
f 49 65 50
f 49 51 66
f 49 66 67
f 49 67 68
f 49 68 69
f 49 69 64
f 51 70 67
f 51 67 66
f 52 71 53
f 53 72 73
f 53 73 74
f 53 74 57
f 53 57 54
f 53 71 72
f 55 75 76
f 55 76 56
f 55 59 77
f 55 77 78
f 55 78 75
f 56 76 60
f 57 74 58
f 58 73 79
f 58 79 80
f 58 80 59
f 58 74 73
f 59 81 82
f 59 82 83
f 59 83 77
f 59 80 84
f 59 84 85
f 59 85 81
f 61 63 87
f 61 87 86
f 62 88 89
f 62 89 63
f 63 89 87
f 64 69 72
f 64 72 71
f 67 90 91
f 67 91 92
f 67 92 93
f 67 93 94
f 67 94 95
f 67 95 73
f 67 73 72
f 67 72 68
f 67 70 90
f 68 72 69
f 73 95 79
f 79 96 80
f 79 95 94
f 79 94 93
f 79 93 97
f 79 97 96
f 80 96 84
f 81 85 82
f 82 85 98
f 84 96 99
f 84 99 100
f 84 100 101
f 84 101 102
f 84 102 85
f 85 103 98
f 85 102 104
f 85 104 105
f 85 105 103
f 86 87 106
f 87 89 107
f 87 107 108
f 87 108 106
f 88 109 107
f 88 107 89
f 90 110 91
f 91 110 92
f 92 110 111
f 92 111 112
f 92 112 113
f 92 113 114
f 92 114 115
f 92 115 93
f 93 115 116
f 93 116 117
f 93 117 97
f 96 97 117
f 96 117 99
f 98 103 105
f 98 105 118
f 99 117 100
f 100 119 120
f 100 120 121
f 100 121 122
f 100 122 123
f 100 123 101
f 100 117 119
f 101 123 124
f 101 124 102
f 102 124 125
f 102 125 126
f 102 126 104
f 104 127 105
f 104 126 127
f 105 127 118
f 106 128 129
f 106 108 128
f 107 109 130
f 107 130 131
f 107 131 108
f 108 131 128
f 116 132 119
f 116 119 117
f 118 127 133
f 118 133 134
f 118 134 135
f 119 132 120
f 123 136 124
f 124 136 137
f 124 137 138
f 124 138 125
f 125 139 133
f 125 133 127
f 125 127 126
f 125 138 139
f 128 131 129
f 129 131 141
f 129 141 140
f 130 142 131
f 131 143 144
f 131 144 141
f 131 142 145
f 131 145 143
f 133 139 146
f 133 146 134
f 134 146 135
f 135 146 139
f 135 139 148
f 135 148 147
f 137 149 138
f 138 149 150
f 138 150 139
f 139 150 148
f 140 141 150
f 140 150 149
f 141 144 150
f 143 151 152
f 143 152 144
f 143 145 151
f 144 152 153
f 144 153 154
f 144 154 155
f 144 155 150
f 147 148 155
f 147 155 156
f 148 150 155
f 151 157 152
f 152 157 158
f 152 158 159
f 152 159 153
f 153 159 154
f 154 156 155

