v 0.00220985 -0.12415183 -0.16212521
v 0.00220985 -0.12409761 -0.16236935
v 0.16555386 -0.12889599 -0.16579408
v 0.16566082 -0.12922130 -0.16227905
v 0.16561803 -0.12919419 -0.16212521
v 0.00220985 -0.09696104 -0.16212521
v 0.00220985 -0.12379941 -0.16317871
v 0.17017497 -0.12897732 -0.16587434
v 0.00220985 -0.12314879 -0.16489776
v 0.17943863 -0.12897732 -0.16588438
v 0.18405976 -0.12897732 -0.16588438
v 0.22077204 -0.12895021 -0.16588103
v 0.22077204 -0.12895021 -0.16334928
v 0.22077204 -0.12770318 -0.16212521
v 0.14704795 -0.09696104 -0.16212521
v 0.00220985 -0.09438564 -0.16220546
v 0.16555386 -0.12526332 -0.16688771
v 0.00220985 -0.12236261 -0.16506499
v 0.22077204 -0.12873333 -0.16593788
v 0.22077204 -0.11612743 -0.16212521
v 0.15169047 -0.09698815 -0.16212521
v 0.14704795 -0.09289462 -0.16225229
v 0.00220985 -0.09289462 -0.16225229
v 0.22077204 -0.12526332 -0.16677734
v 0.00220985 -0.12065472 -0.16541949
v 0.00220985 0.13371344 -0.19608818
v 0.01294970 0.13371344 -0.19615507
v 0.01757083 0.13371344 -0.19617179
v 0.11467867 0.13371344 -0.19625206
v 0.17943863 0.13371344 -0.19628884
v 0.15169047 -0.09289462 -0.16227905
v 0.15631160 -0.09823518 -0.16212521
v 0.22077204 -0.05128158 -0.16593454
v 0.14704795 0.09207329 -0.17065691
v 0.14242682 0.09207329 -0.17060007
v 0.00220985 -0.02352148 -0.16588103
v 0.21180791 0.13371344 -0.19622196
v 0.22077204 0.13371344 -0.19617849
v 0.00220985 0.13832205 -0.19615507
v 0.00370745 0.13832205 -0.19615841
v 0.01757083 0.13832205 -0.19618183
v 0.22077204 0.13832205 -0.19627212
v 0.22077204 0.12907772 -0.17809499
v 0.14704795 0.09670901 -0.17101478
v 0.14242682 0.09670901 -0.17095792
v 0.00220985 0.08247654 -0.17336594
v 0.00220985 0.08112107 -0.17326894
v 0.00220985 0.07819325 -0.17306158
v 0.00220985 0.13981307 -0.19582732
v 0.01757083 0.14295777 -0.19516511
v 0.17479610 0.14295777 -0.19529219
v 0.22077204 0.14295777 -0.19529219
v 0.22077204 0.13186999 -0.17841941
v 0.22077204 0.13205976 -0.17844282
v 0.21180791 0.14295777 -0.18072374
v 0.17943863 0.14295777 -0.18071704
v 0.00220985 0.13205976 -0.17844282
v 0.00220985 0.12907772 -0.17809499
v 0.00220985 0.14295777 -0.19512833
v 0.00220985 0.14401504 -0.19456645
v 0.00220985 0.14623802 -0.19337247
v 0.03607672 0.14626512 -0.19338586
v 0.17943863 0.14626512 -0.19345609
v 0.21180791 0.14626512 -0.19346947
v 0.22077204 0.14317464 -0.19517849
v 0.22077204 0.14295777 -0.18082742
v 0.21642904 0.14295777 -0.18076053
v 0.21180791 0.14631933 -0.18225216
v 0.17943863 0.14631933 -0.18224881
v 0.04996150 0.14295777 -0.18075718
v 0.01757083 0.14295777 -0.18079731
v 0.00220985 0.14295777 -0.18085752
v 0.00220985 0.14669887 -0.19232567
v 0.00220985 0.14764770 -0.19011498
v 0.17479610 0.14767481 -0.19011498
v 0.21642904 0.14767481 -0.19011498
v 0.22077204 0.14626512 -0.19341930
v 0.22077204 0.14599402 -0.18226219
v 0.22077204 0.14759348 -0.18548960
v 0.21180791 0.14772903 -0.18548960
v 0.22077204 0.14618380 -0.18235918
v 0.04996150 0.14762059 -0.18548960
v 0.01757083 0.14759348 -0.18548960
v 0.04996150 0.14623802 -0.18231570
v 0.01757083 0.14621090 -0.18234246
v 0.00220985 0.14512652 -0.18189430
v 0.00220985 0.14756637 -0.18548960
v 0.22077204 0.14764770 -0.19011498
v 0.22077204 0.14764770 -0.18982066
v 0.00220985 0.14615668 -0.18238928
f 1 2 3
f 1 3 4
f 1 4 5
f 1 5 14
f 1 14 20
f 1 20 32
f 1 32 21
f 1 21 15
f 1 15 6
f 1 6 16
f 1 16 23
f 1 23 36
f 1 36 48
f 1 48 47
f 1 47 46
f 1 46 58
f 1 58 57
f 1 57 72
f 1 72 86
f 1 86 90
f 1 90 87
f 1 87 74
f 1 74 73
f 1 73 61
f 1 61 60
f 1 60 59
f 1 59 49
f 1 49 39
f 1 39 26
f 1 26 25
f 1 25 18
f 1 18 9
f 1 9 7
f 1 7 2
f 2 7 3
f 3 8 4
f 3 7 9
f 3 9 8
f 4 8 10
f 4 10 11
f 4 11 12
f 4 12 13
f 4 13 5
f 5 13 14
f 6 15 16
f 8 9 17
f 8 17 10
f 9 18 17
f 10 17 11
f 11 17 12
f 12 17 19
f 12 19 24
f 12 24 38
f 12 38 42
f 12 42 52
f 12 52 65
f 12 65 77
f 12 77 88
f 12 88 89
f 12 89 79
f 12 79 81
f 12 81 78
f 12 78 66
f 12 66 54
f 12 54 53
f 12 53 43
f 12 43 33
f 12 33 20
f 12 20 14
f 12 14 13
f 15 21 22
f 15 22 16
f 16 22 23
f 17 24 19
f 17 18 25
f 17 25 26
f 17 26 27
f 17 27 28
f 17 28 29
f 17 29 30
f 17 30 24
f 20 31 32
f 20 33 34
f 20 34 31
f 21 31 22
f 21 32 31
f 22 31 35
f 22 35 23
f 23 35 36
f 24 30 37
f 24 37 38
f 26 39 27
f 27 39 28
f 28 39 40
f 28 40 41
f 28 41 29
f 29 41 30
f 30 41 42
f 30 42 37
f 31 34 35
f 33 43 34
f 34 43 44
f 34 44 45
f 34 45 35
f 35 45 46
f 35 46 47
f 35 47 48
f 35 48 36
f 37 42 38
f 39 49 40
f 40 49 50
f 40 50 41
f 41 50 51
f 41 51 42
f 42 51 52
f 43 53 44
f 44 53 54
f 44 54 45
f 45 54 55
f 45 55 56
f 45 56 57
f 45 57 58
f 45 58 46
f 49 59 50
f 50 59 60
f 50 60 61
f 50 61 62
f 50 62 51
f 51 62 63
f 51 63 64
f 51 64 65
f 51 65 52
f 54 66 67
f 54 67 55
f 55 67 68
f 55 68 56
f 56 68 69
f 56 69 70
f 56 70 57
f 57 70 71
f 57 71 72
f 61 73 62
f 62 73 74
f 62 74 63
f 63 74 64
f 64 74 75
f 64 75 76
f 64 76 77
f 64 77 65
f 66 78 68
f 66 68 67
f 68 79 80
f 68 80 69
f 68 78 81
f 68 81 79
f 69 80 82
f 69 82 83
f 69 83 84
f 69 84 70
f 70 84 85
f 70 85 71
f 71 85 72
f 72 85 86
f 74 87 83
f 74 83 82
f 74 82 80
f 74 80 75
f 75 80 76
f 76 80 88
f 76 88 77
f 79 89 80
f 80 89 88
f 83 87 85
f 83 85 84
f 85 90 86
f 85 87 90

