v -0.22756060 -0.10871626 0.07373896
v -0.23682984 -0.10871626 0.07367932
v -0.22293388 -0.10871626 0.07309042
v -0.22756060 -0.08826784 0.07284443
v -0.23680875 -0.08364505 0.07274007
v -0.23682984 -0.10871626 0.07162936
v -0.23682984 -0.08366369 0.07274007
v -0.22135476 -0.10871626 0.07238226
v -0.22370501 -0.08826784 0.07204680
v -0.22407915 -0.08364505 0.07189026
v -0.22756060 -0.08364505 0.07261334
v -0.23218380 -0.08364505 0.07268043
v -0.23682984 -0.00043471 0.06734306
v -0.23681753 -0.10871626 0.06870722
v -0.23682984 -0.10677767 0.06861031
v -0.22012694 -0.10871626 0.07179336
v -0.22040623 -0.10215487 0.07145044
v -0.22055729 -0.09947067 0.07126408
v -0.22965965 -0.00142265 0.06670943
v -0.23447081 0.07144232 0.06196095
v -0.23189046 -0.00009918 0.06695542
v -0.23680875 0.06896316 0.06220694
v -0.23682984 0.06892588 0.06220694
v -0.22740779 -0.06977666 -0.00241556
v -0.22701608 -0.07439946 -0.00241556
v -0.22331155 -0.10871626 -0.00241556
v -0.23674201 0.08171313 -0.00241556
v -0.23655229 0.07820875 -0.00241556
v -0.23202220 0.00420673 -0.00241556
v -0.23682984 -0.08351456 0.06631434
v -0.21923287 -0.10871626 0.06887867
v -0.22061351 -0.07658037 0.06659016
v -0.22985638 0.03904547 0.06196095
v -0.23328866 0.08171313 0.05897172
v -0.23415112 0.08171313 0.05941898
v -0.23680875 0.08171313 0.06074588
v -0.23680875 0.07175921 0.06198331
v -0.23682984 0.07175921 0.06198331
v -0.21893601 -0.10871626 -0.00241556
v -0.23682984 0.08171313 0.05044385
v -0.23190627 0.08171313 -0.00241556
v -0.21900101 -0.10871626 0.06618762
v -0.22055554 -0.07171525 0.06255730
v -0.22775206 0.02269791 0.05962771
v -0.23197301 0.08171313 0.05500596
v -0.23229798 0.08171313 0.05600485
v -0.23682984 0.08171313 0.06062661
v -0.23682984 0.08169449 0.06074588
v -0.22052040 -0.07139837 -0.00241556
v -0.21888683 -0.10871626 0.06425692
v -0.23188518 0.08171313 0.05037676
v -0.22976857 0.05431188 -0.00241556
v -0.22052040 -0.07151021 0.05962771
v -0.22977032 0.05438644 0.05037676
v -0.22980545 0.05386451 0.05351507
v -0.23190627 0.08171313 0.05150238
v -0.22052040 -0.07139837 0.05037676
v -0.22052040 -0.07143565 0.05500596
f 1 2 6
f 1 6 14
f 1 14 26
f 1 26 39
f 1 39 50
f 1 50 42
f 1 42 31
f 1 31 16
f 1 16 8
f 1 8 3
f 1 3 4
f 1 4 5
f 1 5 2
f 2 5 7
f 2 7 13
f 2 13 23
f 2 23 38
f 2 38 48
f 2 48 47
f 2 47 40
f 2 40 30
f 2 30 15
f 2 15 6
f 3 8 9
f 3 9 10
f 3 10 11
f 3 11 4
f 4 11 12
f 4 12 5
f 5 12 13
f 5 13 7
f 6 15 14
f 8 16 9
f 9 16 17
f 9 17 10
f 10 17 18
f 10 18 19
f 10 19 11
f 11 19 20
f 11 20 21
f 11 21 13
f 11 13 12
f 13 21 20
f 13 20 22
f 13 22 23
f 14 24 25
f 14 25 26
f 14 15 27
f 14 27 28
f 14 28 29
f 14 29 24
f 15 30 27
f 16 31 17
f 17 31 32
f 17 32 18
f 18 32 33
f 18 33 20
f 18 20 19
f 20 33 34
f 20 34 35
f 20 35 36
f 20 36 37
f 20 37 22
f 22 37 38
f 22 38 23
f 24 29 28
f 24 28 27
f 24 27 41
f 24 41 52
f 24 52 49
f 24 49 39
f 24 39 26
f 24 26 25
f 27 40 47
f 27 47 36
f 27 36 35
f 27 35 34
f 27 34 46
f 27 46 45
f 27 45 56
f 27 56 51
f 27 51 41
f 27 30 40
f 31 42 32
f 32 42 43
f 32 43 44
f 32 44 33
f 33 44 45
f 33 45 46
f 33 46 34
f 36 47 48
f 36 48 38
f 36 38 37
f 39 49 50
f 41 51 52
f 42 50 43
f 43 50 53
f 43 53 54
f 43 54 55
f 43 55 45
f 43 45 44
f 45 55 54
f 45 54 56
f 49 52 54
f 49 54 57
f 49 57 50
f 50 57 58
f 50 58 53
f 51 56 54
f 51 54 52
f 53 58 54
f 54 58 57

