v -0.25658907 0.08498590 -0.08755830
v -0.25644563 0.08498590 -0.15916868
v -0.26075797 0.08498590 -0.08755830
v -0.25642057 0.08282306 -0.08755830
v -0.23750002 -0.11588362 -0.15916868
v -0.26066462 0.08498590 -0.15916868
v -0.26075797 0.08498590 -0.14172000
v -0.26013638 0.05045900 -0.15311177
v -0.26013184 0.05045900 -0.08755830
v -0.25401851 0.05045900 -0.08755830
v -0.24666431 -0.05127347 -0.08755830
v -0.24201728 -0.11588362 -0.08755830
v -0.24577406 -0.11588362 -0.15916868
v -0.26074202 0.08498590 -0.15559341
v -0.26018192 0.05970025 -0.15916868
v -0.26004303 0.05045900 -0.15773857
v -0.26075569 0.08498590 -0.15311177
v -0.25338554 -0.05589410 -0.15311177
v -0.25375212 -0.05127347 -0.14848495
v -0.25375212 -0.05127347 -0.08755830
v -0.24833324 -0.11588362 -0.08755830
v -0.24665521 -0.11588362 -0.15773857
v -0.24809645 -0.09777469 -0.15916868
v -0.26008174 0.05507962 -0.15916868
v -0.25995424 0.05045900 -0.15916868
v -0.25306679 -0.05884344 -0.15569156
v -0.25312599 -0.05949229 -0.15311177
v -0.25344930 -0.05589410 -0.14848495
v -0.25344930 -0.05589410 -0.08755830
v -0.24834234 -0.11588362 -0.08837150
v -0.24844252 -0.11519544 -0.08755830
v -0.24668935 -0.11588362 -0.15763343
v -0.25314192 -0.05011340 -0.15916868
v -0.24821484 -0.11588362 -0.15257196
v -0.24849261 -0.11505781 -0.15163259
v -0.25314648 -0.05972824 -0.14848495
v -0.25314648 -0.05964959 -0.08755830
v -0.24850400 -0.11486119 -0.08837150
v -0.24841520 -0.11588362 -0.14848495
v -0.24849489 -0.11478254 -0.08755830
v -0.24804863 -0.11588362 -0.15330104
v -0.24839244 -0.11588362 -0.15056701
v -0.24851083 -0.11515612 -0.14848495
f 1 2 6
f 1 6 14
f 1 14 17
f 1 17 7
f 1 7 3
f 1 3 9
f 1 9 20
f 1 20 29
f 1 29 37
f 1 37 40
f 1 40 31
f 1 31 21
f 1 21 12
f 1 12 11
f 1 11 10
f 1 10 4
f 1 4 5
f 1 5 2
f 2 5 13
f 2 13 23
f 2 23 33
f 2 33 25
f 2 25 24
f 2 24 15
f 2 15 6
f 3 7 8
f 3 8 9
f 4 10 5
f 5 10 11
f 5 11 12
f 5 12 21
f 5 21 30
f 5 30 39
f 5 39 42
f 5 42 34
f 5 34 41
f 5 41 32
f 5 32 22
f 5 22 13
f 6 15 16
f 6 16 14
f 7 17 8
f 8 17 14
f 8 14 16
f 8 16 18
f 8 18 19
f 8 19 20
f 8 20 9
f 13 22 23
f 15 24 16
f 16 24 25
f 16 25 26
f 16 26 18
f 18 26 27
f 18 27 28
f 18 28 19
f 19 28 29
f 19 29 20
f 21 31 30
f 22 32 33
f 22 33 23
f 25 33 26
f 26 33 34
f 26 34 35
f 26 35 27
f 27 36 28
f 27 35 36
f 28 36 29
f 29 36 37
f 30 31 38
f 30 38 39
f 31 40 38
f 32 41 33
f 33 41 34
f 34 42 35
f 35 42 39
f 35 39 43
f 35 43 36
f 36 43 37
f 37 43 38
f 37 38 40
f 38 43 39

