v -0.25352974 0.08172173 0.05662374
v -0.25551039 0.08172173 0.05687040
v -0.25352974 0.09332380 -0.00241556
v -0.25352728 0.09828405 0.05038464
v -0.25352974 0.08172173 0.06309499
v -0.25758946 0.08172173 0.05733470
v -0.25531110 0.09340171 -0.00241556
v -0.25352974 0.09811525 -0.00241556
v -0.25352974 0.09830353 0.05501318
v -0.25352974 0.09708294 0.05875664
v -0.25352974 0.09666093 0.05972878
v -0.25352974 0.09209671 0.06145541
v -0.25352974 0.08276702 0.06319655
v -0.25352974 0.09814771 0.00414275
v -0.26018276 0.13833617 0.01338533
v -0.26012618 0.13833617 0.13362583
v -0.25636170 0.08172173 0.14581385
v -0.25894270 0.08172173 0.05933702
v -0.25834727 0.09411588 -0.00241556
v -0.25945201 0.13370702 -0.00241556
v -0.26012618 0.13833617 0.13825438
v -0.25947170 0.13370702 0.14581385
v -0.25911001 0.13077892 0.14581385
v -0.25893286 0.12908438 0.14581385
v -0.26019507 0.13833617 0.00877129
v -0.26098978 0.14295881 0.13362583
v -0.26049031 0.08172173 0.14581385
v -0.26017046 0.08172173 0.06319655
v -0.26065762 0.09603115 -0.00241556
v -0.26050262 0.08172173 0.06427026
v -0.25977433 0.13562880 -0.00241556
v -0.26025412 0.13833617 0.14288292
v -0.25975219 0.13540156 0.14581385
v -0.26136377 0.14295881 0.01338533
v -0.26023444 0.13833617 -0.00241556
v -0.26197643 0.14557529 0.13362583
v -0.26205023 0.14548438 0.13732578
v -0.26145235 0.14291336 0.14288292
v -0.26082248 0.14001123 0.14581385
v -0.26038452 0.13833617 0.14581385
v -0.26222984 0.14529610 -0.00048579
v -0.27860899 0.13370702 0.14581385
v -0.27181817 0.10809419 0.13613598
v -0.26147941 0.09699205 -0.00241556
v -0.27181817 0.10809419 0.13555560
v -0.27734925 0.13014265 -0.00241556
v -0.26250295 0.09834897 -0.00241556
v -0.26142282 0.14295881 -0.00048579
v -0.26149664 0.14314709 -0.00241556
v -0.26455987 0.14697766 0.13362583
v -0.26470258 0.14666602 0.14581385
v -0.26221262 0.14532207 0.01026578
v -0.26455987 0.14669199 -0.00048579
v -0.26227414 0.14522468 0.14288292
v -0.26153846 0.14265366 0.14581385
v -0.26199611 0.14458843 -0.00241556
v -0.26223723 0.14528312 -0.00241556
v -0.26293353 0.14570513 -0.00241556
v -0.27866311 0.13833617 0.14581385
v -0.27863357 0.13370702 0.11975472
v -0.27864588 0.13370702 0.09662652
v -0.27864836 0.13370702 0.06427026
v -0.27863850 0.13370702 0.00877129
v -0.27862130 0.13370702 -0.00241556
v -0.27809231 0.13222025 -0.00241556
v -0.26918059 0.14803592 -0.00241556
v -0.26918059 0.14803592 0.11975472
v -0.26918059 0.14802944 0.14581385
v -0.26749765 0.14752952 0.14581385
v -0.26239223 0.14497148 0.14581385
v -0.26436797 0.14656213 -0.00241556
v -0.27739106 0.14233553 0.14581385
v -0.27739106 0.14239397 0.14288292
v -0.27739106 0.14251732 0.04114206
v -0.27866311 0.13833617 -0.00241556
v -0.27865081 0.13640790 -0.00241556
v -0.27328951 0.14664005 -0.00241556
v -0.27331904 0.14664005 0.03651352
v -0.27328951 0.14664005 0.09662652
v -0.27326737 0.14663355 0.12899729
v -0.27324768 0.14662707 0.14288292
v -0.27320094 0.14663355 0.14581385
v -0.27671936 0.14318605 0.14581385
v -0.27556296 0.14470528 0.14288292
v -0.27567122 0.14482864 0.04114206
v -0.27739106 0.14241993 -0.00241556
v -0.27425155 0.14586095 -0.00241556
v -0.27335841 0.14661408 0.04114206
v -0.27404733 0.14592587 0.14581385
v -0.27551129 0.14464685 0.14581385
v -0.27559986 0.14473126 -0.00241556
v -0.27665538 0.14338082 -0.00241556
f 1 2 3
f 1 3 4
f 1 4 5
f 1 5 17
f 1 17 27
f 1 27 30
f 1 30 28
f 1 28 18
f 1 18 6
f 1 6 2
f 2 6 7
f 2 7 3
f 3 7 19
f 3 19 29
f 3 29 44
f 3 44 47
f 3 47 46
f 3 46 65
f 3 65 64
f 3 64 76
f 3 76 75
f 3 75 86
f 3 86 92
f 3 92 91
f 3 91 87
f 3 87 77
f 3 77 66
f 3 66 71
f 3 71 58
f 3 58 57
f 3 57 56
f 3 56 49
f 3 49 35
f 3 35 31
f 3 31 20
f 3 20 8
f 3 8 4
f 4 9 10
f 4 10 11
f 4 11 12
f 4 12 13
f 4 13 5
f 4 8 14
f 4 14 15
f 4 15 16
f 4 16 9
f 5 13 17
f 6 18 19
f 6 19 7
f 8 20 15
f 8 15 14
f 9 16 21
f 9 21 22
f 9 22 23
f 9 23 24
f 9 24 10
f 10 24 11
f 11 24 17
f 11 17 12
f 12 17 13
f 15 20 25
f 15 25 26
f 15 26 16
f 16 26 21
f 17 24 23
f 17 23 22
f 17 22 33
f 17 33 40
f 17 40 39
f 17 39 55
f 17 55 70
f 17 70 51
f 17 51 69
f 17 69 68
f 17 68 82
f 17 82 89
f 17 89 90
f 17 90 83
f 17 83 72
f 17 72 59
f 17 59 42
f 17 42 27
f 18 28 19
f 19 28 30
f 19 30 29
f 20 31 25
f 21 26 32
f 21 32 33
f 21 33 22
f 25 34 26
f 25 31 35
f 25 35 34
f 26 36 37
f 26 37 38
f 26 38 39
f 26 39 40
f 26 40 32
f 26 34 41
f 26 41 36
f 27 42 43
f 27 43 30
f 29 30 44
f 30 43 45
f 30 45 46
f 30 46 47
f 30 47 44
f 32 40 33
f 34 35 48
f 34 48 41
f 35 49 48
f 36 50 51
f 36 51 37
f 36 41 52
f 36 52 53
f 36 53 50
f 37 51 54
f 37 54 38
f 38 54 55
f 38 55 39
f 41 53 52
f 41 48 49
f 41 49 56
f 41 56 57
f 41 57 58
f 41 58 53
f 42 59 60
f 42 60 43
f 43 60 61
f 43 61 62
f 43 62 45
f 45 62 63
f 45 63 64
f 45 64 65
f 45 65 46
f 50 53 66
f 50 66 67
f 50 67 68
f 50 68 69
f 50 69 51
f 51 70 54
f 53 58 71
f 53 71 66
f 54 70 55
f 59 72 73
f 59 73 74
f 59 74 75
f 59 75 62
f 59 62 61
f 59 61 60
f 62 75 63
f 63 75 76
f 63 76 64
f 66 77 78
f 66 78 67
f 67 78 79
f 67 79 68
f 68 79 80
f 68 80 81
f 68 81 82
f 72 83 73
f 73 83 84
f 73 84 85
f 73 85 74
f 74 85 86
f 74 86 75
f 77 87 85
f 77 85 88
f 77 88 78
f 78 88 79
f 79 88 85
f 79 85 80
f 80 85 81
f 81 84 82
f 81 85 84
f 82 84 89
f 83 90 84
f 84 90 89
f 85 87 91
f 85 91 92
f 85 92 86

