v 0.22077206 0.10354718 -0.18139428
v 0.24419022 0.10354718 -0.18139428
v 0.22077206 0.10354718 -0.17725130
v 0.22077206 0.13371023 -0.19617842
v 0.24978782 0.13101199 -0.19727372
v 0.24661205 0.10354718 -0.18139184
v 0.25192516 0.13101199 -0.19727372
v 0.25709956 0.10354718 -0.17218737
v 0.22077206 0.12908714 -0.17809610
v 0.22077206 0.13833767 -0.19627174
v 0.24978782 0.13240673 -0.19727372
v 0.24881340 0.10354718 -0.18138446
v 0.25192516 0.13240673 -0.19727372
v 0.25709956 0.13835940 -0.19584198
v 0.25709956 0.13374065 -0.19558411
v 0.25709956 0.13032982 -0.19408359
v 0.25709956 0.10354718 -0.17961380
v 0.25344013 0.10354718 -0.18097926
v 0.25709956 0.11059044 -0.17273993
v 0.25709956 0.11527436 -0.17310830
v 0.22077206 0.13206782 -0.17844237
v 0.22077206 0.13863313 -0.19621034
v 0.25083692 0.14077957 -0.19712883
v 0.25166910 0.14077957 -0.19712883
v 0.25709956 0.13919364 -0.19570935
v 0.25709956 0.13825077 -0.17620020
v 0.25709956 0.14144870 -0.17682890
v 0.22077206 0.14296076 -0.18082945
v 0.22077206 0.14296076 -0.19529186
v 0.22077206 0.14317367 -0.19517889
v 0.22077206 0.14626297 -0.19342051
v 0.22106722 0.14626297 -0.19342051
v 0.24881340 0.14625428 -0.19337631
v 0.25344013 0.14620213 -0.19333948
v 0.25330143 0.14257840 -0.19584689
v 0.25709956 0.14288255 -0.19500452
v 0.25709956 0.14216997 -0.17707938
v 0.22077206 0.14620213 -0.18236434
v 0.22077206 0.14635420 -0.19320930
v 0.23031713 0.14767074 -0.19011496
v 0.24881340 0.14764903 -0.19011496
v 0.25344013 0.14760123 -0.19011496
v 0.25709956 0.14740570 -0.19011496
v 0.25709956 0.14601096 -0.19313072
v 0.25709956 0.14367334 -0.17785297
v 0.25709956 0.14492471 -0.17856516
v 0.25709956 0.14668443 -0.18083681
v 0.22077206 0.14750999 -0.18528924
v 0.22077206 0.14766206 -0.19011496
v 0.25709956 0.14793145 -0.18549062
v 0.22077206 0.14759687 -0.18549062
f 1 2 6
f 1 6 12
f 1 12 18
f 1 18 17
f 1 17 8
f 1 8 3
f 1 3 9
f 1 9 21
f 1 21 28
f 1 28 38
f 1 38 48
f 1 48 51
f 1 51 49
f 1 49 39
f 1 39 31
f 1 31 30
f 1 30 29
f 1 29 22
f 1 22 10
f 1 10 4
f 1 4 5
f 1 5 7
f 1 7 2
f 2 7 6
f 3 8 9
f 4 10 5
f 5 10 11
f 5 11 13
f 5 13 7
f 6 7 12
f 7 13 14
f 7 14 15
f 7 15 16
f 7 16 17
f 7 17 18
f 7 18 12
f 8 17 16
f 8 16 15
f 8 15 14
f 8 14 25
f 8 25 36
f 8 36 44
f 8 44 43
f 8 43 50
f 8 50 47
f 8 47 46
f 8 46 45
f 8 45 37
f 8 37 27
f 8 27 26
f 8 26 20
f 8 20 19
f 8 19 9
f 9 19 20
f 9 20 21
f 10 22 23
f 10 23 11
f 11 23 24
f 11 24 13
f 13 24 14
f 14 24 25
f 20 26 21
f 21 26 27
f 21 27 28
f 22 29 23
f 23 29 30
f 23 30 31
f 23 31 32
f 23 32 24
f 24 32 33
f 24 33 34
f 24 34 35
f 24 35 36
f 24 36 25
f 27 37 28
f 28 37 38
f 31 39 32
f 32 39 33
f 33 39 40
f 33 40 41
f 33 41 42
f 33 42 34
f 34 42 43
f 34 43 44
f 34 44 35
f 35 44 36
f 37 45 38
f 38 45 46
f 38 46 47
f 38 47 48
f 39 49 40
f 40 49 50
f 40 50 41
f 41 50 42
f 42 50 43
f 47 50 51
f 47 51 48
f 49 51 50

