v -0.23188674 0.08171313 0.05037997
v -0.23189944 0.08284005 0.05037997
v -0.23190792 0.08171313 0.05150382
v -0.23190792 0.08171313 -0.00241556
v -0.23191851 0.08284005 -0.00241556
v -0.23205409 0.08746417 0.03187809
v -0.23220873 0.09208829 0.03650196
v -0.23223838 0.09208829 0.05037997
v -0.23198841 0.08284005 0.05500383
v -0.23197782 0.08476334 -0.00241556
v -0.23206256 0.08746417 -0.00241556
v -0.23197571 0.08171313 0.05500383
v -0.23674403 0.08171313 -0.00241556
v -0.23336532 0.09582013 0.03650196
v -0.23336956 0.09579615 0.05037997
v -0.23225320 0.09208829 -0.00241556
v -0.23242056 0.09208829 0.05500383
v -0.23216847 0.08746417 0.05500383
v -0.23337379 0.08746417 0.05883137
v -0.23329754 0.08284005 0.05892127
v -0.23328906 0.08171313 0.05897265
v -0.23229981 0.08171313 0.05600567
v -0.25352744 0.09331967 -0.00241556
v -0.25352744 0.08171313 0.05661576
v -0.23634367 0.09815103 0.04113224
v -0.23339710 0.09583896 0.04113224
v -0.23340345 0.09577731 -0.00048895
v -0.23635214 0.09810820 0.05037997
v -0.23349877 0.09553069 0.05500383
v -0.23340557 0.09577388 -0.00241556
v -0.23393939 0.09496552 0.05807356
v -0.23354962 0.09208829 0.05862586
v -0.23680969 0.09208829 0.06044329
v -0.23415122 0.08171313 0.05942219
v -0.25352744 0.09810992 -0.00241556
v -0.25352744 0.08171313 0.06307633
v -0.23866535 0.09920943 0.05037997
v -0.23638603 0.09808936 -0.00048895
v -0.23869924 0.09919230 -0.00048895
v -0.23869924 0.09919915 0.00413491
v -0.23879880 0.09915634 0.05314144
v -0.23707872 0.09785816 0.05481117
v -0.23514683 0.09712344 -0.00241556
v -0.23680969 0.09570538 0.05881852
v -0.23680969 0.08746417 0.06058458
v -0.24143398 0.09618491 0.05919100
v -0.24143398 0.09208829 0.06089283
v -0.25352744 0.08276469 0.06319192
v -0.23680969 0.08171313 0.06074513
v -0.25352744 0.09814759 0.00413491
v -0.24082603 0.09918888 -0.00241556
v -0.24107810 0.09920943 0.05037997
v -0.23870136 0.09920087 0.00875878
v -0.23639663 0.09808594 -0.00241556
v -0.23735835 0.09854493 -0.00241556
v -0.23870771 0.09918888 -0.00241556
v -0.24085357 0.09919230 -0.00048895
v -0.24088534 0.09919915 0.00413491
v -0.24055488 0.09915634 0.05314144
v -0.24183222 0.09858775 0.05481117
v -0.25352744 0.09665760 0.05971760
v -0.25352744 0.09208829 0.06143229
v -0.25352744 0.09830344 0.05500383
v -0.24088111 0.09920087 0.00875878
v -0.25352744 0.09708062 0.05875430
f 1 2 3
f 1 3 12
f 1 12 22
f 1 22 21
f 1 21 34
f 1 34 49
f 1 49 36
f 1 36 24
f 1 24 13
f 1 13 4
f 1 4 5
f 1 5 2
f 2 6 7
f 2 7 8
f 2 8 9
f 2 9 3
f 2 5 10
f 2 10 11
f 2 11 6
f 3 9 12
f 4 13 23
f 4 23 35
f 4 35 51
f 4 51 56
f 4 56 55
f 4 55 54
f 4 54 43
f 4 43 30
f 4 30 16
f 4 16 11
f 4 11 10
f 4 10 5
f 6 11 7
f 7 14 15
f 7 15 8
f 7 11 16
f 7 16 14
f 8 15 17
f 8 17 18
f 8 18 9
f 9 18 19
f 9 19 20
f 9 20 21
f 9 21 22
f 9 22 12
f 13 24 23
f 14 25 26
f 14 26 15
f 14 16 27
f 14 27 25
f 15 26 25
f 15 25 28
f 15 28 29
f 15 29 17
f 16 30 27
f 17 29 31
f 17 31 32
f 17 32 18
f 18 32 19
f 19 32 33
f 19 33 34
f 19 34 21
f 19 21 20
f 23 24 36
f 23 36 48
f 23 48 62
f 23 62 61
f 23 61 65
f 23 65 63
f 23 63 50
f 23 50 35
f 25 37 28
f 25 27 38
f 25 38 39
f 25 39 40
f 25 40 37
f 27 30 38
f 28 41 42
f 28 42 29
f 28 37 41
f 29 42 31
f 30 43 38
f 31 44 33
f 31 33 32
f 31 42 44
f 33 45 34
f 33 44 46
f 33 46 47
f 33 47 48
f 33 48 45
f 34 45 49
f 35 50 51
f 36 49 48
f 37 52 59
f 37 59 41
f 37 40 53
f 37 53 64
f 37 64 52
f 38 43 54
f 38 54 55
f 38 55 56
f 38 56 39
f 39 56 51
f 39 51 57
f 39 57 58
f 39 58 40
f 40 58 64
f 40 64 53
f 41 59 60
f 41 60 46
f 41 46 44
f 41 44 42
f 45 48 49
f 46 61 47
f 46 60 61
f 47 62 48
f 47 61 62
f 50 63 51
f 51 63 57
f 52 63 59
f 52 64 58
f 52 58 63
f 57 63 58
f 59 63 60
f 60 63 65
f 60 65 61

