v -0.24605930 0.13833725 -0.19620371
v -0.24605930 0.14296362 -0.19515965
v -0.24156285 0.13833725 -0.19615295
v -0.24156285 0.13371609 -0.19613846
v -0.24605930 0.13371609 -0.19612033
v -0.25068650 0.13833725 -0.19613846
v -0.25068650 0.14296362 -0.19516328
v -0.24605930 0.14624770 -0.19337606
v -0.24156285 0.14623728 -0.19334343
v -0.24156285 0.14296362 -0.19509803
v -0.24156285 0.13096632 -0.19421711
v -0.25531007 0.13047110 -0.19385457
v -0.25068650 0.13371609 -0.19591732
v -0.25531007 0.13371609 -0.19544605
v -0.25531007 0.13833725 -0.19556931
v -0.25531007 0.14296362 -0.19462674
v -0.25068650 0.14620339 -0.19336156
v -0.25531007 0.14593232 -0.19307154
v -0.24605930 0.14764474 -0.19011700
v -0.24156285 0.14763431 -0.19011700
v -0.25068650 0.14760043 -0.19011700
v -0.24156285 0.13089074 -0.19416272
v -0.24156285 0.12141123 -0.18378740
v -0.24313914 0.12141123 -0.18373666
v -0.25993729 0.13036424 -0.19356093
v -0.25993729 0.13371609 -0.19457237
v -0.25993729 0.13833725 -0.19433310
v -0.25984286 0.14296362 -0.19329993
v -0.25823749 0.14556482 -0.19268364
v -0.25531007 0.14727723 -0.19011700
v -0.25531007 0.14785585 -0.18549125
v -0.24156285 0.14763431 -0.18999011
v -0.25993729 0.14770207 -0.18549125
v -0.24156285 0.12141123 -0.17809221
v -0.24605930 0.12141123 -0.18360978
v -0.26316979 0.13076302 -0.19302804
v -0.24880512 0.12141123 -0.18331614
v -0.26354389 0.13371609 -0.19320567
v -0.26334413 0.13833725 -0.19299904
v -0.26290465 0.14142324 -0.19275253
v -0.25984286 0.14628940 -0.19021126
v -0.26131746 0.14450662 -0.19181722
v -0.26658753 0.14502530 -0.18755762
v -0.26350394 0.14581504 -0.18873218
v -0.26455723 0.14786628 -0.18086549
v -0.25993729 0.14789756 -0.18086549
v -0.26918080 0.14803830 -0.16236973
v -0.26918080 0.14803309 -0.15916868
v -0.24156285 0.14755872 -0.18549125
v -0.26484779 0.14655265 -0.18580664
v -0.24156285 0.12434083 -0.17801609
v -0.25882952 0.12589165 -0.15916868
v -0.25888400 0.12446594 -0.15916868
v -0.25906560 0.12141123 -0.15916868
v -0.26774253 0.13068222 -0.18879380
v -0.26585387 0.13371609 -0.19160334
v -0.25531007 0.12141123 -0.18088724
v -0.25856438 0.12141123 -0.17925228
v -0.26565410 0.13833725 -0.19151632
v -0.26762266 0.14194191 -0.18867779
v -0.26474610 0.14322426 -0.19024752
v -0.27125469 0.14505396 -0.18294636
v -0.26817110 0.14593494 -0.18447619
v -0.26950043 0.14664649 -0.18118814
v -0.26918080 0.14783760 -0.17624337
v -0.26918080 0.14793926 -0.17161761
v -0.27327048 0.14662824 -0.16699549
v -0.27318331 0.14663866 -0.16236973
v -0.27309614 0.14663605 -0.15916868
v -0.26775705 0.14779069 -0.15916868
v -0.24156285 0.14751963 -0.18540425
v -0.26427756 0.14694362 -0.15916868
v -0.26164435 0.14588801 -0.15916868
v -0.25877141 0.12908971 -0.15916868
v -0.24156285 0.12446594 -0.17801609
v -0.27264213 0.12141123 -0.15916868
v -0.27222807 0.13070307 -0.18405567
v -0.26819652 0.13371609 -0.18929046
v -0.26810572 0.13833725 -0.18920346
v -0.25934890 0.12141123 -0.17838223
v -0.27215907 0.14197058 -0.18397953
v -0.27305618 0.14329203 -0.18118814
v -0.27220629 0.14597143 -0.17986493
v -0.27279468 0.14644058 -0.17624337
v -0.27313245 0.14659175 -0.17161761
v -0.27558407 0.14472817 -0.16699549
v -0.27381164 0.14601833 -0.15916868
v -0.24156285 0.14616169 -0.18238808
v -0.25899659 0.13051802 -0.15916868
v -0.24156285 0.13230862 -0.17842211
v -0.24156285 0.14283591 -0.18073499
v -0.24156285 0.14296362 -0.18076762
v -0.24156285 0.14607307 -0.18233733
v -0.24156285 0.12908971 -0.17805235
v -0.24156285 0.13218613 -0.17840762
v -0.27732017 0.13000195 -0.15916868
v -0.27264213 0.12141123 -0.16135468
v -0.27643398 0.13083600 -0.17510869
v -0.27429834 0.13371609 -0.18086549
v -0.27258402 0.13371609 -0.18449432
v -0.27051013 0.13371609 -0.18680720
v -0.26101600 0.12141123 -0.17627599
v -0.27041933 0.13833725 -0.18674919
v -0.27253318 0.13833725 -0.18443993
v -0.27428380 0.13833725 -0.18086549
v -0.27620152 0.14089413 -0.17427125
v -0.27512281 0.14264564 -0.17598599
v -0.27681169 0.14170213 -0.17161761
v -0.27544606 0.14401401 -0.17161761
v -0.27549328 0.14463433 -0.16236973
v -0.27738557 0.14241628 -0.16699549
v -0.27738921 0.14231984 -0.16236973
v -0.27738921 0.14223904 -0.15916868
v -0.27680445 0.14295059 -0.15916868
v -0.27540973 0.14455093 -0.15916868
v -0.27859139 0.13371609 -0.15916868
v -0.27858775 0.13371609 -0.16236973
v -0.27731657 0.13002541 -0.16236973
v -0.27724028 0.13019482 -0.16699549
v -0.27687709 0.13037988 -0.17161761
v -0.27849334 0.13371609 -0.16699549
v -0.27766524 0.13371609 -0.17161761
v -0.27652478 0.13371609 -0.17547120
v -0.27759987 0.13833725 -0.17161761
v -0.27863860 0.13833725 -0.16699549
v -0.27866040 0.13833725 -0.16236973
v -0.27866040 0.13833725 -0.15916868
f 1 2 3
f 1 3 4
f 1 4 5
f 1 5 6
f 1 6 7
f 1 7 2
f 2 8 9
f 2 9 10
f 2 10 3
f 2 7 8
f 3 10 9
f 3 9 20
f 3 20 32
f 3 32 49
f 3 49 71
f 3 71 88
f 3 88 93
f 3 93 92
f 3 92 91
f 3 91 90
f 3 90 95
f 3 95 94
f 3 94 75
f 3 75 51
f 3 51 34
f 3 34 23
f 3 23 22
f 3 22 11
f 3 11 4
f 4 11 12
f 4 12 5
f 5 12 13
f 5 13 6
f 6 13 14
f 6 14 15
f 6 15 16
f 6 16 7
f 7 17 8
f 7 16 18
f 7 18 17
f 8 19 20
f 8 20 9
f 8 17 21
f 8 21 19
f 11 22 12
f 12 22 23
f 12 23 24
f 12 24 25
f 12 25 13
f 13 25 14
f 14 25 26
f 14 26 15
f 15 26 27
f 15 27 16
f 16 27 28
f 16 28 29
f 16 29 18
f 17 18 30
f 17 30 21
f 18 29 30
f 19 21 31
f 19 31 20
f 20 31 32
f 21 30 33
f 21 33 31
f 23 34 54
f 23 54 76
f 23 76 97
f 23 97 102
f 23 102 80
f 23 80 58
f 23 58 57
f 23 57 37
f 23 37 35
f 23 35 24
f 24 35 25
f 25 36 26
f 25 35 37
f 25 37 36
f 26 36 38
f 26 38 27
f 27 38 39
f 27 39 40
f 27 40 28
f 28 40 29
f 29 41 30
f 29 40 42
f 29 42 43
f 29 43 44
f 29 44 41
f 30 41 33
f 31 33 45
f 31 45 46
f 31 46 47
f 31 47 48
f 31 48 32
f 32 48 49
f 33 50 45
f 33 41 50
f 34 51 52
f 34 52 53
f 34 53 54
f 36 55 56
f 36 56 38
f 36 37 57
f 36 57 58
f 36 58 55
f 38 56 59
f 38 59 39
f 39 59 40
f 40 59 60
f 40 60 61
f 40 61 42
f 41 44 50
f 42 61 43
f 43 61 60
f 43 60 62
f 43 62 63
f 43 63 44
f 44 63 50
f 45 50 64
f 45 64 65
f 45 65 66
f 45 66 46
f 46 66 47
f 47 66 67
f 47 67 48
f 48 67 68
f 48 68 69
f 48 69 87
f 48 87 115
f 48 115 114
f 48 114 113
f 48 113 127
f 48 127 116
f 48 116 96
f 48 96 76
f 48 76 54
f 48 54 53
f 48 53 52
f 48 52 74
f 48 74 89
f 48 89 73
f 48 73 72
f 48 72 70
f 48 70 49
f 49 70 72
f 49 72 73
f 49 73 71
f 50 63 64
f 51 74 52
f 51 75 74
f 55 77 78
f 55 78 56
f 55 58 77
f 56 78 79
f 56 79 59
f 58 80 77
f 59 79 60
f 60 79 81
f 60 81 62
f 62 81 82
f 62 82 83
f 62 83 63
f 63 83 64
f 64 83 65
f 65 83 84
f 65 84 85
f 65 85 66
f 66 85 67
f 67 85 86
f 67 86 68
f 68 86 69
f 69 86 87
f 71 73 88
f 73 89 90
f 73 90 91
f 73 91 92
f 73 92 93
f 73 93 88
f 74 75 94
f 74 94 95
f 74 95 90
f 74 90 89
f 76 96 97
f 77 97 98
f 77 98 99
f 77 99 100
f 77 100 101
f 77 101 78
f 77 80 102
f 77 102 97
f 78 101 103
f 78 103 79
f 79 103 81
f 81 103 104
f 81 104 105
f 81 105 82
f 82 105 106
f 82 106 107
f 82 107 83
f 83 107 108
f 83 108 109
f 83 109 84
f 84 109 86
f 84 86 85
f 86 110 87
f 86 109 111
f 86 111 112
f 86 112 113
f 86 113 114
f 86 114 110
f 87 110 115
f 96 116 117
f 96 117 118
f 96 118 97
f 97 118 119
f 97 119 120
f 97 120 98
f 98 120 121
f 98 121 122
f 98 122 123
f 98 123 99
f 99 123 105
f 99 105 100
f 100 104 101
f 100 105 104
f 101 104 103
f 105 123 124
f 105 124 106
f 106 124 108
f 106 108 107
f 108 124 125
f 108 125 111
f 108 111 109
f 110 114 115
f 111 125 126
f 111 126 127
f 111 127 112
f 112 127 113
f 116 127 126
f 116 126 117
f 117 126 125
f 117 125 121
f 117 121 118
f 118 121 119
f 119 121 120
f 121 125 122
f 122 125 124
f 122 124 123

