v 0.00093762 -0.11935043 0.15086651
v 0.06381032 -0.11935043 0.15085839
v 0.00093762 -0.11935043 0.15991871
v 0.00093762 0.08249037 0.16769573
v 0.14243321 0.09671334 0.16538901
v 0.14243321 0.09208565 0.16501945
v 0.12853976 -0.11935043 0.15086246
v 0.16686949 -0.11935043 0.16156753
v 0.00093762 0.13370878 0.19234256
v 0.00093762 0.12908107 0.17250814
v 0.00093762 0.13198319 0.17284115
v 0.17943976 0.14293802 0.17510318
v 0.21181515 0.14293802 0.17512350
v 0.21894328 0.13198319 0.17284115
v 0.14706436 0.09671334 0.16543369
v 0.14706436 0.09208565 0.16508444
v 0.15167418 -0.11935043 0.15086651
v 0.17017745 -0.11935043 0.16157158
v 0.00371204 0.13370878 0.19234663
v 0.00093762 0.13556508 0.19233851
v 0.00093762 0.14293802 0.17525345
v 0.03608743 0.14293802 0.17515598
v 0.17943976 0.14633690 0.17662203
v 0.21181515 0.14633690 0.17663827
v 0.21642495 0.14293802 0.17516003
v 0.21894328 0.12908107 0.17250814
v 0.21894328 0.14293802 0.17520878
v 0.21894328 -0.11935043 0.15460273
v 0.15630533 -0.11935043 0.15100459
v 0.21894328 -0.11935043 0.16142945
v 0.21894328 0.13370878 0.19234256
v 0.20255285 0.13370878 0.19234663
v 0.00093762 0.13833647 0.19233039
v 0.00093762 0.14487276 0.17616719
v 0.03608743 0.14625847 0.17667890
v 0.17480860 0.14633690 0.17662610
v 0.17943976 0.14774873 0.17988310
v 0.21181515 0.14772258 0.17988310
v 0.21894328 0.14761801 0.17988310
v 0.21642495 0.14625847 0.17669107
v 0.21894328 0.14445444 0.17590322
v 0.21894328 0.13833647 0.19233039
v 0.17480860 0.14134317 0.19187960
v 0.00093762 0.14131702 0.19187960
v 0.00093762 0.14615387 0.17678042
v 0.00093762 0.14699052 0.17863229
v 0.03608743 0.14767030 0.17988310
v 0.17017745 0.14767030 0.18450464
v 0.21642495 0.14767030 0.18450464
v 0.00093762 0.14764415 0.18450464
v 0.21894328 0.14764415 0.18450464
v 0.21894328 0.14685981 0.17818557
v 0.21894328 0.14620617 0.17673575
v 0.21894328 0.14131702 0.19187960
v 0.21181515 0.14134317 0.19187960
v 0.17480860 0.14367008 0.19018612
v 0.00093762 0.14361780 0.19009679
v 0.00093762 0.14753958 0.17988310
v 0.17480860 0.14628460 0.18787129
v 0.21181515 0.14628460 0.18786317
v 0.21894328 0.14701667 0.18601132
v 0.00093762 0.14680751 0.18646616
v 0.03608743 0.14625847 0.18779820
v 0.21894328 0.14361780 0.19010491
v 0.21642495 0.14364394 0.19013333
v 0.21181515 0.14367008 0.19017395
v 0.00093762 0.14468975 0.18916272
v 0.21894328 0.14625847 0.18779413
v 0.00093762 0.14623232 0.18778601
f 1 2 7
f 1 7 17
f 1 17 29
f 1 29 28
f 1 28 30
f 1 30 18
f 1 18 8
f 1 8 3
f 1 3 9
f 1 9 20
f 1 20 33
f 1 33 44
f 1 44 57
f 1 57 67
f 1 67 69
f 1 69 62
f 1 62 50
f 1 50 58
f 1 58 46
f 1 46 45
f 1 45 34
f 1 34 21
f 1 21 11
f 1 11 10
f 1 10 4
f 1 4 5
f 1 5 6
f 1 6 2
f 2 6 7
f 3 8 9
f 4 10 5
f 5 10 11
f 5 11 12
f 5 12 13
f 5 13 14
f 5 14 15
f 5 15 6
f 6 15 16
f 6 16 17
f 6 17 7
f 8 18 19
f 8 19 9
f 9 19 20
f 11 21 22
f 11 22 12
f 12 22 23
f 12 23 24
f 12 24 13
f 13 24 25
f 13 25 14
f 14 26 15
f 14 25 27
f 14 27 41
f 14 41 53
f 14 53 52
f 14 52 39
f 14 39 51
f 14 51 61
f 14 61 68
f 14 68 64
f 14 64 54
f 14 54 42
f 14 42 31
f 14 31 30
f 14 30 28
f 14 28 26
f 15 26 16
f 16 26 28
f 16 28 29
f 16 29 17
f 18 30 31
f 18 31 32
f 18 32 19
f 19 32 42
f 19 42 33
f 19 33 20
f 21 34 35
f 21 35 22
f 22 35 23
f 23 35 36
f 23 36 37
f 23 37 24
f 24 37 38
f 24 38 39
f 24 39 40
f 24 40 41
f 24 41 25
f 25 41 27
f 31 42 32
f 33 42 55
f 33 55 43
f 33 43 44
f 34 45 35
f 35 45 46
f 35 46 47
f 35 47 36
f 36 47 37
f 37 48 49
f 37 49 38
f 37 47 50
f 37 50 48
f 38 49 51
f 38 51 39
f 39 52 40
f 40 53 41
f 40 52 53
f 42 54 55
f 43 55 56
f 43 56 44
f 44 56 57
f 46 58 47
f 47 58 50
f 48 50 59
f 48 59 49
f 49 59 60
f 49 60 61
f 49 61 51
f 50 62 63
f 50 63 59
f 54 64 65
f 54 65 66
f 54 66 55
f 55 66 56
f 56 66 60
f 56 60 59
f 56 59 67
f 56 67 57
f 59 63 67
f 60 66 68
f 60 68 61
f 62 69 63
f 63 69 67
f 64 68 65
f 65 68 66

