v -0.04257818 0.14771598 -0.18549320
v -0.04257818 0.14631783 -0.18226113
v -0.01019812 0.14762843 -0.18549320
v -0.00093986 0.14766964 -0.19011554
v -0.04257818 0.14767222 -0.19011554
v -0.11194355 0.14767222 -0.19011554
v -0.07493437 0.14771084 -0.18549320
v -0.04257818 0.14296279 -0.18073522
v -0.00556899 0.14296279 -0.18079769
v -0.00556899 0.14621999 -0.18234143
v -0.00556899 0.14761557 -0.18549320
v -0.07493437 0.14631269 -0.18226470
v -0.07493437 0.14296279 -0.18073701
v 0.00220985 0.14765933 -0.19011554
v -0.00556899 0.14627148 -0.19342256
v -0.01019812 0.14626890 -0.19344755
v -0.04257818 0.14627406 -0.19345111
v -0.11194355 0.14627663 -0.19344934
v -0.21829425 0.14765161 -0.19011554
v -0.10731442 0.14770311 -0.18549320
v -0.00556899 0.13208401 -0.17844189
v 0.00220985 0.13207114 -0.17844189
v -0.24155921 0.13230803 -0.17842406
v -0.00093986 0.14296279 -0.18082088
v 0.00220985 0.14513598 -0.18189527
v -0.00093986 0.14618910 -0.18237178
v 0.00220985 0.14616849 -0.18239320
v 0.00220985 0.14711861 -0.18449377
v 0.00220985 0.14756664 -0.18549320
v -0.00093986 0.14758723 -0.18549320
v 0.00220985 0.14763359 -0.18863424
v -0.10731442 0.14630496 -0.18227540
v -0.24155921 0.14296279 -0.18077091
v -0.24155921 0.14283663 -0.18073879
v 0.00220985 0.14626376 -0.19337259
v -0.01019812 0.14296279 -0.19526435
v -0.11194355 0.14296279 -0.19528935
v -0.23218165 0.14624573 -0.19337438
v -0.21829425 0.14625345 -0.19337438
v -0.23678690 0.14764130 -0.19011554
v -0.23218165 0.14762071 -0.18549320
v 0.00220985 0.12908946 -0.17809567
v 0.00220985 0.14296279 -0.18086015
v -0.24155921 0.12908946 -0.17805640
v -0.23218165 0.14622514 -0.18233966
v -0.11194355 0.14629724 -0.18227540
v -0.24155921 0.14607322 -0.18234143
v 0.00220985 0.14402363 -0.19456832
v 0.00220985 0.14296279 -0.19512872
v 0.00220985 0.13981889 -0.19582831
v 0.00220985 0.13833835 -0.19615492
v -0.01019812 0.13833835 -0.19621559
v -0.11194355 0.13833835 -0.19623522
v -0.23218165 0.13833835 -0.19618525
v -0.23218165 0.14296279 -0.19516442
v -0.23678690 0.14624573 -0.19335832
v -0.24155921 0.14763359 -0.19011554
v -0.24155921 0.14763359 -0.18999061
v -0.23678690 0.14759239 -0.18549320
v 0.00220985 0.12760891 -0.17808139
v -0.24155921 0.12896586 -0.17805462
v -0.24155921 0.14752029 -0.18540575
v -0.23678690 0.14619424 -0.18236285
v -0.24155921 0.14616076 -0.18239142
v 0.00220985 0.13371648 -0.19608889
v -0.00093986 0.13371648 -0.19610674
v -0.00556899 0.13371648 -0.19612280
v -0.10268529 0.13371648 -0.19621203
v -0.19054332 0.13371648 -0.19624773
v -0.19517246 0.13371648 -0.19624773
v -0.20443072 0.13371648 -0.19623165
v -0.24155921 0.13384006 -0.19614064
v -0.24155921 0.13833835 -0.19615492
v -0.24155921 0.14296279 -0.19509837
v -0.24155921 0.14623801 -0.19334581
v -0.24155921 0.14755891 -0.18549320
v 0.00220985 0.12446501 -0.17805283
v -0.24155921 0.12446501 -0.17801713
v 0.00220985 0.13177246 -0.19474858
v 0.00220985 0.13086096 -0.19411859
v -0.00093986 0.13087383 -0.19413822
v -0.00556899 0.13088413 -0.19415607
v -0.10268529 0.13090215 -0.19424709
v -0.19054332 0.13090215 -0.19427743
v -0.19517246 0.13091246 -0.19428100
v -0.20443072 0.13089958 -0.19426315
v -0.24141604 0.13088928 -0.19416677
v -0.24155921 0.13371648 -0.19613886
v 0.00220985 0.12141123 -0.17812600
v -0.24155921 0.12433884 -0.17801892
v 0.00220985 0.12141123 -0.18381737
v -0.23678690 0.12141123 -0.18382095
v -0.24129673 0.12141123 -0.18379595
v -0.24155921 0.13088928 -0.19416499
v -0.24155921 0.12141123 -0.17809567
v -0.24155921 0.12141123 -0.18378882
f 1 2 3
f 1 3 4
f 1 4 5
f 1 5 6
f 1 6 7
f 1 7 2
f 2 8 9
f 2 9 10
f 2 10 11
f 2 11 3
f 2 7 12
f 2 12 13
f 2 13 8
f 3 11 4
f 4 11 14
f 4 14 15
f 4 15 16
f 4 16 17
f 4 17 5
f 5 17 18
f 5 18 6
f 6 18 19
f 6 19 7
f 7 19 20
f 7 20 12
f 8 21 22
f 8 22 9
f 8 13 23
f 8 23 21
f 9 22 24
f 9 24 10
f 10 24 25
f 10 25 26
f 10 26 27
f 10 27 28
f 10 28 29
f 10 29 30
f 10 30 11
f 11 30 31
f 11 31 14
f 12 20 32
f 12 32 33
f 12 33 13
f 13 33 34
f 13 34 23
f 14 31 29
f 14 29 28
f 14 28 27
f 14 27 25
f 14 25 43
f 14 43 22
f 14 22 42
f 14 42 60
f 14 60 77
f 14 77 89
f 14 89 91
f 14 91 80
f 14 80 79
f 14 79 65
f 14 65 51
f 14 51 50
f 14 50 49
f 14 49 48
f 14 48 35
f 14 35 15
f 15 35 36
f 15 36 16
f 16 36 37
f 16 37 17
f 17 37 18
f 18 37 38
f 18 38 39
f 18 39 19
f 19 39 38
f 19 38 40
f 19 40 20
f 20 40 41
f 20 41 32
f 21 42 22
f 21 23 42
f 22 43 24
f 23 34 33
f 23 33 47
f 23 47 64
f 23 64 62
f 23 62 76
f 23 76 58
f 23 58 57
f 23 57 75
f 23 75 74
f 23 74 73
f 23 73 72
f 23 72 88
f 23 88 94
f 23 94 96
f 23 96 95
f 23 95 90
f 23 90 78
f 23 78 61
f 23 61 44
f 23 44 42
f 24 43 25
f 25 27 26
f 29 31 30
f 32 41 45
f 32 45 46
f 32 46 33
f 33 45 47
f 33 46 45
f 35 48 36
f 36 48 49
f 36 49 50
f 36 50 51
f 36 51 52
f 36 52 37
f 37 52 53
f 37 53 54
f 37 54 55
f 37 55 38
f 38 55 56
f 38 56 40
f 40 56 57
f 40 57 58
f 40 58 41
f 41 58 59
f 41 59 45
f 42 44 61
f 42 61 60
f 45 59 62
f 45 62 63
f 45 63 47
f 47 63 64
f 51 65 66
f 51 66 52
f 52 66 67
f 52 67 68
f 52 68 69
f 52 69 53
f 53 69 70
f 53 70 54
f 54 70 71
f 54 71 72
f 54 72 73
f 54 73 55
f 55 73 74
f 55 74 75
f 55 75 56
f 56 75 57
f 58 76 59
f 59 76 62
f 60 61 77
f 61 78 77
f 62 64 63
f 65 79 66
f 66 79 80
f 66 80 67
f 67 80 81
f 67 81 82
f 67 82 68
f 68 82 83
f 68 83 69
f 69 84 70
f 69 83 84
f 70 84 85
f 70 85 86
f 70 86 71
f 71 86 87
f 71 87 88
f 71 88 72
f 77 78 90
f 77 90 89
f 80 91 81
f 81 91 82
f 82 91 83
f 83 91 84
f 84 92 86
f 84 86 85
f 84 91 92
f 86 92 87
f 87 92 93
f 87 93 94
f 87 94 88
f 89 90 95
f 89 95 96
f 89 96 93
f 89 93 92
f 89 92 91
f 93 96 94

