v -0.21809015 -0.12897202 0.15773980
v -0.16288297 -0.12913465 0.15667406
v -0.21809015 -0.12897202 0.16028360
v -0.21809015 -0.12786075 0.15664961
v -0.16742818 -0.12897202 0.16027312
v -0.17203771 -0.12897202 0.16028011
v -0.18129967 -0.12897202 0.16028709
v -0.19980210 -0.12897202 0.16029060
v -0.20443307 -0.12897202 0.16029060
v -0.16288297 -0.12910754 0.15664961
v 0.00091618 -0.12412037 0.15664961
v 0.00091618 -0.12412037 0.15676143
v -0.16279723 -0.12528585 0.16127946
v -0.21809015 -0.12528585 0.16119560
v -0.21809015 -0.11555547 0.15664961
v 0.00091618 -0.12374092 0.15778873
v 0.00091618 -0.12317174 0.15929474
v 0.00091618 -0.09335719 0.15664961
v 0.00091618 -0.12065104 0.15982936
v 0.00091618 0.13369409 0.19234314
v -0.21809015 0.13369409 0.19234314
v -0.15355672 -0.09297773 0.15664961
v -0.21809015 -0.05126448 0.16043734
v -0.14429478 0.09206216 0.16507769
v -0.14892575 -0.09265248 0.15664961
v 0.00091618 -0.09289641 0.15666708
v 0.00091618 0.13556428 0.19233965
v -0.21809015 0.13391093 0.19234314
v -0.15280632 -0.09289641 0.15664961
v -0.21809015 0.12908639 0.17250991
v -0.14429478 0.09669695 0.16540615
v -0.13966381 0.09206216 0.16509165
v 0.00091618 -0.07438431 0.15763148
v -0.21809015 0.13832890 0.19232917
v 0.00091618 0.13832890 0.19232917
v -0.21809015 0.13198653 0.17284535
v -0.13966381 0.09669695 0.16542362
v -0.10731132 0.14296370 0.17510611
v -0.07493741 0.14296370 0.17510262
v 0.00091618 0.13198653 0.17284535
v 0.00091618 0.08249439 0.16769836
v 0.00091618 -0.02350985 0.16029060
v -0.10731132 0.14136457 0.19187841
v -0.21809015 0.14131035 0.19187841
v 0.00091618 0.14131035 0.19187841
v -0.00558004 0.14136457 0.19187841
v -0.21809015 0.14296370 0.17521794
v 0.00091618 0.13082105 0.17270907
v 0.00091618 0.12908639 0.17250991
v -0.10731132 0.14635172 0.17661912
v -0.07493741 0.14635172 0.17661214
v -0.04256349 0.14296370 0.17512709
v -0.00558004 0.14296370 0.17520396
v -0.00094907 0.14296370 0.17523192
v 0.00091618 0.14296370 0.17525287
v -0.07493741 0.14366842 0.19021866
v -0.10731132 0.14366842 0.19019070
v -0.21809015 0.14361420 0.19010335
v 0.00091618 0.14225900 0.19115161
v -0.00558004 0.14366842 0.19019768
v -0.01018958 0.14366842 0.19020119
v -0.04256349 0.14366842 0.19021517
v -0.21809015 0.14618910 0.17675191
v -0.21809015 0.14751720 0.17973248
v -0.10731132 0.14773403 0.17988274
v -0.07493741 0.14776114 0.17988274
v -0.04256349 0.14632461 0.17664358
v -0.01018958 0.14621621 0.17671696
v -0.00558004 0.14621621 0.17673793
v 0.00091618 0.14616199 0.17677986
v -0.07493741 0.14629752 0.18790548
v -0.21809015 0.14374973 0.18999503
v 0.00091618 0.14361420 0.19009985
v -0.00558004 0.14629752 0.18788451
v -0.01018958 0.14629752 0.18788801
v -0.04256349 0.14629752 0.18790199
v -0.21809015 0.14757140 0.17988274
v -0.21809015 0.14765272 0.18428896
v -0.11192086 0.14767982 0.18450559
v -0.00558004 0.14767982 0.18450559
v -0.04256349 0.14770693 0.17988274
v -0.21809015 0.14765272 0.18450559
v -0.01018958 0.14762562 0.17988274
v -0.00094907 0.14757140 0.17988274
v 0.00091618 0.14754431 0.17988274
v -0.21809015 0.14632461 0.18763642
v -0.21809015 0.14624330 0.18779018
v 0.00091618 0.14624330 0.18778667
v 0.00091618 0.14681250 0.18646586
v 0.00091618 0.14765272 0.18450559
f 1 2 3
f 1 3 14
f 1 14 21
f 1 21 28
f 1 28 34
f 1 34 44
f 1 44 58
f 1 58 72
f 1 72 87
f 1 87 86
f 1 86 82
f 1 82 78
f 1 78 77
f 1 77 64
f 1 64 63
f 1 63 47
f 1 47 36
f 1 36 30
f 1 30 23
f 1 23 15
f 1 15 4
f 1 4 2
f 2 5 6
f 2 6 7
f 2 7 8
f 2 8 9
f 2 9 3
f 2 4 10
f 2 10 11
f 2 11 12
f 2 12 5
f 3 9 13
f 3 13 14
f 4 15 22
f 4 22 29
f 4 29 25
f 4 25 18
f 4 18 11
f 4 11 10
f 5 13 6
f 5 12 16
f 5 16 17
f 5 17 13
f 6 13 7
f 7 13 8
f 8 13 9
f 11 18 26
f 11 26 33
f 11 33 42
f 11 42 41
f 11 41 49
f 11 49 48
f 11 48 40
f 11 40 55
f 11 55 70
f 11 70 85
f 11 85 90
f 11 90 89
f 11 89 88
f 11 88 73
f 11 73 59
f 11 59 45
f 11 45 35
f 11 35 27
f 11 27 20
f 11 20 19
f 11 19 17
f 11 17 16
f 11 16 12
f 13 17 19
f 13 19 20
f 13 20 21
f 13 21 14
f 15 23 24
f 15 24 22
f 18 25 26
f 20 27 28
f 20 28 21
f 22 24 29
f 23 30 24
f 24 30 31
f 24 31 32
f 24 32 26
f 24 26 25
f 24 25 29
f 26 32 33
f 27 34 28
f 27 35 34
f 30 36 31
f 31 37 32
f 31 36 38
f 31 38 39
f 31 39 40
f 31 40 37
f 32 37 41
f 32 41 42
f 32 42 33
f 34 35 46
f 34 46 43
f 34 43 44
f 35 45 46
f 36 47 38
f 37 40 48
f 37 48 49
f 37 49 41
f 38 47 50
f 38 50 51
f 38 51 39
f 39 51 52
f 39 52 40
f 40 52 53
f 40 53 54
f 40 54 55
f 43 46 56
f 43 56 44
f 44 56 57
f 44 57 58
f 45 59 60
f 45 60 46
f 46 60 61
f 46 61 62
f 46 62 56
f 47 63 50
f 50 63 64
f 50 64 65
f 50 65 66
f 50 66 51
f 51 66 67
f 51 67 52
f 52 67 53
f 53 67 68
f 53 68 69
f 53 69 54
f 54 69 70
f 54 70 55
f 56 62 76
f 56 76 71
f 56 71 57
f 57 71 72
f 57 72 58
f 59 73 60
f 60 74 75
f 60 75 61
f 60 73 88
f 60 88 74
f 61 75 76
f 61 76 62
f 64 77 65
f 65 78 66
f 65 77 78
f 66 79 80
f 66 80 81
f 66 81 67
f 66 78 82
f 66 82 79
f 67 81 83
f 67 83 69
f 67 69 68
f 69 83 84
f 69 84 70
f 70 84 85
f 71 76 80
f 71 80 79
f 71 79 82
f 71 82 86
f 71 86 87
f 71 87 72
f 74 89 90
f 74 90 80
f 74 80 75
f 74 88 89
f 75 80 76
f 80 90 83
f 80 83 81
f 83 90 84
f 84 90 85

