v -0.23196300 0.08498590 -0.05598976
v -0.23199651 0.08498590 -0.06061223
v -0.23225266 0.09209020 -0.05598976
v -0.23225026 0.09209020 -0.01437340
v -0.23206355 0.08746399 -0.00241556
v -0.23198694 0.08498590 -0.00241556
v -0.23256146 0.08498590 -0.06242317
v -0.23213537 0.08746399 -0.06061223
v -0.23242741 0.09209020 -0.06061223
v -0.23337057 0.09578854 -0.05598976
v -0.23225266 0.09209020 -0.00241556
v -0.23690144 0.08498590 -0.00241556
v -0.23327481 0.08498590 -0.06460053
v -0.23335381 0.08746399 -0.06450892
v -0.23355010 0.09209020 -0.06424820
v -0.23392592 0.09504201 -0.06370563
v -0.23349505 0.09557291 -0.06061223
v -0.23635565 0.09810165 -0.05598976
v -0.23514678 0.09712478 -0.00241556
v -0.23340408 0.09577385 -0.00241556
v -0.25641576 0.09366984 -0.00241556
v -0.25641576 0.08498590 -0.06226110
v -0.23487866 0.08498590 -0.06539678
v -0.23681047 0.09209020 -0.06605914
v -0.23681047 0.09575097 -0.06443846
v -0.23708815 0.09788439 -0.06040788
v -0.23881410 0.09915365 -0.05873083
v -0.23866806 0.09920919 -0.05598976
v -0.23867764 0.09920593 -0.01899587
v -0.23639633 0.09808531 -0.00241556
v -0.23636522 0.09807878 -0.01899587
v -0.25641576 0.10162848 -0.00241556
v -0.25641576 0.08498590 -0.07440215
v -0.23681047 0.08498590 -0.06628463
v -0.23681047 0.08746399 -0.06622121
v -0.25641576 0.08699026 -0.07397936
v -0.25641576 0.09403248 -0.07194293
v -0.25641576 0.09703494 -0.06962465
v -0.25641576 0.09894293 -0.06782076
v -0.25641576 0.10038044 -0.06453711
v -0.25641576 0.10095872 -0.06216950
v -0.25641576 0.10131810 -0.06061223
v -0.25641576 0.10160070 -0.05598976
v -0.25641576 0.10162848 -0.05136024
v -0.25641576 0.10167258 -0.02824786
v -0.25641576 0.10167258 -0.02251910
v -0.23870877 0.09918959 -0.00241556
f 1 2 3
f 1 3 4
f 1 4 5
f 1 5 6
f 1 6 12
f 1 12 22
f 1 22 33
f 1 33 34
f 1 34 23
f 1 23 13
f 1 13 7
f 1 7 2
f 2 7 8
f 2 8 3
f 3 8 9
f 3 9 10
f 3 10 4
f 4 11 5
f 4 10 11
f 5 11 20
f 5 20 19
f 5 19 30
f 5 30 47
f 5 47 32
f 5 32 21
f 5 21 12
f 5 12 6
f 7 13 14
f 7 14 8
f 8 14 15
f 8 15 9
f 9 15 16
f 9 16 17
f 9 17 10
f 10 17 18
f 10 18 19
f 10 19 20
f 10 20 11
f 12 21 22
f 13 23 24
f 13 24 14
f 14 24 15
f 15 24 16
f 16 24 25
f 16 25 26
f 16 26 17
f 17 26 18
f 18 26 27
f 18 27 28
f 18 28 29
f 18 29 30
f 18 30 31
f 18 31 19
f 19 31 30
f 21 32 46
f 21 46 45
f 21 45 44
f 21 44 43
f 21 43 42
f 21 42 41
f 21 41 40
f 21 40 39
f 21 39 38
f 21 38 37
f 21 37 36
f 21 36 33
f 21 33 22
f 23 34 35
f 23 35 24
f 24 35 33
f 24 33 36
f 24 36 37
f 24 37 25
f 25 37 38
f 25 38 39
f 25 39 26
f 26 39 27
f 27 39 40
f 27 40 41
f 27 41 42
f 27 42 43
f 27 43 28
f 28 43 44
f 28 44 45
f 28 45 46
f 28 46 29
f 29 46 47
f 29 47 30
f 32 47 46
f 33 35 34

