v 0.21908845 -0.11933070 0.06962971
v 0.21909717 -0.11933070 0.06888588
v 0.24282495 -0.11935063 0.08275808
v 0.22023327 -0.11933070 0.07447276
v 0.23497662 0.08411994 0.05590410
v 0.21945846 -0.11933070 0.05590410
v 0.24269871 -0.11933070 0.08363493
v 0.22563090 -0.11933070 0.07802633
v 0.22262303 -0.11933070 0.07688344
v 0.22566137 -0.11933070 0.05590410
v 0.24768280 -0.11933070 0.07070745
v 0.24973739 -0.11933070 0.07350633
v 0.25042515 -0.11933070 0.07809420
v 0.25024668 -0.11933070 0.08363493
v 0.25934428 0.08411994 0.08363493
v 0.23602132 0.08411994 0.05891744
v 0.25362019 0.08411994 0.05590410
v 0.25671076 0.05508117 0.08363493
v 0.25879582 0.07820463 0.08363493
v 0.25924417 0.08306435 0.08363493
v 0.25113031 -0.07212776 0.06657022
v 0.25111726 -0.10895402 0.07125040
v 0.25822122 0.08411994 0.05656649
v 0.25988840 0.08411994 0.05711758
v 0.25659324 0.00883424 0.06128195
v 0.25108244 -0.11347515 0.07636221
v 0.25116515 -0.11401291 0.07944613
v 0.25118255 -0.11413241 0.08275808
v 0.25118255 -0.11411250 0.08363493
v 0.26355355 0.08411994 0.08363493
v 0.25589676 -0.05589553 0.07078618
v 0.25580101 -0.05840505 0.07109294
v 0.25124785 -0.11038803 0.07433431
v 0.26118558 0.05046046 0.06099691
v 0.26084169 0.08411994 0.05782069
v 0.25132620 -0.11172247 0.07799647
v 0.25609265 -0.05589553 0.07350633
v 0.25143937 -0.11140379 0.08275808
v 0.25143937 -0.11140379 0.08363493
v 0.26355355 0.08411994 0.07350633
v 0.26330980 0.05508117 0.08363493
v 0.26240003 0.05046046 0.06426000
v 0.26290062 0.05046046 0.06888588
v 0.26132486 0.05508117 0.06074715
v 0.26267427 0.05508117 0.06426000
v 0.26151203 0.08411994 0.05868668
v 0.25615359 -0.05589553 0.07813220
v 0.26304863 0.05046046 0.07350633
v 0.25615359 -0.05589553 0.08363493
v 0.26330980 0.05508117 0.07813220
v 0.26327498 0.05508117 0.07350633
v 0.26347085 0.08411994 0.06426000
v 0.26327061 0.05420482 0.08363493
v 0.26315745 0.05508117 0.06888588
v 0.26196039 0.08411994 0.05938708
v 0.26319226 0.08411994 0.06297865
v 0.26309214 0.05046046 0.07813220
v 0.26309214 0.05046046 0.08363493
f 1 2 3
f 1 3 4
f 1 4 5
f 1 5 2
f 2 6 3
f 2 5 6
f 3 7 8
f 3 8 9
f 3 9 4
f 3 6 10
f 3 10 11
f 3 11 12
f 3 12 13
f 3 13 14
f 3 14 7
f 4 9 15
f 4 15 16
f 4 16 5
f 5 16 15
f 5 15 30
f 5 30 40
f 5 40 52
f 5 52 56
f 5 56 55
f 5 55 46
f 5 46 35
f 5 35 24
f 5 24 23
f 5 23 17
f 5 17 10
f 5 10 6
f 7 14 29
f 7 29 39
f 7 39 49
f 7 49 58
f 7 58 53
f 7 53 41
f 7 41 30
f 7 30 15
f 7 15 20
f 7 20 19
f 7 19 18
f 7 18 8
f 8 18 19
f 8 19 20
f 8 20 9
f 9 20 15
f 10 21 22
f 10 22 11
f 10 17 23
f 10 23 24
f 10 24 25
f 10 25 21
f 11 22 12
f 12 22 13
f 13 22 26
f 13 26 27
f 13 27 28
f 13 28 29
f 13 29 14
f 21 25 22
f 22 31 32
f 22 32 33
f 22 33 26
f 22 25 34
f 22 34 31
f 24 35 34
f 24 34 25
f 26 33 32
f 26 32 36
f 26 36 27
f 27 36 37
f 27 37 38
f 27 38 28
f 28 38 39
f 28 39 29
f 30 41 50
f 30 50 40
f 31 34 32
f 32 34 42
f 32 42 43
f 32 43 37
f 32 37 36
f 34 35 44
f 34 44 45
f 34 45 42
f 35 46 44
f 37 47 38
f 37 43 48
f 37 48 47
f 38 47 49
f 38 49 39
f 40 50 51
f 40 51 52
f 41 53 50
f 42 45 43
f 43 45 54
f 43 54 48
f 44 46 55
f 44 55 45
f 45 55 56
f 45 56 52
f 45 52 54
f 47 48 57
f 47 57 58
f 47 58 49
f 48 54 51
f 48 51 57
f 50 53 57
f 50 57 51
f 51 54 52
f 53 58 57

