v 0.24332453 0.09909676 -0.00241556
v 0.24382011 0.09913876 -0.05598730
v 0.24166712 0.09909676 -0.00241556
v 0.24477621 0.09884475 -0.00241556
v 0.24477621 0.09901276 -0.05598730
v 0.24159934 0.09913876 -0.05598730
v 0.24477621 0.09899176 -0.05726242
v 0.24335025 0.09909676 -0.05861206
v 0.23935519 0.09804672 -0.00241556
v 0.24477621 0.09319556 -0.00241556
v 0.24166947 0.09909676 -0.05861206
v 0.23928739 0.09804672 -0.05598730
v 0.24477621 0.09850874 -0.06034259
v 0.24461024 0.09852974 -0.06033430
v 0.23611286 0.09573665 -0.00512313
v 0.23747103 0.09670268 -0.00241556
v 0.22985027 -0.07439017 -0.00241556
v 0.24477621 -0.11540457 -0.07537082
v 0.24418945 0.09609366 -0.06477240
v 0.23956558 0.09567364 -0.06439979
v 0.23990454 0.09781572 -0.06033430
v 0.23626013 0.09548464 -0.06061583
v 0.23609650 0.09573665 -0.05598730
v 0.24477621 0.09842474 -0.06050819
v 0.24477621 0.09609366 -0.06477240
v 0.23611987 0.09573665 -0.00241556
v 0.23483183 0.09208252 -0.00512313
v 0.22600483 -0.11540457 -0.00241556
v 0.24477621 -0.11540457 -0.08700425
v 0.24418945 0.09208252 -0.06646152
v 0.23956558 0.09208252 -0.06603096
v 0.23671597 0.09493862 -0.06366287
v 0.23507727 0.09208252 -0.06061583
v 0.23482481 0.09208252 -0.05598730
v 0.24477621 0.09208252 -0.06645324
v 0.23483884 0.09208252 -0.00241556
v 0.22325340 -0.07121906 -0.00241556
v 0.22091341 -0.11540457 -0.00241556
v 0.22569159 -0.11540457 -0.07961020
v 0.22690016 -0.08365149 -0.07751535
v 0.23237027 -0.00141268 -0.07234862
v 0.23724896 0.07129181 -0.06755449
v 0.23629986 0.09208252 -0.06423419
v 0.22988533 0.01807599 -0.06523608
v 0.22331419 -0.07166008 -0.06816720
v 0.22326743 -0.07132407 -0.06523608
v 0.22325340 -0.07121906 -0.06061583
v 0.22089705 -0.11540457 -0.00448557
v 0.22530119 -0.11540457 -0.07941976
v 0.22242587 -0.11540457 -0.07797903
v 0.22324405 -0.08463852 -0.07254733
v 0.22357367 -0.07439017 -0.07065949
v 0.22120563 -0.11540457 -0.07448486
v 0.22115185 -0.11540457 -0.07385558
v 0.22092510 -0.11540457 -0.06986461
v 0.22091108 -0.11540457 -0.06523608
v 0.22089705 -0.11540457 -0.00974338
f 1 2 6
f 1 6 3
f 1 3 9
f 1 9 16
f 1 16 26
f 1 26 36
f 1 36 37
f 1 37 38
f 1 38 28
f 1 28 17
f 1 17 10
f 1 10 4
f 1 4 5
f 1 5 2
f 2 5 7
f 2 7 8
f 2 8 11
f 2 11 6
f 3 6 9
f 4 10 18
f 4 18 29
f 4 29 35
f 4 35 25
f 4 25 24
f 4 24 13
f 4 13 7
f 4 7 5
f 6 11 12
f 6 12 9
f 7 13 8
f 8 13 14
f 8 14 11
f 9 12 15
f 9 15 16
f 10 17 18
f 11 14 19
f 11 19 20
f 11 20 21
f 11 21 12
f 12 21 22
f 12 22 23
f 12 23 15
f 13 24 14
f 14 24 25
f 14 25 19
f 15 26 16
f 15 23 27
f 15 27 36
f 15 36 26
f 17 28 18
f 18 28 38
f 18 38 48
f 18 48 57
f 18 57 56
f 18 56 55
f 18 55 54
f 18 54 53
f 18 53 50
f 18 50 49
f 18 49 39
f 18 39 29
f 19 25 30
f 19 30 31
f 19 31 20
f 20 32 21
f 20 31 32
f 21 32 22
f 22 32 33
f 22 33 34
f 22 34 23
f 23 34 27
f 25 35 30
f 27 34 37
f 27 37 36
f 29 30 35
f 29 39 40
f 29 40 41
f 29 41 42
f 29 42 31
f 29 31 30
f 31 43 32
f 31 42 43
f 32 43 33
f 33 43 44
f 33 44 45
f 33 45 34
f 34 45 46
f 34 46 47
f 34 47 37
f 37 47 57
f 37 57 48
f 37 48 38
f 39 49 40
f 40 49 50
f 40 50 41
f 41 50 42
f 42 50 43
f 43 50 44
f 44 50 51
f 44 51 52
f 44 52 45
f 45 52 53
f 45 53 54
f 45 54 55
f 45 55 46
f 46 55 47
f 47 55 56
f 47 56 57
f 50 53 51
f 51 53 52

