v -0.25635785 0.08171313 0.14580710
v -0.25635785 0.08171313 0.07682206
v -0.26048717 0.08171313 0.14580710
v -0.23682984 -0.12020130 0.14580710
v -0.23682984 -0.11848456 0.07682206
v -0.26048717 0.08171313 0.07682206
v -0.26048949 0.08171313 0.13825690
v -0.26014904 0.05046004 0.14580710
v -0.23682984 -0.12030473 0.14580710
v -0.23682984 -0.12673736 0.07682206
v -0.26048949 0.08171313 0.10476049
v -0.26013514 0.05046004 0.07682206
v -0.25375242 -0.05128317 0.07813894
v -0.25375242 -0.05128317 0.14288292
v -0.25340734 -0.05589563 0.14580710
v -0.23821709 -0.12566181 0.14580710
v -0.23682984 -0.12518608 0.14579358
v -0.24244832 -0.12959171 0.14580710
v -0.24194344 -0.12876437 0.07682206
v -0.25373388 -0.05128317 0.07682206
v -0.25364820 -0.05258624 0.07682206
v -0.25343050 -0.05589563 0.07682206
v -0.25344671 -0.05589563 0.07813894
v -0.25344902 -0.05589563 0.08276496
v -0.25344902 -0.05589563 0.14288292
v -0.25313175 -0.05955665 0.14580710
v -0.24534555 -0.12959171 0.14580710
v -0.24525292 -0.12872300 0.07813894
v -0.24514176 -0.12866095 0.07682206
v -0.25313638 -0.05949460 0.07682206
v -0.25314333 -0.05961870 0.07813894
v -0.25314564 -0.05966007 0.08276496
v -0.25314564 -0.05970144 0.14288292
v -0.24850450 -0.11511312 0.14288292
v -0.24847903 -0.11494764 0.14580710
v -0.24701303 -0.12526881 0.07813894
v -0.24714967 -0.12526881 0.14580710
v -0.24640393 -0.12619959 0.07682206
v -0.24847903 -0.11498901 0.07682206
v -0.24849987 -0.11511312 0.07813894
v -0.24821501 -0.11742969 0.07813894
v -0.24819878 -0.11742969 0.14288292
v -0.24678838 -0.12526881 0.07682206
v -0.24832616 -0.11623004 0.07682206
f 1 2 6
f 1 6 11
f 1 11 7
f 1 7 3
f 1 3 8
f 1 8 15
f 1 15 26
f 1 26 35
f 1 35 37
f 1 37 27
f 1 27 18
f 1 18 16
f 1 16 9
f 1 9 4
f 1 4 5
f 1 5 2
f 2 5 10
f 2 10 19
f 2 19 29
f 2 29 38
f 2 38 43
f 2 43 44
f 2 44 39
f 2 39 30
f 2 30 22
f 2 22 21
f 2 21 20
f 2 20 12
f 2 12 6
f 3 7 8
f 4 9 17
f 4 17 10
f 4 10 5
f 6 12 8
f 6 8 11
f 7 11 8
f 8 12 13
f 8 13 14
f 8 14 15
f 9 16 17
f 10 17 18
f 10 18 19
f 12 20 13
f 13 20 21
f 13 21 22
f 13 22 23
f 13 23 24
f 13 24 25
f 13 25 14
f 14 25 15
f 15 25 26
f 16 18 17
f 18 27 19
f 19 27 28
f 19 28 29
f 22 30 31
f 22 31 23
f 23 31 32
f 23 32 24
f 24 32 33
f 24 33 25
f 25 33 26
f 26 33 34
f 26 34 35
f 27 36 28
f 27 37 36
f 28 36 38
f 28 38 29
f 30 39 40
f 30 40 31
f 31 40 32
f 32 40 34
f 32 34 33
f 34 40 41
f 34 41 42
f 34 42 37
f 34 37 35
f 36 43 38
f 36 37 41
f 36 41 44
f 36 44 43
f 37 42 41
f 39 44 41
f 39 41 40

