v 0.25361994 0.08411994 0.05590410
v 0.23492143 0.00421360 -0.00241556
v 0.23503526 0.00612562 -0.00241556
v 0.23519596 0.00883431 -0.00241556
v 0.23925707 0.07820464 -0.00241556
v 0.23950483 0.08411994 -0.00241556
v 0.23497500 0.08411994 0.05590410
v 0.22566089 -0.11935043 0.05590410
v 0.22566425 -0.11935043 0.05500783
v 0.22572786 -0.11935043 0.03650607
v 0.22571781 -0.11935043 0.00282499
v 0.22571446 -0.11935043 -0.00049174
v 0.22570777 -0.11935043 -0.00179902
v 0.22569438 -0.11935043 -0.00241556
v 0.22575798 -0.11873301 -0.00241556
v 0.22984923 -0.07439813 -0.00241556
v 0.23467369 0.08411994 -0.00241556
v 0.23465693 0.08411994 0.05500783
v 0.21945709 -0.11933052 0.05590410
v 0.22094358 -0.11935043 0.05590410
v 0.21944369 -0.11935043 -0.00241556
v 0.23459667 0.08411994 0.05037811
v 0.21944369 -0.11935043 0.05513342
v 0.21942359 -0.11935043 0.03188206
v 0.21942359 -0.11935043 0.03201907
v 0.21943699 -0.11935043 0.05037811
f 1 2 3
f 1 3 4
f 1 4 5
f 1 5 6
f 1 6 17
f 1 17 22
f 1 22 18
f 1 18 7
f 1 7 19
f 1 19 20
f 1 20 8
f 1 8 9
f 1 9 10
f 1 10 11
f 1 11 12
f 1 12 13
f 1 13 14
f 1 14 15
f 1 15 16
f 1 16 2
f 2 16 15
f 2 15 14
f 2 14 21
f 2 21 17
f 2 17 6
f 2 6 5
f 2 5 4
f 2 4 3
f 7 18 19
f 8 20 23
f 8 23 26
f 8 26 25
f 8 25 24
f 8 24 21
f 8 21 14
f 8 14 13
f 8 13 12
f 8 12 11
f 8 11 10
f 8 10 9
f 17 21 22
f 18 22 23
f 18 23 19
f 19 23 20
f 21 24 22
f 22 24 25
f 22 25 26
f 22 26 23

