v 0.25053418 -0.11935158 0.14287541
v 0.24282415 -0.11935025 0.13824978
v 0.25052932 -0.11935158 0.14598772
v 0.24995921 -0.12528708 0.14750104
v 0.25042500 -0.11935158 0.07809754
v 0.22575194 -0.11935158 0.16141600
v 0.23031780 -0.11935158 0.16151117
v 0.23494187 -0.11935158 0.16156829
v 0.23956594 -0.11935158 0.16112095
v 0.24281201 -0.11935158 0.15990268
v 0.24346706 -0.11935158 0.15920789
v 0.24574514 -0.11935158 0.15678084
v 0.24729539 -0.11935158 0.15512476
v 0.24912707 -0.11935158 0.15212667
v 0.24953464 -0.11935158 0.15077514
v 0.25046868 -0.11935158 0.14743442
v 0.24973843 -0.11935158 0.07350998
v 0.24768356 -0.11935158 0.07071175
v 0.22575194 -0.11935158 0.06433485
v 0.25038133 -0.12066125 0.14750104
v 0.24877042 -0.12528708 0.15212667
v 0.24772480 -0.12978101 0.15226944
v 0.24716438 -0.13295994 0.15081322
v 0.24716438 -0.13295994 0.14873835
v 0.24971903 -0.12528708 0.07813560
v 0.24909796 -0.12528708 0.07350998
v 0.24961471 -0.12066125 0.07350998
v 0.22575194 -0.12528708 0.16119709
v 0.23031780 -0.12528708 0.16128275
v 0.23494187 -0.12528708 0.16127324
v 0.23956594 -0.12066125 0.16106384
v 0.24279018 -0.12066125 0.15987413
v 0.24510221 -0.12066125 0.15740903
v 0.24726627 -0.12066125 0.15509621
v 0.24908581 -0.12066125 0.15212667
v 0.24740456 -0.12528708 0.07082596
v 0.24701396 -0.12808629 0.07095921
v 0.22575194 -0.12066125 0.06466798
v 0.24707461 -0.12528708 0.15494393
v 0.24679561 -0.12815291 0.15470598
v 0.24543702 -0.13295994 0.15081322
v 0.24231952 -0.12824217 0.15942680
v 0.23956594 -0.12876045 0.15986460
v 0.23494187 -0.12897229 0.16019772
v 0.23031780 -0.12898162 0.16027388
v 0.24543702 -0.13295994 0.14873835
v 0.22575194 -0.12892033 0.07046429
v 0.23031780 -0.12890834 0.07055947
v 0.23494187 -0.12886703 0.07060705
v 0.23956594 -0.12881241 0.07061658
v 0.24380671 -0.12889368 0.07385261
v 0.24765445 -0.12862988 0.07350998
v 0.24798196 -0.12877643 0.07813560
v 0.22575194 -0.12896963 0.16028339
v 0.23956594 -0.12528708 0.16076879
v 0.24263735 -0.12528708 0.15971232
v 0.24494938 -0.12528708 0.15725674
v 0.24419002 -0.12855127 0.07073079
v 0.22575194 -0.12896963 0.15773262
f 1 2 3
f 1 3 4
f 1 4 5
f 1 5 2
f 2 6 7
f 2 7 8
f 2 8 9
f 2 9 10
f 2 10 11
f 2 11 12
f 2 12 13
f 2 13 14
f 2 14 15
f 2 15 16
f 2 16 3
f 2 5 17
f 2 17 18
f 2 18 19
f 2 19 6
f 3 16 20
f 3 20 4
f 4 20 21
f 4 21 22
f 4 22 23
f 4 23 24
f 4 24 25
f 4 25 5
f 5 25 26
f 5 26 27
f 5 27 17
f 6 28 7
f 6 19 38
f 6 38 47
f 6 47 59
f 6 59 54
f 6 54 28
f 7 29 8
f 7 28 29
f 8 29 30
f 8 30 31
f 8 31 9
f 9 31 32
f 9 32 10
f 10 32 11
f 11 32 12
f 12 32 33
f 12 33 13
f 13 33 34
f 13 34 35
f 13 35 14
f 14 35 15
f 15 35 20
f 15 20 16
f 17 27 36
f 17 36 18
f 18 36 19
f 19 36 37
f 19 37 38
f 20 35 21
f 21 35 39
f 21 39 40
f 21 40 22
f 22 40 23
f 23 41 46
f 23 46 24
f 23 40 42
f 23 42 43
f 23 43 44
f 23 44 45
f 23 45 41
f 24 46 47
f 24 47 48
f 24 48 49
f 24 49 50
f 24 50 51
f 24 51 52
f 24 52 53
f 24 53 25
f 25 53 52
f 25 52 26
f 26 52 37
f 26 37 36
f 26 36 27
f 28 54 29
f 29 54 45
f 29 45 30
f 30 45 44
f 30 44 43
f 30 43 55
f 30 55 31
f 31 55 56
f 31 56 32
f 32 56 57
f 32 57 33
f 33 57 34
f 34 57 39
f 34 39 35
f 37 52 58
f 37 58 38
f 38 58 50
f 38 50 47
f 39 57 40
f 40 57 56
f 40 56 42
f 41 45 54
f 41 54 59
f 41 59 46
f 42 56 55
f 42 55 43
f 46 59 47
f 47 50 48
f 48 50 49
f 50 58 51
f 51 58 52

