v 0.25710310 0.10354285 -0.17961084
v 0.25722566 0.10354285 -0.17956666
v 0.25710310 0.10354285 -0.17219043
v 0.25710310 0.13032697 -0.19408503
v 0.26269331 0.13034002 -0.19347109
v 0.26579595 0.13087083 -0.19288363
v 0.25843540 0.10354285 -0.17862587
v 0.25710310 0.11059130 -0.17273813
v 0.26127476 0.10354285 -0.15071988
v 0.25710310 0.13374243 -0.19558236
v 0.25806771 0.13371197 -0.19540569
v 0.26269331 0.13371197 -0.19459740
v 0.26627713 0.13371197 -0.19320606
v 0.26858993 0.13371197 -0.19156740
v 0.27057134 0.13068374 -0.18875824
v 0.25953846 0.10354285 -0.17775573
v 0.25710310 0.11527722 -0.17310915
v 0.26579595 0.10354285 -0.15071988
v 0.26171961 0.12908697 -0.15071988
v 0.25710310 0.13835873 -0.19583853
v 0.25806771 0.13833698 -0.19567070
v 0.26269331 0.13833698 -0.19449581
v 0.26619087 0.13833698 -0.19313982
v 0.26850367 0.13833698 -0.19145698
v 0.27095266 0.13371197 -0.18925293
v 0.27326317 0.13371197 -0.18679273
v 0.27490189 0.13064894 -0.18410283
v 0.26177636 0.10354285 -0.17544128
v 0.26071869 0.10354285 -0.17654551
v 0.25710310 0.13824996 -0.17619658
v 0.27959331 0.13045750 -0.15071988
v 0.26643826 0.10354285 -0.15531345
v 0.27454328 0.10805473 -0.15977010
v 0.26196474 0.13148431 -0.15071988
v 0.25710310 0.14217012 -0.17707553
v 0.25710310 0.14144787 -0.17682377
v 0.25710310 0.13919410 -0.19570603
v 0.25806771 0.14296198 -0.19479173
v 0.26568021 0.14151748 -0.19279530
v 0.27033303 0.14173067 -0.18860807
v 0.27494727 0.14171327 -0.18398357
v 0.27077335 0.13833698 -0.18914251
v 0.27531723 0.13833698 -0.18438993
v 0.27528546 0.13371197 -0.18447827
v 0.27708757 0.13371197 -0.18086524
v 0.27915298 0.13099701 -0.17488475
v 0.27454328 0.10805473 -0.16044589
v 0.26378049 0.10354285 -0.17147048
v 0.28018116 0.13371197 -0.15071988
v 0.28029009 0.13371197 -0.16699616
v 0.26647912 0.10354285 -0.15965085
v 0.26219397 0.13371197 -0.15071988
v 0.25710310 0.14367552 -0.17784849
v 0.26244365 0.13610931 -0.15071988
v 0.26267969 0.13833698 -0.15071988
v 0.25710310 0.14288366 -0.19500375
v 0.25806771 0.14595975 -0.19307356
v 0.26108865 0.14560297 -0.19271138
v 0.26265472 0.14301854 -0.19335182
v 0.26417314 0.14460227 -0.19191192
v 0.26744147 0.14316647 -0.19025999
v 0.26919820 0.14481546 -0.18744643
v 0.27380563 0.14479806 -0.18262316
v 0.27582565 0.14313601 -0.18099775
v 0.27723511 0.13833698 -0.18086524
v 0.27836768 0.13371197 -0.17781316
v 0.27926419 0.13371197 -0.17549871
v 0.27991334 0.13371197 -0.17162065
v 0.27941627 0.13066199 -0.17162065
v 0.27954564 0.13050101 -0.16699616
v 0.26640196 0.10354285 -0.16223032
v 0.26536698 0.10354285 -0.16636896
v 0.27964323 0.13836308 -0.15071988
v 0.27987020 0.13833698 -0.16699616
v 0.27953655 0.13833698 -0.17162065
v 0.25710310 0.14492423 -0.17856402
v 0.26315859 0.14073432 -0.15071988
v 0.25710310 0.14601195 -0.19313099
v 0.25806771 0.14735638 -0.19011423
v 0.26265472 0.14641659 -0.19026882
v 0.26611598 0.14592058 -0.18882892
v 0.27072341 0.14604677 -0.18436342
v 0.27489281 0.14590753 -0.17954017
v 0.27785473 0.14263131 -0.17601106
v 0.27895099 0.14087355 -0.17431497
v 0.27848116 0.13833698 -0.17738472
v 0.27911212 0.13833698 -0.17507026
v 0.27935725 0.14025572 -0.15071988
v 0.27912575 0.14140000 -0.16699616
v 0.27911894 0.14131299 -0.15071988
v 0.27903723 0.14114765 -0.17162065
v 0.25710310 0.14668200 -0.18083431
v 0.26360572 0.14296198 -0.15071988
v 0.25710310 0.14740860 -0.19011423
v 0.26269331 0.14785239 -0.18548973
v 0.26752318 0.14668635 -0.18573709
v 0.27213516 0.14667765 -0.18099775
v 0.27193997 0.14777842 -0.17624074
v 0.27547383 0.14638179 -0.17624074
v 0.27810894 0.14345798 -0.17162065
v 0.27819744 0.14371468 -0.16699616
v 0.27877167 0.14209615 -0.15071988
v 0.25710310 0.14793071 -0.18548973
v 0.26469970 0.14564648 -0.15071988
v 0.25806771 0.14796116 -0.18548973
v 0.26731664 0.14794811 -0.18086524
v 0.27193997 0.14795246 -0.17162065
v 0.27579614 0.14655581 -0.17162065
v 0.27588693 0.14657758 -0.16699616
v 0.27703084 0.14512437 -0.15071988
v 0.27818383 0.14334486 -0.15071988
v 0.26731664 0.14704312 -0.15071988
v 0.27193997 0.14797421 -0.15071988
v 0.27193997 0.14798291 -0.15311825
v 0.27193997 0.14798726 -0.15774274
v 0.27193997 0.14798726 -0.16236725
v 0.27193997 0.14797421 -0.16699616
v 0.27583245 0.14658628 -0.15311825
v 0.27583245 0.14657758 -0.15071988
f 1 2 7
f 1 7 16
f 1 16 29
f 1 29 28
f 1 28 48
f 1 48 72
f 1 72 71
f 1 71 51
f 1 51 32
f 1 32 18
f 1 18 9
f 1 9 3
f 1 3 8
f 1 8 17
f 1 17 30
f 1 30 36
f 1 36 35
f 1 35 53
f 1 53 76
f 1 76 92
f 1 92 103
f 1 103 94
f 1 94 78
f 1 78 56
f 1 56 37
f 1 37 20
f 1 20 10
f 1 10 4
f 1 4 5
f 1 5 6
f 1 6 2
f 2 6 7
f 3 9 8
f 4 10 5
f 5 10 11
f 5 11 12
f 5 12 6
f 6 12 13
f 6 13 14
f 6 14 15
f 6 15 16
f 6 16 7
f 8 9 17
f 9 18 31
f 9 31 49
f 9 49 73
f 9 73 88
f 9 88 90
f 9 90 102
f 9 102 111
f 9 111 110
f 9 110 119
f 9 119 113
f 9 113 112
f 9 112 104
f 9 104 93
f 9 93 77
f 9 77 55
f 9 55 54
f 9 54 52
f 9 52 34
f 9 34 19
f 9 19 17
f 10 20 21
f 10 21 12
f 10 12 11
f 12 21 22
f 12 22 23
f 12 23 13
f 13 23 14
f 14 23 24
f 14 24 25
f 14 25 15
f 15 25 26
f 15 26 27
f 15 27 28
f 15 28 29
f 15 29 16
f 17 19 30
f 18 32 33
f 18 33 31
f 19 34 35
f 19 35 36
f 19 36 30
f 20 37 21
f 21 37 38
f 21 38 22
f 22 38 39
f 22 39 23
f 23 39 24
f 24 40 41
f 24 41 42
f 24 42 25
f 24 39 40
f 25 42 43
f 25 43 26
f 26 43 44
f 26 44 27
f 27 44 45
f 27 45 46
f 27 46 47
f 27 47 28
f 28 47 48
f 31 33 47
f 31 47 50
f 31 50 49
f 32 51 33
f 33 51 47
f 34 52 35
f 35 52 54
f 35 54 55
f 35 55 53
f 37 56 38
f 38 56 57
f 38 57 58
f 38 58 59
f 38 59 39
f 39 59 60
f 39 60 61
f 39 61 40
f 40 61 62
f 40 62 41
f 41 63 64
f 41 64 65
f 41 65 43
f 41 43 42
f 41 62 63
f 43 65 44
f 44 65 45
f 45 65 66
f 45 66 46
f 46 66 67
f 46 67 68
f 46 68 69
f 46 69 47
f 47 70 50
f 47 51 71
f 47 71 72
f 47 72 48
f 47 69 70
f 49 50 74
f 49 74 73
f 50 70 69
f 50 69 68
f 50 68 75
f 50 75 74
f 53 55 76
f 55 77 76
f 56 78 57
f 57 78 79
f 57 79 58
f 58 60 59
f 58 79 80
f 58 80 81
f 58 81 60
f 60 81 62
f 60 62 61
f 62 81 82
f 62 82 63
f 63 82 83
f 63 83 64
f 64 83 84
f 64 84 65
f 65 84 85
f 65 85 86
f 65 86 67
f 65 67 66
f 67 86 87
f 67 87 68
f 68 87 75
f 73 74 88
f 74 89 90
f 74 90 88
f 74 75 85
f 74 85 91
f 74 91 89
f 75 87 85
f 76 77 93
f 76 93 92
f 78 94 79
f 79 94 95
f 79 95 80
f 80 95 96
f 80 96 81
f 81 96 82
f 82 96 97
f 82 97 83
f 83 98 99
f 83 99 84
f 83 97 98
f 84 99 100
f 84 100 85
f 85 100 91
f 85 87 86
f 89 101 90
f 89 91 101
f 90 101 102
f 91 100 101
f 92 93 104
f 92 104 103
f 94 103 105
f 94 105 95
f 95 105 106
f 95 106 96
f 96 106 97
f 97 106 98
f 98 107 108
f 98 108 99
f 98 106 107
f 99 108 100
f 100 108 101
f 101 109 110
f 101 110 111
f 101 111 102
f 101 108 109
f 103 104 112
f 103 112 113
f 103 113 105
f 105 113 114
f 105 114 115
f 105 115 116
f 105 116 117
f 105 117 106
f 106 117 107
f 107 117 109
f 107 109 108
f 109 117 116
f 109 116 115
f 109 115 118
f 109 118 119
f 109 119 110
f 113 119 118
f 113 118 114
f 114 118 115

