v -0.22006272 -0.12894645 -0.16588294
v -0.21830038 -0.12897097 -0.16588294
v -0.22006272 -0.12894645 -0.16334729
v -0.22006272 -0.12757301 -0.16622310
v -0.16288453 -0.12914265 -0.16228334
v -0.21830038 -0.12897097 -0.16334729
v -0.16279751 -0.12526759 -0.16683349
v -0.19517236 -0.12897097 -0.16588777
v -0.16212303 -0.12902002 -0.15916868
v -0.22006272 -0.12583168 -0.15916868
v -0.22006272 -0.12526759 -0.16677560
v -0.17667866 -0.12897097 -0.16588294
v -0.17204436 -0.12897097 -0.16588052
v -0.16743182 -0.12894645 -0.16587086
v 0.00220985 -0.12465446 -0.15922417
v 0.00220985 -0.12465446 -0.15916868
v 0.00220985 -0.12065678 -0.16541731
v 0.00220985 -0.12315839 -0.16489617
v -0.22006272 -0.05590911 -0.17271058
v -0.17204436 -0.05590911 -0.17271058
v -0.16743182 -0.05590911 -0.17269127
v -0.16279751 -0.05590911 -0.17265267
v -0.22006272 -0.11967576 -0.15916868
v 0.00220985 -0.12379607 -0.16317600
v 0.00220985 -0.12409037 -0.16236779
v 0.00220985 -0.11614406 -0.15916868
v 0.00220985 0.12141123 -0.18381334
v -0.22006272 0.12141123 -0.18381334
v -0.21986690 0.12141123 -0.18381575
v -0.00094495 0.12141123 -0.18381575
v -0.15355065 -0.11611955 -0.15916868
v -0.14430381 0.09207857 -0.17065263
v -0.14430381 0.09671392 -0.17098074
v -0.22006272 0.12141123 -0.17812445
v -0.01395582 -0.11609502 -0.15916868
v 0.00220985 0.08248905 -0.17336198
v -0.13966950 0.09671392 -0.17096627
v -0.13966950 0.09207857 -0.17065505
v 0.00220985 0.12141123 -0.17812445
v -0.14891635 -0.11604596 -0.15916868
f 1 2 6
f 1 6 3
f 1 3 10
f 1 10 23
f 1 23 34
f 1 34 28
f 1 28 19
f 1 19 11
f 1 11 4
f 1 4 2
f 2 5 6
f 2 4 7
f 2 7 8
f 2 8 5
f 3 6 9
f 3 9 10
f 4 11 7
f 5 9 6
f 5 8 12
f 5 12 13
f 5 13 14
f 5 14 15
f 5 15 16
f 5 16 9
f 7 17 18
f 7 18 14
f 7 14 13
f 7 13 12
f 7 12 8
f 7 11 19
f 7 19 20
f 7 20 21
f 7 21 22
f 7 22 17
f 9 16 26
f 9 26 35
f 9 35 40
f 9 40 31
f 9 31 23
f 9 23 10
f 14 18 24
f 14 24 25
f 14 25 15
f 15 25 24
f 15 24 18
f 15 18 17
f 15 17 27
f 15 27 39
f 15 39 36
f 15 36 26
f 15 26 16
f 17 22 27
f 19 28 29
f 19 29 30
f 19 30 20
f 20 30 27
f 20 27 21
f 21 27 22
f 23 31 32
f 23 32 33
f 23 33 34
f 26 36 37
f 26 37 38
f 26 38 32
f 26 32 35
f 27 30 29
f 27 29 28
f 27 28 34
f 27 34 39
f 31 40 32
f 32 38 37
f 32 37 33
f 32 40 35
f 33 37 34
f 34 37 39
f 36 39 37

