v 0.21896461 -0.11935043 0.15460403
v 0.23867237 -0.11935043 0.15167809
v 0.21896461 -0.11935043 0.16142723
v 0.21896461 0.12906592 0.17250599
v 0.26293729 0.13832952 0.15167809
v 0.26163868 0.12906592 0.15167809
v 0.24926572 -0.11935043 0.15167809
v 0.23494485 -0.11935043 0.16157055
v 0.21896461 0.13369773 0.19234265
v 0.21896461 0.13199678 0.17284436
v 0.26385115 0.14296133 0.15167809
v 0.26374292 0.14249030 0.15167809
v 0.24913347 -0.11935043 0.15213590
v 0.27916403 0.13126407 0.15167809
v 0.28037848 0.13369773 0.16138345
v 0.28001172 0.13369773 0.16600921
v 0.27920008 0.13097622 0.16970744
v 0.23956818 -0.11935043 0.16113265
v 0.24882082 0.13369773 0.19210777
v 0.24419751 0.13369773 0.19234265
v 0.23956818 0.13369773 0.19234663
v 0.22106887 0.13369773 0.19234663
v 0.21896461 0.13832952 0.19233070
v 0.21896461 0.14296133 0.17520899
v 0.26468683 0.14526415 0.15167809
v 0.24729976 -0.11935043 0.15513348
v 0.27717400 0.13369773 0.17525678
v 0.27536435 0.13369773 0.17895499
v 0.27920610 0.13335753 0.15167809
v 0.28019211 0.13832952 0.16138345
v 0.27992154 0.13832952 0.16600921
v 0.27930230 0.13369773 0.16999805
v 0.27837643 0.13369773 0.17230695
v 0.24281472 -0.11935043 0.15990655
v 0.26269079 0.13369773 0.18897086
v 0.25186897 0.13369773 0.19165794
v 0.25129181 0.13134257 0.19147483
v 0.25207339 0.13832952 0.19176941
v 0.24882082 0.13832952 0.19221128
v 0.24419751 0.13832952 0.19232674
v 0.23956818 0.13832952 0.19233070
v 0.21896461 0.14131272 0.19188087
v 0.21896461 0.14445293 0.17590565
v 0.26479503 0.14552583 0.15167809
v 0.24574863 -0.11935043 0.15678953
v 0.27330821 0.13369773 0.18126789
v 0.27710186 0.13832952 0.17525678
v 0.27531025 0.13832952 0.17889927
v 0.27910389 0.13463979 0.15167809
v 0.27876120 0.13832952 0.15167809
v 0.27867103 0.13929775 0.15167809
v 0.27803374 0.14243796 0.15167809
v 0.27941653 0.14196693 0.16138345
v 0.27939248 0.14183609 0.16600921
v 0.27901371 0.14099870 0.16889933
v 0.27915801 0.13832952 0.16938897
v 0.27835238 0.13832952 0.17170185
v 0.24347003 -0.11935043 0.15921387
v 0.27099955 0.13369773 0.18366038
v 0.26860673 0.13369773 0.18597326
v 0.26629807 0.13369773 0.18760542
v 0.26628604 0.13832952 0.18754571
v 0.26269079 0.13832952 0.18886338
v 0.25156236 0.14092020 0.19162212
v 0.24882082 0.14118188 0.19179329
v 0.24419751 0.14131272 0.19187689
v 0.23956818 0.14131272 0.19188087
v 0.23032152 0.14364171 0.19010541
v 0.21896461 0.14361554 0.19010541
v 0.21896461 0.14620620 0.17673368
v 0.26731412 0.14691275 0.15167809
v 0.27324809 0.13832952 0.18121215
v 0.27093342 0.13832952 0.18367232
v 0.27494350 0.14175759 0.17839370
v 0.27800970 0.14251646 0.15167809
v 0.27842453 0.14429592 0.16138345
v 0.27834637 0.14416508 0.16600921
v 0.27782932 0.14269965 0.17051954
v 0.27579121 0.14317067 0.17538415
v 0.26860071 0.13832952 0.18598520
v 0.26575699 0.14162674 0.18723121
v 0.26272086 0.14306601 0.18776465
v 0.26119978 0.14563050 0.18713169
v 0.25806146 0.14594453 0.18745414
v 0.24882082 0.14351087 0.19008152
v 0.24419751 0.14361554 0.19006958
v 0.24882082 0.14623237 0.18776864
v 0.21896461 0.14625853 0.18779253
v 0.21896461 0.14761930 0.17988254
v 0.26777105 0.14701744 0.15167809
v 0.27039232 0.14204544 0.18308315
v 0.27378317 0.14484545 0.17700835
v 0.26948449 0.14510714 0.18204017
v 0.27798565 0.14256880 0.15167809
v 0.27565293 0.14657257 0.15167809
v 0.27610986 0.14657257 0.16138345
v 0.27603171 0.14654640 0.16600921
v 0.27543048 0.14628470 0.17063499
v 0.27481725 0.14576135 0.17392717
v 0.26762075 0.14338002 0.18473522
v 0.26428401 0.14471461 0.18638728
v 0.26640027 0.14589220 0.18330210
v 0.26272086 0.14633705 0.18471133
v 0.25806146 0.14722677 0.18450830
v 0.25343815 0.14615387 0.18769699
v 0.24882082 0.14764547 0.18450830
v 0.21896461 0.14701744 0.18601307
v 0.21896461 0.14764547 0.18450830
v 0.27193745 0.14795949 0.15167809
v 0.27069895 0.14591836 0.17895898
v 0.27231621 0.14782864 0.15167809
v 0.27193745 0.14798565 0.15676166
v 0.27193745 0.14790715 0.16600921
v 0.27193745 0.14767164 0.17063499
v 0.27211781 0.14652023 0.17538415
v 0.26769288 0.14657257 0.18025276
v 0.26269079 0.14772397 0.17988254
v 0.25343815 0.14751464 0.18450830
v 0.25806146 0.14780247 0.17988254
v 0.26269079 0.14788097 0.17525678
v 0.26731412 0.14793332 0.17063499
v 0.26731412 0.14785480 0.17525678
f 1 2 7
f 1 7 13
f 1 13 26
f 1 26 45
f 1 45 58
f 1 58 34
f 1 34 18
f 1 18 8
f 1 8 3
f 1 3 9
f 1 9 23
f 1 23 42
f 1 42 69
f 1 69 88
f 1 88 107
f 1 107 108
f 1 108 89
f 1 89 70
f 1 70 43
f 1 43 24
f 1 24 10
f 1 10 4
f 1 4 5
f 1 5 6
f 1 6 2
f 2 6 5
f 2 5 12
f 2 12 11
f 2 11 25
f 2 25 44
f 2 44 71
f 2 71 90
f 2 90 109
f 2 109 111
f 2 111 95
f 2 95 94
f 2 94 75
f 2 75 52
f 2 52 51
f 2 51 50
f 2 50 49
f 2 49 29
f 2 29 14
f 2 14 7
f 3 8 9
f 4 10 11
f 4 11 12
f 4 12 5
f 7 14 15
f 7 15 16
f 7 16 17
f 7 17 13
f 8 18 19
f 8 19 20
f 8 20 21
f 8 21 22
f 8 22 9
f 9 22 23
f 10 24 25
f 10 25 11
f 13 17 27
f 13 27 28
f 13 28 26
f 14 29 15
f 15 29 30
f 15 30 31
f 15 31 16
f 16 31 32
f 16 32 17
f 17 32 33
f 17 33 27
f 18 34 35
f 18 35 36
f 18 36 37
f 18 37 19
f 19 37 36
f 19 36 38
f 19 38 39
f 19 39 20
f 20 39 40
f 20 40 41
f 20 41 21
f 21 41 23
f 21 23 22
f 23 41 67
f 23 67 42
f 24 43 44
f 24 44 25
f 26 28 46
f 26 46 45
f 27 33 47
f 27 47 28
f 28 47 48
f 28 48 46
f 29 49 30
f 30 49 50
f 30 50 51
f 30 51 52
f 30 52 53
f 30 53 54
f 30 54 31
f 31 54 55
f 31 55 56
f 31 56 32
f 32 56 57
f 32 57 47
f 32 47 33
f 34 58 46
f 34 46 59
f 34 59 60
f 34 60 61
f 34 61 35
f 35 61 62
f 35 62 63
f 35 63 38
f 35 38 36
f 38 63 64
f 38 64 39
f 39 64 65
f 39 65 40
f 40 65 66
f 40 66 67
f 40 67 41
f 42 67 68
f 42 68 69
f 43 70 44
f 44 70 71
f 45 46 58
f 46 48 72
f 46 72 73
f 46 73 59
f 47 57 55
f 47 55 74
f 47 74 48
f 48 74 72
f 52 75 53
f 53 75 76
f 53 76 54
f 54 76 77
f 54 77 78
f 54 78 55
f 55 57 56
f 55 78 79
f 55 79 74
f 59 73 80
f 59 80 60
f 60 80 61
f 61 80 62
f 62 80 81
f 62 81 63
f 63 81 64
f 64 81 82
f 64 82 83
f 64 83 84
f 64 84 65
f 65 84 85
f 65 85 66
f 66 85 86
f 66 86 68
f 66 68 67
f 68 86 87
f 68 87 88
f 68 88 69
f 70 89 71
f 71 89 90
f 72 74 73
f 73 74 91
f 73 91 80
f 74 79 92
f 74 92 93
f 74 93 91
f 75 94 76
f 76 94 95
f 76 95 96
f 76 96 97
f 76 97 77
f 77 97 98
f 77 98 99
f 77 99 78
f 78 99 79
f 79 99 92
f 80 91 81
f 81 91 100
f 81 100 101
f 81 101 82
f 82 101 83
f 83 101 102
f 83 102 103
f 83 103 104
f 83 104 84
f 84 104 105
f 84 105 85
f 85 105 87
f 85 87 86
f 87 105 106
f 87 106 88
f 88 106 107
f 89 108 109
f 89 109 90
f 91 93 100
f 92 99 110
f 92 110 93
f 93 110 102
f 93 102 101
f 93 101 100
f 95 111 96
f 96 111 109
f 96 109 112
f 96 112 113
f 96 113 97
f 97 113 114
f 97 114 98
f 98 114 115
f 98 115 99
f 99 115 110
f 102 110 116
f 102 116 103
f 103 116 117
f 103 117 104
f 104 117 118
f 104 118 105
f 105 118 106
f 106 117 119
f 106 119 108
f 106 108 107
f 106 118 117
f 108 119 120
f 108 120 121
f 108 121 112
f 108 112 109
f 110 115 116
f 112 121 113
f 113 121 122
f 113 122 114
f 114 122 115
f 115 122 116
f 116 122 117
f 117 122 119
f 119 122 120
f 120 122 121

