v -0.26481431 0.10626987 0.15644116
v -0.26480973 0.10626987 0.15647647
v -0.26477773 0.10626987 0.15241508
v -0.25340769 -0.05590359 0.14581386
v -0.25338481 -0.05590359 0.14750905
v -0.25306466 -0.05887689 0.15008421
v -0.25990224 0.08283467 0.16600602
v -0.26468168 0.10626987 0.15685612
v -0.25306924 -0.04953559 0.15456939
v -0.25794015 0.02898756 0.15954900
v -0.26334616 0.10626987 0.14581386
v -0.26014920 0.05045617 0.14581386
v -0.25312869 -0.05955583 0.14581386
v -0.25312412 -0.05946218 0.14750905
v -0.24847274 -0.11492471 0.14602869
v -0.24767694 -0.12066060 0.14750905
v -0.25954548 0.07819914 0.16600602
v -0.25859417 0.09208232 0.16965833
v -0.25882743 0.09669445 0.16985551
v -0.26153043 0.10626987 0.16582651
v -0.26179114 0.10626987 0.16514078
v -0.24611275 -0.12527272 0.15213550
v -0.25310125 -0.03157874 0.15920466
v -0.25905154 0.10626987 0.14581386
v -0.24847274 -0.11494812 0.14581386
v -0.24718756 -0.12527272 0.14750905
v -0.25888231 0.07346996 0.16642689
v -0.25843409 0.08744679 0.16929633
v -0.25654062 0.09208232 0.17196861
v -0.25673729 0.09669445 0.17216874
v -0.25904239 0.10132998 0.16993791
v -0.25917045 0.10626987 0.16995558
v -0.24500593 -0.12981460 0.15222379
v -0.24411865 -0.12819919 0.15479012
v -0.24440679 -0.12527272 0.15501672
v -0.24421012 -0.10214187 0.15944600
v -0.25347628 0.00883000 0.16444327
v -0.25372326 0.01344213 0.16480820
v -0.25755596 0.07185454 0.16824567
v -0.25795387 0.07819914 0.16861649
v -0.21809472 0.10626987 0.17181851
v -0.21809472 -0.12035625 0.14581386
v -0.24714639 -0.12527272 0.14581386
v -0.24437020 -0.13290496 0.14876866
v -0.24437020 -0.13290496 0.15074049
v -0.25302349 0.07108195 0.17296925
v -0.25374156 0.08283467 0.17356962
v -0.25297776 0.03434886 0.16830748
v -0.25442303 0.09669445 0.17379624
v -0.25461511 0.10594210 0.17411409
v -0.25462426 0.10626987 0.17411998
v -0.25683790 0.10132998 0.17225114
v -0.25693851 0.10626987 0.17226586
v -0.23956789 -0.12822261 0.15944600
v -0.23988804 -0.12527272 0.15972853
v -0.24395400 -0.10490447 0.15924586
v -0.21809472 0.10626987 0.17587697
v -0.21809472 -0.12499178 0.14581386
v -0.24534437 -0.12958049 0.14581386
v -0.24539469 -0.13000190 0.14734129
v -0.24274655 -0.13290496 0.14876866
v -0.24274655 -0.13290496 0.15074049
v -0.21830968 -0.12897178 0.16028476
v -0.22756212 -0.12897178 0.16027593
v -0.23218607 -0.12897178 0.16018176
v -0.23680999 -0.12873766 0.15986685
v -0.25068180 0.07358701 0.17380212
v -0.23680999 -0.12527272 0.16075565
v -0.23680999 -0.05590359 0.16678887
v -0.25068180 0.07819914 0.17411409
v -0.25068180 0.08283467 0.17441723
v -0.25068180 0.09669445 0.17512060
v -0.25068180 0.10594210 0.17557089
v -0.25068180 0.10626987 0.17558560
v -0.25435442 0.10626987 0.17422298
v -0.23218607 0.10626987 0.17587697
v -0.21809472 0.08768091 0.17544729
v -0.21809472 -0.12897178 0.15773904
v -0.24244471 -0.12958049 0.14581386
v -0.21809472 -0.12897178 0.16028476
v -0.22756212 -0.12527272 0.16127362
v -0.22293818 -0.12894837 0.16029065
v -0.23218607 -0.12527272 0.16122359
v -0.24605787 0.06895148 0.17419944
v -0.24845445 0.05687099 0.17300162
v -0.23218607 -0.05590359 0.16705080
v -0.23680999 0.05045617 0.17378153
v -0.24143393 0.05045617 0.17348427
v -0.24398602 0.04781063 0.17300751
v -0.24605787 0.07358701 0.17447313
v -0.24605787 0.09669445 0.17560326
v -0.25037537 0.10626987 0.17560621
v -0.23680999 0.10626987 0.17587108
v -0.23680999 0.09208232 0.17554440
v -0.22756212 0.08744679 0.17544140
v -0.21809472 0.08744679 0.17544140
v -0.21809472 -0.12527272 0.16119122
v -0.21809472 -0.05590359 0.16703314
v -0.21809472 0.05045617 0.17378448
v -0.22756212 0.05045617 0.17378448
v -0.23218607 0.08283467 0.17526187
v -0.23680999 0.08283467 0.17525304
v -0.23680999 0.08744679 0.17542962
v -0.24605787 0.10626987 0.17584753
v -0.23218607 0.08744679 0.17543846
v -0.21809472 0.08304538 0.17527070
v -0.21809472 0.08283467 0.17526187
f 1 2 8
f 1 8 21
f 1 21 20
f 1 20 32
f 1 32 53
f 1 53 51
f 1 51 75
f 1 75 74
f 1 74 92
f 1 92 104
f 1 104 93
f 1 93 76
f 1 76 57
f 1 57 41
f 1 41 24
f 1 24 11
f 1 11 3
f 1 3 4
f 1 4 5
f 1 5 6
f 1 6 2
f 2 7 8
f 2 6 9
f 2 9 10
f 2 10 7
f 3 11 12
f 3 12 4
f 4 13 14
f 4 14 5
f 4 12 11
f 4 11 24
f 4 24 42
f 4 42 58
f 4 58 79
f 4 79 59
f 4 59 43
f 4 43 25
f 4 25 13
f 5 14 6
f 6 14 15
f 6 15 16
f 6 16 9
f 7 17 18
f 7 18 19
f 7 19 20
f 7 20 21
f 7 21 8
f 7 10 17
f 9 16 22
f 9 22 23
f 9 23 10
f 10 23 17
f 13 25 14
f 14 25 15
f 15 25 26
f 15 26 16
f 16 26 22
f 17 27 28
f 17 28 18
f 17 23 27
f 18 29 19
f 18 28 29
f 19 29 30
f 19 30 31
f 19 31 20
f 20 31 32
f 22 26 33
f 22 33 34
f 22 34 35
f 22 35 23
f 23 35 36
f 23 36 37
f 23 37 38
f 23 38 39
f 23 39 40
f 23 40 27
f 24 41 42
f 25 43 26
f 26 43 44
f 26 44 45
f 26 45 33
f 27 40 28
f 28 40 39
f 28 39 29
f 29 46 47
f 29 47 30
f 29 39 38
f 29 38 48
f 29 48 46
f 30 49 50
f 30 50 51
f 30 51 52
f 30 52 31
f 30 47 49
f 31 52 32
f 32 52 53
f 33 45 34
f 34 45 54
f 34 54 55
f 34 55 56
f 34 56 35
f 35 56 36
f 36 56 55
f 36 55 46
f 36 46 48
f 36 48 38
f 36 38 37
f 41 57 77
f 41 77 96
f 41 96 106
f 41 106 107
f 41 107 99
f 41 99 98
f 41 98 97
f 41 97 80
f 41 80 78
f 41 78 58
f 41 58 42
f 43 59 60
f 43 60 44
f 44 60 59
f 44 59 79
f 44 79 61
f 44 61 62
f 44 62 45
f 45 62 80
f 45 80 63
f 45 63 64
f 45 64 65
f 45 65 66
f 45 66 54
f 46 67 47
f 46 55 68
f 46 68 69
f 46 69 67
f 47 67 70
f 47 70 71
f 47 71 72
f 47 72 73
f 47 73 74
f 47 74 50
f 47 50 49
f 50 74 75
f 50 75 51
f 51 53 52
f 54 66 68
f 54 68 55
f 57 76 77
f 58 78 61
f 58 61 79
f 61 78 80
f 61 80 62
f 63 80 81
f 63 81 82
f 63 82 64
f 64 82 81
f 64 81 83
f 64 83 65
f 65 83 66
f 66 83 68
f 67 84 70
f 67 69 85
f 67 85 84
f 68 83 69
f 69 83 86
f 69 86 87
f 69 87 88
f 69 88 89
f 69 89 84
f 69 84 85
f 70 84 71
f 71 84 90
f 71 90 72
f 72 91 73
f 72 90 91
f 73 91 74
f 74 91 92
f 76 93 94
f 76 94 95
f 76 95 77
f 77 95 96
f 80 97 81
f 81 97 98
f 81 98 86
f 81 86 83
f 84 89 88
f 84 88 90
f 86 98 99
f 86 99 100
f 86 100 87
f 87 100 101
f 87 101 102
f 87 102 91
f 87 91 90
f 87 90 88
f 91 102 103
f 91 103 104
f 91 104 92
f 93 104 94
f 94 104 103
f 94 103 105
f 94 105 95
f 95 105 101
f 95 101 106
f 95 106 96
f 99 107 101
f 99 101 100
f 101 107 106
f 101 105 103
f 101 103 102

