v 0.24477622 0.09077527 -0.05903899
v 0.25344337 0.09077527 -0.05931719
v 0.24477622 0.09077527 -0.06636198
v 0.24477622 -0.08329576 -0.07204267
v 0.25761069 0.09077527 -0.05968513
v 0.24706648 -0.08226731 -0.07208754
v 0.25986553 0.09077527 -0.15071986
v 0.25671348 0.05508579 -0.15071986
v 0.24477622 -0.11554978 -0.15071986
v 0.24477622 -0.13161114 -0.07633236
v 0.24538419 -0.13277088 -0.07642210
v 0.24714911 -0.13277088 -0.07642210
v 0.25806520 0.09077527 -0.05973898
v 0.25127117 -0.07294560 -0.07207856
v 0.26487496 0.09077527 -0.15071986
v 0.24477622 -0.12797874 -0.15071986
v 0.24477622 -0.13189560 -0.07852207
v 0.24538419 -0.13277088 -0.07792080
v 0.24714911 -0.13277088 -0.07792080
v 0.24988010 -0.12526537 -0.08374508
v 0.24920719 -0.12526537 -0.07912334
v 0.25117476 -0.10504643 -0.07675414
v 0.26181735 0.09077527 -0.06129152
v 0.25594218 -0.03185126 -0.07196190
v 0.26487693 0.09077527 -0.12998936
v 0.26331271 0.05508579 -0.15071986
v 0.24551800 -0.12870084 -0.15071986
v 0.24791253 -0.12870084 -0.15071986
v 0.24974237 -0.12526537 -0.15071986
v 0.24974827 -0.12526537 -0.14848528
v 0.25118657 -0.11434627 -0.15071986
v 0.25119838 -0.11423686 -0.11611518
v 0.25118460 -0.11414933 -0.08837579
v 0.25117279 -0.11403993 -0.08506430
v 0.25108031 -0.11338347 -0.08198613
v 0.25121804 -0.11029811 -0.08057718
v 0.25096423 -0.10813179 -0.07749003
v 0.25580839 -0.05843785 -0.07667338
v 0.25590480 -0.05589954 -0.07636825
v 0.26120150 0.05044681 -0.06660428
v 0.26377509 0.09077527 -0.06524917
v 0.26487693 0.09077527 -0.12920860
v 0.26331271 0.05508579 -0.07912334
v 0.26319858 0.05267877 -0.15071986
v 0.25612517 -0.05589954 -0.15071986
v 0.25615665 -0.05589954 -0.14848528
v 0.25144431 -0.11139220 -0.14848528
v 0.25145219 -0.11139220 -0.13461109
v 0.25145809 -0.11139220 -0.11611518
v 0.25144431 -0.11139220 -0.08837579
v 0.25610745 -0.05589954 -0.07912334
v 0.26297428 0.05044681 -0.07449264
v 0.26244107 0.05044681 -0.06987090
v 0.26444997 0.09077527 -0.06979013
v 0.26274409 0.05508579 -0.06987090
v 0.26487496 0.09077527 -0.07912334
v 0.26322811 0.05508579 -0.07449264
v 0.26309234 0.05044681 -0.07912334
v 0.26486905 0.09077527 -0.07845028
v 0.26309234 0.05044681 -0.15071986
v 0.25615665 -0.05589954 -0.08374508
v 0.26476673 0.09077527 -0.07443879
v 0.26476870 0.09077527 -0.07449264
f 1 2 5
f 1 5 13
f 1 13 23
f 1 23 41
f 1 41 54
f 1 54 62
f 1 62 63
f 1 63 59
f 1 59 56
f 1 56 42
f 1 42 25
f 1 25 15
f 1 15 7
f 1 7 3
f 1 3 9
f 1 9 16
f 1 16 17
f 1 17 10
f 1 10 4
f 1 4 2
f 2 4 6
f 2 6 5
f 3 7 8
f 3 8 9
f 4 10 11
f 4 11 12
f 4 12 6
f 5 6 13
f 6 12 14
f 6 14 13
f 7 15 26
f 7 26 44
f 7 44 60
f 7 60 45
f 7 45 31
f 7 31 29
f 7 29 28
f 7 28 27
f 7 27 16
f 7 16 9
f 7 9 8
f 10 17 11
f 11 18 19
f 11 19 12
f 11 17 18
f 12 19 20
f 12 20 21
f 12 21 22
f 12 22 14
f 13 14 23
f 14 22 24
f 14 24 23
f 15 25 26
f 16 27 18
f 16 18 17
f 18 27 28
f 18 28 19
f 19 28 29
f 19 29 30
f 19 30 20
f 20 30 31
f 20 31 32
f 20 32 33
f 20 33 34
f 20 34 35
f 20 35 21
f 21 35 36
f 21 36 37
f 21 37 22
f 22 37 36
f 22 36 38
f 22 38 39
f 22 39 24
f 23 40 41
f 23 24 40
f 24 39 40
f 25 42 43
f 25 43 26
f 26 43 44
f 29 31 30
f 31 45 46
f 31 46 47
f 31 47 48
f 31 48 49
f 31 49 32
f 32 49 50
f 32 50 33
f 33 50 34
f 34 50 51
f 34 51 38
f 34 38 35
f 35 38 36
f 38 51 52
f 38 52 53
f 38 53 40
f 38 40 39
f 40 53 41
f 41 53 55
f 41 55 54
f 42 56 43
f 43 57 58
f 43 58 44
f 43 56 59
f 43 59 57
f 44 58 60
f 45 60 46
f 46 61 49
f 46 49 48
f 46 48 47
f 46 60 58
f 46 58 61
f 49 61 50
f 50 61 51
f 51 61 58
f 51 58 52
f 52 58 57
f 52 57 55
f 52 55 53
f 54 55 57
f 54 57 62
f 57 59 63
f 57 63 62

