v -0.14892575 -0.09265673 0.15664958
v -0.15355672 -0.11991799 0.14894446
v -0.21809015 -0.12028933 0.14894446
v -0.15280632 -0.09291381 0.15664958
v 0.00091618 -0.09336369 0.15664958
v 0.00091618 -0.11993228 0.14894446
v -0.21809015 -0.12505961 0.14894446
v -0.21809015 -0.11556904 0.15664958
v -0.15355672 -0.09298878 0.15664958
v 0.00091618 -0.12414197 0.15664958
v 0.00091618 -0.12499891 0.14894446
v -0.21809015 -0.12786251 0.15664958
v -0.16166091 -0.12888012 0.14894446
v 0.00091618 -0.12460972 0.15400427
v -0.16288297 -0.12913006 0.15664958
v 0.00091618 -0.12493107 0.15213363
v -0.15805906 -0.12888012 0.14894446
f 1 2 3
f 1 3 4
f 1 4 9
f 1 9 8
f 1 8 12
f 1 12 15
f 1 15 10
f 1 10 5
f 1 5 6
f 1 6 2
f 2 6 11
f 2 11 17
f 2 17 13
f 2 13 7
f 2 7 3
f 3 7 12
f 3 12 8
f 3 8 9
f 3 9 4
f 5 10 14
f 5 14 16
f 5 16 11
f 5 11 6
f 7 13 12
f 10 15 14
f 11 16 15
f 11 15 17
f 12 13 15
f 13 17 15
f 14 15 16

