v -0.23747633 0.08498590 -0.05695440
v -0.23747633 0.08498590 -0.06628082
v -0.25549819 0.08498590 -0.06198900
v -0.25309390 0.06182378 -0.06290247
v -0.25384139 0.00883402 -0.06686485
v -0.24785918 -0.07616588 -0.07220793
v -0.24415590 -0.08249713 -0.07211208
v -0.24230996 -0.08558409 -0.07221990
v -0.24103376 -0.08387348 -0.07203422
v -0.23922656 -0.08597734 -0.07217798
v -0.23747633 -0.08450267 -0.07201624
v -0.25658980 0.08498590 -0.08754830
v -0.23747633 0.07165489 -0.06758664
v -0.25709115 0.08498590 -0.06247418
v -0.25788879 0.08498590 -0.06274373
v -0.25871375 0.05507962 -0.06615204
v -0.25788651 0.03797347 -0.06723923
v -0.25311670 -0.03585828 -0.07205518
v -0.24840840 -0.07307891 -0.07215701
v -0.24839472 -0.10483343 -0.07677529
v -0.24531133 -0.11588362 -0.07617030
v -0.24517231 -0.11588362 -0.07613137
v -0.24143486 -0.11588362 -0.07525983
v -0.23747633 -0.11206914 -0.07462788
v -0.23747633 -0.11140063 -0.07456199
v -0.26075797 0.08498590 -0.08754830
v -0.25641887 0.08282306 -0.08754830
v -0.23747633 0.06937408 -0.06777233
v -0.25401915 0.05045900 -0.08754830
v -0.25854739 0.08498590 -0.06367817
v -0.25936554 0.08498590 -0.06502592
v -0.25991248 0.05507962 -0.06986883
v -0.25970966 0.05045900 -0.06986883
v -0.25305971 -0.05866648 -0.07664351
v -0.24822153 -0.10792042 -0.07744617
v -0.24765408 -0.11588362 -0.07948277
v -0.23747633 -0.11588362 -0.07502022
v -0.26075569 0.08498590 -0.07911439
v -0.26013354 0.05045900 -0.08754830
v -0.26013354 0.05045900 -0.07911439
v -0.23747633 -0.00042690 -0.07289378
v -0.24201825 -0.11588362 -0.08754830
v -0.24666502 -0.05127347 -0.08754830
v -0.26021786 0.08498590 -0.06772142
v -0.26072606 0.08498590 -0.06986883
v -0.26011759 0.05045900 -0.07449012
v -0.25339016 -0.05589410 -0.07911439
v -0.25311896 -0.05923668 -0.07911439
v -0.24845398 -0.11446795 -0.08374165
v -0.24838789 -0.11391740 -0.08129475
v -0.24827166 -0.11588362 -0.08374165
v -0.23747633 -0.11588362 -0.08059991
v -0.25375251 -0.05127347 -0.08754830
v -0.25375251 -0.05127347 -0.08374165
v -0.23747633 -0.00504753 -0.07321724
v -0.24833319 -0.11588362 -0.08754830
v -0.25344942 -0.05589410 -0.08374165
v -0.25314632 -0.05961027 -0.08374165
v -0.24849500 -0.11478254 -0.08754830
v -0.24844259 -0.11519544 -0.08754830
v -0.24831953 -0.11588362 -0.08591902
v -0.25344942 -0.05589410 -0.08754830
v -0.25314632 -0.05964959 -0.08754830
f 1 2 12
f 1 12 26
f 1 26 38
f 1 38 45
f 1 45 44
f 1 44 31
f 1 31 30
f 1 30 15
f 1 15 14
f 1 14 3
f 1 3 4
f 1 4 5
f 1 5 6
f 1 6 7
f 1 7 8
f 1 8 9
f 1 9 10
f 1 10 11
f 1 11 25
f 1 25 24
f 1 24 37
f 1 37 52
f 1 52 55
f 1 55 41
f 1 41 28
f 1 28 13
f 1 13 2
f 2 13 12
f 3 14 5
f 3 5 4
f 5 14 15
f 5 15 16
f 5 16 17
f 5 17 18
f 5 18 19
f 5 19 6
f 6 19 20
f 6 20 21
f 6 21 22
f 6 22 23
f 6 23 7
f 7 23 8
f 8 23 24
f 8 24 25
f 8 25 10
f 8 10 9
f 10 25 11
f 12 13 27
f 12 27 29
f 12 29 43
f 12 43 42
f 12 42 56
f 12 56 60
f 12 60 59
f 12 59 63
f 12 63 62
f 12 62 53
f 12 53 39
f 12 39 26
f 13 28 29
f 13 29 27
f 15 30 16
f 16 30 31
f 16 31 32
f 16 32 33
f 16 33 17
f 17 33 34
f 17 34 18
f 18 34 20
f 18 20 19
f 20 34 35
f 20 35 21
f 21 35 36
f 21 36 51
f 21 51 61
f 21 61 56
f 21 56 42
f 21 42 52
f 21 52 37
f 21 37 23
f 21 23 22
f 23 37 24
f 26 39 40
f 26 40 38
f 28 41 42
f 28 42 43
f 28 43 29
f 31 44 32
f 32 44 45
f 32 45 46
f 32 46 33
f 33 46 34
f 34 47 48
f 34 48 49
f 34 49 50
f 34 50 35
f 34 46 47
f 35 50 36
f 36 50 51
f 38 40 45
f 39 53 54
f 39 54 40
f 40 46 45
f 40 54 46
f 41 55 42
f 42 55 52
f 46 54 47
f 47 54 57
f 47 57 48
f 48 57 58
f 48 58 59
f 48 59 49
f 49 59 60
f 49 60 61
f 49 61 51
f 49 51 50
f 53 62 57
f 53 57 54
f 56 61 60
f 57 62 63
f 57 63 58
f 58 63 59

