v 0.26579230 0.10354283 -0.15071986
v 0.26643813 0.10354283 -0.15531375
v 0.26127372 0.10354283 -0.15071986
v 0.26309319 0.05044914 -0.15071986
v 0.26647517 0.10354283 -0.15964943
v 0.24282901 0.10354283 -0.17714826
v 0.26034315 0.09955684 -0.15071986
v 0.26309319 0.05044914 -0.15311890
v 0.25612548 -0.05589770 -0.15071986
v 0.26639878 0.10354283 -0.16222862
v 0.25609308 -0.05589770 -0.15311890
v 0.25671346 0.05507292 -0.15071986
v 0.24282901 0.10354283 -0.18139086
v 0.24282901 -0.11908170 -0.15071986
v 0.25118792 -0.11434404 -0.15071986
v 0.25118792 -0.11434404 -0.15125132
v 0.25585928 -0.05867652 -0.15311890
v 0.26307929 0.05507292 -0.16236973
v 0.26536637 0.10354283 -0.16636611
v 0.25581067 -0.05844875 -0.15563802
v 0.24419245 0.10354283 -0.18139385
v 0.24282901 0.09670967 -0.18122571
v 0.24282901 -0.12634764 -0.15071986
v 0.24974346 -0.12527710 -0.15071986
v 0.24973651 -0.12527710 -0.15311890
v 0.25031059 -0.12065333 -0.15311890
v 0.26273901 0.05044914 -0.16236973
v 0.26284781 0.06894424 -0.16699066
v 0.26316957 0.07356802 -0.16699066
v 0.25581530 -0.04942897 -0.16014785
v 0.26377837 0.10354283 -0.17146744
v 0.26216030 0.07819179 -0.17161457
v 0.26246123 0.08283834 -0.17161457
v 0.24661378 0.10354283 -0.18138785
v 0.24282901 0.09208590 -0.18111161
v 0.24282901 -0.12896701 -0.15814515
v 0.24551655 -0.12871648 -0.15071986
v 0.24791241 -0.12871648 -0.15071986
v 0.24790315 -0.12883036 -0.15311890
v 0.24747722 -0.12871648 -0.15774281
v 0.24872955 -0.12527710 -0.15774281
v 0.25583844 -0.03138941 -0.16478678
v 0.26177372 0.10354283 -0.17544282
v 0.26142417 0.06894424 -0.17148246
v 0.26028296 0.06894424 -0.17379441
v 0.24881751 0.10354283 -0.18138185
v 0.24881751 0.10133345 -0.18132480
v 0.24881751 0.09670967 -0.18120470
v 0.24419245 0.09208590 -0.18109661
v 0.24282901 0.08746212 -0.18092545
v 0.24282901 -0.12914924 -0.15875468
v 0.24406051 -0.12912646 -0.15762871
v 0.24398644 -0.12892146 -0.16212053
v 0.24687537 -0.12812427 -0.16041208
v 0.24716472 -0.12527710 -0.16065228
v 0.24693091 -0.10215822 -0.16500597
v 0.26071815 0.10354283 -0.17654475
v 0.25672504 0.08746212 -0.17937915
v 0.25572966 0.03439120 -0.17391152
v 0.25642410 0.08283834 -0.17914495
v 0.25344258 0.10354283 -0.18097649
v 0.25344258 0.08746212 -0.18034596
v 0.24881751 0.06894424 -0.17969141
v 0.24419245 0.06894424 -0.18004271
v 0.24282901 0.07493465 -0.18033696
v 0.24282901 -0.12898979 -0.16209951
v 0.24282901 -0.12887591 -0.16298526
v 0.24282901 -0.12844315 -0.16412022
v 0.24282901 -0.12527710 -0.16508404
v 0.24493552 -0.12527710 -0.16296724
v 0.24669943 -0.10495984 -0.16482882
v 0.25953527 0.10354283 -0.17775777
v 0.25722273 0.10354283 -0.17956830
v 0.25843340 0.10354283 -0.17862550
v 0.25344258 0.08283834 -0.18000068
v 0.24419245 -0.03740259 -0.17254836
v 0.24881751 0.06432047 -0.17937915
v 0.24282901 0.06568710 -0.17981751
v 0.24282901 0.06894424 -0.18003671
v 0.24282901 0.07031088 -0.18011777
v 0.24419245 0.06432047 -0.17973045
v 0.24282901 -0.05589770 -0.17109212
v 0.24282901 -0.04202637 -0.17216703
v 0.24282901 0.05038081 -0.17873359
f 1 2 5
f 1 5 10
f 1 10 19
f 1 19 31
f 1 31 43
f 1 43 57
f 1 57 72
f 1 72 74
f 1 74 73
f 1 73 61
f 1 61 46
f 1 46 34
f 1 34 21
f 1 21 13
f 1 13 6
f 1 6 3
f 1 3 7
f 1 7 12
f 1 12 14
f 1 14 23
f 1 23 37
f 1 37 38
f 1 38 24
f 1 24 15
f 1 15 9
f 1 9 4
f 1 4 2
f 2 4 5
f 3 6 7
f 4 8 5
f 4 9 8
f 5 8 11
f 5 11 10
f 6 12 7
f 6 13 22
f 6 22 35
f 6 35 50
f 6 50 65
f 6 65 80
f 6 80 79
f 6 79 78
f 6 78 84
f 6 84 83
f 6 83 82
f 6 82 69
f 6 69 68
f 6 68 67
f 6 67 66
f 6 66 51
f 6 51 36
f 6 36 23
f 6 23 14
f 6 14 12
f 8 9 11
f 9 15 16
f 9 16 17
f 9 17 11
f 10 18 19
f 10 11 20
f 10 20 18
f 11 17 20
f 13 21 22
f 15 24 16
f 16 24 25
f 16 25 26
f 16 26 20
f 16 20 17
f 18 27 28
f 18 28 29
f 18 29 19
f 18 20 30
f 18 30 27
f 19 29 32
f 19 32 33
f 19 33 31
f 20 26 30
f 21 34 35
f 21 35 22
f 23 36 37
f 24 38 39
f 24 39 25
f 25 39 40
f 25 40 41
f 25 41 26
f 26 41 30
f 27 30 28
f 28 32 29
f 28 30 42
f 28 42 32
f 30 41 42
f 31 33 43
f 32 44 45
f 32 45 43
f 32 43 33
f 32 42 44
f 34 46 35
f 35 46 47
f 35 47 48
f 35 48 49
f 35 49 50
f 36 51 37
f 37 51 52
f 37 52 38
f 38 52 39
f 39 52 40
f 40 52 53
f 40 53 54
f 40 54 41
f 41 54 55
f 41 55 42
f 42 55 56
f 42 56 45
f 42 45 44
f 43 45 58
f 43 58 57
f 45 59 60
f 45 60 58
f 45 56 59
f 46 61 47
f 47 61 48
f 48 61 62
f 48 62 63
f 48 63 64
f 48 64 50
f 48 50 49
f 50 64 65
f 51 66 53
f 51 53 52
f 53 66 67
f 53 67 68
f 53 68 54
f 54 68 69
f 54 69 70
f 54 70 55
f 55 70 71
f 55 71 56
f 56 71 69
f 56 69 60
f 56 60 59
f 57 58 72
f 58 60 62
f 58 62 61
f 58 61 73
f 58 73 74
f 58 74 72
f 60 75 62
f 60 69 76
f 60 76 75
f 62 75 76
f 62 76 77
f 62 77 63
f 63 77 81
f 63 81 64
f 64 78 79
f 64 79 80
f 64 80 65
f 64 81 78
f 69 71 70
f 69 82 76
f 76 81 77
f 76 82 83
f 76 83 84
f 76 84 78
f 76 78 81

