v 0.14704795 -0.09698428 -0.16212518
v 0.13318457 -0.11998201 -0.15438883
v 0.15340201 -0.11998516 -0.15438883
v 0.15169047 -0.09700005 -0.16212518
v 0.00220985 -0.09698428 -0.16212518
v 0.00287307 -0.11998201 -0.15438883
v 0.22077204 -0.12029433 -0.15438883
v 0.15365873 -0.09753636 -0.16212518
v 0.00220985 -0.12414937 -0.16212518
v 0.00220985 -0.11998516 -0.15438883
v 0.22077204 -0.12505477 -0.15438883
v 0.22077204 -0.11614906 -0.16212518
v 0.15631160 -0.09826194 -0.16212518
v 0.00220985 -0.12492857 -0.15774239
v 0.16561803 -0.12921265 -0.16212518
v 0.00220985 -0.12501060 -0.15438883
v 0.22077204 -0.12772679 -0.16212518
v 0.16439857 -0.12886879 -0.15438883
v 0.00220985 -0.12500745 -0.15459863
v 0.16180988 -0.12886879 -0.15438883
f 1 2 3
f 1 3 4
f 1 4 8
f 1 8 13
f 1 13 12
f 1 12 17
f 1 17 15
f 1 15 9
f 1 9 5
f 1 5 6
f 1 6 2
f 2 6 10
f 2 10 16
f 2 16 20
f 2 20 18
f 2 18 11
f 2 11 7
f 2 7 3
f 3 7 4
f 4 7 8
f 5 9 14
f 5 14 19
f 5 19 16
f 5 16 10
f 5 10 6
f 7 11 17
f 7 17 12
f 7 12 13
f 7 13 8
f 9 15 14
f 11 18 17
f 14 15 19
f 15 17 18
f 15 18 20
f 15 20 16
f 15 16 19

