v -0.25635929 0.08171314 0.07682205
v -0.23683215 0.07177376 0.06199078
v -0.23683215 0.08169251 0.06074881
v -0.23683215 0.08171314 0.06062746
v -0.26048856 0.08171314 0.07682205
v -0.23683215 -0.11849718 0.07682205
v -0.23683215 0.08171314 0.05044387
v -0.26050245 0.08171314 0.06425781
v -0.26013402 0.05045154 0.07682205
v -0.23683215 -0.12674562 0.07682205
v -0.25381731 0.00883815 0.06127297
v -0.25758741 0.08171314 0.05732502
v -0.23683215 -0.11140351 0.06885386
v -0.24376524 -0.08599831 0.06656358
v -0.24818879 -0.07638888 0.06658424
v -0.26016879 0.08171314 0.06318885
v -0.26018268 0.06894867 0.06425781
v -0.26010621 0.05045154 0.06888225
v -0.26013635 0.05045154 0.07350670
v -0.25373388 -0.05127238 0.07682205
v -0.24194392 -0.12876649 0.07682205
v -0.23683215 -0.12895208 0.07308324
v -0.25790718 0.03779018 0.06161380
v -0.25857918 0.05507067 0.06075139
v -0.25894067 0.08171314 0.05932869
v -0.23683215 -0.12893145 0.07060448
v -0.24143413 -0.12858090 0.07076457
v -0.24417770 -0.12800351 0.07101245
v -0.24840198 -0.10492849 0.07115704
v -0.25309896 -0.03588903 0.06646546
v -0.26005987 0.06432954 0.06425781
v -0.25974937 0.05507067 0.06425781
v -0.25305727 -0.05861349 0.07104085
v -0.25338630 -0.05589150 0.07350670
v -0.25368522 -0.05127238 0.07350670
v -0.25364815 -0.05259213 0.07682205
v -0.24514167 -0.12866338 0.07682205
v -0.24107727 -0.12889022 0.07381138
v -0.25942960 0.05045154 0.06425781
v -0.25877846 0.06432954 0.06037441
v -0.25887347 0.06894867 0.06023757
v -0.24485897 -0.12853966 0.07350670
v -0.24622149 -0.12528152 0.07350670
v -0.24822125 -0.10802166 0.07178189
v -0.24845527 -0.11482662 0.07528831
v -0.25311519 -0.05919088 0.07350670
v -0.25343033 -0.05589150 0.07682205
v -0.25313605 -0.05950020 0.07682205
v -0.25335387 -0.05684007 0.07682205
v -0.24640223 -0.12620946 0.07682205
v -0.24678920 -0.12528152 0.07682205
v -0.24771840 -0.11622886 0.07365130
v -0.24795708 -0.11140351 0.07239126
v -0.24832552 -0.11622886 0.07682205
v -0.24847845 -0.11499158 0.07682205
f 1 2 3
f 1 3 4
f 1 4 7
f 1 7 12
f 1 12 25
f 1 25 16
f 1 16 8
f 1 8 5
f 1 5 9
f 1 9 20
f 1 20 36
f 1 36 47
f 1 47 49
f 1 49 48
f 1 48 55
f 1 55 54
f 1 54 51
f 1 51 50
f 1 50 37
f 1 37 21
f 1 21 10
f 1 10 6
f 1 6 2
f 2 6 10
f 2 10 22
f 2 22 26
f 2 26 13
f 2 13 7
f 2 7 4
f 2 4 3
f 5 8 9
f 7 11 12
f 7 13 14
f 7 14 15
f 7 15 11
f 8 16 17
f 8 17 18
f 8 18 19
f 8 19 9
f 9 19 20
f 10 21 22
f 11 23 12
f 11 15 23
f 12 24 25
f 12 23 24
f 13 26 14
f 14 26 27
f 14 27 28
f 14 28 15
f 15 28 29
f 15 29 30
f 15 30 23
f 16 25 17
f 17 31 18
f 17 25 31
f 18 31 32
f 18 32 33
f 18 33 34
f 18 34 35
f 18 35 20
f 18 20 19
f 20 35 34
f 20 34 36
f 21 37 38
f 21 38 22
f 22 38 26
f 23 39 32
f 23 32 24
f 23 30 33
f 23 33 39
f 24 32 40
f 24 40 25
f 25 40 41
f 25 41 31
f 26 38 27
f 27 38 42
f 27 42 28
f 28 42 43
f 28 43 29
f 29 43 44
f 29 44 45
f 29 45 33
f 29 33 30
f 31 41 40
f 31 40 32
f 32 39 33
f 33 45 46
f 33 46 34
f 34 47 36
f 34 46 48
f 34 48 49
f 34 49 47
f 37 42 38
f 37 50 42
f 42 50 43
f 43 50 51
f 43 51 45
f 43 45 52
f 43 52 53
f 43 53 44
f 44 53 52
f 44 52 45
f 45 51 54
f 45 54 55
f 45 55 46
f 46 55 48

