v 0.00220985 -0.12501141 -0.15437320
v 0.00832857 -0.12957031 -0.08372740
v 0.00220985 -0.12858738 -0.08716374
v 0.00220985 -0.11998608 -0.15437320
v 0.16180988 -0.12887066 -0.15437320
v 0.08695191 -0.12923037 -0.00512298
v 0.08695191 -0.12912496 -0.00243044
v 0.00220985 -0.12506016 -0.00243044
v 0.00220985 -0.12873495 -0.08362327
v 0.00220985 -0.12870070 -0.08473897
v 0.16439857 -0.12887066 -0.15437320
v 0.17479610 -0.12947281 -0.07911587
v 0.00220985 -0.12037346 -0.00243044
v 0.22077204 -0.11610970 -0.00522711
v 0.22077204 -0.11615186 -0.06541513
v 0.22077204 -0.11620061 -0.06987791
v 0.22077204 -0.11620720 -0.07013080
v 0.00370745 -0.11998476 -0.15437320
v 0.17488168 -0.12945305 -0.07440019
v 0.17366223 -0.12869674 -0.00243044
v 0.22077204 -0.12505489 -0.15437320
v 0.22077204 -0.12899452 -0.07862496
v 0.20718678 -0.12928966 -0.07911587
v 0.22077204 -0.11616108 -0.00243044
v 0.22077204 -0.11611365 -0.00497422
v 0.22077204 -0.11611101 -0.00512298
v 0.22077204 -0.12029835 -0.15437320
v 0.15631160 -0.12000189 -0.15437320
v 0.15340201 -0.11998871 -0.15437320
v 0.15169047 -0.11998740 -0.15437320
v 0.13318457 -0.11998476 -0.15437320
v 0.22077204 -0.12901033 -0.07584316
v 0.22077204 -0.12461350 -0.00243044
f 1 2 3
f 1 3 10
f 1 10 9
f 1 9 8
f 1 8 13
f 1 13 4
f 1 4 18
f 1 18 31
f 1 31 30
f 1 30 29
f 1 29 28
f 1 28 27
f 1 27 21
f 1 21 11
f 1 11 5
f 1 5 2
f 2 6 7
f 2 7 8
f 2 8 9
f 2 9 10
f 2 10 3
f 2 5 11
f 2 11 12
f 2 12 6
f 4 13 14
f 4 14 15
f 4 15 16
f 4 16 17
f 4 17 18
f 6 12 19
f 6 19 20
f 6 20 7
f 7 20 33
f 7 33 24
f 7 24 13
f 7 13 8
f 11 21 22
f 11 22 23
f 11 23 12
f 12 23 19
f 13 24 25
f 13 25 26
f 13 26 14
f 14 26 25
f 14 25 24
f 14 24 33
f 14 33 32
f 14 32 22
f 14 22 21
f 14 21 27
f 14 27 17
f 14 17 16
f 14 16 15
f 17 27 28
f 17 28 29
f 17 29 30
f 17 30 31
f 17 31 18
f 19 23 20
f 20 23 32
f 20 32 33
f 22 32 23

