v 0.25986976 0.09077527 -0.15071986
v 0.26172024 0.12908751 -0.15071986
v 0.26487302 0.09077527 -0.15071986
v 0.24477624 0.09077527 -0.06636236
v 0.24477624 0.09209156 -0.06646397
v 0.26196464 0.13148483 -0.15071986
v 0.24477624 0.09610202 -0.06478001
v 0.27959298 0.13045421 -0.15071986
v 0.27456179 0.10807179 -0.14179198
v 0.26487651 0.09077527 -0.14385339
v 0.24477624 0.09077527 -0.05904586
v 0.26244297 0.13610582 -0.15071986
v 0.24477624 0.09843772 -0.06051206
v 0.26360213 0.14296170 -0.15071986
v 0.26315523 0.14073242 -0.15071986
v 0.26267690 0.13833511 -0.15071986
v 0.28017953 0.13370851 -0.15071986
v 0.28039949 0.13370851 -0.14848426
v 0.27969421 0.13038140 -0.14848426
v 0.27970470 0.13036459 -0.12072801
v 0.27970820 0.13036459 -0.10686441
v 0.27971168 0.13036459 -0.09298629
v 0.27971518 0.13036459 -0.02362470
v 0.27456179 0.10807179 -0.14112421
v 0.26487651 0.09077527 -0.07910816
v 0.25344200 0.09077527 -0.05932167
v 0.24477624 0.09320060 -0.00241556
v 0.24477624 0.09852174 -0.06035237
v 0.26469844 0.14564467 -0.15071986
v 0.24477624 0.09899784 -0.05727479
v 0.24477624 0.09903706 -0.05599731
v 0.27964184 0.13836311 -0.15071986
v 0.27987579 0.13833511 -0.14848426
v 0.27990371 0.13833511 -0.12535889
v 0.27992465 0.13833511 -0.10686441
v 0.28043091 0.13370851 -0.12072801
v 0.28043442 0.13370851 -0.10686441
v 0.28043789 0.13370851 -0.09298629
v 0.28044140 0.13370851 -0.04211919
v 0.27971518 0.13036459 -0.00974658
v 0.26476827 0.09077527 -0.07450632
v 0.26486953 0.09077527 -0.07844039
v 0.27970470 0.13037579 -0.00241556
v 0.25761429 0.09077527 -0.05968460
v 0.25344200 0.09321740 -0.00241556
v 0.24477624 0.09885221 -0.00241556
v 0.26596235 0.14632243 -0.15071986
v 0.26472638 0.14563908 -0.00513021
v 0.26731354 0.14703378 -0.00513021
v 0.27935904 0.14025632 -0.15071986
v 0.27917398 0.14145498 -0.14848426
v 0.27919843 0.14151099 -0.10686441
v 0.27920194 0.14152779 -0.08373904
v 0.27992816 0.13833511 -0.08373904
v 0.28044140 0.13370851 -0.02362470
v 0.28043789 0.13370851 -0.00974658
v 0.28043442 0.13370851 -0.00513021
v 0.28043091 0.13370851 -0.00241556
v 0.26476478 0.09077527 -0.07444824
v 0.26523613 0.09839291 -0.00241556
v 0.25806818 0.09077527 -0.05974267
v 0.25614439 0.09332943 -0.00241556
v 0.26182148 0.09077527 -0.06129597
v 0.26478923 0.14555506 -0.00241556
v 0.26731354 0.14704497 -0.15071986
v 0.26731354 0.14694975 -0.00241556
v 0.27193972 0.14798599 -0.00241556
v 0.27193972 0.14799718 -0.00513021
v 0.27911814 0.14131495 -0.15071986
v 0.27814751 0.14376827 -0.14848426
v 0.27817545 0.14379628 -0.12072801
v 0.27818941 0.14381868 -0.10223353
v 0.27819639 0.14385229 -0.06524456
v 0.27819988 0.14386350 -0.03287195
v 0.27920194 0.14155019 -0.03287195
v 0.27992816 0.13833511 -0.03287195
v 0.27992118 0.13833511 -0.00241556
v 0.26444706 0.09077527 -0.06978834
v 0.26332282 0.09607962 -0.00241556
v 0.25806818 0.09343585 -0.00241556
v 0.26377321 0.09077527 -0.06524456
v 0.27193972 0.14798599 -0.12072801
v 0.27193972 0.14798038 -0.13923702
v 0.27193972 0.14797477 -0.15071986
v 0.27193972 0.14799158 -0.06987544
v 0.27358070 0.14740906 -0.00241556
v 0.27588853 0.14659688 -0.00513021
v 0.27877248 0.14209351 -0.15071986
v 0.27818592 0.14334258 -0.15071986
v 0.27703024 0.14512377 -0.15071986
v 0.27583268 0.14657449 -0.15071986
v 0.27586410 0.14658568 -0.12072801
v 0.27587457 0.14658568 -0.10223353
v 0.27723624 0.14498934 -0.00241556
v 0.27819639 0.14384108 -0.00241556
v 0.27588155 0.14659127 -0.06987544
v 0.27588853 0.14659127 -0.03750283
v 0.27919496 0.14152779 -0.00241556
v 0.26197511 0.09494257 -0.00241556
v 0.26101496 0.09416400 -0.00241556
v 0.25984184 0.09386154 -0.00241556
v 0.27381463 0.14730264 -0.15071986
v 0.27585014 0.14658568 -0.12998977
v 0.27588504 0.14659127 -0.00241556
f 1 2 6
f 1 6 12
f 1 12 16
f 1 16 15
f 1 15 14
f 1 14 29
f 1 29 47
f 1 47 65
f 1 65 84
f 1 84 102
f 1 102 91
f 1 91 90
f 1 90 89
f 1 89 88
f 1 88 69
f 1 69 50
f 1 50 32
f 1 32 17
f 1 17 8
f 1 8 3
f 1 3 10
f 1 10 25
f 1 25 42
f 1 42 41
f 1 41 59
f 1 59 78
f 1 78 81
f 1 81 63
f 1 63 61
f 1 61 44
f 1 44 26
f 1 26 11
f 1 11 4
f 1 4 5
f 1 5 2
f 2 5 7
f 2 7 6
f 3 8 9
f 3 9 10
f 4 11 27
f 4 27 46
f 4 46 31
f 4 31 30
f 4 30 28
f 4 28 13
f 4 13 7
f 4 7 5
f 6 7 12
f 7 13 14
f 7 14 15
f 7 15 16
f 7 16 12
f 8 17 18
f 8 18 19
f 8 19 9
f 9 19 20
f 9 20 21
f 9 21 22
f 9 22 23
f 9 23 40
f 9 40 24
f 9 24 25
f 9 25 10
f 11 26 27
f 13 28 14
f 14 28 30
f 14 30 31
f 14 31 29
f 17 32 33
f 17 33 18
f 18 33 34
f 18 34 35
f 18 35 36
f 18 36 19
f 19 36 20
f 20 36 37
f 20 37 21
f 21 37 38
f 21 38 22
f 22 38 39
f 22 39 23
f 23 39 55
f 23 55 40
f 24 41 42
f 24 42 25
f 24 40 43
f 24 43 41
f 26 44 45
f 26 45 27
f 27 45 62
f 27 62 80
f 27 80 101
f 27 101 100
f 27 100 99
f 27 99 79
f 27 79 60
f 27 60 43
f 27 43 58
f 27 58 77
f 27 77 98
f 27 98 95
f 27 95 94
f 27 94 104
f 27 104 86
f 27 86 67
f 27 67 66
f 27 66 64
f 27 64 46
f 29 31 48
f 29 48 49
f 29 49 47
f 31 46 48
f 32 50 33
f 33 50 51
f 33 51 34
f 34 51 35
f 35 52 53
f 35 53 54
f 35 54 38
f 35 38 37
f 35 37 36
f 35 51 52
f 38 54 39
f 39 54 76
f 39 76 55
f 40 55 56
f 40 56 57
f 40 57 58
f 40 58 43
f 41 43 60
f 41 60 59
f 44 61 45
f 45 61 63
f 45 63 62
f 46 64 48
f 47 49 65
f 48 64 66
f 48 66 49
f 49 66 67
f 49 67 68
f 49 68 65
f 50 69 51
f 51 69 70
f 51 70 71
f 51 71 72
f 51 72 52
f 52 72 73
f 52 73 53
f 53 73 74
f 53 74 75
f 53 75 54
f 54 75 76
f 55 76 77
f 55 77 56
f 56 77 57
f 57 77 58
f 59 60 78
f 60 79 78
f 62 63 80
f 63 81 80
f 65 82 83
f 65 83 84
f 65 68 85
f 65 85 82
f 67 86 68
f 68 86 87
f 68 87 85
f 69 88 70
f 70 88 89
f 70 89 90
f 70 90 71
f 71 90 72
f 72 90 91
f 72 91 92
f 72 92 73
f 73 92 93
f 73 93 74
f 74 87 94
f 74 94 95
f 74 95 75
f 74 93 96
f 74 96 97
f 74 97 87
f 75 95 98
f 75 98 77
f 75 77 76
f 78 79 99
f 78 99 100
f 78 100 81
f 80 81 101
f 81 100 101
f 82 92 83
f 82 85 87
f 82 87 96
f 82 96 92
f 83 92 84
f 84 92 103
f 84 103 102
f 86 104 87
f 87 104 94
f 87 97 96
f 91 102 103
f 91 103 92
f 92 96 93

