v 0.15568093 -0.11935043 0.16014169
v 0.00369440 -0.11935043 0.15991890
v 0.15568093 -0.12066169 0.16009395
v 0.15568093 -0.11935043 0.15097636
v 0.00093762 -0.11935043 0.15990299
v 0.00093762 -0.12066169 0.15982343
v 0.15568093 -0.12365098 0.15952111
v 0.15168208 -0.11935043 0.15084906
v 0.15568093 -0.12037336 -0.00241556
v 0.10080280 -0.12036011 -0.00241556
v 0.00093762 -0.11935043 0.15086497
v 0.00093762 -0.12215634 0.15950520
v 0.00369440 -0.12319149 0.15929835
v 0.00832944 -0.12321085 0.15931426
v 0.15568093 -0.12515582 0.15675243
v 0.05919357 -0.11935043 0.15084906
v 0.15568093 -0.12506005 -0.00241556
v 0.00093762 -0.12037336 -0.00241556
v 0.00093762 -0.12318028 0.15928243
v 0.00093762 -0.12412373 0.15675243
v 0.00093762 -0.12460973 0.15399964
v 0.15568093 -0.12526586 0.15611594
v 0.00093762 -0.12374472 0.15778669
v 0.08692801 -0.12912424 -0.00241556
v 0.15568093 -0.12833870 0.06385802
v 0.00093762 -0.12506005 -0.00241556
v 0.00093762 -0.12493372 0.15212204
v 0.15568093 -0.12569989 0.15212204
v 0.15568093 -0.12833972 0.07953137
v 0.15568093 -0.12833972 0.08230006
v 0.00832944 -0.12975795 0.07814702
v 0.00093762 -0.12874216 0.07803563
v 0.00093762 -0.12860666 0.08156811
f 1 2 3
f 1 3 7
f 1 7 15
f 1 15 22
f 1 22 28
f 1 28 30
f 1 30 29
f 1 29 25
f 1 25 17
f 1 17 9
f 1 9 4
f 1 4 8
f 1 8 16
f 1 16 11
f 1 11 5
f 1 5 2
f 2 5 6
f 2 6 3
f 3 6 7
f 4 9 10
f 4 10 8
f 5 11 18
f 5 18 26
f 5 26 32
f 5 32 33
f 5 33 27
f 5 27 21
f 5 21 20
f 5 20 23
f 5 23 19
f 5 19 12
f 5 12 6
f 6 12 13
f 6 13 14
f 6 14 7
f 7 14 15
f 8 10 16
f 9 17 24
f 9 24 26
f 9 26 18
f 9 18 10
f 10 18 11
f 10 11 16
f 12 19 13
f 13 19 15
f 13 15 14
f 15 20 21
f 15 21 22
f 15 19 23
f 15 23 20
f 17 25 24
f 21 27 22
f 22 27 28
f 24 25 29
f 24 29 30
f 24 30 31
f 24 31 26
f 26 31 32
f 27 33 31
f 27 31 28
f 28 31 30
f 31 33 32

