v -0.26066665 0.08499206 -0.15916868
v -0.25644844 0.08499206 -0.15916868
v -0.26074503 0.08499206 -0.15557821
v -0.27186219 0.10807087 -0.14178406
v -0.27184042 0.11128055 -0.15916868
v -0.25876987 0.12908807 -0.15916868
v -0.25641578 0.10131820 -0.06064560
v -0.25641578 0.10096020 -0.06217999
v -0.25641578 0.10038616 -0.06454295
v -0.25641578 0.09894798 -0.06784188
v -0.25641578 0.09704069 -0.06963712
v -0.25641578 0.09403471 -0.07196939
v -0.25641578 0.08699194 -0.07401012
v -0.25641578 0.08499206 -0.07442441
v -0.26075810 0.08499206 -0.15309250
v -0.27186219 0.10807087 -0.14110893
v -0.27865008 0.13371124 -0.00974994
v -0.27863483 0.13371124 -0.09299051
v -0.27863265 0.13371124 -0.09760902
v -0.27859344 0.13371124 -0.15774170
v -0.27859129 0.13371124 -0.15916868
v -0.25899634 0.13051391 -0.15916868
v -0.26008738 0.13833440 -0.14385549
v -0.25942318 0.13371124 -0.14385549
v -0.25942100 0.13371124 -0.05137789
v -0.25876987 0.12908807 -0.15774170
v -0.25641578 0.10167620 -0.02825466
v -0.25641578 0.10163300 -0.05137789
v -0.25641578 0.10160214 -0.05599640
v -0.25641578 0.08499206 -0.06227205
v -0.26075810 0.08499206 -0.07913498
v -0.26072762 0.08499206 -0.06986727
v -0.27734998 0.13014356 -0.00241556
v -0.27809475 0.13222368 -0.00241556
v -0.27862176 0.13371124 -0.00241556
v -0.27865008 0.13640860 -0.00241556
v -0.27866315 0.13833440 -0.00241556
v -0.27866315 0.13833440 -0.15916868
v -0.26164878 0.14588332 -0.15916868
v -0.26164008 0.14588949 -0.15855492
v -0.26009391 0.13833440 -0.05137789
v -0.25943842 0.13371124 -0.01436845
v -0.25944932 0.13371124 -0.00241556
v -0.25897893 0.12908807 -0.00241556
v -0.25641578 0.10163300 -0.00241556
v -0.25641578 0.10167620 -0.02253139
v -0.25641578 0.09367671 -0.00241556
v -0.25709303 0.08499206 -0.06248687
v -0.26021804 0.08499206 -0.06774982
v -0.25834740 0.09411495 -0.00241556
v -0.26065793 0.09603458 -0.00241556
v -0.26147893 0.09699749 -0.00241556
v -0.26250462 0.09834925 -0.00241556
v -0.27738918 0.14242057 -0.00241556
v -0.27738918 0.14244526 -0.00513143
v -0.27738918 0.14243909 -0.03750703
v -0.27738918 0.14241440 -0.10222753
v -0.27738918 0.14237737 -0.13460312
v -0.27738918 0.14230329 -0.15309250
v -0.27738918 0.14223539 -0.15916868
v -0.26428162 0.14693880 -0.15916868
v -0.26456037 0.14677214 -0.03287317
v -0.26436655 0.14656228 -0.00241556
v -0.26293580 0.14570432 -0.00241556
v -0.26223677 0.14528459 -0.00241556
v -0.26149634 0.14314274 -0.00241556
v -0.26124809 0.14295758 -0.05137789
v -0.26017231 0.13833440 -0.01900230
v -0.25977379 0.13563704 -0.00241556
v -0.25854992 0.08499206 -0.06368369
v -0.25789226 0.08499206 -0.06276306
v -0.25936873 0.08499206 -0.06503395
v -0.27665313 0.14338347 -0.00241556
v -0.27562307 0.14475993 -0.00513143
v -0.27562090 0.14475376 -0.03750703
v -0.27559259 0.14472907 -0.10222753
v -0.27557082 0.14470437 -0.12073225
v -0.27555122 0.14468586 -0.13460312
v -0.27547282 0.14461179 -0.15309250
v -0.27680557 0.14294523 -0.15916868
v -0.26775723 0.14778443 -0.15916868
v -0.26918145 0.14804368 -0.00241556
v -0.26023328 0.13833440 -0.00241556
v -0.27560130 0.14473524 -0.00241556
v -0.27331036 0.14663635 -0.00513143
v -0.27330601 0.14664253 -0.03750703
v -0.27424895 0.14585862 -0.00241556
v -0.27328859 0.14664253 -0.00241556
v -0.27327987 0.14663635 -0.10222753
v -0.27325810 0.14663635 -0.12073225
v -0.27323850 0.14663635 -0.13460312
v -0.27316010 0.14663018 -0.15309250
v -0.27381123 0.14601294 -0.15916868
v -0.27540967 0.14454389 -0.15916868
v -0.26918145 0.14803132 -0.15916868
v -0.26918145 0.14803751 -0.12073225
v -0.27309695 0.14663018 -0.15916868
f 1 2 14
f 1 14 30
f 1 30 48
f 1 48 71
f 1 71 70
f 1 70 72
f 1 72 49
f 1 49 32
f 1 32 31
f 1 31 15
f 1 15 3
f 1 3 4
f 1 4 5
f 1 5 21
f 1 21 38
f 1 38 60
f 1 60 80
f 1 80 94
f 1 94 93
f 1 93 97
f 1 97 95
f 1 95 81
f 1 81 61
f 1 61 39
f 1 39 22
f 1 22 6
f 1 6 2
f 2 6 7
f 2 7 8
f 2 8 9
f 2 9 10
f 2 10 11
f 2 11 12
f 2 12 13
f 2 13 14
f 3 15 4
f 4 15 31
f 4 31 16
f 4 16 17
f 4 17 18
f 4 18 19
f 4 19 20
f 4 20 21
f 4 21 5
f 6 22 23
f 6 23 24
f 6 24 25
f 6 25 26
f 6 26 46
f 6 46 27
f 6 27 28
f 6 28 29
f 6 29 7
f 7 29 28
f 7 28 27
f 7 27 46
f 7 46 45
f 7 45 47
f 7 47 30
f 7 30 14
f 7 14 13
f 7 13 12
f 7 12 11
f 7 11 10
f 7 10 9
f 7 9 8
f 16 31 32
f 16 32 33
f 16 33 34
f 16 34 35
f 16 35 17
f 17 35 36
f 17 36 37
f 17 37 38
f 17 38 18
f 18 38 19
f 19 38 20
f 20 38 21
f 22 39 23
f 23 39 40
f 23 40 41
f 23 41 25
f 23 25 24
f 25 41 42
f 25 42 26
f 26 42 43
f 26 43 44
f 26 44 45
f 26 45 46
f 30 47 48
f 32 49 50
f 32 50 51
f 32 51 52
f 32 52 53
f 32 53 33
f 33 53 52
f 33 52 51
f 33 51 50
f 33 50 47
f 33 47 45
f 33 45 44
f 33 44 43
f 33 43 69
f 33 69 83
f 33 83 66
f 33 66 65
f 33 65 64
f 33 64 63
f 33 63 82
f 33 82 88
f 33 88 87
f 33 87 84
f 33 84 73
f 33 73 54
f 33 54 37
f 33 37 36
f 33 36 35
f 33 35 34
f 37 54 55
f 37 55 38
f 38 55 56
f 38 56 57
f 38 57 58
f 38 58 59
f 38 59 60
f 39 61 40
f 40 61 62
f 40 62 63
f 40 63 64
f 40 64 65
f 40 65 66
f 40 66 67
f 40 67 68
f 40 68 41
f 41 68 43
f 41 43 42
f 43 68 69
f 47 70 71
f 47 71 48
f 47 50 70
f 49 72 50
f 50 72 70
f 54 73 74
f 54 74 55
f 55 74 56
f 56 74 75
f 56 75 57
f 57 76 58
f 57 75 76
f 58 76 77
f 58 77 78
f 58 78 59
f 59 78 79
f 59 79 80
f 59 80 60
f 61 81 82
f 61 82 62
f 62 82 63
f 66 83 67
f 67 83 68
f 68 83 69
f 73 84 74
f 74 85 86
f 74 86 75
f 74 84 87
f 74 87 88
f 74 88 85
f 75 86 89
f 75 89 76
f 76 89 90
f 76 90 91
f 76 91 77
f 77 91 78
f 78 92 79
f 78 91 92
f 79 92 93
f 79 93 94
f 79 94 80
f 81 95 96
f 81 96 82
f 82 96 86
f 82 86 85
f 82 85 88
f 86 96 95
f 86 95 89
f 89 95 90
f 90 95 91
f 91 95 92
f 92 95 97
f 92 97 93

