v 0.26349945 0.08411993 0.15167809
v 0.26353112 0.08411993 0.15085222
v 0.25928187 0.08411993 0.15167809
v 0.26330695 0.05508119 0.15167809
v 0.26353356 0.08411993 0.15051922
v 0.25934522 0.08411993 0.08364430
v 0.23866668 -0.11933052 0.15167809
v 0.26304626 0.05046048 0.15167809
v 0.26309254 0.05046048 0.14750215
v 0.26331183 0.05508119 0.14750215
v 0.26355549 0.08411993 0.14750215
v 0.26355549 0.08411993 0.08364430
v 0.25922340 0.08282533 0.08364430
v 0.24270152 -0.11933052 0.08364430
v 0.24282822 -0.11935044 0.08364430
v 0.24926544 -0.11933052 0.15167809
v 0.25887741 0.07908097 0.08364430
v 0.25879701 0.07820464 0.08364430
v 0.25671381 0.05508119 0.08364430
v 0.25597067 -0.05244980 0.15167809
v 0.25581229 -0.05850452 0.15003303
v 0.25609493 -0.05589541 0.14750215
v 0.25615585 -0.05589541 0.14287999
v 0.26309254 0.05046048 0.08364430
v 0.26327042 0.05420484 0.08364430
v 0.26331183 0.05508119 0.08364430
v 0.26355792 0.08411993 0.11385490
v 0.26355792 0.08411993 0.09073074
v 0.25024977 -0.11933052 0.08364430
v 0.25053729 -0.11933052 0.14287999
v 0.25053241 -0.11933052 0.14599030
v 0.25047150 -0.11933052 0.14743556
v 0.24953589 -0.11933052 0.15077230
v 0.25117322 -0.11433140 0.14555072
v 0.25585859 -0.05872360 0.14750215
v 0.25143391 -0.11140362 0.14287999
v 0.25144367 -0.11140362 0.13825782
v 0.25144610 -0.11140362 0.11975582
v 0.25615585 -0.05589541 0.08364430
v 0.25118053 -0.11411231 0.08364430
v 0.25118296 -0.11415215 0.09663832
v 0.25118053 -0.11433140 0.14287999
v 0.25144367 -0.11140362 0.09663832
v 0.25144122 -0.11140362 0.08364430
f 1 2 5
f 1 5 11
f 1 11 27
f 1 27 28
f 1 28 12
f 1 12 6
f 1 6 3
f 1 3 7
f 1 7 16
f 1 16 20
f 1 20 8
f 1 8 4
f 1 4 2
f 2 4 5
f 3 6 7
f 4 8 9
f 4 9 10
f 4 10 11
f 4 11 5
f 6 12 26
f 6 26 25
f 6 25 24
f 6 24 39
f 6 39 44
f 6 44 40
f 6 40 29
f 6 29 15
f 6 15 14
f 6 14 19
f 6 19 18
f 6 18 17
f 6 17 13
f 6 13 7
f 7 14 15
f 7 15 16
f 7 13 17
f 7 17 18
f 7 18 19
f 7 19 14
f 8 20 21
f 8 21 22
f 8 22 23
f 8 23 9
f 9 24 25
f 9 25 10
f 9 23 39
f 9 39 24
f 10 25 26
f 10 26 28
f 10 28 27
f 10 27 11
f 12 28 26
f 15 29 30
f 15 30 31
f 15 31 32
f 15 32 33
f 15 33 16
f 16 33 20
f 20 33 32
f 20 32 21
f 21 32 34
f 21 34 35
f 21 35 22
f 22 35 23
f 23 35 34
f 23 34 36
f 23 36 37
f 23 37 38
f 23 38 39
f 29 40 30
f 30 40 41
f 30 41 42
f 30 42 31
f 31 42 34
f 31 34 32
f 34 42 36
f 36 42 37
f 37 42 38
f 38 42 43
f 38 43 39
f 39 43 44
f 40 44 41
f 41 44 42
f 42 44 43

