v -0.23198313 0.08498590 -0.00241556
v -0.23196041 0.08498590 -0.05598546
v -0.23689840 0.08498590 -0.00241556
v -0.22052113 -0.07138796 -0.00241556
v -0.23199261 0.08498590 -0.06061174
v -0.22052113 -0.07138796 -0.06061174
v -0.23680177 0.08282306 -0.00241556
v -0.23747633 0.08498590 -0.05695054
v -0.23747633 -0.08450267 -0.07200894
v -0.23747633 -0.11140063 -0.07455952
v -0.23747633 -0.11588362 -0.07501908
v -0.21814499 -0.11588362 -0.00241556
v -0.21813930 -0.11588362 -0.00511933
v -0.21812793 -0.11588362 -0.02362446
v -0.21811845 -0.11588362 -0.06986430
v -0.22986280 0.03897624 -0.06755882
v -0.23255918 0.08498590 -0.06241936
v -0.22055524 -0.07162390 -0.06407379
v -0.22060640 -0.07650014 -0.07220808
v -0.23669755 0.08089615 -0.00241556
v -0.23747633 0.08498590 -0.06627204
v -0.23747633 -0.11588362 -0.08059513
v -0.22326489 -0.11588362 -0.00241556
v -0.22701671 -0.07439628 -0.00241556
v -0.22724599 -0.07170254 -0.00241556
v -0.22740895 -0.06977565 -0.00241556
v -0.23202293 0.00421339 -0.00241556
v -0.23655165 0.07820243 -0.00241556
v -0.21850312 -0.11588362 -0.07449058
v -0.23448624 0.07132064 -0.06755882
v -0.23327354 0.08498590 -0.06460229
v -0.22056472 -0.09952463 -0.07686501
v -0.21853532 -0.11588362 -0.07458249
v -0.22041503 -0.10215938 -0.07704883
v -0.23680744 0.08498590 -0.06628736
v -0.23747633 0.07165489 -0.06758180
v -0.22756054 -0.11588362 -0.08066407
v -0.23747633 -0.00504753 -0.07321147
v -0.23680744 -0.00042690 -0.07289743
v -0.23680744 0.06896117 -0.06779626
v -0.23680744 0.07159591 -0.06758180
v -0.23487848 0.08498590 -0.06539887
v -0.22408537 -0.08365720 -0.07749307
v -0.22306973 -0.11588362 -0.08002834
v -0.22723272 -0.11588362 -0.08064875
v -0.21976698 -0.11588362 -0.07789902
v -0.23747633 0.06937408 -0.06776562
v -0.23680744 -0.00504753 -0.07321147
v -0.23747633 -0.00042690 -0.07288977
v -0.23747633 0.06896117 -0.06779626
f 1 2 5
f 1 5 17
f 1 17 31
f 1 31 42
f 1 42 35
f 1 35 21
f 1 21 8
f 1 8 3
f 1 3 7
f 1 7 20
f 1 20 28
f 1 28 27
f 1 27 26
f 1 26 25
f 1 25 24
f 1 24 23
f 1 23 12
f 1 12 4
f 1 4 2
f 2 4 6
f 2 6 5
f 3 8 9
f 3 9 10
f 3 10 11
f 3 11 7
f 4 12 13
f 4 13 14
f 4 14 15
f 4 15 6
f 5 16 17
f 5 6 18
f 5 18 19
f 5 19 16
f 6 15 18
f 7 11 20
f 8 21 36
f 8 36 47
f 8 47 50
f 8 50 49
f 8 49 38
f 8 38 22
f 8 22 11
f 8 11 10
f 8 10 9
f 11 22 37
f 11 37 45
f 11 45 44
f 11 44 46
f 11 46 33
f 11 33 29
f 11 29 15
f 11 15 14
f 11 14 13
f 11 13 12
f 11 12 23
f 11 23 24
f 11 24 25
f 11 25 26
f 11 26 27
f 11 27 28
f 11 28 20
f 15 29 19
f 15 19 18
f 16 30 31
f 16 31 17
f 16 19 32
f 16 32 30
f 19 29 33
f 19 33 34
f 19 34 32
f 21 35 36
f 22 38 37
f 30 39 40
f 30 40 41
f 30 41 35
f 30 35 42
f 30 42 31
f 30 32 43
f 30 43 44
f 30 44 45
f 30 45 39
f 32 34 43
f 33 46 34
f 34 46 44
f 34 44 43
f 35 41 36
f 36 41 40
f 36 40 47
f 37 48 39
f 37 39 45
f 37 38 48
f 38 49 39
f 38 39 48
f 39 49 50
f 39 50 40
f 40 50 47

