v -0.25455741 0.10626987 0.16680827
v -0.25455741 0.10626987 0.17415030
v -0.25455741 0.11059132 0.16702574
v -0.21809371 0.12908680 0.17251041
v -0.21809371 0.10626987 0.17182045
v -0.25435393 0.10626987 0.17422779
v -0.24944569 0.13105406 0.19167169
v -0.25455741 0.13133509 0.18916934
v -0.25455741 0.11523861 0.16734573
v -0.21809371 0.13200307 0.17284538
v -0.21809371 0.10626987 0.17579520
v -0.25068079 0.10626987 0.17559021
v -0.24605814 0.13081375 0.19183918
v -0.24605814 0.13371373 0.19223414
v -0.25022031 0.13371373 0.19178418
v -0.25253342 0.13371373 0.19116422
v -0.25455741 0.13371373 0.19047675
v -0.25455741 0.13820624 0.17048303
v -0.21809371 0.14296351 0.17522022
v -0.21809728 0.10626987 0.17588018
v -0.21809371 0.13075673 0.19189417
v -0.25037737 0.10626987 0.17560770
v -0.24143190 0.13075673 0.19189417
v -0.24143190 0.13371373 0.19234414
v -0.24605814 0.10626987 0.17585019
v -0.24605814 0.13833658 0.19222415
v -0.25029884 0.13833658 0.19178418
v -0.25260838 0.13833658 0.19134171
v -0.25455741 0.13500080 0.19053426
v -0.25455741 0.14221407 0.17165546
v -0.25455741 0.14254806 0.17175796
v -0.21809371 0.14618933 0.17675513
v -0.23218658 0.10626987 0.17588018
v -0.21809371 0.13089929 0.19191667
v -0.24575115 0.10626987 0.17585269
v -0.23680567 0.10626987 0.17587269
v -0.21809371 0.13371373 0.19234414
v -0.21809371 0.13392960 0.19234414
v -0.23680567 0.13833658 0.19232915
v -0.24143190 0.13833658 0.19232664
v -0.24605814 0.14125285 0.19182917
v -0.24954564 0.14101254 0.19167169
v -0.25455741 0.14291871 0.18946933
v -0.25455741 0.13833658 0.19063924
v -0.25455741 0.14491854 0.17300538
v -0.25455741 0.14668623 0.17525023
v -0.21809371 0.14758636 0.17988244
v -0.21809371 0.13833658 0.19232915
v -0.21809371 0.13847913 0.19230914
v -0.23218658 0.14132209 0.19187917
v -0.23680567 0.14131802 0.19187917
v -0.24143190 0.14131394 0.19187667
v -0.24605814 0.14356224 0.19008678
v -0.25068079 0.14620969 0.18775194
v -0.25455741 0.14605491 0.18757694
v -0.25455741 0.14787961 0.17988244
v -0.21809371 0.14765559 0.18450714
v -0.21809371 0.14132616 0.19187917
v -0.21831146 0.14132616 0.19187917
v -0.21831146 0.14363555 0.19010428
v -0.23218658 0.14363148 0.19008428
v -0.24143190 0.14362333 0.19007178
v -0.24605814 0.14624634 0.18777443
v -0.25068079 0.14760673 0.18450714
v -0.25455741 0.14741936 0.18450714
v -0.24605814 0.14764339 0.18450714
v -0.21831146 0.14765559 0.18450714
v -0.21809371 0.14625857 0.18779193
v -0.21809371 0.14363555 0.19010428
v -0.21809371 0.14376182 0.18999429
v -0.21831146 0.14625857 0.18779193
f 1 2 8
f 1 8 17
f 1 17 29
f 1 29 44
f 1 44 43
f 1 43 55
f 1 55 65
f 1 65 56
f 1 56 46
f 1 46 45
f 1 45 31
f 1 31 30
f 1 30 18
f 1 18 9
f 1 9 3
f 1 3 4
f 1 4 5
f 1 5 11
f 1 11 20
f 1 20 33
f 1 33 36
f 1 36 35
f 1 35 25
f 1 25 22
f 1 22 12
f 1 12 6
f 1 6 2
f 2 6 7
f 2 7 8
f 3 9 4
f 4 9 10
f 4 10 19
f 4 19 32
f 4 32 47
f 4 47 57
f 4 57 68
f 4 68 70
f 4 70 69
f 4 69 58
f 4 58 49
f 4 49 48
f 4 48 38
f 4 38 37
f 4 37 34
f 4 34 21
f 4 21 11
f 4 11 5
f 6 12 7
f 7 13 14
f 7 14 15
f 7 15 16
f 7 16 17
f 7 17 8
f 7 12 13
f 9 18 10
f 10 18 19
f 11 21 20
f 12 22 13
f 13 23 24
f 13 24 14
f 13 22 25
f 13 25 23
f 14 24 26
f 14 26 27
f 14 27 15
f 15 27 28
f 15 28 16
f 16 28 29
f 16 29 17
f 18 30 19
f 19 30 31
f 19 31 32
f 20 21 23
f 20 23 33
f 21 34 23
f 23 34 24
f 23 25 35
f 23 35 36
f 23 36 33
f 24 34 37
f 24 37 38
f 24 38 39
f 24 39 40
f 24 40 26
f 26 40 41
f 26 41 42
f 26 42 27
f 27 42 28
f 28 42 43
f 28 43 44
f 28 44 29
f 31 45 32
f 32 45 46
f 32 46 47
f 38 48 39
f 39 48 49
f 39 49 50
f 39 50 51
f 39 51 40
f 40 51 52
f 40 52 41
f 41 52 53
f 41 53 54
f 41 54 55
f 41 55 42
f 42 55 43
f 46 56 47
f 47 56 57
f 49 58 59
f 49 59 50
f 50 59 60
f 50 60 51
f 51 60 52
f 52 60 61
f 52 61 62
f 52 62 53
f 53 62 63
f 53 63 54
f 54 63 64
f 54 64 65
f 54 65 55
f 56 64 66
f 56 66 67
f 56 67 57
f 56 65 64
f 57 67 71
f 57 71 68
f 58 69 60
f 58 60 59
f 60 69 70
f 60 70 61
f 61 70 63
f 61 63 62
f 63 70 71
f 63 71 66
f 63 66 64
f 66 71 67
f 68 71 70

