v -0.26335237 0.10626987 0.14581385
v -0.27733890 0.13013786 0.14581385
v -0.25905281 0.10626987 0.14581385
v -0.26478241 0.10626987 0.15241328
v -0.27182168 0.10807724 0.15419477
v -0.27860846 0.13371172 0.14581385
v -0.25893012 0.12908696 0.14581385
v -0.25455741 0.10626987 0.16681003
v -0.26481544 0.10626987 0.15644139
v -0.27182168 0.10807724 0.15481346
v -0.27862497 0.13371172 0.15213684
v -0.27862027 0.13371172 0.14751197
v -0.27866510 0.13833647 0.14581385
v -0.25910946 0.13077984 0.14581385
v -0.25455741 0.14254823 0.17175521
v -0.25455741 0.14221292 0.17164990
v -0.25455741 0.13820562 0.17047833
v -0.25455741 0.11523723 0.16734535
v -0.25455741 0.11059203 0.16702505
v -0.25455741 0.10626987 0.17414663
v -0.26481544 0.10626987 0.15647649
v -0.27850935 0.13371172 0.16138656
v -0.27860611 0.13371172 0.15676171
v -0.26468566 0.10626987 0.15685824
v -0.26179490 0.10626987 0.16514263
v -0.26153533 0.10626987 0.16583153
v -0.25917318 0.10626987 0.16995179
v -0.27217566 0.13071032 0.17847312
v -0.27646577 0.13078802 0.16941206
v -0.27690941 0.13033413 0.16601143
v -0.27866510 0.13833647 0.15213684
v -0.27866275 0.13833647 0.15676171
v -0.27739318 0.14233969 0.14581385
v -0.25947050 0.13371172 0.14581385
v -0.25455741 0.14491990 0.17300139
v -0.25462820 0.10626987 0.17412031
v -0.25455741 0.13133596 0.18916648
v -0.25993539 0.13040774 0.18789837
v -0.26310223 0.13082482 0.18734549
v -0.27860138 0.13833647 0.16138656
v -0.27773533 0.13371172 0.16601143
v -0.25694080 0.10626987 0.17226422
v -0.26774868 0.13073895 0.18312431
v -0.26820175 0.13371172 0.18367280
v -0.27051435 0.13371172 0.18120679
v -0.27256502 0.13371172 0.17889435
v -0.27440094 0.13371172 0.17525678
v -0.27564456 0.13371172 0.17233004
v -0.27658376 0.13371172 0.17001760
v -0.27734363 0.14235195 0.16138656
v -0.27739318 0.14230697 0.15676171
v -0.27672297 0.14319022 0.14581385
v -0.27555489 0.14466638 0.16138656
v -0.25974896 0.13540460 0.14581385
v -0.25455741 0.14668638 0.17524361
v -0.26038374 0.13833647 0.14581385
v -0.26082267 0.14001300 0.14581385
v -0.26153768 0.14265863 0.14581385
v -0.25455741 0.13371172 0.19047846
v -0.25993539 0.13371172 0.18899974
v -0.26358835 0.13371172 0.18763069
v -0.26590094 0.13371172 0.18598523
v -0.27763149 0.13833647 0.16601143
v -0.27680557 0.14173859 0.16601143
v -0.26585612 0.13833647 0.18596768
v -0.26814040 0.13833647 0.18365525
v -0.27045300 0.13833647 0.18116291
v -0.27255559 0.13833647 0.17885047
v -0.27443162 0.13833647 0.17525678
v -0.27568467 0.13833647 0.17186491
v -0.27544161 0.14404892 0.16601143
v -0.27551242 0.14465411 0.14581385
v -0.27324228 0.14663322 0.16138656
v -0.27404698 0.14593400 0.14581385
v -0.27282697 0.14648601 0.17063191
v -0.27312901 0.14660461 0.16601143
v -0.25455741 0.14787631 0.17988165
v -0.26239194 0.14496897 0.14581385
v -0.25455741 0.13499978 0.19053112
v -0.25455741 0.13833647 0.19064082
v -0.25993539 0.13833647 0.18891636
v -0.26354352 0.13833647 0.18757805
v -0.27625104 0.14101073 0.16879337
v -0.27514428 0.14271588 0.17045200
v -0.26766844 0.14202891 0.18309799
v -0.26304088 0.14159139 0.18727089
v -0.27216385 0.14177131 0.17841169
v -0.27307237 0.14317386 0.17546300
v -0.26918343 0.14803987 0.15676171
v -0.26918343 0.14804396 0.15213684
v -0.27319980 0.14663322 0.14581385
v -0.26918343 0.14788448 0.17063191
v -0.26918343 0.14794991 0.16601143
v -0.27223229 0.14601577 0.17405888
v -0.25531019 0.14790084 0.17988165
v -0.25455741 0.14741834 0.18450651
v -0.26470453 0.14667002 0.14581385
v -0.26749854 0.14753692 0.14581385
v -0.26918343 0.14803169 0.14581385
v -0.25455741 0.14292034 0.18946925
v -0.25531019 0.14296122 0.18929811
v -0.26486736 0.14335378 0.18469080
v -0.26669149 0.14511208 0.18201855
v -0.25844635 0.14568455 0.18718753
v -0.26152825 0.14467864 0.18628362
v -0.25996607 0.14306754 0.18783694
v -0.27100991 0.14485448 0.17714358
v -0.25993539 0.14792538 0.17525678
v -0.26918343 0.14803579 0.14751197
v -0.26935570 0.14665366 0.17546300
v -0.26491456 0.14656372 0.18024145
v -0.26456058 0.14783950 0.17525678
v -0.26792803 0.14590128 0.17893824
v -0.25993539 0.14776999 0.17988165
v -0.25531019 0.14738152 0.18450651
v -0.25455741 0.14605666 0.18757805
v -0.25531019 0.14602804 0.18754295
v -0.26360958 0.14586448 0.18320329
v -0.25996607 0.14640015 0.18464692
f 1 2 6
f 1 6 13
f 1 13 33
f 1 33 52
f 1 52 72
f 1 72 74
f 1 74 91
f 1 91 99
f 1 99 98
f 1 98 97
f 1 97 78
f 1 78 58
f 1 58 57
f 1 57 56
f 1 56 54
f 1 54 34
f 1 34 14
f 1 14 7
f 1 7 3
f 1 3 8
f 1 8 20
f 1 20 36
f 1 36 42
f 1 42 27
f 1 27 26
f 1 26 25
f 1 25 24
f 1 24 21
f 1 21 9
f 1 9 4
f 1 4 5
f 1 5 2
f 2 5 6
f 3 7 8
f 4 9 5
f 5 9 21
f 5 21 10
f 5 10 11
f 5 11 12
f 5 12 6
f 6 12 13
f 7 14 15
f 7 15 16
f 7 16 17
f 7 17 18
f 7 18 19
f 7 19 8
f 8 19 18
f 8 18 17
f 8 17 16
f 8 16 15
f 8 15 35
f 8 35 55
f 8 55 77
f 8 77 96
f 8 96 116
f 8 116 100
f 8 100 80
f 8 80 79
f 8 79 59
f 8 59 37
f 8 37 20
f 10 22 23
f 10 23 11
f 10 21 24
f 10 24 25
f 10 25 26
f 10 26 27
f 10 27 28
f 10 28 29
f 10 29 30
f 10 30 22
f 11 31 13
f 11 13 12
f 11 23 32
f 11 32 31
f 13 31 33
f 14 34 35
f 14 35 15
f 20 37 38
f 20 38 39
f 20 39 36
f 22 40 23
f 22 30 29
f 22 29 41
f 22 41 40
f 23 40 32
f 27 42 43
f 27 43 28
f 28 43 44
f 28 44 45
f 28 45 46
f 28 46 47
f 28 47 29
f 29 47 48
f 29 48 49
f 29 49 41
f 31 32 33
f 32 40 50
f 32 50 51
f 32 51 33
f 33 51 53
f 33 53 52
f 34 54 35
f 35 54 56
f 35 56 57
f 35 57 58
f 35 58 55
f 36 39 42
f 37 59 38
f 38 59 39
f 39 59 60
f 39 60 61
f 39 61 62
f 39 62 43
f 39 43 42
f 40 41 63
f 40 63 64
f 40 64 50
f 41 49 63
f 43 62 44
f 44 62 65
f 44 65 66
f 44 66 45
f 45 66 67
f 45 67 68
f 45 68 46
f 46 68 69
f 46 69 47
f 47 69 48
f 48 69 49
f 49 69 70
f 49 70 63
f 50 53 51
f 50 64 71
f 50 71 53
f 52 53 72
f 53 73 74
f 53 74 72
f 53 71 75
f 53 75 76
f 53 76 73
f 55 58 78
f 55 78 77
f 59 79 60
f 60 79 80
f 60 80 81
f 60 81 82
f 60 82 61
f 61 82 65
f 61 65 62
f 63 83 64
f 63 70 83
f 64 83 84
f 64 84 71
f 65 85 66
f 65 82 86
f 65 86 85
f 66 85 87
f 66 87 67
f 67 87 68
f 68 87 69
f 69 87 88
f 69 88 83
f 69 83 70
f 71 84 75
f 73 89 90
f 73 90 91
f 73 91 74
f 73 76 92
f 73 92 93
f 73 93 89
f 75 92 76
f 75 84 94
f 75 94 92
f 77 95 96
f 77 78 97
f 77 97 98
f 77 98 99
f 77 99 95
f 80 100 101
f 80 101 86
f 80 86 81
f 81 86 82
f 83 88 84
f 84 88 94
f 85 86 102
f 85 102 103
f 85 103 87
f 86 104 105
f 86 105 102
f 86 101 106
f 86 106 104
f 87 107 94
f 87 94 88
f 87 103 107
f 89 93 108
f 89 108 95
f 89 95 90
f 90 109 91
f 90 95 109
f 91 109 99
f 92 94 110
f 92 110 111
f 92 111 112
f 92 112 95
f 92 95 108
f 92 108 93
f 94 107 103
f 94 103 113
f 94 113 110
f 95 99 109
f 95 112 114
f 95 114 96
f 96 114 115
f 96 115 116
f 100 116 117
f 100 117 104
f 100 104 101
f 101 104 106
f 102 105 103
f 103 105 104
f 103 104 118
f 103 118 113
f 104 117 115
f 104 115 119
f 104 119 118
f 110 113 111
f 111 114 112
f 111 113 118
f 111 118 119
f 111 119 114
f 114 119 115
f 115 117 116

