v 0.25632195 0.08411994 0.06195103
v 0.25632195 0.09208863 0.06152260
v 0.24419270 0.09208863 0.06073502
v 0.23956685 0.09208863 0.06042630
v 0.23956685 0.08746411 0.06054601
v 0.23956685 0.08411994 0.06061531
v 0.25632195 0.08411994 0.05629943
v 0.25632195 0.09222827 0.06148479
v 0.25632195 0.09575767 0.06011127
v 0.23956685 0.09583411 0.05883225
v 0.23664248 0.09524612 0.05815179
v 0.23622988 0.09208863 0.05869994
v 0.23608313 0.08746411 0.05885745
v 0.23601932 0.08411994 0.05891416
v 0.23698490 0.08411994 0.05938040
v 0.23950944 0.08411994 -0.00241556
v 0.25632195 0.09333370 -0.00241556
v 0.25632195 0.09663524 0.05973323
v 0.24459466 0.09845653 0.05472428
v 0.24169369 0.09910920 0.05299163
v 0.23991779 0.09787001 0.05472428
v 0.23629369 0.09562537 0.05500781
v 0.23505375 0.09208863 0.05500781
v 0.23471558 0.08746411 0.05500781
v 0.23465604 0.08411994 0.05500781
v 0.23467306 0.08411994 -0.00241556
v 0.25632195 0.09769068 -0.00241556
v 0.25632195 0.09821399 0.05500781
v 0.24332069 0.09910920 0.05299163
v 0.24162137 0.09913713 0.05038319
v 0.23930739 0.09796556 0.05038319
v 0.23612566 0.09576208 0.04575227
v 0.23619372 0.09565330 0.05038319
v 0.23487510 0.09208863 0.05038319
v 0.23459861 0.08746411 0.05038319
v 0.23459648 0.08411994 0.05038319
v 0.23467731 0.08554139 -0.00241556
v 0.25632195 0.09812579 -0.00240296
v 0.24332708 0.09910773 -0.00241556
v 0.25632195 0.09823456 0.05038319
v 0.24378860 0.09913713 0.05038319
v 0.23936056 0.09811844 0.04112766
v 0.23934143 0.09807434 0.04575227
v 0.24166603 0.09910920 -0.00048759
v 0.23611716 0.09580618 0.04112766
v 0.23483894 0.09208863 0.04575227
v 0.23483681 0.09208863 0.04112766
v 0.23483681 0.09208863 0.03650304
v 0.23484107 0.09208863 -0.00241556
v 0.23468581 0.08746411 -0.00241556
v 0.24167028 0.09910773 -0.00241556
v 0.24334621 0.09910920 -0.00048759
v 0.24070896 0.09867262 -0.00241556
v 0.23935843 0.09805670 -0.00241556
v 0.23612141 0.09574444 -0.00241556
f 1 2 3
f 1 3 4
f 1 4 5
f 1 5 6
f 1 6 15
f 1 15 14
f 1 14 25
f 1 25 36
f 1 36 26
f 1 26 16
f 1 16 7
f 1 7 17
f 1 17 27
f 1 27 38
f 1 38 40
f 1 40 28
f 1 28 18
f 1 18 9
f 1 9 8
f 1 8 2
f 2 8 3
f 3 8 9
f 3 9 4
f 4 9 10
f 4 10 11
f 4 11 12
f 4 12 13
f 4 13 14
f 4 14 5
f 5 14 15
f 5 15 6
f 7 16 17
f 9 18 10
f 10 18 19
f 10 19 20
f 10 20 21
f 10 21 11
f 11 21 22
f 11 22 23
f 11 23 12
f 12 23 24
f 12 24 13
f 13 24 14
f 14 24 25
f 16 26 37
f 16 37 50
f 16 50 49
f 16 49 55
f 16 55 54
f 16 54 53
f 16 53 51
f 16 51 39
f 16 39 27
f 16 27 17
f 18 28 29
f 18 29 20
f 18 20 19
f 20 29 41
f 20 41 30
f 20 30 31
f 20 31 21
f 21 31 22
f 22 31 32
f 22 32 33
f 22 33 34
f 22 34 23
f 23 34 24
f 24 34 35
f 24 35 25
f 25 35 36
f 26 36 35
f 26 35 37
f 27 39 38
f 28 40 41
f 28 41 29
f 30 42 43
f 30 43 31
f 30 41 52
f 30 52 44
f 30 44 42
f 31 43 32
f 32 45 46
f 32 46 34
f 32 34 33
f 32 43 45
f 34 46 35
f 35 46 47
f 35 47 48
f 35 48 49
f 35 49 50
f 35 50 37
f 38 39 40
f 39 51 44
f 39 44 52
f 39 52 40
f 40 52 41
f 42 45 43
f 42 44 53
f 42 53 54
f 42 54 45
f 44 51 53
f 45 48 47
f 45 47 46
f 45 54 55
f 45 55 49
f 45 49 48

