v 0.25632514 0.08411994 0.05631982
v 0.25822382 0.08411994 0.05657624
v 0.25632514 0.08411994 0.06196108
v 0.25632514 0.09334220 -0.00241556
v 0.25989107 0.08411994 0.05711925
v 0.25632514 0.09209172 0.06153874
v 0.25928414 0.08411994 0.15167809
v 0.25632514 0.09769385 -0.00241556
v 0.25806794 0.09344223 -0.00241556
v 0.26084513 0.08411994 0.05782818
v 0.25632514 0.09223553 0.06149349
v 0.26350186 0.08411994 0.15167809
v 0.26164568 0.12908079 0.15167809
v 0.25632514 0.09663720 0.05975888
v 0.25632514 0.09576186 0.06012088
v 0.25632514 0.09813152 -0.00240048
v 0.25634403 0.09813152 -0.00241556
v 0.25984383 0.09386114 -0.00241556
v 0.26151580 0.08411994 0.05868794
v 0.26353256 0.08411994 0.15084850
v 0.27458929 0.10806030 0.13618727
v 0.27911401 0.13097526 0.15167809
v 0.26294217 0.13833431 0.15167809
v 0.26269185 0.13833431 0.14749995
v 0.25632514 0.09821905 0.05502264
v 0.26273200 0.13833431 -0.00241556
v 0.25632514 0.09823781 0.05039199
v 0.26267060 0.13833431 0.14285421
v 0.26101280 0.09416126 -0.00241556
v 0.26196213 0.08411994 0.05939687
v 0.26355853 0.08411994 0.14749995
v 0.27458929 0.10806030 0.13549344
v 0.27972094 0.13035003 0.05039199
v 0.27971621 0.13035628 0.11049997
v 0.27969967 0.13037504 0.14285421
v 0.27948005 0.13055010 0.14749995
v 0.27916125 0.13128163 0.15167809
v 0.26374982 0.14250464 0.15167809
v 0.26378288 0.14296107 0.14749995
v 0.26372149 0.14296107 0.14285421
v 0.26361048 0.14296107 0.04114576
v 0.26361758 0.14296107 0.03651511
v 0.26371912 0.14296107 -0.00241556
v 0.26197394 0.09494280 -0.00241556
v 0.26319486 0.08411994 0.06298676
v 0.26355853 0.08411994 0.07353017
v 0.26347116 0.08411994 0.06428394
v 0.27970440 0.13037504 -0.00241556
v 0.27971148 0.13036253 0.00876136
v 0.28044120 0.13370755 0.01339201
v 0.28044828 0.13370755 0.05039199
v 0.28044120 0.13370755 0.11049997
v 0.28043882 0.13370755 0.11511555
v 0.28044355 0.13370755 0.09662310
v 0.28040342 0.13370755 0.14285421
v 0.27995945 0.13370755 0.14749995
v 0.27920845 0.13335742 0.15167809
v 0.26385846 0.14296107 0.15167809
v 0.26469444 0.14527445 0.15167809
v 0.26471569 0.14564960 0.06428394
v 0.26468499 0.14565585 0.04114576
v 0.26468499 0.14565585 0.03651511
v 0.26479361 0.14554955 -0.00241556
v 0.26332473 0.09607449 -0.00241556
v 0.26523995 0.09838787 -0.00241556
v 0.28043174 0.13370755 -0.00241556
v 0.28043882 0.13370755 0.00876136
v 0.27997834 0.13833431 0.04114576
v 0.27989567 0.13833431 0.14285421
v 0.27954617 0.13833431 0.14749995
v 0.27891328 0.14074773 0.15000382
v 0.27902426 0.13833431 0.15048650
v 0.27910220 0.13465166 0.15167809
v 0.26480071 0.14552454 0.15167809
v 0.26731811 0.14704388 0.06428394
v 0.26504158 0.14566211 0.15167809
v 0.26731811 0.14691882 0.15167809
v 0.26731811 0.14705639 0.03651511
v 0.26731811 0.14695008 -0.00241556
v 0.27991929 0.13833431 -0.00241556
v 0.27925096 0.14176686 0.04114576
v 0.27918722 0.14149802 0.14285421
v 0.27906677 0.14116664 0.14749995
v 0.27800880 0.14252341 0.15167809
v 0.27803714 0.14244837 0.15167809
v 0.27867003 0.13930969 0.15167809
v 0.26777389 0.14703138 0.15167809
v 0.27193965 0.14796923 0.15167809
v 0.27193965 0.14798799 0.11511555
v 0.27193965 0.14799424 0.03188446
v 0.27193965 0.14798799 -0.00241556
v 0.27961938 0.13965982 -0.00241556
v 0.27919430 0.14152303 -0.00241556
v 0.27831108 0.14407400 0.04114576
v 0.27816231 0.14381139 0.14285421
v 0.27807730 0.14348002 0.14749995
v 0.27798518 0.14257968 0.15167809
v 0.27231513 0.14783168 0.15167809
v 0.27584799 0.14656870 0.14285421
v 0.27587161 0.14658745 0.11511555
v 0.27599914 0.14658120 0.04114576
v 0.27588342 0.14658745 -0.00241556
v 0.27819773 0.14383640 -0.00241556
v 0.27723422 0.14498685 -0.00241556
v 0.27576534 0.14657495 0.14749995
v 0.27565436 0.14656870 0.15167809
f 1 2 5
f 1 5 10
f 1 10 19
f 1 19 30
f 1 30 45
f 1 45 47
f 1 47 46
f 1 46 31
f 1 31 20
f 1 20 12
f 1 12 7
f 1 7 3
f 1 3 6
f 1 6 11
f 1 11 15
f 1 15 14
f 1 14 25
f 1 25 27
f 1 27 16
f 1 16 8
f 1 8 4
f 1 4 2
f 2 4 5
f 3 7 6
f 4 8 17
f 4 17 26
f 4 26 43
f 4 43 63
f 4 63 79
f 4 79 91
f 4 91 102
f 4 102 104
f 4 104 103
f 4 103 93
f 4 93 92
f 4 92 80
f 4 80 66
f 4 66 48
f 4 48 65
f 4 65 64
f 4 64 44
f 4 44 29
f 4 29 18
f 4 18 9
f 4 9 5
f 5 9 10
f 6 7 11
f 7 12 22
f 7 22 37
f 7 37 57
f 7 57 73
f 7 73 86
f 7 86 85
f 7 85 84
f 7 84 97
f 7 97 106
f 7 106 98
f 7 98 88
f 7 88 87
f 7 87 77
f 7 77 76
f 7 76 74
f 7 74 59
f 7 59 58
f 7 58 38
f 7 38 23
f 7 23 13
f 7 13 14
f 7 14 15
f 7 15 11
f 8 16 17
f 9 18 19
f 9 19 10
f 12 20 21
f 12 21 22
f 13 23 24
f 13 24 25
f 13 25 14
f 16 26 17
f 16 27 28
f 16 28 26
f 18 29 19
f 19 29 30
f 20 31 21
f 21 32 33
f 21 33 34
f 21 34 35
f 21 35 36
f 21 36 22
f 21 31 46
f 21 46 32
f 22 36 37
f 23 38 24
f 24 38 39
f 24 39 40
f 24 40 28
f 24 28 25
f 25 28 27
f 26 41 42
f 26 42 43
f 26 28 41
f 28 40 41
f 29 44 45
f 29 45 30
f 32 46 47
f 32 47 48
f 32 48 49
f 32 49 33
f 33 49 50
f 33 50 51
f 33 51 34
f 34 52 53
f 34 53 35
f 34 51 54
f 34 54 52
f 35 55 36
f 35 53 55
f 36 55 56
f 36 56 37
f 37 56 57
f 38 58 39
f 39 58 59
f 39 59 40
f 40 59 60
f 40 60 61
f 40 61 41
f 41 61 62
f 41 62 42
f 42 62 43
f 43 62 63
f 44 64 45
f 45 64 47
f 47 64 65
f 47 65 48
f 48 66 49
f 49 66 67
f 49 67 50
f 50 68 51
f 50 67 68
f 51 68 54
f 52 54 68
f 52 68 53
f 53 68 69
f 53 69 55
f 55 69 70
f 55 70 56
f 56 70 71
f 56 71 72
f 56 72 57
f 57 72 73
f 59 74 60
f 60 75 61
f 60 74 76
f 60 76 77
f 60 77 75
f 61 78 62
f 61 75 78
f 62 78 79
f 62 79 63
f 66 80 68
f 66 68 67
f 68 80 81
f 68 81 69
f 69 82 83
f 69 83 70
f 69 81 82
f 70 83 71
f 71 84 85
f 71 85 86
f 71 86 73
f 71 73 72
f 71 83 84
f 75 77 87
f 75 87 88
f 75 88 89
f 75 89 78
f 78 90 91
f 78 91 79
f 78 89 90
f 80 92 81
f 81 92 93
f 81 93 94
f 81 94 82
f 82 95 96
f 82 96 83
f 82 94 95
f 83 96 97
f 83 97 84
f 88 98 99
f 88 99 100
f 88 100 101
f 88 101 89
f 89 101 90
f 90 101 91
f 91 101 102
f 93 103 94
f 94 103 104
f 94 104 102
f 94 102 101
f 94 101 99
f 94 99 95
f 95 99 105
f 95 105 106
f 95 106 96
f 96 106 97
f 98 106 105
f 98 105 99
f 99 101 100

