v -0.22456674 -0.11589781 -0.07329958
v -0.22745212 -0.11588486 -0.07454357
v -0.23680857 -0.11588486 -0.07498065
v -0.24143310 -0.11588486 -0.07526644
v -0.22456674 -0.12066248 -0.07349290
v -0.22456674 -0.11588486 -0.07852770
v -0.23218403 -0.11588357 -0.08042732
v -0.24516820 -0.11588486 -0.07614059
v -0.24471300 -0.12528603 -0.07639275
v -0.24143310 -0.12528603 -0.07592204
v -0.22456674 -0.12125289 -0.07354333
v -0.22456674 -0.11588486 -0.08022559
v -0.24833838 -0.11588486 -0.08837038
v -0.24831505 -0.11588486 -0.08592442
v -0.24826835 -0.11588486 -0.08374743
v -0.24765206 -0.11588486 -0.07948592
v -0.24530828 -0.11588486 -0.07617421
v -0.23749722 -0.11588486 -0.15916868
v -0.24577050 -0.11588486 -0.15916868
v -0.24665291 -0.11588486 -0.15773976
v -0.24668793 -0.11588486 -0.15763890
v -0.24804658 -0.11588486 -0.15330175
v -0.24810027 -0.11588486 -0.15306638
v -0.24821233 -0.11588486 -0.15257047
v -0.24838974 -0.11588486 -0.15057001
v -0.24841308 -0.11588486 -0.14848548
v -0.24701008 -0.12066248 -0.07912449
v -0.24651285 -0.12528603 -0.07912449
v -0.24431615 -0.12811505 -0.07653564
v -0.22456674 -0.12528085 -0.07431662
v -0.24143310 -0.12861742 -0.07631710
v -0.22456674 -0.11967847 -0.15916868
v -0.24709646 -0.12528603 -0.08374743
v -0.24534563 -0.12297879 -0.15916868
v -0.24634476 -0.12066248 -0.15773976
v -0.24804425 -0.11638204 -0.15315044
v -0.24594092 -0.12528603 -0.15773976
v -0.24765906 -0.12066248 -0.15311683
v -0.24819599 -0.11747481 -0.14848548
v -0.24705211 -0.12528603 -0.15311683
v -0.24498380 -0.12861224 -0.07912449
v -0.22456674 -0.12657949 -0.07460241
v -0.24108293 -0.12891521 -0.07941027
v -0.23680857 -0.12887895 -0.07622465
v -0.22456674 -0.12586349 -0.15916868
v -0.24527092 -0.12871064 -0.08374743
v -0.24706845 -0.12528603 -0.14848548
v -0.24523124 -0.12881940 -0.15311683
v -0.24514486 -0.12528603 -0.15916868
v -0.24495111 -0.12680347 -0.15916868
v -0.24440485 -0.12838565 -0.15916868
v -0.24475268 -0.12872229 -0.15773976
v -0.22456674 -0.12899419 -0.07597248
v -0.24132104 -0.12911071 -0.15764732
v -0.23764197 -0.12862518 -0.15916868
v -0.22456674 -0.12899419 -0.07876306
v -0.24129069 -0.12902526 -0.15916868
f 1 2 3
f 1 3 4
f 1 4 5
f 1 5 11
f 1 11 30
f 1 30 42
f 1 42 53
f 1 53 56
f 1 56 45
f 1 45 32
f 1 32 12
f 1 12 6
f 1 6 2
f 2 6 7
f 2 7 3
f 3 7 4
f 4 7 8
f 4 8 9
f 4 9 10
f 4 10 5
f 5 10 11
f 6 12 7
f 7 13 14
f 7 14 15
f 7 15 16
f 7 16 17
f 7 17 8
f 7 12 18
f 7 18 19
f 7 19 20
f 7 20 21
f 7 21 22
f 7 22 23
f 7 23 24
f 7 24 25
f 7 25 26
f 7 26 13
f 8 17 9
f 9 16 27
f 9 27 28
f 9 28 29
f 9 29 10
f 9 17 16
f 10 29 11
f 11 29 31
f 11 31 30
f 12 32 18
f 13 33 14
f 13 26 33
f 14 33 15
f 15 33 28
f 15 28 16
f 16 28 27
f 18 32 45
f 18 45 55
f 18 55 57
f 18 57 51
f 18 51 50
f 18 50 49
f 18 49 34
f 18 34 19
f 19 34 20
f 20 35 21
f 20 34 35
f 21 35 22
f 22 36 23
f 22 35 37
f 22 37 36
f 23 36 24
f 24 36 38
f 24 38 25
f 25 39 26
f 25 38 40
f 25 40 39
f 26 39 33
f 28 41 29
f 28 33 41
f 29 41 31
f 30 31 42
f 31 41 43
f 31 43 44
f 31 44 42
f 33 46 41
f 33 39 47
f 33 47 48
f 33 48 46
f 34 49 35
f 35 49 37
f 36 37 38
f 37 49 50
f 37 50 51
f 37 51 52
f 37 52 40
f 37 40 38
f 39 40 47
f 40 48 47
f 40 52 48
f 41 46 43
f 42 44 53
f 43 53 44
f 43 46 54
f 43 54 53
f 45 56 55
f 46 48 54
f 48 52 54
f 51 57 52
f 52 57 54
f 53 54 56
f 54 57 55
f 54 55 56

