v 0.22574508 -0.11935141 0.16140978
v 0.21643749 -0.11935141 0.16142584
v 0.17020133 -0.11935239 0.16157030
v 0.22574508 -0.12522402 0.16120111
v 0.22574508 -0.11935141 0.06434415
v 0.20092255 -0.11935141 0.16140978
v 0.16688160 -0.11935239 0.16153820
v 0.16557154 -0.12528549 0.16129742
v 0.22574508 -0.12892069 0.16028617
v 0.22574508 -0.12066194 0.06468124
v 0.22571078 -0.11935141 -0.00048933
v 0.16225866 -0.11935239 0.16115296
v 0.16557154 -0.11935239 0.16152216
v 0.20092255 -0.11935141 0.15460379
v 0.15568093 -0.11935239 0.16010958
v 0.16094861 -0.12066194 0.16092823
v 0.15568093 -0.12066194 0.16009354
v 0.15568093 -0.12365079 0.15951567
v 0.16229983 -0.12842404 0.15975645
v 0.16557154 -0.12891771 0.16017379
v 0.17020133 -0.12898612 0.16027010
v 0.18869305 -0.12898017 0.16028617
v 0.22574508 -0.12896926 0.16027010
v 0.22574508 -0.12892069 0.07047596
v 0.22570393 -0.11935141 -0.00178953
v 0.15568093 -0.11953183 0.16010958
v 0.21943484 -0.11935141 -0.00241556
v 0.15568093 -0.11935239 0.15097607
v 0.15568093 -0.12515563 0.15675474
v 0.16148360 -0.12891573 0.15675474
v 0.16566757 -0.12921214 0.15664237
v 0.21643749 -0.12897719 0.16027010
v 0.17490657 -0.12947782 0.06879051
v 0.20719162 -0.12930037 0.07350977
v 0.22574508 -0.12896926 0.15771785
v 0.21181456 -0.12919528 0.06996230
v 0.17368568 -0.12869665 -0.00241556
v 0.22106042 -0.12459751 -0.00241556
v 0.22424297 -0.12372514 -0.00241556
v 0.22477797 -0.12246814 -0.00241556
v 0.22554617 -0.12066194 -0.00241556
v 0.22558732 -0.12066194 -0.00048933
v 0.22569020 -0.11935141 -0.00241556
v 0.15568093 -0.12037445 -0.00241556
v 0.15568093 -0.12526566 0.15609662
v 0.15568093 -0.12569887 0.15211575
v 0.15568093 -0.12833878 0.08229014
v 0.16082515 -0.12908327 0.07811665
v 0.16152477 -0.12893556 0.15211575
v 0.16601052 -0.12941238 0.07394317
v 0.17108614 -0.12869665 -0.00241556
v 0.15568093 -0.12506046 -0.00241556
v 0.15568093 -0.12833878 0.07954527
v 0.15568093 -0.12833779 0.06386260
f 1 2 3
f 1 3 4
f 1 4 9
f 1 9 23
f 1 23 35
f 1 35 24
f 1 24 10
f 1 10 5
f 1 5 11
f 1 11 25
f 1 25 43
f 1 43 27
f 1 27 14
f 1 14 6
f 1 6 2
f 2 6 3
f 3 6 7
f 3 7 8
f 3 8 4
f 4 8 9
f 5 10 11
f 6 12 13
f 6 13 7
f 6 14 28
f 6 28 15
f 6 15 12
f 7 13 8
f 8 13 12
f 8 12 16
f 8 16 17
f 8 17 18
f 8 18 19
f 8 19 20
f 8 20 21
f 8 21 22
f 8 22 9
f 9 22 23
f 10 24 11
f 11 24 25
f 12 15 26
f 12 26 16
f 14 27 28
f 15 28 44
f 15 44 52
f 15 52 54
f 15 54 53
f 15 53 47
f 15 47 46
f 15 46 45
f 15 45 29
f 15 29 18
f 15 18 17
f 15 17 26
f 16 26 17
f 18 29 19
f 19 29 30
f 19 30 20
f 20 30 31
f 20 31 21
f 21 31 32
f 21 32 22
f 22 32 23
f 23 32 31
f 23 31 33
f 23 33 34
f 23 34 35
f 24 34 36
f 24 36 37
f 24 37 38
f 24 38 39
f 24 39 40
f 24 40 41
f 24 41 42
f 24 42 25
f 24 35 34
f 25 42 41
f 25 41 43
f 27 43 41
f 27 41 40
f 27 40 39
f 27 39 38
f 27 38 37
f 27 37 51
f 27 51 52
f 27 52 44
f 27 44 28
f 29 45 30
f 30 45 46
f 30 46 47
f 30 47 48
f 30 48 49
f 30 49 31
f 31 49 48
f 31 48 50
f 31 50 33
f 33 50 51
f 33 51 37
f 33 37 34
f 34 37 36
f 47 53 48
f 48 53 54
f 48 54 51
f 48 51 50
f 51 54 52

