v -0.27264252 0.12141123 -0.16135240
v -0.27264252 0.12141123 -0.15917110
v -0.26101588 0.12141123 -0.17627407
v -0.27256533 0.11520757 -0.16135723
v -0.25906009 0.12141123 -0.15917110
v -0.27256533 0.11520757 -0.15917110
v -0.25934832 0.12141123 -0.17838299
v -0.27230284 0.11057321 -0.16099528
v -0.27249326 0.11390798 -0.15917110
v -0.27255503 0.11501140 -0.15917110
v -0.25855571 0.11981740 -0.17921063
v -0.25372285 0.01344789 -0.17040578
v -0.25309495 -0.03154705 -0.16480773
v -0.22006272 0.12141123 -0.17812480
v -0.22006272 -0.11967340 -0.15917110
v -0.25856085 0.12141123 -0.17925407
v -0.27230284 0.11057321 -0.15937378
v -0.24435566 -0.12526403 -0.16058991
v -0.24514827 -0.12526403 -0.15917110
v -0.25530807 0.12141123 -0.18089004
v -0.25530807 0.11981740 -0.18079352
v -0.25396475 0.08745048 -0.17938194
v -0.25367139 0.08281611 -0.17915512
v -0.25319788 0.03745336 -0.17409518
v -0.24422185 -0.10214130 -0.16506110
v -0.22006272 0.12141123 -0.18381453
v -0.22006272 -0.12582801 -0.15917110
v -0.24411376 -0.12808389 -0.16038722
v -0.24495784 -0.12678430 -0.15917110
v -0.24880250 0.12141123 -0.18331506
v -0.25068109 0.08745048 -0.18033747
v -0.25068109 0.08281611 -0.17999966
v -0.24845767 0.05675092 -0.17861464
v -0.24143742 -0.04201727 -0.17226617
v -0.23987279 -0.12526403 -0.16533135
v -0.24396964 -0.10501018 -0.16485600
v -0.22006272 -0.05589582 -0.17271015
v -0.23375837 0.12141123 -0.18381694
v -0.23764422 -0.12862334 -0.15917110
v -0.22006272 -0.12896661 -0.16334790
v -0.23956398 -0.12818198 -0.16504904
v -0.24123669 -0.12884402 -0.16210523
v -0.24440713 -0.12837813 -0.15917110
v -0.24605925 0.12141123 -0.18361184
v -0.23681044 -0.05128598 -0.17272220
v -0.23681044 -0.05589582 -0.17237233
v -0.23681044 -0.12526403 -0.16633755
v -0.22006272 -0.12526403 -0.16677671
v -0.22756161 -0.12526403 -0.16684667
v -0.22756161 -0.05589582 -0.17271015
v -0.23681044 0.12141123 -0.18381694
v -0.24129331 -0.12901566 -0.15917110
v -0.23639870 -0.12908923 -0.16195081
v -0.22006272 -0.12896661 -0.16588150
v -0.23681044 -0.12867238 -0.16545441
v -0.23218860 -0.12894210 -0.16575362
v -0.24314101 0.12141123 -0.18373490
v -0.23218860 -0.05589582 -0.17268601
v -0.23218860 -0.12526403 -0.16679601
v -0.22006272 -0.12756896 -0.16622415
v -0.22293464 -0.12894210 -0.16588150
v -0.22756161 -0.12894210 -0.16585497
v -0.24131904 0.12141123 -0.18379523
v -0.23838536 0.12141123 -0.18380971
f 1 2 5
f 1 5 14
f 1 14 26
f 1 26 38
f 1 38 51
f 1 51 64
f 1 64 63
f 1 63 57
f 1 57 44
f 1 44 30
f 1 30 20
f 1 20 16
f 1 16 7
f 1 7 3
f 1 3 4
f 1 4 6
f 1 6 2
f 2 6 10
f 2 10 9
f 2 9 19
f 2 19 29
f 2 29 43
f 2 43 52
f 2 52 39
f 2 39 27
f 2 27 15
f 2 15 5
f 3 7 4
f 4 8 9
f 4 9 10
f 4 10 6
f 4 7 11
f 4 11 12
f 4 12 13
f 4 13 8
f 5 15 14
f 7 16 11
f 8 17 9
f 8 13 18
f 8 18 19
f 8 19 17
f 9 17 19
f 11 16 20
f 11 20 21
f 11 21 22
f 11 22 23
f 11 23 24
f 11 24 12
f 12 25 13
f 12 24 25
f 13 25 18
f 14 15 27
f 14 27 40
f 14 40 54
f 14 54 60
f 14 60 48
f 14 48 37
f 14 37 26
f 18 25 28
f 18 28 29
f 18 29 19
f 20 30 22
f 20 22 21
f 22 30 23
f 23 30 31
f 23 31 32
f 23 32 33
f 23 33 34
f 23 34 35
f 23 35 25
f 23 25 24
f 25 35 36
f 25 36 28
f 26 37 38
f 27 39 40
f 28 35 41
f 28 41 42
f 28 42 43
f 28 43 29
f 28 36 35
f 30 44 45
f 30 45 33
f 30 33 32
f 30 32 31
f 33 45 46
f 33 46 34
f 34 46 47
f 34 47 35
f 35 47 41
f 37 48 49
f 37 49 50
f 37 50 51
f 37 51 38
f 39 52 40
f 40 52 53
f 40 53 54
f 41 55 42
f 41 47 55
f 42 55 56
f 42 56 53
f 42 53 52
f 42 52 43
f 44 57 58
f 44 58 45
f 45 58 46
f 46 58 59
f 46 59 47
f 47 59 55
f 48 60 49
f 49 60 54
f 49 54 61
f 49 61 62
f 49 62 59
f 49 59 58
f 49 58 50
f 50 58 63
f 50 63 64
f 50 64 51
f 53 56 54
f 54 56 62
f 54 62 61
f 55 59 56
f 56 59 62
f 57 63 58

