v -0.23680782 -0.12895374 0.07061093
v -0.21831027 -0.12895176 0.07039329
v -0.21809197 -0.12895176 0.07039329
v -0.23680782 -0.12895374 0.07309206
v -0.23682984 -0.12895176 0.07307755
v -0.23682984 -0.12893591 0.07061093
v -0.22139931 -0.12361110 -0.00241556
v -0.21959431 -0.12415387 -0.00241556
v -0.21831027 -0.12453818 -0.00241556
v -0.21809197 -0.12455799 -0.00241556
v -0.21809197 -0.12895176 0.07290343
v -0.23682984 -0.12520379 0.14578482
v -0.23682984 -0.11141235 0.06886978
v -0.22326484 -0.11603789 -0.00241556
v -0.22304105 -0.11796140 -0.00241556
v -0.22272554 -0.12065946 -0.00241556
v -0.21809197 -0.11611515 -0.00241556
v -0.21809197 -0.12500568 0.14581385
v -0.23680782 -0.12519784 0.14581385
v -0.23682984 -0.12030883 0.14581385
v -0.23682984 -0.10871626 0.07164110
v -0.23681699 -0.10871626 0.06872469
v -0.22331252 -0.10871626 -0.00241556
v -0.21893761 -0.10871626 -0.00241556
v -0.21893394 -0.10871626 0.00144398
v -0.21893027 -0.10871626 0.00607252
v -0.21888626 -0.10871626 0.06427026
v -0.21809197 -0.11607751 0.00877129
v -0.21809197 -0.12036034 0.14581385
v -0.23682984 -0.12021969 0.14581385
v -0.23682984 -0.10871626 0.07367244
v -0.21809197 -0.11606760 0.06431379
v -0.21809197 -0.11606562 0.06427026
v -0.21809197 -0.11606165 0.03651352
v -0.21900182 -0.10871626 0.06620003
v -0.22755721 -0.10871626 0.07373047
v -0.21923294 -0.10871626 0.06888430
v -0.22012810 -0.10871626 0.07178620
v -0.22135528 -0.10871626 0.07238109
v -0.22293466 -0.10871626 0.07309206
f 1 2 3
f 1 3 11
f 1 11 4
f 1 4 5
f 1 5 6
f 1 6 7
f 1 7 8
f 1 8 9
f 1 9 10
f 1 10 2
f 2 10 3
f 3 10 17
f 3 17 28
f 3 28 34
f 3 34 33
f 3 33 32
f 3 32 29
f 3 29 18
f 3 18 11
f 4 11 12
f 4 12 5
f 5 12 20
f 5 20 30
f 5 30 31
f 5 31 21
f 5 21 13
f 5 13 6
f 6 13 14
f 6 14 15
f 6 15 16
f 6 16 7
f 7 16 15
f 7 15 14
f 7 14 23
f 7 23 24
f 7 24 17
f 7 17 10
f 7 10 9
f 7 9 8
f 11 18 12
f 12 18 19
f 12 19 20
f 13 21 22
f 13 22 23
f 13 23 14
f 17 24 25
f 17 25 26
f 17 26 27
f 17 27 28
f 18 29 30
f 18 30 20
f 18 20 19
f 21 31 36
f 21 36 40
f 21 40 39
f 21 39 38
f 21 38 37
f 21 37 35
f 21 35 27
f 21 27 26
f 21 26 25
f 21 25 24
f 21 24 23
f 21 23 22
f 27 32 33
f 27 33 34
f 27 34 28
f 27 35 29
f 27 29 32
f 29 36 30
f 29 35 37
f 29 37 38
f 29 38 39
f 29 39 40
f 29 40 36
f 30 36 31

