v 0.00220985 -0.12037414 -0.00242826
v 0.00090018 -0.11993657 0.14894372
v 0.00220985 -0.12506050 -0.00242826
v 0.00220985 -0.11616047 -0.15916866
v -0.21808121 -0.11606594 0.06425503
v -0.21808121 -0.11606729 0.06428518
v -0.15355217 -0.11991901 0.14894372
v 0.00090018 -0.12499972 0.14894372
v 0.00090018 -0.12860565 0.08153659
v 0.00220985 -0.12873395 -0.08361840
v 0.00220985 -0.12467154 -0.15916866
v -0.01022092 -0.11612671 -0.15916866
v -0.21812560 -0.11588362 -0.00242826
v -0.22325329 -0.11588362 -0.00242826
v -0.21808121 -0.12029176 0.14894372
v -0.15805833 -0.12888116 0.14894372
v -0.15814712 -0.12897705 0.14749604
v -0.00558157 -0.12966988 0.07809837
v 0.00090018 -0.12874071 0.07800789
v -0.00558157 -0.12930928 -0.08370889
v 0.00220985 -0.12870019 -0.08473432
v 0.00220985 -0.12492950 -0.15772099
v -0.16212053 -0.12903242 -0.15916866
v -0.01397234 -0.11612131 -0.15916866
v -0.21810340 -0.11588362 -0.02360043
v -0.22456295 -0.11588362 -0.07852140
v -0.22456295 -0.11589847 -0.07333392
v -0.22325329 -0.11603757 -0.00242826
v -0.21808121 -0.12505915 0.14894372
v -0.16165436 -0.12888251 0.14894372
v -0.21808121 -0.12895139 0.07288072
v -0.20902450 -0.12907699 0.07312201
v -0.15814712 -0.12956723 0.08274298
v -0.16727042 -0.12958209 0.06871867
v -0.15816931 -0.12968068 -0.08370889
v -0.15816931 -0.12965232 -0.08832333
v 0.00220985 -0.12858539 -0.08711694
v -0.22456295 -0.12586002 -0.15916866
v -0.20904669 -0.12922825 -0.07891348
v -0.21828098 -0.12913506 -0.07876268
v -0.22292032 -0.12904187 -0.07876268
v -0.22456295 -0.12899191 -0.07876268
v -0.14893503 -0.11604973 -0.15916866
v -0.22305350 -0.11588362 -0.08002939
v -0.21972382 -0.11588362 -0.07788805
v -0.21848075 -0.11588362 -0.07451015
v -0.21810340 -0.11588362 -0.06986554
v -0.22456295 -0.11588362 -0.08021035
v -0.22456295 -0.11603757 -0.07333392
v -0.22456295 -0.12066180 -0.07351487
v -0.22456295 -0.12125469 -0.07354504
v -0.22456295 -0.12527928 -0.07432920
v -0.22456295 -0.12657850 -0.07460063
v -0.22456295 -0.12899191 -0.07598798
v -0.22292032 -0.12904187 -0.07583718
v -0.21828098 -0.12913506 -0.07562606
v -0.20904669 -0.12922825 -0.07535462
v -0.22456295 -0.11968132 -0.15916866
v -0.15355217 -0.11612671 -0.15916866
f 1 2 8
f 1 8 3
f 1 3 10
f 1 10 21
f 1 21 37
f 1 37 22
f 1 22 11
f 1 11 4
f 1 4 2
f 2 5 6
f 2 6 7
f 2 7 15
f 2 15 29
f 2 29 30
f 2 30 16
f 2 16 8
f 2 4 5
f 3 8 9
f 3 9 10
f 4 11 23
f 4 23 38
f 4 38 58
f 4 58 59
f 4 59 43
f 4 43 24
f 4 24 12
f 4 12 13
f 4 13 5
f 5 13 14
f 5 14 6
f 6 15 7
f 6 14 15
f 8 16 17
f 8 17 18
f 8 18 9
f 9 18 19
f 9 19 10
f 10 20 21
f 10 19 18
f 10 18 20
f 11 22 23
f 12 24 13
f 13 24 25
f 13 25 47
f 13 47 46
f 13 46 45
f 13 45 44
f 13 44 48
f 13 48 26
f 13 26 14
f 14 26 27
f 14 27 49
f 14 49 28
f 14 28 29
f 14 29 15
f 16 30 17
f 17 30 31
f 17 31 32
f 17 32 33
f 17 33 18
f 18 33 34
f 18 34 35
f 18 35 20
f 20 35 36
f 20 36 23
f 20 23 22
f 20 22 37
f 20 37 21
f 23 36 39
f 23 39 40
f 23 40 41
f 23 41 42
f 23 42 38
f 24 43 44
f 24 44 45
f 24 45 46
f 24 46 47
f 24 47 25
f 26 48 58
f 26 58 38
f 26 38 42
f 26 42 54
f 26 54 53
f 26 53 52
f 26 52 51
f 26 51 50
f 26 50 49
f 26 49 27
f 28 49 50
f 28 50 51
f 28 51 52
f 28 52 53
f 28 53 54
f 28 54 29
f 29 31 30
f 29 54 31
f 31 54 55
f 31 55 56
f 31 56 32
f 32 34 33
f 32 56 34
f 34 56 57
f 34 57 35
f 35 57 39
f 35 39 36
f 39 57 56
f 39 56 40
f 40 56 55
f 40 55 41
f 41 55 54
f 41 54 42
f 43 59 48
f 43 48 44
f 48 59 58

