v 0.24477622 -0.11540457 -0.07539184
v 0.22600475 -0.11540457 -0.00241556
v 0.22600005 -0.11603658 -0.00241556
v 0.24477622 -0.11603658 -0.07542088
v 0.24477622 -0.11540457 -0.08699082
v 0.22091301 -0.11540457 -0.00241556
v 0.22575803 -0.11873755 -0.00241556
v 0.24477622 -0.13162166 -0.07633544
v 0.24477622 -0.11556945 -0.15071986
v 0.22569223 -0.11540457 -0.07960173
v 0.22077204 -0.11616105 -0.00241556
v 0.22089892 -0.11540457 -0.00449148
v 0.22555596 -0.12066264 -0.00241556
v 0.24477622 -0.13191583 -0.07851297
v 0.22478526 -0.12246813 -0.00241556
v 0.22424719 -0.12372405 -0.00241556
v 0.22106809 -0.12459690 -0.00241556
v 0.24477622 -0.12799936 -0.15071986
v 0.22077204 -0.12036523 -0.15071986
v 0.22120674 -0.11540457 -0.07450632
v 0.22242385 -0.11540457 -0.07797584
v 0.22530220 -0.11540457 -0.07941301
v 0.22077204 -0.12461468 -0.00241556
v 0.22089657 -0.11540457 -0.00513021
v 0.22077204 -0.11611094 -0.00513021
v 0.22077204 -0.12900959 -0.07584186
v 0.22077204 -0.12899505 -0.07862910
v 0.22077204 -0.12501877 -0.15071986
v 0.22077204 -0.11620792 -0.07012222
v 0.22092477 -0.11540457 -0.06987544
v 0.22115268 -0.11540457 -0.07386757
v 0.22089657 -0.11540457 -0.00974658
v 0.22077204 -0.11611094 -0.00523184
v 0.22077204 -0.11619983 -0.06987544
v 0.22091066 -0.11540457 -0.06462033
v 0.22077204 -0.11615296 -0.06541876
f 1 2 3
f 1 3 4
f 1 4 8
f 1 8 14
f 1 14 18
f 1 18 9
f 1 9 5
f 1 5 10
f 1 10 22
f 1 22 21
f 1 21 20
f 1 20 31
f 1 31 30
f 1 30 35
f 1 35 32
f 1 32 24
f 1 24 12
f 1 12 6
f 1 6 2
f 2 6 11
f 2 11 23
f 2 23 17
f 2 17 16
f 2 16 15
f 2 15 13
f 2 13 7
f 2 7 3
f 3 7 8
f 3 8 4
f 5 9 10
f 6 12 11
f 7 13 8
f 8 13 15
f 8 15 16
f 8 16 17
f 8 17 14
f 9 18 28
f 9 28 19
f 9 19 20
f 9 20 21
f 9 21 22
f 9 22 10
f 11 12 24
f 11 24 25
f 11 25 33
f 11 33 36
f 11 36 34
f 11 34 29
f 11 29 19
f 11 19 28
f 11 28 27
f 11 27 26
f 11 26 23
f 14 17 23
f 14 23 26
f 14 26 27
f 14 27 18
f 18 27 28
f 19 29 30
f 19 30 31
f 19 31 20
f 24 32 33
f 24 33 25
f 29 34 30
f 30 34 35
f 32 35 36
f 32 36 33
f 34 36 35

