v 0.24282900 -0.11908689 -0.15071986
v 0.22077204 -0.12036258 -0.15071986
v 0.24282900 -0.12633097 -0.15071986
v 0.24282900 0.10354283 -0.17714806
v 0.22077204 0.10354283 -0.17724713
v 0.22077204 -0.12500971 -0.15071986
v 0.24282900 -0.12895067 -0.15814510
v 0.24282900 0.10354283 -0.18139063
v 0.22077204 0.10354283 -0.18139362
v 0.22077204 -0.12895067 -0.16334847
v 0.24282900 -0.12913291 -0.15875461
v 0.23031725 0.10354283 -0.18139362
v 0.24282900 0.09670881 -0.18122848
v 0.23956450 0.09208446 -0.18115041
v 0.22077204 0.09208446 -0.18115041
v 0.22077204 -0.12895067 -0.16588259
v 0.23924065 -0.12917848 -0.16203637
v 0.24282900 -0.12897345 -0.16209942
v 0.24282900 0.09208446 -0.18111138
v 0.22077204 0.08775624 -0.18104533
v 0.23956450 0.08746010 -0.18101831
v 0.23493979 0.08746010 -0.18103333
v 0.23031725 0.08746010 -0.18103632
v 0.23031725 -0.12899624 -0.16587058
v 0.22077204 -0.12872288 -0.16593964
v 0.23031725 -0.12528307 -0.16685541
v 0.23493979 -0.12901901 -0.16575950
v 0.24282900 -0.12888233 -0.16298516
v 0.24282900 0.08746010 -0.18092523
v 0.22077204 0.08746010 -0.18103632
v 0.23956450 0.08283575 -0.18081714
v 0.23493979 0.08283575 -0.18083815
v 0.23031725 0.08283575 -0.18084716
v 0.23493979 -0.12528307 -0.16680436
v 0.22077204 -0.12528307 -0.16677434
v 0.23031725 -0.05589495 -0.17271033
v 0.23493979 -0.05589495 -0.17268330
v 0.22077204 -0.05589495 -0.17271033
v 0.23956450 -0.12876843 -0.16542922
v 0.24230434 -0.12822171 -0.16502388
v 0.24282900 -0.12842672 -0.16412012
v 0.24282900 0.07493106 -0.18033673
v 0.22077204 0.08283575 -0.18084716
v 0.23956450 0.07821139 -0.18057994
v 0.24282900 0.07030669 -0.18011755
v 0.23031725 0.07821139 -0.18058295
v 0.22077204 0.07850753 -0.18060096
v 0.23956450 -0.12528307 -0.16628194
v 0.23956450 -0.05589495 -0.17238005
v 0.23956450 -0.05127060 -0.17269231
v 0.24282900 0.06896267 -0.18003647
v 0.24261956 -0.12528307 -0.16529410
v 0.24282900 -0.12528307 -0.16508392
v 0.24282900 -0.04202188 -0.17216688
v 0.24282900 -0.05589495 -0.17109197
v 0.24282900 0.06568234 -0.17981730
v 0.24282900 0.05037413 -0.17873340
f 1 2 6
f 1 6 3
f 1 3 7
f 1 7 11
f 1 11 18
f 1 18 28
f 1 28 41
f 1 41 53
f 1 53 55
f 1 55 54
f 1 54 57
f 1 57 56
f 1 56 51
f 1 51 45
f 1 45 42
f 1 42 29
f 1 29 19
f 1 19 13
f 1 13 8
f 1 8 4
f 1 4 5
f 1 5 2
f 2 5 9
f 2 9 15
f 2 15 20
f 2 20 30
f 2 30 43
f 2 43 47
f 2 47 38
f 2 38 35
f 2 35 25
f 2 25 16
f 2 16 10
f 2 10 6
f 3 6 7
f 4 8 12
f 4 12 9
f 4 9 5
f 6 10 7
f 7 10 11
f 8 13 14
f 8 14 12
f 9 12 14
f 9 14 15
f 10 16 17
f 10 17 11
f 11 17 18
f 13 19 14
f 14 20 15
f 14 19 21
f 14 21 22
f 14 22 23
f 14 23 20
f 16 24 17
f 16 25 26
f 16 26 24
f 17 24 27
f 17 27 28
f 17 28 18
f 19 29 21
f 20 23 30
f 21 29 31
f 21 31 32
f 21 32 22
f 22 32 33
f 22 33 23
f 23 33 43
f 23 43 30
f 24 26 34
f 24 34 27
f 25 35 26
f 26 36 37
f 26 37 34
f 26 35 38
f 26 38 36
f 27 39 28
f 27 34 39
f 28 39 40
f 28 40 41
f 29 42 31
f 31 44 32
f 31 42 45
f 31 45 44
f 32 44 33
f 33 44 46
f 33 46 47
f 33 47 43
f 34 48 39
f 34 37 49
f 34 49 48
f 36 47 46
f 36 46 45
f 36 45 37
f 36 38 47
f 37 50 49
f 37 45 51
f 37 51 50
f 39 48 40
f 40 48 52
f 40 52 53
f 40 53 41
f 44 45 46
f 48 49 52
f 49 54 55
f 49 55 52
f 49 50 56
f 49 56 57
f 49 57 54
f 50 51 56
f 52 55 53

