v -0.03268546 0.05384758 -0.18239556
v -0.03268546 0.05137842 -0.18039586
v -0.16749051 0.04773639 -0.17470446
v -0.17360397 0.05993336 -0.17479676
v -0.17360397 0.06601913 -0.17482752
v -0.17360397 0.07209764 -0.17482752
v -0.16745617 0.07818342 -0.17510441
v -0.16745617 0.08218129 -0.17427376
v -0.11233206 0.08426918 -0.17470446
v 0.07752840 0.08426918 -0.17470446
v 0.16943625 0.07818342 -0.17510441
v 0.17554971 0.05384758 -0.17488904
v 0.16943625 0.04773639 -0.17470446
v -0.17078766 0.04773639 -0.17427376
v -0.17360397 0.05639664 -0.17427376
v -0.17411914 0.05993336 -0.17427376
v -0.17415349 0.06601913 -0.17427376
v -0.17415349 0.07209764 -0.17427376
v -0.17360397 0.07818342 -0.17476599
v -0.17360397 0.08035845 -0.17427376
v -0.16745617 0.08426918 -0.17165879
v -0.11233206 0.08467587 -0.17427376
v 0.07752840 0.08467223 -0.17427376
v 0.16332280 0.08225027 -0.17427376
v 0.16943625 0.08190168 -0.17427376
v 0.17554971 0.07818342 -0.17482752
v 0.17554971 0.07209764 -0.17485829
v 0.17616791 0.05384758 -0.17427376
v 0.17554971 0.05146919 -0.17427376
v 0.17129090 0.04773639 -0.17427376
v -0.17360397 0.04773639 -0.17184338
v -0.17411914 0.04773639 -0.16815165
v -0.17429087 0.05384758 -0.16815165
v -0.17442824 0.05993336 -0.16815165
v -0.17408479 0.07818342 -0.17427376
v -0.17442824 0.07818342 -0.16815165
v -0.17360397 0.08426918 -0.16507521
v -0.17078766 0.08426918 -0.16815165
v -0.17408479 0.08426918 -0.16202954
v -0.16745617 0.08482838 -0.16815165
v 0.16943625 0.08482838 -0.16815165
v 0.16332280 0.08426918 -0.17172032
v 0.16943625 0.08426918 -0.17135115
v 0.17554971 0.08005345 -0.17427376
v 0.17609923 0.07818342 -0.17427376
v 0.17613358 0.07209764 -0.17427376
v 0.17637399 0.07818342 -0.16815165
v 0.17637399 0.05993336 -0.16815165
v 0.17623661 0.05384758 -0.16815165
v 0.17596185 0.04773639 -0.16202954
v 0.17513756 0.04773639 -0.16815165
v 0.17132524 0.04773639 -0.17424300
v -0.17411914 0.04773639 -0.14366320
v -0.17432521 0.05384758 -0.16202954
v -0.17446259 0.05993336 -0.11302190
v -0.17446259 0.07209764 -0.14978531
v -0.17442824 0.07830324 0.13189327
v -0.17360397 0.08473397 -0.16202954
v -0.17408479 0.08426918 0.12586345
v -0.17360397 0.08474123 -0.14978531
v -0.16759355 0.08482838 0.13189327
v 0.16943625 0.08482838 0.13189327
v 0.17290512 0.08428007 0.13189327
v 0.17297382 0.08426918 -0.16202954
v 0.17287078 0.08426918 -0.16815165
v 0.17554971 0.08213770 -0.16815165
v 0.17637399 0.07826329 0.13189327
v 0.17640833 0.07209764 -0.14978531
v 0.17554971 0.08222848 -0.16202954
v 0.17554971 0.08223575 -0.14978531
v 0.17640833 0.06601913 -0.14978531
v 0.17640833 0.05993336 -0.13138822
v 0.17630530 0.05384758 -0.15590744
v 0.17596185 0.04773639 -0.14978531
v -0.17415349 0.05383669 0.13189327
v -0.17418784 0.05384758 0.11974134
v -0.17446259 0.05993336 0.09525292
v -0.17432521 0.05384758 -0.14366320
v -0.17360397 0.04773639 -0.14292486
v -0.16745617 0.05271831 0.13189327
v -0.16759355 0.05272920 0.13189327
v -0.17360397 0.05325571 0.13189327
v -0.17446259 0.07209764 0.09525292
v -0.17442824 0.05993336 0.13189327
v -0.17360397 0.08214860 0.13189327
v -0.17360397 0.08426918 0.12890914
v -0.17360397 0.08473760 0.12586345
v -0.17360397 0.08474123 0.09525292
v -0.17089069 0.08426918 0.13189327
v 0.17297382 0.08426918 0.13189327
v 0.17554971 0.08224301 0.00948184
v 0.17554971 0.08223938 -0.11302190
v 0.17637399 0.05993336 0.13189327
v 0.17640833 0.07209764 0.10749713
v 0.17554971 0.08223938 0.09525292
v 0.17554971 0.08222123 0.13189327
v 0.17640833 0.05993336 -0.00891526
v 0.17630530 0.05384758 -0.14978531
v 0.17554971 0.05313951 0.13189327
v 0.17554971 0.04773639 -0.14713957
v 0.17623661 0.05384758 0.13189327
v -0.16749051 0.04773639 -0.14154047
v -0.16134271 0.05270378 0.13189327
v 0.17640833 0.06601913 0.10749713
v 0.17544667 0.05312862 0.13189327
v 0.16943625 0.05271467 0.13189327
v 0.17424459 0.04773639 -0.14366320
v -0.16137706 0.04773639 -0.14144817
v 0.16332280 0.05270378 0.13189327
v 0.16943625 0.04773639 -0.14150970
v -0.16134271 0.04773639 -0.14144817
v 0.16332280 0.04773639 -0.14147894
f 1 2 3
f 1 3 4
f 1 4 5
f 1 5 6
f 1 6 7
f 1 7 8
f 1 8 9
f 1 9 10
f 1 10 11
f 1 11 12
f 1 12 13
f 1 13 2
f 2 13 3
f 3 14 4
f 3 13 30
f 3 30 52
f 3 52 51
f 3 51 50
f 3 50 74
f 3 74 100
f 3 100 107
f 3 107 110
f 3 110 112
f 3 112 111
f 3 111 108
f 3 108 102
f 3 102 79
f 3 79 53
f 3 53 32
f 3 32 31
f 3 31 14
f 4 14 15
f 4 15 16
f 4 16 17
f 4 17 5
f 5 17 18
f 5 18 6
f 6 18 19
f 6 19 7
f 7 19 8
f 8 19 20
f 8 20 21
f 8 21 22
f 8 22 9
f 9 22 10
f 10 23 24
f 10 24 11
f 10 22 23
f 11 24 25
f 11 25 26
f 11 26 27
f 11 27 12
f 12 27 28
f 12 28 29
f 12 29 13
f 13 29 30
f 14 31 15
f 15 31 16
f 16 32 33
f 16 33 34
f 16 34 17
f 16 31 32
f 17 34 36
f 17 36 18
f 18 35 19
f 18 36 35
f 19 35 20
f 20 37 38
f 20 38 21
f 20 35 39
f 20 39 37
f 21 38 40
f 21 40 22
f 22 40 41
f 22 41 23
f 23 41 42
f 23 42 24
f 24 42 43
f 24 43 25
f 25 43 44
f 25 44 26
f 26 44 45
f 26 45 46
f 26 46 27
f 27 46 28
f 28 46 47
f 28 47 48
f 28 48 49
f 28 49 50
f 28 50 29
f 29 51 52
f 29 52 30
f 29 50 51
f 32 53 78
f 32 78 54
f 32 54 33
f 33 54 34
f 34 55 56
f 34 56 36
f 34 54 55
f 35 36 39
f 36 56 57
f 36 57 39
f 37 58 40
f 37 40 38
f 37 39 58
f 39 59 88
f 39 88 60
f 39 60 58
f 39 57 59
f 40 58 60
f 40 60 61
f 40 61 62
f 40 62 41
f 41 62 63
f 41 63 64
f 41 64 65
f 41 65 43
f 41 43 42
f 43 65 44
f 44 66 45
f 44 65 66
f 45 66 47
f 45 47 46
f 47 67 68
f 47 68 71
f 47 71 48
f 47 66 69
f 47 69 70
f 47 70 67
f 48 71 72
f 48 72 73
f 48 73 49
f 49 73 50
f 50 73 98
f 50 98 74
f 53 75 76
f 53 76 77
f 53 77 78
f 53 79 80
f 53 80 81
f 53 81 82
f 53 82 75
f 54 78 77
f 54 77 55
f 55 77 83
f 55 83 56
f 56 83 57
f 57 83 77
f 57 77 84
f 57 84 75
f 57 75 82
f 57 82 81
f 57 81 80
f 57 80 103
f 57 103 109
f 57 109 106
f 57 106 105
f 57 105 99
f 57 99 101
f 57 101 93
f 57 93 67
f 57 67 96
f 57 96 90
f 57 90 63
f 57 63 62
f 57 62 61
f 57 61 89
f 57 89 85
f 57 85 59
f 59 85 86
f 59 86 87
f 59 87 88
f 60 88 61
f 61 88 87
f 61 87 86
f 61 86 89
f 63 90 64
f 64 90 91
f 64 91 92
f 64 92 70
f 64 70 69
f 64 69 65
f 65 69 66
f 67 93 104
f 67 104 94
f 67 94 68
f 67 70 92
f 67 92 91
f 67 91 95
f 67 95 96
f 68 94 104
f 68 104 97
f 68 97 72
f 68 72 71
f 72 97 98
f 72 98 73
f 74 99 100
f 74 98 101
f 74 101 99
f 75 84 76
f 76 84 77
f 79 102 80
f 80 102 103
f 85 89 86
f 90 96 95
f 90 95 91
f 93 101 97
f 93 97 104
f 97 101 98
f 99 105 100
f 100 105 106
f 100 106 107
f 102 108 103
f 103 108 111
f 103 111 109
f 106 109 110
f 106 110 107
f 109 111 112
f 109 112 110

