v -0.17414923 -0.25649204 -0.16816740
v -0.17361403 -0.25649204 -0.17186020
v -0.17403828 -0.26257784 -0.16816740
v -0.17414923 -0.25649204 -0.14366801
v -0.17414923 0.04773639 -0.16816740
v -0.17081075 -0.25649204 -0.17429388
v -0.17019396 -0.26257784 -0.17429388
v -0.17361403 -0.26257784 -0.17107610
v -0.17361403 0.04165061 -0.17186020
v -0.17361403 -0.26300383 -0.16816740
v -0.17403828 -0.26257784 -0.14366801
v -0.17361403 -0.26257784 -0.14312466
v -0.17361403 -0.25649204 -0.14298801
v -0.17361403 0.04773639 -0.14294246
v -0.17414923 0.04773639 -0.14366801
v -0.17361403 0.04773639 -0.17184393
v -0.16748532 -0.25649204 -0.17470708
v -0.16748532 -0.26257784 -0.17466153
v -0.17081075 0.04773639 -0.17429388
v -0.16749838 0.04773639 -0.17470708
v -0.16748532 -0.26297341 -0.17429388
v -0.17360098 0.04773639 -0.17186996
v -0.17361403 -0.26300383 -0.14366801
v -0.16748532 -0.26312554 -0.16816740
v -0.16748532 -0.26257784 -0.14299777
v -0.16748532 -0.25649204 -0.14201195
v -0.16748532 -0.26312554 -0.14366801
v -0.16748532 -0.19563418 -0.14190132
v -0.16751144 0.04773639 -0.14154993
v -0.14298681 -0.25649204 -0.17470708
v -0.14298681 -0.26257784 -0.17466153
v -0.14298681 0.04773639 -0.17470708
v -0.14298681 -0.26297341 -0.17429388
v -0.14911225 -0.26312554 -0.16816740
v -0.14911225 -0.26257784 -0.14299777
v -0.14911225 -0.25649204 -0.14201195
v -0.16135988 -0.19563418 -0.14184276
v -0.14911225 -0.26312554 -0.14366801
v -0.16135988 0.04773639 -0.14147184
v -0.16748532 0.04773639 -0.14154668
v -0.14246140 -0.25649204 -0.17429388
v -0.14241245 0.04773639 -0.17429713
v -0.14252340 -0.26257784 -0.17429388
v -0.14298681 -0.26309511 -0.16816740
v -0.14235697 -0.26257784 -0.16816740
v -0.14298681 -0.26257784 -0.14301729
v -0.14298681 -0.25649204 -0.14243490
v -0.14911225 -0.19563418 -0.14184276
v -0.14298681 -0.26309511 -0.14366801
v -0.14911225 0.04773639 -0.14150764
v -0.14125393 -0.19563418 -0.16816740
v -0.14151827 -0.25649204 -0.16816740
v -0.14240592 0.04773639 -0.17427110
v -0.14092432 0.04773639 -0.16816740
v -0.14235697 -0.26257784 -0.14366801
v -0.14179239 -0.25649204 -0.14366801
v -0.14139752 0.04773639 -0.14366801
v -0.14298681 0.04773639 -0.14207376
v -0.14300965 0.04773639 -0.14207050
v -0.14118866 -0.19563418 -0.16204092
v -0.14092106 0.04773639 -0.16814463
v -0.14081337 0.04773639 -0.16204092
v -0.14151827 -0.25649204 -0.14979448
v -0.14118866 -0.19563418 -0.14979448
v -0.14086558 0.04773639 -0.14979448
v -0.14081337 0.04773639 -0.16201815
f 1 2 3
f 1 3 11
f 1 11 4
f 1 4 15
f 1 15 5
f 1 5 9
f 1 9 2
f 2 6 7
f 2 7 8
f 2 8 3
f 2 9 19
f 2 19 6
f 3 10 23
f 3 23 11
f 3 8 10
f 4 11 12
f 4 12 13
f 4 13 14
f 4 14 15
f 5 15 14
f 5 14 29
f 5 29 40
f 5 40 39
f 5 39 50
f 5 50 59
f 5 59 58
f 5 58 57
f 5 57 65
f 5 65 66
f 5 66 62
f 5 62 61
f 5 61 54
f 5 54 53
f 5 53 42
f 5 42 32
f 5 32 20
f 5 20 19
f 5 19 22
f 5 22 16
f 5 16 9
f 6 17 18
f 6 18 7
f 6 19 20
f 6 20 17
f 7 18 21
f 7 21 8
f 8 21 10
f 9 16 22
f 9 22 19
f 10 21 24
f 10 24 27
f 10 27 23
f 11 23 12
f 12 25 26
f 12 26 13
f 12 23 27
f 12 27 25
f 13 26 28
f 13 28 29
f 13 29 14
f 17 30 31
f 17 31 18
f 17 20 32
f 17 32 30
f 18 31 33
f 18 33 21
f 21 33 34
f 21 34 24
f 24 34 38
f 24 38 27
f 25 27 38
f 25 38 35
f 25 35 36
f 25 36 26
f 26 36 48
f 26 48 37
f 26 37 28
f 28 37 39
f 28 39 40
f 28 40 29
f 30 41 31
f 30 32 42
f 30 42 41
f 31 43 33
f 31 41 43
f 33 44 34
f 33 43 45
f 33 45 44
f 34 44 49
f 34 49 38
f 35 38 46
f 35 46 36
f 36 46 47
f 36 47 48
f 37 48 39
f 38 49 46
f 39 48 50
f 41 51 52
f 41 52 43
f 41 42 53
f 41 53 54
f 41 54 51
f 43 52 45
f 44 45 55
f 44 55 49
f 45 52 63
f 45 63 55
f 46 49 55
f 46 55 56
f 46 56 47
f 47 56 57
f 47 57 58
f 47 58 59
f 47 59 50
f 47 50 48
f 51 60 52
f 51 54 61
f 51 61 62
f 51 62 60
f 52 60 64
f 52 64 63
f 55 63 56
f 56 63 64
f 56 64 65
f 56 65 57
f 60 62 66
f 60 66 64
f 64 66 65

