v 0.14230653 0.04767914 0.16876780
v 0.14494674 0.04767914 0.17394957
v 0.14231642 0.04767914 0.15039282
v 0.14233289 -0.25649326 0.15039282
v 0.14233289 -0.25649326 0.16876780
v 0.14494674 -0.25649326 0.17394308
v 0.14815388 0.04767914 0.17489496
v 0.14817035 -0.19564662 0.17489496
v 0.14288005 0.04767914 0.14426565
v 0.14291632 -0.25649326 0.14426565
v 0.14412270 -0.26257792 0.14426565
v 0.14412270 -0.26257792 0.16876780
v 0.14494674 -0.26257792 0.17193209
v 0.15107425 -0.25649326 0.17441739
v 0.15107425 -0.19564662 0.17530755
v 0.15107425 0.04767914 0.17530755
v 0.14492036 0.04767914 0.14238462
v 0.14494674 -0.25649326 0.14246584
v 0.14494674 -0.26257792 0.14355743
v 0.14494674 -0.26312555 0.14426565
v 0.14494674 -0.26312555 0.16876780
v 0.16945022 -0.26257792 0.17193209
v 0.16332270 -0.25649326 0.17441739
v 0.16332270 -0.19564662 0.17530755
v 0.16332270 0.04767914 0.17530755
v 0.14494674 0.04767914 0.14236188
v 0.15107425 -0.25649326 0.14232290
v 0.15099515 0.04767914 0.14212472
v 0.16945022 -0.26257792 0.14355743
v 0.16945022 -0.26312555 0.14426565
v 0.16945022 -0.26312555 0.16876780
v 0.17159601 -0.26257792 0.16876780
v 0.17459219 -0.25649326 0.16876780
v 0.16945022 -0.25649326 0.17436216
v 0.16654962 -0.19564662 0.17489496
v 0.16655951 -0.16522329 0.17489496
v 0.16656280 -0.06786865 0.17489496
v 0.16655951 0.01731666 0.17489496
v 0.16654632 0.04165532 0.17489496
v 0.16650677 0.04767914 0.17489496
v 0.16945022 -0.25649326 0.14232290
v 0.16324360 0.04767914 0.14212148
v 0.17159601 -0.26257792 0.14426565
v 0.17462185 -0.25649326 0.16264064
v 0.17597987 -0.19564662 0.16264064
v 0.17557444 -0.19564662 0.16579518
v 0.17517561 -0.19564662 0.16876780
v 0.16945022 -0.19564662 0.17450186
v 0.16945022 -0.16522329 0.17450511
v 0.16945022 0.01731666 0.17450511
v 0.16945022 0.04165532 0.17450186
v 0.16941067 0.04767914 0.17449537
v 0.17418347 -0.18347729 0.14426565
v 0.17414392 -0.19564662 0.14426565
v 0.17353742 -0.25649326 0.14426565
v 0.16332270 0.04767914 0.14212148
v 0.16945022 0.04767914 0.14216371
v 0.17462185 -0.25649326 0.15039282
v 0.17557444 -0.16522329 0.16580819
v 0.17557444 -0.18347729 0.16580168
v 0.17597987 -0.19564662 0.15039282
v 0.17597987 0.04767914 0.16264064
v 0.17517890 -0.16522329 0.16876780
v 0.17517890 0.01731666 0.16876780
v 0.17517561 0.04165532 0.16876780
v 0.16952603 0.04767914 0.17441415
v 0.16945022 0.04767914 0.17448887
v 0.17418347 -0.14088463 0.14426565
v 0.17557444 -0.18347729 0.14777432
v 0.17557444 -0.19564662 0.14782954
v 0.17417029 0.04767914 0.14426565
v 0.17417359 0.04165532 0.14426565
v 0.17418017 -0.04352999 0.14426565
v 0.17557444 0.01731666 0.16580819
v 0.17597987 0.04767914 0.15039282
v 0.17557114 0.04767914 0.16575620
v 0.17557444 0.04165532 0.16579518
v 0.17515254 0.04767914 0.16876780
v 0.17557444 -0.00093734 0.14778406
v 0.17557444 -0.04352999 0.14778081
v 0.17419006 0.04767914 0.14431438
v 0.17557444 0.04165532 0.14779056
v 0.17557444 0.04767914 0.14784579
f 1 2 7
f 1 7 16
f 1 16 25
f 1 25 40
f 1 40 52
f 1 52 67
f 1 67 66
f 1 66 78
f 1 78 76
f 1 76 62
f 1 62 75
f 1 75 83
f 1 83 81
f 1 81 71
f 1 71 57
f 1 57 56
f 1 56 42
f 1 42 28
f 1 28 26
f 1 26 17
f 1 17 9
f 1 9 3
f 1 3 4
f 1 4 5
f 1 5 6
f 1 6 2
f 2 6 8
f 2 8 7
f 3 9 4
f 4 10 11
f 4 11 12
f 4 12 5
f 4 9 10
f 5 12 13
f 5 13 6
f 6 13 14
f 6 14 15
f 6 15 8
f 7 8 15
f 7 15 16
f 9 17 10
f 10 18 11
f 10 17 18
f 11 18 19
f 11 19 20
f 11 20 21
f 11 21 12
f 12 21 13
f 13 21 31
f 13 31 22
f 13 22 23
f 13 23 14
f 14 23 24
f 14 24 15
f 15 24 25
f 15 25 16
f 17 26 18
f 18 27 19
f 18 26 28
f 18 28 27
f 19 27 41
f 19 41 29
f 19 29 30
f 19 30 20
f 20 30 31
f 20 31 21
f 22 32 33
f 22 33 34
f 22 34 23
f 22 31 32
f 23 34 24
f 24 34 35
f 24 35 36
f 24 36 37
f 24 37 25
f 25 37 38
f 25 38 39
f 25 39 40
f 27 28 42
f 27 42 56
f 27 56 41
f 29 41 43
f 29 43 30
f 30 43 32
f 30 32 31
f 32 43 58
f 32 58 44
f 32 44 33
f 33 44 45
f 33 45 46
f 33 46 47
f 33 47 34
f 34 47 48
f 34 48 35
f 35 48 49
f 35 49 36
f 36 49 37
f 37 50 38
f 37 49 50
f 38 50 39
f 39 51 40
f 39 50 51
f 40 51 52
f 41 53 54
f 41 54 55
f 41 55 43
f 41 56 57
f 41 57 53
f 43 55 58
f 44 58 61
f 44 61 45
f 45 59 60
f 45 60 46
f 45 61 75
f 45 75 62
f 45 62 74
f 45 74 59
f 46 60 63
f 46 63 47
f 47 63 48
f 48 63 49
f 49 63 64
f 49 64 50
f 50 64 51
f 51 65 66
f 51 66 67
f 51 67 52
f 51 64 65
f 53 68 69
f 53 69 70
f 53 70 54
f 53 57 68
f 54 70 55
f 55 70 58
f 57 71 72
f 57 72 73
f 57 73 68
f 58 70 61
f 59 63 60
f 59 74 64
f 59 64 63
f 61 70 69
f 61 69 75
f 62 76 77
f 62 77 74
f 64 74 77
f 64 77 65
f 65 77 76
f 65 76 78
f 65 78 66
f 68 73 79
f 68 79 80
f 68 80 69
f 69 80 75
f 71 81 72
f 72 81 82
f 72 82 73
f 73 82 79
f 75 80 79
f 75 79 82
f 75 82 83
f 81 83 82

