v -0.17414924 -0.25649326 0.14426497
v -0.17361424 -0.25649326 0.14354648
v -0.17361424 -0.26257792 0.14368953
v -0.17403833 -0.26257792 0.14426497
v -0.17414924 -0.25649326 0.16876788
v -0.17414924 0.04767914 0.14426497
v -0.17362076 0.04767914 0.14352048
v -0.16748776 -0.25649326 0.14232410
v -0.16756605 0.04767914 0.14219406
v -0.16748776 0.04767914 0.14217781
v -0.16748776 -0.26257792 0.14355624
v -0.16748776 -0.26312555 0.14426497
v -0.17361424 -0.26300386 0.14426497
v -0.17403833 -0.26257792 0.16876788
v -0.17361424 -0.25649326 0.17211969
v -0.17414924 0.04767914 0.16876788
v -0.14911159 -0.25649326 0.14232410
v -0.16144283 0.04767914 0.14210628
v -0.14911159 -0.26257792 0.14355624
v -0.16748776 -0.26312555 0.16876788
v -0.14911159 -0.26312555 0.14426497
v -0.17361424 -0.26300386 0.16876788
v -0.17361424 -0.26257792 0.17138170
v -0.16748776 -0.25649326 0.17441166
v -0.17050533 -0.19564662 0.17489281
v -0.17050859 -0.17130795 0.17489281
v -0.17051185 -0.13479997 0.17489281
v -0.17361424 0.04767914 0.17211969
v -0.14298512 -0.25649326 0.14284752
v -0.14298512 -0.26257792 0.14357574
v -0.16136128 0.04767914 0.14210628
v -0.14911159 0.04767914 0.14213229
v -0.14306667 0.04767914 0.14258093
v -0.14298512 0.04767914 0.14258744
v -0.14911159 -0.26312555 0.16876788
v -0.16748776 -0.26257792 0.17193113
v -0.14298512 -0.26309512 0.14426497
v -0.16136128 -0.25649326 0.17441816
v -0.16748776 -0.19564662 0.17531543
v -0.16748776 0.02340132 0.17531869
v -0.17051185 0.03557065 0.17489281
v -0.17050859 0.04165532 0.17489281
v -0.16748776 0.04767914 0.17446692
v -0.14168023 -0.25649326 0.14426497
v -0.14133116 0.04767914 0.14426497
v -0.14235876 -0.26257792 0.14426497
v -0.14298512 -0.26309512 0.16876788
v -0.14298512 -0.26257792 0.17188887
v -0.14911159 -0.26257792 0.17193113
v -0.14911159 -0.25649326 0.17441816
v -0.14911159 -0.19564662 0.17530569
v -0.14911159 0.04767914 0.17530569
v -0.16748776 0.04165532 0.17531543
v -0.16748776 0.04469765 0.17489281
v -0.16440168 0.04767914 0.17489931
v -0.14118762 -0.19564662 0.15039313
v -0.14152037 -0.25649326 0.15039313
v -0.14086140 0.04767914 0.15039313
v -0.14235876 -0.26257792 0.16876788
v -0.14152037 -0.25649326 0.16876788
v -0.14298512 -0.25649326 0.17338109
v -0.14612991 -0.19564662 0.17489281
v -0.14610708 -0.18347729 0.17489281
v -0.14610381 -0.04352999 0.17489281
v -0.14611033 0.04165532 0.17489281
v -0.14614622 0.04767914 0.17489281
v -0.16144283 0.04767914 0.17530569
v -0.14118762 -0.19564662 0.16264297
v -0.14082225 0.04767914 0.16264297
v -0.14124961 -0.19564662 0.16876788
v -0.14089402 0.04767914 0.16876788
v -0.14298512 -0.19564662 0.17360866
v -0.14298512 -0.18347729 0.17362490
v -0.14298512 0.04767914 0.17374845
v -0.14302752 0.04767914 0.17376470
f 1 2 3
f 1 3 4
f 1 4 14
f 1 14 5
f 1 5 16
f 1 16 6
f 1 6 7
f 1 7 2
f 2 8 3
f 2 7 9
f 2 9 10
f 2 10 8
f 3 8 11
f 3 11 12
f 3 12 13
f 3 13 4
f 4 13 22
f 4 22 14
f 5 14 15
f 5 15 28
f 5 28 16
f 6 16 28
f 6 28 43
f 6 43 55
f 6 55 67
f 6 67 52
f 6 52 66
f 6 66 75
f 6 75 74
f 6 74 71
f 6 71 69
f 6 69 58
f 6 58 45
f 6 45 34
f 6 34 33
f 6 33 32
f 6 32 31
f 6 31 18
f 6 18 10
f 6 10 9
f 6 9 7
f 8 17 19
f 8 19 11
f 8 10 18
f 8 18 31
f 8 31 17
f 11 19 21
f 11 21 12
f 12 20 22
f 12 22 13
f 12 21 35
f 12 35 20
f 14 22 23
f 14 23 15
f 15 23 24
f 15 24 25
f 15 25 26
f 15 26 27
f 15 27 41
f 15 41 28
f 17 29 30
f 17 30 19
f 17 31 32
f 17 32 33
f 17 33 34
f 17 34 29
f 19 30 21
f 20 35 49
f 20 49 36
f 20 36 23
f 20 23 22
f 21 37 47
f 21 47 35
f 21 30 37
f 23 36 24
f 24 36 38
f 24 38 39
f 24 39 25
f 25 39 26
f 26 39 40
f 26 40 27
f 27 40 41
f 28 41 42
f 28 42 43
f 29 44 30
f 29 34 45
f 29 45 44
f 30 46 37
f 30 44 46
f 35 47 48
f 35 48 49
f 36 49 50
f 36 50 38
f 37 46 59
f 37 59 47
f 38 50 39
f 39 50 51
f 39 51 40
f 40 52 53
f 40 53 42
f 40 42 41
f 40 51 52
f 42 53 54
f 42 54 43
f 43 54 55
f 44 56 57
f 44 57 46
f 44 45 58
f 44 58 56
f 46 57 60
f 46 60 59
f 47 59 48
f 48 59 60
f 48 60 61
f 48 61 50
f 48 50 49
f 50 61 62
f 50 62 51
f 51 62 63
f 51 63 64
f 51 64 52
f 52 64 65
f 52 65 66
f 52 67 53
f 53 67 54
f 54 67 55
f 56 68 60
f 56 60 57
f 56 58 69
f 56 69 68
f 60 68 70
f 60 70 61
f 61 70 71
f 61 71 72
f 61 72 62
f 62 72 73
f 62 73 63
f 63 73 74
f 63 74 75
f 63 75 64
f 64 75 65
f 65 75 66
f 68 69 70
f 69 71 70
f 71 74 73
f 71 73 72

