v 0.14230089 0.04773639 -0.14979341
v 0.14291406 0.04773639 -0.14366583
v 0.14231406 0.04773639 -0.16816967
v 0.14233055 -0.25649204 -0.16816967
v 0.14233055 -0.25649204 -0.14979341
v 0.14494813 0.04773639 -0.14177942
v 0.14303934 -0.25649204 -0.14366583
v 0.14426900 0.04773639 -0.17429401
v 0.14427560 -0.25649204 -0.17429401
v 0.14435142 -0.26257784 -0.17429401
v 0.14412395 -0.26257784 -0.16816967
v 0.14412395 -0.26257784 -0.14366583
v 0.15105030 0.04773639 -0.14148670
v 0.14494813 -0.25649204 -0.14205912
v 0.14494483 0.04773639 -0.17470707
v 0.14494813 0.04165061 -0.17471032
v 0.14494813 -0.25649204 -0.17471032
v 0.14494813 -0.26257784 -0.17466153
v 0.14494813 -0.26297341 -0.17429401
v 0.14494813 -0.26312554 -0.16816967
v 0.14494813 -0.26257784 -0.14299909
v 0.14494813 -0.26312554 -0.14366583
v 0.15107337 0.04773639 -0.14148670
v 0.15107337 -0.19563418 -0.14184447
v 0.15107337 -0.25649204 -0.14201359
v 0.15105030 0.04773639 -0.17471032
v 0.16944913 -0.25649204 -0.17471032
v 0.16944913 -0.26257784 -0.17466153
v 0.16944913 -0.26297341 -0.17429401
v 0.16944913 -0.26312554 -0.16816967
v 0.16944913 -0.26257784 -0.14299909
v 0.16944913 -0.26312554 -0.14366583
v 0.16332388 0.04773639 -0.14148995
v 0.16332388 -0.19563418 -0.14184447
v 0.16944913 -0.25649204 -0.14201359
v 0.16944913 0.04773639 -0.17471032
v 0.17138758 -0.18346262 -0.17429401
v 0.17127220 -0.25649204 -0.17429401
v 0.17139417 -0.08615090 -0.17429401
v 0.17105462 -0.26257784 -0.17429401
v 0.17159527 -0.26257784 -0.16816967
v 0.17159527 -0.26257784 -0.14366583
v 0.16944913 0.04773639 -0.14153548
v 0.16944913 -0.19563418 -0.14190627
v 0.17331285 -0.25649204 -0.14366583
v 0.17410405 -0.19563418 -0.14366583
v 0.17130517 0.04773639 -0.17429726
v 0.17138098 0.04165061 -0.17429401
v 0.17139088 -0.00094990 -0.17429401
v 0.17139417 -0.04355040 -0.17429401
v 0.17515569 -0.14086211 -0.16816967
v 0.17515241 -0.18346262 -0.16816967
v 0.17514911 -0.19563418 -0.16816967
v 0.17461504 -0.25649204 -0.16816967
v 0.17462164 -0.25649204 -0.16204209
v 0.17462164 -0.25649204 -0.14979341
v 0.17425571 0.04773639 -0.14366583
v 0.17413373 -0.18346262 -0.14366583
v 0.17557437 -0.19563418 -0.14713293
v 0.17132494 0.04773639 -0.17427124
v 0.17514251 0.04773639 -0.16816967
v 0.17515569 0.04165061 -0.16816967
v 0.17557437 -0.14086211 -0.16510263
v 0.17557437 -0.18346262 -0.16509612
v 0.17557437 -0.19563418 -0.16507986
v 0.17597658 -0.19563418 -0.16204209
v 0.17597658 -0.19563418 -0.14979341
v 0.17557437 -0.04355040 -0.14707763
v 0.17557437 0.04165061 -0.14708739
v 0.17557437 0.04773639 -0.14715244
v 0.17557437 -0.18346262 -0.14709390
v 0.17557437 -0.14086211 -0.14708414
v 0.17557437 -0.12260476 -0.14708088
v 0.17557437 0.04773639 -0.16506034
v 0.17557437 0.04165061 -0.16509612
v 0.17597658 0.04773639 -0.16205509
v 0.17597658 0.04773639 -0.14979341
f 1 2 6
f 1 6 13
f 1 13 23
f 1 23 33
f 1 33 43
f 1 43 57
f 1 57 70
f 1 70 77
f 1 77 76
f 1 76 74
f 1 74 61
f 1 61 60
f 1 60 47
f 1 47 36
f 1 36 26
f 1 26 15
f 1 15 8
f 1 8 3
f 1 3 4
f 1 4 5
f 1 5 2
f 2 5 7
f 2 7 6
f 3 8 9
f 3 9 4
f 4 9 10
f 4 10 11
f 4 11 12
f 4 12 5
f 5 12 7
f 6 7 14
f 6 14 13
f 7 12 14
f 8 15 16
f 8 16 17
f 8 17 9
f 9 17 10
f 10 17 18
f 10 18 19
f 10 19 20
f 10 20 11
f 11 20 22
f 11 22 12
f 12 21 14
f 12 22 21
f 13 14 24
f 13 24 34
f 13 34 23
f 14 21 25
f 14 25 24
f 15 26 16
f 16 26 36
f 16 36 27
f 16 27 17
f 17 27 28
f 17 28 18
f 18 28 29
f 18 29 19
f 19 29 30
f 19 30 20
f 20 30 32
f 20 32 22
f 21 22 32
f 21 32 31
f 21 31 35
f 21 35 25
f 23 34 33
f 24 25 35
f 24 35 34
f 27 37 38
f 27 38 28
f 27 36 50
f 27 50 39
f 27 39 37
f 28 38 40
f 28 40 29
f 29 40 30
f 30 40 41
f 30 41 42
f 30 42 32
f 31 42 35
f 31 32 42
f 33 34 43
f 34 35 44
f 34 44 43
f 35 42 45
f 35 45 46
f 35 46 44
f 36 47 48
f 36 48 49
f 36 49 50
f 37 51 52
f 37 52 53
f 37 53 38
f 37 39 51
f 38 53 54
f 38 54 40
f 39 50 62
f 39 62 51
f 40 54 41
f 41 54 55
f 41 55 56
f 41 56 42
f 42 56 45
f 43 44 46
f 43 46 58
f 43 58 57
f 45 56 59
f 45 59 46
f 46 59 58
f 47 60 48
f 48 60 61
f 48 61 62
f 48 62 49
f 49 62 50
f 51 63 64
f 51 64 52
f 51 62 63
f 52 64 65
f 52 65 53
f 53 65 54
f 54 65 66
f 54 66 55
f 55 66 67
f 55 67 56
f 56 67 59
f 57 68 69
f 57 69 70
f 57 58 71
f 57 71 72
f 57 72 73
f 57 73 68
f 58 59 71
f 59 67 71
f 61 74 62
f 62 74 75
f 62 75 63
f 63 66 64
f 63 75 76
f 63 76 66
f 64 66 65
f 66 76 77
f 66 77 67
f 67 73 72
f 67 72 71
f 67 77 68
f 67 68 73
f 68 77 69
f 69 77 70
f 74 76 75

