v -0.17446257 0.05993129 0.13189828
v -0.17446257 0.07221618 0.13189828
v -0.17415203 0.05383613 0.13189828
v -0.17411752 0.04767914 0.14426816
v -0.17432455 0.05384704 0.14426816
v -0.17446257 0.05993129 0.16876770
v -0.17446257 0.07209980 0.16876770
v -0.17442807 0.07830407 0.13189828
v -0.17359995 0.05325789 0.13189828
v -0.17359995 0.04767914 0.14352256
v -0.17411752 0.04767914 0.16881273
v -0.17432455 0.05384704 0.16264282
v -0.17418653 0.05993129 0.17489258
v -0.17422104 0.06601918 0.17489258
v -0.17422104 0.07209980 0.17489258
v -0.17442807 0.07818406 0.16876770
v -0.17408302 0.08427195 0.15651792
v -0.17408302 0.08427195 0.13814326
v -0.17359995 0.08214809 0.13189828
v -0.16759613 0.05273056 0.13189828
v -0.16745812 0.04767914 0.14217648
v -0.16756163 0.04767914 0.14219650
v -0.17359995 0.04767914 0.17212038
v -0.17359995 0.05643639 0.17489258
v -0.17359995 0.05993129 0.17548806
v -0.17359995 0.06601918 0.17551809
v -0.17359995 0.07209980 0.17552308
v -0.17359995 0.07530740 0.17489258
v -0.17359995 0.07818406 0.17247066
v -0.17359995 0.08208263 0.16876770
v -0.17359995 0.08427195 0.15958537
v -0.17359995 0.08473744 0.15651792
v -0.17359995 0.08473744 0.15039304
v -0.17359995 0.08473381 0.13814326
v -0.17359995 0.08427195 0.13509583
v -0.17090859 0.08427195 0.13189828
v -0.16745812 0.05271966 0.13189828
v -0.16141979 0.04767914 0.14210643
v -0.16745812 0.04767914 0.17446725
v -0.14910161 0.05384704 0.18298904
v -0.16745812 0.08427195 0.17538798
v -0.16956291 0.08427195 0.17489258
v -0.16745812 0.08474836 0.17489258
v -0.16745812 0.08482836 0.16876770
v -0.16745812 0.08483200 0.16264282
v -0.16745812 0.08483200 0.13189828
v -0.16759613 0.08482836 0.13189828
v -0.16145429 0.05270511 0.13189828
v -0.16135078 0.04767914 0.14210643
v -0.16438720 0.04767914 0.17489759
v -0.14910161 0.05095220 0.18101747
v 0.16330404 0.04767914 0.17530291
v 0.17555321 0.07818406 0.18301407
v 0.17555321 0.08110798 0.18101747
v -0.08171391 0.08483200 0.16876770
v -0.10621225 0.08483200 0.16876770
v 0.07752533 0.08471199 0.17489258
v 0.16944588 0.08482836 0.16876770
v 0.16330404 0.08483200 0.13189828
v 0.16330404 0.05270511 0.13189828
v 0.16330404 0.04767914 0.14212144
v -0.16141979 0.04767914 0.17530291
v 0.16647848 0.04767914 0.17489258
v 0.16941138 0.04767914 0.17449226
v 0.16944588 0.04767914 0.17448727
v 0.17555321 0.05731648 0.17489258
v 0.17803755 0.07818406 0.18101747
v 0.17555321 0.08206081 0.16876770
v 0.17279284 0.08427195 0.16876770
v 0.16944588 0.08427195 0.17217042
v 0.16330404 0.08483200 0.16264282
v 0.17296536 0.08427195 0.16264282
v 0.16944588 0.08482836 0.13189828
v 0.16944588 0.05271602 0.13189828
v 0.16944588 0.04767914 0.14216647
v 0.17513915 0.04767914 0.16876770
v 0.17607079 0.05993129 0.17489258
v 0.17624331 0.05384704 0.16876770
v 0.17596727 0.04767914 0.16264282
v 0.17596727 0.04767914 0.15035802
v 0.17624331 0.05384704 0.13189828
v 0.17638133 0.05993129 0.13189828
v 0.17638133 0.07826407 0.13189828
v 0.17555321 0.08222447 0.13189828
v 0.17555321 0.08222810 0.13814326
v 0.17555321 0.08223538 0.15651792
v 0.17555321 0.08222083 0.16264282
v 0.17296536 0.08427195 0.13189828
v 0.17544969 0.05313060 0.13189828
v 0.17555321 0.05313788 0.13189828
v 0.17410401 0.04767914 0.14424313
v 0.17555321 0.04767914 0.16575529
v 0.17555321 0.04767914 0.14784601
v 0.17417302 0.04767914 0.14431319
v 0.17413852 0.04767914 0.14426816
f 1 2 8
f 1 8 19
f 1 19 36
f 1 36 47
f 1 47 46
f 1 46 59
f 1 59 73
f 1 73 88
f 1 88 84
f 1 84 83
f 1 83 82
f 1 82 81
f 1 81 90
f 1 90 89
f 1 89 74
f 1 74 60
f 1 60 48
f 1 48 37
f 1 37 20
f 1 20 9
f 1 9 3
f 1 3 4
f 1 4 5
f 1 5 12
f 1 12 6
f 1 6 7
f 1 7 2
f 2 7 8
f 3 9 4
f 4 9 10
f 4 10 22
f 4 22 21
f 4 21 38
f 4 38 49
f 4 49 61
f 4 61 75
f 4 75 91
f 4 91 95
f 4 95 94
f 4 94 93
f 4 93 80
f 4 80 79
f 4 79 92
f 4 92 76
f 4 76 65
f 4 65 64
f 4 64 63
f 4 63 52
f 4 52 62
f 4 62 50
f 4 50 39
f 4 39 23
f 4 23 11
f 4 11 12
f 4 12 5
f 6 13 14
f 6 14 15
f 6 15 7
f 6 12 11
f 6 11 13
f 7 15 16
f 7 16 8
f 8 16 17
f 8 17 18
f 8 18 19
f 9 20 21
f 9 21 22
f 9 22 10
f 11 23 13
f 13 23 24
f 13 24 25
f 13 25 14
f 14 25 26
f 14 26 27
f 14 27 15
f 15 27 28
f 15 28 29
f 15 29 16
f 16 29 30
f 16 30 17
f 17 30 31
f 17 31 32
f 17 32 33
f 17 33 18
f 18 33 34
f 18 34 35
f 18 35 19
f 19 35 36
f 20 37 21
f 21 37 38
f 23 39 24
f 24 39 40
f 24 40 25
f 25 40 26
f 26 40 27
f 27 40 41
f 27 41 42
f 27 42 28
f 28 42 29
f 29 42 30
f 30 42 31
f 31 42 32
f 32 42 43
f 32 43 44
f 32 44 45
f 32 45 46
f 32 46 33
f 33 46 34
f 34 46 47
f 34 47 36
f 34 36 35
f 37 48 38
f 38 48 60
f 38 60 49
f 39 50 51
f 39 51 40
f 40 51 52
f 40 52 53
f 40 53 41
f 41 43 42
f 41 53 54
f 41 54 43
f 43 55 56
f 43 56 44
f 43 54 57
f 43 57 58
f 43 58 55
f 44 56 45
f 45 56 55
f 45 55 71
f 45 71 59
f 45 59 46
f 49 60 61
f 50 62 51
f 51 62 52
f 52 63 53
f 53 63 64
f 53 64 65
f 53 65 66
f 53 66 67
f 53 67 54
f 54 67 68
f 54 68 69
f 54 69 70
f 54 70 57
f 55 58 71
f 57 70 58
f 58 70 69
f 58 69 72
f 58 72 88
f 58 88 73
f 58 73 59
f 58 59 71
f 60 74 61
f 61 74 75
f 65 76 66
f 66 76 77
f 66 77 67
f 67 77 78
f 67 78 79
f 67 79 80
f 67 80 81
f 67 81 82
f 67 82 83
f 67 83 84
f 67 84 85
f 67 85 86
f 67 86 87
f 67 87 68
f 68 87 69
f 69 87 72
f 72 87 86
f 72 86 88
f 74 89 75
f 75 89 90
f 75 90 91
f 76 92 78
f 76 78 77
f 78 92 79
f 80 93 81
f 81 93 90
f 84 88 85
f 85 88 86
f 90 93 94
f 90 94 95
f 90 95 91

