v 0.61846390 -0.71457248 -0.14270905
v 0.61846390 -0.71518576 -0.14259817
v 0.61846390 -0.71371393 -0.14270905
v 0.65291773 -0.72330780 -0.13243840
v 0.63113331 -0.72512075 -0.13519394
v 0.61846390 -0.71559970 -0.14234767
v 0.64360921 -0.72498662 -0.13384286
v 0.61846390 -0.70156729 -0.13771540
v 0.63113331 -0.70507062 -0.13493523
v 0.63113331 -0.71456102 -0.13879544
v 0.65291773 -0.71832114 -0.13243840
v 0.66856092 -0.72703727 -0.12578978
v 0.67589277 -0.73458433 -0.12019657
v 0.66856092 -0.73594884 -0.12183101
v 0.61846390 -0.72412040 -0.13633968
v 0.65608506 -0.73600252 -0.12288230
v 0.61846390 -0.70147912 -0.13732527
v 0.61848148 -0.70154815 -0.13768255
v 0.63977903 -0.70712122 -0.13262730
v 0.64380862 -0.71432337 -0.13411800
v 0.67632096 -0.71922186 -0.12045118
v 0.67676087 -0.72703727 -0.12105486
v 0.67838561 -0.72703727 -0.11262398
v 0.67625059 -0.73506343 -0.11262398
v 0.66856092 -0.73849777 -0.11262398
v 0.61846390 -0.72425836 -0.13617132
v 0.65608506 -0.73788450 -0.11262398
v 0.64360921 -0.73450767 -0.12172424
v 0.61846390 -0.69934035 -0.12590888
v 0.63113331 -0.70225722 -0.12509577
v 0.64380862 -0.70612082 -0.12506292
v 0.65181501 -0.70761567 -0.12088649
v 0.66856092 -0.71398987 -0.11262398
v 0.67693097 -0.71841694 -0.11262398
v 0.67611565 -0.71919504 -0.10473928
v 0.67642068 -0.72703727 -0.10433272
v 0.67564057 -0.73434668 -0.10529778
v 0.66856092 -0.73582239 -0.10377422
v 0.63659997 -0.73353793 -0.11993786
v 0.61846390 -0.72669231 -0.12531753
v 0.65608506 -0.73515927 -0.10444771
v 0.63659997 -0.73353793 -0.11830753
v 0.61846390 -0.70370990 -0.11937936
v 0.63113331 -0.70551139 -0.11572859
v 0.64360921 -0.70647346 -0.11589695
v 0.65181501 -0.70761567 -0.11721928
v 0.66856092 -0.71765419 -0.10336767
v 0.66856092 -0.72703727 -0.10075997
v 0.61846390 -0.72666161 -0.12509988
v 0.65608506 -0.72703727 -0.10170859
v 0.64950985 -0.73346127 -0.10619713
v 0.61846390 -0.72322347 -0.11671828
v 0.61846390 -0.72326564 -0.11681684
v 0.61846390 -0.70557274 -0.11670185
v 0.61865746 -0.70555355 -0.11668131
v 0.65608506 -0.71717889 -0.10364691
v 0.64595538 -0.71856642 -0.10510888
v 0.61846390 -0.71456102 -0.11455409
v 0.64667686 -0.72703727 -0.10528545
v 0.61846390 -0.71474115 -0.11459516
v 0.61865746 -0.71456102 -0.11449249
f 1 2 6
f 1 6 15
f 1 15 26
f 1 26 40
f 1 40 49
f 1 49 53
f 1 53 52
f 1 52 60
f 1 60 58
f 1 58 54
f 1 54 43
f 1 43 29
f 1 29 17
f 1 17 8
f 1 8 3
f 1 3 11
f 1 11 4
f 1 4 2
f 2 5 6
f 2 4 7
f 2 7 5
f 3 8 9
f 3 9 10
f 3 10 11
f 4 11 12
f 4 12 13
f 4 13 14
f 4 14 7
f 5 15 6
f 5 7 14
f 5 14 16
f 5 16 15
f 8 17 18
f 8 18 9
f 9 18 19
f 9 19 20
f 9 20 10
f 10 20 11
f 11 21 12
f 11 20 19
f 11 19 21
f 12 21 22
f 12 22 13
f 13 22 23
f 13 23 24
f 13 24 25
f 13 25 14
f 14 25 16
f 15 16 26
f 16 25 27
f 16 27 28
f 16 28 26
f 17 29 18
f 18 30 31
f 18 31 19
f 18 29 30
f 19 31 32
f 19 32 21
f 21 32 33
f 21 33 34
f 21 34 23
f 21 23 22
f 23 34 35
f 23 35 36
f 23 36 37
f 23 37 24
f 24 37 25
f 25 37 38
f 25 38 27
f 26 39 40
f 26 28 39
f 27 38 41
f 27 41 42
f 27 42 39
f 27 39 28
f 29 43 44
f 29 44 45
f 29 45 46
f 29 46 30
f 30 46 32
f 30 32 31
f 32 46 33
f 33 47 35
f 33 35 34
f 33 46 47
f 35 48 36
f 35 47 48
f 36 48 37
f 37 48 38
f 38 48 41
f 39 42 40
f 40 42 49
f 41 48 50
f 41 50 51
f 41 51 42
f 42 52 53
f 42 53 49
f 42 51 52
f 43 54 55
f 43 55 44
f 44 55 56
f 44 56 47
f 44 47 45
f 45 47 46
f 47 56 48
f 48 56 50
f 50 57 58
f 50 58 59
f 50 59 51
f 50 56 57
f 51 59 52
f 52 59 60
f 54 58 61
f 54 61 57
f 54 57 56
f 54 56 55
f 57 61 58
f 58 60 59

