v -0.22150565 0.41569360 0.18681305
v -0.22681760 0.40743059 0.18681305
v -0.22656192 0.40756383 0.17436134
v -0.22180389 0.41569360 0.17436134
v -0.22316740 0.41569360 0.19827447
v -0.23305276 0.39853272 0.18681305
v -0.23279708 0.39792596 0.17436134
v -0.22732891 0.41569360 0.22424938
v -0.24920163 0.37986722 0.21176518
v -0.23367767 0.39896059 0.16187715
v -0.23424579 0.41569360 0.09473205
v -0.22855036 0.41569360 0.22744752
v -0.24518217 0.39759978 0.23671731
v -0.25114746 0.38352525 0.22501237
v -0.24992596 0.37986722 0.21423281
v -0.24944308 0.37986722 0.21269055
v -0.25185761 0.37986722 0.19861539
v -0.27036421 0.37986722 0.11254109
v -0.27523584 0.37986722 0.09473205
v -0.23535364 0.41391545 0.09473205
v -0.32114019 0.41569360 0.09473205
v -0.23259825 0.41569360 0.23498026
v -0.23377709 0.41220392 0.23379515
v -0.24677291 0.39990053 0.24470460
v -0.24979817 0.39136395 0.23671731
v -0.25621793 0.38283786 0.23681472
v -0.25539418 0.37986722 0.22887615
v -0.36659002 0.37986722 0.09473205
v -0.35288405 0.39275983 0.09473205
v -0.32176510 0.41569360 0.09799515
v -0.23420318 0.41569360 0.23718810
v -0.24457144 0.40836348 0.24614945
v -0.27235261 0.38816534 0.25590628
v -0.25438574 0.39580410 0.24777287
v -0.27556251 0.37986722 0.25410426
v -0.25832002 0.38661516 0.24554878
v -0.26152988 0.37986722 0.24189607
v -0.26019482 0.37986722 0.23957457
v -0.23846412 0.41569360 0.24303247
v -0.25775186 0.37986722 0.23498026
v -0.36477203 0.37986722 0.11197288
v -0.36543956 0.38118595 0.09473205
v -0.35527016 0.39100971 0.09473205
v -0.32280196 0.41569360 0.10424535
v -0.24281025 0.41569360 0.24585723
v -0.24731260 0.41569360 0.24837356
v -0.25474084 0.40836348 0.25183147
v -0.26469717 0.39588826 0.25390944
v -0.27093233 0.39588826 0.25618226
v -0.29216590 0.38341303 0.26022459
v -0.27969562 0.38377080 0.25714007
v -0.28164145 0.37986722 0.25676668
v -0.26867406 0.37986722 0.24814626
v -0.32358310 0.41481331 0.13168134
v -0.35879254 0.38743936 0.09948871
v -0.35911921 0.38779008 0.09473205
v -0.36247114 0.37986722 0.12291482
v -0.31396763 0.41569360 0.17436134
v -0.32371093 0.41569360 0.12369406
v -0.32361152 0.41569360 0.11197288
v -0.32358310 0.41569360 0.11095012
v -0.25474084 0.41569360 0.25095480
v -0.27118800 0.40407768 0.25597120
v -0.30484928 0.38397418 0.25929924
v -0.30477825 0.37986722 0.25996485
v -0.29570247 0.37986722 0.26054929
v -0.27569035 0.40407768 0.25597120
v -0.28367247 0.37986722 0.25736737
v -0.32270250 0.41569360 0.13075598
v -0.32403761 0.41531485 0.12445708
v -0.36035486 0.37986722 0.13135666
v -0.32575618 0.40435473 0.17436134
v -0.31210702 0.41569360 0.18104987
v -0.25981135 0.41569360 0.25202628
v -0.30953627 0.37986722 0.25918561
v -0.29216590 0.39324384 0.25767581
v -0.30084401 0.39126574 0.25696150
v -0.31500444 0.38018987 0.25785439
v -0.31513228 0.37986722 0.25790309
v -0.26728215 0.41569360 0.25092234
v -0.34312656 0.37986722 0.19929725
v -0.32311440 0.40190317 0.19220284
v -0.31178035 0.41535693 0.18346879
v -0.31143949 0.41569360 0.18304670
v -0.31587085 0.37986722 0.25757841
v -0.27317640 0.41569360 0.24920150
v -0.27725271 0.41569360 0.24709104
v -0.33835430 0.37986722 0.21176518
v -0.32190713 0.40065811 0.19929725
v -0.31567202 0.40655026 0.19929725
v -0.30969249 0.41419955 0.19179699
v -0.28436842 0.41569360 0.23610042
v -0.32040162 0.37986722 0.25238343
v -0.28016432 0.41569360 0.24347079
v -0.31920859 0.39805224 0.21176518
v -0.31295924 0.40393739 0.21176518
v -0.28294814 0.41569360 0.23861673
v -0.31118381 0.40239770 0.21846995
f 1 2 3
f 1 3 4
f 1 4 11
f 1 11 21
f 1 21 30
f 1 30 44
f 1 44 61
f 1 61 60
f 1 60 59
f 1 59 69
f 1 69 58
f 1 58 73
f 1 73 84
f 1 84 92
f 1 92 97
f 1 97 94
f 1 94 87
f 1 87 86
f 1 86 80
f 1 80 74
f 1 74 62
f 1 62 46
f 1 46 45
f 1 45 39
f 1 39 31
f 1 31 22
f 1 22 12
f 1 12 8
f 1 8 5
f 1 5 2
f 2 6 7
f 2 7 3
f 2 5 8
f 2 8 9
f 2 9 6
f 3 7 10
f 3 10 11
f 3 11 4
f 6 9 7
f 7 9 10
f 8 12 13
f 8 13 14
f 8 14 15
f 8 15 16
f 8 16 9
f 9 16 15
f 9 15 27
f 9 27 40
f 9 40 38
f 9 38 37
f 9 37 53
f 9 53 35
f 9 35 52
f 9 52 68
f 9 68 66
f 9 66 65
f 9 65 75
f 9 75 79
f 9 79 85
f 9 85 93
f 9 93 88
f 9 88 81
f 9 81 71
f 9 71 57
f 9 57 41
f 9 41 28
f 9 28 19
f 9 19 18
f 9 18 17
f 9 17 10
f 10 18 19
f 10 19 20
f 10 20 11
f 10 17 18
f 11 20 19
f 11 19 28
f 11 28 42
f 11 42 56
f 11 56 43
f 11 43 29
f 11 29 21
f 12 22 23
f 12 23 24
f 12 24 13
f 13 25 14
f 13 24 25
f 14 25 26
f 14 26 27
f 14 27 15
f 21 29 30
f 22 31 24
f 22 24 23
f 24 32 33
f 24 33 34
f 24 34 35
f 24 35 36
f 24 36 37
f 24 37 38
f 24 38 26
f 24 26 25
f 24 31 39
f 24 39 32
f 26 38 40
f 26 40 27
f 28 41 42
f 29 43 44
f 29 44 30
f 32 39 45
f 32 45 46
f 32 46 47
f 32 47 48
f 32 48 33
f 33 35 34
f 33 48 47
f 33 47 49
f 33 49 50
f 33 50 51
f 33 51 52
f 33 52 35
f 35 53 36
f 36 53 37
f 41 54 55
f 41 55 56
f 41 56 42
f 41 57 58
f 41 58 54
f 43 56 59
f 43 59 60
f 43 60 61
f 43 61 44
f 46 62 47
f 47 62 63
f 47 63 49
f 49 63 50
f 50 64 65
f 50 65 66
f 50 66 51
f 50 63 67
f 50 67 64
f 51 66 68
f 51 68 52
f 54 69 59
f 54 59 70
f 54 70 56
f 54 56 55
f 54 58 69
f 56 70 59
f 57 71 72
f 57 72 58
f 58 72 73
f 62 74 63
f 63 74 67
f 64 75 65
f 64 67 76
f 64 76 77
f 64 77 78
f 64 78 79
f 64 79 75
f 67 77 76
f 67 74 80
f 67 80 77
f 71 81 72
f 72 81 82
f 72 82 83
f 72 83 73
f 73 83 84
f 77 85 78
f 77 80 86
f 77 86 87
f 77 87 85
f 78 85 79
f 81 88 89
f 81 89 82
f 82 89 90
f 82 90 83
f 83 90 91
f 83 91 84
f 84 91 92
f 85 87 93
f 87 94 93
f 88 93 95
f 88 95 89
f 89 95 90
f 90 95 96
f 90 96 91
f 91 96 92
f 92 96 98
f 92 98 97
f 93 94 97
f 93 97 98
f 93 98 96
f 93 96 95

