v 0.65593898 -0.82715305 -0.15712993
v 0.65608832 -0.83933543 -0.15913630
v 0.66856538 -0.85181655 -0.16151483
v 0.68103882 -0.86427169 -0.16391492
v 0.69315521 -0.87676580 -0.16654694
v 0.68103882 -0.85181655 -0.16325152
v 0.65593898 -0.81438618 -0.15721623
v 0.65593898 -0.83934841 -0.15918484
v 0.67144696 -0.87347991 -0.16751776
v 0.68475459 -0.88496098 -0.16800857
v 0.69315521 -0.88562333 -0.16798699
v 0.69315521 -0.86408986 -0.16641749
v 0.65867116 -0.81438618 -0.15875876
v 0.65593898 -0.80156741 -0.16182764
v 0.69315521 -0.86020654 -0.16669795
v 0.69071810 -0.85181655 -0.16681660
v 0.68851047 -0.84358241 -0.16777665
v 0.65593898 -0.84167321 -0.16006399
v 0.67643777 -0.88180498 -0.16950255
v 0.65593898 -0.85441407 -0.16492889
v 0.65884603 -0.86159622 -0.16692448
v 0.69315521 -0.90496194 -0.17654643
v 0.69315521 -0.89183141 -0.17003651
v 0.65593898 -0.80138558 -0.16194091
v 0.69315521 -0.85166068 -0.16974526
v 0.69315521 -0.84537470 -0.17468029
v 0.69051409 -0.84108877 -0.17500929
v 0.67456530 -0.82100990 -0.16965896
v 0.66342156 -0.80665858 -0.16726965
v 0.66313014 -0.86990831 -0.16931379
v 0.68745764 -0.90779323 -0.18151381
v 0.65593898 -0.86431065 -0.17218312
v 0.65593898 -0.86554446 -0.17319169
v 0.69315521 -0.91452083 -0.18424291
v 0.65593898 -0.79402160 -0.17500929
v 0.69315521 -0.84189400 -0.18747899
v 0.68610978 -0.83485472 -0.17500929
v 0.67937763 -0.82584128 -0.17429196
v 0.67139596 -0.81498365 -0.17429196
v 0.66448167 -0.80535980 -0.17500929
v 0.65977861 -0.79911277 -0.17500929
v 0.67016098 -0.92404076 -0.21222964
v 0.69315521 -0.91561177 -0.18518677
v 0.65593898 -0.86651854 -0.17431354
v 0.66959269 -0.92322250 -0.21222964
v 0.67566547 -0.81952928 -0.17797570
v 0.67566547 -0.81952928 -0.18449640
v 0.66410645 -0.80590529 -0.18487395
v 0.65593898 -0.79561908 -0.18026793
v 0.69169802 -0.84007573 -0.18747899
v 0.69315521 -0.84442659 -0.19353047
v 0.68105337 -0.92670321 -0.21222964
v 0.69315521 -0.91620920 -0.18610905
v 0.65593898 -0.87189541 -0.18747899
v 0.66564377 -0.91466366 -0.21222964
v 0.68660886 -0.83384165 -0.18747899
v 0.67447423 -0.82093194 -0.19280775
v 0.65593898 -0.79876209 -0.18803991
v 0.69008787 -0.84223169 -0.19740837
v 0.69315521 -0.84807610 -0.20018601
v 0.68116265 -0.92670321 -0.21222964
v 0.69315521 -0.92162507 -0.19995409
v 0.65593898 -0.87038883 -0.19200412
v 0.66390244 -0.90148123 -0.21222964
v 0.65593898 -0.86377814 -0.19986241
v 0.66189155 -0.80850281 -0.19319068
v 0.69315521 -0.85003724 -0.20224631
v 0.68635385 -0.84620590 -0.20572510
v 0.65593898 -0.80024266 -0.18977122
v 0.69272533 -0.92387192 -0.21222964
v 0.69315521 -0.92336538 -0.21172265
v 0.66927940 -0.88448041 -0.21222964
v 0.65593898 -0.86346646 -0.20002961
v 0.65593898 -0.85375171 -0.20400998
v 0.65593898 -0.84127060 -0.20513722
v 0.65593898 -0.83933543 -0.20503475
v 0.65593898 -0.82672446 -0.20404235
v 0.66132687 -0.83933543 -0.20652875
v 0.65593898 -0.80558058 -0.19495435
v 0.69315521 -0.85567385 -0.20713280
v 0.69080185 -0.85451799 -0.20774226
v 0.67803338 -0.84314080 -0.20713280
v 0.69300586 -0.92348229 -0.21222964
v 0.69315521 -0.92327449 -0.21181973
v 0.67617915 -0.87211620 -0.21222964
v 0.66229591 -0.83308840 -0.20619973
v 0.65593898 -0.81223027 -0.19827672
v 0.66235418 -0.83308840 -0.20619973
v 0.67067100 -0.83481572 -0.20527206
v 0.65593898 -0.81045096 -0.19750547
v 0.69315521 -0.86033643 -0.20905829
v 0.69315521 -0.86986935 -0.21222964
v 0.69311514 -0.92296276 -0.21222964
v 0.69315521 -0.92248224 -0.21222964
v 0.68103882 -0.86745366 -0.21222964
v 0.68397136 -0.86729780 -0.21222964
v 0.68405516 -0.86729780 -0.21222964
f 1 2 3
f 1 3 4
f 1 4 5
f 1 5 6
f 1 6 7
f 1 7 14
f 1 14 24
f 1 24 35
f 1 35 49
f 1 49 58
f 1 58 69
f 1 69 79
f 1 79 90
f 1 90 87
f 1 87 77
f 1 77 76
f 1 76 75
f 1 75 74
f 1 74 73
f 1 73 65
f 1 65 63
f 1 63 54
f 1 54 44
f 1 44 33
f 1 33 32
f 1 32 20
f 1 20 18
f 1 18 8
f 1 8 2
f 2 8 9
f 2 9 10
f 2 10 11
f 2 11 3
f 3 11 4
f 4 11 5
f 5 11 23
f 5 23 22
f 5 22 34
f 5 34 43
f 5 43 53
f 5 53 62
f 5 62 71
f 5 71 84
f 5 84 94
f 5 94 92
f 5 92 91
f 5 91 80
f 5 80 67
f 5 67 60
f 5 60 51
f 5 51 36
f 5 36 26
f 5 26 25
f 5 25 15
f 5 15 12
f 5 12 6
f 6 12 7
f 7 13 14
f 7 12 15
f 7 15 16
f 7 16 17
f 7 17 13
f 8 18 9
f 9 19 10
f 9 18 20
f 9 20 21
f 9 21 19
f 10 19 22
f 10 22 23
f 10 23 11
f 13 17 14
f 14 17 24
f 15 25 16
f 16 25 17
f 17 25 26
f 17 26 27
f 17 27 28
f 17 28 29
f 17 29 24
f 19 21 30
f 19 30 31
f 19 31 22
f 20 32 21
f 21 32 33
f 21 33 30
f 22 31 34
f 24 29 35
f 26 36 27
f 27 36 37
f 27 37 28
f 28 37 38
f 28 38 29
f 29 39 40
f 29 40 41
f 29 41 35
f 29 38 39
f 30 33 42
f 30 42 31
f 31 42 43
f 31 43 34
f 33 44 45
f 33 45 42
f 35 41 46
f 35 46 36
f 35 36 47
f 35 47 48
f 35 48 49
f 36 50 47
f 36 46 37
f 36 51 50
f 37 46 38
f 38 46 39
f 39 46 40
f 40 46 41
f 42 45 55
f 42 55 64
f 42 64 72
f 42 72 85
f 42 85 95
f 42 95 96
f 42 96 97
f 42 97 92
f 42 92 94
f 42 94 93
f 42 93 83
f 42 83 70
f 42 70 61
f 42 61 52
f 42 52 53
f 42 53 43
f 44 54 55
f 44 55 45
f 47 56 57
f 47 57 48
f 47 50 56
f 48 58 49
f 48 57 58
f 50 51 59
f 50 59 57
f 50 57 56
f 51 60 59
f 52 61 53
f 53 61 62
f 54 63 55
f 55 63 65
f 55 65 64
f 57 66 58
f 57 59 60
f 57 60 67
f 57 67 68
f 57 68 66
f 58 66 69
f 61 70 62
f 62 70 71
f 64 65 73
f 64 73 74
f 64 74 75
f 64 75 76
f 64 76 77
f 64 77 78
f 64 78 72
f 66 79 69
f 66 68 79
f 67 80 68
f 68 80 81
f 68 81 82
f 68 82 79
f 70 83 71
f 71 83 84
f 72 78 86
f 72 86 85
f 77 87 88
f 77 88 86
f 77 86 78
f 79 89 90
f 79 82 89
f 80 91 81
f 81 91 92
f 81 92 82
f 82 88 89
f 82 92 88
f 83 93 84
f 84 93 94
f 85 86 95
f 86 88 97
f 86 97 96
f 86 96 95
f 87 90 88
f 88 90 89
f 88 92 97

