v -0.34077267 0.34716449 0.24849524
v -0.34077267 0.34597396 0.24818517
v -0.34077267 0.35806424 0.24656601
v -0.36273824 0.34140673 0.24384442
v -0.36694864 0.33250837 0.24412002
v -0.37349262 0.32768452 0.24308651
v -0.37349262 0.32339444 0.24308651
v -0.36703507 0.32240916 0.24374105
v -0.36703507 0.31616896 0.24225968
v -0.34077267 0.33771189 0.24536024
v -0.35876247 0.32466707 0.24387887
v -0.34077267 0.35886479 0.24635930
v -0.35009475 0.35367153 0.24405113
v -0.37539410 0.34115016 0.23282024
v -0.37106024 0.33600817 0.24115728
v -0.37839446 0.31995617 0.24012376
v -0.38724735 0.32922404 0.23195899
v -0.38879075 0.32103385 0.23316476
v -0.37950570 0.30855354 0.23691986
v -0.37950570 0.30093807 0.23223459
v -0.36926991 0.30091755 0.23237238
v -0.36587443 0.30737322 0.23605859
v -0.34077267 0.33689082 0.24480904
v -0.34077267 0.36398625 0.24174293
v -0.35058866 0.36676765 0.22424208
v -0.38418528 0.33807113 0.22424208
v -0.39861910 0.32766400 0.21852330
v -0.38816106 0.30855354 0.23237238
v -0.39502609 0.32103385 0.22661915
v -0.41244791 0.31757506 0.20774028
v -0.40045883 0.32103385 0.22038361
v -0.40787948 0.30855354 0.21504377
v -0.40165650 0.30855354 0.22131378
v -0.39439635 0.30855354 0.22754932
v -0.38639541 0.30187204 0.23092548
v -0.40080455 0.28900169 0.20715462
v -0.39198869 0.29187546 0.21435478
v -0.36852907 0.29982960 0.22424208
v -0.36228141 0.30355523 0.22424208
v -0.34077267 0.32494421 0.23333700
v -0.35836735 0.31074987 0.23368152
v -0.34077267 0.33129726 0.24033047
v -0.39198869 0.28884775 0.20811922
v -0.38498784 0.28935067 0.20732686
v -0.34077267 0.36655209 0.23695431
v -0.34077267 0.36726027 0.23557628
v -0.34077267 0.37331570 0.22344970
v -0.34534110 0.37579944 0.21177098
v -0.35349023 0.36955928 0.21177098
v -0.41168239 0.32806429 0.19509694
v -0.40963277 0.32588844 0.20343397
v -0.42369620 0.31547109 0.19378782
v -0.40022421 0.30018884 0.21976351
v -0.41363327 0.30855354 0.20880823
v -0.41986856 0.30855354 0.20136692
v -0.43666069 0.30480738 0.18186793
v -0.42465925 0.29607322 0.19475242
v -0.41285539 0.29917278 0.20770583
v -0.40911419 0.29084913 0.20467419
v -0.41692996 0.28794457 0.19571704
v -0.41596686 0.28143758 0.18572639
v -0.41116381 0.27726034 0.18083442
v -0.34077267 0.32128016 0.21177098
v -0.34077267 0.32129042 0.21304565
v -0.34077267 0.32162914 0.22420761
v -0.34077267 0.32195755 0.22544783
v -0.38498784 0.28935067 0.20408852
v -0.37318393 0.30226207 0.15523769
v -0.34972435 0.31599449 0.18679435
v -0.34077267 0.32540604 0.23388822
v -0.41047236 0.27726034 0.18083442
v -0.34077267 0.37679502 0.21552608
v -0.34077267 0.37832427 0.21177098
v -0.34077267 0.37985352 0.20532873
v -0.34314329 0.37985352 0.19929990
v -0.36563981 0.36883057 0.17432328
v -0.38608672 0.35253226 0.18135117
v -0.43689531 0.31574818 0.17060262
v -0.43473454 0.31313103 0.17893965
v -0.42338751 0.28960724 0.19327107
v -0.43666069 0.29835171 0.18186793
v -0.43940176 0.30879985 0.17459888
v -0.45045251 0.30507422 0.15947510
v -0.45161310 0.29607322 0.16102537
v -0.44743979 0.29607322 0.16726091
v -0.43179593 0.29494422 0.18634651
v -0.43557417 0.29003832 0.18048992
v -0.42640023 0.28729797 0.18679435
v -0.43735214 0.27690114 0.15682241
v -0.43989567 0.27630585 0.14938110
v -0.34077267 0.32396920 0.17339311
v -0.41047236 0.27726034 0.18014540
v -0.39612497 0.28838592 0.14938110
v -0.38843271 0.29152652 0.16185219
v -0.39723621 0.28907357 0.13987276
v -0.34553863 0.32497500 0.12443893
v -0.36822038 0.30625453 0.15041462
v -0.34483487 0.32418472 0.13691002
v -0.34077267 0.32485185 0.16278234
v -0.43272195 0.27630585 0.14938110
v -0.44188354 0.27501265 0.09946230
v -0.34077267 0.37985352 -0.09466635
v -0.36037994 0.37985352 0.13132902
v -0.36249131 0.37985352 0.12288865
v -0.38670409 0.36575155 0.10773043
v -0.38693867 0.35320965 0.17432328
v -0.39821163 0.36468417 0.05577905
v -0.40373084 0.36102011 0.05081818
v -0.45258856 0.30621348 0.14938110
v -0.44071058 0.29494422 0.17552905
v -0.45720639 0.29607322 0.14938110
v -0.45044015 0.28670273 0.15895835
v -0.43908076 0.28702087 0.17218733
v -0.44237745 0.28269995 0.16205889
v -0.44614332 0.27818409 0.14938110
v -0.44926715 0.27655216 0.10848834
v -0.44999563 0.27623401 0.09946230
v -0.43172186 0.27615191 0.09946230
v -0.42299239 0.27729113 0.11720431
v -0.42398016 0.27760932 0.10886729
v -0.41658423 0.27987754 0.12443893
v -0.41806587 0.28033937 0.11258795
v -0.40582986 0.28611770 0.12443893
v -0.34077267 0.33177966 0.10204609
v -0.34077267 0.33049672 0.11220899
v -0.34077267 0.32876221 0.12774618
v -0.45013146 0.27645980 0.08699122
v -0.44935358 0.27691141 0.07452013
v -0.44843988 0.27726034 0.06752668
v -0.44188354 0.27581324 0.08699122
v -0.34077267 0.37516314 -0.08908537
v -0.34625480 0.37614842 -0.09494195
v -0.34461262 0.37985352 -0.09735349
v -0.38530884 0.37985352 0.02308551
v -0.41252198 0.35386652 0.04961241
v -0.42519020 0.35406151 -0.03775410
v -0.44792134 0.32714059 0.01667772
v -0.45940419 0.31354154 0.03710687
v -0.46404670 0.30664452 0.04961241
v -0.46339233 0.30548477 0.06208349
v -0.45273670 0.28442424 0.14938110
v -0.46662726 0.29607322 0.06208349
v -0.46299721 0.28632296 0.07452013
v -0.46383680 0.28610744 0.06208349
v -0.45558892 0.28008280 0.07452013
v -0.43391962 0.27670615 0.08699122
v -0.43524076 0.27718850 0.07886089
v -0.42547416 0.27827645 0.09946230
v -0.40753376 0.28713376 0.11193339
v -0.42249852 0.28938146 0.04192994
v -0.39642130 0.31361338 -0.00030639
v -0.34077267 0.33411972 0.08867929
v -0.45330468 0.27964145 0.06284141
v -0.45435417 0.28199182 0.04961241
v -0.44992156 0.28904278 0.01619541
v -0.44188354 0.28363396 0.03710687
v -0.44188354 0.28088334 0.04961241
v -0.44667427 0.27726034 0.06752668
v -0.44225398 0.27690114 0.07462348
v -0.43835227 0.27757853 0.07059277
v -0.34077267 0.37412651 -0.08705278
v -0.36925755 0.34948402 -0.07306587
v -0.35747837 0.36259042 -0.08415894
v -0.36450390 0.36590553 -0.09246152
v -0.35455208 0.37419834 -0.09663003
v -0.37331976 0.35222438 -0.08140291
v -0.35455208 0.37985352 -0.10114305
v -0.39214919 0.37985352 -0.02524856
v -0.39690285 0.37604579 -0.02524856
v -0.44892143 0.32791035 -0.00030639
v -0.39890307 0.37985352 -0.07502956
v -0.40006371 0.37888873 -0.07516736
v -0.42554828 0.35481074 -0.05022519
v -0.46015735 0.31420867 0.02463578
v -0.46376273 0.30730138 0.03710687
v -0.46689891 0.29607322 0.04961241
v -0.46344168 0.28692851 0.04961241
v -0.42940059 0.28470134 0.04961241
v -0.42914130 0.28744165 0.03752028
v -0.43478393 0.28944303 0.01709112
v -0.41951048 0.30028121 -0.00030639
v -0.41326282 0.30371943 -0.00030639
v -0.40376788 0.31163257 -0.01257077
v -0.38507427 0.32685319 -0.03306883
v -0.38398770 0.32615527 -0.02524856
v -0.34077267 0.33653162 0.07617376
v -0.46199708 0.28849881 0.03710687
v -0.46102166 0.28942251 0.02980336
v -0.45435417 0.28493738 0.03710687
v -0.44188354 0.29105439 0.00954646
v -0.44188354 0.28895037 0.01578200
v -0.44188354 0.28657953 0.02463578
v -0.45418131 0.28798562 0.02525589
v -0.45011910 0.30057883 -0.00953913
v -0.44132791 0.29997332 -0.01332868
v -0.44188354 0.29455424 -0.00030639
v -0.44225398 0.27838934 0.06284141
v -0.34077267 0.36989800 -0.07513291
v -0.36093556 0.35231674 -0.06838060
v -0.37656705 0.34092433 -0.06269627
v -0.38566692 0.33971327 -0.06896626
v -0.37282589 0.36455075 -0.09401179
v -0.36801048 0.37041114 -0.09752574
v -0.38164175 0.35109538 -0.08260867
v -0.36719557 0.37985352 -0.10345123
v -0.44920544 0.32833113 -0.01277747
v -0.39826102 0.37985352 -0.08474461
v -0.39984145 0.37876557 -0.08371108
v -0.42458518 0.35398967 -0.06269627
v -0.43709285 0.34138620 -0.03775410
v -0.46279963 0.30796851 0.02463578
v -0.44869917 0.32798219 -0.02145900
v -0.45295896 0.32103385 -0.01277747
v -0.46162668 0.30636742 0.01436953
v -0.46517030 0.29607322 0.03710687
v -0.43457404 0.30206703 -0.01949533
v -0.43000560 0.30052752 -0.01288083
v -0.42940059 0.29639137 -0.00030639
v -0.42146135 0.30149231 -0.00878122
v -0.40757079 0.31292573 -0.02524856
v -0.38743258 0.32800272 -0.04137140
v -0.37357905 0.33988774 -0.05559946
v -0.37775241 0.33044540 -0.02524856
v -0.34077267 0.33665477 0.07555365
v -0.46262677 0.29605270 0.02525589
v -0.46162668 0.30019910 0.01436953
v -0.45231691 0.30794799 -0.01332868
v -0.44999563 0.31170441 -0.02211357
v -0.44511851 0.30339102 -0.01787615
v -0.43679652 0.30206703 -0.01949533
v -0.40976860 0.31427025 -0.03251762
v -0.40942287 0.32692503 -0.05701193
v -0.39198869 0.33901536 -0.06996533
v -0.41692996 0.31301809 -0.03479135
v -0.41692996 0.31632295 -0.04102689
v -0.37950570 0.36391441 -0.09449409
v -0.39198869 0.35003826 -0.08350439
v -0.39198869 0.34379810 -0.07620088
v -0.37878958 0.37985352 -0.10134976
v -0.37950570 0.37092432 -0.09855926
v -0.38858085 0.37985352 -0.09611327
v -0.41059583 0.36375020 -0.08116175
v -0.42343690 0.35267594 -0.06934522
v -0.43631497 0.34065750 -0.04612558
v -0.46024378 0.30974407 0.01099338
v -0.44140203 0.33349364 -0.03775410
v -0.44995860 0.32103385 -0.02318153
v -0.45778668 0.30855354 -0.00030639
v -0.42940059 0.31196098 -0.03610048
v -0.42625204 0.30301130 -0.01708379
v -0.41692996 0.30895379 -0.02524856
v -0.43866096 0.31285389 -0.03427460
v -0.44699527 0.32103385 -0.02941708
v -0.43759907 0.32444129 -0.04643563
v -0.42940059 0.31611765 -0.04233602
v -0.41692996 0.32172151 -0.05022519
v -0.41692996 0.32643241 -0.05756315
v -0.40444696 0.33781452 -0.07123999
v -0.38755604 0.36379126 -0.09452855
v -0.40444696 0.34423945 -0.07747554
v -0.40444696 0.35047961 -0.08281537
v -0.38917351 0.37092432 -0.09597547
v -0.39540885 0.37092432 -0.09187586
v -0.41111441 0.35543682 -0.08167851
v -0.43762379 0.33349364 -0.04743469
v -0.42347394 0.34597396 -0.06934522
v -0.42462221 0.32649399 -0.05739090
v -0.42330108 0.33955933 -0.06906962
v -0.41692996 0.33837902 -0.07034428
v -0.41111441 0.35169067 -0.08167851
f 1 2 10
f 1 10 23
f 1 23 42
f 1 42 70
f 1 70 40
f 1 40 66
f 1 66 65
f 1 65 64
f 1 64 63
f 1 63 91
f 1 91 99
f 1 99 126
f 1 126 125
f 1 125 124
f 1 124 152
f 1 152 186
f 1 186 224
f 1 224 198
f 1 198 161
f 1 161 131
f 1 131 102
f 1 102 74
f 1 74 73
f 1 73 72
f 1 72 47
f 1 47 46
f 1 46 45
f 1 45 24
f 1 24 12
f 1 12 3
f 1 3 4
f 1 4 5
f 1 5 6
f 1 6 7
f 1 7 8
f 1 8 9
f 1 9 2
f 2 9 11
f 2 11 10
f 3 12 4
f 4 12 13
f 4 13 14
f 4 14 15
f 4 15 6
f 4 6 5
f 6 16 7
f 6 15 17
f 6 17 18
f 6 18 16
f 7 16 19
f 7 19 9
f 7 9 8
f 9 10 11
f 9 19 20
f 9 20 21
f 9 21 22
f 9 22 10
f 10 22 23
f 12 24 13
f 13 24 14
f 14 25 26
f 14 26 27
f 14 27 17
f 14 17 15
f 14 24 25
f 16 18 28
f 16 28 19
f 17 29 18
f 17 27 30
f 17 30 31
f 17 31 29
f 18 29 32
f 18 32 33
f 18 33 34
f 18 34 28
f 19 28 35
f 19 35 20
f 20 35 36
f 20 36 37
f 20 37 21
f 21 38 39
f 21 39 40
f 21 40 41
f 21 41 42
f 21 42 22
f 21 37 43
f 21 43 44
f 21 44 38
f 22 42 23
f 24 45 25
f 25 45 46
f 25 46 47
f 25 47 48
f 25 48 49
f 25 49 50
f 25 50 26
f 26 50 51
f 26 51 27
f 27 51 52
f 27 52 30
f 28 34 53
f 28 53 35
f 29 31 30
f 29 30 54
f 29 54 32
f 30 55 54
f 30 52 56
f 30 56 55
f 32 54 57
f 32 57 58
f 32 58 33
f 33 58 53
f 33 53 34
f 35 53 59
f 35 59 36
f 36 43 37
f 36 59 60
f 36 60 61
f 36 61 62
f 36 62 43
f 38 44 39
f 39 63 64
f 39 64 65
f 39 65 66
f 39 66 40
f 39 44 67
f 39 67 68
f 39 68 69
f 39 69 63
f 40 70 41
f 41 70 42
f 43 62 71
f 43 71 44
f 44 71 92
f 44 92 67
f 47 72 48
f 48 72 73
f 48 73 74
f 48 74 75
f 48 75 76
f 48 76 77
f 48 77 49
f 49 77 78
f 49 78 50
f 50 78 51
f 51 78 79
f 51 79 52
f 52 79 56
f 53 58 80
f 53 80 59
f 54 55 56
f 54 56 81
f 54 81 57
f 56 79 82
f 56 82 83
f 56 83 84
f 56 84 85
f 56 85 81
f 57 81 86
f 57 86 87
f 57 87 80
f 57 80 58
f 59 80 60
f 60 80 61
f 61 80 88
f 61 88 89
f 61 89 62
f 62 89 90
f 62 90 100
f 62 100 71
f 63 69 91
f 67 92 93
f 67 93 94
f 67 94 68
f 68 93 95
f 68 95 96
f 68 96 97
f 68 97 98
f 68 98 69
f 68 94 93
f 69 99 91
f 69 98 99
f 71 100 101
f 71 101 92
f 74 102 133
f 74 133 167
f 74 167 205
f 74 205 239
f 74 239 241
f 74 241 207
f 74 207 171
f 74 171 168
f 74 168 134
f 74 134 104
f 74 104 103
f 74 103 75
f 75 103 76
f 76 103 104
f 76 104 105
f 76 105 77
f 77 105 106
f 77 106 78
f 78 106 105
f 78 105 107
f 78 107 108
f 78 108 109
f 78 109 83
f 78 83 79
f 79 83 82
f 80 87 88
f 81 85 110
f 81 110 87
f 81 87 86
f 83 109 111
f 83 111 84
f 84 111 112
f 84 112 85
f 85 87 110
f 85 112 87
f 87 112 113
f 87 113 88
f 88 113 114
f 88 114 89
f 89 115 90
f 89 114 115
f 90 115 116
f 90 116 117
f 90 117 101
f 90 101 100
f 92 101 118
f 92 118 119
f 92 119 120
f 92 120 121
f 92 121 93
f 93 121 122
f 93 122 95
f 95 122 123
f 95 123 124
f 95 124 96
f 96 98 97
f 96 124 125
f 96 125 98
f 98 125 126
f 98 126 99
f 101 117 127
f 101 127 128
f 101 128 129
f 101 129 130
f 101 130 118
f 102 131 132
f 102 132 133
f 104 134 105
f 105 134 107
f 107 134 108
f 108 135 109
f 108 134 135
f 109 135 136
f 109 136 137
f 109 137 138
f 109 138 139
f 109 139 140
f 109 140 111
f 111 141 112
f 111 140 142
f 111 142 143
f 111 143 141
f 112 141 115
f 112 115 114
f 112 114 113
f 115 141 116
f 116 141 117
f 117 141 143
f 117 143 144
f 117 144 145
f 117 145 127
f 118 130 146
f 118 146 120
f 118 120 119
f 120 122 121
f 120 146 147
f 120 147 148
f 120 148 122
f 122 149 123
f 122 148 150
f 122 150 149
f 123 149 124
f 124 149 150
f 124 150 151
f 124 151 152
f 127 145 153
f 127 153 128
f 128 153 129
f 129 153 154
f 129 154 155
f 129 155 156
f 129 156 157
f 129 157 158
f 129 158 130
f 130 158 159
f 130 159 160
f 130 160 147
f 130 147 146
f 131 161 162
f 131 162 163
f 131 163 132
f 132 164 165
f 132 165 133
f 132 163 166
f 132 166 164
f 133 165 167
f 134 168 169
f 134 169 136
f 134 136 135
f 136 170 137
f 136 169 171
f 136 171 172
f 136 172 173
f 136 173 170
f 137 170 174
f 137 174 138
f 138 174 139
f 139 174 175
f 139 175 176
f 139 176 142
f 139 142 140
f 142 176 144
f 142 144 143
f 144 176 177
f 144 177 153
f 144 153 145
f 147 160 178
f 147 178 148
f 148 178 150
f 150 178 179
f 150 179 180
f 150 180 181
f 150 181 182
f 150 182 183
f 150 183 184
f 150 184 151
f 151 184 185
f 151 185 152
f 152 185 184
f 152 184 186
f 153 177 154
f 154 177 187
f 154 187 188
f 154 188 189
f 154 189 155
f 155 190 191
f 155 191 192
f 155 192 156
f 155 189 193
f 155 193 188
f 155 188 194
f 155 194 195
f 155 195 196
f 155 196 190
f 156 192 180
f 156 180 157
f 157 160 197
f 157 197 158
f 157 180 160
f 158 197 160
f 158 160 159
f 160 180 178
f 161 198 199
f 161 199 162
f 162 166 163
f 162 199 200
f 162 200 201
f 162 201 166
f 164 202 165
f 164 166 202
f 165 203 167
f 165 202 203
f 166 204 202
f 166 201 204
f 167 203 205
f 168 171 169
f 170 173 206
f 170 206 174
f 171 207 208
f 171 208 172
f 172 208 173
f 173 208 209
f 173 209 210
f 173 210 206
f 174 211 175
f 174 206 212
f 174 212 213
f 174 213 211
f 175 211 176
f 176 211 214
f 176 214 215
f 176 215 177
f 177 215 187
f 178 180 179
f 180 192 191
f 180 191 190
f 180 190 216
f 180 216 217
f 180 217 218
f 180 218 219
f 180 219 181
f 181 219 220
f 181 220 183
f 181 183 182
f 183 220 184
f 184 220 221
f 184 221 222
f 184 222 223
f 184 223 186
f 186 223 224
f 187 215 188
f 188 193 189
f 188 215 225
f 188 225 226
f 188 226 194
f 190 196 216
f 194 227 228
f 194 228 229
f 194 229 195
f 194 226 227
f 195 229 230
f 195 230 196
f 196 230 216
f 198 224 199
f 199 222 200
f 199 224 222
f 200 222 221
f 200 221 231
f 200 231 201
f 201 232 233
f 201 233 204
f 201 231 234
f 201 234 235
f 201 235 232
f 202 236 203
f 202 204 237
f 202 237 236
f 203 236 205
f 204 233 238
f 204 238 237
f 205 236 240
f 205 240 239
f 206 210 212
f 207 241 208
f 208 241 242
f 208 242 243
f 208 243 209
f 209 243 244
f 209 244 210
f 210 244 212
f 211 213 245
f 211 245 214
f 212 244 246
f 212 246 247
f 212 247 213
f 213 247 248
f 213 248 214
f 213 214 245
f 214 226 215
f 214 248 226
f 215 226 225
f 216 230 249
f 216 249 235
f 216 235 234
f 216 234 250
f 216 250 217
f 217 250 219
f 217 219 218
f 219 250 251
f 219 251 231
f 219 231 220
f 220 231 221
f 222 224 223
f 226 248 228
f 226 228 227
f 228 252 229
f 228 248 247
f 228 247 253
f 228 253 254
f 228 254 252
f 229 252 230
f 230 252 255
f 230 255 249
f 231 251 234
f 232 256 257
f 232 257 258
f 232 258 233
f 232 235 256
f 233 258 238
f 234 251 250
f 235 249 256
f 236 259 240
f 236 237 259
f 237 238 258
f 237 258 260
f 237 260 261
f 237 261 259
f 239 262 241
f 239 240 259
f 239 259 262
f 241 262 263
f 241 263 264
f 241 264 242
f 242 264 243
f 243 265 244
f 243 264 266
f 243 266 265
f 244 265 246
f 246 265 247
f 247 265 253
f 249 255 257
f 249 257 256
f 252 254 267
f 252 267 255
f 253 265 254
f 254 265 268
f 254 268 267
f 255 267 257
f 257 267 258
f 258 267 269
f 258 269 260
f 259 261 270
f 259 270 262
f 260 269 261
f 261 269 270
f 262 270 264
f 262 264 263
f 264 270 266
f 265 266 268
f 266 270 268
f 267 268 269
f 268 270 269

