v 0.43035623 -0.49911183 -0.11236116
v 0.43011099 -0.49911183 -0.12505579
v 0.41904924 -0.49911183 -0.10045787
v 0.48761398 -0.58360646 -0.11891620
v 0.50094745 -0.59485613 -0.12975775
v 0.50481970 -0.59896113 -0.13786253
v 0.50471645 -0.59896113 -0.14918548
v 0.41644193 -0.49911183 -0.13307484
v 0.50444538 -0.59896113 -0.14976581
v 0.49867573 -0.59896113 -0.15744193
v 0.41171779 -0.49911183 -0.09505689
v 0.45069849 -0.54522469 -0.10603032
v 0.49001477 -0.59192397 -0.11713565
v 0.49814652 -0.59896113 -0.12156724
v 0.49857245 -0.59896113 -0.12222670
v 0.50201878 -0.59896113 -0.12757494
v 0.41469941 -0.49911183 -0.13364197
v 0.48703315 -0.59896113 -0.15787059
v 0.42761984 -0.53225483 -0.14415379
v 0.40321173 -0.49911183 -0.13627323
v 0.40630952 -0.49911183 -0.13579181
v 0.41130473 -0.49911183 -0.09481949
v 0.41139509 -0.49947346 -0.09476673
v 0.46323168 -0.57004041 -0.10613584
v 0.49257048 -0.59896113 -0.11662127
v 0.47789463 -0.59896113 -0.15709902
v 0.42312803 -0.53225483 -0.14415379
v 0.39407320 -0.49911183 -0.13587095
v 0.40571580 -0.49911183 -0.09255093
v 0.41316342 -0.50779097 -0.09373797
v 0.46373507 -0.57731214 -0.10603693
v 0.48170234 -0.59896113 -0.11213035
v 0.47473228 -0.59896113 -0.15640658
v 0.42243102 -0.53988819 -0.14460223
v 0.39066562 -0.49911183 -0.13542911
v 0.39407320 -0.49911183 -0.09050661
v 0.40695490 -0.50315819 -0.09249818
v 0.41325378 -0.51493564 -0.09373137
v 0.46354146 -0.58445678 -0.10616882
v 0.46874320 -0.59896113 -0.11019812
v 0.47317047 -0.59896113 -0.15600431
v 0.42386376 -0.55235958 -0.14447692
v 0.38360520 -0.49911183 -0.13312100
v 0.38239191 -0.49911183 -0.09186510
v 0.39407320 -0.50245448 -0.09078358
v 0.41303435 -0.52148408 -0.09385007
v 0.45995318 -0.58445678 -0.10616882
v 0.45164073 -0.58311777 -0.10651833
v 0.45641652 -0.59896113 -0.11345586
v 0.46510327 -0.59896113 -0.15371598
v 0.42502542 -0.55901554 -0.14397574
v 0.38452165 -0.50245448 -0.13316716
v 0.38148838 -0.49911183 -0.13217797
v 0.37889396 -0.49911183 -0.09310488
v 0.38259842 -0.50145755 -0.09257072
v 0.38741293 -0.50914955 -0.09369180
v 0.39407320 -0.51190576 -0.09301915
v 0.40272124 -0.52084879 -0.09400834
v 0.41103368 -0.52148408 -0.09385007
v 0.43692615 -0.57177036 -0.10604352
v 0.42355398 -0.56034478 -0.10532471
v 0.45051778 -0.59896113 -0.11673998
v 0.45628743 -0.59896113 -0.14869089
v 0.39945565 -0.53503059 -0.13226370
v 0.38645777 -0.51123136 -0.13234283
v 0.45419642 -0.59896113 -0.14745770
v 0.45201506 -0.59896113 -0.14582882
v 0.44947226 -0.59726049 -0.14456926
v 0.37759031 -0.49911183 -0.12891363
v 0.37386004 -0.49911183 -0.09753646
v 0.39899097 -0.53518699 -0.10502135
v 0.41114985 -0.54793204 -0.10509390
v 0.44860746 -0.59794466 -0.11727414
v 0.44788465 -0.59896113 -0.12084183
v 0.42436715 -0.57215156 -0.13279787
v 0.37511206 -0.50908112 -0.11929210
v 0.38869077 -0.51954887 -0.12998856
v 0.37589942 -0.49911183 -0.12732433
v 0.44993695 -0.59896113 -0.14319757
v 0.37296943 -0.49911183 -0.09863117
v 0.37296943 -0.50107636 -0.10060296
v 0.38696117 -0.52220735 -0.10521919
v 0.42432842 -0.57212222 -0.11735987
v 0.44606469 -0.59896113 -0.12509536
v 0.42388957 -0.57266957 -0.12509536
v 0.41262130 -0.55881028 -0.11979988
v 0.44819443 -0.59896113 -0.13961669
v 0.44723927 -0.59896113 -0.13757896
v 0.44701985 -0.59896113 -0.13639193
v 0.37502170 -0.50916909 -0.11262494
v 0.37296943 -0.50641287 -0.11262494
v 0.37296943 -0.50628581 -0.11648279
v 0.37296943 -0.50254243 -0.12167275
v 0.37296943 -0.50245448 -0.12173211
v 0.37296943 -0.49911183 -0.12390174
v 0.37296943 -0.50200488 -0.10154599
v 0.37516369 -0.50895406 -0.10605011
v 0.41262130 -0.55881028 -0.11848096
f 1 2 8
f 1 8 17
f 1 17 21
f 1 21 20
f 1 20 28
f 1 28 35
f 1 35 43
f 1 43 53
f 1 53 69
f 1 69 78
f 1 78 95
f 1 95 80
f 1 80 70
f 1 70 54
f 1 54 44
f 1 44 36
f 1 36 29
f 1 29 22
f 1 22 11
f 1 11 3
f 1 3 4
f 1 4 5
f 1 5 6
f 1 6 7
f 1 7 2
f 2 7 9
f 2 9 10
f 2 10 8
f 3 11 12
f 3 12 13
f 3 13 4
f 4 13 14
f 4 14 15
f 4 15 16
f 4 16 5
f 5 16 6
f 6 16 15
f 6 15 14
f 6 14 25
f 6 25 32
f 6 32 40
f 6 40 49
f 6 49 62
f 6 62 74
f 6 74 84
f 6 84 89
f 6 89 88
f 6 88 87
f 6 87 79
f 6 79 67
f 6 67 66
f 6 66 63
f 6 63 50
f 6 50 41
f 6 41 33
f 6 33 26
f 6 26 18
f 6 18 10
f 6 10 9
f 6 9 7
f 8 10 17
f 10 18 19
f 10 19 20
f 10 20 21
f 10 21 17
f 11 22 23
f 11 23 24
f 11 24 12
f 12 24 13
f 13 24 25
f 13 25 14
f 18 26 27
f 18 27 19
f 19 27 20
f 20 27 28
f 22 29 23
f 23 30 24
f 23 29 30
f 24 31 32
f 24 32 25
f 24 30 31
f 26 33 34
f 26 34 27
f 27 34 35
f 27 35 28
f 29 36 37
f 29 37 30
f 30 37 38
f 30 38 31
f 31 39 32
f 31 38 39
f 32 39 40
f 33 41 34
f 34 42 43
f 34 43 35
f 34 41 42
f 36 44 45
f 36 45 46
f 36 46 37
f 37 46 38
f 38 46 39
f 39 47 40
f 39 46 59
f 39 59 47
f 40 47 48
f 40 48 49
f 41 50 42
f 42 51 52
f 42 52 43
f 42 50 51
f 43 52 53
f 44 54 55
f 44 55 56
f 44 56 57
f 44 57 45
f 45 57 58
f 45 58 59
f 45 59 46
f 47 59 58
f 47 58 48
f 48 60 49
f 48 58 60
f 49 60 61
f 49 61 62
f 50 63 51
f 51 64 65
f 51 65 53
f 51 53 52
f 51 63 66
f 51 66 67
f 51 67 68
f 51 68 64
f 53 65 69
f 54 70 56
f 54 56 55
f 56 58 57
f 56 70 71
f 56 71 72
f 56 72 61
f 56 61 60
f 56 60 58
f 61 72 73
f 61 73 62
f 62 73 74
f 64 75 76
f 64 76 77
f 64 77 65
f 64 68 75
f 65 77 78
f 65 78 69
f 67 79 68
f 68 79 75
f 70 80 81
f 70 81 82
f 70 82 71
f 71 82 83
f 71 83 73
f 71 73 72
f 73 83 74
f 74 83 84
f 75 85 86
f 75 86 76
f 75 79 87
f 75 87 88
f 75 88 89
f 75 89 85
f 76 90 91
f 76 91 92
f 76 92 93
f 76 93 77
f 76 86 90
f 77 93 94
f 77 94 95
f 77 95 78
f 80 95 94
f 80 94 93
f 80 93 92
f 80 92 91
f 80 91 96
f 80 96 81
f 81 96 82
f 82 96 97
f 82 97 83
f 83 97 98
f 83 98 84
f 84 98 85
f 84 85 89
f 85 98 86
f 86 98 90
f 90 98 97
f 90 97 91
f 91 97 96

