v 0.17500260 -0.23196695 -0.03107974
v 0.17539315 -0.23105395 -0.03107974
v 0.17508684 -0.23576221 -0.03107974
v 0.17515576 -0.23570850 -0.03094868
v 0.22559832 -0.29663842 0.03088485
v 0.22559832 -0.29650415 0.03088485
v 0.17816531 -0.22481505 -0.03107974
v 0.17853289 -0.24261872 -0.03107974
v 0.20053403 -0.27182606 -0.00626020
v 0.23287333 -0.29153631 0.03208308
v 0.22449559 -0.29911786 0.02461912
v 0.22915159 -0.30535676 0.02461912
v 0.23783564 -0.30915201 0.03095974
v 0.23294991 -0.30161521 0.03205812
v 0.22938132 -0.28817966 0.02934962
v 0.18440650 -0.21905056 -0.03107974
v 0.18370963 -0.25253651 -0.03107974
v 0.18563942 -0.25583945 -0.03107974
v 0.24324212 -0.30259087 0.03264475
v 0.24382412 -0.28971029 0.03267595
v 0.23769780 -0.28395475 0.03100343
v 0.22378340 -0.29975339 0.01214383
v 0.23474951 -0.31049466 0.01501458
v 0.23539277 -0.31019928 0.02461912
v 0.23834106 -0.30915201 0.03095974
v 0.19040263 -0.22015154 -0.03043694
v 0.19079319 -0.21977560 -0.03107974
v 0.23931362 -0.28395475 0.03100343
v 0.18854942 -0.25877540 -0.03107974
v 0.25169644 -0.29827646 0.03186465
v 0.25169644 -0.29344288 0.03186465
v 0.24763009 -0.28512734 0.02944324
v 0.24203217 -0.31049466 0.01501458
v 0.19417797 -0.26329569 -0.03107974
v 0.19974527 -0.26568562 -0.03107974
v 0.20605537 -0.26827248 -0.03107974
v 0.24122809 -0.31019928 0.02461912
v 0.24746928 -0.30709326 0.02461912
v 0.25136714 -0.28339978 0.02111805
v 0.19462213 -0.22226400 -0.03107974
v 0.25218654 -0.29909996 0.02956181
v 0.25218654 -0.29544792 0.02960549
v 0.25218654 -0.29221659 0.02960549
v 0.25218654 -0.29220763 0.02959926
v 0.25218654 -0.28624622 0.02288419
v 0.24165694 -0.30001297 0.00388105
v 0.24600662 -0.30447059 0.01066476
v 0.25218654 -0.30104234 0.01418456
v 0.25299828 -0.30059478 0.01465261
v 0.21313127 -0.26683136 -0.03107974
v 0.25218654 -0.30200010 0.02461912
v 0.25136714 -0.28339978 0.01701163
v 0.20865905 -0.23364975 -0.03107974
v 0.20512876 -0.23010513 -0.03107974
v 0.19756277 -0.22429589 -0.03107974
v 0.25323567 -0.30086332 0.02461912
v 0.25317441 -0.28971029 0.02501853
v 0.25218654 -0.28624622 0.02063127
v 0.21822377 -0.26514856 -0.03107974
v 0.25218654 -0.29847338 0.01333581
v 0.25298296 -0.29034581 0.01455900
v 0.25218654 -0.28689965 0.01578219
v 0.21485430 -0.24258292 -0.03107974
v 0.21885172 -0.25914239 -0.03107974
v 0.24905446 -0.29032791 0.00831823
v 0.25218654 -0.29034581 0.01328589
v 0.25218654 -0.29032791 0.01328589
v 0.21825440 -0.25292140 -0.03107974
v 0.21678409 -0.24778349 -0.03107974
f 1 2 7
f 1 7 16
f 1 16 27
f 1 27 40
f 1 40 55
f 1 55 54
f 1 54 53
f 1 53 63
f 1 63 69
f 1 69 68
f 1 68 64
f 1 64 59
f 1 59 50
f 1 50 36
f 1 36 35
f 1 35 34
f 1 34 29
f 1 29 18
f 1 18 17
f 1 17 8
f 1 8 3
f 1 3 4
f 1 4 5
f 1 5 6
f 1 6 2
f 2 6 7
f 3 8 9
f 3 9 5
f 3 5 4
f 5 10 6
f 5 9 11
f 5 11 12
f 5 12 13
f 5 13 14
f 5 14 10
f 6 10 15
f 6 15 7
f 7 15 16
f 8 17 9
f 9 17 18
f 9 18 11
f 10 14 19
f 10 19 20
f 10 20 21
f 10 21 15
f 11 18 12
f 12 22 23
f 12 23 24
f 12 24 13
f 12 18 22
f 13 25 19
f 13 19 14
f 13 24 37
f 13 37 25
f 15 21 16
f 16 26 27
f 16 21 28
f 16 28 26
f 18 29 22
f 19 25 30
f 19 30 20
f 20 30 31
f 20 31 32
f 20 32 28
f 20 28 21
f 22 29 23
f 23 33 37
f 23 37 24
f 23 29 34
f 23 34 35
f 23 35 36
f 23 36 33
f 25 37 38
f 25 38 30
f 26 28 32
f 26 32 27
f 27 32 39
f 27 39 40
f 30 41 42
f 30 42 43
f 30 43 31
f 30 38 41
f 31 43 44
f 31 44 45
f 31 45 39
f 31 39 32
f 33 36 46
f 33 46 47
f 33 47 48
f 33 48 49
f 33 49 38
f 33 38 37
f 36 50 46
f 38 49 51
f 38 51 41
f 39 45 58
f 39 58 52
f 39 52 53
f 39 53 54
f 39 54 55
f 39 55 40
f 41 51 56
f 41 56 42
f 42 56 57
f 42 57 43
f 43 57 44
f 44 57 45
f 45 57 58
f 46 49 48
f 46 48 47
f 46 50 59
f 46 59 49
f 49 56 51
f 49 59 60
f 49 60 61
f 49 61 56
f 52 58 62
f 52 62 63
f 52 63 53
f 56 61 57
f 57 61 62
f 57 62 58
f 59 64 65
f 59 65 60
f 60 65 66
f 60 66 61
f 61 66 67
f 61 67 68
f 61 68 69
f 61 69 63
f 61 63 62
f 64 68 65
f 65 67 66
f 65 68 67

