v 0.63113162 -0.88923201 -0.10032259
v 0.64122493 -0.88923201 -0.10318263
v 0.63886033 -0.88133824 -0.10516694
v 0.63113162 -0.87997333 -0.10456456
v 0.62335409 -0.88061030 -0.10517707
v 0.62166916 -0.88923201 -0.10353191
v 0.62213719 -0.89917312 -0.10378502
v 0.63113162 -0.90090201 -0.10214492
v 0.64102142 -0.89900249 -0.10332942
v 0.64643845 -0.88923201 -0.11262329
v 0.64293834 -0.80339022 -0.15203612
v 0.64176217 -0.80105851 -0.15203612
v 0.63732600 -0.79242542 -0.15203612
v 0.63107058 -0.79242542 -0.14913053
v 0.61865742 -0.79242542 -0.14614900
v 0.61104673 -0.80553997 -0.14266127
v 0.60549949 -0.79242542 -0.15056814
v 0.61206828 -0.83215582 -0.13095790
v 0.61676085 -0.88923201 -0.11262329
v 0.61143743 -0.83933302 -0.12993538
v 0.62100167 -0.90268779 -0.11245624
v 0.62425352 -0.90832944 -0.11650585
v 0.63113162 -0.90713512 -0.10931780
v 0.63847775 -0.90844318 -0.11680957
v 0.64255169 -0.90257405 -0.11263847
v 0.64111097 -0.90170960 -0.12276249
v 0.64232382 -0.89047181 -0.12634134
v 0.64551051 -0.82608197 -0.15203612
v 0.64618612 -0.82183936 -0.15203612
v 0.64560413 -0.81437779 -0.15203612
v 0.64527447 -0.81222808 -0.15203612
v 0.60486052 -0.79242542 -0.15203612
v 0.61504338 -0.87675442 -0.12510115
v 0.62210055 -0.90170960 -0.12232211
v 0.61127465 -0.85179923 -0.12888754
v 0.61184852 -0.86113752 -0.12956078
v 0.61184852 -0.86113752 -0.13329149
v 0.62425352 -0.90832944 -0.11965442
v 0.63113162 -0.90861377 -0.11555420
v 0.63847775 -0.90844318 -0.11990752
v 0.63867716 -0.88713915 -0.13246131
v 0.63125370 -0.83975384 -0.15203612
v 0.62852281 -0.86117165 -0.14530870
v 0.60626460 -0.81443468 -0.15203612
v 0.60593494 -0.81437779 -0.15004675
v 0.62305290 -0.88644530 -0.13284603
v 0.61155549 -0.84792060 -0.14527834
v 0.61103454 -0.83693303 -0.15203612
v 0.60752631 -0.82685543 -0.15004675
v 0.63113162 -0.90861377 -0.12024162
v 0.63113162 -0.89493051 -0.13107433
v 0.63113162 -0.90170960 -0.12621479
v 0.62234066 -0.84495192 -0.15203612
v 0.62205580 -0.86117165 -0.14530870
v 0.61852311 -0.84509975 -0.15203612
v 0.60822226 -0.82685543 -0.15203612
v 0.61052988 -0.83851404 -0.14968229
f 1 2 3
f 1 3 4
f 1 4 5
f 1 5 6
f 1 6 7
f 1 7 8
f 1 8 9
f 1 9 2
f 2 9 10
f 2 10 11
f 2 11 12
f 2 12 13
f 2 13 3
f 3 13 14
f 3 14 15
f 3 15 4
f 4 15 5
f 5 15 16
f 5 16 17
f 5 17 18
f 5 18 6
f 6 19 7
f 6 18 20
f 6 20 19
f 7 21 22
f 7 22 23
f 7 23 8
f 7 19 21
f 8 23 9
f 9 23 24
f 9 24 25
f 9 25 10
f 10 25 26
f 10 26 27
f 10 27 28
f 10 28 29
f 10 29 30
f 10 30 31
f 10 31 11
f 11 31 30
f 11 30 29
f 11 29 28
f 11 28 42
f 11 42 53
f 11 53 55
f 11 55 48
f 11 48 56
f 11 56 44
f 11 44 32
f 11 32 13
f 11 13 12
f 13 32 17
f 13 17 15
f 13 15 14
f 15 17 16
f 17 32 20
f 17 20 18
f 19 33 34
f 19 34 21
f 19 20 35
f 19 35 36
f 19 36 37
f 19 37 33
f 20 32 35
f 21 34 38
f 21 38 22
f 22 38 50
f 22 50 39
f 22 39 23
f 23 39 24
f 24 39 50
f 24 50 40
f 24 40 25
f 25 40 26
f 26 40 41
f 26 41 28
f 26 28 27
f 28 41 43
f 28 43 42
f 32 44 45
f 32 45 35
f 33 37 34
f 34 46 38
f 34 37 47
f 34 47 48
f 34 48 46
f 35 45 36
f 36 45 37
f 37 45 49
f 37 49 47
f 38 46 51
f 38 51 52
f 38 52 50
f 40 50 52
f 40 52 51
f 40 51 41
f 41 51 43
f 42 43 53
f 43 51 54
f 43 54 55
f 43 55 53
f 44 56 49
f 44 49 45
f 46 55 54
f 46 54 51
f 46 48 55
f 47 49 57
f 47 57 48
f 48 57 56
f 49 56 57

