v 0.63134509 -0.79240886 -0.19656713
v 0.62747765 -0.78112966 -0.19441499
v 0.63143361 -0.78877854 -0.19576940
v 0.63535022 -0.79240886 -0.19617688
v 0.62164212 -0.79240886 -0.19625722
v 0.61865055 -0.78041621 -0.19444942
v 0.63579309 -0.78419342 -0.19308927
v 0.64090041 -0.79240886 -0.19506349
v 0.64070358 -0.79240886 -0.19510367
v 0.59370437 -0.75199264 -0.18842344
v 0.59305487 -0.73881962 -0.18530140
v 0.59370437 -0.73881962 -0.18517514
v 0.60292512 -0.73881962 -0.18261553
v 0.60376159 -0.73881962 -0.18235154
v 0.61350387 -0.79240886 -0.19434612
v 0.61160462 -0.78154410 -0.19399605
v 0.61271662 -0.74544022 -0.18148494
v 0.64724765 -0.79240886 -0.19131591
v 0.58054734 -0.73881962 -0.18522679
v 0.58123620 -0.73881962 -0.18526123
v 0.60951837 -0.73881962 -0.17642312
v 0.61202776 -0.79240886 -0.19386404
v 0.61175223 -0.78941859 -0.19395587
v 0.57108059 -0.73881962 -0.18280492
v 0.62517494 -0.75789979 -0.18152511
v 0.65240419 -0.79240886 -0.18505462
v 0.61038437 -0.73881962 -0.17499983
v 0.60870163 -0.79240886 -0.19168894
v 0.57321602 -0.74921221 -0.18231710
v 0.57069681 -0.73881962 -0.18269013
v 0.61455684 -0.74320538 -0.17499983
v 0.63719044 -0.77088923 -0.18025678
v 0.65247304 -0.79240886 -0.18486523
v 0.61233284 -0.73881962 -0.16786621
v 0.60033702 -0.79240886 -0.18451516
v 0.58615655 -0.77274635 -0.18245484
v 0.57538098 -0.75752733 -0.18080773
v 0.56500888 -0.73951732 -0.17888516
v 0.56490063 -0.73881962 -0.17902289
v 0.62079583 -0.75023519 -0.17499983
v 0.62621804 -0.75647285 -0.17499983
v 0.63781040 -0.77012326 -0.17194093
v 0.64867454 -0.78459738 -0.17499983
v 0.65353587 -0.79083504 -0.17499983
v 0.65472658 -0.79240886 -0.17499983
v 0.61321847 -0.73881962 -0.16252891
v 0.59845745 -0.79240886 -0.18278196
v 0.59755209 -0.78941859 -0.18363708
v 0.56159417 -0.74711900 -0.17021921
v 0.55921270 -0.73951732 -0.17264683
v 0.56454638 -0.73881962 -0.17871873
v 0.63781040 -0.77012326 -0.16759648
v 0.65218769 -0.79240886 -0.16504834
v 0.60616269 -0.73881962 -0.14927747
v 0.61399591 -0.74354637 -0.15433930
v 0.61551137 -0.74178366 -0.16252891
v 0.59631216 -0.79240886 -0.17798987
v 0.56080692 -0.74797411 -0.16252891
v 0.55419395 -0.73881962 -0.16234526
v 0.55423331 -0.73881962 -0.16251169
v 0.55840577 -0.73881962 -0.17205570
v 0.59572173 -0.79240886 -0.17499983
v 0.55906509 -0.73881962 -0.17281900
v 0.65209912 -0.79240886 -0.16476140
v 0.62495844 -0.75812539 -0.15621023
v 0.60605444 -0.73881962 -0.14917418
v 0.64850726 -0.79240886 -0.15893627
v 0.56560916 -0.75421177 -0.16252891
v 0.56116116 -0.74734455 -0.15342679
v 0.55556181 -0.73881962 -0.15044249
v 0.59608584 -0.79240886 -0.16276420
v 0.57676852 -0.76852320 -0.16252891
v 0.57184816 -0.76229080 -0.16252891
v 0.63836147 -0.78148118 -0.15553876
v 0.59472780 -0.73881962 -0.14125431
v 0.60135058 -0.74259684 -0.14306210
v 0.64106769 -0.78941859 -0.15445982
v 0.64202222 -0.79240886 -0.15419009
v 0.56355245 -0.74482641 -0.14510520
v 0.55584720 -0.73881962 -0.14970217
v 0.59702070 -0.79240886 -0.15983730
v 0.58198409 -0.73881962 -0.13802322
v 0.59467858 -0.73886683 -0.14122560
v 0.60286609 -0.75199264 -0.14274645
v 0.63106955 -0.79240886 -0.14913400
v 0.57186784 -0.74870331 -0.14228733
v 0.56493017 -0.73881962 -0.14085831
v 0.55685095 -0.73881962 -0.14843958
v 0.59670581 -0.78702110 -0.15377114
v 0.60549355 -0.79240886 -0.15057449
v 0.58122638 -0.73881962 -0.13794862
v 0.61865055 -0.79240886 -0.14615544
v 0.58498552 -0.76031824 -0.14293010
v 0.56812838 -0.74020457 -0.14022702
v 0.56819727 -0.73881962 -0.13972772
v 0.58122638 -0.73951732 -0.13808062
v 0.58099020 -0.75251202 -0.14136908
f 1 2 3
f 1 3 4
f 1 4 9
f 1 9 8
f 1 8 18
f 1 18 26
f 1 26 33
f 1 33 45
f 1 45 53
f 1 53 64
f 1 64 67
f 1 67 78
f 1 78 85
f 1 85 92
f 1 92 90
f 1 90 81
f 1 81 71
f 1 71 62
f 1 62 57
f 1 57 47
f 1 47 35
f 1 35 28
f 1 28 22
f 1 22 15
f 1 15 5
f 1 5 6
f 1 6 2
f 2 7 8
f 2 8 9
f 2 9 4
f 2 4 3
f 2 6 10
f 2 10 11
f 2 11 12
f 2 12 13
f 2 13 14
f 2 14 7
f 5 15 16
f 5 16 6
f 6 16 10
f 7 17 18
f 7 18 8
f 7 14 17
f 10 19 20
f 10 20 11
f 10 16 19
f 11 20 19
f 11 19 24
f 11 24 30
f 11 30 39
f 11 39 51
f 11 51 63
f 11 63 61
f 11 61 60
f 11 60 59
f 11 59 70
f 11 70 80
f 11 80 88
f 11 88 87
f 11 87 95
f 11 95 91
f 11 91 82
f 11 82 75
f 11 75 66
f 11 66 54
f 11 54 46
f 11 46 34
f 11 34 27
f 11 27 21
f 11 21 14
f 11 14 13
f 11 13 12
f 14 21 17
f 15 22 23
f 15 23 16
f 16 23 24
f 16 24 19
f 17 21 25
f 17 25 18
f 18 25 26
f 21 27 25
f 22 28 29
f 22 29 30
f 22 30 23
f 23 30 24
f 25 27 31
f 25 31 32
f 25 32 26
f 26 32 33
f 27 34 31
f 28 35 36
f 28 36 37
f 28 37 29
f 29 37 38
f 29 38 39
f 29 39 30
f 31 40 32
f 31 34 40
f 32 41 42
f 32 42 43
f 32 43 44
f 32 44 33
f 32 40 41
f 33 44 45
f 34 46 41
f 34 41 40
f 35 47 48
f 35 48 36
f 36 48 47
f 36 47 37
f 37 47 49
f 37 49 50
f 37 50 38
f 38 50 51
f 38 51 39
f 41 46 42
f 42 46 52
f 42 52 44
f 42 44 43
f 44 52 45
f 45 52 53
f 46 54 55
f 46 55 56
f 46 56 52
f 47 57 49
f 49 58 59
f 49 59 60
f 49 60 61
f 49 61 50
f 49 57 62
f 49 62 58
f 50 63 51
f 50 61 63
f 52 64 53
f 52 56 55
f 52 55 65
f 52 65 64
f 54 66 67
f 54 67 65
f 54 65 55
f 58 68 69
f 58 69 59
f 58 62 68
f 59 69 70
f 62 71 72
f 62 72 73
f 62 73 68
f 64 65 67
f 66 74 67
f 66 75 76
f 66 76 74
f 67 74 77
f 67 77 78
f 68 73 69
f 69 79 80
f 69 80 70
f 69 73 72
f 69 72 71
f 69 71 81
f 69 81 79
f 74 76 77
f 75 82 83
f 75 83 76
f 76 83 84
f 76 84 85
f 76 85 78
f 76 78 77
f 79 86 87
f 79 87 88
f 79 88 80
f 79 81 89
f 79 89 90
f 79 90 86
f 81 90 89
f 82 84 83
f 82 91 92
f 82 92 84
f 84 92 85
f 86 93 94
f 86 94 87
f 86 90 93
f 87 94 95
f 90 92 93
f 91 95 96
f 91 96 92
f 92 96 97
f 92 97 93
f 93 97 95
f 93 95 94
f 95 97 96

