v 0.57224855 -0.63679648 -0.23194056
v 0.56835318 -0.64045031 -0.22849388
v 0.55927530 -0.63969622 -0.22192875
v 0.54442213 -0.62721822 -0.21091459
v 0.55261932 -0.62721822 -0.21715731
v 0.57224855 -0.63185948 -0.23194056
v 0.57632173 -0.63679648 -0.23194056
v 0.57773595 -0.64749967 -0.22238011
v 0.56874272 -0.64735385 -0.22201083
v 0.56199361 -0.64626644 -0.21941409
v 0.54623432 -0.63672151 -0.20998259
v 0.51178580 -0.62213951 -0.18199291
v 0.53818956 -0.62721822 -0.20560389
v 0.52464896 -0.62221451 -0.19412079
v 0.52464896 -0.62032718 -0.19412079
v 0.55886037 -0.62721822 -0.22182324
v 0.56874272 -0.62037720 -0.21986543
v 0.57632173 -0.63185948 -0.23194056
v 0.56143469 -0.62057300 -0.21927926
v 0.58799088 -0.63510499 -0.21967786
v 0.58119095 -0.64010869 -0.22518786
v 0.57773595 -0.64749967 -0.21501780
v 0.56909839 -0.64730803 -0.21148904
v 0.56101128 -0.64647892 -0.21243277
v 0.51907691 -0.63998786 -0.17205731
v 0.51538477 -0.63670068 -0.17205731
v 0.50933004 -0.63043040 -0.17205731
v 0.50644239 -0.62730153 -0.17205731
v 0.53456518 -0.63550497 -0.19737990
v 0.50418985 -0.62450179 -0.17205731
v 0.50148004 -0.61474438 -0.17205731
v 0.51178580 -0.61888565 -0.18199291
v 0.50200508 -0.61026144 -0.17205731
v 0.54633593 -0.61913562 -0.20870473
v 0.57581363 -0.62058969 -0.21965441
v 0.52270128 -0.60777003 -0.18256149
v 0.53132190 -0.60788252 -0.18268459
v 0.58022558 -0.62797232 -0.22382208
v 0.58799088 -0.63240109 -0.21967786
v 0.50667103 -0.60653264 -0.17205731
v 0.58799088 -0.63510499 -0.21725697
v 0.58177522 -0.64026701 -0.21198143
v 0.57349338 -0.64542903 -0.20670002
v 0.56516916 -0.64632895 -0.20532840
v 0.56102824 -0.64632895 -0.20532840
v 0.53186382 -0.63793391 -0.17205731
v 0.57581363 -0.62058969 -0.21609049
v 0.53777463 -0.60841581 -0.18185223
v 0.50737390 -0.60635349 -0.17205731
v 0.51525776 -0.60493695 -0.17205731
v 0.58799088 -0.63240109 -0.21725697
v 0.57749883 -0.63711315 -0.20411502
v 0.56430538 -0.63531332 -0.19210436
v 0.55039220 -0.63372178 -0.18099642
v 0.54050985 -0.62929721 -0.17205731
v 0.57448415 -0.62152708 -0.20777271
v 0.53777463 -0.60841581 -0.18069747
v 0.53174531 -0.60726173 -0.17592604
v 0.52836647 -0.60665345 -0.17205731
v 0.57749883 -0.62984296 -0.20411502
v 0.56439007 -0.62721822 -0.19192851
v 0.55122206 -0.62721822 -0.18004096
v 0.54237282 -0.62645164 -0.17205731
v 0.56321302 -0.62036886 -0.19294845
v 0.53619108 -0.61001982 -0.17237969
v 0.53025488 -0.60726173 -0.17205731
v 0.55124749 -0.61955644 -0.17988856
v 0.54093326 -0.61647340 -0.17205731
v 0.53602169 -0.61016145 -0.17205731
f 1 2 3
f 1 3 4
f 1 4 5
f 1 5 6
f 1 6 18
f 1 18 7
f 1 7 8
f 1 8 2
f 2 8 9
f 2 9 10
f 2 10 3
f 3 10 11
f 3 11 12
f 3 12 13
f 3 13 4
f 4 13 14
f 4 14 15
f 4 15 5
f 5 16 6
f 5 15 16
f 6 17 18
f 6 16 19
f 6 19 17
f 7 18 39
f 7 39 20
f 7 20 21
f 7 21 8
f 8 22 9
f 8 21 20
f 8 20 41
f 8 41 22
f 9 22 23
f 9 23 24
f 9 24 10
f 10 24 25
f 10 25 26
f 10 26 27
f 10 27 28
f 10 28 29
f 10 29 11
f 11 29 28
f 11 28 30
f 11 30 12
f 12 30 31
f 12 31 32
f 12 32 15
f 12 15 14
f 12 14 13
f 15 32 31
f 15 31 33
f 15 33 34
f 15 34 16
f 16 34 19
f 17 35 18
f 17 19 36
f 17 36 37
f 17 37 35
f 18 38 39
f 18 35 38
f 19 34 40
f 19 40 36
f 20 39 51
f 20 51 41
f 22 41 42
f 22 42 43
f 22 43 44
f 22 44 23
f 23 44 45
f 23 45 24
f 24 45 25
f 25 46 55
f 25 55 63
f 25 63 68
f 25 68 69
f 25 69 66
f 25 66 59
f 25 59 50
f 25 50 49
f 25 49 40
f 25 40 33
f 25 33 31
f 25 31 30
f 25 30 28
f 25 28 27
f 25 27 26
f 25 45 44
f 25 44 46
f 33 40 34
f 35 47 51
f 35 51 39
f 35 39 38
f 35 37 48
f 35 48 57
f 35 57 47
f 36 40 49
f 36 49 50
f 36 50 37
f 37 50 48
f 41 51 60
f 41 60 52
f 41 52 42
f 42 52 43
f 43 52 53
f 43 53 54
f 43 54 46
f 43 46 44
f 46 54 55
f 47 56 51
f 47 57 56
f 48 50 58
f 48 58 57
f 50 59 58
f 51 56 60
f 52 61 53
f 52 60 61
f 53 61 62
f 53 62 63
f 53 63 54
f 54 63 55
f 56 64 60
f 56 57 65
f 56 65 64
f 57 58 59
f 57 59 66
f 57 66 65
f 60 64 67
f 60 67 61
f 61 67 62
f 62 67 63
f 63 67 68
f 64 65 67
f 65 66 69
f 65 69 67
f 67 69 68

