v 0.59571741 -0.79241413 -0.17500614
v 0.59608285 -0.79241413 -0.16276483
v 0.59631274 -0.79241413 -0.17799499
v 0.61103218 -0.83692331 -0.15203613
v 0.59702016 -0.79241413 -0.15983314
v 0.60822623 -0.82685427 -0.15203613
v 0.59845847 -0.79241413 -0.18278237
v 0.59959029 -0.79614913 -0.18171677
v 0.64880037 -0.85963700 -0.19510164
v 0.65593309 -0.87039079 -0.19200363
v 0.61852449 -0.84508591 -0.15203613
v 0.60315077 -0.79241413 -0.15329404
v 0.60626322 -0.81442750 -0.15203613
v 0.60033305 -0.79241413 -0.18451850
v 0.62441344 -0.82143067 -0.19411402
v 0.65593309 -0.86377667 -0.19986302
v 0.65593309 -0.87190037 -0.18748137
v 0.65593309 -0.86652349 -0.17431481
v 0.65593309 -0.86554304 -0.17319203
v 0.62233847 -0.84493809 -0.15203613
v 0.60486618 -0.79241413 -0.15203613
v 0.60871550 -0.79241413 -0.19169175
v 0.61235260 -0.79583009 -0.19376056
v 0.62263319 -0.81438078 -0.19511724
v 0.65593309 -0.85373877 -0.20400585
v 0.65593309 -0.86346539 -0.20002936
v 0.65593309 -0.86431359 -0.17218362
v 0.63125143 -0.83974790 -0.15203613
v 0.65593309 -0.85440015 -0.16492720
v 0.63732310 -0.79241413 -0.15203613
v 0.61204017 -0.79241413 -0.19386453
v 0.61351387 -0.79241413 -0.19434793
v 0.61838300 -0.80075571 -0.19543951
v 0.63112765 -0.81438078 -0.19877145
v 0.65593309 -0.84126529 -0.20513381
v 0.65593309 -0.84166215 -0.16006705
v 0.65593309 -0.83933552 -0.15918339
v 0.64551105 -0.82608393 -0.15203613
v 0.64202128 -0.79241413 -0.15419330
v 0.64176190 -0.80105918 -0.15203613
v 0.64962564 -0.79607912 -0.15648043
v 0.62164876 -0.79241413 -0.19625561
v 0.63112765 -0.80189953 -0.19865189
v 0.64360703 -0.82685427 -0.20202539
v 0.65593309 -0.83932775 -0.20503504
v 0.65593309 -0.82715773 -0.15713018
v 0.64618304 -0.82183530 -0.15203613
v 0.64851150 -0.79241413 -0.15893389
v 0.64294088 -0.80339357 -0.15203613
v 0.65131155 -0.80439736 -0.15543043
v 0.65593309 -0.80157272 -0.16182918
v 0.65589186 -0.80137041 -0.16187597
v 0.65215453 -0.79246080 -0.16479725
v 0.65210148 -0.79241413 -0.16476086
v 0.63134576 -0.79241413 -0.19657269
v 0.65593309 -0.82672196 -0.20404222
v 0.65593309 -0.81438078 -0.15721855
v 0.65242570 -0.81438078 -0.15523810
v 0.64560538 -0.81438078 -0.15203613
v 0.64527523 -0.81221760 -0.15203613
v 0.65593309 -0.80138598 -0.16194353
v 0.65218398 -0.79241413 -0.16504675
v 0.65593309 -0.80133931 -0.16202151
v 0.65593309 -0.79402486 -0.17500614
v 0.63534835 -0.79241413 -0.19617763
v 0.64070675 -0.79241413 -0.19510164
v 0.64096024 -0.79251528 -0.19508605
v 0.65593309 -0.81222536 -0.19827763
v 0.65472466 -0.79241413 -0.17500614
v 0.65593309 -0.79561225 -0.18026132
v 0.64090130 -0.79241413 -0.19506006
v 0.64928375 -0.79609469 -0.19334473
v 0.65356929 -0.80441294 -0.19565784
v 0.65593309 -0.81045123 -0.19750832
v 0.65247282 -0.79241413 -0.18486677
v 0.65593309 -0.79875589 -0.18803755
v 0.65245515 -0.79244523 -0.18502791
v 0.64724413 -0.79241413 -0.19131749
v 0.65593309 -0.80023436 -0.18977368
v 0.65593309 -0.80558013 -0.19495611
v 0.65240798 -0.79241413 -0.18505390
f 1 2 5
f 1 5 12
f 1 12 21
f 1 21 30
f 1 30 39
f 1 39 48
f 1 48 54
f 1 54 62
f 1 62 69
f 1 69 75
f 1 75 81
f 1 81 78
f 1 78 71
f 1 71 66
f 1 66 65
f 1 65 55
f 1 55 42
f 1 42 32
f 1 32 31
f 1 31 22
f 1 22 14
f 1 14 7
f 1 7 3
f 1 3 4
f 1 4 2
f 2 4 6
f 2 6 5
f 3 7 8
f 3 8 4
f 4 9 10
f 4 10 11
f 4 11 20
f 4 20 28
f 4 28 38
f 4 38 47
f 4 47 59
f 4 59 60
f 4 60 49
f 4 49 40
f 4 40 30
f 4 30 21
f 4 21 13
f 4 13 6
f 4 8 9
f 5 6 13
f 5 13 12
f 7 14 15
f 7 15 8
f 8 15 9
f 9 15 16
f 9 16 10
f 10 16 26
f 10 26 25
f 10 25 35
f 10 35 45
f 10 45 56
f 10 56 68
f 10 68 74
f 10 74 80
f 10 80 79
f 10 79 76
f 10 76 70
f 10 70 64
f 10 64 63
f 10 63 61
f 10 61 51
f 10 51 57
f 10 57 46
f 10 46 37
f 10 37 36
f 10 36 29
f 10 29 27
f 10 27 19
f 10 19 18
f 10 18 17
f 10 17 11
f 11 17 18
f 11 18 19
f 11 19 20
f 12 13 21
f 14 22 23
f 14 23 15
f 15 24 25
f 15 25 26
f 15 26 16
f 15 23 24
f 19 27 20
f 20 27 29
f 20 29 28
f 22 31 23
f 23 31 32
f 23 32 33
f 23 33 34
f 23 34 25
f 23 25 24
f 25 34 35
f 28 29 36
f 28 36 37
f 28 37 38
f 30 40 41
f 30 41 39
f 32 42 43
f 32 43 44
f 32 44 34
f 32 34 33
f 34 44 35
f 35 44 43
f 35 43 45
f 37 46 38
f 38 46 47
f 39 41 48
f 40 49 41
f 41 49 50
f 41 50 51
f 41 51 52
f 41 52 53
f 41 53 54
f 41 54 48
f 42 55 43
f 43 55 56
f 43 56 45
f 46 57 58
f 46 58 47
f 47 58 59
f 49 60 50
f 50 60 58
f 50 58 57
f 50 57 51
f 51 61 52
f 52 61 53
f 53 62 54
f 53 61 63
f 53 63 64
f 53 64 62
f 55 65 56
f 56 65 66
f 56 66 67
f 56 67 68
f 58 60 59
f 62 64 69
f 64 70 69
f 66 71 67
f 67 71 72
f 67 72 73
f 67 73 74
f 67 74 68
f 69 70 75
f 70 76 77
f 70 77 75
f 71 78 72
f 72 76 79
f 72 79 80
f 72 80 73
f 72 78 81
f 72 81 76
f 73 80 74
f 75 77 81
f 76 81 77

