v 0.17059874 -0.24806295 -0.06271960
v 0.17059874 -0.24731402 -0.05794464
v 0.17059874 -0.24635312 -0.06750773
v 0.22048711 -0.31651251 -0.07608949
v 0.22033535 -0.31651251 -0.07518718
v 0.17059874 -0.24574550 -0.05023885
v 0.17059874 -0.24198671 -0.07280300
v 0.17386553 -0.24919341 -0.07122232
v 0.22308297 -0.31651251 -0.08482272
v 0.22265964 -0.31651251 -0.06574923
v 0.17059874 -0.23889206 -0.03929925
v 0.22288329 -0.31651251 -0.06493914
v 0.18563075 -0.25583488 -0.03107974
v 0.17059874 -0.24108234 -0.07346820
v 0.18777133 -0.25987629 -0.08177992
v 0.22922516 -0.31651251 -0.09105980
v 0.17671698 -0.24402154 -0.03415547
v 0.17508758 -0.23575503 -0.03107974
v 0.17059874 -0.22812440 -0.03489971
v 0.23064689 -0.31651251 -0.05808295
v 0.19416912 -0.26328181 -0.03107974
v 0.18854609 -0.25877409 -0.03107974
v 0.18370582 -0.25252828 -0.03107974
v 0.17059874 -0.23989535 -0.07404778
v 0.22529544 -0.29739354 -0.09405650
v 0.23547119 -0.31651251 -0.09526835
v 0.17059874 -0.22959400 -0.07798630
v 0.18649337 -0.25290981 -0.08240560
v 0.17853807 -0.24262259 -0.03107974
v 0.17500770 -0.23196797 -0.03107974
v 0.17059874 -0.20301398 -0.03117195
v 0.17059874 -0.21471428 -0.03279214
v 0.24308304 -0.31651251 -0.05474377
v 0.20605415 -0.26828411 -0.03107974
v 0.19973623 -0.26568405 -0.03107974
v 0.22481620 -0.29034228 -0.09418822
v 0.23142165 -0.30205670 -0.09547911
v 0.23617407 -0.31651251 -0.09553839
v 0.18424097 -0.24044645 -0.08270198
v 0.17059874 -0.21660780 -0.07876346
v 0.17539109 -0.23104947 -0.03107974
v 0.17816267 -0.22481779 -0.03107974
v 0.18440071 -0.21905243 -0.03107974
v 0.19078252 -0.21978723 -0.03107974
v 0.17059874 -0.19053649 -0.03127732
v 0.24318688 -0.31651251 -0.05475036
v 0.21312287 -0.26682864 -0.03107974
v 0.20691677 -0.26538730 -0.08911689
v 0.22487211 -0.28313558 -0.09412895
v 0.24557506 -0.31651251 -0.09810040
v 0.24511181 -0.31651251 -0.09798184
v 0.17059874 -0.20411618 -0.07664931
v 0.19461641 -0.22226012 -0.03107974
v 0.17423294 -0.19053649 -0.03318731
v 0.17059874 -0.17831336 -0.03729048
v 0.19755571 -0.22430909 -0.03107974
v 0.20512763 -0.23010271 -0.03107974
v 0.20865799 -0.23364954 -0.03107974
v 0.25218052 -0.31651251 -0.05554729
v 0.21822672 -0.26514708 -0.03107974
v 0.23186894 -0.28309318 -0.09418822
v 0.24434503 -0.30281977 -0.09707296
v 0.23186894 -0.29034228 -0.09519591
v 0.25218052 -0.31651251 -0.09836384
v 0.17059874 -0.19094629 -0.07207852
v 0.19444069 -0.23082338 -0.08237267
v 0.23859421 -0.28372907 -0.09405650
v 0.17059874 -0.17764921 -0.03783713
v 0.21485610 -0.24259433 -0.03107974
v 0.23740411 -0.26004586 -0.05900502
v 0.21470434 -0.23202450 -0.05023885
v 0.17680484 -0.18266564 -0.04205885
v 0.25218052 -0.31495812 -0.05532336
v 0.21885771 -0.25912736 -0.03107974
v 0.25218052 -0.30358283 -0.05401930
v 0.24338656 -0.29090751 -0.09497856
v 0.25218052 -0.31066236 -0.09785671
v 0.17059874 -0.19049410 -0.07186118
v 0.20206851 -0.23298539 -0.08194457
v 0.24690894 -0.28713459 -0.09212017
v 0.25166135 -0.29545763 -0.09435288
v 0.21548709 -0.24454438 -0.08253733
v 0.17059874 -0.17218059 -0.05023885
v 0.21678901 -0.24776620 -0.03107974
v 0.25090256 -0.28357363 -0.05619932
v 0.25218052 -0.28177902 -0.06091500
v 0.25218052 -0.28032355 -0.06271960
v 0.24867411 -0.27484080 -0.06271960
v 0.24178112 -0.26468076 -0.06298305
v 0.22624592 -0.24583028 -0.05557363
v 0.18905728 -0.19563771 -0.05338703
v 0.17314667 -0.17534589 -0.05023885
v 0.21825867 -0.25290981 -0.03107974
v 0.25218052 -0.29034228 -0.05513895
v 0.25218052 -0.29634787 -0.09446484
v 0.25218052 -0.29937185 -0.09520908
v 0.17059874 -0.18410698 -0.06857469
v 0.25218052 -0.28922595 -0.08972940
v 0.25218052 -0.29569785 -0.09420140
v 0.22823474 -0.25644251 -0.08326839
v 0.24067888 -0.26892000 -0.08357794
v 0.18905728 -0.19563771 -0.05895233
v 0.17735596 -0.18231237 -0.05916967
v 0.17059874 -0.17315562 -0.05340679
v 0.25218052 -0.28857593 -0.05554729
v 0.25218052 -0.27796371 -0.07088643
v 0.23845842 -0.25867517 -0.06731674
v 0.17059874 -0.17924599 -0.06416197
v 0.17407320 -0.18570376 -0.06748139
v 0.19103812 -0.20596732 -0.07116305
v 0.25218052 -0.28142575 -0.08403897
v 0.18706845 -0.19764428 -0.06726405
v 0.23845842 -0.25867517 -0.06996437
v 0.22695678 -0.24502483 -0.07131453
v 0.17059874 -0.17835575 -0.06307526
v 0.25218052 -0.27729956 -0.07518718
v 0.17059874 -0.17866663 -0.06347042
v 0.25218052 -0.28042246 -0.08257026
v 0.24903354 -0.27337120 -0.07518718
f 1 2 6
f 1 6 11
f 1 11 19
f 1 19 32
f 1 32 31
f 1 31 45
f 1 45 55
f 1 55 68
f 1 68 83
f 1 83 104
f 1 104 115
f 1 115 117
f 1 117 108
f 1 108 97
f 1 97 78
f 1 78 65
f 1 65 52
f 1 52 40
f 1 40 27
f 1 27 24
f 1 24 14
f 1 14 7
f 1 7 3
f 1 3 4
f 1 4 5
f 1 5 2
f 2 5 6
f 3 7 8
f 3 8 9
f 3 9 4
f 4 9 16
f 4 16 26
f 4 26 38
f 4 38 51
f 4 51 50
f 4 50 64
f 4 64 59
f 4 59 46
f 4 46 33
f 4 33 20
f 4 20 12
f 4 12 10
f 4 10 5
f 5 10 6
f 6 10 12
f 6 12 13
f 6 13 11
f 7 14 15
f 7 15 9
f 7 9 8
f 9 15 16
f 11 17 18
f 11 18 19
f 11 13 17
f 12 20 21
f 12 21 22
f 12 22 13
f 13 22 21
f 13 21 35
f 13 35 34
f 13 34 47
f 13 47 60
f 13 60 74
f 13 74 93
f 13 93 84
f 13 84 69
f 13 69 58
f 13 58 57
f 13 57 56
f 13 56 53
f 13 53 44
f 13 44 43
f 13 43 42
f 13 42 41
f 13 41 30
f 13 30 18
f 13 18 29
f 13 29 23
f 13 23 17
f 14 24 15
f 15 25 26
f 15 26 16
f 15 24 27
f 15 27 28
f 15 28 25
f 17 23 29
f 17 29 18
f 18 30 31
f 18 31 32
f 18 32 19
f 20 33 34
f 20 34 35
f 20 35 21
f 25 36 37
f 25 37 38
f 25 38 26
f 25 28 39
f 25 39 36
f 27 39 28
f 27 40 39
f 30 41 31
f 31 41 42
f 31 42 43
f 31 43 44
f 31 44 45
f 33 46 34
f 34 46 47
f 36 39 48
f 36 48 49
f 36 49 37
f 37 49 50
f 37 50 51
f 37 51 38
f 39 40 48
f 40 52 49
f 40 49 48
f 44 53 45
f 45 54 55
f 45 53 56
f 45 56 57
f 45 57 58
f 45 58 54
f 46 59 47
f 47 59 60
f 49 61 62
f 49 62 63
f 49 63 50
f 49 52 61
f 50 63 62
f 50 62 64
f 52 65 66
f 52 66 67
f 52 67 61
f 54 58 55
f 55 58 68
f 58 69 70
f 58 70 71
f 58 71 72
f 58 72 68
f 59 64 77
f 59 77 96
f 59 96 95
f 59 95 99
f 59 99 98
f 59 98 111
f 59 111 118
f 59 118 116
f 59 116 106
f 59 106 87
f 59 87 86
f 59 86 105
f 59 105 94
f 59 94 75
f 59 75 73
f 59 73 60
f 60 73 75
f 60 75 74
f 61 67 62
f 62 67 76
f 62 76 77
f 62 77 64
f 65 78 79
f 65 79 66
f 66 79 67
f 67 80 81
f 67 81 76
f 67 79 82
f 67 82 80
f 68 72 83
f 69 84 85
f 69 85 86
f 69 86 87
f 69 87 88
f 69 88 70
f 70 88 89
f 70 89 90
f 70 90 71
f 71 90 72
f 72 91 92
f 72 92 83
f 72 90 91
f 74 75 93
f 75 94 93
f 76 81 95
f 76 95 96
f 76 96 77
f 78 97 79
f 79 97 82
f 80 98 99
f 80 99 81
f 80 82 100
f 80 100 101
f 80 101 98
f 81 99 95
f 82 97 100
f 83 92 102
f 83 102 103
f 83 103 104
f 84 93 105
f 84 105 85
f 85 105 86
f 87 106 88
f 88 106 107
f 88 107 89
f 89 107 90
f 90 107 91
f 91 102 92
f 91 107 113
f 91 113 102
f 93 94 105
f 97 108 109
f 97 109 110
f 97 110 100
f 98 101 111
f 100 110 101
f 101 110 112
f 101 112 111
f 102 113 114
f 102 114 103
f 103 115 104
f 103 114 112
f 103 112 115
f 106 116 107
f 107 116 113
f 108 117 112
f 108 112 109
f 109 112 110
f 111 112 118
f 112 117 115
f 112 114 118
f 113 116 119
f 113 119 114
f 114 119 118
f 116 118 119

