v 0.24312004 -0.31655017 -0.05473991
v 0.25218460 -0.32327074 -0.05600831
v 0.25218460 -0.31653840 -0.05554747
v 0.24319415 -0.31653840 -0.05474869
v 0.24308494 -0.31653840 -0.05474430
v 0.22519373 -0.41070873 -0.06874060
v 0.22645746 -0.41070873 -0.06874060
v 0.25218460 -0.34025458 -0.06140670
v 0.23817431 -0.39663202 -0.06889421
v 0.25218460 -0.31653840 -0.09836151
v 0.23065041 -0.31653840 -0.05807988
v 0.23814311 -0.32152881 -0.05648231
v 0.22444484 -0.40263463 -0.06827099
v 0.21234575 -0.42758664 -0.08012988
v 0.21939381 -0.42758664 -0.07522305
v 0.23187124 -0.42758664 -0.07542495
v 0.25218460 -0.34468004 -0.06294721
v 0.23811190 -0.43382466 -0.08142022
v 0.25218460 -0.32314127 -0.09957724
v 0.24557340 -0.31653840 -0.09810256
v 0.22288468 -0.31653840 -0.06494856
v 0.22396120 -0.39015862 -0.06788476
v 0.21234575 -0.42758664 -0.08586183
v 0.21281380 -0.43426014 -0.08090672
v 0.21235745 -0.41511064 -0.08004649
v 0.21939381 -0.43595498 -0.07904142
v 0.23187124 -0.43562543 -0.07942326
v 0.25218460 -0.35217741 -0.06651980
v 0.23260842 -0.43650817 -0.08644116
v 0.23811190 -0.43382466 -0.08146412
v 0.25218460 -0.35567305 -0.07519233
v 0.25218460 -0.33561728 -0.09916468
v 0.21996717 -0.42758664 -0.09686049
v 0.22053273 -0.41511064 -0.09671127
v 0.24434477 -0.31653840 -0.09777339
v 0.22266236 -0.31653840 -0.06575174
v 0.21373040 -0.42758664 -0.09210289
v 0.21281380 -0.43426014 -0.08403164
v 0.21235745 -0.41511064 -0.08494015
v 0.21839920 -0.43676710 -0.08798168
v 0.21283330 -0.40488267 -0.08079261
v 0.22894983 -0.43588437 -0.09576325
v 0.23726552 -0.43125882 -0.08978554
v 0.23879448 -0.42729239 -0.08644116
v 0.25218460 -0.35163601 -0.09606170
v 0.25218460 -0.35499040 -0.08766568
v 0.25218460 -0.34025458 -0.09856339
v 0.23260842 -0.42729239 -0.09647427
v 0.23187124 -0.41511064 -0.09698777
v 0.22189397 -0.43588437 -0.09576325
v 0.22364136 -0.37768261 -0.09544286
v 0.23618120 -0.31653840 -0.09553942
v 0.22034161 -0.31653840 -0.07519233
v 0.21429596 -0.41511064 -0.09118121
v 0.21283330 -0.40488267 -0.08280274
v 0.22309140 -0.31653840 -0.08482604
v 0.23839274 -0.42294934 -0.09424469
v 0.22923456 -0.31653840 -0.09106271
v 0.23546742 -0.31653840 -0.09526731
v 0.22049762 -0.31653840 -0.07609645
f 1 2 3
f 1 3 4
f 1 4 5
f 1 5 6
f 1 6 7
f 1 7 2
f 2 8 17
f 2 17 28
f 2 28 31
f 2 31 46
f 2 46 45
f 2 45 47
f 2 47 32
f 2 32 19
f 2 19 10
f 2 10 3
f 2 7 9
f 2 9 8
f 3 10 20
f 3 20 35
f 3 35 52
f 3 52 59
f 3 59 58
f 3 58 56
f 3 56 60
f 3 60 53
f 3 53 36
f 3 36 21
f 3 21 11
f 3 11 5
f 3 5 4
f 5 11 12
f 5 12 6
f 6 13 14
f 6 14 15
f 6 15 7
f 6 12 11
f 6 11 13
f 7 15 16
f 7 16 9
f 8 9 18
f 8 18 17
f 9 16 18
f 10 19 20
f 11 21 14
f 11 14 22
f 11 22 13
f 13 22 14
f 14 23 38
f 14 38 24
f 14 24 15
f 14 21 25
f 14 25 39
f 14 39 23
f 15 24 26
f 15 26 16
f 16 26 27
f 16 27 18
f 17 18 28
f 18 27 29
f 18 29 30
f 18 30 31
f 18 31 28
f 19 32 33
f 19 33 34
f 19 34 20
f 20 34 35
f 21 36 25
f 23 37 38
f 23 39 37
f 24 38 40
f 24 40 26
f 25 41 55
f 25 55 39
f 25 36 41
f 26 40 29
f 26 29 27
f 29 40 42
f 29 42 43
f 29 43 30
f 30 43 44
f 30 44 45
f 30 45 46
f 30 46 31
f 32 47 48
f 32 48 49
f 32 49 33
f 33 37 34
f 33 49 48
f 33 48 42
f 33 42 50
f 33 50 37
f 34 37 51
f 34 51 52
f 34 52 35
f 36 53 41
f 37 50 38
f 37 39 54
f 37 54 51
f 38 50 40
f 39 55 56
f 39 56 54
f 40 50 42
f 41 53 55
f 42 48 57
f 42 57 43
f 43 57 44
f 44 57 45
f 45 57 47
f 47 57 48
f 51 54 56
f 51 56 58
f 51 58 59
f 51 59 52
f 53 60 55
f 55 60 56

