v -0.25686185 0.37985339 0.06205113
v -0.25858583 0.37985339 0.05660632
v -0.25826657 0.37985339 0.07233974
v -0.25149845 0.37293075 0.06205113
v -0.21295858 0.32515634 0.04958029
v -0.23551039 0.35281578 0.05469598
v -0.25953081 0.37985339 0.05376586
v -0.25882843 0.37985339 0.07326987
v -0.21137510 0.31435788 0.06791092
v -0.21350769 0.32173650 0.06307426
v -0.20899988 0.31804719 0.05959703
v -0.20816981 0.31891770 0.04958029
v -0.19772395 0.30350762 0.04155975
v -0.20926805 0.31704197 0.04110184
v -0.25916046 0.37909688 0.05290728
v -0.26046299 0.37985339 0.05223472
v -0.26199541 0.37985339 0.07841418
v -0.20880832 0.30603625 0.07004305
v -0.19828584 0.29042920 0.06854054
v -0.18125063 0.27399315 0.05937523
v -0.18404728 0.28061526 0.05803728
v -0.19786441 0.30336251 0.05714293
v -0.26120365 0.37671336 0.08050338
v -0.26850811 0.37985339 0.08661359
v -0.19740471 0.30399466 0.04958029
v -0.19169650 0.29607720 0.04958029
v -0.18663958 0.28896800 0.04958029
v -0.17615541 0.27399315 0.04958029
v -0.17790491 0.27399315 0.03710946
v -0.17854339 0.27399315 0.03602193
v -0.18542645 0.27829390 0.03016214
v -0.20052059 0.30017064 0.03324586
v -0.22119522 0.32941564 0.04041498
v -0.26202093 0.37616408 0.04459339
v -0.26437063 0.37985339 0.04682569
v -0.19688112 0.28359987 0.06937765
v -0.27516128 0.37985339 0.09283827
v -0.18889988 0.27399315 0.06554268
v -0.18297459 0.27399315 0.02911038
v -0.19712375 0.29184900 0.02979009
v -0.20883386 0.30435738 0.02953967
v -0.22616278 0.32514599 0.03209394
v -0.25821548 0.36784244 0.04113762
v -0.27034699 0.37959432 0.04154544
v -0.27053855 0.37985339 0.04165992
v -0.19528487 0.27399315 0.06990711
v -0.30661382 0.37985339 0.09283827
v -0.27724281 0.37075450 0.09283827
v -0.20482409 0.27399315 0.07287635
v -0.18440485 0.27399315 0.02810871
v -0.19257763 0.27399315 0.02339369
v -0.20473469 0.29603574 0.02767226
v -0.19579567 0.27399315 0.02190549
v -0.23448879 0.32818241 0.03050557
v -0.26659262 0.37157320 0.03913427
v -0.27098551 0.37985339 0.04148105
v -0.30661382 0.37985339 0.03680180
v -0.30661382 0.35720979 0.09283827
v -0.28161013 0.36072289 0.09283827
v -0.21730038 0.28359987 0.07570250
v -0.21730038 0.27399315 0.07430016
v -0.20482409 0.27399315 0.02002377
v -0.21730038 0.29607720 0.02382298
v -0.20482409 0.28359987 0.02282130
v -0.26813780 0.35739631 0.03310276
v -0.27968188 0.37093066 0.03545670
v -0.28011604 0.37985339 0.03904126
v -0.27602965 0.37985339 0.04010732
v -0.30661382 0.37393602 0.03947770
v -0.30096949 0.37985339 0.03581444
v -0.27371828 0.35253597 0.03077745
v -0.21649587 0.27399315 0.02016687
v -0.21996930 0.27399315 0.02094674
v -0.23012147 0.27399315 0.02597658
v -0.23226685 0.27399315 0.02706411
v -0.23452712 0.27399315 0.02867394
v -0.23711943 0.27560981 0.02990456
v -0.30661382 0.35501279 0.07555225
v -0.28601578 0.32712538 0.05679950
v -0.24370874 0.27399315 0.04958029
v -0.24050348 0.27399315 0.06122117
v -0.23787285 0.27399315 0.06519209
v -0.23703005 0.27614870 0.06906999
v -0.23346720 0.27399315 0.06995719
v -0.22959789 0.27399315 0.07173159
v -0.20656080 0.27399315 0.01975189
v -0.27291377 0.35253597 0.03077745
v -0.28860809 0.37985339 0.03720962
v -0.30661382 0.37217425 0.04057954
v -0.21730038 0.28359987 0.02081080
v -0.23664693 0.27399315 0.03077745
v -0.27361610 0.31453405 0.04314097
v -0.30661382 0.35375880 0.06205113
v -0.28601578 0.32712538 0.05553309
v -0.24743759 0.27873953 0.04958029
v -0.24197205 0.27399315 0.04216791
v -0.30661382 0.36018400 0.04882188
v -0.24051624 0.27399315 0.03755306
v -0.26237853 0.30047116 0.04144527
v -0.26963189 0.30731089 0.04958029
v -0.27440786 0.31354957 0.04958029
v -0.30661382 0.35427699 0.06034828
v -0.30661382 0.35917878 0.04993088
f 1 2 7
f 1 7 16
f 1 16 35
f 1 35 45
f 1 45 56
f 1 56 68
f 1 68 67
f 1 67 88
f 1 88 70
f 1 70 57
f 1 57 47
f 1 47 37
f 1 37 24
f 1 24 17
f 1 17 8
f 1 8 3
f 1 3 4
f 1 4 5
f 1 5 6
f 1 6 2
f 2 6 7
f 3 8 9
f 3 9 10
f 3 10 11
f 3 11 12
f 3 12 5
f 3 5 4
f 5 12 13
f 5 13 14
f 5 14 15
f 5 15 7
f 5 7 6
f 7 15 16
f 8 17 9
f 9 18 19
f 9 19 20
f 9 20 21
f 9 21 22
f 9 22 11
f 9 11 10
f 9 17 23
f 9 23 24
f 9 24 18
f 11 22 12
f 12 22 25
f 12 25 13
f 13 25 26
f 13 26 27
f 13 27 28
f 13 28 29
f 13 29 30
f 13 30 31
f 13 31 32
f 13 32 14
f 14 32 33
f 14 33 15
f 15 34 35
f 15 35 16
f 15 33 34
f 17 24 23
f 18 24 19
f 19 36 20
f 19 24 37
f 19 37 36
f 20 36 38
f 20 38 46
f 20 46 49
f 20 49 61
f 20 61 85
f 20 85 84
f 20 84 82
f 20 82 81
f 20 81 80
f 20 80 96
f 20 96 98
f 20 98 91
f 20 91 76
f 20 76 75
f 20 75 74
f 20 74 73
f 20 73 72
f 20 72 86
f 20 86 62
f 20 62 53
f 20 53 51
f 20 51 50
f 20 50 39
f 20 39 30
f 20 30 29
f 20 29 28
f 20 28 21
f 21 28 22
f 22 28 27
f 22 27 26
f 22 26 25
f 30 39 31
f 31 39 40
f 31 40 32
f 32 40 41
f 32 41 42
f 32 42 34
f 32 34 33
f 34 43 44
f 34 44 45
f 34 45 35
f 34 42 43
f 36 46 38
f 36 37 46
f 37 47 58
f 37 58 59
f 37 59 48
f 37 48 49
f 37 49 46
f 39 50 40
f 40 50 51
f 40 51 41
f 41 51 52
f 41 52 53
f 41 53 54
f 41 54 42
f 42 54 55
f 42 55 44
f 42 44 43
f 44 55 56
f 44 56 45
f 47 57 69
f 47 69 89
f 47 89 97
f 47 97 103
f 47 103 102
f 47 102 93
f 47 93 78
f 47 78 58
f 48 59 49
f 49 60 61
f 49 59 60
f 51 53 52
f 53 62 63
f 53 63 64
f 53 64 54
f 54 64 63
f 54 63 65
f 54 65 55
f 55 65 66
f 55 66 67
f 55 67 68
f 55 68 56
f 57 70 71
f 57 71 72
f 57 72 73
f 57 73 74
f 57 74 75
f 57 75 76
f 57 76 77
f 57 77 69
f 58 78 79
f 58 79 80
f 58 80 81
f 58 81 82
f 58 82 83
f 58 83 84
f 58 84 85
f 58 85 61
f 58 61 59
f 59 61 60
f 62 86 63
f 63 86 87
f 63 87 65
f 65 87 66
f 66 70 88
f 66 88 67
f 66 87 70
f 69 77 89
f 70 87 71
f 71 87 90
f 71 90 72
f 72 90 86
f 76 91 77
f 77 91 92
f 77 92 89
f 78 93 79
f 79 93 94
f 79 94 80
f 80 94 95
f 80 95 96
f 82 84 83
f 86 90 87
f 89 92 97
f 91 98 99
f 91 99 92
f 92 99 100
f 92 100 101
f 92 101 94
f 92 94 102
f 92 102 103
f 92 103 97
f 93 102 94
f 94 101 100
f 94 100 95
f 95 100 99
f 95 99 96
f 96 99 98

