v 0.68405449 -0.86730043 -0.21223544
v 0.68103936 -0.86746259 -0.21223544
v 0.69315521 -0.86988323 -0.21223544
v 0.68103936 -0.96720680 -0.27081228
v 0.66856355 -0.96606018 -0.27155557
v 0.67617919 -0.87211856 -0.21223544
v 0.66108636 -0.96838819 -0.26987731
v 0.69315521 -0.92248871 -0.21223544
v 0.69315521 -0.87640388 -0.21459314
v 0.68753345 -0.96991699 -0.26889009
v 0.68753345 -0.97130685 -0.26889009
v 0.68080746 -0.97590491 -0.27076581
v 0.66810659 -0.97736424 -0.27135815
v 0.66108636 -0.97373905 -0.26987731
v 0.66928012 -0.88448813 -0.21223544
v 0.66234637 -0.93293565 -0.24357669
v 0.65912706 -0.97736424 -0.26325134
v 0.65934860 -0.96417231 -0.26238027
v 0.69311367 -0.92297512 -0.21223544
v 0.68789002 -0.97305572 -0.26233962
v 0.69315521 -0.91262082 -0.22488344
v 0.69315521 -0.90226652 -0.22262446
v 0.68505146 -0.97929843 -0.26233962
v 0.67649422 -0.98339847 -0.26924434
v 0.67195595 -0.98339847 -0.26924434
v 0.66364105 -0.98205493 -0.26801322
v 0.66390414 -0.90150207 -0.21223544
v 0.66212483 -0.91979008 -0.23156746
v 0.66215254 -0.90706145 -0.21926791
v 0.65939706 -0.97692414 -0.24911090
v 0.65779084 -0.96409123 -0.24986584
v 0.66060517 -0.98439450 -0.25969737
v 0.66060517 -0.98439450 -0.25276942
v 0.69300635 -0.92349634 -0.21223544
v 0.68783808 -0.97298625 -0.25479613
v 0.67845353 -0.98497359 -0.25217128
v 0.67881353 -0.98486936 -0.26233962
v 0.66810659 -0.98541373 -0.26325134
v 0.66215254 -0.90706145 -0.21781612
v 0.66216294 -0.91419599 -0.21796129
v 0.66228408 -0.92067032 -0.21858846
v 0.66564190 -0.91467084 -0.21223544
v 0.66153289 -0.97299781 -0.24279272
v 0.66856355 -0.98562220 -0.25064981
v 0.66856355 -0.98140637 -0.24441291
v 0.69272595 -0.92387852 -0.21223544
v 0.68185980 -0.97771170 -0.24932577
v 0.67695114 -0.97410967 -0.24211908
v 0.66378299 -0.92897460 -0.22062097
v 0.66959166 -0.92324151 -0.21223544
v 0.67210137 -0.93517098 -0.21714248
v 0.67016281 -0.92406383 -0.21223544
v 0.67831850 -0.93517098 -0.21714248
v 0.68116398 -0.92669295 -0.21223544
v 0.68105324 -0.92669295 -0.21223544
f 1 2 6
f 1 6 15
f 1 15 27
f 1 27 42
f 1 42 50
f 1 50 52
f 1 52 55
f 1 55 54
f 1 54 46
f 1 46 34
f 1 34 19
f 1 19 8
f 1 8 3
f 1 3 4
f 1 4 5
f 1 5 2
f 2 5 7
f 2 7 6
f 3 8 21
f 3 21 22
f 3 22 9
f 3 9 10
f 3 10 4
f 4 10 11
f 4 11 12
f 4 12 5
f 5 12 13
f 5 13 14
f 5 14 7
f 6 7 16
f 6 16 15
f 7 14 17
f 7 17 18
f 7 18 16
f 8 19 20
f 8 20 21
f 9 22 10
f 10 22 21
f 10 21 11
f 11 20 23
f 11 23 24
f 11 24 12
f 11 21 20
f 12 24 13
f 13 24 25
f 13 25 26
f 13 26 14
f 14 26 17
f 15 16 28
f 15 28 29
f 15 29 27
f 16 18 28
f 17 30 31
f 17 31 18
f 17 26 32
f 17 32 33
f 17 33 30
f 18 31 29
f 18 29 28
f 19 34 35
f 19 35 20
f 20 35 23
f 23 36 37
f 23 37 24
f 23 35 36
f 24 37 38
f 24 38 25
f 25 38 26
f 26 38 32
f 27 29 39
f 27 39 40
f 27 40 41
f 27 41 42
f 29 31 39
f 30 33 43
f 30 43 41
f 30 41 31
f 31 41 40
f 31 40 39
f 32 38 44
f 32 44 33
f 33 44 45
f 33 45 43
f 34 46 47
f 34 47 35
f 35 47 36
f 36 45 44
f 36 44 37
f 36 47 46
f 36 46 48
f 36 48 45
f 37 44 38
f 41 43 49
f 41 49 42
f 42 49 43
f 42 43 50
f 43 45 51
f 43 51 52
f 43 52 50
f 45 53 51
f 45 48 46
f 45 46 54
f 45 54 53
f 51 53 54
f 51 54 55
f 51 55 52

