v -0.24920449 0.37985937 0.21176542
v -0.24943491 0.37985937 0.21268939
v -0.24963722 0.37902696 0.21176542
v -0.27025734 0.37021864 0.12458298
v -0.25185154 0.37985937 0.19861546
v -0.24991820 0.37985937 0.21424033
v -0.25963536 0.37620830 0.23271958
v -0.28544852 0.33946001 0.22019658
v -0.28259911 0.33722708 0.19929194
v -0.28143575 0.33630218 0.18681845
v -0.27693965 0.34598252 0.17436145
v -0.27287633 0.36395595 0.12883980
v -0.28161557 0.36072329 0.09283826
v -0.27724879 0.37076034 0.09283826
v -0.27112848 0.37390492 0.11501337
v -0.27035854 0.37985937 0.11253846
v -0.25539222 0.37985937 0.22887523
v -0.25774700 0.37985937 0.23497999
v -0.26227683 0.37829589 0.24103524
v -0.28380182 0.34851494 0.23375902
v -0.28252044 0.34500921 0.22432142
v -0.28823608 0.33946001 0.22019658
v -0.29215889 0.33620089 0.19929194
v -0.29215889 0.34773979 0.23743838
v -0.30661377 0.34899060 0.24651302
v -0.30661377 0.34474059 0.23672891
v -0.29215889 0.33487083 0.18681845
v -0.28267215 0.33746049 0.17436145
v -0.30661377 0.34485509 0.12412099
v -0.30661377 0.35722197 0.09283826
v -0.30661377 0.34119964 0.13664399
v -0.27516931 0.37985937 0.09283826
v -0.26018616 0.37985937 0.23958329
v -0.26152934 0.37985937 0.24189321
v -0.28800004 0.35347403 0.24207471
v -0.30463550 0.34961159 0.24629853
v -0.30463550 0.35510355 0.25253527
v -0.30661377 0.35364136 0.25179280
v -0.30661377 0.34359548 0.22425542
v -0.29980225 0.33872010 0.19929194
v -0.30036425 0.33831490 0.18681845
v -0.30661377 0.37985937 0.09283826
v -0.30661377 0.34301853 0.21196343
v -0.27059459 0.37508086 0.24577055
v -0.26867250 0.37985937 0.24814644
v -0.27554587 0.37984616 0.25408621
v -0.28866319 0.36706086 0.25355823
v -0.29698095 0.36364762 0.25613213
v -0.30463550 0.36133987 0.25769957
v -0.30661377 0.35485251 0.25286525
v -0.30661377 0.37985937 0.25966299
v -0.27556274 0.37985937 0.25410272
v -0.28385800 0.37537594 0.25634662
v -0.29255794 0.37110388 0.25789756
v -0.30463550 0.37093213 0.26139542
v -0.30661377 0.36108441 0.25774906
v -0.30661377 0.36009789 0.25720459
v -0.30661377 0.37882438 0.25982797
v -0.30478726 0.37985937 0.25995998
v -0.28163244 0.37985937 0.25677561
v -0.28365569 0.37985937 0.25736958
v -0.29570519 0.37985937 0.26055393
v -0.30661377 0.37110388 0.26103243
v -0.30661377 0.36915724 0.26085093
f 1 2 3
f 1 3 4
f 1 4 5
f 1 5 16
f 1 16 32
f 1 32 42
f 1 42 51
f 1 51 59
f 1 59 62
f 1 62 61
f 1 61 60
f 1 60 52
f 1 52 45
f 1 45 34
f 1 34 33
f 1 33 18
f 1 18 17
f 1 17 6
f 1 6 2
f 2 6 3
f 3 6 7
f 3 7 8
f 3 8 9
f 3 9 10
f 3 10 11
f 3 11 12
f 3 12 4
f 4 12 13
f 4 13 14
f 4 14 15
f 4 15 5
f 5 15 16
f 6 17 7
f 7 17 18
f 7 18 19
f 7 19 20
f 7 20 21
f 7 21 8
f 8 22 23
f 8 23 9
f 8 21 20
f 8 20 24
f 8 24 25
f 8 25 26
f 8 26 22
f 9 23 27
f 9 27 10
f 10 27 28
f 10 28 11
f 11 28 12
f 12 28 13
f 13 29 30
f 13 30 42
f 13 42 32
f 13 32 14
f 13 28 31
f 13 31 29
f 14 32 16
f 14 16 15
f 18 33 19
f 19 33 34
f 19 34 20
f 20 34 35
f 20 35 24
f 22 26 23
f 23 26 27
f 24 35 36
f 24 36 25
f 25 36 37
f 25 37 38
f 25 38 50
f 25 50 57
f 25 57 56
f 25 56 64
f 25 64 63
f 25 63 58
f 25 58 51
f 25 51 42
f 25 42 30
f 25 30 29
f 25 29 31
f 25 31 43
f 25 43 39
f 25 39 26
f 26 39 40
f 26 40 27
f 27 40 41
f 27 41 31
f 27 31 28
f 31 41 43
f 34 44 35
f 34 45 44
f 35 44 46
f 35 46 47
f 35 47 48
f 35 48 37
f 35 37 36
f 37 48 49
f 37 49 50
f 37 50 38
f 39 43 41
f 39 41 40
f 44 45 46
f 45 52 46
f 46 52 53
f 46 53 47
f 47 53 48
f 48 53 54
f 48 54 49
f 49 54 55
f 49 55 56
f 49 56 57
f 49 57 50
f 51 58 59
f 52 60 53
f 53 60 54
f 54 60 61
f 54 61 55
f 55 62 59
f 55 59 58
f 55 58 63
f 55 63 64
f 55 64 56
f 55 61 62

