v 0.49387747 -0.48997309 -0.13714439
v 0.48140274 -0.47750101 -0.13468544
v 0.49373150 -0.47630749 -0.13469438
v 0.50635219 -0.47939363 -0.13460944
v 0.50707081 -0.49045591 -0.13501181
v 0.50338790 -0.49757841 -0.13309384
v 0.40320827 -0.49911183 -0.13627705
v 0.39930079 -0.49520296 -0.13560195
v 0.46892800 -0.47750101 -0.13412659
v 0.44829023 -0.47112784 -0.13144411
v 0.45646448 -0.47098106 -0.13159612
v 0.46892800 -0.47090382 -0.13170342
v 0.48140274 -0.47103900 -0.13158270
v 0.48946470 -0.47120510 -0.13140835
v 0.49805442 -0.47138276 -0.12509557
v 0.50635219 -0.47491310 -0.12509557
v 0.51347100 -0.48202016 -0.13250817
v 0.51347100 -0.48661657 -0.13250817
v 0.51128145 -0.49452314 -0.12509557
v 0.50503848 -0.49811917 -0.12509557
v 0.49387747 -0.49901913 -0.12509557
v 0.40631854 -0.49911183 -0.13579420
v 0.39930079 -0.49911183 -0.13610269
v 0.39930079 -0.48543462 -0.13257969
v 0.39930079 -0.48282356 -0.13169894
v 0.39930079 -0.47669373 -0.12940990
v 0.39930079 -0.46504437 -0.12315972
v 0.39930079 -0.45994195 -0.11321666
v 0.39930079 -0.45965228 -0.11262204
v 0.49138477 -0.47077248 -0.11802724
v 0.51359451 -0.48184248 -0.11740580
v 0.51400995 -0.48102750 -0.12509557
v 0.51400995 -0.48828517 -0.12509557
v 0.51359451 -0.48691785 -0.11740580
v 0.50341035 -0.49738915 -0.11735214
v 0.40571220 -0.49911183 -0.09254814
v 0.41130393 -0.49911183 -0.09481484
v 0.41170815 -0.49911183 -0.09506074
v 0.41904030 -0.49911183 -0.10045699
v 0.43035850 -0.49911183 -0.11235826
v 0.43011148 -0.49911183 -0.12505533
v 0.41644652 -0.49911183 -0.13307596
v 0.41469490 -0.49911183 -0.13364375
v 0.39930079 -0.49911183 -0.09167634
v 0.39930079 -0.46329850 -0.10218719
v 0.43150379 -0.46418688 -0.11262204
v 0.45166998 -0.47087678 -0.10605443
v 0.49487678 -0.47629589 -0.11436565
v 0.50635219 -0.47925459 -0.11544311
v 0.39930079 -0.46441090 -0.09981766
v 0.47551906 -0.48355358 -0.10632715
v 0.50708203 -0.49063745 -0.11522404
v 0.39930079 -0.48997309 -0.09147515
v 0.49387747 -0.48997309 -0.11184859
v 0.47551906 -0.48386644 -0.10632715
v 0.39930079 -0.47303206 -0.09464942
v 0.39939061 -0.47341058 -0.09445718
v 0.39930079 -0.47348784 -0.09439906
v 0.39930079 -0.47754349 -0.09350042
v 0.39930079 -0.48057557 -0.09287898
f 1 2 3
f 1 3 4
f 1 4 5
f 1 5 6
f 1 6 7
f 1 7 8
f 1 8 2
f 2 8 9
f 2 9 10
f 2 10 3
f 3 10 11
f 3 11 12
f 3 12 13
f 3 13 14
f 3 14 4
f 4 15 16
f 4 16 17
f 4 17 5
f 4 14 15
f 5 17 18
f 5 18 6
f 6 18 19
f 6 19 20
f 6 20 21
f 6 21 7
f 7 22 43
f 7 43 42
f 7 42 41
f 7 41 40
f 7 40 39
f 7 39 38
f 7 38 37
f 7 37 36
f 7 36 44
f 7 44 23
f 7 23 8
f 7 21 22
f 8 23 44
f 8 44 53
f 8 53 60
f 8 60 59
f 8 59 58
f 8 58 56
f 8 56 50
f 8 50 45
f 8 45 29
f 8 29 28
f 8 28 27
f 8 27 26
f 8 26 25
f 8 25 24
f 8 24 10
f 8 10 9
f 10 24 25
f 10 25 26
f 10 26 27
f 10 27 11
f 11 27 12
f 12 27 13
f 13 27 28
f 13 28 29
f 13 29 14
f 14 29 15
f 15 30 16
f 15 29 30
f 16 31 32
f 16 32 17
f 16 30 31
f 17 32 33
f 17 33 18
f 18 33 19
f 19 33 34
f 19 34 35
f 19 35 20
f 20 35 21
f 21 35 36
f 21 36 37
f 21 37 38
f 21 38 39
f 21 39 40
f 21 40 41
f 21 41 42
f 21 42 43
f 21 43 22
f 29 45 46
f 29 46 30
f 30 47 48
f 30 48 49
f 30 49 31
f 30 46 45
f 30 45 50
f 30 50 47
f 31 34 33
f 31 33 32
f 31 49 51
f 31 51 52
f 31 52 34
f 34 52 35
f 35 52 36
f 36 53 44
f 36 52 54
f 36 54 55
f 36 55 51
f 36 51 53
f 47 51 49
f 47 49 48
f 47 50 56
f 47 56 57
f 47 57 58
f 47 58 51
f 51 55 52
f 51 58 59
f 51 59 60
f 51 60 53
f 52 55 54
f 56 58 57

