v 0.50483157 -0.59896115 -0.13787333
v 0.50471886 -0.59896115 -0.14918523
v 0.50203642 -0.59896115 -0.12757877
v 0.53600652 -0.61016515 -0.17205731
v 0.53024716 -0.60726304 -0.17205731
v 0.50444837 -0.59896115 -0.14976051
v 0.52835366 -0.60665281 -0.17205731
v 0.49858755 -0.59896115 -0.12222560
v 0.52605443 -0.63207647 -0.13026141
v 0.54092059 -0.61647318 -0.17205731
v 0.49868900 -0.59896115 -0.15744509
v 0.51524576 -0.60494277 -0.17205731
v 0.49815926 -0.59896115 -0.12157159
v 0.53703218 -0.64677864 -0.13222343
v 0.55060219 -0.65765626 -0.14257249
v 0.56121926 -0.67144308 -0.15005118
v 0.55709414 -0.67144308 -0.16221087
v 0.54236323 -0.62645672 -0.17205731
v 0.48704629 -0.59896115 -0.15787504
v 0.50735623 -0.60635481 -0.17205731
v 0.47790568 -0.59896115 -0.15709993
v 0.49833960 -0.59938688 -0.12145048
v 0.49258023 -0.59896115 -0.11662415
v 0.53982733 -0.65509470 -0.12977696
v 0.54814513 -0.66224000 -0.13426418
v 0.55248439 -0.66570267 -0.13808528
v 0.55553878 -0.67144308 -0.13769771
v 0.55188705 -0.67144308 -0.16755798
v 0.55051201 -0.67144308 -0.16893261
v 0.54762668 -0.67144308 -0.16998628
v 0.54378338 -0.67144308 -0.17098547
v 0.53886932 -0.67144308 -0.17194830
v 0.54050356 -0.62930207 -0.17205731
v 0.50665744 -0.60653220 -0.17205731
v 0.47473859 -0.59896115 -0.15640958
v 0.50055994 -0.60770296 -0.11854379
v 0.49406798 -0.60303404 -0.11632742
v 0.48171522 -0.59896115 -0.11213088
v 0.55017391 -0.67056320 -0.13123031
v 0.55035423 -0.67144308 -0.13113342
v 0.53164473 -0.67144308 -0.17170607
v 0.50643202 -0.62730822 -0.17205731
v 0.50931734 -0.63043741 -0.17205731
v 0.51536973 -0.63669572 -0.17205731
v 0.51906656 -0.63998103 -0.17205731
v 0.53185887 -0.63793039 -0.17205731
v 0.50200260 -0.61026448 -0.17205731
v 0.46511335 -0.59896115 -0.15371483
v 0.47318324 -0.59896115 -0.15600386
v 0.51280001 -0.63302020 -0.11875573
v 0.46875382 -0.59896115 -0.11019308
v 0.48141090 -0.60227482 -0.11156165
v 0.54385098 -0.67144308 -0.12834784
v 0.52571630 -0.67144308 -0.17136091
v 0.50417785 -0.62450545 -0.17205731
v 0.50148415 -0.61474184 -0.17205731
v 0.45629961 -0.59896115 -0.14869472
v 0.51321702 -0.63969720 -0.11863462
v 0.45642359 -0.59896115 -0.11345706
v 0.46893416 -0.60227482 -0.11093792
v 0.50006402 -0.64598390 -0.11884051
v 0.50635313 -0.64672188 -0.11870124
v 0.51321702 -0.64693473 -0.11867095
v 0.53130659 -0.66465252 -0.12424818
v 0.53130659 -0.67144308 -0.12496274
v 0.52043031 -0.67144308 -0.16993783
v 0.47561771 -0.61929724 -0.15605836
v 0.45421452 -0.59896115 -0.14745938
v 0.51712798 -0.67144308 -0.16895683
v 0.51366785 -0.66746949 -0.16822410
v 0.45052898 -0.59896115 -0.11673921
v 0.45653630 -0.60217547 -0.11506786
v 0.47334102 -0.62282377 -0.11779894
v 0.48642639 -0.63461670 -0.11833184
v 0.50910318 -0.67144308 -0.12898973
v 0.51873969 -0.67144308 -0.12568942
v 0.51882987 -0.66465252 -0.12306733
v 0.45202797 -0.59896115 -0.14583041
v 0.48599810 -0.63969720 -0.15734215
v 0.51455824 -0.67144308 -0.16722492
v 0.48758727 -0.64603360 -0.15634297
v 0.46075156 -0.61056250 -0.11744166
v 0.44790290 -0.59896115 -0.12083886
v 0.48595301 -0.64787846 -0.12933490
v 0.49792259 -0.66105504 -0.12926223
v 0.50174337 -0.66937115 -0.13535419
v 0.50323111 -0.67144308 -0.13635337
v 0.44994290 -0.59896115 -0.14319622
v 0.51181944 -0.67144308 -0.16456044
v 0.49863264 -0.66096281 -0.15775394
v 0.50341144 -0.67144308 -0.15432039
v 0.47412998 -0.63495729 -0.14553974
v 0.46290428 -0.62065251 -0.14243926
v 0.46025564 -0.61233641 -0.14635725
v 0.50840440 -0.67144308 -0.16106635
v 0.44608830 -0.59896115 -0.12510202
v 0.44703504 -0.60017451 -0.12510202
v 0.46229567 -0.62147559 -0.13045519
v 0.47411872 -0.63478702 -0.12964979
v 0.50008657 -0.67093926 -0.14366856
v 0.50071774 -0.67144308 -0.14320227
v 0.44820719 -0.59896115 -0.13962340
v 0.50223929 -0.67144308 -0.15120780
v 0.50098823 -0.66927887 -0.15232204
v 0.50057120 -0.67144308 -0.14450423
v 0.46229567 -0.62147559 -0.13412490
v 0.45875664 -0.61579909 -0.13800050
v 0.45183637 -0.60590068 -0.13757660
v 0.44767747 -0.59966362 -0.13757660
v 0.44724918 -0.59896115 -0.13758871
v 0.50008657 -0.67093926 -0.14400161
v 0.44703504 -0.59896115 -0.13639576
f 1 2 6
f 1 6 11
f 1 11 19
f 1 19 21
f 1 21 35
f 1 35 49
f 1 49 48
f 1 48 57
f 1 57 68
f 1 68 78
f 1 78 88
f 1 88 102
f 1 102 110
f 1 110 112
f 1 112 96
f 1 96 83
f 1 83 71
f 1 71 59
f 1 59 51
f 1 51 38
f 1 38 23
f 1 23 13
f 1 13 8
f 1 8 3
f 1 3 4
f 1 4 5
f 1 5 2
f 2 5 7
f 2 7 6
f 3 8 9
f 3 9 10
f 3 10 4
f 4 10 18
f 4 18 33
f 4 33 46
f 4 46 45
f 4 45 44
f 4 44 43
f 4 43 42
f 4 42 55
f 4 55 56
f 4 56 47
f 4 47 34
f 4 34 20
f 4 20 12
f 4 12 7
f 4 7 5
f 6 7 11
f 7 12 11
f 8 13 9
f 9 14 15
f 9 15 10
f 9 13 14
f 10 15 16
f 10 16 17
f 10 17 18
f 11 12 19
f 12 20 21
f 12 21 19
f 13 22 14
f 13 23 22
f 14 24 25
f 14 25 15
f 14 22 24
f 15 25 26
f 15 26 27
f 15 27 16
f 16 27 40
f 16 40 53
f 16 53 65
f 16 65 76
f 16 76 75
f 16 75 87
f 16 87 101
f 16 101 105
f 16 105 103
f 16 103 91
f 16 91 95
f 16 95 89
f 16 89 80
f 16 80 69
f 16 69 66
f 16 66 54
f 16 54 41
f 16 41 32
f 16 32 31
f 16 31 30
f 16 30 29
f 16 29 28
f 16 28 17
f 17 28 18
f 18 28 29
f 18 29 30
f 18 30 31
f 18 31 32
f 18 32 33
f 20 34 35
f 20 35 21
f 22 23 36
f 22 36 24
f 23 37 36
f 23 38 37
f 24 39 25
f 24 36 39
f 25 39 27
f 25 27 26
f 27 39 40
f 32 41 42
f 32 42 43
f 32 43 44
f 32 44 45
f 32 45 46
f 32 46 33
f 34 47 48
f 34 48 49
f 34 49 35
f 36 37 50
f 36 50 39
f 37 38 50
f 38 51 52
f 38 52 50
f 39 50 40
f 40 50 53
f 41 54 55
f 41 55 42
f 47 56 48
f 48 56 57
f 50 58 53
f 50 52 58
f 51 59 60
f 51 60 61
f 51 61 62
f 51 62 63
f 51 63 52
f 52 63 58
f 53 64 65
f 53 58 64
f 54 66 55
f 55 67 68
f 55 68 57
f 55 57 56
f 55 66 69
f 55 69 70
f 55 70 67
f 58 63 64
f 59 71 72
f 59 72 73
f 59 73 74
f 59 74 60
f 60 74 61
f 61 74 75
f 61 75 76
f 61 76 77
f 61 77 62
f 62 77 63
f 63 77 65
f 63 65 64
f 65 77 76
f 67 70 68
f 68 70 79
f 68 79 78
f 69 80 70
f 70 80 81
f 70 81 79
f 71 82 72
f 71 83 84
f 71 84 85
f 71 85 82
f 72 82 73
f 73 82 75
f 73 75 74
f 75 82 85
f 75 85 86
f 75 86 87
f 78 79 81
f 78 81 88
f 80 89 81
f 81 90 91
f 81 91 92
f 81 92 93
f 81 93 94
f 81 94 88
f 81 89 95
f 81 95 90
f 83 96 97
f 83 97 98
f 83 98 99
f 83 99 84
f 84 86 85
f 84 99 86
f 86 100 87
f 86 99 98
f 86 98 100
f 87 100 101
f 88 94 93
f 88 93 102
f 90 95 91
f 91 103 104
f 91 104 92
f 92 104 103
f 92 103 105
f 92 105 93
f 93 106 107
f 93 107 108
f 93 108 109
f 93 109 110
f 93 110 102
f 93 105 111
f 93 111 106
f 96 112 108
f 96 108 106
f 96 106 98
f 96 98 97
f 98 106 111
f 98 111 100
f 100 111 105
f 100 105 101
f 106 108 107
f 108 112 109
f 109 112 110

