v 0.69315463 -0.91261109 -0.22487944
v 0.69316186 -0.90497644 -0.17654324
v 0.69316186 -0.89184881 -0.17003493
v 0.69316186 -0.88563779 -0.16798725
v 0.69316186 -0.87678106 -0.16654428
v 0.69316186 -0.86410700 -0.16641855
v 0.69316186 -0.86020150 -0.16669995
v 0.69316186 -0.85165970 -0.16974755
v 0.69316186 -0.84537310 -0.17468116
v 0.69316186 -0.84188333 -0.18748819
v 0.69316186 -0.84441562 -0.19353545
v 0.69316186 -0.84808177 -0.20018743
v 0.69316186 -0.85003452 -0.20224112
v 0.69316186 -0.85567863 -0.20713283
v 0.69316186 -0.86034005 -0.20905476
v 0.69316186 -0.87640312 -0.21458712
v 0.69316186 -0.90226777 -0.22262220
v 0.74341893 -0.93914345 -0.22749593
v 0.74341893 -0.95161596 -0.22757975
v 0.73431741 -0.96078763 -0.22111937
v 0.69316186 -0.92335757 -0.21172515
v 0.69316186 -0.92334499 -0.21159941
v 0.69316186 -0.92163159 -0.19995393
v 0.69316186 -0.91620166 -0.18611707
v 0.69316186 -0.91560954 -0.18519501
v 0.69316186 -0.91451347 -0.18424301
v 0.69577883 -0.91204418 -0.17898010
v 0.69985603 -0.92035913 -0.18132715
v 0.69352333 -0.89189923 -0.16993315
v 0.70816959 -0.92362217 -0.17962674
v 0.73552468 -0.94711830 -0.18077632
v 0.69352333 -0.88566296 -0.16798725
v 0.74341893 -0.95523169 -0.18194985
v 0.69352333 -0.87676847 -0.16653829
v 0.69428238 -0.86409442 -0.16664607
v 0.70186576 -0.87676847 -0.16815489
v 0.70144646 -0.86811329 -0.16823872
v 0.69895241 -0.85979831 -0.16953798
v 0.71394565 -0.86862987 -0.17868073
v 0.72400144 -0.88367241 -0.20361223
v 0.70180071 -0.85548966 -0.19727756
v 0.71429989 -0.86808813 -0.18748819
v 0.73611747 -0.89672441 -0.19995393
v 0.76320509 -0.93150880 -0.20917453
v 0.71170465 -0.87099835 -0.20518690
v 0.69912590 -0.85861406 -0.20559405
v 0.73628377 -0.90866776 -0.21812568
v 0.72797021 -0.90519058 -0.21977819
v 0.72142783 -0.89686301 -0.21783229
v 0.69352333 -0.87676847 -0.21467692
v 0.71311431 -0.89511181 -0.21882020
v 0.75674950 -0.93843795 -0.22343649
v 0.75656151 -0.95204428 -0.22359215
v 0.75284574 -0.96033410 -0.22118523
v 0.74341893 -0.96192149 -0.22239468
v 0.73671748 -0.97057663 -0.20712085
v 0.73136069 -0.96396246 -0.21162935
v 0.72396529 -0.95883488 -0.20782137
v 0.72396529 -0.95883488 -0.20263030
v 0.69752102 -0.92315602 -0.18964365
v 0.72486168 -0.95768839 -0.19431979
v 0.73317520 -0.96159393 -0.19035614
v 0.72721839 -0.94357811 -0.18218934
v 0.74341893 -0.94898287 -0.18064460
v 0.74341893 -0.96352151 -0.18818871
v 0.75589644 -0.96132937 -0.18988913
v 0.75527473 -0.95220808 -0.18400352
v 0.75070590 -0.94845371 -0.18091403
v 0.75056133 -0.93914345 -0.18094995
v 0.73772235 -0.90594650 -0.18076434
v 0.72756541 -0.88924094 -0.17933335
v 0.74981674 -0.93268046 -0.18118346
v 0.72509300 -0.88243775 -0.18080626
v 0.73982605 -0.90476226 -0.20980917
v 0.75157342 -0.91809145 -0.20932421
v 0.72053867 -0.87603776 -0.18748819
v 0.75847000 -0.92515914 -0.19995393
v 0.76325573 -0.93139542 -0.19995393
v 0.76700765 -0.93914345 -0.19995393
v 0.76539553 -0.93843795 -0.21297052
v 0.76147736 -0.93381432 -0.21749101
v 0.75316380 -0.92960643 -0.22093377
v 0.76367499 -0.94212931 -0.22033502
v 0.76367499 -0.94816395 -0.22033502
v 0.76115926 -0.95647893 -0.21652704
v 0.75656151 -0.96202229 -0.21239574
v 0.74313697 -0.96832153 -0.21174311
v 0.73879227 -0.97057663 -0.20712085
v 0.73671748 -0.97057663 -0.20431276
v 0.73078236 -0.96436561 -0.19931329
v 0.74313697 -0.96960657 -0.20007367
v 0.76285089 -0.95865849 -0.19262537
v 0.75589644 -0.96468054 -0.19995393
v 0.76429670 -0.95161596 -0.19082316
v 0.75680010 -0.93914345 -0.18484176
v 0.76407984 -0.93914345 -0.19108062
v 0.76256170 -0.93228989 -0.19296665
v 0.76696427 -0.95161596 -0.19995393
v 0.76519313 -0.95204428 -0.21239574
v 0.76286534 -0.95862070 -0.20820456
v 0.73879227 -0.97057663 -0.20431276
v 0.76321232 -0.95903643 -0.19995393
f 1 2 3
f 1 3 4
f 1 4 5
f 1 5 6
f 1 6 7
f 1 7 8
f 1 8 9
f 1 9 10
f 1 10 11
f 1 11 12
f 1 12 13
f 1 13 14
f 1 14 15
f 1 15 16
f 1 16 17
f 1 17 18
f 1 18 19
f 1 19 20
f 1 20 21
f 1 21 22
f 1 22 23
f 1 23 24
f 1 24 25
f 1 25 26
f 1 26 2
f 2 26 27
f 2 27 28
f 2 28 3
f 3 29 4
f 3 28 30
f 3 30 31
f 3 31 29
f 4 32 5
f 4 29 33
f 4 33 32
f 5 32 34
f 5 34 6
f 6 35 7
f 6 34 36
f 6 36 35
f 7 35 37
f 7 37 38
f 7 38 8
f 8 38 9
f 9 38 39
f 9 39 10
f 10 40 41
f 10 41 11
f 10 39 42
f 10 42 43
f 10 43 44
f 10 44 40
f 11 41 12
f 12 41 45
f 12 45 46
f 12 46 13
f 13 46 14
f 14 46 47
f 14 47 48
f 14 48 49
f 14 49 15
f 15 50 16
f 15 49 51
f 15 51 50
f 16 50 17
f 17 50 51
f 17 51 18
f 18 52 53
f 18 53 19
f 18 51 48
f 18 48 52
f 19 53 54
f 19 54 55
f 19 55 20
f 20 55 56
f 20 56 57
f 20 57 58
f 20 58 21
f 21 58 59
f 21 59 22
f 22 59 23
f 23 60 24
f 23 59 61
f 23 61 60
f 24 60 61
f 24 61 25
f 25 61 28
f 25 28 26
f 26 28 27
f 28 61 62
f 28 62 63
f 28 63 30
f 29 31 33
f 30 63 31
f 31 63 33
f 32 33 64
f 32 64 34
f 33 63 62
f 33 62 65
f 33 65 66
f 33 66 67
f 33 67 68
f 33 68 64
f 34 64 68
f 34 68 36
f 35 36 37
f 36 68 69
f 36 69 37
f 37 70 71
f 37 71 38
f 37 69 72
f 37 72 70
f 38 71 73
f 38 73 39
f 39 73 42
f 40 74 45
f 40 45 41
f 40 44 75
f 40 75 74
f 42 73 76
f 42 76 44
f 42 44 43
f 44 77 78
f 44 78 79
f 44 79 80
f 44 80 81
f 44 81 75
f 44 76 77
f 45 47 46
f 45 74 81
f 45 81 47
f 47 81 82
f 47 82 48
f 48 51 49
f 48 82 52
f 52 82 81
f 52 81 83
f 52 83 53
f 53 83 84
f 53 84 54
f 54 85 86
f 54 86 87
f 54 87 55
f 54 84 85
f 55 87 56
f 56 87 88
f 56 88 101
f 56 101 89
f 56 89 59
f 56 59 58
f 56 58 57
f 59 89 90
f 59 90 61
f 61 90 62
f 62 90 89
f 62 89 65
f 65 89 91
f 65 91 66
f 66 92 67
f 66 91 93
f 66 93 92
f 67 94 95
f 67 95 68
f 67 92 94
f 68 95 69
f 69 95 72
f 70 72 96
f 70 96 97
f 70 97 71
f 71 97 73
f 72 95 96
f 73 97 78
f 73 78 76
f 74 75 81
f 76 78 77
f 78 97 79
f 79 98 80
f 79 97 96
f 79 96 94
f 79 94 98
f 80 98 99
f 80 99 84
f 80 84 83
f 80 83 81
f 84 99 85
f 85 100 86
f 85 99 100
f 86 93 87
f 86 100 93
f 87 93 88
f 88 93 91
f 88 91 101
f 89 101 91
f 92 93 102
f 92 102 98
f 92 98 94
f 93 100 102
f 94 96 95
f 98 102 100
f 98 100 99

