v -0.15878265 0.50817071 0.08700651
v -0.15938264 0.49728684 0.09945570
v -0.15924717 0.49740946 0.08700651
v -0.15886008 0.50817071 0.07452196
v -0.16044719 0.51520177 0.07452196
v -0.16071815 0.51491566 0.08700651
v -0.16102784 0.51456815 0.09390307
v -0.15965362 0.50843642 0.09860688
v -0.16015686 0.50428725 0.11194025
v -0.16100847 0.48980609 0.14345226
v -0.16100847 0.48916225 0.14345226
v -0.16093106 0.48903963 0.13690936
v -0.15955684 0.49905481 0.07452196
v -0.16100847 0.48920317 0.12958838
v -0.16220849 0.49117550 0.08700651
v -0.16050526 0.50061842 0.04958822
v -0.15998266 0.50905982 0.06129469
v -0.16067944 0.51494627 0.06490213
v -0.16085364 0.50127248 0.04226725
v -0.16085364 0.50328573 0.04226725
v -0.16050526 0.50561580 0.04958822
v -0.16739566 0.51853335 0.07452196
v -0.16739566 0.51811436 0.08700651
v -0.16695050 0.51660189 0.09860688
v -0.17107312 0.51570251 0.11194025
v -0.16249882 0.51276952 0.10221433
v -0.16085364 0.50254993 0.12000393
v -0.16795695 0.49534511 0.14815607
v -0.17136342 0.49255519 0.15975645
v -0.17364733 0.48942797 0.16806770
v -0.17947320 0.47074658 0.18681220
v -0.17188603 0.47447672 0.16184309
v -0.18189260 0.46050656 0.17432765
v -0.17128601 0.47435410 0.14939391
v -0.18266679 0.46082336 0.18681220
v -0.16815049 0.48322467 0.08700651
v -0.17356991 0.47688853 0.08021604
v -0.16468594 0.49438447 0.04958822
v -0.16133753 0.51381192 0.05659088
v -0.17146021 0.51635656 0.02465448
v -0.16973761 0.51728655 0.03710366
v -0.16828598 0.51766467 0.04958822
v -0.16625370 0.51741943 0.06129469
v -0.17202152 0.48783370 0.03710366
v -0.17389895 0.48978565 0.01980920
v -0.18406035 0.48697529 -0.01028813
v -0.17167312 0.49850299 0.01216992
v -0.17331829 0.50119073 0.00516726
v -0.17331829 0.50318355 0.00516726
v -0.16735695 0.50817071 0.02465448
v -0.16362141 0.50773128 0.03770490
v -0.16203429 0.51184975 0.04958822
v -0.17987965 0.51914653 0.08700651
v -0.17987965 0.51965753 0.02465448
v -0.17987965 0.52009696 0.03710366
v -0.17987965 0.51988233 0.04958822
v -0.17987965 0.51823698 0.09945570
v -0.17304733 0.51472147 0.11887218
v -0.16484077 0.51052121 0.11194025
v -0.16743437 0.50759840 0.12361137
v -0.17045374 0.50402153 0.13690936
v -0.17287313 0.50233531 0.14454863
v -0.17612477 0.50087392 0.15285988
v -0.18293775 0.49156389 0.17432765
v -0.18603459 0.48950971 0.18065834
v -0.18527973 0.47786961 0.19385025
v -0.18440875 0.47074658 0.19512347
v -0.18466037 0.46234606 0.19501736
v -0.19838309 0.43928044 0.18391210
v -0.19813149 0.43899428 0.17432765
v -0.19867344 0.43963816 0.19222337
v -0.19820891 0.43908629 0.16453100
v -0.19671857 0.44864161 0.20806777
v -0.19501532 0.44643416 0.19929676
v -0.19906053 0.44018999 0.19929676
v -0.17416993 0.47767547 0.07190480
v -0.19869278 0.43964834 0.15621974
v -0.19495727 0.46049634 0.03710366
v -0.17275700 0.51528352 0.01623713
v -0.18284099 0.51680625 -0.00031463
v -0.17926031 0.51750118 0.01209919
v -0.19602179 0.46168178 0.02465448
v -0.21922850 0.44710865 -0.02524837
v -0.22058335 0.44888685 -0.03773293
v -0.18258938 0.48489046 -0.00031463
v -0.18640231 0.49130839 -0.01859938
v -0.18307325 0.49555974 -0.01378946
v -0.17666672 0.49649995 0.00049881
v -0.21086711 0.46418560 -0.04448802
v -0.20895097 0.47074658 -0.04724665
v -0.18580231 0.49962712 -0.01955428
v -0.17686028 0.50766992 0.00049881
v -0.17153762 0.50766992 0.01209919
v -0.18580231 0.50289740 -0.01955428
v -0.18353777 0.50749621 -0.01286992
v -0.19236367 0.51986190 0.01216992
v -0.20482832 0.51871728 -0.01279919
v -0.19236367 0.51989260 -0.00031463
v -0.17517638 0.51472147 0.11887218
v -0.21315101 0.51597844 -0.01279919
v -0.18750556 0.51562076 0.09945570
v -0.20058958 0.50252950 0.14617551
v -0.19729922 0.50169147 0.15452213
v -0.18444746 0.50242731 0.15692709
v -0.19236367 0.49029665 0.18203767
v -0.19236367 0.48583067 0.18829761
v -0.19236367 0.47959671 0.19583080
v -0.20482832 0.46948957 0.20969465
v -0.19644761 0.46705727 0.20721897
v -0.19557661 0.45827867 0.20870438
v -0.22151241 0.41569364 0.18681220
v -0.22180273 0.41569364 0.17432765
v -0.22106724 0.43332242 0.23278932
v -0.22228660 0.42535114 0.23183441
v -0.20715094 0.43534589 0.21174595
v -0.22033173 0.42368535 0.22423050
v -0.22733828 0.41569364 0.22423050
v -0.22315758 0.41569364 0.19827112
v -0.19919602 0.44009803 0.14939391
v -0.22590599 0.44086448 -0.02524837
v -0.23463515 0.41569364 0.09043711
v -0.17469251 0.51150229 0.00792588
v -0.18485391 0.51560032 -0.00880271
v -0.19207335 0.51731725 -0.01286992
v -0.22985441 0.44237700 -0.03801586
v -0.29604873 0.41569364 -0.09672510
v -0.22232531 0.45086945 -0.04586733
v -0.21435103 0.45685816 -0.03773293
v -0.20016378 0.48296921 -0.03879394
v -0.20689932 0.48309183 -0.05127849
v -0.19900247 0.49569258 -0.04342701
v -0.21750591 0.45883055 -0.04933330
v -0.22102851 0.46179423 -0.05962510
v -0.21247360 0.47074658 -0.05347124
v -0.19646695 0.50533986 -0.03522187
v -0.18773781 0.51120592 -0.01711396
v -0.20480898 0.51636682 -0.02592034
v -0.21200907 0.51488496 -0.03271081
v -0.21313167 0.51574338 -0.02524837
v -0.18899590 0.50242731 0.15692709
v -0.23678356 0.50238640 -0.05824579
v -0.23662868 0.50230465 -0.05021748
v -0.25884829 0.48803811 -0.06270203
v -0.27357750 0.47709294 -0.05573473
v -0.33603628 0.42727243 -0.01849327
v -0.25873219 0.47543737 0.04958822
v -0.20893160 0.50112942 0.13690936
v -0.20477027 0.49993371 0.14995979
v -0.20482832 0.49652039 0.16184309
v -0.20538963 0.49224859 0.17478742
v -0.20159605 0.49052145 0.18242669
v -0.19282820 0.50004611 0.16138333
v -0.19236367 0.49435381 0.17432765
v -0.20482832 0.48037343 0.19830648
v -0.20482832 0.47573374 0.20453109
v -0.21336392 0.46380748 0.21768761
v -0.20891226 0.45548870 0.21949133
v -0.22149304 0.44291861 0.23218808
v -0.23579641 0.42744619 0.24308111
v -0.23579641 0.42615852 0.24308111
v -0.23668678 0.41783973 0.24212620
v -0.23846743 0.41569364 0.24301039
v -0.23260284 0.41569364 0.23498206
v -0.22855764 0.41569364 0.22744890
v -0.25853862 0.41569364 0.00191349
v -0.24781593 0.42663882 -0.02121653
v -0.24946110 0.42749728 -0.02952778
v -0.29198416 0.41569364 -0.08763578
v -0.20062828 0.51365860 -0.03051806
v -0.19606050 0.51588652 -0.02220680
v -0.29291321 0.42159035 -0.09973129
v -0.28447440 0.42592345 -0.09562872
v -0.23540933 0.45134979 -0.06970470
v -0.29984232 0.41569364 -0.10050937
v -0.21129293 0.47885069 -0.05612377
v -0.21077035 0.48716943 -0.05676038
v -0.21077035 0.49061346 -0.05676038
v -0.20622191 0.49514070 -0.05092482
v -0.21251228 0.49893220 -0.05555790
v -0.20732514 0.50468581 -0.04724665
v -0.22445438 0.46750697 -0.06793636
v -0.21948012 0.47128819 -0.06333864
v -0.20895097 0.51488496 -0.03271081
v -0.22977700 0.50314268 -0.05930680
v -0.25263535 0.49208506 -0.06270203
v -0.24853205 0.48946884 -0.08141118
v -0.25091276 0.49083826 -0.07518659
v -0.25716443 0.48785414 -0.07518659
v -0.26833230 0.48087417 -0.07571709
v -0.32512002 0.44099736 -0.09746780
v -0.26719036 0.48211075 -0.06270203
v -0.27384849 0.47728708 -0.06270203
v -0.32510070 0.44097693 -0.08763578
v -0.34224926 0.41569364 0.02465448
v -0.31238443 0.42841705 0.11194025
v -0.35649461 0.41569364 -0.08763578
v -0.34975902 0.41586740 -0.02524837
v -0.34995259 0.41569364 -0.02524837
v -0.30110040 0.42898932 0.16184309
v -0.21620911 0.49337273 0.14939391
v -0.21444781 0.49159454 0.16184309
v -0.21257036 0.49037839 0.17093241
v -0.20991871 0.48898854 0.17924368
v -0.21417683 0.47890178 0.19710401
v -0.22414471 0.46474765 0.21828884
v -0.22166724 0.46474765 0.21828884
v -0.22977700 0.45140088 0.23013678
v -0.22977700 0.44516693 0.23385032
v -0.24226101 0.42925503 0.24442507
v -0.25474503 0.42084433 0.25033135
v -0.25474503 0.41569364 0.25093260
v -0.24731269 0.41569364 0.24838617
v -0.24280298 0.41569364 0.24583974
v -0.26051283 0.41569364 -0.00392207
v -0.22083497 0.50309154 -0.05845800
v -0.30158427 0.41726747 -0.10386924
v -0.28853897 0.43027699 -0.10393996
v -0.27181622 0.43807455 -0.09495675
v -0.24752562 0.45121695 -0.08229536
v -0.23310608 0.45827867 -0.07172062
v -0.30239718 0.41569364 -0.10294969
v -0.22323500 0.47581548 -0.06924493
v -0.22315758 0.48322467 -0.06928030
v -0.22335113 0.48988788 -0.06910346
v -0.23939648 0.45827867 -0.07798058
v -0.24564815 0.45827867 -0.08388687
v -0.23711260 0.47074658 -0.08045627
v -0.22908024 0.47128819 -0.07334750
v -0.24847400 0.48946884 -0.08141118
v -0.29215836 0.45081835 -0.10556684
v -0.27967434 0.46602510 -0.09531041
v -0.28658412 0.46492140 -0.09435550
v -0.27322910 0.47685788 -0.08020870
v -0.31793930 0.44385882 -0.10103987
v -0.32266194 0.43897384 -0.10581442
v -0.35212032 0.41771712 -0.10012033
v -0.32270067 0.41569364 0.13072013
v -0.31300377 0.41663385 0.17432765
v -0.30733275 0.42396129 0.16184309
v -0.35428810 0.41569364 -0.10012033
v -0.31209408 0.41569364 0.18104739
v -0.29984232 0.42800823 0.16980067
v -0.22068014 0.48725122 0.16184309
v -0.25441600 0.44876423 0.21192278
v -0.24781593 0.45152350 0.21616682
v -0.23949326 0.45469159 0.22210848
v -0.26339673 0.42847836 0.24456652
v -0.25474503 0.43003171 0.24552143
v -0.26740325 0.42137572 0.24820933
v -0.25979671 0.41569364 0.25202898
v -0.22977700 0.49222816 -0.07101327
v -0.30878436 0.41569364 -0.10698153
v -0.29686163 0.42557599 -0.10705226
v -0.28540345 0.43859573 -0.10669859
v -0.22977700 0.48322467 -0.07430241
v -0.24334490 0.47074658 -0.08501861
v -0.23922228 0.48322467 -0.08017333
v -0.24545463 0.48322467 -0.08321490
v -0.25474503 0.47074658 -0.09050050
v -0.26933878 0.46612733 -0.09531041
v -0.28540345 0.44350114 -0.10669859
v -0.29215836 0.44458440 -0.10744131
v -0.30462305 0.44301062 -0.10786570
v -0.31435864 0.44140614 -0.10733520
v -0.34956550 0.41569364 -0.10708762
v -0.34952677 0.41575495 -0.10705226
v -0.31397151 0.41569364 0.17432765
v -0.31143601 0.41569364 0.18302794
v -0.26190639 0.44048636 0.22005719
v -0.25505470 0.44337852 0.22423050
v -0.27170007 0.42588258 0.23912001
v -0.27642272 0.41756384 0.24619342
v -0.27315168 0.41569364 0.24919961
v -0.26726778 0.41569364 0.25089724
v -0.31710703 0.41569364 -0.10825475
v -0.30530044 0.42119180 -0.10768886
v -0.29248739 0.43398669 -0.10761814
v -0.30462305 0.43332242 -0.10928038
v -0.31793930 0.43422175 -0.10832547
v -0.32959105 0.42084433 -0.10889135
v -0.34132021 0.41569364 -0.10814864
v -0.28435829 0.41569364 0.23611381
v -0.28015825 0.41569364 0.24347016
v -0.27723562 0.41569364 0.24707759
v -0.32914591 0.41569364 -0.10860841
v -0.31710703 0.42084433 -0.10917427
f 1 2 3
f 1 3 4
f 1 4 5
f 1 5 6
f 1 6 7
f 1 7 8
f 1 8 9
f 1 9 10
f 1 10 11
f 1 11 2
f 2 11 12
f 2 12 3
f 3 13 4
f 3 12 14
f 3 14 15
f 3 15 16
f 3 16 13
f 4 17 18
f 4 18 5
f 4 13 16
f 4 16 19
f 4 19 20
f 4 20 21
f 4 21 17
f 5 18 22
f 5 22 6
f 6 22 23
f 6 23 7
f 7 24 25
f 7 25 26
f 7 26 27
f 7 27 9
f 7 9 8
f 7 23 24
f 9 27 10
f 10 28 29
f 10 29 30
f 10 30 31
f 10 31 11
f 10 27 28
f 11 32 33
f 11 33 34
f 11 34 12
f 11 31 35
f 11 35 32
f 12 34 14
f 14 36 15
f 14 34 36
f 15 36 37
f 15 37 38
f 15 38 19
f 15 19 16
f 17 21 18
f 18 21 39
f 18 39 40
f 18 40 41
f 18 41 42
f 18 42 43
f 18 43 22
f 19 38 44
f 19 44 45
f 19 45 46
f 19 46 47
f 19 47 48
f 19 48 49
f 19 49 20
f 20 49 50
f 20 50 51
f 20 51 52
f 20 52 39
f 20 39 21
f 22 53 23
f 22 43 42
f 22 42 54
f 22 54 55
f 22 55 56
f 22 56 53
f 23 53 57
f 23 57 25
f 23 25 24
f 25 58 26
f 25 57 58
f 26 58 59
f 26 59 27
f 27 59 60
f 27 60 61
f 27 61 28
f 28 61 29
f 29 61 62
f 29 62 63
f 29 63 30
f 30 63 64
f 30 64 65
f 30 65 66
f 30 66 31
f 31 66 67
f 31 67 68
f 31 68 35
f 32 35 33
f 33 69 70
f 33 70 34
f 33 35 71
f 33 71 69
f 34 70 72
f 34 72 37
f 34 37 36
f 35 68 73
f 35 73 74
f 35 74 75
f 35 75 71
f 37 76 38
f 37 72 77
f 37 77 78
f 37 78 76
f 38 76 44
f 39 52 79
f 39 79 40
f 40 79 80
f 40 80 81
f 40 81 54
f 40 54 41
f 41 54 42
f 44 82 45
f 44 76 82
f 45 82 83
f 45 83 84
f 45 84 85
f 45 85 46
f 46 86 87
f 46 87 88
f 46 88 47
f 46 85 89
f 46 89 90
f 46 90 86
f 47 88 48
f 48 88 87
f 48 87 91
f 48 91 94
f 48 94 49
f 49 92 93
f 49 93 50
f 49 94 95
f 49 95 92
f 50 79 52
f 50 52 51
f 50 93 79
f 53 56 96
f 53 96 97
f 53 97 57
f 54 81 80
f 54 80 98
f 54 98 55
f 55 98 96
f 55 96 56
f 57 99 58
f 57 97 100
f 57 100 101
f 57 101 102
f 57 102 103
f 57 103 99
f 58 61 60
f 58 60 59
f 58 99 140
f 58 140 104
f 58 104 63
f 58 63 62
f 58 62 61
f 63 104 65
f 63 65 64
f 65 104 105
f 65 105 106
f 65 106 107
f 65 107 66
f 66 107 108
f 66 108 109
f 66 109 67
f 67 109 110
f 67 110 68
f 68 110 73
f 69 111 70
f 69 71 111
f 70 111 72
f 71 75 111
f 72 111 112
f 72 112 77
f 73 110 113
f 73 113 114
f 73 114 115
f 73 115 75
f 73 75 74
f 75 115 116
f 75 116 117
f 75 117 118
f 75 118 111
f 76 78 82
f 77 112 119
f 77 119 78
f 78 120 83
f 78 83 82
f 78 119 121
f 78 121 120
f 79 93 122
f 79 122 123
f 79 123 80
f 80 123 124
f 80 124 98
f 83 120 84
f 84 125 126
f 84 126 127
f 84 127 89
f 84 89 128
f 84 128 85
f 84 120 125
f 85 128 89
f 86 90 129
f 86 129 130
f 86 130 131
f 86 131 87
f 87 131 91
f 89 127 132
f 89 132 133
f 89 133 134
f 89 134 90
f 90 134 130
f 90 130 129
f 91 131 94
f 92 122 93
f 92 95 122
f 94 131 135
f 94 135 95
f 95 135 136
f 95 136 123
f 95 123 122
f 96 98 97
f 97 98 137
f 97 137 138
f 97 138 139
f 97 139 100
f 98 124 137
f 99 103 140
f 100 139 141
f 100 141 142
f 100 142 143
f 100 143 144
f 100 144 145
f 100 145 146
f 100 146 147
f 100 147 101
f 101 147 102
f 102 148 103
f 102 147 148
f 103 148 149
f 103 149 150
f 103 150 151
f 103 151 152
f 103 152 140
f 104 140 153
f 104 153 105
f 105 153 151
f 105 151 154
f 105 154 106
f 106 154 155
f 106 155 107
f 107 155 108
f 108 155 156
f 108 156 109
f 109 156 157
f 109 157 158
f 109 158 110
f 110 158 113
f 111 118 117
f 111 117 164
f 111 164 163
f 111 163 162
f 111 162 213
f 111 213 212
f 111 212 211
f 111 211 250
f 111 250 274
f 111 274 273
f 111 273 284
f 111 284 283
f 111 283 282
f 111 282 268
f 111 268 241
f 111 241 267
f 111 267 237
f 111 237 194
f 111 194 198
f 111 198 196
f 111 196 240
f 111 240 265
f 111 265 281
f 111 281 285
f 111 285 275
f 111 275 252
f 111 252 221
f 111 221 174
f 111 174 126
f 111 126 168
f 111 168 214
f 111 214 165
f 111 165 121
f 111 121 112
f 112 121 119
f 113 158 159
f 113 159 160
f 113 160 161
f 113 161 114
f 114 161 162
f 114 162 163
f 114 163 164
f 114 164 116
f 114 116 115
f 116 164 117
f 120 165 166
f 120 166 167
f 120 167 168
f 120 168 126
f 120 126 125
f 120 121 165
f 123 136 135
f 123 135 169
f 123 169 170
f 123 170 124
f 124 170 137
f 126 171 172
f 126 172 173
f 126 173 127
f 126 174 171
f 127 173 132
f 130 134 175
f 130 175 131
f 131 175 176
f 131 176 177
f 131 177 178
f 131 178 179
f 131 179 180
f 131 180 135
f 132 173 133
f 133 173 181
f 133 181 134
f 134 181 182
f 134 182 175
f 135 180 169
f 137 183 138
f 137 170 183
f 138 183 184
f 138 184 141
f 138 141 139
f 140 152 151
f 140 151 153
f 141 185 143
f 141 143 142
f 141 184 186
f 141 186 187
f 141 187 188
f 141 188 185
f 143 185 189
f 143 189 190
f 143 190 191
f 143 191 144
f 144 191 192
f 144 192 193
f 144 193 145
f 145 194 195
f 145 195 147
f 145 147 146
f 145 193 196
f 145 196 197
f 145 197 198
f 145 198 194
f 147 195 199
f 147 199 200
f 147 200 201
f 147 201 202
f 147 202 148
f 148 202 149
f 149 202 203
f 149 203 150
f 150 203 151
f 151 203 204
f 151 204 205
f 151 205 154
f 154 205 155
f 155 205 206
f 155 206 156
f 156 206 207
f 156 207 208
f 156 208 158
f 156 158 157
f 158 208 209
f 158 209 159
f 159 209 210
f 159 210 211
f 159 211 212
f 159 212 160
f 160 213 162
f 160 162 161
f 160 212 213
f 165 214 166
f 166 214 168
f 166 168 167
f 169 180 215
f 169 215 183
f 169 183 170
f 171 174 216
f 171 216 217
f 171 217 172
f 172 217 218
f 172 218 173
f 173 218 219
f 173 219 220
f 173 220 181
f 174 221 216
f 175 182 222
f 175 222 176
f 176 222 223
f 176 223 177
f 177 223 224
f 177 224 178
f 178 224 179
f 179 215 180
f 179 224 215
f 181 220 225
f 181 225 226
f 181 226 227
f 181 227 228
f 181 228 222
f 181 222 182
f 183 215 184
f 184 215 229
f 184 229 186
f 185 188 189
f 186 229 230
f 186 230 231
f 186 231 232
f 186 232 188
f 186 188 187
f 188 232 233
f 188 233 189
f 189 233 190
f 190 233 232
f 190 232 234
f 190 234 235
f 190 235 236
f 190 236 196
f 190 196 193
f 190 193 191
f 191 193 192
f 194 237 195
f 195 237 238
f 195 238 239
f 195 239 199
f 196 236 240
f 196 198 197
f 199 239 238
f 199 238 241
f 199 241 242
f 199 242 243
f 199 243 200
f 200 243 201
f 201 243 202
f 202 243 244
f 202 244 245
f 202 245 246
f 202 246 203
f 203 246 205
f 203 205 204
f 205 246 247
f 205 247 248
f 205 248 207
f 205 207 206
f 207 248 208
f 208 248 209
f 209 248 210
f 210 249 250
f 210 250 211
f 210 248 249
f 215 224 251
f 215 251 229
f 216 252 253
f 216 253 217
f 216 221 252
f 217 253 254
f 217 254 218
f 218 254 219
f 219 226 225
f 219 225 220
f 219 254 226
f 222 228 227
f 222 227 223
f 223 227 255
f 223 255 224
f 224 255 256
f 224 256 257
f 224 257 258
f 224 258 251
f 226 256 227
f 226 254 256
f 227 256 255
f 229 251 258
f 229 258 259
f 229 259 260
f 229 260 230
f 230 261 262
f 230 262 263
f 230 263 264
f 230 264 232
f 230 232 231
f 230 260 261
f 232 264 235
f 232 235 234
f 235 264 265
f 235 265 266
f 235 266 236
f 236 266 240
f 237 267 238
f 238 267 241
f 240 266 265
f 241 268 242
f 242 268 244
f 242 244 243
f 244 269 245
f 244 268 269
f 245 269 246
f 246 269 270
f 246 270 271
f 246 271 247
f 247 271 272
f 247 272 249
f 247 249 248
f 249 272 273
f 249 273 274
f 249 274 250
f 252 275 276
f 252 276 253
f 253 276 277
f 253 277 254
f 254 277 278
f 254 278 261
f 254 261 256
f 256 258 257
f 256 261 259
f 256 259 258
f 259 261 260
f 261 278 262
f 262 278 263
f 263 278 279
f 263 279 264
f 264 279 265
f 265 279 280
f 265 280 281
f 268 282 271
f 268 271 269
f 269 271 270
f 271 282 283
f 271 283 272
f 272 284 273
f 272 283 284
f 275 285 286
f 275 286 276
f 276 286 278
f 276 278 277
f 278 286 280
f 278 280 279
f 280 286 285
f 280 285 281

