v -0.38018912 0.37986722 0.03469633
v -0.37620312 0.37986722 0.06205643
v -0.37554594 0.38575938 0.03469633
v -0.33137156 0.37986722 0.03469633
v -0.37331721 0.37986722 0.07464666
v -0.36960269 0.39231438 0.03469633
v -0.31377036 0.37987775 0.03469633
v -0.31377036 0.37986722 0.03473158
v -0.36660247 0.37986722 0.09471582
v -0.36585957 0.38070547 0.09471582
v -0.36543099 0.38118595 0.09471582
v -0.35911627 0.38779008 0.09471582
v -0.36214505 0.39058884 0.07136251
v -0.35515883 0.40481768 0.03469633
v -0.31339889 0.37999698 0.03469633
v -0.30098376 0.37986722 0.03581259
v -0.27523919 0.37986722 0.09471582
v -0.35527315 0.39100971 0.09471582
v -0.35275871 0.40609433 0.03710510
v -0.34445814 0.41233020 0.03710510
v -0.35154431 0.40753228 0.03469633
v -0.30564122 0.38396017 0.03469633
v -0.27739648 0.39929730 0.03469633
v -0.28862580 0.37986722 0.03720498
v -0.26851016 0.37986722 0.08661413
v -0.23536506 0.41391545 0.09471582
v -0.35288727 0.39275983 0.09471582
v -0.32114228 0.41569360 0.09471582
v -0.34482961 0.41256517 0.03469633
v -0.26120968 0.41223900 0.03469633
v -0.28013951 0.37986722 0.03904387
v -0.26200973 0.37986722 0.07841256
v -0.25883807 0.37986722 0.07327190
v -0.25828089 0.37986722 0.07233776
v -0.25688082 0.37986722 0.06205643
v -0.23486504 0.41470109 0.09471582
v -0.33914351 0.41569360 0.03469633
v -0.33980069 0.41535693 0.03469633
v -0.33994356 0.41527978 0.03469633
v -0.23423642 0.41569360 0.09471582
v -0.25983816 0.41344198 0.03469633
v -0.27603924 0.37986722 0.04010725
v -0.25729512 0.41569360 0.03469633
v -0.23463645 0.41569360 0.09045053
v -0.25859520 0.37986722 0.05661026
v -0.27099604 0.37986722 0.04148201
v -0.23697945 0.41569360 0.08346511
v -0.25953813 0.37986722 0.05376674
v -0.26048106 0.37986722 0.05223335
v -0.26438129 0.37986722 0.04682243
v -0.27055314 0.37986722 0.04165827
f 1 2 3
f 1 3 6
f 1 6 14
f 1 14 21
f 1 21 29
f 1 29 39
f 1 39 38
f 1 38 37
f 1 37 43
f 1 43 41
f 1 41 30
f 1 30 23
f 1 23 22
f 1 22 15
f 1 15 7
f 1 7 4
f 1 4 8
f 1 8 16
f 1 16 24
f 1 24 31
f 1 31 42
f 1 42 46
f 1 46 51
f 1 51 50
f 1 50 49
f 1 49 48
f 1 48 45
f 1 45 35
f 1 35 34
f 1 34 33
f 1 33 32
f 1 32 25
f 1 25 17
f 1 17 9
f 1 9 5
f 1 5 2
f 2 5 6
f 2 6 3
f 4 7 8
f 5 9 10
f 5 10 11
f 5 11 12
f 5 12 13
f 5 13 6
f 6 13 14
f 7 15 16
f 7 16 8
f 9 17 26
f 9 26 36
f 9 36 40
f 9 40 28
f 9 28 27
f 9 27 18
f 9 18 12
f 9 12 11
f 9 11 10
f 12 18 13
f 13 18 14
f 14 18 19
f 14 19 20
f 14 20 21
f 15 22 16
f 16 22 23
f 16 23 24
f 17 25 26
f 18 27 20
f 18 20 19
f 20 28 29
f 20 29 21
f 20 27 28
f 23 30 24
f 24 30 31
f 25 32 26
f 26 32 33
f 26 33 34
f 26 34 35
f 26 35 36
f 28 37 38
f 28 38 39
f 28 39 29
f 28 40 44
f 28 44 47
f 28 47 43
f 28 43 37
f 30 41 31
f 31 41 43
f 31 43 42
f 35 44 40
f 35 40 36
f 35 45 44
f 42 43 46
f 43 47 48
f 43 48 49
f 43 49 50
f 43 50 51
f 43 51 46
f 44 45 48
f 44 48 47

