v -0.24371954 0.27394206 0.04956551
v -0.23609520 0.26469253 0.05603815
v -0.24047510 0.27394206 0.06122226
v -0.24193510 0.27394206 0.04216392
v -0.23621683 0.26453921 0.04270331
v -0.22534814 0.25017937 0.04956551
v -0.22461814 0.25109927 0.05756642
v -0.23354020 0.26780975 0.06435371
v -0.23783907 0.27394206 0.06519275
v -0.24047510 0.27394206 0.03754917
v -0.22352314 0.25237677 0.03083680
v 0.00078680 -0.03481923 -0.01952097
v -0.01052806 -0.02081714 -0.01279362
v -0.04885257 0.02773022 0.00606994
v -0.05104255 0.03728638 0.02013895
v -0.22518590 0.26290394 0.06944792
v -0.00975751 -0.02051053 -0.00034277
v -0.04743315 0.02900778 0.01438549
v -0.23341856 0.27394206 0.06995734
v -0.23662244 0.27394206 0.03076188
v -0.23463520 0.26724761 0.03438776
v 0.14877215 -0.21224711 -0.07053799
v 0.16247975 -0.23524324 -0.06989373
v 0.10018721 -0.16017366 -0.04551643
v 0.10018721 -0.16017366 -0.04073686
v 0.15002934 -0.22256980 -0.05339747
v -0.01324525 -0.01197640 0.00744838
v 0.17059076 -0.23887150 -0.03929850
v -0.03911937 0.02537951 0.01962953
v -0.21192440 0.25171246 0.06865382
v -0.21658823 0.25871349 0.07018208
v -0.21727765 0.27108029 0.07386789
v -0.22956580 0.27394206 0.07172533
v -0.22952529 0.27159133 0.07093124
v 0.16730580 -0.24193766 -0.05023607
v 0.17059076 -0.24571924 -0.05023607
v 0.16316919 -0.23422117 -0.04394322
v -0.23451356 0.27394206 0.02866427
v -0.19813567 0.22825645 0.01886540
v 0.13818728 -0.19691636 -0.06900973
v 0.17059076 -0.22957086 -0.07798453
v 0.17059076 -0.23989355 -0.07404401
v 0.16012756 -0.22793557 -0.07173663
v 0.17059076 -0.24106891 -0.07345967
v 0.17059076 -0.24193766 -0.07280042
v 0.17059076 -0.24633247 -0.06749645
v 0.17059076 -0.24801885 -0.06270189
v 0.16146587 -0.23641860 -0.06270189
v 0.15002934 -0.22256980 -0.05867148
v 0.13380734 -0.20228213 -0.05023607
v 0.17059076 -0.24730342 -0.05793731
v 0.17059076 -0.22808888 -0.03489350
v -0.03015669 0.02328431 0.02025882
v -0.20478669 0.24936173 0.06940297
v -0.21727765 0.27394206 0.07430240
v -0.20478669 0.25861131 0.07150059
v -0.23224244 0.27394206 0.02706109
v -0.20024454 0.23658612 0.01735212
v 0.14455441 -0.20182220 -0.07115230
v -0.21034274 0.25559627 0.01867063
v 0.15700482 -0.20299756 -0.07579702
v 0.17059076 -0.21659081 -0.07876365
v 0.17059076 -0.21470002 -0.03278090
v 0.16491305 -0.20979418 -0.03132755
v -0.03015669 0.03401584 0.02307562
v -0.20478669 0.27394206 0.07287902
v -0.20478669 0.27108029 0.07292396
v -0.19233632 0.24971950 0.06913328
v -0.23009305 0.27394206 0.02596733
v 0.14451387 -0.19052853 -0.07227602
v -0.21995429 0.27394206 0.02093305
v -0.21123496 0.26392594 0.01831103
v 0.08603350 -0.10314327 -0.05727807
v 0.08672293 -0.09604002 -0.05685854
v -0.21123496 0.26556125 0.01831103
v -0.06219518 0.09073962 -0.01926626
v 0.17059076 -0.20407072 -0.07665104
v 0.15700482 -0.19052853 -0.07452346
v 0.17059076 -0.20299756 -0.03116274
v 0.16758968 -0.20299756 -0.03065332
v 0.00727560 -0.00334010 0.01419072
v -0.18605027 0.25247900 0.06829422
v -0.19476959 0.27108029 0.07006222
v -0.19525627 0.27394206 0.06989740
v -0.18605027 0.25217241 0.06829422
v -0.01770630 0.03401584 0.02175712
v -0.00878418 0.02471517 0.01950967
v -0.21646655 0.27394206 0.02015394
v 0.08964289 -0.09604002 -0.05685854
v 0.13818728 -0.15925382 -0.06894979
v -0.20478669 0.26617448 0.01805632
v -0.17984534 0.23367326 0.01116416
v -0.19675679 0.26591898 0.01801137
v -0.05509804 0.09068850 -0.01926626
v 0.15663982 -0.17785512 -0.07095752
v 0.17059076 -0.19088626 -0.07206626
v 0.13830895 -0.15925382 -0.06894979
v 0.17059076 -0.19052853 -0.03126762
v 0.16795468 -0.19052853 -0.02990417
v -0.00878418 0.03401584 0.01964452
v -0.18888912 0.27394206 0.06553736
v -0.15737786 0.23367326 0.05809083
v -0.15964894 0.24251402 0.05693713
v -0.18856468 0.27108029 0.06649628
v -0.20653057 0.27394206 0.01973442
v 0.10310716 -0.10707816 -0.05768260
v -0.04848757 0.09027969 -0.01911643
v -0.20478669 0.27394206 0.02001909
v -0.19578347 0.27394206 0.02189196
v -0.18844300 0.26351712 0.01898527
v 0.16572414 -0.18184112 -0.07008850
v 0.17059076 -0.19047744 -0.07185649
v 0.14662272 -0.16216666 -0.06766126
v 0.17059076 -0.17826394 -0.03727580
v 0.16333141 -0.17167172 -0.03143244
v 0.16491305 -0.17800844 -0.03054844
v 0.12646687 -0.13293603 -0.01866694
v -0.01060916 0.04198783 0.01892533
v -0.17039604 0.25861131 0.05855530
v -0.17258599 0.26627666 0.05692215
v -0.18122422 0.27394206 0.05936438
v -0.03563162 0.07939486 -0.01965582
v -0.17323487 0.25268341 0.01817619
v -0.19253908 0.27394206 0.02339026
v 0.17059076 -0.18408963 -0.06857522
v 0.12991405 -0.13084083 -0.05861154
v 0.13822784 -0.13441800 -0.05640905
v 0.17059076 -0.17759962 -0.03783016
v -0.17124768 0.26780975 0.04956551
v -0.17615483 0.27394206 0.04956551
v -0.17627651 0.27394206 0.04983521
v 0.13834950 -0.13421359 -0.03135752
v 0.13976892 -0.13237390 -0.03775525
v -0.16021670 0.24077656 0.01774168
v -0.16066282 0.25288786 0.03023748
v -0.18438751 0.27394206 0.02809491
v -0.18292754 0.27394206 0.02909877
v 0.17059076 -0.17923489 -0.06415524
v 0.14017447 -0.13181177 -0.04809350
v 0.16568358 -0.16896329 -0.05946558
v 0.17059076 -0.17213164 -0.05023607
v 0.16511583 -0.16957652 -0.03775525
v -0.16005450 0.25380768 0.03709968
v -0.17615483 0.27394206 0.04943066
v -0.16017616 0.25375654 0.04577482
v -0.15405235 0.24614233 0.03709968
v 0.15092155 -0.14658040 -0.04341881
v -0.17850702 0.27394206 0.03600592
v -0.17785814 0.27394206 0.03709968
v 0.17059076 -0.17862167 -0.06346603
v 0.17059076 -0.17315370 -0.05339747
v -0.14890184 0.23955011 0.03709968
v 0.17059076 -0.17831505 -0.06306148
f 1 2 3
f 1 3 9
f 1 9 19
f 1 19 33
f 1 33 55
f 1 55 66
f 1 66 84
f 1 84 101
f 1 101 121
f 1 121 131
f 1 131 130
f 1 130 144
f 1 144 149
f 1 149 148
f 1 148 137
f 1 137 136
f 1 136 124
f 1 124 109
f 1 109 108
f 1 108 105
f 1 105 88
f 1 88 71
f 1 71 69
f 1 69 57
f 1 57 38
f 1 38 20
f 1 20 10
f 1 10 4
f 1 4 5
f 1 5 6
f 1 6 2
f 2 6 7
f 2 7 3
f 3 8 9
f 3 7 8
f 4 10 5
f 5 10 11
f 5 11 12
f 5 12 13
f 5 13 6
f 6 13 14
f 6 14 7
f 7 15 16
f 7 16 8
f 7 14 17
f 7 17 18
f 7 18 15
f 8 16 9
f 9 16 19
f 10 20 21
f 10 21 11
f 11 21 20
f 11 20 22
f 11 22 23
f 11 23 12
f 12 23 24
f 12 24 13
f 13 24 25
f 13 25 14
f 14 25 26
f 14 26 17
f 15 18 27
f 15 27 28
f 15 28 29
f 15 29 16
f 16 30 31
f 16 31 32
f 16 32 33
f 16 33 34
f 16 34 19
f 16 29 30
f 17 26 35
f 17 35 36
f 17 36 37
f 17 37 18
f 18 37 27
f 19 34 33
f 20 38 39
f 20 39 40
f 20 40 22
f 22 40 41
f 22 41 42
f 22 42 43
f 22 43 23
f 23 43 44
f 23 44 45
f 23 45 46
f 23 46 47
f 23 47 48
f 23 48 49
f 23 49 24
f 24 49 50
f 24 50 25
f 25 50 26
f 26 50 49
f 26 49 47
f 26 47 51
f 26 51 35
f 27 37 28
f 28 37 36
f 28 36 51
f 28 51 47
f 28 47 46
f 28 46 45
f 28 45 44
f 28 44 42
f 28 42 41
f 28 41 62
f 28 62 77
f 28 77 96
f 28 96 112
f 28 112 125
f 28 125 138
f 28 138 150
f 28 150 153
f 28 153 151
f 28 151 141
f 28 141 128
f 28 128 114
f 28 114 98
f 28 98 79
f 28 79 63
f 28 63 52
f 28 52 29
f 29 52 53
f 29 53 54
f 29 54 30
f 30 54 31
f 31 54 32
f 32 55 33
f 32 54 56
f 32 56 55
f 35 51 36
f 38 57 58
f 38 58 39
f 39 58 40
f 40 59 41
f 40 58 60
f 40 60 59
f 41 59 61
f 41 61 62
f 42 44 43
f 47 49 48
f 52 63 64
f 52 64 65
f 52 65 53
f 53 65 54
f 54 65 56
f 55 56 67
f 55 67 66
f 56 68 67
f 56 65 68
f 57 69 60
f 57 60 58
f 59 70 61
f 59 60 70
f 60 69 71
f 60 71 72
f 60 72 61
f 60 61 70
f 61 73 74
f 61 74 62
f 61 72 75
f 61 75 76
f 61 76 73
f 62 74 78
f 62 78 77
f 63 79 80
f 63 80 64
f 64 80 81
f 64 81 65
f 65 81 68
f 66 67 82
f 66 82 83
f 66 83 84
f 67 68 85
f 67 85 82
f 68 81 86
f 68 86 87
f 68 87 85
f 71 88 75
f 71 75 72
f 73 76 74
f 74 89 97
f 74 97 90
f 74 90 78
f 74 76 89
f 75 88 91
f 75 91 92
f 75 92 76
f 76 92 91
f 76 91 93
f 76 93 94
f 76 94 89
f 77 95 96
f 77 78 97
f 77 97 95
f 78 90 97
f 79 98 99
f 79 99 87
f 79 87 80
f 80 87 81
f 81 87 86
f 82 85 100
f 82 100 83
f 83 100 84
f 84 100 102
f 84 102 103
f 84 103 104
f 84 104 101
f 85 87 100
f 87 99 100
f 88 105 91
f 89 106 97
f 89 94 107
f 89 107 106
f 91 105 93
f 93 105 108
f 93 108 109
f 93 109 110
f 93 110 107
f 93 107 94
f 95 111 96
f 95 97 111
f 96 111 112
f 97 106 113
f 97 113 111
f 98 114 115
f 98 115 116
f 98 116 99
f 99 116 117
f 99 117 100
f 100 118 102
f 100 117 118
f 101 104 119
f 101 119 120
f 101 120 121
f 102 118 117
f 102 117 103
f 103 120 119
f 103 119 104
f 103 117 115
f 103 115 120
f 106 111 113
f 106 107 122
f 106 122 111
f 107 110 123
f 107 123 122
f 109 124 123
f 109 123 110
f 111 125 112
f 111 122 126
f 111 126 127
f 111 127 125
f 114 128 115
f 115 117 116
f 115 128 120
f 120 129 130
f 120 130 131
f 120 131 121
f 120 128 132
f 120 132 133
f 120 133 129
f 122 123 134
f 122 134 135
f 122 135 127
f 122 127 126
f 123 124 136
f 123 136 137
f 123 137 134
f 125 127 138
f 127 139 140
f 127 140 138
f 127 135 139
f 128 141 142
f 128 142 132
f 129 143 144
f 129 144 130
f 129 133 145
f 129 145 146
f 129 146 143
f 132 142 133
f 133 142 141
f 133 141 147
f 133 147 139
f 133 139 145
f 134 137 135
f 135 137 148
f 135 148 149
f 135 149 143
f 135 143 139
f 138 140 150
f 139 147 141
f 139 141 151
f 139 151 140
f 139 143 146
f 139 146 152
f 139 152 145
f 140 151 153
f 140 153 150
f 143 149 144
f 145 152 146

