v -0.34077262 0.32127003 0.21177250
v -0.32294760 0.32693096 0.20411183
v -0.32247948 0.32652946 0.21177250
v -0.34077262 0.32128726 0.21302606
v -0.34077262 0.32395996 0.17339953
v -0.34077262 0.32485470 0.16277906
v -0.30968999 0.33877472 0.12656501
v -0.32259318 0.32662125 0.21967691
v -0.30909814 0.33838473 0.13690691
v -0.34077262 0.32162562 0.22420368
v -0.34077262 0.33050417 0.11221868
v -0.30661382 0.34120085 0.13662834
v -0.34077262 0.33178890 0.10205088
v -0.31093050 0.33977842 0.11824273
v -0.30661382 0.35375581 0.06207614
v -0.32557234 0.32851970 0.22799919
v -0.33388805 0.32640328 0.23175987
v -0.34077262 0.32195831 0.22542242
v -0.30661382 0.34301898 0.21194661
v -0.30661382 0.34359829 0.22423849
v -0.30661382 0.34473965 0.23670448
v -0.30661382 0.34898962 0.24652407
v -0.34077262 0.33412900 0.08867954
v -0.34077262 0.33653791 0.07621355
v -0.34077262 0.33666405 0.07558676
v -0.34077262 0.36990121 -0.07515424
v -0.33435947 0.37608978 -0.08368544
v -0.30661382 0.35427775 0.06036990
v -0.32195117 0.33910165 0.24370355
v -0.34077262 0.32494649 0.23332683
v -0.30661382 0.35363538 0.25178207
v -0.34077262 0.37412825 -0.08706309
v -0.33793053 0.37828648 -0.09200770
v -0.33129334 0.37986374 -0.08650595
v -0.32698005 0.37986374 -0.07518906
v -0.30661382 0.35918159 0.04995835
v -0.30661382 0.35484555 0.25286152
v -0.31711626 0.35350344 0.25460259
v -0.32959145 0.33805208 0.24453926
v -0.34077262 0.33130712 0.24036072
v -0.34077262 0.32539957 0.23388396
v -0.34077262 0.37516640 -0.08908273
v -0.34077262 0.37986374 -0.09468894
v -0.33932480 0.37986374 -0.09427109
v -0.33403182 0.37986374 -0.08991843
v -0.30661382 0.37986374 0.03683076
v -0.30661382 0.37393325 0.03947717
v -0.30661382 0.37381853 0.03954681
v -0.30661382 0.37217246 0.04059145
v -0.30661382 0.36018530 0.04884408
v -0.30661382 0.36009927 0.25721419
v -0.31711626 0.35973793 0.25801507
v -0.34077262 0.33772514 0.24537496
v -0.34077262 0.33689921 0.24481783
v -0.34077262 0.37986374 0.20533059
v -0.30661382 0.37986374 0.25965165
v -0.30661382 0.36108575 0.25773650
v -0.30661382 0.36915559 0.26083558
v -0.30661382 0.37110566 0.26104452
v -0.31834673 0.37213230 0.25895523
v -0.32475315 0.36151594 0.25655257
v -0.34077262 0.34598422 0.24816065
v -0.34077262 0.37832664 0.21177250
v -0.33836184 0.37986374 0.21177250
v -0.30954288 0.37986374 0.25916417
v -0.30661382 0.37881988 0.25982576
v -0.31514348 0.37986374 0.25787578
v -0.31588245 0.37986374 0.25756239
v -0.32332541 0.37709349 0.25526418
v -0.32475315 0.36877703 0.25655257
v -0.34077262 0.34717150 0.24847405
v -0.34077262 0.37679524 0.21553320
v -0.32040974 0.37986374 0.25237404
v -0.34077262 0.36655169 0.23694824
v -0.34077262 0.36399366 0.24175357
v -0.34077262 0.35886612 0.24638478
v -0.34077262 0.37331953 0.22343761
v -0.34077262 0.36726286 0.23559020
v -0.34077262 0.35806317 0.24659372
f 1 2 3
f 1 3 4
f 1 4 10
f 1 10 18
f 1 18 30
f 1 30 41
f 1 41 40
f 1 40 54
f 1 54 53
f 1 53 62
f 1 62 71
f 1 71 79
f 1 79 76
f 1 76 75
f 1 75 74
f 1 74 78
f 1 78 77
f 1 77 72
f 1 72 63
f 1 63 55
f 1 55 43
f 1 43 42
f 1 42 32
f 1 32 26
f 1 26 25
f 1 25 24
f 1 24 23
f 1 23 13
f 1 13 11
f 1 11 6
f 1 6 5
f 1 5 2
f 2 5 6
f 2 6 7
f 2 7 3
f 3 8 4
f 3 7 9
f 3 9 8
f 4 8 10
f 6 11 7
f 7 12 9
f 7 11 13
f 7 13 14
f 7 14 15
f 7 15 12
f 8 16 17
f 8 17 18
f 8 18 10
f 8 9 19
f 8 19 20
f 8 20 21
f 8 21 22
f 8 22 16
f 9 12 19
f 12 15 28
f 12 28 36
f 12 36 50
f 12 50 49
f 12 49 48
f 12 48 47
f 12 47 46
f 12 46 56
f 12 56 66
f 12 66 59
f 12 59 58
f 12 58 57
f 12 57 51
f 12 51 37
f 12 37 31
f 12 31 22
f 12 22 21
f 12 21 20
f 12 20 19
f 13 23 14
f 14 23 24
f 14 24 25
f 14 25 15
f 15 25 26
f 15 26 27
f 15 27 28
f 16 22 29
f 16 29 17
f 17 30 18
f 17 29 30
f 22 31 29
f 26 32 27
f 27 32 33
f 27 33 34
f 27 34 35
f 27 35 28
f 28 35 36
f 29 31 37
f 29 37 38
f 29 38 39
f 29 39 40
f 29 40 41
f 29 41 30
f 32 42 33
f 33 43 44
f 33 44 45
f 33 45 34
f 33 42 43
f 34 45 44
f 34 44 43
f 34 43 55
f 34 55 64
f 34 64 73
f 34 73 68
f 34 68 67
f 34 67 65
f 34 65 56
f 34 56 46
f 34 46 35
f 35 46 47
f 35 47 48
f 35 48 49
f 35 49 50
f 35 50 36
f 37 51 38
f 38 51 52
f 38 52 53
f 38 53 54
f 38 54 39
f 39 54 40
f 51 57 52
f 52 57 58
f 52 58 59
f 52 59 60
f 52 60 61
f 52 61 62
f 52 62 53
f 55 63 64
f 56 65 66
f 59 66 60
f 60 66 65
f 60 65 67
f 60 67 68
f 60 68 69
f 60 69 70
f 60 70 61
f 61 70 71
f 61 71 62
f 63 72 69
f 63 69 73
f 63 73 64
f 68 73 69
f 69 74 75
f 69 75 76
f 69 76 70
f 69 72 77
f 69 77 78
f 69 78 74
f 70 76 79
f 70 79 71

