v 0.34817751 -0.46011716 -0.19628709
v 0.34433642 -0.45203119 -0.19959145
v 0.34881682 -0.44843743 -0.20705956
v 0.35386251 -0.46011716 -0.19628709
v 0.34817751 -0.46011716 -0.19089346
v 0.33670181 -0.44818823 -0.18747798
v 0.33753661 -0.44730290 -0.19457565
v 0.34881682 -0.44449611 -0.20705956
v 0.35323378 -0.44843743 -0.20705956
v 0.35770889 -0.45332310 -0.20083613
v 0.36455098 -0.44988675 -0.19706503
v 0.35386251 -0.46011716 -0.19089346
v 0.33684447 -0.44753899 -0.17500148
v 0.33150816 -0.42827171 -0.13137820
v 0.32612432 -0.42683552 -0.13137820
v 0.32163865 -0.42473041 -0.13137820
v 0.32521556 -0.43410173 -0.15544212
v 0.32521556 -0.43410173 -0.15801299
v 0.33753661 -0.44409606 -0.19457565
v 0.31172686 -0.41140464 -0.13411206
v 0.34708383 -0.43235076 -0.19592405
v 0.35323378 -0.44449611 -0.20705956
v 0.33876766 -0.43578058 -0.19312353
v 0.36455098 -0.44290907 -0.19706503
v 0.36455098 -0.44988675 -0.18972286
v 0.35831649 -0.45394612 -0.18615180
v 0.35081396 -0.44662743 -0.16834093
v 0.33791174 -0.42694044 -0.13137820
v 0.31853725 -0.42183179 -0.13137820
v 0.31133060 -0.41173254 -0.13137820
v 0.31058035 -0.40874867 -0.13137820
v 0.31072829 -0.40264322 -0.13137820
v 0.31178498 -0.40264322 -0.13375643
v 0.35361420 -0.43235076 -0.19592405
v 0.32577032 -0.40896509 -0.15624228
v 0.31892295 -0.39336370 -0.13137820
v 0.33408650 -0.40840766 -0.15713875
v 0.35758208 -0.43954485 -0.20065091
v 0.31264090 -0.39600656 -0.13179308
v 0.36455098 -0.44290907 -0.18972286
v 0.35563247 -0.43016041 -0.18747798
v 0.35103586 -0.42069071 -0.17058581
v 0.35122080 -0.42026444 -0.16253239
v 0.34342238 -0.41535910 -0.13137820
v 0.34262987 -0.42134651 -0.13137820
v 0.34162601 -0.42536653 -0.13137820
v 0.31255108 -0.39575736 -0.13137820
v 0.33868312 -0.40840766 -0.15713875
v 0.31921354 -0.39493762 -0.13369716
v 0.32566465 -0.39312761 -0.13137820
v 0.35085622 -0.42055955 -0.15514577
v 0.33989831 -0.40699114 -0.15005590
v 0.33829215 -0.40192839 -0.13137820
v 0.34017835 -0.40502375 -0.13137820
v 0.34231286 -0.41012585 -0.13137820
v 0.32836979 -0.39484580 -0.13403056
v 0.32889814 -0.39421624 -0.13137820
f 1 2 3
f 1 3 9
f 1 9 4
f 1 4 12
f 1 12 5
f 1 5 6
f 1 6 7
f 1 7 2
f 2 7 3
f 3 8 22
f 3 22 9
f 3 7 19
f 3 19 8
f 4 9 10
f 4 10 11
f 4 11 25
f 4 25 12
f 5 13 6
f 5 12 14
f 5 14 15
f 5 15 16
f 5 16 17
f 5 17 13
f 6 13 17
f 6 17 18
f 6 18 7
f 7 18 20
f 7 20 19
f 8 21 34
f 8 34 22
f 8 19 23
f 8 23 21
f 9 22 24
f 9 24 11
f 9 11 10
f 11 24 40
f 11 40 25
f 12 25 26
f 12 26 27
f 12 27 28
f 12 28 14
f 14 28 46
f 14 46 45
f 14 45 44
f 14 44 55
f 14 55 54
f 14 54 53
f 14 53 57
f 14 57 50
f 14 50 36
f 14 36 47
f 14 47 32
f 14 32 31
f 14 31 30
f 14 30 29
f 14 29 16
f 14 16 15
f 16 29 17
f 17 29 30
f 17 30 18
f 18 30 20
f 19 20 31
f 19 31 32
f 19 32 33
f 19 33 23
f 20 30 31
f 21 23 35
f 21 35 36
f 21 36 37
f 21 37 48
f 21 48 34
f 22 38 24
f 22 34 38
f 23 33 39
f 23 39 35
f 24 38 34
f 24 34 41
f 24 41 42
f 24 42 43
f 24 43 40
f 25 40 44
f 25 44 45
f 25 45 46
f 25 46 26
f 26 46 27
f 27 46 28
f 32 47 39
f 32 39 33
f 34 42 41
f 34 48 42
f 35 39 49
f 35 49 36
f 36 50 37
f 36 49 39
f 36 39 47
f 37 50 48
f 40 43 51
f 40 51 44
f 42 48 52
f 42 52 53
f 42 53 43
f 43 53 54
f 43 54 51
f 44 51 55
f 48 50 56
f 48 56 57
f 48 57 52
f 50 57 56
f 51 54 55
f 52 57 53

