v -0.25668386 0.41569360 0.02461206
v -0.25957945 0.41291938 0.02461206
v -0.25675347 0.41569360 0.01886571
v -0.25729642 0.41569360 0.03469633
v -0.26667928 0.40668002 0.02461206
v -0.25969082 0.41308425 0.01214755
v -0.25690661 0.41569360 0.01214755
v -0.25984396 0.41344198 0.03469633
v -0.26120825 0.41223900 0.03469633
v -0.33915297 0.41569360 0.03469633
v -0.27739858 0.39929730 0.03469633
v -0.27291595 0.40188563 0.02461206
v -0.27277673 0.40182249 0.01764039
v -0.25768618 0.41569360 0.00589418
v -0.34224346 0.41569360 0.02461206
v -0.34640589 0.41355072 0.02461206
v -0.33979332 0.41535693 0.03469633
v -0.30564465 0.38396017 0.03469633
v -0.25856321 0.41569360 0.00190835
v -0.32500905 0.37986722 -0.06270987
v -0.32698585 0.37986722 -0.07518846
v -0.31068415 0.38950161 -0.06958295
v -0.34995580 0.41569360 -0.02528820
v -0.35566350 0.40644505 0.02490783
v -0.36056373 0.40193476 0.02924575
v -0.35516231 0.40481768 0.03469633
v -0.34483278 0.41256517 0.03469633
v -0.31341268 0.37999698 0.03469633
v -0.26052608 0.41569360 -0.00393658
v -0.31220153 0.39059585 -0.07789262
v -0.32358907 0.37986722 -0.05023128
v -0.31378856 0.37987775 0.03469633
v -0.33128749 0.37986722 -0.08652622
v -0.36600691 0.39822059 0.02490783
v -0.35651268 0.41569360 -0.08765296
v -0.35935258 0.41351913 -0.08765296
v -0.37334336 0.40219075 -0.08118832
v -0.37473549 0.39115000 0.02461206
v -0.37401161 0.39042749 0.03190766
v -0.36961251 0.39231438 0.03469633
v -0.30153791 0.40536482 -0.08765296
v -0.29201584 0.41569360 -0.08765296
v -0.32104148 0.38800051 -0.08765296
v -0.31480481 0.39273525 -0.08765296
v -0.30777459 0.39897112 -0.08765296
v -0.31590458 0.37986722 0.02935843
v -0.33137102 0.37986722 0.03469633
v -0.33402994 0.37986722 -0.08993460
v -0.32311574 0.38945600 -0.09410351
v -0.38704183 0.39075019 -0.07741376
v -0.35428529 0.41569360 -0.10013154
v -0.37317635 0.40205751 -0.09180779
v -0.38725066 0.39104478 -0.08765296
v -0.38530166 0.37986722 0.02306280
v -0.39890267 0.37986722 -0.07501944
v -0.39213697 0.37986722 -0.02528820
v -0.38466130 0.37986722 0.02564020
v -0.38365898 0.37986722 0.02786550
v -0.38097217 0.37986722 0.03335834
v -0.38017867 0.37986722 0.03469633
v -0.37554291 0.38575938 0.03469633
v -0.29730588 0.41336831 -0.09555418
v -0.29606689 0.41569360 -0.09673726
v -0.30975143 0.40113158 -0.09499081
v -0.33931998 0.37986722 -0.09427252
v -0.32958908 0.38722188 -0.09617389
v -0.32353339 0.40226089 -0.10632859
v -0.31822942 0.39654061 -0.09714570
v -0.34956599 0.41569360 -0.10707505
v -0.38644319 0.39040996 -0.09477956
v -0.39824839 0.37986722 -0.08475162
v -0.29986735 0.41569360 -0.10052590
v -0.30241494 0.41569360 -0.10297655
v -0.34459615 0.37986722 -0.09738513
v -0.34284205 0.38384094 -0.09999070
v -0.33943136 0.39192158 -0.10504692
v -0.34775625 0.38938939 -0.10653985
v -0.33184432 0.40023372 -0.10720180
v -0.31711573 0.41109915 -0.10745532
v -0.30991845 0.41395405 -0.10675111
v -0.31711573 0.40485975 -0.10403286
v -0.34946854 0.41569360 -0.10708913
v -0.35403470 0.40759542 -0.10768066
v -0.37355219 0.38998561 -0.10653985
v -0.36152429 0.40292731 -0.10677928
v -0.38832259 0.38341303 -0.09615981
v -0.38855926 0.37986722 -0.09611755
v -0.30880475 0.41569360 -0.10697646
v -0.35453588 0.37986722 -0.10114561
v -0.35453588 0.38207676 -0.10289204
v -0.35453588 0.38831264 -0.10699054
v -0.34298127 0.39600400 -0.10761024
v -0.32844754 0.40719557 -0.10818770
v -0.31711573 0.41569360 -0.10825812
v -0.34132467 0.41569360 -0.10814545
v -0.34206248 0.40836348 -0.10918767
v -0.37355219 0.38891939 -0.10653985
v -0.37842462 0.38421969 -0.10269486
v -0.37877262 0.37986722 -0.10134278
v -0.36717629 0.37986722 -0.10344132
v -0.36700923 0.38796191 -0.10699054
v -0.35453588 0.39588826 -0.10810319
v -0.36700923 0.38172256 -0.10459623
v -0.32915755 0.41569360 -0.10862430
f 1 2 3
f 1 3 7
f 1 7 14
f 1 14 19
f 1 19 29
f 1 29 42
f 1 42 63
f 1 63 72
f 1 72 73
f 1 73 88
f 1 88 94
f 1 94 104
f 1 104 95
f 1 95 82
f 1 82 69
f 1 69 51
f 1 51 35
f 1 35 23
f 1 23 15
f 1 15 10
f 1 10 4
f 1 4 2
f 2 5 6
f 2 6 7
f 2 7 3
f 2 4 8
f 2 8 9
f 2 9 5
f 4 10 17
f 4 17 27
f 4 27 26
f 4 26 40
f 4 40 61
f 4 61 60
f 4 60 47
f 4 47 32
f 4 32 28
f 4 28 18
f 4 18 11
f 4 11 9
f 4 9 8
f 5 9 11
f 5 11 12
f 5 12 13
f 5 13 6
f 6 14 7
f 6 13 14
f 10 15 16
f 10 16 17
f 11 18 13
f 11 13 12
f 13 19 14
f 13 18 20
f 13 20 21
f 13 21 22
f 13 22 19
f 15 23 16
f 16 24 25
f 16 25 26
f 16 26 27
f 16 27 17
f 16 23 24
f 18 28 20
f 19 22 30
f 19 30 29
f 20 31 46
f 20 46 47
f 20 47 60
f 20 60 59
f 20 59 58
f 20 58 57
f 20 57 54
f 20 54 56
f 20 56 55
f 20 55 71
f 20 71 87
f 20 87 99
f 20 99 100
f 20 100 89
f 20 89 74
f 20 74 65
f 20 65 48
f 20 48 33
f 20 33 21
f 20 28 32
f 20 32 31
f 21 33 30
f 21 30 22
f 23 34 24
f 23 35 36
f 23 36 37
f 23 37 34
f 24 34 25
f 25 34 38
f 25 38 39
f 25 39 26
f 26 39 40
f 29 30 41
f 29 41 42
f 30 33 43
f 30 43 44
f 30 44 45
f 30 45 41
f 31 32 46
f 32 47 46
f 33 48 49
f 33 49 43
f 34 37 50
f 34 50 38
f 35 51 36
f 36 51 52
f 36 52 53
f 36 53 37
f 37 53 50
f 38 54 39
f 38 50 55
f 38 55 56
f 38 56 54
f 39 57 58
f 39 58 59
f 39 59 60
f 39 60 61
f 39 61 40
f 39 54 57
f 41 45 62
f 41 62 42
f 42 62 63
f 43 49 44
f 44 49 64
f 44 64 45
f 45 64 62
f 48 65 49
f 49 65 66
f 49 66 67
f 49 67 68
f 49 68 64
f 50 53 55
f 51 69 70
f 51 70 52
f 52 70 53
f 53 70 71
f 53 71 55
f 62 64 72
f 62 72 63
f 64 68 73
f 64 73 72
f 65 74 66
f 66 74 75
f 66 75 67
f 67 75 76
f 67 76 77
f 67 77 78
f 67 78 79
f 67 79 80
f 67 80 73
f 67 73 81
f 67 81 68
f 68 81 73
f 69 82 83
f 69 83 84
f 69 84 85
f 69 85 70
f 70 86 71
f 70 85 84
f 70 84 86
f 71 86 87
f 73 80 88
f 74 89 77
f 74 77 75
f 75 77 76
f 77 89 90
f 77 90 91
f 77 91 92
f 77 92 78
f 78 92 93
f 78 93 79
f 79 93 94
f 79 94 88
f 79 88 80
f 82 95 96
f 82 96 83
f 83 96 84
f 84 87 86
f 84 96 97
f 84 97 87
f 87 97 98
f 87 98 99
f 89 100 90
f 90 100 91
f 91 101 102
f 91 102 92
f 91 100 103
f 91 103 101
f 92 102 96
f 92 96 93
f 93 96 94
f 94 96 104
f 95 104 96
f 96 102 97
f 97 102 101
f 97 101 103
f 97 103 99
f 97 99 98
f 99 103 100

