v 0.25218924 -0.35566395 -0.07520028
v 0.25218924 -0.35218895 -0.06653184
v 0.25218924 -0.35546218 -0.07910468
v 0.32394501 -0.44814381 -0.09669061
v 0.32394501 -0.44814381 -0.09012702
v 0.25218924 -0.34467846 -0.06295681
v 0.32577382 -0.44603638 -0.08181207
v 0.33127466 -0.44027460 -0.07492713
v 0.33676110 -0.43451283 -0.06860455
v 0.25218924 -0.35499137 -0.08766869
v 0.37294859 -0.50625476 -0.11646976
v 0.37294859 -0.50636687 -0.11260552
v 0.25218924 -0.35162848 -0.09604791
v 0.37294859 -0.50195026 -0.10153498
v 0.25218924 -0.34026186 -0.06141432
v 0.37496461 -0.49661444 -0.09366992
v 0.37888144 -0.49910299 -0.09310755
v 0.33860432 -0.43451283 -0.06860455
v 0.25218924 -0.32329040 -0.05600760
v 0.38238066 -0.49910299 -0.09187035
v 0.39405914 -0.49910299 -0.09051265
v 0.31853056 -0.42180106 -0.13136436
v 0.37294859 -0.50248832 -0.12165957
v 0.38147345 -0.49910299 -0.13216774
v 0.38359027 -0.49910299 -0.13311574
v 0.39066072 -0.49910299 -0.13542946
v 0.39405914 -0.49910299 -0.13586328
v 0.39930079 -0.49910299 -0.13610430
v 0.39930079 -0.49910299 -0.09167754
v 0.25218924 -0.34026186 -0.09855445
v 0.31134491 -0.41171235 -0.13136436
v 0.33860432 -0.43197945 -0.06860455
v 0.25218924 -0.30362862 -0.05403129
v 0.25354284 -0.32329040 -0.05600760
v 0.39930079 -0.48995591 -0.09148473
v 0.37758542 -0.49910299 -0.12890604
v 0.37588621 -0.49910299 -0.12732338
v 0.31058170 -0.40870815 -0.13136436
v 0.31075450 -0.40261009 -0.13136436
v 0.39930079 -0.49520203 -0.13560620
v 0.31256892 -0.39574976 -0.13136436
v 0.31890496 -0.39335089 -0.13136436
v 0.32565862 -0.39310427 -0.13136436
v 0.32888424 -0.39420283 -0.13136436
v 0.33827312 -0.40189267 -0.13136436
v 0.25218924 -0.33564347 -0.09915698
v 0.34331315 -0.42774219 -0.07255717
v 0.26309013 -0.30909895 -0.05648963
v 0.25979250 -0.30636379 -0.05576659
v 0.25704208 -0.30409943 -0.05518012
v 0.39930079 -0.48056219 -0.09288261
v 0.39930079 -0.47753557 -0.09350924
v 0.39930079 -0.47347767 -0.09440099
v 0.25218924 -0.29037878 -0.05514798
v 0.25218924 -0.32315588 -0.09957474
v 0.39930079 -0.48542719 -0.13257747
v 0.25218924 -0.31069072 -0.09784748
v 0.25218924 -0.29941379 -0.09520436
v 0.25218924 -0.29638718 -0.09446526
v 0.25218924 -0.29573702 -0.09420818
v 0.25218924 -0.28928024 -0.08973337
v 0.25218924 -0.28145589 -0.08404546
v 0.25272204 -0.28165765 -0.08380444
v 0.26480373 -0.29468330 -0.08357950
v 0.27669823 -0.30766411 -0.08331439
v 0.39930079 -0.46502558 -0.12315385
v 0.39930079 -0.47668364 -0.12940413
v 0.39930079 -0.48280413 -0.13170179
v 0.31266971 -0.37236637 -0.06912674
v 0.25266444 -0.29037878 -0.05532473
v 0.39930079 -0.47300687 -0.09465003
v 0.25218924 -0.28863007 -0.05554967
v 0.25218924 -0.28046943 -0.08257528
v 0.25218924 -0.27733072 -0.07520028
v 0.28824713 -0.32129508 -0.08193257
v 0.39930079 -0.45964494 -0.11261355
v 0.39930079 -0.45993638 -0.11320805
v 0.39930079 -0.46439783 -0.09981575
v 0.28948553 -0.33174250 -0.06754409
v 0.25218924 -0.28181460 -0.06091623
v 0.25218924 -0.27800330 -0.07089418
v 0.26542294 -0.29376411 -0.07520028
v 0.28824713 -0.32129508 -0.08076768
v 0.39930079 -0.46329928 -0.10218571
v 0.27570462 -0.30887475 -0.06873309
v 0.25218924 -0.28035733 -0.06272383
v 0.26447253 -0.29475056 -0.06667644
v 0.27167260 -0.30161089 -0.07520028
f 1 2 6
f 1 6 15
f 1 15 19
f 1 19 33
f 1 33 54
f 1 54 72
f 1 72 80
f 1 80 86
f 1 86 81
f 1 81 74
f 1 74 73
f 1 73 62
f 1 62 61
f 1 61 60
f 1 60 59
f 1 59 58
f 1 58 57
f 1 57 55
f 1 55 46
f 1 46 30
f 1 30 13
f 1 13 10
f 1 10 3
f 1 3 4
f 1 4 5
f 1 5 2
f 2 5 7
f 2 7 8
f 2 8 9
f 2 9 6
f 3 10 4
f 4 11 12
f 4 12 5
f 4 10 13
f 4 13 11
f 5 12 14
f 5 14 7
f 6 9 15
f 7 14 16
f 7 16 17
f 7 17 8
f 8 17 9
f 9 18 34
f 9 34 19
f 9 19 15
f 9 17 20
f 9 20 21
f 9 21 18
f 11 13 22
f 11 22 23
f 11 23 24
f 11 24 25
f 11 25 26
f 11 26 27
f 11 27 28
f 11 28 12
f 12 28 29
f 12 29 21
f 12 21 20
f 12 20 14
f 13 30 31
f 13 31 22
f 14 20 17
f 14 17 16
f 18 32 33
f 18 33 34
f 18 21 29
f 18 29 35
f 18 35 32
f 19 34 33
f 22 31 26
f 22 26 25
f 22 25 24
f 22 24 36
f 22 36 37
f 22 37 23
f 23 37 36
f 23 36 24
f 26 31 27
f 27 31 38
f 27 38 39
f 27 39 28
f 28 40 56
f 28 56 68
f 28 68 67
f 28 67 66
f 28 66 77
f 28 77 76
f 28 76 84
f 28 84 78
f 28 78 71
f 28 71 53
f 28 53 52
f 28 52 51
f 28 51 35
f 28 35 29
f 28 39 41
f 28 41 42
f 28 42 43
f 28 43 44
f 28 44 45
f 28 45 40
f 30 46 38
f 30 38 31
f 32 47 48
f 32 48 49
f 32 49 50
f 32 50 33
f 32 35 51
f 32 51 52
f 32 52 53
f 32 53 47
f 33 50 54
f 38 46 55
f 38 55 39
f 39 55 41
f 40 45 56
f 41 55 57
f 41 57 58
f 41 58 59
f 41 59 42
f 42 59 43
f 43 59 60
f 43 60 44
f 44 60 61
f 44 61 62
f 44 62 45
f 45 62 63
f 45 63 64
f 45 64 65
f 45 65 66
f 45 66 67
f 45 67 68
f 45 68 56
f 47 69 48
f 47 53 69
f 48 70 54
f 48 54 49
f 48 69 70
f 49 54 50
f 53 71 72
f 53 72 69
f 54 70 72
f 62 73 63
f 63 73 64
f 64 73 74
f 64 74 65
f 65 74 75
f 65 75 76
f 65 76 77
f 65 77 66
f 69 72 70
f 71 78 79
f 71 79 72
f 72 79 80
f 74 81 82
f 74 82 83
f 74 83 75
f 75 83 76
f 76 83 84
f 78 84 85
f 78 85 79
f 79 85 80
f 80 85 86
f 81 86 87
f 81 87 88
f 81 88 83
f 81 83 82
f 83 88 87
f 83 87 85
f 83 85 84
f 85 87 86

