v 0.59304099 -0.73881302 -0.18530380
v 0.59369880 -0.73881302 -0.18517914
v 0.58122393 -0.73881302 -0.18526225
v 0.56873754 -0.71883825 -0.18161256
v 0.56873754 -0.71259983 -0.18048372
v 0.57719643 -0.71908884 -0.18167488
v 0.59369880 -0.73085344 -0.18224276
v 0.60291937 -0.73881302 -0.18261674
v 0.58053154 -0.73881302 -0.18522762
v 0.56235585 -0.71988680 -0.18130092
v 0.52572750 -0.67145017 -0.17136296
v 0.53165914 -0.67145017 -0.17170230
v 0.55627418 -0.70208820 -0.17813600
v 0.53888324 -0.67145017 -0.17195162
v 0.54379931 -0.67145017 -0.17098899
v 0.59996506 -0.73324066 -0.18126629
v 0.54763065 -0.67145017 -0.16998481
v 0.60375026 -0.73881302 -0.18235358
v 0.57106863 -0.73881302 -0.18280373
v 0.56235585 -0.72146286 -0.18130092
v 0.52044214 -0.67145017 -0.16993633
v 0.57553466 -0.69528269 -0.16926457
v 0.61523267 -0.70622296 -0.14493563
v 0.55052722 -0.67145017 -0.16893214
v 0.56295591 -0.68290478 -0.16911221
v 0.60952029 -0.73881302 -0.17641851
v 0.57067628 -0.73881302 -0.18269292
v 0.51714166 -0.67145017 -0.16895292
v 0.61846390 -0.70157385 -0.13771935
v 0.55190048 -0.67145017 -0.16756092
v 0.61038580 -0.73881302 -0.17499880
v 0.56488314 -0.73881302 -0.17902246
v 0.52415804 -0.68494249 -0.16933382
v 0.51456821 -0.67145017 -0.16722157
v 0.61339776 -0.69556626 -0.13221366
v 0.61846390 -0.70148153 -0.13733153
v 0.61846390 -0.71370773 -0.14271258
v 0.55710507 -0.67145017 -0.16220758
v 0.61233609 -0.73881302 -0.16786563
v 0.56453692 -0.73881302 -0.17871774
v 0.53708300 -0.70905202 -0.16922994
v 0.51583763 -0.67713462 -0.16579494
v 0.51182167 -0.67145017 -0.16456222
v 0.61339776 -0.69556626 -0.13066237
v 0.61846390 -0.69934490 -0.12591154
v 0.56121337 -0.67145017 -0.15004657
v 0.61846390 -0.71456503 -0.14271258
v 0.61321312 -0.73881302 -0.16252615
v 0.61846390 -0.71518491 -0.14260869
v 0.55906692 -0.73881302 -0.17281729
v 0.55840912 -0.73881302 -0.17205550
v 0.51211017 -0.68403905 -0.15702738
v 0.50975599 -0.67713462 -0.15955515
v 0.50841734 -0.67145017 -0.16106489
v 0.55554717 -0.67145017 -0.13769858
v 0.55036565 -0.67145017 -0.13113329
v 0.61846390 -0.70371048 -0.11938089
v 0.61846390 -0.71559377 -0.14235245
v 0.61846390 -0.72412044 -0.13634120
v 0.61846390 -0.72425894 -0.13618191
v 0.61846390 -0.72669231 -0.12532288
v 0.61846390 -0.72665933 -0.12510820
v 0.60616211 -0.73881302 -0.14927785
v 0.55423161 -0.73881302 -0.16250537
v 0.55071186 -0.73217234 -0.16636975
v 0.50058160 -0.67145017 -0.14451318
v 0.50224338 -0.67145017 -0.15121004
v 0.50340892 -0.67145017 -0.15431955
v 0.54955783 -0.73389351 -0.15805234
v 0.54385705 -0.67145017 -0.12834929
v 0.61846390 -0.70557011 -0.11670768
v 0.61846390 -0.72322360 -0.11672154
v 0.59471433 -0.73881302 -0.14125131
v 0.60605828 -0.73881302 -0.14917398
v 0.55419699 -0.73881302 -0.16233917
v 0.50072008 -0.67145017 -0.14320428
v 0.54955783 -0.73389351 -0.15481125
v 0.53132449 -0.67145017 -0.12496277
v 0.61846390 -0.71455843 -0.11455388
v 0.56818362 -0.73881302 -0.13972772
v 0.58122393 -0.73881302 -0.13794789
v 0.58197405 -0.73881302 -0.13802407
v 0.61846390 -0.71473647 -0.11459543
v 0.51875727 -0.67145017 -0.12568993
v 0.53552506 -0.69754462 -0.13058620
v 0.54965015 -0.70861018 -0.13123025
v 0.55555873 -0.73881302 -0.15043440
v 0.51176398 -0.68439517 -0.14204773
v 0.50323581 -0.67145017 -0.13634813
v 0.55127735 -0.73211960 -0.14650076
v 0.52350026 -0.69772266 -0.14121668
v 0.56491776 -0.73881302 -0.14085657
v 0.50912128 -0.67145017 -0.12899335
v 0.51867649 -0.67741819 -0.12798916
v 0.52271553 -0.68591188 -0.13005986
v 0.55958622 -0.73649835 -0.14190922
v 0.55584720 -0.73881302 -0.14970030
v 0.51440666 -0.68177056 -0.13373032
v 0.51005602 -0.67345486 -0.12962356
v 0.54737676 -0.72380390 -0.14146600
v 0.53546737 -0.71081276 -0.14133441
v 0.55685122 -0.73881302 -0.14843988
v 0.52720463 -0.69423414 -0.13289928
f 1 2 8
f 1 8 18
f 1 18 26
f 1 26 31
f 1 31 39
f 1 39 48
f 1 48 63
f 1 63 74
f 1 74 73
f 1 73 82
f 1 82 81
f 1 81 80
f 1 80 92
f 1 92 102
f 1 102 97
f 1 97 87
f 1 87 75
f 1 75 64
f 1 64 51
f 1 51 50
f 1 50 40
f 1 40 32
f 1 32 27
f 1 27 19
f 1 19 9
f 1 9 3
f 1 3 4
f 1 4 5
f 1 5 6
f 1 6 2
f 2 6 7
f 2 7 8
f 3 9 4
f 4 9 10
f 4 10 11
f 4 11 12
f 4 12 13
f 4 13 5
f 5 13 12
f 5 12 14
f 5 14 6
f 6 14 15
f 6 15 7
f 7 16 8
f 7 15 17
f 7 17 16
f 8 16 18
f 9 19 20
f 9 20 10
f 10 20 21
f 10 21 11
f 11 21 28
f 11 28 34
f 11 34 43
f 11 43 54
f 11 54 68
f 11 68 67
f 11 67 66
f 11 66 76
f 11 76 89
f 11 89 93
f 11 93 84
f 11 84 78
f 11 78 70
f 11 70 56
f 11 56 55
f 11 55 46
f 11 46 38
f 11 38 30
f 11 30 24
f 11 24 17
f 11 17 15
f 11 15 14
f 11 14 12
f 16 22 23
f 16 23 18
f 16 17 24
f 16 24 25
f 16 25 22
f 18 23 26
f 19 27 20
f 20 28 21
f 20 27 28
f 22 25 23
f 23 29 26
f 23 25 29
f 24 30 29
f 24 29 25
f 26 29 31
f 27 32 28
f 28 33 34
f 28 32 33
f 29 35 36
f 29 36 45
f 29 45 57
f 29 57 71
f 29 71 79
f 29 79 83
f 29 83 72
f 29 72 62
f 29 62 61
f 29 61 60
f 29 60 59
f 29 59 58
f 29 58 49
f 29 49 47
f 29 47 37
f 29 37 31
f 29 30 38
f 29 38 35
f 31 37 39
f 32 40 41
f 32 41 33
f 33 41 42
f 33 42 34
f 34 42 43
f 35 44 45
f 35 45 36
f 35 38 46
f 35 46 44
f 37 47 39
f 39 47 49
f 39 49 48
f 40 50 41
f 41 50 51
f 41 51 52
f 41 52 53
f 41 53 42
f 42 53 43
f 43 53 54
f 44 46 55
f 44 55 56
f 44 56 45
f 45 56 57
f 48 49 58
f 48 58 59
f 48 59 60
f 48 60 61
f 48 61 62
f 48 62 63
f 51 64 65
f 51 65 52
f 52 66 67
f 52 67 68
f 52 68 53
f 52 65 64
f 52 64 69
f 52 69 66
f 53 68 54
f 56 70 71
f 56 71 57
f 62 72 73
f 62 73 74
f 62 74 63
f 64 75 69
f 66 69 77
f 66 77 76
f 69 75 77
f 70 78 71
f 71 78 79
f 72 80 81
f 72 81 82
f 72 82 73
f 72 83 84
f 72 84 85
f 72 85 86
f 72 86 80
f 75 87 77
f 76 88 89
f 76 77 88
f 77 87 90
f 77 90 91
f 77 91 88
f 78 84 79
f 79 84 83
f 80 86 85
f 80 85 92
f 84 93 94
f 84 94 85
f 85 94 95
f 85 95 96
f 85 96 92
f 87 97 90
f 88 91 89
f 89 98 99
f 89 99 93
f 89 91 98
f 90 97 96
f 90 96 100
f 90 100 101
f 90 101 91
f 91 101 98
f 92 96 102
f 93 99 95
f 93 95 94
f 95 103 96
f 95 99 103
f 96 103 100
f 96 97 102
f 98 101 100
f 98 100 99
f 99 100 103

