v -0.16308003 -0.11312450 -0.01929532
v -0.16308003 -0.11310992 -0.01908891
v -0.16308003 -0.11249754 -0.02411909
v -0.07332257 -0.13076690 -0.01760585
v -0.08425457 -0.12882769 -0.01464737
v -0.13539043 -0.11860676 -0.01464737
v -0.16308003 -0.11251211 -0.01490729
v -0.14004132 -0.11762987 -0.01464737
v -0.14264246 -0.11675505 -0.01215522
v -0.16308003 -0.11172476 -0.02830071
v -0.07490484 -0.13013994 -0.01921123
v -0.07017003 -0.13101477 -0.01921123
v -0.05634921 -0.13340597 -0.01929532
v -0.04556106 -0.13541807 -0.01740709
v -0.05169832 -0.13470363 -0.01464737
v -0.05634921 -0.13390170 -0.01464737
v -0.06100010 -0.13308519 -0.01464737
v -0.07365820 -0.13082521 -0.01464737
v -0.07598365 -0.13038780 -0.01464737
v -0.07329861 -0.13075231 -0.01168125
v -0.08425457 -0.12844859 -0.00999943
v -0.08889347 -0.12753002 -0.00999943
v -0.16308003 -0.11249754 -0.01481556
v -0.09551022 -0.12589701 -0.00829468
v -0.09241761 -0.12623236 -0.00691100
v -0.14004132 -0.11709040 -0.01123786
v -0.16308003 -0.11068956 -0.03324679
v -0.07163243 -0.13043155 -0.02070958
v -0.06852784 -0.13073774 -0.02190979
v -0.05169832 -0.13412041 -0.01929532
v -0.06565100 -0.13098560 -0.02258251
v -0.05634921 -0.13202082 -0.02394326
v -0.04239653 -0.13562220 -0.01807217
v -0.04063447 -0.13605961 -0.01678023
v -0.04063447 -0.13638038 -0.01464737
v -0.04239653 -0.13616168 -0.01464737
v -0.04636417 -0.13556388 -0.01464737
v -0.04239653 -0.13617626 -0.00999943
v -0.04613643 -0.13554929 -0.00999943
v -0.04524940 -0.13538891 -0.00727029
v -0.07960368 -0.12932342 -0.00999943
v -0.13730831 -0.11653633 -0.00794302
v -0.16101829 -0.11204555 -0.01230811
v -0.16308003 -0.11232257 -0.01446390
v -0.04239653 -0.13500982 -0.00399839
v -0.04063447 -0.13517020 -0.00343268
v -0.08848593 -0.12646565 -0.00535913
v -0.08666392 -0.12599907 -0.00299694
v -0.08975653 -0.12564914 -0.00381491
v -0.13560618 -0.11761529 -0.00969364
v -0.13073953 -0.11876715 -0.00999943
v -0.16308003 -0.10735062 -0.04451500
v -0.05169832 -0.13263320 -0.02394326
v -0.04239653 -0.13489317 -0.02039615
v -0.06073639 -0.13126263 -0.02407322
v -0.05899830 -0.13069399 -0.02638190
v -0.04063447 -0.13573885 -0.01834738
v -0.04063447 -0.13643871 -0.01289675
v -0.04063447 -0.13645329 -0.00999943
v -0.04239653 -0.13565136 -0.00632236
v -0.15139286 -0.11191432 -0.00777484
v -0.13420373 -0.11698833 -0.00728558
v -0.16308003 -0.10977099 -0.01098559
v -0.16308003 -0.11012092 -0.01137547
v -0.04063447 -0.13581175 -0.00577959
v -0.04063447 -0.13400376 -0.00074177
v -0.04239653 -0.13366841 -0.00070354
v -0.04704743 -0.13276442 -0.00070354
v -0.05022394 -0.13083979 0.00193386
v -0.07625935 -0.12573662 0.00126877
v -0.10560313 -0.12143538 -0.00288227
v -0.16308003 -0.10730688 -0.04460673
v -0.04704743 -0.13308519 -0.02394326
v -0.04063447 -0.13498066 -0.02067135
v -0.05634921 -0.13088353 -0.02675649
v -0.05169832 -0.13116057 -0.02726104
v -0.04063447 -0.13527227 -0.01979222
v -0.12323577 -0.11646344 -0.00318805
v -0.13346054 -0.11214761 -0.00295107
v -0.13655314 -0.11136026 -0.00327214
v -0.15399400 -0.10886699 -0.00685748
v -0.15735031 -0.10793384 -0.00734674
v -0.16044291 -0.10673824 -0.00785893
v -0.16308003 -0.10535310 -0.00818765
v -0.04063447 -0.13177295 0.00318758
v -0.04239653 -0.13161256 0.00300411
v -0.04704743 -0.13117514 0.00243841
v -0.07315476 -0.12608655 0.00173510
v -0.07960368 -0.12298091 0.00279770
v -0.09819527 -0.12000649 0.00059605
v -0.10729327 -0.11929204 -0.00132276
v -0.16308003 -0.10590715 -0.04700715
v -0.05169832 -0.12643649 -0.03638874
v -0.04239653 -0.13347887 -0.02394326
v -0.04063447 -0.13409124 -0.02288066
v -0.04704743 -0.13136470 -0.02763562
v -0.04704743 -0.12666977 -0.03675568
v -0.04704743 -0.12847776 -0.03324679
v -0.10512366 -0.11666756 0.00162043
v -0.11097323 -0.11270166 0.00188034
v -0.13892654 -0.10826919 -0.00276760
v -0.14203113 -0.10688404 -0.00310396
v -0.15399400 -0.10506149 -0.00564963
v -0.15880071 -0.10513438 -0.00695686
v -0.16308003 -0.10513438 -0.00812649
v -0.04063447 -0.13097102 0.00406671
v -0.04063447 -0.12960046 0.00551155
v -0.04239653 -0.12939633 0.00532808
v -0.05011606 -0.12617404 0.00638304
v -0.06100010 -0.12433689 0.00548097
v -0.05634921 -0.12512424 0.00587085
v -0.16308003 -0.10579051 -0.04718298
v -0.04239653 -0.13153966 -0.02796434
v -0.04063447 -0.13359551 -0.02394326
v -0.04239653 -0.12887143 -0.03324679
v -0.04239653 -0.12687390 -0.03683213
v -0.04063447 -0.12773415 -0.03547903
v -0.04063447 -0.12897350 -0.03324679
v -0.16308003 -0.10363259 -0.04997327
v -0.16308003 -0.10351595 -0.05011852
v -0.05169832 -0.12435148 -0.03871271
v -0.04704743 -0.12436606 -0.03907965
v -0.06100010 -0.12200402 0.00652829
v -0.06360125 -0.12147912 0.00632953
v -0.10327768 -0.11481584 0.00249192
v -0.10748506 -0.11367855 0.00220907
v -0.10748506 -0.10971266 0.00314936
v -0.11236371 -0.10993136 0.00223200
v -0.11406584 -0.11163728 0.00153634
v -0.14934311 -0.10506149 -0.00454880
v -0.11544433 -0.10854622 0.00188034
v -0.11213596 -0.00276475 0.01958534
v -0.13314889 -0.00054851 0.01560248
v -0.16208512 -0.10364718 -0.00745376
v -0.16308003 -0.10469697 -0.00801182
v -0.04063447 -0.12726758 0.00685701
v -0.04239653 -0.12707803 0.00680350
v -0.04704743 -0.12658229 0.00658945
v -0.05634921 -0.12280595 0.00679585
v -0.04063447 -0.13238533 -0.02645070
v -0.04063447 -0.12696138 -0.03683977
v -0.16308003 -0.10052695 -0.05137989
v -0.04704743 -0.12204776 -0.04049391
v -0.05169832 -0.12201860 -0.04053978
v -0.04063447 -0.12477431 -0.03839164
v -0.05634921 -0.11900043 0.00779730
v -0.06100010 -0.11900043 0.00728511
v -0.07495279 -0.07250324 0.01394359
v -0.07960368 -0.07250324 0.01332438
v -0.10537538 -0.00519969 0.02025042
v -0.10714943 -0.00702225 0.01968472
v -0.10862381 -0.00276475 0.02011282
v -0.10646618 -0.00035896 0.02028100
v -0.13265743 0.00344655 0.01553368
v -0.13314889 0.00034090 0.01560248
v -0.15241173 0.00284874 0.01119917
v -0.15864489 -0.00741592 0.00814895
v -0.16308003 -0.10041031 -0.00723207
v -0.04063447 -0.09864607 0.01327086
v -0.16308003 -0.10041031 -0.05142576
v -0.04387091 -0.12169783 -0.04034866
v -0.04063447 -0.12350581 -0.03914081
v -0.04063447 -0.09575913 0.01388244
v -0.06100010 -0.11434925 0.00811837
v -0.05981341 -0.01508526 0.02508184
v -0.06846791 -0.01005499 0.02495188
v -0.06846791 -0.00944261 0.02495188
v -0.06565100 -0.00904894 0.02511242
v -0.06100010 -0.00875733 0.02528824
v -0.10283417 -0.00025690 0.02036509
v -0.12143774 0.00449634 0.01596178
v -0.12608864 0.00440886 0.01579360
v -0.12955284 0.00430679 0.01565599
v -0.16308003 0.01047435 0.00747622
v -0.15241173 0.00505040 0.01119917
v -0.16308003 0.00653761 0.00843180
v -0.16308003 0.00188643 0.00798077
v -0.16308003 -0.00276475 0.00747622
v -0.15864489 -0.00276475 0.00875288
v -0.16308003 -0.00684728 0.00689523
v -0.16308003 -0.00710973 0.00685701
v -0.16308003 -0.09596325 -0.05212906
v -0.05634921 -0.11434925 -0.04168648
v -0.04387091 -0.11987526 -0.04034866
v -0.04063447 -0.11875257 -0.03969887
v -0.04063447 -0.12047307 -0.03955362
v -0.16308003 -0.09575913 -0.05215200
v -0.04063447 -0.01693698 0.02594568
v -0.06121587 -0.01231497 0.02532646
v -0.06565100 -0.01088608 0.02511242
v -0.05634921 -0.01206710 0.02560932
v -0.04063447 -0.01248993 0.02560932
v -0.05634921 -0.00891772 0.02526531
v -0.09819527 -0.00022774 0.02040332
v -0.04063447 0.01248645 0.00358510
v -0.15864489 0.01038686 0.00773614
v -0.09354437 -0.00031522 0.02032687
v -0.16308003 0.01245729 0.00395204
v -0.07030189 -0.10971266 -0.04307016
v -0.06565100 -0.10971266 -0.04253503
v -0.05169832 -0.11434925 -0.04109020
v -0.04476993 -0.11676961 -0.04021106
v -0.04063447 -0.10971266 -0.03841457
v -0.16308003 -0.09131208 -0.05167803
v -0.04063447 -0.01017164 0.02428680
v -0.04239653 -0.01018622 0.02453142
v -0.09095522 -0.00040271 0.02025807
v -0.04063447 0.01248645 -0.01314138
v -0.16308003 0.01248645 -0.00871513
v -0.06100010 -0.10971266 -0.04190817
v -0.08889347 -0.09110795 -0.04274144
v -0.08889347 -0.08645677 -0.04203049
v -0.05634921 -0.10971266 -0.04119722
v -0.05196203 -0.11003343 -0.04049391
v -0.04810227 -0.11434925 -0.04045569
v -0.04239653 -0.10971266 -0.03873565
v -0.04063447 -0.10506149 -0.03759659
v -0.16308003 -0.09110795 -0.05164745
v -0.05431145 0.01248645 -0.01689490
v -0.16308003 0.01248645 -0.02953150
v -0.11213596 -0.06785206 -0.04203049
v -0.10283417 0.01043060 -0.02661124
v -0.10008919 0.00943912 -0.02638955
v -0.05368813 -0.10702985 -0.04027986
v -0.05663690 0.01248645 -0.01746825
v -0.16308003 -0.00296887 -0.03286456
v -0.10283417 0.01248645 -0.02616785
v -0.16308003 0.01079511 -0.02991373
v -0.10261841 0.01248645 -0.02612963
f 1 2 7
f 1 7 23
f 1 23 44
f 1 44 64
f 1 64 63
f 1 63 84
f 1 84 105
f 1 105 135
f 1 135 158
f 1 158 181
f 1 181 180
f 1 180 178
f 1 178 177
f 1 177 176
f 1 176 174
f 1 174 198
f 1 198 209
f 1 209 220
f 1 220 228
f 1 228 226
f 1 226 218
f 1 218 204
f 1 204 187
f 1 187 182
f 1 182 160
f 1 160 142
f 1 142 120
f 1 120 119
f 1 119 112
f 1 112 92
f 1 92 72
f 1 72 52
f 1 52 27
f 1 27 10
f 1 10 3
f 1 3 4
f 1 4 5
f 1 5 6
f 1 6 2
f 2 6 8
f 2 8 9
f 2 9 7
f 3 10 4
f 4 11 12
f 4 12 13
f 4 13 14
f 4 14 15
f 4 15 16
f 4 16 17
f 4 17 18
f 4 18 19
f 4 19 5
f 4 10 11
f 5 19 20
f 5 20 21
f 5 21 22
f 5 22 6
f 6 22 9
f 6 9 8
f 7 9 23
f 9 22 24
f 9 24 25
f 9 25 26
f 9 26 23
f 10 27 11
f 11 28 12
f 11 27 28
f 12 28 29
f 12 29 13
f 13 30 14
f 13 29 31
f 13 31 32
f 13 32 30
f 14 33 34
f 14 34 35
f 14 35 36
f 14 36 37
f 14 37 15
f 14 30 33
f 15 37 38
f 15 38 39
f 15 39 16
f 16 39 17
f 17 39 18
f 18 20 19
f 18 39 20
f 20 39 40
f 20 40 41
f 20 41 21
f 21 41 40
f 21 40 25
f 21 25 24
f 21 24 22
f 23 42 43
f 23 43 44
f 23 26 42
f 25 40 45
f 25 45 46
f 25 46 47
f 25 47 48
f 25 48 49
f 25 49 50
f 25 50 51
f 25 51 26
f 26 51 50
f 26 50 42
f 27 52 29
f 27 29 28
f 29 52 31
f 30 32 53
f 30 53 54
f 30 54 33
f 31 55 32
f 31 52 55
f 32 55 52
f 32 52 56
f 32 56 53
f 33 57 34
f 33 54 57
f 34 57 77
f 34 77 74
f 34 74 95
f 34 95 114
f 34 114 140
f 34 140 118
f 34 118 117
f 34 117 141
f 34 141 145
f 34 145 162
f 34 162 186
f 34 186 185
f 34 185 203
f 34 203 217
f 34 217 208
f 34 208 195
f 34 195 205
f 34 205 192
f 34 192 188
f 34 188 163
f 34 163 159
f 34 159 136
f 34 136 107
f 34 107 106
f 34 106 85
f 34 85 66
f 34 66 46
f 34 46 65
f 34 65 59
f 34 59 58
f 34 58 35
f 35 58 36
f 36 58 37
f 37 58 59
f 37 59 38
f 38 59 40
f 38 40 39
f 40 59 60
f 40 60 45
f 42 61 43
f 42 50 62
f 42 62 61
f 43 61 63
f 43 63 64
f 43 64 44
f 45 60 46
f 46 60 65
f 46 66 67
f 46 67 68
f 46 68 48
f 46 48 47
f 48 68 69
f 48 69 70
f 48 70 71
f 48 71 62
f 48 62 49
f 49 62 50
f 52 72 56
f 53 73 74
f 53 74 54
f 53 56 75
f 53 75 76
f 53 76 73
f 54 74 77
f 54 77 57
f 56 72 75
f 59 65 60
f 61 62 78
f 61 78 79
f 61 79 80
f 61 80 81
f 61 81 82
f 61 82 63
f 62 71 78
f 63 82 83
f 63 83 84
f 66 85 86
f 66 86 87
f 66 87 67
f 67 87 69
f 67 69 68
f 69 87 88
f 69 88 70
f 70 88 89
f 70 89 90
f 70 90 71
f 71 90 91
f 71 91 78
f 72 92 93
f 72 93 75
f 73 76 94
f 73 94 95
f 73 95 74
f 75 93 76
f 76 96 94
f 76 93 97
f 76 97 98
f 76 98 96
f 78 91 90
f 78 90 99
f 78 99 79
f 79 99 80
f 80 100 101
f 80 101 82
f 80 82 81
f 80 99 100
f 82 101 102
f 82 102 103
f 82 103 104
f 82 104 84
f 82 84 83
f 84 104 105
f 85 106 86
f 86 106 107
f 86 107 87
f 87 107 108
f 87 108 88
f 88 108 109
f 88 109 89
f 89 110 99
f 89 99 90
f 89 109 111
f 89 111 110
f 92 112 93
f 93 112 97
f 94 96 113
f 94 113 114
f 94 114 95
f 96 98 115
f 96 115 113
f 97 116 117
f 97 117 118
f 97 118 115
f 97 115 98
f 97 112 119
f 97 119 120
f 97 120 121
f 97 121 122
f 97 122 116
f 99 110 123
f 99 123 124
f 99 124 125
f 99 125 126
f 99 126 100
f 100 126 127
f 100 127 128
f 100 128 129
f 100 129 101
f 101 129 102
f 102 130 103
f 102 129 128
f 102 128 131
f 102 131 132
f 102 132 133
f 102 133 130
f 103 134 104
f 103 130 133
f 103 133 134
f 104 134 105
f 105 134 135
f 107 136 137
f 107 137 138
f 107 138 109
f 107 109 108
f 109 138 139
f 109 139 123
f 109 123 111
f 110 111 123
f 113 140 114
f 113 115 118
f 113 118 140
f 116 141 117
f 116 122 141
f 120 142 143
f 120 143 144
f 120 144 122
f 120 122 121
f 122 145 141
f 122 144 143
f 122 143 145
f 123 139 146
f 123 146 147
f 123 147 124
f 124 147 126
f 124 126 125
f 126 147 127
f 127 147 148
f 127 148 149
f 127 149 150
f 127 150 151
f 127 151 132
f 127 132 128
f 128 132 131
f 132 151 150
f 132 150 152
f 132 152 153
f 132 153 154
f 132 154 155
f 132 155 133
f 133 155 175
f 133 175 156
f 133 156 157
f 133 157 134
f 134 158 135
f 134 157 158
f 136 159 137
f 137 159 146
f 137 146 138
f 138 146 139
f 142 160 143
f 143 161 162
f 143 162 145
f 143 160 161
f 146 159 163
f 146 163 147
f 147 164 148
f 147 163 164
f 148 164 163
f 148 163 165
f 148 165 166
f 148 166 149
f 149 166 150
f 150 166 152
f 152 166 167
f 152 167 153
f 153 167 168
f 153 168 169
f 153 169 170
f 153 170 171
f 153 171 172
f 153 172 173
f 153 173 154
f 154 173 174
f 154 174 175
f 154 175 155
f 156 175 176
f 156 176 177
f 156 177 178
f 156 178 179
f 156 179 157
f 157 179 178
f 157 178 180
f 157 180 181
f 157 181 158
f 160 182 161
f 161 183 184
f 161 184 185
f 161 185 186
f 161 186 162
f 161 182 187
f 161 187 183
f 163 188 165
f 165 188 189
f 165 189 190
f 165 190 166
f 166 190 168
f 166 168 167
f 168 190 191
f 168 191 169
f 169 191 192
f 169 192 193
f 169 193 194
f 169 194 170
f 170 194 171
f 171 195 196
f 171 196 174
f 171 174 172
f 171 194 197
f 171 197 195
f 172 174 173
f 174 176 175
f 174 196 198
f 183 199 200
f 183 200 201
f 183 201 184
f 183 187 199
f 184 202 185
f 184 201 202
f 185 202 203
f 187 204 199
f 188 192 191
f 188 191 189
f 189 191 190
f 192 205 206
f 192 206 193
f 193 207 197
f 193 197 194
f 193 206 205
f 193 205 195
f 193 195 207
f 195 208 219
f 195 219 225
f 195 225 229
f 195 229 227
f 195 227 220
f 195 220 209
f 195 209 198
f 195 198 196
f 195 197 207
f 199 204 200
f 200 210 201
f 200 204 211
f 200 211 212
f 200 212 210
f 201 210 213
f 201 213 214
f 201 214 215
f 201 215 202
f 202 215 216
f 202 216 203
f 203 216 217
f 204 218 211
f 208 217 219
f 210 212 213
f 211 218 221
f 211 221 212
f 212 221 222
f 212 222 223
f 212 223 213
f 213 224 214
f 213 223 224
f 214 224 216
f 214 216 215
f 216 224 217
f 217 224 223
f 217 223 225
f 217 225 219
f 218 226 222
f 218 222 221
f 220 227 228
f 222 226 228
f 222 228 227
f 222 227 223
f 223 227 229
f 223 229 225

