v -0.03770321 -0.17186798 0.05045504
v -0.03692121 -0.17187964 0.04580733
v -0.03766355 -0.17187964 0.05027688
v -0.03766355 -0.17187964 0.05145042
v -0.03761255 -0.17187964 0.05510662
v -0.03684754 -0.16550029 0.05045504
v -0.02291320 -0.06312741 0.02322721
v -0.02345153 -0.06786236 0.02322721
v -0.03586154 -0.17187964 0.04165150
v -0.03689288 -0.17187964 0.05732977
v -0.03619021 -0.17015360 0.05863888
v -0.03732355 -0.17015360 0.05510662
v -0.03554421 -0.15782640 0.05322043
v -0.02143987 -0.07491813 0.04334017
v -0.02030653 -0.06786236 0.04115575
v -0.02123587 -0.05856740 0.02322721
v -0.02536687 -0.09593385 0.02322721
v -0.03523821 -0.17187964 0.03946708
v -0.03625254 -0.17187964 0.05906880
v -0.03576521 -0.16633998 0.05795335
v -0.03106754 -0.14802996 0.05770934
v -0.03059721 -0.14493941 0.05731429
v -0.03539121 -0.16323778 0.05738013
v -0.03625254 -0.16508044 0.05554041
v -0.02133787 -0.08445801 0.04796077
v -0.01834020 -0.06786236 0.04517601
v -0.01762053 -0.06453856 0.04435879
v -0.01813620 -0.06308076 0.04100470
v -0.01873120 -0.05432227 0.02322721
v -0.02407487 -0.10980049 0.02322721
v -0.02613753 -0.11257614 0.02483454
v -0.03196287 -0.17187964 0.03291381
v -0.03328321 -0.17187964 0.03509823
v -0.03417854 -0.17187964 0.03664360
v -0.03417854 -0.17187964 0.06124159
v -0.03288654 -0.17187964 0.06202784
v -0.02627354 -0.13483974 0.05752343
v -0.02629620 -0.11610987 0.05297643
v -0.02178553 -0.08756021 0.04849913
v -0.01703686 -0.07403179 0.04828998
v -0.01626620 -0.07094124 0.04796077
v -0.01448119 -0.06368720 0.04511405
v -0.01448119 -0.06136638 0.04260041
v -0.01707086 -0.06065497 0.03935089
v -0.01462286 -0.06785070 0.04747663
v -0.01564286 -0.05273618 0.02322721
v -0.02398987 -0.11002207 0.02322721
v -0.02417120 -0.11422055 0.02371135
v -0.02843254 -0.17187964 0.03151562
v -0.03201388 -0.17187964 0.06245388
v -0.03088054 -0.16741294 0.06212853
v -0.02189887 -0.13012811 0.05751182
v -0.01700286 -0.09777651 0.05283312
v -0.01448119 -0.08181063 0.05047053
v -0.02201787 -0.10615015 0.05313909
v -0.01316653 -0.06939014 0.04836744
v -0.00982886 -0.06353559 0.04519538
v -0.00982886 -0.06121477 0.04296835
v -0.00982886 -0.06002520 0.04064450
v -0.01448119 -0.06020014 0.04027656
v -0.01448119 -0.05273618 0.02352544
v 0.02018750 -0.05273618 0.02322721
v -0.02193287 -0.11429052 0.02322721
v -0.02378587 -0.17187964 0.03278213
v -0.01914486 -0.11620317 0.02322721
v -0.02121886 -0.15444429 0.02940091
v -0.02843254 -0.17187964 0.06279471
v -0.03146420 -0.17015360 0.06236867
v -0.02843254 -0.16490550 0.06189228
v -0.02124720 -0.13012811 0.05751182
v -0.01662320 -0.09777651 0.05283312
v -0.01448119 -0.08646395 0.05105924
v -0.01142686 -0.06939014 0.04836744
v -0.00985719 -0.06785070 0.04744565
v -0.00655352 -0.06434030 0.04446724
v 0.02018750 -0.05273618 0.02560916
v 0.01805683 -0.05273618 0.02549684
v -0.00982886 -0.05273618 0.02385852
v -0.01423186 -0.05273618 0.02356417
v 0.02018750 -0.06178623 0.02322721
v -0.02095820 -0.16899902 0.03369230
v -0.02192153 -0.17187964 0.03429263
v -0.01828353 -0.11538680 0.02322721
v -0.02678354 -0.17187964 0.06260493
v -0.02605254 -0.16744791 0.06210917
v -0.02093553 -0.13296209 0.05763963
v -0.01019719 -0.08181063 0.04935895
v -0.01040686 -0.07716898 0.04899489
v -0.01620953 -0.10041223 0.05300741
v -0.01084886 -0.07251567 0.04860370
v -0.00853119 -0.07251567 0.04767029
v -0.00594152 -0.06786236 0.04513341
v 0.02018750 -0.05379746 0.02536903
v -0.00808919 -0.07716898 0.04775937
v -0.00787386 -0.08181063 0.04775937
v -0.02055020 -0.15620533 0.05828256
v -0.02059553 -0.16084697 0.05832904
v -0.02072020 -0.16550029 0.05826707
v -0.02177420 -0.17187964 0.05885190
v -0.02106020 -0.17187964 0.05798820
v -0.01872553 -0.17187964 0.04751536
v -0.01813620 -0.17015360 0.04580733
v -0.01875953 -0.17187964 0.04580733
v -0.01897486 -0.17187964 0.04287540
v -0.01848186 -0.17015360 0.04115962
v -0.01918453 -0.17187964 0.04108603
v -0.02044253 -0.17187964 0.03684500
v -0.02146253 -0.17187964 0.03476902
v 0.02018750 -0.05602498 0.02482680
v -0.02015920 -0.17187964 0.05612912
v -0.01984753 -0.17187964 0.05510662
v -0.01908253 -0.17187964 0.05216695
v -0.01886153 -0.17187964 0.05045504
v -0.02568420 -0.17187964 0.06234156
v -0.02061253 -0.13760374 0.05782166
v -0.01541620 -0.10973051 0.05359999
v -0.02052753 -0.15155201 0.05820122
v -0.02421087 -0.17187964 0.06117188
f 1 2 3
f 1 3 4
f 1 4 5
f 1 5 6
f 1 6 7
f 1 7 8
f 1 8 2
f 2 9 18
f 2 18 34
f 2 34 33
f 2 33 32
f 2 32 49
f 2 49 64
f 2 64 82
f 2 82 108
f 2 108 107
f 2 107 106
f 2 106 104
f 2 104 103
f 2 103 101
f 2 101 113
f 2 113 112
f 2 112 111
f 2 111 110
f 2 110 100
f 2 100 99
f 2 99 118
f 2 118 114
f 2 114 84
f 2 84 67
f 2 67 50
f 2 50 36
f 2 36 35
f 2 35 19
f 2 19 10
f 2 10 5
f 2 5 4
f 2 4 3
f 2 8 9
f 5 10 11
f 5 11 12
f 5 12 13
f 5 13 7
f 5 7 6
f 7 14 15
f 7 15 16
f 7 16 29
f 7 29 46
f 7 46 62
f 7 62 80
f 7 80 83
f 7 83 65
f 7 65 63
f 7 63 47
f 7 47 30
f 7 30 17
f 7 17 8
f 7 13 14
f 8 17 18
f 8 18 9
f 10 19 11
f 11 20 12
f 11 19 21
f 11 21 22
f 11 22 20
f 12 20 23
f 12 23 24
f 12 24 13
f 13 24 23
f 13 23 14
f 14 25 26
f 14 26 15
f 14 23 25
f 15 26 27
f 15 27 28
f 15 28 16
f 16 28 29
f 17 30 31
f 17 31 32
f 17 32 33
f 17 33 34
f 17 34 18
f 19 35 21
f 20 22 23
f 21 35 22
f 22 35 36
f 22 36 37
f 22 37 38
f 22 38 23
f 23 38 25
f 25 39 40
f 25 40 41
f 25 41 26
f 25 38 39
f 26 41 27
f 27 42 43
f 27 43 44
f 27 44 28
f 27 41 45
f 27 45 42
f 28 44 29
f 29 44 46
f 30 47 48
f 30 48 32
f 30 32 31
f 32 48 49
f 36 50 51
f 36 51 37
f 37 52 53
f 37 53 54
f 37 54 41
f 37 41 55
f 37 55 38
f 37 51 52
f 38 55 40
f 38 40 39
f 40 55 41
f 41 54 56
f 41 56 45
f 42 57 58
f 42 58 43
f 42 45 57
f 43 58 59
f 43 59 60
f 43 60 44
f 44 60 46
f 45 56 57
f 46 61 79
f 46 79 78
f 46 78 77
f 46 77 76
f 46 76 62
f 46 60 61
f 47 63 48
f 48 63 49
f 49 63 65
f 49 65 66
f 49 66 64
f 50 67 68
f 50 68 51
f 51 68 67
f 51 67 69
f 51 69 52
f 52 69 67
f 52 67 70
f 52 70 71
f 52 71 53
f 53 71 54
f 54 71 72
f 54 72 73
f 54 73 56
f 56 73 57
f 57 73 74
f 57 74 75
f 57 75 76
f 57 76 58
f 58 76 59
f 59 76 77
f 59 77 78
f 59 78 79
f 59 79 61
f 59 61 60
f 62 76 93
f 62 93 109
f 62 109 80
f 64 66 80
f 64 80 81
f 64 81 82
f 65 83 66
f 66 83 80
f 67 84 85
f 67 85 70
f 70 85 86
f 70 86 87
f 70 87 88
f 70 88 89
f 70 89 71
f 71 89 72
f 72 89 88
f 72 88 90
f 72 90 73
f 73 90 91
f 73 91 74
f 74 91 92
f 74 92 76
f 74 76 75
f 76 92 91
f 76 91 94
f 76 94 95
f 76 95 96
f 76 96 97
f 76 97 98
f 76 98 99
f 76 99 100
f 76 100 93
f 80 101 102
f 80 102 103
f 80 103 104
f 80 104 105
f 80 105 106
f 80 106 107
f 80 107 108
f 80 108 81
f 80 109 100
f 80 100 110
f 80 110 111
f 80 111 112
f 80 112 113
f 80 113 101
f 81 108 82
f 84 114 85
f 85 114 86
f 86 115 116
f 86 116 87
f 86 114 115
f 87 95 94
f 87 94 91
f 87 91 88
f 87 116 114
f 87 114 95
f 88 91 90
f 93 100 109
f 95 114 117
f 95 117 96
f 96 117 114
f 96 114 97
f 97 114 118
f 97 118 98
f 98 118 99
f 101 103 102
f 104 106 105
f 114 116 115

