v -0.03767261 -0.00990754 0.02322721
v -0.03767261 -0.03203874 0.02322721
v -0.03767261 -0.01010458 0.02379823
v 0.02018749 -0.01893778 0.02962832
v 0.02018749 -0.01842631 0.02715391
v 0.01806362 -0.01804062 0.02322721
v -0.03753102 -0.03224416 0.02322721
v -0.03767261 -0.02963236 0.02400809
v -0.03767261 -0.01012554 0.02385609
v 0.01806362 -0.01889166 0.02967434
v 0.02018749 -0.02123516 0.03029346
v 0.02018749 -0.01835924 0.02322721
v -0.01564092 -0.05273617 0.02322721
v -0.03740076 -0.03032828 0.02389374
v -0.03767261 -0.02600601 0.02489703
v -0.03562803 -0.02855913 0.02493399
v -0.03767261 -0.01244808 0.02582991
v 0.00411398 -0.01866108 0.02975103
v 0.01806362 -0.02135674 0.03034994
v 0.02018749 -0.02614855 0.03027115
v 0.02018749 -0.05273617 0.02322721
v -0.01448553 -0.05273617 0.02352422
v -0.03767261 -0.02331874 0.02537323
v -0.03767261 -0.01670747 0.02646088
v -0.01423632 -0.05273617 0.02356257
v 0.00202975 -0.02344032 0.02950143
v 0.00068180 -0.01875751 0.02968619
v 0.00068180 -0.02034220 0.02968619
v 0.00379116 -0.02167535 0.02979914
v 0.01806362 -0.04460309 0.02721039
v 0.02018749 -0.04248179 0.02765451
v 0.01341374 -0.02534782 0.03003061
v 0.00876386 -0.02490762 0.02984864
v 0.02018749 -0.05273617 0.02560540
v -0.00983565 -0.05273617 0.02385749
v 0.00876386 -0.04460309 0.02667841
v 0.00512778 -0.02427878 0.02968410
v 0.01806362 -0.04925656 0.02635003
v 0.02018749 -0.04925656 0.02643997
v 0.01341374 -0.04460309 0.02695451
v 0.01806362 -0.05273617 0.02549246
f 1 2 8
f 1 8 15
f 1 15 23
f 1 23 24
f 1 24 17
f 1 17 9
f 1 9 3
f 1 3 4
f 1 4 5
f 1 5 6
f 1 6 12
f 1 12 21
f 1 21 13
f 1 13 7
f 1 7 2
f 2 7 8
f 3 9 4
f 4 10 11
f 4 11 20
f 4 20 31
f 4 31 39
f 4 39 34
f 4 34 21
f 4 21 12
f 4 12 5
f 4 9 10
f 5 12 6
f 7 13 14
f 7 14 8
f 8 14 16
f 8 16 15
f 9 17 10
f 10 18 19
f 10 19 11
f 10 17 18
f 11 19 20
f 13 22 16
f 13 16 14
f 13 21 34
f 13 34 41
f 13 41 35
f 13 35 25
f 13 25 22
f 15 16 23
f 16 24 23
f 16 22 25
f 16 25 26
f 16 26 24
f 17 24 27
f 17 27 18
f 18 27 19
f 19 27 28
f 19 28 29
f 19 29 20
f 20 30 31
f 20 29 32
f 20 32 33
f 20 33 30
f 24 26 28
f 24 28 27
f 25 35 36
f 25 36 37
f 25 37 26
f 26 37 28
f 28 37 29
f 29 37 33
f 29 33 32
f 30 38 39
f 30 39 31
f 30 33 40
f 30 40 38
f 33 37 36
f 33 36 40
f 34 39 38
f 34 38 41
f 35 41 38
f 35 38 36
f 36 38 40

