v -0.23131046 0.21839018 0.00394945
v -0.23114616 0.21830408 0.00665127
v -0.22838066 0.21830408 0.00665127
v -0.22805206 0.21835574 0.00380384
v -0.22936638 0.21828685 0.00119910
v -0.23109140 0.21828685 0.00119910
v -0.23363787 0.21677142 0.00394945
v -0.23571886 0.21418831 0.00703146
v -0.23281643 0.21565208 0.00839046
v -0.23139259 0.21403334 0.01122171
v -0.22838066 0.21451551 0.01152101
v -0.22838066 0.21684031 0.00897289
v -0.22566989 0.21816631 0.00640050
v -0.21444353 0.21463606 0.01215197
v -0.20978870 0.21446386 0.01219242
v -0.20513386 0.21413666 0.01207917
v -0.20047903 0.21384392 0.01183649
v -0.22566989 0.21816631 0.00525991
v -0.22624489 0.21811465 0.00215363
v -0.22805206 0.21744304 -0.00048347
v -0.17257740 0.20940094 0.00090788
v -0.17723223 0.20998646 0.00049533
v -0.22838066 0.21496326 -0.00432588
v -0.23194022 0.21451551 -0.00388906
v -0.23306285 0.21584151 -0.00058054
v -0.23566409 0.21406777 0.00072992
v -0.23585576 0.21444663 0.00394945
v -0.23692363 0.21115746 0.00394945
v -0.23790936 0.20650786 0.00394945
v -0.23615697 0.21115746 0.00792128
v -0.23522599 0.20819549 0.01081724
v -0.23459622 0.21115746 0.01024291
v -0.22838066 0.21115746 0.01235421
v -0.20047903 0.20650786 0.01787918
v -0.20513386 0.20996923 0.01623706
v -0.23226881 0.21115746 0.01150483
v -0.20047903 0.21033086 0.01660916
v -0.22375320 0.21473938 0.01178796
v -0.21909836 0.21473938 0.01198210
v -0.19705634 0.21365449 0.01142394
v -0.16548562 0.20884989 0.01562227
v -0.19650871 0.21377503 0.00860078
v -0.17257740 0.21017589 0.00860078
v -0.19585157 0.21024477 0.01673050
v -0.20047903 0.21265567 0.01416620
v -0.18188706 0.20972815 0.01694891
v -0.17257740 0.20929763 0.01651209
v -0.16794995 0.20903932 0.01602674
v -0.22397225 0.21787357 0.00380384
v -0.17257740 0.21008977 0.00394945
v -0.22375320 0.21668533 -0.00069379
v -0.22375320 0.21461883 -0.00406702
v -0.16994878 0.20907374 0.00130426
v 0.01701125 0.17215242 0.02457710
v -0.17257740 0.20650786 -0.00009519
v -0.22375320 0.21115746 -0.00569297
v -0.22838066 0.21115746 -0.00620259
v -0.23303548 0.19378171 -0.01196215
v -0.23541765 0.19032034 -0.01234235
v -0.23566409 0.20017061 -0.00797414
v -0.23330929 0.21110580 -0.00449575
v -0.23503432 0.21262123 -0.00236018
v -0.23610219 0.21110580 -0.00076660
v -0.23722482 0.20650786 -0.00069379
v -0.23829271 0.20185825 -0.00069379
v -0.23922368 0.19720864 -0.00069379
v -0.23941534 0.19720864 0.00394945
v -0.24012725 0.19099196 0.00652184
v -0.23643077 0.20659396 0.00899716
v -0.23547243 0.20509575 0.01100330
v -0.23341882 0.20659396 0.01150483
v -0.20513386 0.20650786 0.01703790
v -0.20047903 0.20185825 0.01801670
v -0.19585157 0.20185825 0.01881753
v -0.18528236 0.20464800 0.02039495
v -0.18188706 0.20502686 0.02056482
v -0.18188706 0.20735167 0.01927053
v -0.11417293 0.19956789 0.02494920
v -0.05760300 0.19040644 0.02998882
v -0.06099829 0.19118139 0.02719802
v -0.05708275 0.19052698 0.02719802
v -0.13073865 0.20022228 0.02558017
v -0.12608382 0.20015339 0.02560444
v -0.18654190 0.20990034 0.01688420
v -0.12142898 0.19996396 0.02547501
v -0.11680153 0.19970565 0.02516762
v -0.05763038 0.19045810 0.02443958
v 0.02018750 0.17635431 0.02935786
v 0.02018750 0.17385728 0.02685827
v 0.02018750 0.17117086 0.02494920
v 0.02018750 0.16898381 0.02444767
v -0.02600489 0.16702064 0.01555756
v -0.16647135 0.17117086 -0.00759394
v -0.22838066 0.18325982 -0.01497945
v -0.22958542 0.19176688 -0.01259312
v -0.23303548 0.18325982 -0.01563468
v -0.23615697 0.17316845 -0.01733343
v -0.23599267 0.18790943 -0.01281962
v -0.23626649 0.19720864 -0.00870218
v -0.23555456 0.20952149 -0.00329045
v -0.24009988 0.18591182 -0.00787707
v -0.24018202 0.19145691 0.00020412
v -0.24089395 0.18325982 -0.00534513
v -0.25647395 0.06700245 -0.02859370
v -0.23990820 0.19405724 0.00394945
v -0.24023678 0.19173244 0.00394945
v -0.24467257 0.15775588 -0.00299115
v -0.24489162 0.15534496 -0.00253815
v -0.24023678 0.18790943 0.00674834
v -0.23547243 0.20185825 0.01100330
v -0.24034632 0.18325982 0.00682114
v -0.21258159 0.19720864 0.01570317
v -0.21258159 0.20185825 0.01568699
v -0.20513386 0.20185825 0.01712688
v -0.20978870 0.19720864 0.01624515
v -0.20513386 0.19720864 0.01710261
v -0.20513386 0.19255904 0.01695700
v -0.19119673 0.20185825 0.01956175
v -0.18558356 0.20185825 0.02044348
v -0.18188706 0.20185825 0.02092075
v -0.07496279 0.18325982 0.03526303
v -0.11485746 0.19500438 0.02958436
v -0.11214670 0.19519381 0.02968143
v -0.10751925 0.19533158 0.02979468
v -0.06565312 0.19097473 0.03106470
v -0.06099829 0.19064753 0.03053889
v -0.05617917 0.18937320 0.03166330
v 0.02018750 0.17635431 0.03434894
v 0.02018750 0.17637152 0.03384741
v 0.02018750 0.17642318 0.03189789
v -0.10286441 0.19521104 0.02977041
v -0.06565312 0.18954540 0.03338632
v -0.06099829 0.18940764 0.03286860
v 0.02018750 0.10223613 0.01080106
v -0.02381438 0.12746455 0.00734695
v -0.23303548 0.15999458 -0.02076328
v -0.23303548 0.16464417 -0.01976830
v -0.23769033 0.15999458 -0.01999480
v -0.23769033 0.16464417 -0.01893511
v -0.23769033 0.16894937 -0.01773789
v -0.24007250 0.16717563 -0.01703413
v -0.23700579 0.18325982 -0.01372561
v -0.23985344 0.18034952 -0.01190553
v -0.24023678 0.17724978 -0.01268210
v -0.25871921 0.04654418 -0.03579316
v -0.25573464 0.07166928 -0.02859370
v -0.25885612 0.04735356 -0.03324503
v -0.25937636 0.04375442 -0.03324503
v -0.25954066 0.04246287 -0.03324503
v -0.25704895 0.06235285 -0.02859370
v -0.24467257 0.15775588 -0.00316102
v -0.25882875 0.04731912 -0.03025200
v -0.24505592 0.15069537 -0.00236018
v -0.25902040 0.04375442 -0.02980709
v -0.23541765 0.19856908 0.01095476
v -0.24042844 0.17861022 0.00674025
v -0.25811683 0.04375442 -0.02748547
v -0.21241731 0.19417778 0.01566272
v -0.17257740 0.19255904 0.02182674
v -0.17723223 0.19720864 0.02147082
v -0.20998035 0.19259348 0.01601865
v -0.20858390 0.18894267 0.01584877
v -0.20543505 0.18759946 0.01621279
v -0.07811165 0.17551048 0.03433277
v -0.07496279 0.17861022 0.03515787
v -0.07030796 0.17861022 0.03572412
v -0.07030796 0.18325982 0.03578075
v -0.07496279 0.18699673 0.03468869
v -0.07030796 0.18727227 0.03492328
v -0.07030796 0.18959707 0.03365327
v -0.04706117 0.18632513 0.03494755
v -0.04344683 0.18598070 0.03460780
v 0.02018750 0.17483888 0.03640362
v -0.05171600 0.18663510 0.03510124
v 0.02018750 0.04375442 -0.00058863
v -0.21444353 0.09026771 -0.02946734
v -0.21668880 0.08341384 -0.03093959
v -0.24234514 0.05770324 -0.03871338
v -0.24700000 0.05770324 -0.03895606
v -0.25165481 0.04246287 -0.04169833
v -0.23577362 0.15364011 -0.02169355
v -0.25502273 0.04375442 -0.04085704
v -0.24020941 0.14890440 -0.02174209
v -0.25540606 0.04246287 -0.04097029
v -0.25767872 0.04246287 -0.03906122
v -0.25869184 0.04246287 -0.03758088
v -0.25907517 0.04246287 -0.03683667
v -0.25899303 0.04375442 -0.03643221
v -0.25926684 0.04246287 -0.03076163
v -0.25841802 0.04246287 -0.02809217
v -0.25904778 0.04246287 -0.02976664
v -0.24031893 0.17396061 0.00654611
v -0.23500693 0.19546935 0.01090623
v -0.25808944 0.04246287 -0.02744502
v -0.21167801 0.19107806 0.01546858
v -0.23303548 0.18790943 0.01038851
v -0.23769033 0.17861022 0.00809116
v -0.23769033 0.17396061 0.00732268
v -0.24012725 0.17130861 0.00635196
v -0.24483685 0.05031553 -0.01687234
v -0.24193442 0.04862790 -0.01667011
v -0.03558837 0.16684844 0.03887894
v -0.24207133 0.04246287 -0.01789159
v -0.06565312 0.18325982 0.03604769
v -0.03309667 0.16931101 0.03910544
v -0.03553361 0.17168747 0.03884658
v -0.06099829 0.18325982 0.03627419
v -0.06565312 0.18722060 0.03502035
v -0.06099829 0.18708285 0.03511742
v -0.05634345 0.18689342 0.03514978
v 0.02018750 0.17235908 0.03936429
v 0.02018750 0.04246287 -0.00079895
v -0.11132526 0.04246287 -0.02131335
v -0.20297073 0.04246287 -0.03558283
v -0.20505172 0.04246287 -0.03585787
v -0.25409177 0.04246287 -0.04130195
v -0.25641918 0.04246287 -0.02526901
v -0.25576203 0.04246287 -0.02453289
v -0.23769033 0.18325982 0.00859269
v -0.25348936 0.04246287 -0.02285031
v -0.25250363 0.04246287 -0.02221126
v -0.24700000 0.04246287 -0.01966314
v -0.24363208 0.04246287 -0.01844975
v -0.03775150 0.08852841 0.02011991
v 0.02018750 0.04246287 0.01423092
v -0.03309667 0.16640070 0.03898409
v -0.02844183 0.16931101 0.03940474
v -0.06565312 0.07631889 0.01393162
v -0.06099829 0.07631889 0.01455449
v -0.05114099 0.04246287 0.00670789
v -0.05177076 0.04349611 0.00693439
v -0.03309667 0.17191134 0.03894365
v -0.05634345 0.18325982 0.03632272
v -0.02844183 0.17222131 0.03910544
v -0.02381438 0.17229020 0.03919442
v 0.02018750 0.16931101 0.04042399
v -0.05171600 0.18325982 0.03633890
v -0.04706117 0.18325982 0.03633082
v -0.02972876 0.04246287 0.00912659
v 0.02018750 0.09121485 0.02472271
v 0.01339691 0.16464417 0.04082036
v 0.00874208 0.16464417 0.04094170
v -0.02844183 0.16578074 0.03912970
v -0.02381438 0.16931101 0.03956652
v -0.04706117 0.04375442 0.00755727
v -0.04856714 0.04246287 0.00700719
v 0.02018750 0.16677956 0.04052915
v -0.04706117 0.04246287 0.00717707
v 0.02018750 0.16464417 0.04051297
f 1 2 3
f 1 3 4
f 1 4 5
f 1 5 6
f 1 6 7
f 1 7 2
f 2 7 8
f 2 8 9
f 2 9 10
f 2 10 11
f 2 11 12
f 2 12 3
f 3 13 4
f 3 12 14
f 3 14 15
f 3 15 16
f 3 16 17
f 3 17 13
f 4 13 18
f 4 18 19
f 4 19 5
f 5 20 6
f 5 19 21
f 5 21 22
f 5 22 20
f 6 20 23
f 6 23 24
f 6 24 25
f 6 25 26
f 6 26 7
f 7 26 27
f 7 27 8
f 8 27 28
f 8 28 29
f 8 29 30
f 8 30 31
f 8 31 32
f 8 32 10
f 8 10 9
f 10 33 34
f 10 34 35
f 10 35 11
f 10 32 31
f 10 31 36
f 10 36 33
f 11 35 37
f 11 37 38
f 11 38 12
f 12 38 39
f 12 39 14
f 13 17 40
f 13 40 41
f 13 41 42
f 13 42 43
f 13 43 18
f 14 39 37
f 14 37 44
f 14 44 45
f 14 45 15
f 15 45 46
f 15 46 47
f 15 47 16
f 16 47 17
f 17 47 48
f 17 48 40
f 18 49 19
f 18 43 50
f 18 50 49
f 19 49 50
f 19 50 21
f 20 22 51
f 20 51 52
f 20 52 23
f 21 50 53
f 21 53 54
f 21 54 55
f 21 55 56
f 21 56 22
f 22 56 52
f 22 52 51
f 23 57 24
f 23 52 57
f 24 58 59
f 24 59 60
f 24 60 61
f 24 61 62
f 24 62 25
f 24 57 58
f 25 62 26
f 26 62 63
f 26 63 64
f 26 64 28
f 26 28 27
f 28 64 65
f 28 65 29
f 29 65 66
f 29 66 67
f 29 67 68
f 29 68 30
f 30 69 31
f 30 68 69
f 31 69 68
f 31 68 70
f 31 70 36
f 33 36 71
f 33 71 72
f 33 72 34
f 34 72 73
f 34 73 74
f 34 74 75
f 34 75 35
f 35 75 37
f 36 70 71
f 37 39 38
f 37 75 76
f 37 76 77
f 37 77 44
f 40 48 41
f 41 43 42
f 41 48 78
f 41 78 79
f 41 79 80
f 41 80 43
f 43 80 81
f 43 81 50
f 44 77 82
f 44 82 83
f 44 83 84
f 44 84 45
f 45 84 46
f 46 84 83
f 46 83 85
f 46 85 47
f 47 85 86
f 47 86 78
f 47 78 48
f 50 81 87
f 50 87 88
f 50 88 53
f 52 56 57
f 53 88 89
f 53 89 54
f 54 89 90
f 54 90 91
f 54 91 92
f 54 92 55
f 55 93 94
f 55 94 95
f 55 95 56
f 55 92 93
f 56 95 57
f 57 95 96
f 57 96 58
f 58 96 59
f 59 97 98
f 59 98 99
f 59 99 60
f 59 96 97
f 60 100 62
f 60 62 61
f 60 99 100
f 62 100 63
f 63 100 101
f 63 101 64
f 64 101 65
f 65 101 66
f 66 102 67
f 66 101 103
f 66 103 104
f 66 104 102
f 67 102 105
f 67 105 68
f 68 105 106
f 68 106 107
f 68 107 108
f 68 108 109
f 68 109 70
f 70 110 71
f 70 109 111
f 70 111 110
f 71 110 112
f 71 112 113
f 71 113 72
f 72 113 114
f 72 114 73
f 73 114 115
f 73 115 116
f 73 116 74
f 74 116 117
f 74 117 118
f 74 118 75
f 75 118 119
f 75 119 120
f 75 120 121
f 75 121 122
f 75 122 76
f 76 122 123
f 76 123 77
f 77 123 124
f 77 124 82
f 78 86 125
f 78 125 126
f 78 126 79
f 79 126 127
f 79 127 128
f 79 128 81
f 79 81 80
f 81 128 129
f 81 129 130
f 81 130 88
f 81 88 87
f 82 124 83
f 83 124 131
f 83 131 85
f 85 131 132
f 85 132 86
f 86 132 133
f 86 133 125
f 88 130 129
f 88 129 128
f 88 128 173
f 88 173 211
f 88 211 236
f 88 236 247
f 88 247 249
f 88 249 240
f 88 240 225
f 88 225 212
f 88 212 175
f 88 175 134
f 88 134 91
f 88 91 90
f 88 90 89
f 91 134 135
f 91 135 92
f 92 135 93
f 93 136 137
f 93 137 94
f 93 135 136
f 94 137 96
f 94 96 95
f 96 137 138
f 96 138 97
f 97 138 139
f 97 139 140
f 97 140 141
f 97 141 142
f 97 142 98
f 98 142 99
f 99 142 143
f 99 143 100
f 100 143 101
f 101 143 144
f 101 144 145
f 101 145 146
f 101 146 103
f 102 106 105
f 102 104 106
f 103 146 104
f 104 146 145
f 104 145 147
f 104 147 148
f 104 148 149
f 104 149 150
f 104 150 107
f 104 107 151
f 104 151 106
f 106 151 107
f 107 150 152
f 107 152 108
f 108 153 109
f 108 152 154
f 108 154 153
f 109 153 111
f 110 155 112
f 110 111 156
f 110 156 155
f 111 153 157
f 111 157 156
f 112 158 115
f 112 115 113
f 112 155 158
f 113 115 114
f 115 158 117
f 115 117 116
f 117 159 160
f 117 160 119
f 117 119 118
f 117 158 161
f 117 161 162
f 117 162 163
f 117 163 164
f 117 164 165
f 117 165 159
f 119 160 165
f 119 165 121
f 119 121 120
f 121 165 166
f 121 166 167
f 121 167 122
f 122 167 168
f 122 168 169
f 122 169 123
f 123 169 124
f 124 169 170
f 124 170 131
f 125 133 126
f 126 133 127
f 127 133 171
f 127 171 172
f 127 172 128
f 128 172 171
f 128 171 173
f 131 170 132
f 132 170 174
f 132 174 171
f 132 171 133
f 134 175 135
f 135 175 136
f 136 176 177
f 136 177 178
f 136 178 179
f 136 179 180
f 136 180 181
f 136 181 137
f 136 175 176
f 137 181 138
f 138 181 182
f 138 182 183
f 138 183 139
f 139 183 141
f 139 141 140
f 141 183 182
f 141 182 184
f 141 184 185
f 141 185 186
f 141 186 144
f 141 144 143
f 141 143 142
f 144 186 145
f 145 186 187
f 145 187 188
f 145 188 149
f 145 149 148
f 145 148 147
f 149 188 187
f 149 187 186
f 149 186 185
f 149 185 184
f 149 184 216
f 149 216 180
f 149 180 215
f 149 215 214
f 149 214 213
f 149 213 212
f 149 212 225
f 149 225 239
f 149 239 248
f 149 248 246
f 149 246 230
f 149 230 203
f 149 203 223
f 149 223 222
f 149 222 221
f 149 221 220
f 149 220 218
f 149 218 217
f 149 217 194
f 149 194 190
f 149 190 191
f 149 191 189
f 149 189 152
f 149 152 150
f 152 189 154
f 153 154 190
f 153 190 157
f 154 189 191
f 154 191 190
f 155 156 192
f 155 192 193
f 155 193 158
f 156 157 194
f 156 194 192
f 157 190 194
f 158 193 161
f 159 165 160
f 161 193 195
f 161 195 162
f 162 195 196
f 162 196 197
f 162 197 198
f 162 198 199
f 162 199 200
f 162 200 163
f 163 200 201
f 163 201 164
f 164 202 165
f 164 201 203
f 164 203 202
f 165 202 166
f 166 202 167
f 167 204 169
f 167 169 168
f 167 202 205
f 167 205 206
f 167 206 204
f 169 204 207
f 169 207 208
f 169 208 170
f 170 208 209
f 170 209 210
f 170 210 174
f 171 174 211
f 171 211 173
f 174 210 211
f 175 212 213
f 175 213 176
f 176 214 177
f 176 213 214
f 177 214 178
f 178 180 179
f 178 214 215
f 178 215 180
f 180 216 181
f 181 216 182
f 182 216 184
f 192 194 217
f 192 217 218
f 192 218 199
f 192 199 219
f 192 219 193
f 193 219 197
f 193 197 196
f 193 196 195
f 197 219 199
f 197 199 198
f 199 218 220
f 199 220 221
f 199 221 200
f 200 221 222
f 200 222 223
f 200 223 203
f 200 203 201
f 202 224 225
f 202 225 226
f 202 226 227
f 202 227 205
f 202 203 228
f 202 228 229
f 202 229 224
f 203 230 231
f 203 231 229
f 203 229 228
f 204 206 232
f 204 232 207
f 205 227 206
f 206 227 232
f 207 233 209
f 207 209 208
f 207 232 234
f 207 234 235
f 207 235 236
f 207 236 233
f 209 233 237
f 209 237 238
f 209 238 210
f 210 238 211
f 211 238 236
f 224 239 225
f 224 229 239
f 225 240 241
f 225 241 242
f 225 242 243
f 225 243 226
f 226 243 242
f 226 242 227
f 227 244 234
f 227 234 232
f 227 242 244
f 229 231 245
f 229 245 239
f 230 246 245
f 230 245 231
f 233 236 237
f 234 244 242
f 234 242 235
f 235 242 236
f 236 242 241
f 236 241 247
f 236 238 237
f 239 245 248
f 240 249 241
f 241 249 247
f 245 246 248

