v 0.02018750 -0.21060976 0.00633634
v 0.02018750 -0.20947938 0.00642032
v 0.02018750 -0.21338784 0.00653431
v -0.04286030 -0.19847726 0.03098023
v -0.04286030 -0.19836710 0.03098023
v 0.02018750 -0.20811909 0.00759013
v -0.02843615 -0.17187964 0.03152014
v 0.02018750 -0.21567735 0.00893390
v -0.04286030 -0.20128887 0.03210804
v -0.04286030 -0.19854432 0.03098623
v -0.04286030 -0.19397488 0.03209005
v -0.03196658 -0.17187964 0.03291191
v 0.02018750 -0.20512068 0.01016970
v -0.02378857 -0.17187964 0.03277993
v 0.02018750 -0.20473750 0.01056563
v 0.02018750 -0.21632876 0.01325918
v -0.03773747 -0.22078325 0.05510821
v -0.03756466 -0.21975345 0.05069894
v -0.03590436 -0.21920263 0.04777743
v -0.03625000 -0.21499720 0.04288225
v -0.03900275 -0.21797645 0.04930718
v -0.04020631 -0.21915473 0.05240866
v -0.04286030 -0.20163373 0.03261196
v -0.04286030 -0.19386951 0.03216203
v -0.03328123 -0.17187964 0.03510154
v -0.04286030 -0.19114891 0.03408771
v -0.02191843 -0.17187964 0.03429168
v 0.02018750 -0.19909514 0.01798040
v 0.02018750 -0.20017764 0.01622269
v 0.02018750 -0.20052730 0.01575477
v 0.02018750 -0.20382744 0.01167545
v 0.02018750 -0.21519358 0.01739250
v -0.03308373 -0.21955707 0.06321285
v -0.03308373 -0.22034738 0.05975743
v -0.03773747 -0.22081199 0.05975743
v -0.04065686 -0.21954749 0.05975743
v -0.04045936 -0.21939901 0.05510821
v -0.04171847 -0.21666883 0.05510821
v -0.04286030 -0.20351132 0.03592940
v -0.03418235 -0.17187964 0.03663729
v -0.04286030 -0.18920426 0.03582742
v -0.02145553 -0.17187964 0.03476560
v 0.02018750 -0.19795997 0.02012204
v 0.02018750 -0.21403925 0.01971411
v -0.03073216 -0.21901583 0.06213304
v -0.03308373 -0.21786150 0.06553447
v -0.03773747 -0.21981093 0.06375277
v -0.04046553 -0.21935111 0.06285292
v -0.04223075 -0.21666883 0.05975743
v -0.04286030 -0.21376144 0.05975743
v -0.03524395 -0.17187964 0.03945682
v -0.04286030 -0.18861991 0.03637933
v -0.04286030 -0.18634955 0.03868895
v -0.02044331 -0.17187964 0.03684725
v 0.02018750 -0.19710260 0.02275560
v 0.02018750 -0.21031280 0.02595907
v 0.02018750 -0.20836336 0.02837666
v 0.02018750 -0.20626545 0.03058429
v -0.03066427 -0.21449907 0.06680026
v -0.03308373 -0.21553844 0.06721419
v -0.03773747 -0.21783274 0.06608038
v -0.04010138 -0.21446075 0.06676426
v -0.04096547 -0.21627607 0.06440666
v -0.04286030 -0.21207545 0.06074727
v -0.03586733 -0.17187964 0.04164645
v -0.04286030 -0.18525748 0.04029068
v -0.01917803 -0.17187964 0.04107655
v 0.02018750 -0.19701638 0.02541916
v -0.01897435 -0.17187964 0.04286425
v -0.01875216 -0.17187964 0.04580376
v 0.02018750 -0.20276890 0.03132817
v -0.03055317 -0.21201797 0.06687825
v -0.03308373 -0.21201797 0.06762212
v -0.03773747 -0.21550492 0.06719020
v -0.04010138 -0.21404404 0.06676426
v -0.04133580 -0.21230535 0.06476660
v -0.03800287 -0.21230535 0.06734017
v -0.04286030 -0.20736709 0.06000939
v -0.04286030 -0.18484077 0.04111254
v -0.03692276 -0.17187964 0.04580376
v 0.02018750 -0.19759115 0.02721886
v -0.01872747 -0.17187964 0.04751347
v -0.01885708 -0.17187964 0.05045299
v -0.01907928 -0.17187964 0.05216870
v -0.01984461 -0.17187964 0.05510821
v -0.02015322 -0.17187964 0.05612804
v 0.02018750 -0.20057519 0.03066228
v 0.01595345 -0.20008185 0.03433967
v 0.01595345 -0.20138945 0.03433967
v -0.03052849 -0.20736709 0.06689025
v -0.03063341 -0.20371728 0.06681225
v -0.03308373 -0.20736709 0.06740616
v -0.03684252 -0.20736709 0.06724418
v -0.03972488 -0.21094505 0.06656030
v -0.04135432 -0.20736709 0.06387274
v -0.04286030 -0.18877318 0.05687791
v -0.04286030 -0.18342300 0.04580376
v -0.03770044 -0.17187964 0.05045299
v 0.02018750 -0.19866406 0.02931251
v -0.02106052 -0.17187964 0.05799373
v 0.02018750 -0.19951666 0.03030834
v -0.02421445 -0.17187964 0.06116720
v -0.02568340 -0.17187964 0.06234900
v -0.02544886 -0.17482056 0.06252297
v -0.02523901 -0.17947143 0.06276293
v -0.02519581 -0.18412231 0.06284692
v -0.03308373 -0.20301797 0.06700423
v -0.02843615 -0.17947143 0.06384875
v -0.03610805 -0.20366938 0.06701022
v -0.03916939 -0.20736709 0.06619436
v -0.04089758 -0.20271622 0.06326685
v -0.04286030 -0.18804993 0.05654197
v -0.04039764 -0.19807013 0.06255896
v -0.04010756 -0.19552198 0.06214504
v -0.03541060 -0.17713403 0.06208504
v -0.03625617 -0.17187964 0.05907354
v -0.04286030 -0.18373913 0.05044699
v -0.03761403 -0.17187964 0.05510821
v -0.02177030 -0.17187964 0.05885158
v -0.02678203 -0.17187964 0.06261295
v -0.03308373 -0.20069494 0.06669228
v -0.02843615 -0.17482056 0.06323086
v -0.03308373 -0.19807013 0.06633234
v -0.02843615 -0.17187964 0.06279293
v -0.03201596 -0.17187964 0.06246298
v -0.04286030 -0.18518564 0.05441833
v -0.03288622 -0.17187964 0.06203106
v -0.03467612 -0.17403504 0.06161112
v -0.03418235 -0.17187964 0.06125118
v -0.03689807 -0.17187964 0.05733983
f 1 2 6
f 1 6 13
f 1 13 15
f 1 15 31
f 1 31 30
f 1 30 29
f 1 29 28
f 1 28 43
f 1 43 55
f 1 55 68
f 1 68 81
f 1 81 99
f 1 99 101
f 1 101 87
f 1 87 71
f 1 71 58
f 1 58 57
f 1 57 56
f 1 56 44
f 1 44 32
f 1 32 16
f 1 16 8
f 1 8 3
f 1 3 4
f 1 4 5
f 1 5 2
f 2 5 7
f 2 7 6
f 3 8 9
f 3 9 10
f 3 10 4
f 4 10 9
f 4 9 23
f 4 23 39
f 4 39 50
f 4 50 64
f 4 64 78
f 4 78 96
f 4 96 112
f 4 112 126
f 4 126 117
f 4 117 97
f 4 97 79
f 4 79 66
f 4 66 53
f 4 53 52
f 4 52 41
f 4 41 26
f 4 26 24
f 4 24 11
f 4 11 5
f 5 11 12
f 5 12 7
f 6 7 13
f 7 12 25
f 7 25 40
f 7 40 51
f 7 51 65
f 7 65 80
f 7 80 98
f 7 98 118
f 7 118 130
f 7 130 116
f 7 116 129
f 7 129 127
f 7 127 125
f 7 125 124
f 7 124 120
f 7 120 103
f 7 103 102
f 7 102 119
f 7 119 100
f 7 100 86
f 7 86 85
f 7 85 84
f 7 84 83
f 7 83 82
f 7 82 70
f 7 70 69
f 7 69 67
f 7 67 54
f 7 54 42
f 7 42 27
f 7 27 14
f 7 14 15
f 7 15 13
f 8 16 17
f 8 17 18
f 8 18 19
f 8 19 20
f 8 20 9
f 9 20 19
f 9 19 21
f 9 21 22
f 9 22 23
f 11 24 12
f 12 24 26
f 12 26 25
f 14 27 28
f 14 28 29
f 14 29 30
f 14 30 31
f 14 31 15
f 16 32 33
f 16 33 34
f 16 34 35
f 16 35 17
f 17 35 36
f 17 36 37
f 17 37 22
f 17 22 18
f 18 22 19
f 19 22 21
f 22 37 38
f 22 38 39
f 22 39 23
f 25 26 41
f 25 41 40
f 27 42 43
f 27 43 28
f 32 44 45
f 32 45 33
f 33 45 46
f 33 46 47
f 33 47 35
f 33 35 34
f 35 47 48
f 35 48 36
f 36 48 49
f 36 49 37
f 37 49 38
f 38 49 39
f 39 49 50
f 40 41 52
f 40 52 53
f 40 53 51
f 42 54 55
f 42 55 43
f 44 56 45
f 45 56 57
f 45 57 46
f 46 57 58
f 46 58 59
f 46 59 60
f 46 60 61
f 46 61 47
f 47 61 48
f 48 62 63
f 48 63 49
f 48 61 62
f 49 63 50
f 50 63 64
f 51 53 66
f 51 66 65
f 54 67 55
f 55 67 69
f 55 69 70
f 55 70 68
f 58 71 59
f 59 72 73
f 59 73 60
f 59 71 72
f 60 73 74
f 60 74 61
f 61 74 62
f 62 75 76
f 62 76 63
f 62 74 77
f 62 77 75
f 63 76 64
f 64 76 78
f 65 66 79
f 65 79 80
f 68 70 82
f 68 82 83
f 68 83 84
f 68 84 85
f 68 85 86
f 68 86 81
f 71 87 88
f 71 88 89
f 71 89 72
f 72 90 73
f 72 89 90
f 73 77 74
f 73 90 91
f 73 91 92
f 73 92 93
f 73 93 77
f 75 77 93
f 75 93 94
f 75 94 95
f 75 95 76
f 76 95 96
f 76 96 78
f 79 97 98
f 79 98 80
f 81 86 100
f 81 100 99
f 87 101 88
f 88 101 102
f 88 102 103
f 88 103 104
f 88 104 105
f 88 105 106
f 88 106 90
f 88 90 89
f 90 106 105
f 90 105 91
f 91 107 92
f 91 105 104
f 91 104 103
f 91 103 108
f 91 108 107
f 92 107 109
f 92 109 93
f 93 109 94
f 94 110 111
f 94 111 95
f 94 109 110
f 95 111 96
f 96 111 113
f 96 113 114
f 96 114 115
f 96 115 116
f 96 116 112
f 97 117 118
f 97 118 98
f 99 100 101
f 100 119 101
f 101 119 102
f 103 120 108
f 107 121 109
f 107 108 122
f 107 122 121
f 108 120 122
f 109 121 123
f 109 123 122
f 109 122 124
f 109 124 125
f 109 125 115
f 109 115 110
f 110 113 111
f 110 115 113
f 112 116 126
f 113 115 114
f 115 125 127
f 115 127 128
f 115 128 116
f 116 128 129
f 116 130 126
f 117 126 118
f 118 126 130
f 120 124 122
f 121 122 123
f 127 129 128

