v -0.27478617 -0.07249793 -0.05649475
v -0.27438164 -0.07249793 -0.05184954
v -0.27448003 -0.06785259 -0.05649475
v -0.27414112 -0.07249793 -0.06114745
v -0.27370379 -0.07715851 -0.06114745
v -0.27428325 -0.07715851 -0.05649475
v -0.27404270 -0.07715851 -0.05184954
v -0.27391151 -0.06785259 -0.05184954
v -0.27312433 -0.07715851 -0.04838252
v -0.27326645 -0.07249793 -0.04811987
v -0.26331719 0.01399681 -0.03549753
v -0.26395131 0.01119438 -0.03789892
v -0.27308059 -0.06320725 -0.06020190
v -0.27352886 -0.06742613 -0.06159021
v -0.26351398 0.01483450 -0.03789892
v -0.26354678 0.01477358 -0.04101324
v -0.27286192 -0.06869028 -0.06390156
v -0.27305873 -0.07249793 -0.06423175
v -0.27290566 -0.07715851 -0.06405164
v -0.27266511 -0.07967156 -0.06366142
v -0.27291657 -0.08012848 -0.06114745
v -0.27318992 -0.08075294 -0.05649475
v -0.27308059 -0.08067678 -0.05184954
v -0.27279633 -0.08005233 -0.04906542
v -0.27148433 -0.07715851 -0.04605617
v -0.27183418 -0.07249793 -0.04579352
v -0.26376545 0.00188847 -0.03492719
v -0.26341558 0.01119438 -0.03532493
v -0.25841909 0.04246287 -0.02809822
v -0.25906414 0.04246287 -0.02977920
v -0.25927188 0.04246287 -0.03076227
v -0.27256672 -0.06559846 -0.06343628
v -0.26338278 0.00927532 -0.04501306
v -0.25953427 0.04246287 -0.03324622
v -0.25907509 0.04246287 -0.03684081
v -0.27070806 -0.06742613 -0.06541744
v -0.26986621 -0.07240655 -0.06685077
v -0.27050033 -0.07715851 -0.06637800
v -0.26813875 -0.07968679 -0.06821657
v -0.26986621 -0.08122509 -0.06539493
v -0.26849954 -0.08456059 -0.06402913
v -0.27141874 -0.08245877 -0.06114745
v -0.27194352 -0.08308322 -0.05649475
v -0.27197633 -0.08299183 -0.05184954
v -0.26895875 -0.08521551 -0.04843506
v -0.27024887 -0.08166678 -0.04720434
v -0.26844488 -0.08018940 -0.04459282
v -0.26915554 -0.07715851 -0.04418008
v -0.26951634 -0.07249793 -0.04388741
v -0.25565297 0.02048506 -0.02472125
v -0.25780683 0.01583972 -0.02715267
v -0.25798176 0.02048506 -0.02711515
v -0.25810202 0.04246287 -0.02745284
v -0.26357958 0.00653381 -0.03509980
v -0.26969126 -0.06320725 -0.06494467
v -0.25870335 0.03710168 -0.04031533
v -0.25884548 0.02333319 -0.04503558
v -0.25871429 0.04246287 -0.03758374
v -0.26805128 -0.07389915 -0.06817154
v -0.26818249 -0.07715851 -0.06823158
v -0.26560224 -0.07968679 -0.06820156
v -0.26134919 -0.08137739 -0.06751866
v -0.26095560 -0.08605319 -0.06519231
v -0.26560224 -0.08532212 -0.06472703
v -0.26562411 -0.07738696 -0.06821657
v -0.26553664 -0.08756103 -0.06113995
v -0.26908995 -0.08521551 -0.06114745
v -0.26961474 -0.08588566 -0.05649475
v -0.26964754 -0.08593135 -0.05184954
v -0.26726408 -0.08328122 -0.04533575
v -0.26726408 -0.08826164 -0.05184954
v -0.26426839 -0.08943440 -0.04829247
v -0.26303293 -0.08836825 -0.04519317
v -0.25792709 -0.08757626 -0.04066053
v -0.25876894 -0.08446921 -0.04012772
v -0.25399112 -0.07485868 -0.03556507
v -0.25211059 0.01583972 -0.02268007
v -0.25261353 0.02048506 -0.02239490
v -0.25547804 0.01583972 -0.02500642
v -0.25577324 0.04246287 -0.02454115
v -0.25641830 0.04246287 -0.02527658
v -0.26560224 -0.06320725 -0.06660313
v -0.25821135 0.04020873 -0.03959491
v -0.25542338 0.04246287 -0.04096821
v -0.25767563 0.04246287 -0.03906210
v -0.26560224 -0.06785259 -0.06769126
v -0.26718755 -0.07389915 -0.06817154
v -0.26316411 -0.07954972 -0.06814152
v -0.23529525 -0.08880994 -0.06348131
v -0.23770055 -0.08903839 -0.06359388
v -0.23770055 -0.09136869 -0.06251325
v -0.26095560 -0.08836825 -0.06273838
v -0.23305392 -0.09546572 -0.06021691
v -0.23770055 -0.09511542 -0.06018689
v -0.23305392 -0.09779601 -0.05854344
v -0.23770055 -0.09744571 -0.05807817
v -0.26316411 -0.07909279 -0.06814152
v -0.26562411 -0.07240655 -0.06803647
v -0.26392944 -0.08912978 -0.05958655
v -0.26701262 -0.08821594 -0.05649475
v -0.26493531 -0.08981516 -0.05184954
v -0.25800361 -0.09302882 -0.04719684
v -0.25473458 -0.09383605 -0.04419509
v -0.25992786 -0.08983039 -0.04375983
v -0.25483297 -0.08946486 -0.03979003
v -0.24479624 -0.09353143 -0.03549002
v -0.23604963 -0.09406451 -0.03055215
v -0.23682591 -0.09110977 -0.03015442
v -0.24483998 -0.07519375 -0.03083731
v -0.24978182 0.01583972 -0.02141183
v -0.25028474 0.02048506 -0.02115668
v -0.25251512 0.04246287 -0.02221480
v -0.25351005 0.04246287 -0.02286017
v -0.26095560 -0.05854667 -0.06559754
v -0.25410045 0.04246287 -0.04130591
v -0.25165140 0.04246287 -0.04169613
v -0.26095560 -0.06785259 -0.06724850
v -0.26095560 -0.06320725 -0.06655060
v -0.23770055 -0.08180385 -0.06443436
v -0.23770055 -0.08644920 -0.06408916
v -0.22839636 -0.09110977 -0.06201796
v -0.23346938 -0.09065284 -0.06262581
v -0.16795730 -0.09575511 -0.05302022
v -0.17898896 -0.09831385 -0.05425094
v -0.22839636 -0.09561803 -0.06014187
v -0.26095560 -0.08969332 -0.06041953
v -0.24234719 -0.09695833 -0.05721516
v -0.24234719 -0.09851185 -0.05488881
v -0.24485091 -0.09813109 -0.05428096
v -0.22839636 -0.09794832 -0.05870854
v -0.22066655 -0.10270028 -0.05412336
v -0.22374972 -0.10257843 -0.05389073
v -0.23305392 -0.09965415 -0.05621709
v -0.23770055 -0.09915154 -0.05575181
v -0.26408252 -0.07600098 -0.06807399
v -0.26095560 -0.07249793 -0.06750365
v -0.25530310 -0.09397312 -0.05530155
v -0.26095560 -0.09133822 -0.05649475
v -0.26468383 -0.08958670 -0.05649475
v -0.26095560 -0.09205407 -0.05184954
v -0.25567484 -0.09427774 -0.04719684
v -0.24994580 -0.09383605 -0.03977502
v -0.24560531 -0.09851185 -0.04363226
v -0.24445731 -0.09794832 -0.04053296
v -0.23963575 -0.09782647 -0.03592528
v -0.23413632 -0.09717155 -0.03165529
v -0.22648303 -0.09383605 -0.02609455
v -0.23305392 -0.09110977 -0.02837588
v -0.23103128 -0.09825293 -0.03076227
v -0.22474465 -0.09694310 -0.02687501
v -0.22950061 -0.09110977 -0.02681497
v -0.24248932 -0.07689959 -0.03010189
v -0.23770055 -0.07715851 -0.02808321
v -0.22839636 -0.04925599 -0.01995598
v -0.22839636 -0.04459542 -0.01927308
v -0.22025108 0.01119438 -0.00820414
v -0.21821750 0.01583972 -0.00701095
v -0.24700477 0.04246287 -0.01967082
v -0.25743509 -0.05100751 -0.06367643
v -0.25604656 -0.05361195 -0.06413419
v -0.20506478 0.04246287 -0.03585774
v -0.22374972 -0.01206279 -0.05168444
v -0.22839636 -0.01206279 -0.05222476
v -0.25165140 0.03909689 -0.04247659
v -0.23770055 -0.05390134 -0.06180784
v -0.25629802 -0.05854667 -0.06511726
v -0.24234719 -0.04925599 -0.06163524
v -0.16795730 -0.09110977 -0.05273506
v -0.22374972 -0.09546572 -0.05989422
v -0.18190815 -0.09870985 -0.05441604
v -0.20980982 -0.09622725 -0.05822825
v -0.16329974 -0.09575511 -0.05218724
v -0.16309200 -0.09596833 -0.05212720
v -0.16309200 -0.10040045 -0.05142179
v -0.16309200 -0.10053753 -0.05137677
v -0.16309200 -0.10350749 -0.05011603
v -0.22374972 -0.09779601 -0.05865600
v -0.23328353 -0.10207582 -0.05181202
v -0.23770055 -0.10099444 -0.05184954
v -0.24234719 -0.09960845 -0.05184954
v -0.24567090 -0.09846616 -0.05184954
v -0.20679223 -0.10279166 -0.05422092
v -0.20980982 -0.10282212 -0.05426595
v -0.21445645 -0.10280689 -0.05425094
v -0.21758337 -0.10276120 -0.05420591
v -0.20980982 -0.10461933 -0.05184954
v -0.20516318 -0.10693439 -0.04857764
v -0.20980982 -0.10685823 -0.04809736
v -0.22374972 -0.10372073 -0.05156438
v -0.22839636 -0.10231951 -0.05330539
v -0.25610124 -0.09438435 -0.05184954
v -0.25165140 -0.09622725 -0.05184954
v -0.25843002 -0.09334867 -0.05184954
v -0.25165140 -0.09625771 -0.04719684
v -0.24855728 -0.09771986 -0.04719684
v -0.24623944 -0.09875554 -0.04719684
v -0.23732883 -0.10181690 -0.04279177
v -0.23486884 -0.10254797 -0.04140346
v -0.24268612 -0.09939523 -0.04226647
v -0.23320699 -0.10195397 -0.03776385
v -0.24135227 -0.09877077 -0.03902458
v -0.23654163 -0.09874031 -0.03475459
v -0.21626045 -0.09238914 -0.02178705
v -0.22374972 -0.09110977 -0.02436855
v -0.22717183 -0.09110977 -0.02581689
v -0.22341080 -0.09554188 -0.02561427
v -0.19840642 -0.09826816 -0.01690921
v -0.23276966 -0.09938000 -0.03321620
v -0.22477744 -0.10216720 -0.03176035
v -0.22167240 -0.10283735 -0.03078478
v -0.22839636 -0.09893831 -0.03009438
v -0.20340293 -0.10302012 -0.02135930
v -0.22163960 -0.09820724 -0.02618461
v -0.22434011 -0.04459542 -0.01755458
v -0.21740843 0.00752380 -0.00740868
v -0.21793322 0.01119438 -0.00717604
v -0.21445645 0.01583972 -0.00557011
v -0.24363732 0.04246287 -0.01845511
v -0.22839636 -0.01670814 -0.05325286
v -0.23770055 -0.03531997 -0.05824326
v -0.20297652 0.04246287 -0.03558758
v -0.20241893 0.04183841 -0.03567013
v -0.22374972 -0.01670814 -0.05262249
v -0.20340293 0.02229751 -0.04015023
v -0.23479232 -0.04116853 -0.05894867
v -0.16309200 -0.09110977 -0.05164692
v -0.16309200 -0.09130776 -0.05167694
v -0.16309200 -0.09575511 -0.05214972
v -0.21445645 -0.09689741 -0.05838585
v -0.21910309 -0.09738478 -0.05851342
v -0.18190815 -0.10104013 -0.05325286
v -0.16309200 -0.10364458 -0.04997345
v -0.16329974 -0.10352273 -0.05012354
v -0.20369813 -0.10263935 -0.05410085
v -0.20520692 -0.10081167 -0.05539160
v -0.20980982 -0.10040045 -0.05599946
v -0.22839636 -0.10333996 -0.05097904
v -0.23189500 -0.10300488 -0.05024361
v -0.23498912 -0.10263935 -0.04854762
v -0.23732883 -0.10206059 -0.04707676
v -0.24234719 -0.10029384 -0.04719684
v -0.20520692 -0.10426903 -0.05226978
v -0.16795730 -0.10369026 -0.05032616
v -0.19585899 -0.10678208 -0.04862266
v -0.20050562 -0.10690393 -0.04868270
v -0.19585899 -0.10818330 -0.04630382
v -0.20050562 -0.10810715 -0.04635634
v -0.20516318 -0.10797007 -0.04625128
v -0.20980982 -0.10769592 -0.04577100
v -0.21454392 -0.10675162 -0.04694169
v -0.23553577 -0.10277642 -0.04450277
v -0.23320699 -0.10327904 -0.04279177
v -0.22374972 -0.10524379 -0.03789892
v -0.23176379 -0.10308104 -0.03922720
v -0.23018941 -0.10250228 -0.03612789
v -0.23793016 -0.09969984 -0.03764378
v -0.22708436 -0.10312673 -0.03485965
v -0.20234241 -0.09237391 -0.01713434
v -0.19206514 -0.08644920 -0.01277430
v -0.19585899 -0.08644920 -0.01404254
v -0.21700391 -0.08928209 -0.02155441
v -0.21877509 -0.09094223 -0.02242492
v -0.20146775 -0.09575511 -0.01742701
v -0.20849782 -0.09890785 -0.02117169
v -0.19914988 -0.09575511 -0.01667657
v -0.20017762 -0.10005014 -0.01838006
v -0.19585899 -0.10167983 -0.01745703
v -0.19347553 -0.10268504 -0.01699926
v -0.17956842 -0.10270028 -0.01233155
v -0.19121235 -0.09575511 -0.01428268
v -0.18905849 -0.08902317 -0.01227151
v -0.21263060 -0.10295919 -0.02604953
v -0.20280160 -0.10737608 -0.02630468
v -0.19689765 -0.10688869 -0.02231235
v -0.20050562 -0.10373596 -0.02072893
v -0.20503198 -0.10044614 -0.02053382
v -0.21910309 -0.03531997 -0.01419263
v -0.19360673 0.01338759 0.00164909
v -0.21445645 0.01119438 -0.00589280
v -0.19360673 0.01357036 0.00164909
v -0.24208480 0.04246287 -0.01789979
v -0.20180667 0.04246287 -0.03539997
v -0.21910309 -0.01670814 -0.05151935
v -0.20029788 0.04246287 -0.03503226
v -0.19596832 0.04246287 -0.03389159
v -0.16309200 0.04246287 -0.02432352
v -0.16309200 -0.10577686 -0.04718183
v -0.21910309 -0.10605101 -0.04719684
v -0.22374972 -0.10528948 -0.04719684
v -0.22839636 -0.10439087 -0.04719684
v -0.23328353 -0.10323335 -0.04707676
v -0.23553577 -0.10277642 -0.04544832
v -0.16309200 -0.10589871 -0.04700922
v -0.18655477 -0.10804623 -0.04589858
v -0.19121235 -0.10815284 -0.04613872
v -0.18655477 -0.10972160 -0.04254413
v -0.19121235 -0.10981298 -0.04254413
v -0.19585899 -0.10973682 -0.04254413
v -0.20050562 -0.10944744 -0.04254413
v -0.21305699 -0.10748269 -0.04521568
v -0.20516318 -0.10902098 -0.04254413
v -0.22839636 -0.10464979 -0.04254413
v -0.21876416 -0.10670592 -0.03816908
v -0.21608550 -0.10720854 -0.03679578
v -0.21298046 -0.10757408 -0.03486716
v -0.21450019 -0.10659931 -0.03329124
v -0.22853849 -0.10365980 -0.03776385
v -0.21119835 -0.10710193 -0.03176786
v -0.18974730 -0.08644920 -0.01206139
v -0.18422600 -0.10737608 -0.01698425
v -0.17107328 -0.10774161 -0.01201636
v -0.16527866 -0.10040045 -0.00775388
v -0.16795730 -0.10506102 -0.00965249
v -0.16309200 -0.10535041 -0.00818914
v -0.16350746 -0.10513717 -0.00824166
v -0.16309200 -0.10469549 -0.00800903
v -0.18655477 -0.08644920 -0.01116837
v -0.20810423 -0.10754361 -0.03052964
v -0.20095388 -0.10860976 -0.02815075
v -0.19969655 -0.10784822 -0.02541166
v -0.19379258 -0.10746746 -0.02151689
v -0.18975822 0.00781318 0.00195677
v -0.18655477 0.01119438 0.00336009
v -0.18190815 0.01119438 0.00430564
v -0.18655477 0.01446896 0.00250459
v -0.16309200 0.04246287 -0.01044044
v -0.16329974 0.01047854 0.00745747
v -0.21615111 -0.10731516 -0.04391743
v -0.21876416 -0.10694962 -0.04243907
v -0.22374972 -0.10583778 -0.04254413
v -0.16309200 -0.10731516 -0.04460783
v -0.18190815 -0.10944744 -0.04254413
v -0.18190815 -0.11116850 -0.03789892
v -0.18655477 -0.11129035 -0.03789892
v -0.19121235 -0.11110758 -0.03789892
v -0.19585899 -0.11074205 -0.03789892
v -0.20980982 -0.10845745 -0.04254413
v -0.20050562 -0.11019374 -0.03789892
v -0.21698204 -0.10742177 -0.03989508
v -0.21450019 -0.10775685 -0.03816908
v -0.20516318 -0.10903621 -0.03324622
v -0.20971141 -0.10793961 -0.03329124
v -0.19585899 -0.11005666 -0.02860101
v -0.16413067 -0.11147312 -0.01323957
v -0.16795730 -0.10839653 -0.01143102
v -0.16309200 -0.10040045 -0.00723608
v -0.16309200 -0.00711284 0.00685712
v -0.16309200 -0.10513717 -0.00812910
v -0.16309200 -0.10976728 -0.01098826
v -0.18655477 -0.11063543 -0.02395581
v -0.19121235 -0.10944744 -0.02395581
v -0.17006743 -0.11197573 -0.01726942
v -0.19555286 -0.10824422 -0.02390328
v -0.16329974 0.00653381 0.00838801
v -0.16309200 0.00653381 0.00843304
v -0.16309200 -0.00275688 0.00747248
v -0.16309200 -0.00255888 0.00749499
v -0.16309200 0.00188847 0.00798278
v -0.16795730 0.00996070 0.00693216
v -0.16309200 0.01047854 0.00747248
v -0.21454392 -0.10769592 -0.04243907
v -0.21698204 -0.10742177 -0.04081812
v -0.16309200 -0.10734562 -0.04451027
v -0.16309200 -0.10931037 -0.03789892
v -0.16309200 -0.11068112 -0.03324622
v -0.17726152 -0.11168635 -0.03383906
v -0.18190815 -0.11191480 -0.03446943
v -0.18642359 -0.11191480 -0.03331375
v -0.19121235 -0.11148834 -0.03324622
v -0.20516318 -0.10952359 -0.03789892
v -0.19585899 -0.11084866 -0.03324622
v -0.20980982 -0.10871637 -0.03789892
v -0.20050562 -0.11002620 -0.03324622
v -0.19121235 -0.11098574 -0.02860101
v -0.17875937 -0.11193003 -0.02224481
v -0.16696238 -0.11231080 -0.01634638
v -0.16309200 -0.11232603 -0.01447029
v -0.16309200 -0.11013282 -0.01137099
v -0.16309200 -0.11171681 -0.02830834
v -0.16309200 -0.11249357 -0.02412841
v -0.17726152 -0.11211280 -0.03151271
v -0.16309200 -0.11313325 -0.01930310
v -0.18190815 -0.11214326 -0.03214307
v -0.18477266 -0.11206711 -0.03180538
v -0.18477266 -0.11206711 -0.03018443
v -0.18383239 -0.11197573 -0.02709263
v -0.18072734 -0.11217372 -0.02534412
v -0.16309200 -0.11311802 -0.01909298
v -0.16309200 -0.11250880 -0.01491305
v -0.16309200 -0.11249357 -0.01482299
v -0.18212680 -0.11220419 -0.02862353
f 1 2 3
f 1 3 4
f 1 4 5
f 1 5 6
f 1 6 7
f 1 7 2
f 2 8 3
f 2 7 9
f 2 9 10
f 2 10 11
f 2 11 12
f 2 12 8
f 3 13 14
f 3 14 4
f 3 8 12
f 3 12 15
f 3 15 16
f 3 16 13
f 4 14 17
f 4 17 18
f 4 18 19
f 4 19 5
f 5 19 20
f 5 20 21
f 5 21 6
f 6 21 22
f 6 22 23
f 6 23 7
f 7 23 24
f 7 24 9
f 9 24 25
f 9 25 26
f 9 26 10
f 10 26 27
f 10 27 28
f 10 28 11
f 11 28 29
f 11 29 30
f 11 30 31
f 11 31 15
f 11 15 12
f 13 16 14
f 14 32 17
f 14 16 33
f 14 33 32
f 15 31 34
f 15 34 16
f 16 34 35
f 16 35 33
f 17 32 36
f 17 36 37
f 17 37 18
f 18 37 38
f 18 38 19
f 19 38 39
f 19 39 20
f 20 39 40
f 20 40 41
f 20 41 42
f 20 42 21
f 21 42 43
f 21 43 22
f 22 43 44
f 22 44 23
f 23 44 24
f 24 44 45
f 24 45 46
f 24 46 25
f 25 46 47
f 25 47 48
f 25 48 49
f 25 49 26
f 26 49 50
f 26 50 51
f 26 51 52
f 26 52 27
f 27 52 53
f 27 53 29
f 27 29 54
f 27 54 28
f 28 54 29
f 29 53 81
f 29 81 80
f 29 80 113
f 29 113 112
f 29 112 158
f 29 158 218
f 29 218 281
f 29 281 326
f 29 326 286
f 29 286 285
f 29 285 284
f 29 284 282
f 29 282 221
f 29 221 161
f 29 161 116
f 29 116 115
f 29 115 84
f 29 84 85
f 29 85 58
f 29 58 35
f 29 35 34
f 29 34 31
f 29 31 30
f 32 55 36
f 32 33 56
f 32 56 57
f 32 57 55
f 33 35 58
f 33 58 56
f 36 59 37
f 36 55 59
f 37 59 60
f 37 60 38
f 38 60 39
f 39 61 62
f 39 62 63
f 39 63 64
f 39 64 41
f 39 41 40
f 39 60 65
f 39 65 61
f 41 64 66
f 41 66 67
f 41 67 42
f 42 67 68
f 42 68 43
f 43 68 69
f 43 69 44
f 44 69 45
f 45 70 46
f 45 69 71
f 45 71 72
f 45 72 73
f 45 73 70
f 46 70 47
f 47 70 74
f 47 74 75
f 47 75 48
f 48 75 76
f 48 76 77
f 48 77 78
f 48 78 49
f 49 78 79
f 49 79 50
f 50 52 51
f 50 79 78
f 50 78 80
f 50 80 52
f 52 80 81
f 52 81 53
f 55 82 59
f 55 57 82
f 56 58 83
f 56 83 84
f 56 84 57
f 57 84 82
f 58 85 83
f 59 82 86
f 59 86 87
f 59 87 60
f 60 87 65
f 61 88 62
f 61 65 88
f 62 88 89
f 62 89 90
f 62 90 91
f 62 91 63
f 63 92 64
f 63 91 93
f 63 93 94
f 63 94 95
f 63 95 96
f 63 96 92
f 64 92 66
f 65 97 88
f 65 87 98
f 65 98 97
f 66 92 99
f 66 99 100
f 66 100 67
f 67 100 68
f 68 100 71
f 68 71 69
f 70 73 74
f 71 100 101
f 71 101 72
f 72 101 102
f 72 102 103
f 72 103 104
f 72 104 73
f 73 104 74
f 74 104 105
f 74 105 106
f 74 106 107
f 74 107 75
f 75 107 108
f 75 108 109
f 75 109 76
f 76 109 110
f 76 110 77
f 77 110 78
f 78 110 111
f 78 111 112
f 78 112 113
f 78 113 80
f 82 114 86
f 82 84 115
f 82 115 116
f 82 116 114
f 83 85 84
f 86 117 98
f 86 98 87
f 86 114 118
f 86 118 117
f 88 97 119
f 88 119 120
f 88 120 89
f 89 121 122
f 89 122 90
f 89 120 123
f 89 123 124
f 89 124 121
f 90 122 125
f 90 125 91
f 91 125 93
f 92 126 99
f 92 96 127
f 92 127 128
f 92 128 129
f 92 129 126
f 93 125 130
f 93 130 95
f 93 95 94
f 95 130 131
f 95 131 132
f 95 132 133
f 95 133 96
f 96 133 134
f 96 134 127
f 97 98 135
f 97 135 117
f 97 117 136
f 97 136 119
f 98 117 135
f 99 137 138
f 99 138 139
f 99 139 100
f 99 126 129
f 99 129 137
f 100 139 101
f 101 139 140
f 101 140 102
f 102 140 141
f 102 141 103
f 103 142 104
f 103 141 143
f 103 143 144
f 103 144 142
f 104 142 106
f 104 106 105
f 106 142 145
f 106 145 146
f 106 146 107
f 107 147 148
f 107 148 108
f 107 146 149
f 107 149 150
f 107 150 147
f 108 148 109
f 109 148 151
f 109 151 152
f 109 152 153
f 109 153 154
f 109 154 155
f 109 155 156
f 109 156 110
f 110 156 111
f 111 156 157
f 111 157 158
f 111 158 112
f 114 159 160
f 114 160 118
f 114 116 159
f 116 161 162
f 116 162 163
f 116 163 164
f 116 164 159
f 117 118 165
f 117 165 119
f 117 119 136
f 118 160 166
f 118 166 167
f 118 167 165
f 119 168 123
f 119 123 120
f 119 165 168
f 121 169 122
f 121 124 170
f 121 170 171
f 121 171 169
f 122 169 125
f 123 172 173
f 123 173 174
f 123 174 124
f 123 168 172
f 124 174 175
f 124 175 176
f 124 176 170
f 125 169 177
f 125 177 130
f 127 134 128
f 128 134 178
f 128 178 179
f 128 179 129
f 129 179 180
f 129 180 181
f 129 181 137
f 130 177 182
f 130 182 183
f 130 183 184
f 130 184 185
f 130 185 131
f 131 185 186
f 131 186 187
f 131 187 188
f 131 188 132
f 132 189 190
f 132 190 133
f 132 188 189
f 133 190 134
f 134 190 178
f 137 191 138
f 137 181 192
f 137 192 191
f 138 191 193
f 138 193 139
f 139 193 140
f 140 193 141
f 141 193 194
f 141 194 143
f 142 144 145
f 143 194 195
f 143 195 196
f 143 196 197
f 143 197 198
f 143 198 199
f 143 199 144
f 144 199 200
f 144 200 201
f 144 201 145
f 145 201 202
f 145 202 146
f 146 202 149
f 147 203 204
f 147 204 205
f 147 205 151
f 147 151 148
f 147 150 206
f 147 206 207
f 147 207 203
f 149 202 208
f 149 208 209
f 149 209 210
f 149 210 211
f 149 211 212
f 149 212 213
f 149 213 150
f 150 213 206
f 151 205 153
f 151 153 152
f 153 205 204
f 153 204 154
f 154 214 155
f 154 204 214
f 155 214 215
f 155 215 156
f 156 215 216
f 156 216 157
f 157 216 217
f 157 217 158
f 158 217 218
f 159 164 163
f 159 163 160
f 160 163 219
f 160 219 220
f 160 220 167
f 160 167 166
f 161 221 222
f 161 222 162
f 162 223 219
f 162 219 163
f 162 222 224
f 162 224 223
f 165 167 225
f 165 225 223
f 165 223 168
f 167 220 223
f 167 223 225
f 168 226 227
f 168 227 228
f 168 228 172
f 168 223 226
f 169 171 229
f 169 229 230
f 169 230 177
f 170 229 171
f 170 176 231
f 170 231 229
f 172 228 173
f 173 228 227
f 173 227 226
f 173 226 286
f 173 286 326
f 173 326 360
f 173 360 355
f 173 355 358
f 173 358 357
f 173 357 356
f 173 356 347
f 173 347 346
f 173 346 316
f 173 316 348
f 173 348 314
f 173 314 349
f 173 349 378
f 173 378 377
f 173 377 390
f 173 390 389
f 173 389 388
f 173 388 382
f 173 382 380
f 173 380 379
f 173 379 365
f 173 365 364
f 173 364 363
f 173 363 331
f 173 331 293
f 173 293 287
f 173 287 232
f 173 232 176
f 173 176 175
f 173 175 174
f 176 232 233
f 176 233 234
f 176 234 235
f 176 235 231
f 177 230 235
f 177 235 236
f 177 236 182
f 178 190 237
f 178 237 238
f 178 238 179
f 179 238 239
f 179 239 180
f 180 239 240
f 180 240 181
f 181 240 241
f 181 241 192
f 182 242 183
f 182 236 234
f 182 234 233
f 182 233 243
f 182 243 244
f 182 244 242
f 183 242 245
f 183 245 186
f 183 186 184
f 184 186 185
f 186 245 187
f 187 245 246
f 187 246 247
f 187 247 248
f 187 248 188
f 188 248 249
f 188 249 250
f 188 250 189
f 189 237 190
f 189 250 237
f 191 192 196
f 191 196 193
f 192 241 196
f 193 196 195
f 193 195 194
f 196 241 251
f 196 251 197
f 197 251 198
f 198 200 199
f 198 251 252
f 198 252 253
f 198 253 254
f 198 254 200
f 200 254 255
f 200 255 256
f 200 256 201
f 201 256 202
f 202 256 255
f 202 255 257
f 202 257 209
f 202 209 208
f 203 258 259
f 203 259 260
f 203 260 261
f 203 261 262
f 203 262 204
f 203 207 263
f 203 263 258
f 204 262 214
f 206 213 264
f 206 264 207
f 207 265 263
f 207 264 266
f 207 266 267
f 207 267 268
f 207 268 269
f 207 269 270
f 207 270 271
f 207 271 265
f 209 257 210
f 210 272 211
f 210 257 273
f 210 273 274
f 210 274 272
f 211 272 212
f 212 275 268
f 212 268 213
f 212 272 274
f 212 274 275
f 213 268 276
f 213 276 264
f 214 262 277
f 214 277 215
f 215 277 278
f 215 278 279
f 215 279 216
f 216 279 217
f 217 279 278
f 217 278 280
f 217 280 281
f 217 281 218
f 219 223 220
f 221 282 222
f 222 282 224
f 223 224 283
f 223 283 226
f 224 282 284
f 224 284 285
f 224 285 226
f 224 226 283
f 226 285 286
f 229 231 230
f 230 231 235
f 232 287 243
f 232 243 233
f 234 236 235
f 237 250 288
f 237 288 238
f 238 288 289
f 238 289 290
f 238 290 239
f 239 290 291
f 239 291 292
f 239 292 240
f 240 292 241
f 241 292 251
f 242 244 245
f 243 287 244
f 244 287 293
f 244 293 294
f 244 294 295
f 244 295 245
f 245 295 246
f 246 295 296
f 246 296 297
f 246 297 247
f 247 297 298
f 247 298 248
f 248 298 299
f 248 299 249
f 249 300 250
f 249 299 301
f 249 301 300
f 250 300 288
f 251 292 302
f 251 302 252
f 252 302 253
f 253 302 303
f 253 303 304
f 253 304 305
f 253 305 306
f 253 306 257
f 253 257 307
f 253 307 254
f 254 307 257
f 254 257 255
f 257 306 308
f 257 308 273
f 258 263 259
f 259 263 265
f 259 265 271
f 259 271 309
f 259 309 278
f 259 278 260
f 260 278 261
f 261 278 277
f 261 277 262
f 264 276 266
f 266 276 268
f 266 268 267
f 268 275 310
f 268 310 311
f 268 311 269
f 269 312 271
f 269 271 270
f 269 311 313
f 269 313 314
f 269 314 315
f 269 315 316
f 269 316 312
f 271 317 309
f 271 312 317
f 273 308 318
f 273 318 319
f 273 319 320
f 273 320 321
f 273 321 274
f 274 321 310
f 274 310 275
f 278 322 323
f 278 323 280
f 278 309 322
f 280 323 324
f 280 324 325
f 280 325 281
f 281 325 327
f 281 327 326
f 288 300 328
f 288 328 289
f 289 328 290
f 290 328 329
f 290 329 330
f 290 330 291
f 291 330 292
f 292 330 302
f 293 331 294
f 294 331 296
f 294 296 295
f 296 331 332
f 296 332 333
f 296 333 334
f 296 334 297
f 297 334 298
f 298 334 335
f 298 335 299
f 299 335 336
f 299 336 301
f 300 301 337
f 300 337 328
f 301 336 338
f 301 338 337
f 302 330 339
f 302 339 303
f 303 339 304
f 304 339 340
f 304 340 341
f 304 341 305
f 305 342 318
f 305 318 308
f 305 308 306
f 305 341 343
f 305 343 342
f 309 317 323
f 309 323 322
f 310 321 344
f 310 344 345
f 310 345 311
f 311 345 314
f 311 314 313
f 312 316 346
f 312 346 347
f 312 347 317
f 314 348 315
f 314 345 349
f 315 348 316
f 317 347 323
f 318 342 343
f 318 343 319
f 319 343 350
f 319 350 351
f 319 351 320
f 320 351 352
f 320 352 353
f 320 353 321
f 321 353 352
f 321 352 344
f 323 354 355
f 323 355 324
f 323 347 356
f 323 356 357
f 323 357 358
f 323 358 354
f 324 355 359
f 324 359 325
f 325 359 327
f 326 327 360
f 327 359 355
f 327 355 360
f 328 337 361
f 328 361 362
f 328 362 329
f 329 362 330
f 330 362 339
f 331 363 333
f 331 333 332
f 333 364 365
f 333 365 366
f 333 366 367
f 333 367 334
f 333 363 364
f 334 367 368
f 334 368 335
f 335 368 336
f 336 368 369
f 336 369 338
f 337 362 361
f 337 338 370
f 337 370 362
f 338 369 371
f 338 371 370
f 339 362 372
f 339 372 340
f 340 372 341
f 341 372 373
f 341 373 343
f 343 373 374
f 343 374 375
f 343 375 350
f 344 352 376
f 344 376 377
f 344 377 378
f 344 378 345
f 345 378 349
f 350 375 351
f 351 375 352
f 352 375 376
f 354 358 355
f 362 370 372
f 365 379 366
f 366 379 367
f 367 379 380
f 367 380 381
f 367 381 382
f 367 382 383
f 367 383 368
f 368 383 384
f 368 384 369
f 369 384 385
f 369 385 386
f 369 386 371
f 370 371 372
f 371 386 374
f 371 374 373
f 371 373 372
f 374 386 375
f 375 386 387
f 375 387 388
f 375 388 376
f 376 388 389
f 376 389 390
f 376 390 377
f 380 382 381
f 382 388 387
f 382 387 391
f 382 391 384
f 382 384 383
f 384 391 385
f 385 391 387
f 385 387 386

