v -0.20504959 -0.18405695 -0.10127645
v -0.20558096 -0.17920405 -0.10113370
v -0.20161230 -0.18057135 -0.10119714
v -0.20101453 -0.18412226 -0.10122887
v -0.20161230 -0.18677115 -0.10089580
v -0.20343890 -0.18677115 -0.10089580
v -0.20788909 -0.18246517 -0.10092751
v -0.20778947 -0.17946935 -0.10086408
v -0.20747396 -0.17713882 -0.10067375
v -0.20742415 -0.17713882 -0.10067375
v -0.20431897 -0.17747349 -0.10049928
v -0.20023408 -0.17920405 -0.09965869
v -0.19335953 -0.18163662 -0.09612182
v -0.19868980 -0.18412226 -0.10048343
v -0.19291119 -0.18728541 -0.09643902
v -0.19616581 -0.18880783 -0.09721618
v -0.19483739 -0.19038328 -0.09551912
v -0.19794257 -0.19115877 -0.09612182
v -0.20504959 -0.18796702 -0.09846915
v -0.20652747 -0.18556710 -0.10008691
v -0.19935400 -0.19115877 -0.09612182
v -0.20245919 -0.19107714 -0.09588391
v -0.20958282 -0.18377941 -0.09815194
v -0.21222306 -0.18199580 -0.09621698
v -0.21230608 -0.17946935 -0.09637559
v -0.21011418 -0.17946935 -0.09870706
v -0.21227285 -0.17686535 -0.09631214
v -0.20933373 -0.17615517 -0.09805678
v -0.20514923 -0.17293487 -0.09475783
v -0.20558096 -0.17563681 -0.09870706
v -0.20049977 -0.17614700 -0.09721618
v -0.19794257 -0.17695922 -0.09623285
v -0.19616581 -0.17984076 -0.09702587
v -0.19061967 -0.18412226 -0.09469438
v -0.19585030 -0.18412226 -0.09854846
v -0.18837796 -0.18124481 -0.09187123
v -0.18811228 -0.18877109 -0.09207743
v -0.18875987 -0.19117101 -0.09147473
v -0.18783000 -0.18412226 -0.09237877
v -0.07204183 -0.19683613 0.00581287
v -0.10503639 -0.19586882 -0.02172076
v -0.19120086 -0.19162813 -0.09223602
v -0.19616581 -0.19190160 -0.09386965
v -0.20817139 -0.18712216 -0.09699414
v -0.20074885 -0.19162813 -0.09407582
v -0.20317320 -0.19127713 -0.09279113
v -0.20488355 -0.19010983 -0.09407582
v -0.20856990 -0.18755071 -0.09369519
v -0.21089463 -0.18442430 -0.09369519
v -0.21227285 -0.18210191 -0.09369519
v -0.21250534 -0.17946935 -0.09369519
v -0.21235589 -0.17671842 -0.09369519
v -0.20768982 -0.17237977 -0.09201398
v -0.20514923 -0.17217978 -0.09242635
v -0.20189460 -0.17219202 -0.09212501
v -0.20040013 -0.17371035 -0.09367932
v -0.19616581 -0.17608579 -0.09344141
v -0.19312706 -0.17686126 -0.09172849
v -0.04288307 -0.18635076 0.03867558
v -0.04288307 -0.18862008 0.03637583
v -0.04288307 -0.18920373 0.03582071
v -0.04406204 -0.19048123 0.03356854
v -0.04288307 -0.19115060 0.03407607
v -0.04288307 -0.19397093 0.03207766
v -0.04462662 -0.19558311 0.02942898
v -0.14899039 -0.19797079 -0.05222027
v -0.06787392 -0.20045643 0.01084061
v -0.07204183 -0.19490150 0.00581287
v -0.04462662 -0.19720347 0.02942898
v -0.04288307 -0.19848099 0.03096744
v -0.04472625 -0.20030133 0.02952414
v -0.19120086 -0.19281586 -0.08904809
v -0.17452921 -0.19580760 -0.07287050
v -0.19585030 -0.19309748 -0.08904809
v -0.20069902 -0.19191793 -0.08907981
v -0.20317320 -0.19127713 -0.09064998
v -0.20810496 -0.18711400 -0.08904809
v -0.21222306 -0.18200395 -0.09115751
v -0.21230608 -0.17946935 -0.09098305
v -0.21227285 -0.17685719 -0.09107821
v -0.20768982 -0.17237977 -0.09106236
v -0.20499978 -0.17210632 -0.08931771
v -0.20040013 -0.17206959 -0.08900050
v -0.19772669 -0.17232672 -0.08743033
v -0.04288307 -0.18342024 0.04579690
v -0.05170044 -0.18316311 0.03650271
v -0.19878944 -0.17275120 -0.09053897
v -0.04288307 -0.18525692 0.04027748
v -0.04401223 -0.18591812 0.03819977
v -0.04288307 -0.19836670 0.03096744
v -0.15398856 -0.19928096 -0.05183963
v -0.08147359 -0.20056254 0.00132438
v -0.04288307 -0.21376620 0.05975404
v -0.05269676 -0.20116252 0.02383027
v -0.04288307 -0.20350939 0.03591588
v -0.07029829 -0.20082376 0.00995243
v -0.04288307 -0.19854628 0.03098330
v -0.04288307 -0.20128905 0.03209353
v -0.17521004 -0.19580760 -0.07287050
v -0.19928759 -0.19163630 -0.08563810
v -0.20237616 -0.19081184 -0.08754136
v -0.20488355 -0.18960371 -0.08907981
v -0.20755698 -0.18654259 -0.08663731
v -0.21081161 -0.17946935 -0.08866743
v -0.20807175 -0.18412226 -0.08614563
v -0.20848688 -0.17946935 -0.08579671
v -0.20808835 -0.17637149 -0.08616150
v -0.20944999 -0.17506542 -0.08952390
v -0.20644444 -0.17327363 -0.08795372
v -0.20333925 -0.17226141 -0.08625666
v -0.20049977 -0.17219202 -0.08576499
v -0.04288307 -0.18373860 0.05044399
v -0.04288307 -0.18484061 0.04110222
v -0.04288307 -0.21207646 0.06075324
v -0.04288307 -0.20163190 0.03260106
v -0.20318980 -0.17666127 -0.08172059
v -0.16390187 -0.18412226 -0.04633607
v -0.16134467 -0.18144480 -0.04459143
v -0.20481712 -0.17496746 -0.08467062
v -0.05867463 -0.18644463 0.04348128
v -0.04288307 -0.18518753 0.05440908
v -0.04288307 -0.20737049 0.06000780
v -0.04288307 -0.18877109 0.05686744
v -0.04288307 -0.18804867 0.05653437
f 1 2 3
f 1 3 4
f 1 4 5
f 1 5 6
f 1 6 7
f 1 7 2
f 2 7 8
f 2 8 9
f 2 9 10
f 2 10 3
f 3 10 11
f 3 11 12
f 3 12 13
f 3 13 14
f 3 14 4
f 4 14 5
f 5 14 15
f 5 15 16
f 5 16 17
f 5 17 18
f 5 18 21
f 5 21 6
f 6 19 20
f 6 20 7
f 6 21 22
f 6 22 19
f 7 20 23
f 7 23 24
f 7 24 25
f 7 25 26
f 7 26 8
f 8 26 27
f 8 27 9
f 9 27 28
f 9 28 29
f 9 29 30
f 9 30 10
f 10 30 11
f 11 30 31
f 11 31 12
f 12 31 32
f 12 32 33
f 12 33 13
f 13 34 35
f 13 35 14
f 13 33 36
f 13 36 34
f 14 35 15
f 15 37 38
f 15 38 17
f 15 17 16
f 15 35 34
f 15 34 39
f 15 39 40
f 15 40 41
f 15 41 37
f 17 42 18
f 17 38 42
f 18 42 43
f 18 43 21
f 19 22 44
f 19 44 20
f 20 44 23
f 21 43 22
f 22 45 46
f 22 46 47
f 22 47 44
f 22 43 45
f 23 44 24
f 24 44 48
f 24 48 49
f 24 49 50
f 24 50 51
f 24 51 25
f 25 51 27
f 25 27 26
f 27 51 52
f 27 52 53
f 27 53 28
f 28 53 29
f 29 54 55
f 29 55 56
f 29 56 31
f 29 31 30
f 29 53 54
f 31 56 32
f 32 56 57
f 32 57 58
f 32 58 36
f 32 36 33
f 34 36 39
f 36 58 59
f 36 59 60
f 36 60 61
f 36 61 62
f 36 62 63
f 36 63 64
f 36 64 65
f 36 65 39
f 37 41 38
f 38 66 42
f 38 41 67
f 38 67 66
f 39 65 68
f 39 68 40
f 40 68 65
f 40 65 69
f 40 69 70
f 40 70 71
f 40 71 41
f 41 71 67
f 42 72 43
f 42 66 73
f 42 73 72
f 43 72 74
f 43 74 45
f 44 47 48
f 45 74 46
f 46 74 75
f 46 75 76
f 46 76 47
f 47 76 48
f 48 77 49
f 48 76 77
f 49 78 50
f 49 77 78
f 50 78 51
f 51 78 79
f 51 79 80
f 51 80 52
f 52 80 81
f 52 81 53
f 53 81 82
f 53 82 54
f 54 82 83
f 54 83 55
f 55 83 84
f 55 84 85
f 55 85 86
f 55 86 87
f 55 87 56
f 56 87 88
f 56 88 57
f 57 88 58
f 58 88 89
f 58 89 59
f 59 89 88
f 59 88 113
f 59 113 85
f 59 85 112
f 59 112 121
f 59 121 124
f 59 124 123
f 59 123 122
f 59 122 114
f 59 114 93
f 59 93 95
f 59 95 115
f 59 115 98
f 59 98 97
f 59 97 70
f 59 70 90
f 59 90 64
f 59 64 63
f 59 63 61
f 59 61 60
f 61 63 62
f 64 90 65
f 65 90 70
f 65 70 69
f 66 91 73
f 66 67 92
f 66 92 93
f 66 93 91
f 67 71 94
f 67 94 95
f 67 95 93
f 67 93 96
f 67 96 92
f 70 97 71
f 71 97 98
f 71 98 94
f 72 73 74
f 73 99 74
f 73 91 99
f 74 99 91
f 74 91 75
f 75 100 76
f 75 91 93
f 75 93 100
f 76 100 101
f 76 101 102
f 76 102 77
f 77 103 78
f 77 102 103
f 78 104 79
f 78 103 105
f 78 105 104
f 79 104 80
f 80 104 106
f 80 106 107
f 80 107 108
f 80 108 81
f 81 108 109
f 81 109 110
f 81 110 82
f 82 110 111
f 82 111 83
f 83 111 85
f 83 85 84
f 85 113 86
f 85 111 112
f 86 113 87
f 87 113 88
f 92 96 93
f 93 114 103
f 93 103 101
f 93 101 100
f 94 98 115
f 94 115 95
f 101 103 102
f 103 114 105
f 104 105 106
f 105 114 106
f 106 116 107
f 106 114 117
f 106 117 118
f 106 118 116
f 107 116 119
f 107 119 109
f 107 109 108
f 109 119 110
f 110 119 120
f 110 120 121
f 110 121 112
f 110 112 111
f 114 122 120
f 114 120 117
f 116 118 120
f 116 120 119
f 117 120 118
f 120 122 123
f 120 123 124
f 120 124 121

