v 0.04597966 -0.01607030 -0.01500879
v 0.02673483 -0.01607030 -0.01490977
v 0.04132191 -0.00363208 -0.01263529
v 0.05062538 -0.01607030 -0.01487882
v 0.02272700 -0.01607030 -0.01485716
v 0.03201844 -0.00152989 -0.01215564
v 0.04132191 -0.00130846 -0.01212470
v 0.04597966 -0.00163650 -0.01207209
v 0.04597966 -0.00395739 -0.01255793
v 0.03667619 -0.00141507 -0.01214945
v 0.05527110 -0.01205180 -0.01385454
v 0.12967480 -0.01607030 -0.01115611
v 0.02018750 -0.01607030 -0.01470553
v 0.02272700 -0.01205180 -0.01399689
v 0.03201844 0.00189541 -0.01131084
v 0.02737272 -0.00205202 -0.01197926
v 0.04132191 0.00189541 -0.01127061
v 0.04597966 0.00189541 -0.01114992
v 0.03667619 0.00189541 -0.01132941
v 0.13896623 -0.00429363 -0.00790068
v 0.13896623 -0.00740182 -0.00864646
v 0.13896623 -0.01205180 -0.00966455
v 0.13896623 -0.01607030 -0.01045985
v 0.02018750 -0.01205180 -0.01378336
v 0.02018750 -0.01607030 0.01016515
v 0.04132191 0.01185691 -0.00844222
v 0.02737272 0.00189541 -0.01094259
v 0.02018750 0.01185691 -0.00769025
v 0.02312417 0.01185691 -0.00789449
v 0.02669873 0.01185691 -0.00813586
v 0.02737272 0.01185691 -0.00816680
v 0.04597966 0.00654538 -0.00977905
v 0.14314257 0.01185691 -0.00298657
v 0.14242043 -0.00468455 -0.00779237
v 0.14314257 -0.00588736 -0.00800898
v 0.14314257 -0.00710111 -0.00827821
v 0.14314257 -0.01205180 -0.00932725
v 0.14256486 -0.01607030 -0.01011326
v 0.02803467 0.01185691 0.01184238
v 0.02337692 0.01185691 0.01152983
v 0.02018750 0.01185691 0.01124514
v 0.13432051 -0.01607030 0.01058291
v 0.12967480 0.00773180 0.01584669
v 0.12967480 0.01119536 0.01649654
v 0.12967480 0.01185691 0.01659247
v 0.10176438 0.01185691 0.01582812
v 0.04571488 0.01185691 -0.00820703
v 0.14314257 0.01185691 0.01649963
v 0.14314257 0.01046274 -0.00338577
v 0.14314257 -0.00381797 -0.00747054
v 0.14314257 -0.00482123 -0.00775523
v 0.14314257 -0.01607030 -0.01005756
v 0.13517504 -0.01607030 0.01057053
v 0.13984483 -0.01607030 0.01049936
v 0.14314257 0.01090833 0.01631397
v 0.14314257 0.01119536 0.01637586
v 0.14314257 0.01178583 0.01648726
v 0.13032471 0.01185691 0.01660485
v 0.14314257 -0.01607030 0.01034773
v 0.14314257 -0.00275184 0.01330918
v 0.14314257 0.00189541 0.01433656
f 1 2 3
f 1 3 4
f 1 4 12
f 1 12 23
f 1 23 38
f 1 38 52
f 1 52 59
f 1 59 54
f 1 54 53
f 1 53 42
f 1 42 25
f 1 25 13
f 1 13 5
f 1 5 2
f 2 5 6
f 2 6 3
f 3 7 8
f 3 8 9
f 3 9 4
f 3 6 10
f 3 10 7
f 4 9 11
f 4 11 12
f 5 13 14
f 5 14 6
f 6 15 10
f 6 14 16
f 6 16 15
f 7 17 18
f 7 18 8
f 7 10 19
f 7 19 17
f 8 11 9
f 8 18 20
f 8 20 21
f 8 21 12
f 8 12 11
f 10 15 19
f 12 21 22
f 12 22 23
f 13 24 14
f 13 25 41
f 13 41 28
f 13 28 24
f 14 24 16
f 15 26 19
f 15 16 27
f 15 27 28
f 15 28 29
f 15 29 30
f 15 30 31
f 15 31 26
f 16 24 28
f 16 28 27
f 17 26 18
f 17 19 26
f 18 26 32
f 18 32 33
f 18 33 20
f 20 33 34
f 20 34 21
f 21 34 35
f 21 35 36
f 21 36 22
f 22 36 37
f 22 37 23
f 23 37 38
f 25 39 40
f 25 40 41
f 25 42 43
f 25 43 44
f 25 44 45
f 25 45 46
f 25 46 39
f 26 47 32
f 26 31 30
f 26 30 29
f 26 29 28
f 26 28 41
f 26 41 40
f 26 40 39
f 26 39 46
f 26 46 45
f 26 45 58
f 26 58 48
f 26 48 33
f 26 33 47
f 32 47 33
f 33 48 57
f 33 57 56
f 33 56 55
f 33 55 61
f 33 61 60
f 33 60 59
f 33 59 52
f 33 52 37
f 33 37 36
f 33 36 35
f 33 35 51
f 33 51 50
f 33 50 49
f 33 49 34
f 34 49 50
f 34 50 51
f 34 51 35
f 37 52 38
f 42 53 43
f 43 53 54
f 43 54 55
f 43 55 56
f 43 56 57
f 43 57 44
f 44 57 48
f 44 48 58
f 44 58 45
f 54 59 60
f 54 60 61
f 54 61 55

