v -0.03767261 -0.00991886 0.02322110
v -0.03767261 -0.03204248 0.02322110
v 0.01806362 -0.01805335 0.02322110
v 0.02018749 0.04246286 0.01422767
v -0.02972081 0.04246286 0.00912874
v -0.03308504 0.04246286 0.00874969
v -0.03767261 0.04246286 0.00808328
v -0.03767261 -0.09575047 0.01426435
v -0.02407979 -0.10977607 0.02322110
v 0.02018749 -0.01836341 0.02322110
v 0.02018749 0.04246286 -0.00080621
v -0.03767261 0.04246286 -0.00758032
v -0.03767261 -0.12754063 0.00697056
v -0.03767261 -0.12761358 0.00695222
v -0.02399484 -0.10999494 0.02322110
v 0.02018749 -0.06177166 0.02322110
v -0.03767261 0.04175154 -0.00781265
v -0.03767261 0.04235343 -0.00761701
v 0.02018749 0.02978692 -0.00426663
v -0.02193326 -0.11428104 0.02322110
v -0.03767261 -0.12994814 0.00582117
v -0.01828019 -0.11537537 0.02322110
v 0.02018749 -0.08044815 0.02040263
v -0.03767261 0.03967233 -0.00833232
v 0.02018749 0.02513603 -0.00547717
v -0.01914107 -0.11617788 0.02322110
v -0.03767261 -0.13204560 0.00349792
v -0.03488042 -0.13038587 0.00613909
v 0.02018749 -0.13295753 0.01191053
v -0.03767261 0.03947170 -0.00838124
v 0.02018749 -0.03530721 -0.01932497
v -0.03177673 -0.13087832 0.00648146
v -0.01275244 -0.13540153 0.00640198
v 0.01806362 -0.13804615 0.00933050
v 0.02018749 -0.13815558 0.00950780
v 0.01806362 -0.13572982 0.01115853
v 0.02018749 -0.13582102 0.01120133
v 0.02018749 -0.13445311 0.01154370
v -0.03767261 -0.13454431 -0.00069005
v -0.03308504 -0.13481789 0.00066722
v -0.02998134 -0.13512794 0.00130917
v -0.02688331 -0.13541977 0.00187164
v -0.01585613 -0.13503675 0.00596790
v -0.03767261 0.03930755 -0.00841792
v 0.02018749 -0.03995810 -0.02032152
v -0.01437792 -0.13636818 0.00423157
v 0.01445019 -0.14016184 0.00663431
v 0.01806362 -0.14039895 0.00700725
v 0.02018749 -0.14054486 0.00718455
v -0.03767261 -0.13481789 -0.00130143
v -0.03674377 -0.13554744 -0.00243249
v -0.03308504 -0.13587574 -0.00165603
v -0.00272207 -0.13990650 0.00157206
v -0.03767261 -0.10505223 -0.03709785
v 0.02018749 -0.04480961 -0.02110409
v -0.03767261 -0.10970312 -0.03788042
v 0.01310790 -0.14076372 0.00434162
v 0.02018749 -0.14152975 0.00395034
v -0.03767261 -0.13589397 -0.00421161
v -0.01225404 -0.13994298 -0.00297662
v -0.00519143 -0.13970588 0.00099125
v -0.00983565 -0.14012537 -0.00242026
v -0.00519143 -0.14043542 -0.00133200
v -0.00092102 -0.14067253 -0.00026820
v 0.00411398 -0.14136560 -0.00070228
v 0.02018749 -0.12830665 -0.03410208
v 0.01806362 -0.12830665 -0.03434663
v -0.03767261 -0.11900489 -0.03922546
v 0.00876386 -0.14185805 -0.00070228
v 0.01341374 -0.14220458 -0.00070228
v 0.02018749 -0.14207692 0.00141922
v -0.03767261 -0.13611284 -0.00500641
v -0.03308504 -0.13700654 -0.00534878
v -0.01709082 -0.13997946 -0.00742748
v -0.01407774 -0.14012537 -0.00566670
v -0.00983565 -0.14065429 -0.00534878
v -0.00519143 -0.14125617 -0.00534878
v -0.00053589 -0.14180333 -0.00534878
v 0.02018749 -0.13042235 -0.03379027
v 0.01341374 -0.12830665 -0.03472568
v -0.03767261 -0.11907784 -0.03922546
v 0.00411398 -0.14227754 -0.00534878
v 0.00876386 -0.14271527 -0.00534878
v 0.02018749 -0.14357249 -0.00552608
v -0.03767261 -0.13689710 -0.00992803
v -0.03308504 -0.13759018 -0.00999528
v -0.01945257 -0.13963292 -0.00999528
v -0.01713046 -0.13997946 -0.00999528
v -0.01448553 -0.14032599 -0.00999528
v -0.00519143 -0.14138384 -0.00999528
v 0.02018749 -0.13295753 -0.03325225
v -0.03767261 -0.12365576 -0.03884640
v -0.00053589 -0.14185805 -0.00999528
v 0.00876386 -0.14276998 -0.00999528
v 0.02018749 -0.14386431 -0.00982410
v -0.03767261 -0.13689710 -0.00999528
v -0.01695489 -0.13996122 -0.01240413
v 0.02018749 -0.13432544 -0.03255528
v 0.01806362 -0.13295753 -0.03335619
v -0.03767261 -0.12371048 -0.03882194
v 0.02018749 -0.14309828 -0.01464179
v 0.01341374 -0.14320772 -0.00999528
v -0.03767261 -0.13676943 -0.01464179
v -0.01875594 -0.13926814 -0.01423216
v -0.01448553 -0.13946877 -0.01523483
v -0.01448553 -0.14008889 -0.01290546
v -0.03767261 -0.13593045 -0.01873805
v 0.01341374 -0.13295753 -0.03342955
v 0.02018749 -0.13589397 -0.03158318
v -0.03767261 -0.12708465 -0.03684107
v 0.02018749 -0.14162095 -0.01929440
v -0.03767261 -0.13591222 -0.01880530
v -0.01913540 -0.13768137 -0.01929440
v 0.02018749 -0.13678767 -0.03021369
v 0.01806362 -0.13585750 -0.03156484
v -0.03767261 -0.12712113 -0.03679215
v 0.01341374 -0.13572982 -0.03146702
v 0.00876386 -0.13554744 -0.03126526
v 0.02018749 -0.14032599 -0.02260198
v -0.03767261 -0.13510971 -0.02112855
v 0.02018749 -0.13768137 -0.02859352
v -0.03767261 -0.12914563 -0.03324614
v 0.00550725 -0.13538329 -0.03106351
v 0.02018749 -0.13844740 -0.02710787
v 0.02018749 -0.13939581 -0.02492523
v -0.03767261 -0.13377828 -0.02394091
v -0.00053589 -0.13507323 -0.03034819
f 1 2 9
f 1 9 15
f 1 15 20
f 1 20 26
f 1 26 22
f 1 22 16
f 1 16 10
f 1 10 3
f 1 3 4
f 1 4 5
f 1 5 6
f 1 6 7
f 1 7 12
f 1 12 18
f 1 18 17
f 1 17 24
f 1 24 30
f 1 30 44
f 1 44 54
f 1 54 56
f 1 56 68
f 1 68 81
f 1 81 92
f 1 92 100
f 1 100 110
f 1 110 116
f 1 116 122
f 1 122 126
f 1 126 120
f 1 120 112
f 1 112 107
f 1 107 103
f 1 103 96
f 1 96 85
f 1 85 72
f 1 72 59
f 1 59 50
f 1 50 39
f 1 39 27
f 1 27 21
f 1 21 14
f 1 14 13
f 1 13 8
f 1 8 2
f 2 8 9
f 3 10 4
f 4 11 12
f 4 12 7
f 4 7 6
f 4 6 5
f 4 10 16
f 4 16 23
f 4 23 29
f 4 29 38
f 4 38 37
f 4 37 35
f 4 35 49
f 4 49 58
f 4 58 71
f 4 71 84
f 4 84 95
f 4 95 101
f 4 101 111
f 4 111 119
f 4 119 125
f 4 125 124
f 4 124 121
f 4 121 114
f 4 114 109
f 4 109 98
f 4 98 91
f 4 91 79
f 4 79 66
f 4 66 55
f 4 55 45
f 4 45 31
f 4 31 25
f 4 25 19
f 4 19 11
f 8 13 9
f 9 13 14
f 9 14 15
f 11 17 18
f 11 18 12
f 11 19 17
f 14 20 15
f 14 21 20
f 16 22 23
f 17 19 25
f 17 25 24
f 20 21 26
f 21 27 28
f 21 28 26
f 22 26 29
f 22 29 23
f 24 25 30
f 25 31 30
f 26 28 32
f 26 32 33
f 26 33 34
f 26 34 35
f 26 35 36
f 26 36 37
f 26 37 38
f 26 38 29
f 27 32 28
f 27 39 40
f 27 40 41
f 27 41 42
f 27 42 43
f 27 43 33
f 27 33 32
f 30 31 44
f 31 45 44
f 33 43 42
f 33 42 46
f 33 46 47
f 33 47 34
f 34 47 48
f 34 48 49
f 34 49 35
f 35 37 36
f 39 50 51
f 39 51 40
f 40 51 41
f 41 51 52
f 41 52 53
f 41 53 42
f 42 53 46
f 44 45 54
f 45 55 56
f 45 56 54
f 46 53 47
f 47 53 57
f 47 57 48
f 48 57 49
f 49 57 58
f 50 59 51
f 51 59 60
f 51 60 61
f 51 61 53
f 51 53 52
f 53 61 60
f 53 60 62
f 53 62 63
f 53 63 64
f 53 64 65
f 53 65 57
f 55 66 56
f 56 66 67
f 56 67 68
f 57 65 69
f 57 69 58
f 58 69 70
f 58 70 71
f 59 72 73
f 59 73 60
f 60 73 74
f 60 74 75
f 60 75 76
f 60 76 77
f 60 77 62
f 62 77 78
f 62 78 63
f 63 78 65
f 63 65 64
f 65 78 69
f 66 79 67
f 67 80 81
f 67 81 68
f 67 79 80
f 69 78 82
f 69 82 83
f 69 83 70
f 70 83 84
f 70 84 71
f 72 85 73
f 73 85 74
f 74 85 86
f 74 86 87
f 74 87 88
f 74 88 89
f 74 89 90
f 74 90 78
f 74 78 77
f 74 77 76
f 74 76 75
f 78 90 82
f 79 91 80
f 80 92 81
f 80 91 92
f 82 90 93
f 82 93 94
f 82 94 95
f 82 95 83
f 83 95 84
f 85 96 86
f 86 97 87
f 86 96 97
f 87 97 88
f 88 97 89
f 89 97 90
f 90 97 93
f 91 98 99
f 91 99 92
f 92 99 100
f 93 97 94
f 94 101 102
f 94 102 95
f 94 97 101
f 95 102 101
f 96 103 97
f 97 104 105
f 97 105 106
f 97 106 101
f 97 103 107
f 97 107 104
f 98 108 99
f 98 109 108
f 99 108 100
f 100 108 110
f 101 106 105
f 101 105 111
f 104 107 112
f 104 112 105
f 105 113 111
f 105 112 113
f 108 109 110
f 109 114 115
f 109 115 110
f 110 115 117
f 110 117 118
f 110 118 116
f 111 113 120
f 111 120 119
f 112 120 113
f 114 117 115
f 114 121 117
f 116 118 123
f 116 123 122
f 117 121 118
f 118 121 124
f 118 124 123
f 119 120 125
f 120 126 127
f 120 127 125
f 122 123 127
f 122 127 126
f 123 124 125
f 123 125 127

