v 0.03203740 0.17649849 0.03489726
v 0.03203740 0.17562823 0.03722190
v 0.03538571 0.17645014 0.03478805
v 0.03203740 0.17649849 0.03298867
v 0.02018750 0.17641791 0.03189656
v 0.02018750 0.17636956 0.03385196
v 0.02018750 0.17635345 0.03435121
v 0.03203740 0.17329139 0.04045663
v 0.03666749 0.17335585 0.04059185
v 0.03682444 0.17574102 0.03640542
v 0.03538571 0.17645014 0.03357113
v 0.06719471 0.17166367 0.03887567
v 0.20259220 0.15313021 0.03903689
v 0.27290683 0.14391183 0.03467884
v 0.02565467 0.17632121 0.02945230
v 0.02018750 0.17635345 0.02935870
v 0.02272489 0.17643402 0.03185495
v 0.02018750 0.17483853 0.03640022
v 0.03203740 0.16931073 0.04229762
v 0.03666749 0.16931073 0.04263566
v 0.02018750 0.17235665 0.03936452
v 0.06457883 0.17177649 0.03908369
v 0.09249018 0.16284819 0.04366017
v 0.09249018 0.16516890 0.04222482
v 0.03203740 0.17598277 0.03066403
v 0.02874140 0.17620839 0.03009717
v 0.27290683 0.14391183 0.03330070
v 0.27418861 0.14342835 0.03179254
v 0.27018633 0.14355728 0.03020118
v 0.26709959 0.14375066 0.02948350
v 0.08783393 0.16781193 0.04020701
v 0.09249018 0.16753795 0.03990018
v 0.12968787 0.16271927 0.03960375
v 0.22268210 0.14950410 0.04053984
v 0.23500286 0.14852103 0.03905249
v 0.27847864 0.14221965 0.03650423
v 0.28313489 0.14115599 0.03650423
v 0.27847864 0.14283206 0.03185495
v 0.03174965 0.17327527 0.02682603
v 0.03002318 0.17167978 0.02484983
v 0.02018750 0.17387158 0.02685723
v 0.03203740 0.16465319 0.04213641
v 0.03666749 0.16465319 0.04272927
v 0.02738115 0.16931073 0.04159555
v 0.02018750 0.16678051 0.04053464
v 0.02018750 0.16465319 0.04051384
v 0.06646226 0.16262256 0.04350415
v 0.06478810 0.16436311 0.04332213
v 0.02018750 0.16931073 0.04042023
v 0.10643278 0.15535423 0.04412821
v 0.10643278 0.15925431 0.04385779
v 0.20405710 0.14605527 0.04435704
v 0.20758852 0.14858550 0.04360816
v 0.27847864 0.14070474 0.02784014
v 0.27382239 0.14104318 0.02742409
v 0.28313489 0.13970554 0.03934372
v 0.28554148 0.13923817 0.03894848
v 0.28588155 0.13965719 0.03650423
v 0.28313489 0.14126880 0.03185495
v 0.28313489 0.13981835 0.02879184
v 0.04132374 0.01185692 -0.00843880
v 0.02934305 0.17167978 0.02484983
v 0.27382239 0.13877081 0.02509945
v 0.27382239 0.13645010 0.02358090
v 0.27382239 0.13209877 0.02161510
v 0.26223408 0.11583767 0.01557728
v 0.26453604 0.08562007 0.00749564
v 0.02018750 0.17116407 0.02494864
v 0.03666749 0.15999566 0.04188679
v 0.06967978 0.15580548 0.04318172
v 0.07389134 0.15519307 0.04330133
v 0.07151089 0.15765882 0.04347815
v 0.06842417 0.15867413 0.04343654
v 0.06646226 0.16176842 0.04350415
v 0.02018750 0.01185692 0.01125043
v 0.15500950 0.13422609 0.04360816
v 0.23196845 0.13209877 0.04468467
v 0.23662470 0.13665962 0.04399820
v 0.25477884 0.13630506 0.04323892
v 0.20897493 0.14639371 0.04400860
v 0.25056730 0.14139772 0.04211041
v 0.25522354 0.14139772 0.04170996
v 0.27847864 0.13799724 0.02551550
v 0.27847864 0.13675631 0.04101829
v 0.28313489 0.13675631 0.04036303
v 0.28577691 0.13675631 0.03920851
v 0.28677095 0.13675631 0.03650423
v 0.28313489 0.13209877 0.04111711
v 0.28687559 0.13675631 0.03185495
v 0.28585541 0.13957662 0.03185495
v 0.28548919 0.13912536 0.02947831
v 0.28122530 0.13485461 0.02465741
v 0.04025123 0.01185692 -0.00841799
v 0.02272489 0.02051123 -0.00649900
v 0.24591105 0.01185692 -0.00028956
v 0.02018750 0.02304145 -0.00594254
v 0.02018750 0.16898842 0.02444419
v 0.27847864 0.13567654 0.02410095
v 0.27847864 0.13209877 0.02268641
v 0.27847864 0.12745735 0.02160469
v 0.27724917 0.12165557 0.01989372
v 0.27868791 0.12304155 0.02071021
v 0.27382239 0.07630500 0.00899340
v 0.27382239 0.07166358 0.00823932
v 0.26916614 0.07166358 0.00709520
v 0.26916614 0.06700604 0.00662715
v 0.26678570 0.01348464 0.00163464
v 0.26516386 0.01185692 0.00126540
v 0.02337886 0.01185692 0.01153126
v 0.02803512 0.01185692 0.01184849
v 0.02018750 0.01185692 -0.00768992
v 0.23662470 0.10884330 0.04189198
v 0.25056730 0.11350085 0.04294769
v 0.10177653 0.01219535 0.01591011
v 0.25522354 0.11350085 0.04298930
v 0.25493579 0.11854517 0.04337414
v 0.25629605 0.12279981 0.04346254
v 0.23662470 0.13209877 0.04446625
v 0.25294774 0.13445170 0.04348335
v 0.27847864 0.13209877 0.04191799
v 0.28590769 0.13209877 0.03943733
v 0.28705870 0.13209877 0.03650423
v 0.28742492 0.13209877 0.03185495
v 0.28313489 0.12745735 0.04117431
v 0.27847864 0.12745735 0.04219361
v 0.28627394 0.13209877 0.02828218
v 0.28588155 0.13675631 0.02891145
v 0.28415507 0.13209877 0.02595234
v 0.28182695 0.13209877 0.02420496
v 0.02738115 0.01185692 -0.00816317
v 0.02018750 0.02051123 -0.00640539
v 0.28015279 0.11814226 0.02053859
v 0.27659520 0.07630500 0.01058996
v 0.27693527 0.07166358 0.01028313
v 0.27382239 0.06700604 0.00793249
v 0.26694265 0.01185692 0.00155143
v 0.10177653 0.01185692 0.01583210
v 0.02018750 0.01836780 -0.00674342
v 0.02670102 0.01185692 -0.00813716
v 0.23662470 0.10420188 0.04089348
v 0.24128094 0.10420188 0.04100789
v 0.24128094 0.10884330 0.04199080
v 0.25522354 0.10884330 0.04219882
v 0.27382239 0.09954435 0.04035262
v 0.27382239 0.10420188 0.04101310
v 0.25987979 0.11350085 0.04271367
v 0.25987979 0.11814226 0.04312971
v 0.25987979 0.12279981 0.04327533
v 0.25637452 0.12745735 0.04345214
v 0.25556360 0.13209877 0.04340014
v 0.28575076 0.12745735 0.03928652
v 0.28556765 0.12396016 0.03902129
v 0.28669248 0.12745735 0.03650423
v 0.28637855 0.11814226 0.03185495
v 0.28711102 0.12745735 0.03185495
v 0.28616930 0.12745735 0.02819377
v 0.28360575 0.08562007 0.02255119
v 0.28282099 0.11814226 0.04036823
v 0.28355343 0.12255807 0.04038383
v 0.27847864 0.12279981 0.04208441
v 0.27847864 0.11814226 0.04178797
v 0.27847864 0.10884330 0.04099749
v 0.27847864 0.10420188 0.04056585
v 0.28208854 0.08562007 0.01790711
v 0.28085909 0.08824699 0.01553567
v 0.28235013 0.12745735 0.02359650
v 0.27923725 0.07166358 0.01302901
v 0.27690911 0.06700604 0.01018952
v 0.27212206 0.02051123 0.00556625
v 0.27212206 0.02515266 0.00567026
v 0.27193895 0.01585369 0.00568066
v 0.27044790 0.01185692 0.00481737
v 0.12968787 0.01185692 0.01659658
v 0.24591105 0.09026150 0.03783557
v 0.25056730 0.09026150 0.03794478
v 0.27575812 0.09243717 0.03889128
v 0.27630746 0.09243717 0.03889128
v 0.27717070 0.09490293 0.03921891
v 0.28538455 0.12084976 0.03869365
v 0.28609084 0.12255807 0.03688907
v 0.28593387 0.11814226 0.03583856
v 0.28569844 0.11467732 0.03497527
v 0.28347496 0.08562007 0.02720567
v 0.28310873 0.08096254 0.02255119
v 0.28083292 0.06919782 0.01553047
v 0.28093755 0.07166358 0.01535365
v 0.28130377 0.10420188 0.03933852
v 0.27874021 0.09946377 0.03968695
v 0.28101603 0.10094644 0.03904209
v 0.28098987 0.07630500 0.01530685
v 0.27170352 0.01238875 0.00594068
v 0.27152041 0.01185692 0.00860856
v 0.13034184 0.01185692 0.01660698
v 0.27120652 0.05528967 0.02955111
v 0.27157273 0.05528967 0.02955111
v 0.28046669 0.09785216 0.03854284
v 0.28514912 0.11814226 0.03816320
v 0.28269019 0.08096254 0.02720567
v 0.28242860 0.07630500 0.02255119
v 0.28143457 0.07166358 0.01790711
v 0.28093755 0.08753788 0.03432521
v 0.27311610 0.02051123 0.00860856
v 0.27233135 0.01585369 0.00860856
v 0.27188665 0.01585369 0.01158847
v 0.27149427 0.01348464 0.01094360
v 0.27133730 0.01185692 0.00974747
v 0.14828672 0.01185692 0.01658098
v 0.27377007 0.05316235 0.02731488
v 0.27439788 0.05770708 0.02852661
v 0.23727866 0.01185692 0.01643536
v 0.24128094 0.01185692 0.01639376
v 0.24193491 0.01185692 0.01637296
v 0.26275724 0.01185692 0.01568129
v 0.26414366 0.01185692 0.01561888
v 0.26558240 0.01185692 0.01540566
v 0.26678570 0.01356521 0.01557208
v 0.27659520 0.05412931 0.02556750
v 0.28174848 0.08582958 0.03199016
v 0.28143457 0.08096254 0.03050281
v 0.28101603 0.07809388 0.02982674
v 0.28096371 0.06850483 0.01790711
v 0.26958468 0.01185692 0.01253496
v 0.26968931 0.01185692 0.01238935
v 0.26942772 0.01185692 0.01268058
f 1 2 3
f 1 3 11
f 1 11 4
f 1 4 5
f 1 5 6
f 1 6 7
f 1 7 2
f 2 8 9
f 2 9 10
f 2 10 3
f 2 7 8
f 3 10 12
f 3 12 13
f 3 13 14
f 3 14 27
f 3 27 11
f 4 11 15
f 4 15 16
f 4 16 17
f 4 17 5
f 5 16 41
f 5 41 68
f 5 68 97
f 5 97 96
f 5 96 131
f 5 131 138
f 5 138 111
f 5 111 75
f 5 75 46
f 5 46 45
f 5 45 49
f 5 49 21
f 5 21 18
f 5 18 7
f 5 7 6
f 5 17 16
f 7 18 8
f 8 19 20
f 8 20 9
f 8 18 21
f 8 21 19
f 9 22 10
f 9 20 23
f 9 23 24
f 9 24 22
f 10 22 12
f 11 25 26
f 11 26 15
f 11 27 28
f 11 28 29
f 11 29 30
f 11 30 25
f 12 22 31
f 12 31 32
f 12 32 33
f 12 33 34
f 12 34 13
f 13 34 35
f 13 35 14
f 14 35 36
f 14 36 37
f 14 37 38
f 14 38 27
f 15 39 40
f 15 40 16
f 15 26 30
f 15 30 39
f 16 40 41
f 19 42 43
f 19 43 20
f 19 21 44
f 19 44 45
f 19 45 46
f 19 46 42
f 20 43 47
f 20 47 48
f 20 48 23
f 21 49 44
f 22 24 31
f 23 48 47
f 23 47 50
f 23 50 51
f 23 51 52
f 23 52 53
f 23 53 24
f 24 32 31
f 24 53 32
f 25 30 26
f 27 38 28
f 28 38 29
f 29 38 54
f 29 54 30
f 30 54 55
f 30 55 39
f 32 53 34
f 32 34 33
f 34 53 56
f 34 56 35
f 35 56 36
f 36 56 37
f 37 56 57
f 37 57 58
f 37 58 59
f 37 59 38
f 38 59 60
f 38 60 54
f 39 55 40
f 40 61 62
f 40 62 41
f 40 55 63
f 40 63 64
f 40 64 65
f 40 65 66
f 40 66 67
f 40 67 61
f 41 62 68
f 42 69 43
f 42 46 69
f 43 69 70
f 43 70 71
f 43 71 72
f 43 72 73
f 43 73 74
f 43 74 47
f 44 49 45
f 46 75 69
f 47 74 50
f 50 74 72
f 50 72 76
f 50 76 77
f 50 77 52
f 50 52 51
f 52 77 78
f 52 78 79
f 52 79 80
f 52 80 53
f 53 80 79
f 53 79 81
f 53 81 82
f 53 82 56
f 54 60 83
f 54 83 63
f 54 63 55
f 56 82 84
f 56 84 85
f 56 85 57
f 57 86 87
f 57 87 58
f 57 85 88
f 57 88 86
f 58 87 89
f 58 89 90
f 58 90 59
f 59 90 91
f 59 91 60
f 60 91 92
f 60 92 83
f 61 93 94
f 61 94 62
f 61 67 95
f 61 95 108
f 61 108 136
f 61 136 172
f 61 172 192
f 61 192 206
f 61 206 223
f 61 223 222
f 61 222 224
f 61 224 215
f 61 215 214
f 61 214 213
f 61 213 212
f 61 212 211
f 61 211 210
f 61 210 207
f 61 207 193
f 61 193 173
f 61 173 137
f 61 137 110
f 61 110 109
f 61 109 75
f 61 75 111
f 61 111 139
f 61 139 130
f 61 130 93
f 62 94 96
f 62 96 97
f 62 97 68
f 63 83 64
f 64 83 98
f 64 98 65
f 65 98 99
f 65 99 67
f 65 67 66
f 67 99 100
f 67 100 101
f 67 101 102
f 67 102 103
f 67 103 104
f 67 104 105
f 67 105 106
f 67 106 107
f 67 107 108
f 67 108 95
f 69 75 109
f 69 109 110
f 69 110 70
f 70 110 71
f 71 110 76
f 71 76 72
f 72 74 73
f 76 112 113
f 76 113 77
f 76 110 114
f 76 114 112
f 77 113 115
f 77 115 116
f 77 116 117
f 77 117 118
f 77 118 79
f 77 79 78
f 79 118 119
f 79 119 120
f 79 120 84
f 79 84 82
f 79 82 81
f 83 92 98
f 84 120 85
f 85 120 88
f 86 121 122
f 86 122 87
f 86 88 121
f 87 122 123
f 87 123 89
f 88 124 121
f 88 120 125
f 88 125 124
f 89 123 126
f 89 126 127
f 89 127 91
f 89 91 90
f 91 127 92
f 92 99 98
f 92 127 128
f 92 128 129
f 92 129 99
f 93 130 94
f 94 130 131
f 94 131 96
f 99 129 100
f 100 102 101
f 100 129 102
f 102 129 132
f 102 132 103
f 103 132 133
f 103 133 104
f 104 133 134
f 104 134 135
f 104 135 136
f 104 136 107
f 104 107 106
f 104 106 105
f 107 136 108
f 110 137 114
f 111 138 139
f 112 140 141
f 112 141 142
f 112 142 113
f 112 114 140
f 113 142 143
f 113 143 115
f 114 137 140
f 115 143 144
f 115 144 145
f 115 145 146
f 115 146 147
f 115 147 116
f 116 147 117
f 117 147 148
f 117 148 149
f 117 149 118
f 118 149 150
f 118 150 119
f 119 150 125
f 119 125 120
f 121 151 122
f 121 124 151
f 122 151 152
f 122 152 153
f 122 153 154
f 122 154 155
f 122 155 123
f 123 156 126
f 123 155 157
f 123 157 156
f 124 158 159
f 124 159 151
f 124 125 160
f 124 160 161
f 124 161 162
f 124 162 163
f 124 163 158
f 125 150 149
f 125 149 148
f 125 148 160
f 126 128 127
f 126 156 164
f 126 164 165
f 126 165 128
f 128 166 129
f 128 165 166
f 129 166 132
f 130 139 131
f 131 139 138
f 132 166 133
f 133 166 165
f 133 165 134
f 134 165 167
f 134 167 168
f 134 168 169
f 134 169 170
f 134 170 136
f 134 136 135
f 136 170 169
f 136 169 171
f 136 171 172
f 137 173 140
f 140 173 141
f 141 173 174
f 141 174 175
f 141 175 176
f 141 176 143
f 141 143 142
f 143 176 144
f 144 176 177
f 144 177 178
f 144 178 163
f 144 163 145
f 145 163 162
f 145 162 161
f 145 161 147
f 145 147 146
f 147 161 160
f 147 160 148
f 151 159 152
f 152 179 153
f 152 159 158
f 152 158 179
f 153 180 181
f 153 181 154
f 153 179 180
f 154 181 182
f 154 182 183
f 154 183 157
f 154 157 155
f 156 157 164
f 157 183 184
f 157 184 185
f 157 185 186
f 157 186 164
f 158 163 187
f 158 187 179
f 163 178 188
f 163 188 189
f 163 189 187
f 164 186 190
f 164 190 165
f 165 190 167
f 167 190 186
f 167 186 169
f 167 169 168
f 169 186 171
f 171 186 185
f 171 185 191
f 171 191 172
f 172 191 192
f 173 193 176
f 173 176 175
f 173 175 174
f 176 194 195
f 176 195 177
f 176 193 194
f 177 195 196
f 177 196 178
f 178 196 188
f 179 197 182
f 179 182 181
f 179 181 180
f 179 187 189
f 179 189 197
f 182 197 198
f 182 198 183
f 183 198 199
f 183 199 184
f 184 199 200
f 184 200 185
f 185 200 191
f 188 196 189
f 189 196 201
f 189 201 197
f 191 202 203
f 191 203 192
f 191 200 202
f 192 203 204
f 192 204 205
f 192 205 206
f 193 207 195
f 193 195 194
f 195 208 209
f 195 209 196
f 195 207 210
f 195 210 211
f 195 211 212
f 195 212 213
f 195 213 214
f 195 214 215
f 195 215 216
f 195 216 208
f 196 209 217
f 196 217 201
f 197 218 198
f 197 201 218
f 198 218 219
f 198 219 220
f 198 220 217
f 198 217 204
f 198 204 203
f 198 203 199
f 199 221 200
f 199 203 202
f 199 202 221
f 200 221 202
f 201 220 219
f 201 219 218
f 201 217 220
f 204 217 205
f 205 222 223
f 205 223 206
f 205 217 222
f 208 217 209
f 208 216 217
f 215 224 216
f 216 224 217
f 217 224 222

