v 0.15756334 -0.23992191 -0.07643292
v 0.15292336 -0.23603595 -0.07400689
v 0.16221815 -0.23527255 -0.07530429
v 0.16687295 -0.23527255 -0.07516717
v 0.16221815 -0.23992191 -0.07614813
v 0.15756334 -0.24385221 -0.07453429
v 0.15292336 -0.24382266 -0.07407018
v 0.14826858 -0.24305433 -0.07327908
v 0.15292336 -0.23992191 -0.07530429
v 0.14585223 -0.23749872 -0.07282552
v 0.14826858 -0.23691755 -0.07319469
v 0.14826858 -0.23459287 -0.07136989
v 0.15292336 -0.23371127 -0.07197113
v 0.15780054 -0.23497703 -0.07434442
v 0.16221815 -0.23256861 -0.07328962
v 0.16687295 -0.23245534 -0.07343730
v 0.16958577 -0.23271638 -0.07307867
v 0.17057899 -0.23527255 -0.07375374
v 0.16687295 -0.23992191 -0.07497730
v 0.16221815 -0.24330551 -0.07413346
v 0.15745957 -0.24612765 -0.07032565
v 0.15292336 -0.24614734 -0.07142264
v 0.14794244 -0.24564498 -0.07042058
v 0.14579294 -0.24237958 -0.07285716
v 0.14576328 -0.23992191 -0.07286771
v 0.14179040 -0.23322366 -0.06792071
v 0.11645584 -0.23527255 -0.05516821
v 0.02032091 -0.20962713 0.00623157
v 0.05277108 -0.21423709 -0.01242780
v 0.14488865 -0.23261787 -0.06854304
v 0.15639223 -0.23322860 -0.07243524
v 0.14826858 -0.22852998 -0.06292097
v 0.14826858 -0.23227803 -0.06904934
v 0.08317552 -0.21375936 -0.02256441
v 0.15135200 -0.22800791 -0.06029452
v 0.03201721 -0.19984080 0.01444844
v 0.16955611 -0.23272623 -0.07045222
v 0.17163151 -0.23527255 -0.07045222
v 0.16687295 -0.23189387 -0.07045222
v 0.17034180 -0.23992191 -0.07355333
v 0.16927446 -0.24227615 -0.07281497
v 0.15584374 -0.24709297 -0.06869071
v 0.15292336 -0.24728998 -0.06910208
v 0.14926179 -0.24722103 -0.06884893
v 0.14616354 -0.24683194 -0.06772030
v 0.14399920 -0.24365028 -0.07035729
v 0.14048586 -0.24296567 -0.06875400
v 0.11675232 -0.23908956 -0.05497834
v 0.07576342 -0.21880273 -0.02645661
v 0.06268848 -0.21449321 -0.01682631
v 0.11412845 -0.23527255 -0.05362820
v 0.02046916 -0.21360667 0.00633705
v 0.02032091 -0.21050874 0.00623157
v 0.02018750 -0.21061710 0.00632650
v 0.02018750 -0.20948430 0.00641088
v 0.02272244 -0.20896223 0.00566198
v 0.02018750 -0.20512552 0.01016596
v 0.02018750 -0.20053032 0.01574584
v 0.02073599 -0.20045645 0.01565091
v 0.08317552 -0.21536497 -0.02489551
v 0.07976595 -0.21407950 -0.02200537
v 0.02737724 -0.19979155 0.01465940
v 0.08783031 -0.21371995 -0.02297578
v 0.02018750 -0.20018064 0.01622050
v 0.15135200 -0.22800791 -0.05817438
v 0.03475969 -0.20024467 0.01498639
v 0.02018750 -0.19796923 0.02011270
v 0.02018750 -0.19710732 0.02274970
v 0.02737724 -0.19873755 0.01789763
v 0.02272244 -0.19747672 0.02254929
v 0.16930412 -0.23287892 -0.06802619
v 0.17089029 -0.24037503 -0.07025181
v 0.17023804 -0.23527255 -0.06738276
v 0.17049005 -0.23912403 -0.06723509
v 0.16927446 -0.24227615 -0.07166524
v 0.15584374 -0.24709297 -0.06745660
v 0.15286407 -0.24732938 -0.06586385
v 0.14794244 -0.24730969 -0.06602207
v 0.14508137 -0.24705357 -0.06461919
v 0.11819027 -0.24219243 -0.05372313
v 0.02018750 -0.20474628 0.01055624
v 0.02018750 -0.20383020 0.01166378
v 0.02356742 -0.21540929 0.00525061
v 0.02018750 -0.21568018 0.00892130
v 0.02018750 -0.21338997 0.00652691
v 0.02018750 -0.20812003 0.00758171
v 0.02018750 -0.19909710 0.01797146
v 0.03475969 -0.20024467 0.01618886
v 0.03068303 -0.19991467 0.02108312
v 0.02018750 -0.19701866 0.02540779
v 0.03215063 -0.19966349 0.01780270
v 0.15633294 -0.23195790 -0.05805835
v 0.16436765 -0.23336157 -0.06366987
v 0.02604306 -0.19968320 0.02569258
v 0.16917070 -0.24222198 -0.06856413
v 0.15118894 -0.23222387 -0.05374423
v 0.15944602 -0.23527255 -0.05915534
v 0.16504956 -0.23645951 -0.06314248
v 0.16504956 -0.23842958 -0.06314248
v 0.16389328 -0.24152753 -0.06392302
v 0.15437614 -0.24655613 -0.06435549
v 0.15127788 -0.24709791 -0.06302644
v 0.14826858 -0.24716686 -0.06260453
v 0.14508137 -0.24705357 -0.06275220
v 0.11767142 -0.24230570 -0.05062203
v 0.02942298 -0.21907854 0.00594677
v 0.02018750 -0.21633030 0.01324597
v 0.02018750 -0.19759491 0.02721149
v 0.02097319 -0.19986050 0.02993287
v 0.02018750 -0.19866860 0.02929999
v 0.02018750 -0.19952066 0.03030205
v 0.16079502 -0.24266523 -0.06292097
v 0.16607242 -0.24287703 -0.06702413
v 0.15141129 -0.23527255 -0.05356491
v 0.05787061 -0.20948922 0.00646362
v 0.03004559 -0.20448524 0.02511244
v 0.16229227 -0.23995639 -0.06205603
v 0.15108517 -0.23834092 -0.05378642
v 0.14967687 -0.24144379 -0.05473574
v 0.14817963 -0.24374878 -0.05637067
v 0.13715042 -0.24268986 -0.04902928
v 0.13431900 -0.24308881 -0.04856517
v 0.13431900 -0.24449248 -0.05184559
v 0.12966421 -0.24403936 -0.05184559
v 0.11767142 -0.24230570 -0.04931408
v 0.02942298 -0.21907854 0.00666403
v 0.02018750 -0.21519751 0.01738078
v 0.02272244 -0.21680312 0.01324597
v 0.02018750 -0.20058451 0.03065013
v 0.02018750 -0.20277128 0.03132520
v 0.02168474 -0.20272202 0.03034424
v 0.02401214 -0.20272202 0.02878314
v 0.03536748 -0.20396317 0.02093545
v 0.14657862 -0.24255688 -0.05390245
v 0.15184121 -0.24309373 -0.05782629
v 0.03004559 -0.20561803 0.02511244
v 0.02153650 -0.20597264 0.03021766
v 0.02018750 -0.20627308 0.03057629
v 0.02556868 -0.20987831 0.02512299
v 0.02272244 -0.21011964 0.02555546
v 0.02018750 -0.21032158 0.02594573
v 0.02272244 -0.21391204 0.01951147
v 0.02018750 -0.21404502 0.01971188
v 0.02272244 -0.21522706 0.01719092
v 0.02018750 -0.20837121 0.02836122
f 1 2 3
f 1 3 4
f 1 4 5
f 1 5 6
f 1 6 7
f 1 7 8
f 1 8 9
f 1 9 10
f 1 10 2
f 2 11 12
f 2 12 13
f 2 13 14
f 2 14 3
f 2 10 11
f 3 14 15
f 3 15 16
f 3 16 4
f 4 16 17
f 4 17 18
f 4 18 19
f 4 19 5
f 5 20 6
f 5 19 20
f 6 20 21
f 6 21 22
f 6 22 7
f 7 22 23
f 7 23 8
f 8 23 24
f 8 24 9
f 9 24 25
f 9 25 10
f 10 26 12
f 10 12 11
f 10 25 27
f 10 27 28
f 10 28 29
f 10 29 26
f 12 26 30
f 12 30 13
f 13 31 14
f 13 30 31
f 14 31 15
f 15 32 16
f 15 31 30
f 15 30 33
f 15 33 34
f 15 34 32
f 16 35 17
f 16 32 36
f 16 36 35
f 17 37 38
f 17 38 18
f 17 35 39
f 17 39 37
f 18 38 40
f 18 40 19
f 19 40 41
f 19 41 20
f 20 41 21
f 21 42 43
f 21 43 22
f 21 41 42
f 22 43 44
f 22 44 23
f 23 45 46
f 23 46 24
f 23 44 45
f 24 46 47
f 24 47 48
f 24 48 27
f 24 27 25
f 26 29 49
f 26 49 50
f 26 50 30
f 27 48 51
f 27 51 52
f 27 52 53
f 27 53 28
f 28 53 54
f 28 54 55
f 28 55 56
f 28 56 29
f 29 56 57
f 29 57 50
f 29 50 49
f 30 50 58
f 30 58 59
f 30 59 60
f 30 60 61
f 30 61 34
f 30 34 33
f 32 34 62
f 32 62 63
f 32 63 36
f 34 61 59
f 34 59 64
f 34 64 62
f 35 65 39
f 35 36 66
f 35 66 88
f 35 88 65
f 36 62 67
f 36 67 68
f 36 68 69
f 36 69 70
f 36 70 66
f 36 63 62
f 37 71 38
f 37 39 65
f 37 65 71
f 38 72 40
f 38 71 73
f 38 73 74
f 38 74 72
f 40 72 41
f 41 72 75
f 41 75 76
f 41 76 42
f 42 76 77
f 42 77 43
f 43 77 78
f 43 78 44
f 44 78 79
f 44 79 45
f 45 47 46
f 45 79 80
f 45 80 47
f 47 80 48
f 48 80 52
f 48 52 51
f 50 57 81
f 50 81 82
f 50 82 58
f 52 83 84
f 52 84 85
f 52 85 54
f 52 54 53
f 52 80 83
f 54 85 84
f 54 84 107
f 54 107 127
f 54 127 143
f 54 143 141
f 54 141 145
f 54 145 138
f 54 138 130
f 54 130 129
f 54 129 111
f 54 111 110
f 54 110 108
f 54 108 90
f 54 90 68
f 54 68 67
f 54 67 87
f 54 87 64
f 54 64 58
f 54 58 82
f 54 82 81
f 54 81 57
f 54 57 86
f 54 86 55
f 55 86 56
f 56 86 57
f 58 64 59
f 59 61 60
f 62 64 87
f 62 87 67
f 65 88 89
f 65 89 71
f 66 70 88
f 68 90 70
f 68 70 69
f 70 90 91
f 70 91 88
f 71 92 93
f 71 93 73
f 71 89 94
f 71 94 92
f 72 74 95
f 72 95 75
f 73 93 96
f 73 96 97
f 73 97 98
f 73 98 74
f 74 98 99
f 74 99 100
f 74 100 95
f 75 95 76
f 76 101 102
f 76 102 77
f 76 95 101
f 77 102 103
f 77 103 78
f 78 103 104
f 78 104 79
f 79 104 125
f 79 125 105
f 79 105 80
f 80 105 106
f 80 106 84
f 80 84 83
f 84 106 107
f 88 91 90
f 88 90 89
f 89 90 108
f 89 108 94
f 92 96 93
f 92 94 109
f 92 109 96
f 94 108 110
f 94 110 111
f 94 111 109
f 95 100 112
f 95 112 113
f 95 113 101
f 96 114 97
f 96 109 115
f 96 115 116
f 96 116 114
f 97 114 99
f 97 99 98
f 99 117 100
f 99 114 118
f 99 118 117
f 100 117 118
f 100 118 119
f 100 119 112
f 101 113 112
f 101 112 102
f 102 112 120
f 102 120 121
f 102 121 122
f 102 122 123
f 102 123 103
f 103 123 104
f 104 123 124
f 104 124 125
f 105 125 126
f 105 126 106
f 106 126 107
f 107 126 128
f 107 128 127
f 109 111 129
f 109 129 130
f 109 130 131
f 109 131 132
f 109 132 116
f 109 116 133
f 109 133 115
f 112 119 134
f 112 134 135
f 112 135 120
f 114 136 118
f 114 116 136
f 115 133 116
f 116 132 131
f 116 131 130
f 116 130 136
f 118 136 137
f 118 137 119
f 119 137 121
f 119 121 134
f 120 135 134
f 120 134 121
f 121 137 138
f 121 138 139
f 121 139 122
f 122 139 140
f 122 140 141
f 122 141 142
f 122 142 143
f 122 143 144
f 122 144 127
f 122 127 123
f 123 125 124
f 123 127 128
f 123 128 125
f 125 128 126
f 127 144 143
f 130 138 137
f 130 137 136
f 138 145 139
f 139 145 140
f 140 145 141
f 141 143 142

