v 0.14314257 -0.16127577 -0.00534230
v 0.14314257 -0.16098576 -0.00070052
v 0.14314257 -0.16113767 -0.00573242
v 0.16218713 -0.16398257 -0.01020228
v 0.16688256 -0.16511500 -0.00999730
v 0.17153019 -0.16591601 -0.00999730
v 0.16688256 -0.16536359 -0.00534230
v 0.14314257 -0.15942521 0.00290314
v 0.17153019 -0.16604029 -0.00534230
v 0.16059809 -0.16300205 -0.01188840
v 0.14314257 -0.15953569 -0.01011632
v 0.23375357 -0.17269681 -0.03111012
v 0.21938054 -0.17269681 -0.02205799
v 0.22267809 -0.17388447 -0.01929409
v 0.14314257 -0.15725701 0.00523064
v 0.16688256 -0.16401020 -0.00189733
v 0.17153019 -0.16430021 -0.00179815
v 0.22732574 -0.17453355 -0.01929409
v 0.19479227 -0.16949284 -0.00999730
v 0.18667981 -0.16804276 -0.00730613
v 0.19013268 -0.16829134 -0.00696890
v 0.14314257 -0.15366635 -0.02546329
v 0.23211673 -0.17034906 -0.03236645
v 0.23458990 -0.17269681 -0.03111012
v 0.23197337 -0.17442309 -0.02394248
v 0.23211673 -0.17324921 -0.02853136
v 0.14575911 -0.15392876 -0.02633610
v 0.14314257 -0.15196770 -0.02830654
v 0.14314257 -0.15159483 -0.02880907
v 0.14314257 -0.14961997 -0.03122914
v 0.16223491 -0.15971523 0.00257914
v 0.14363242 -0.15722939 0.00523064
v 0.14314257 -0.15492308 0.00683080
v 0.19479227 -0.16855375 -0.00681682
v 0.17618977 -0.16431401 -0.00193039
v 0.23197337 -0.17480976 -0.01929409
v 0.22732574 -0.17359446 -0.01517467
v 0.22267809 -0.17334589 -0.01553834
v 0.23197337 -0.16551549 -0.03435011
v 0.14314257 -0.14695460 -0.03249869
v 0.23933312 -0.16374781 -0.03143412
v 0.23905833 -0.17261394 -0.02644190
v 0.23633425 -0.17315254 -0.02823381
v 0.23663295 -0.17407783 -0.02394248
v 0.23511560 -0.15902472 -0.03573868
v 0.23664490 -0.16069575 -0.03455509
v 0.23989466 -0.16086148 -0.03228710
v 0.17153019 -0.16169007 0.00052274
v 0.16688256 -0.15961855 0.00234110
v 0.14363242 -0.15490926 0.00680435
v 0.14828005 -0.15459164 0.00662582
v 0.14314257 -0.15155339 0.00796810
v 0.23197337 -0.17366351 -0.01483745
v 0.23197337 -0.17208914 -0.01251656
v 0.19943991 -0.16842945 -0.00706148
v 0.23663295 -0.17409163 -0.01929409
v 0.23663295 -0.17318016 -0.01566398
v 0.23197337 -0.15891424 -0.03569901
v 0.14363242 -0.14691317 -0.03255820
v 0.14828005 -0.14691317 -0.03289542
v 0.14314257 -0.14642982 -0.03263094
v 0.24362232 -0.16320919 -0.02628982
v 0.23933312 -0.17290395 -0.02394248
v 0.24414802 -0.16381686 -0.02394248
v 0.24482904 -0.16463165 -0.01929409
v 0.23939286 -0.17294538 -0.01929409
v 0.23197337 -0.15620742 -0.03582464
v 0.23524702 -0.15620742 -0.03579819
v 0.23757681 -0.15620742 -0.03493860
v 0.24875983 -0.14087812 -0.02704361
v 0.17618977 -0.16127577 0.00039711
v 0.17153019 -0.15935616 0.00210967
v 0.15210331 -0.15423258 0.00644068
v 0.15520969 -0.15385970 0.00626876
v 0.14828005 -0.15155339 0.00750525
v 0.14314257 -0.13949710 0.01084442
v 0.23696748 -0.17051479 -0.01319100
v 0.23565324 -0.16918901 -0.01192146
v 0.17879437 -0.15863803 0.00167988
v 0.17618977 -0.15895567 0.00184519
v 0.23914195 -0.17265537 -0.01667565
v 0.14363242 -0.14225913 -0.03353681
v 0.19013268 -0.14691317 -0.03521631
v 0.19479227 -0.14691317 -0.03542791
v 0.14314257 -0.14225913 -0.03350375
v 0.24643002 -0.16086148 -0.01929409
v 0.24453035 -0.16428639 -0.01542594
v 0.23475717 -0.15303109 -0.03570562
v 0.24410023 -0.13848895 -0.03114319
v 0.24410023 -0.14029809 -0.03114319
v 0.24885540 -0.13760510 -0.02712957
v 0.26243989 -0.04926130 -0.00800041
v 0.26234429 -0.05286575 -0.00788139
v 0.25025327 -0.13760510 -0.02394248
v 0.15758728 -0.15325206 0.00612991
v 0.15758728 -0.15091813 0.00669194
v 0.15336976 -0.15200913 0.00691676
v 0.17618977 -0.15620742 0.00280396
v 0.14741982 -0.11724887 0.01573085
v 0.14363242 -0.11771842 0.01585648
v 0.14314257 -0.11777366 0.01586971
v 0.24359842 -0.16316778 -0.01232480
v 0.23874769 -0.16768369 -0.01241737
v 0.24049205 -0.16459022 -0.01173632
v 0.23696748 -0.16588838 -0.01116105
v 0.19943991 -0.15155339 0.00055580
v 0.19943991 -0.15620742 -0.00103774
v 0.14363242 -0.13760510 -0.03290865
v 0.14828005 -0.14225913 -0.03376163
v 0.14828005 -0.13760510 -0.03308057
v 0.19479227 -0.14225913 -0.03464766
v 0.19943991 -0.14225913 -0.03462121
v 0.19943991 -0.14691317 -0.03538823
v 0.14314257 -0.13760510 -0.03287559
v 0.24517552 -0.16131720 -0.01418284
v 0.25098208 -0.13760510 -0.01929409
v 0.23197337 -0.14691317 -0.03485264
v 0.23197337 -0.14225913 -0.03400628
v 0.25523545 -0.03531300 -0.00947494
v 0.24338338 -0.13539547 -0.03089853
v 0.25729044 -0.05184380 -0.01228513
v 0.25780419 -0.05493728 -0.01248350
v 0.24830581 -0.12107430 -0.02631626
v 0.24846113 -0.12365681 -0.02646835
v 0.24576095 -0.13720460 -0.02973478
v 0.26241599 -0.04460726 -0.00792106
v 0.26350321 -0.03531300 -0.00509765
v 0.26519979 -0.03372483 -0.00070052
v 0.26508031 -0.03531300 -0.00070052
v 0.26217703 -0.05597305 -0.00729290
v 0.16688256 -0.15155339 0.00533644
v 0.16254556 -0.15152578 0.00590509
v 0.16688256 -0.14225913 0.00755153
v 0.15052622 -0.11664123 0.01556554
v 0.17153019 -0.15155339 0.00468183
v 0.14828005 -0.08646595 0.02266707
v 0.14314257 -0.09160335 0.02182732
v 0.14314257 -0.11436254 0.01664995
v 0.24173461 -0.16131720 -0.01124040
v 0.26257131 -0.03877936 0.00667211
v 0.25404067 -0.05856937 0.00698288
v 0.23663295 -0.16086148 -0.00955428
v 0.21571261 -0.05159522 0.02022716
v 0.18540141 -0.07696454 0.01973124
v 0.14314257 -0.03372483 -0.01235786
v 0.17618977 -0.12831084 -0.03179780
v 0.21847251 -0.10012423 -0.02671300
v 0.24991875 -0.13760510 -0.01464569
v 0.26229651 -0.05692595 -0.00271725
v 0.26457852 -0.03531300 0.00394787
v 0.26343153 -0.04018800 0.00428510
v 0.26229651 -0.05692595 -0.00419177
v 0.22037220 -0.09809414 -0.02626998
v 0.22222408 -0.10040044 -0.02660720
v 0.23003784 -0.12581120 -0.03097127
v 0.25523545 -0.03372483 -0.00915755
v 0.25927375 -0.03372483 -0.00841698
v 0.26159160 -0.03372483 -0.00731274
v 0.26184250 -0.03531300 -0.00741854
v 0.26214119 -0.03806123 -0.00761029
v 0.26229651 -0.04116852 -0.00777560
v 0.26351517 -0.03372483 -0.00499185
v 0.26484135 -0.03372483 0.00394787
v 0.26459046 -0.03996704 -0.00070052
v 0.26252351 -0.05421915 -0.00558034
v 0.15948695 -0.11182147 0.01553910
v 0.15292769 -0.08181192 0.02316299
v 0.14828005 -0.08181192 0.02370519
v 0.14314257 -0.08694931 0.02284560
v 0.25057586 -0.05856937 0.00817308
v 0.24128058 -0.06786363 0.00923104
v 0.23855652 -0.06449394 0.01082458
v 0.26300142 -0.03531300 0.00716803
v 0.25988308 -0.03531300 0.00899961
v 0.25978751 -0.03372483 0.00937651
v 0.22267809 -0.05391533 0.01778064
v 0.21871147 -0.04926130 0.01983043
v 0.21638168 -0.04926130 0.02036602
v 0.16933182 -0.04250811 0.02957684
v 0.18762368 -0.05140187 0.02484911
v 0.19479227 -0.05391533 0.02314976
v 0.18688293 -0.07417488 0.02010153
v 0.18083742 -0.07849747 0.02002880
v 0.14314257 -0.03372483 0.01030222
v 0.24592823 -0.03372483 -0.00994440
v 0.24592823 -0.03531300 -0.01029485
v 0.22732574 -0.09577402 -0.02509300
v 0.26378997 -0.03372483 0.00607040
v 0.16688256 -0.04557397 0.02923962
v 0.15131477 -0.05212001 0.02966280
v 0.14828005 -0.04926130 0.03037692
v 0.14314257 -0.08229528 0.02379115
v 0.25057586 -0.05391533 0.00897977
v 0.26315674 -0.03372483 0.00733994
v 0.25670501 -0.03372483 0.00977985
v 0.14314257 -0.03400103 0.02720305
v 0.14314257 -0.03575493 0.03069431
v 0.16933182 -0.04210761 0.02957684
v 0.21659674 -0.04660974 0.02040569
v 0.14314257 -0.03996704 0.03172582
v 0.14828005 -0.04460726 0.03109765
v 0.15292769 -0.04460726 0.03072737
v 0.16688256 -0.04325386 0.02970909
v 0.14316647 -0.03372483 0.01033528
v 0.15289185 -0.04933035 0.03001325
v 0.14314257 -0.04460726 0.03117039
v 0.14314257 -0.05529635 0.02927268
v 0.25530713 -0.03372483 0.00987242
v 0.14363242 -0.03996704 0.03167953
f 1 2 8
f 1 8 15
f 1 15 33
f 1 33 52
f 1 52 76
f 1 76 101
f 1 101 138
f 1 138 137
f 1 137 169
f 1 169 192
f 1 192 207
f 1 207 206
f 1 206 200
f 1 200 197
f 1 197 196
f 1 196 184
f 1 184 145
f 1 145 114
f 1 114 85
f 1 85 61
f 1 61 40
f 1 40 30
f 1 30 29
f 1 29 28
f 1 28 22
f 1 22 11
f 1 11 3
f 1 3 4
f 1 4 5
f 1 5 6
f 1 6 7
f 1 7 2
f 2 7 9
f 2 9 8
f 3 10 4
f 3 11 10
f 4 12 13
f 4 13 5
f 4 10 12
f 5 13 14
f 5 14 6
f 6 14 7
f 7 14 9
f 8 9 16
f 8 16 17
f 8 17 15
f 9 14 18
f 9 18 19
f 9 19 20
f 9 20 21
f 9 21 16
f 10 11 22
f 10 22 12
f 12 23 24
f 12 24 25
f 12 25 26
f 12 26 13
f 12 22 27
f 12 27 28
f 12 28 29
f 12 29 30
f 12 30 23
f 13 26 25
f 13 25 14
f 14 25 18
f 15 17 31
f 15 31 32
f 15 32 33
f 16 21 17
f 17 21 34
f 17 34 35
f 17 35 31
f 18 25 36
f 18 36 37
f 18 37 38
f 18 38 19
f 19 38 21
f 19 21 20
f 21 38 37
f 21 37 34
f 22 28 27
f 23 39 24
f 23 30 40
f 23 40 39
f 24 41 42
f 24 42 43
f 24 43 44
f 24 44 25
f 24 39 45
f 24 45 46
f 24 46 47
f 24 47 41
f 25 44 36
f 31 48 49
f 31 49 33
f 31 33 32
f 31 35 48
f 33 50 51
f 33 51 52
f 33 49 50
f 34 37 53
f 34 53 54
f 34 54 55
f 34 55 35
f 35 55 54
f 35 54 48
f 36 44 56
f 36 56 57
f 36 57 53
f 36 53 37
f 39 58 45
f 39 40 59
f 39 59 60
f 39 60 58
f 40 61 59
f 41 47 62
f 41 62 42
f 42 63 44
f 42 44 43
f 42 62 64
f 42 64 65
f 42 65 63
f 44 63 66
f 44 66 56
f 45 58 67
f 45 67 68
f 45 68 69
f 45 69 46
f 46 69 47
f 47 69 70
f 47 70 62
f 48 71 49
f 48 54 71
f 49 71 72
f 49 72 51
f 49 51 50
f 51 73 52
f 51 72 73
f 52 73 74
f 52 74 75
f 52 75 76
f 53 57 54
f 54 57 77
f 54 77 78
f 54 78 79
f 54 79 80
f 54 80 71
f 56 66 81
f 56 81 57
f 57 81 77
f 58 60 82
f 58 82 83
f 58 83 84
f 58 84 67
f 59 61 60
f 60 61 85
f 60 85 82
f 62 86 64
f 62 70 86
f 63 65 66
f 64 86 65
f 65 86 87
f 65 87 66
f 66 87 81
f 67 84 88
f 67 88 68
f 68 88 89
f 68 89 69
f 69 89 90
f 69 90 70
f 70 90 91
f 70 91 92
f 70 92 93
f 70 93 94
f 70 94 86
f 71 80 72
f 72 80 73
f 73 80 74
f 74 95 96
f 74 96 97
f 74 97 75
f 74 80 79
f 74 79 98
f 74 98 95
f 75 97 99
f 75 99 76
f 76 99 100
f 76 100 101
f 77 81 102
f 77 102 103
f 77 103 78
f 78 103 104
f 78 104 105
f 78 105 106
f 78 106 107
f 78 107 79
f 79 107 106
f 79 106 98
f 81 87 102
f 82 85 114
f 82 114 108
f 82 108 109
f 82 109 83
f 83 109 84
f 84 109 110
f 84 110 111
f 84 111 112
f 84 112 113
f 84 113 88
f 86 115 87
f 86 94 116
f 86 116 115
f 87 115 102
f 88 113 117
f 88 117 118
f 88 118 119
f 88 119 120
f 88 120 89
f 89 91 90
f 89 120 121
f 89 121 122
f 89 122 123
f 89 123 124
f 89 124 125
f 89 125 91
f 91 125 124
f 91 124 126
f 91 126 92
f 92 126 127
f 92 127 128
f 92 128 93
f 93 128 129
f 93 129 130
f 93 130 94
f 94 130 116
f 95 131 132
f 95 132 96
f 95 98 131
f 96 132 133
f 96 133 134
f 96 134 97
f 97 134 99
f 98 106 135
f 98 135 131
f 99 134 136
f 99 136 137
f 99 137 100
f 100 137 138
f 100 138 101
f 102 139 104
f 102 104 103
f 102 115 140
f 102 140 141
f 102 141 139
f 104 139 142
f 104 142 105
f 105 142 106
f 106 133 135
f 106 142 143
f 106 143 144
f 106 144 133
f 108 110 109
f 108 114 145
f 108 145 110
f 110 146 111
f 110 145 146
f 111 146 147
f 111 147 112
f 112 117 113
f 112 147 117
f 115 116 148
f 115 148 149
f 115 149 150
f 115 150 151
f 115 151 140
f 116 130 152
f 116 152 149
f 116 149 148
f 117 147 118
f 118 147 153
f 118 153 154
f 118 154 155
f 118 155 156
f 118 156 119
f 119 156 157
f 119 157 121
f 119 121 120
f 121 157 158
f 121 158 122
f 122 158 159
f 122 159 160
f 122 160 123
f 123 160 124
f 124 160 161
f 124 161 126
f 126 161 162
f 126 162 127
f 127 162 128
f 128 162 158
f 128 158 157
f 128 157 156
f 128 156 185
f 128 185 145
f 128 145 184
f 128 184 204
f 128 204 208
f 128 208 195
f 128 195 175
f 128 175 194
f 128 194 188
f 128 188 163
f 128 163 129
f 129 163 164
f 129 164 130
f 130 164 165
f 130 165 152
f 131 135 133
f 131 133 132
f 133 166 134
f 133 144 166
f 134 166 167
f 134 167 136
f 136 167 168
f 136 168 137
f 137 168 169
f 139 141 170
f 139 170 171
f 139 171 172
f 139 172 142
f 140 151 150
f 140 150 173
f 140 173 174
f 140 174 141
f 141 174 175
f 141 175 170
f 142 172 176
f 142 176 143
f 143 176 177
f 143 177 178
f 143 178 179
f 143 179 180
f 143 180 181
f 143 181 182
f 143 182 144
f 144 182 179
f 144 179 183
f 144 183 166
f 145 185 153
f 145 153 147
f 145 147 146
f 149 152 164
f 149 164 163
f 149 163 150
f 150 163 173
f 152 165 164
f 153 185 186
f 153 186 156
f 153 156 154
f 154 156 187
f 154 187 155
f 155 187 156
f 156 186 185
f 158 162 159
f 159 162 160
f 160 162 161
f 163 188 173
f 166 183 167
f 167 183 189
f 167 189 168
f 168 189 190
f 168 190 191
f 168 191 169
f 169 191 192
f 170 175 193
f 170 193 176
f 170 176 172
f 170 172 171
f 173 188 194
f 173 194 175
f 173 175 174
f 175 195 196
f 175 196 197
f 175 197 198
f 175 198 199
f 175 199 177
f 175 177 193
f 176 193 177
f 177 199 178
f 178 199 179
f 179 199 198
f 179 198 200
f 179 200 201
f 179 201 202
f 179 202 203
f 179 203 189
f 179 189 183
f 179 182 180
f 180 182 181
f 184 196 204
f 189 203 190
f 190 203 205
f 190 205 191
f 191 205 201
f 191 201 206
f 191 206 207
f 191 207 192
f 195 208 196
f 196 208 204
f 197 200 209
f 197 209 198
f 198 209 200
f 200 206 201
f 201 205 202
f 202 205 203

