v 0.27152168 0.01185691 0.00860164
v 0.27044095 0.01185691 0.00481421
v 0.27135831 0.01185691 0.00974326
v 0.26483631 -0.03372482 0.00395304
v 0.26532640 -0.03065510 0.00395304
v 0.26518818 -0.03372482 -0.00069556
v 0.26697262 -0.02004495 0.00127606
v 0.26709828 -0.01670306 0.00100695
v 0.26731191 -0.01205387 0.00078316
v 0.26752553 -0.00740467 0.00067551
v 0.26760094 -0.00275548 0.00076050
v 0.26757581 0.00189372 0.00094179
v 0.26737474 0.00654291 0.00123074
v 0.26711084 0.01038006 0.00147436
v 0.26696004 0.01185691 0.00155084
v 0.26969954 0.01185691 0.01238624
v 0.26698517 -0.00565119 0.01107183
v 0.26315240 -0.03372482 0.00734389
v 0.26379329 -0.03372482 0.00607480
v 0.26683438 -0.01892057 0.00610596
v 0.26351683 -0.03372482 -0.00499289
v 0.26159416 -0.03372482 -0.00731861
v 0.26518818 0.01185691 0.00126756
v 0.25926936 -0.03372482 -0.00841773
v 0.25877928 -0.03065510 -0.00815711
v 0.25803785 -0.02779509 -0.00783134
v 0.26957387 0.01185691 0.01252788
v 0.26943563 0.01185691 0.01267802
v 0.26840519 0.00654291 0.01242307
v 0.26557773 0.01185691 0.01540316
v 0.26300160 -0.01670306 0.01148825
v 0.26251152 -0.01985755 0.01115398
v 0.25978460 -0.03372482 0.00938066
v 0.25057337 -0.01205387 -0.00519969
v 0.24592377 -0.01205387 -0.00563593
v 0.24592377 0.01119656 -0.00046610
v 0.24592377 0.01185691 -0.00029047
v 0.25523552 -0.03372482 -0.00915992
v 0.24592377 -0.03372482 -0.00995027
v 0.24592377 -0.02600145 -0.00843189
v 0.26415772 0.01185691 0.01561279
v 0.25787448 -0.02902655 0.01102084
v 0.25960865 -0.03061049 0.01012002
v 0.25670581 -0.03372482 0.00978008
v 0.14314257 -0.01205387 -0.00932705
v 0.14314257 -0.00710573 -0.00827892
v 0.14314257 -0.00589212 -0.00800981
v 0.14314257 -0.00482575 -0.00775486
v 0.15758144 0.00990264 -0.00335271
v 0.15758144 0.01185691 -0.00271533
v 0.14314257 -0.03372482 -0.01236097
v 0.14314257 -0.03319833 -0.01231281
v 0.14314257 -0.02135225 -0.01089925
v 0.14314257 -0.01670306 -0.01018255
v 0.26277540 0.01185691 0.01567511
v 0.25717077 -0.02902655 0.01102084
v 0.14316770 -0.03372482 0.01033531
v 0.25531092 -0.03372482 0.00987356
v 0.24127418 0.01185691 0.01639180
v 0.23729061 0.01185691 0.01643146
v 0.19944037 -0.00275548 0.01468647
v 0.14314257 -0.00382185 -0.00746875
v 0.14828225 0.00654291 -0.00447732
v 0.14363266 0.01185691 -0.00298445
v 0.14504010 0.01185691 -0.00295895
v 0.14314257 -0.03372482 0.01030415
v 0.14828225 0.01185691 0.01657593
v 0.14363266 0.01185691 0.01651078
v 0.14314257 0.01185691 0.01649945
v 0.14314257 -0.03372036 0.01033531
v 0.14314257 0.01185691 -0.00298728
f 1 2 15
f 1 15 23
f 1 23 37
f 1 37 50
f 1 50 65
f 1 65 64
f 1 64 71
f 1 71 69
f 1 69 68
f 1 68 67
f 1 67 60
f 1 60 59
f 1 59 55
f 1 55 41
f 1 41 30
f 1 30 28
f 1 28 27
f 1 27 16
f 1 16 3
f 1 3 4
f 1 4 5
f 1 5 6
f 1 6 7
f 1 7 2
f 2 7 8
f 2 8 9
f 2 9 10
f 2 10 11
f 2 11 12
f 2 12 13
f 2 13 14
f 2 14 15
f 3 16 17
f 3 17 18
f 3 18 19
f 3 19 20
f 3 20 4
f 4 6 5
f 4 20 19
f 4 19 18
f 4 18 33
f 4 33 44
f 4 44 58
f 4 58 57
f 4 57 66
f 4 66 51
f 4 51 39
f 4 39 38
f 4 38 24
f 4 24 22
f 4 22 21
f 4 21 6
f 6 21 7
f 7 21 8
f 8 21 9
f 9 21 10
f 10 21 11
f 11 21 22
f 11 22 12
f 12 22 13
f 13 22 14
f 14 22 15
f 15 22 24
f 15 24 25
f 15 25 26
f 15 26 23
f 16 27 17
f 17 27 28
f 17 28 29
f 17 29 30
f 17 30 31
f 17 31 32
f 17 32 18
f 18 32 33
f 23 26 34
f 23 34 35
f 23 35 36
f 23 36 37
f 24 38 25
f 25 38 26
f 26 38 39
f 26 39 40
f 26 40 35
f 26 35 34
f 28 30 29
f 30 41 42
f 30 42 32
f 30 32 31
f 32 42 43
f 32 43 33
f 33 43 42
f 33 42 44
f 35 40 45
f 35 45 46
f 35 46 47
f 35 47 36
f 36 47 48
f 36 48 37
f 37 48 49
f 37 49 50
f 39 51 52
f 39 52 53
f 39 53 54
f 39 54 45
f 39 45 40
f 41 55 42
f 42 56 57
f 42 57 58
f 42 58 44
f 42 55 59
f 42 59 60
f 42 60 61
f 42 61 56
f 45 54 53
f 45 53 52
f 45 52 51
f 45 51 66
f 45 66 70
f 45 70 69
f 45 69 71
f 45 71 62
f 45 62 48
f 45 48 47
f 45 47 46
f 48 62 63
f 48 63 49
f 49 63 64
f 49 64 65
f 49 65 50
f 56 61 57
f 57 61 67
f 57 67 68
f 57 68 69
f 57 69 70
f 57 70 66
f 60 67 61
f 62 71 63
f 63 71 64

