v -0.03767290 -0.01670872 0.02646023
v -0.03767290 -0.01245960 0.02582556
v -0.03773901 -0.01244204 0.02582556
v -0.04063446 -0.01249472 0.02560537
v -0.03773901 -0.01670872 0.02645375
v -0.03767290 -0.09575634 0.01426560
v -0.03767290 0.04246287 0.00808734
v -0.04063446 -0.01693697 0.02594213
v -0.04063446 0.04246287 0.00770524
v -0.04063446 -0.09575634 0.01388351
v -0.04063446 -0.09865346 0.01326827
v -0.04063446 -0.12727354 0.00685687
v -0.03767290 -0.12762471 0.00695401
v -0.03767290 0.04246287 -0.00757852
v -0.04063446 0.04246287 -0.00826499
v -0.04063446 -0.12959124 0.00550982
v -0.03767290 -0.12994241 0.00582068
v -0.03870126 0.04246287 -0.00783756
v -0.03767290 0.04176053 -0.00781166
v -0.03939939 0.04246287 -0.00801242
v -0.04063446 0.03917946 -0.00909394
v -0.04063446 -0.13097835 0.00406564
v -0.03767290 -0.13199674 0.00354754
v -0.03767290 0.03967109 -0.00832975
v -0.03889782 0.04223461 -0.00796061
v -0.03767290 0.03930237 -0.00842042
v -0.03767290 -0.10504469 -0.03709689
v -0.04063446 -0.10506225 -0.03759556
v -0.04063446 -0.13176847 0.00318488
v -0.03773901 -0.13203185 0.00348926
v -0.03767290 -0.13203185 0.00349573
v -0.03767290 -0.10969765 -0.03788051
v -0.03773901 -0.10969765 -0.03789346
v -0.04063446 -0.10969765 -0.03841803
v -0.04063446 -0.13401594 -0.00074616
v -0.03767290 -0.13454269 -0.00069435
v -0.03767290 -0.11900357 -0.03922755
v -0.03773901 -0.11900357 -0.03924050
v -0.04063446 -0.11874019 -0.03970031
v -0.04063446 -0.13515723 -0.00343377
v -0.03984587 -0.13524503 -0.00317472
v -0.03767290 -0.13482363 -0.00130311
v -0.03807329 -0.13452513 -0.00081092
v -0.03767290 -0.11907380 -0.03922755
v -0.03767290 -0.12365652 -0.03884546
v -0.04063446 -0.12047846 -0.03955136
v -0.04063446 -0.13536793 -0.00415262
v -0.04063446 -0.13580689 -0.00577814
v -0.03767290 -0.13612294 -0.00500748
v -0.03767290 -0.13589468 -0.00421091
v -0.03767290 -0.12370920 -0.03881955
v -0.03773901 -0.12365652 -0.03885193
v -0.04063446 -0.12349850 -0.03913689
v -0.04063446 -0.13643899 -0.00999413
v -0.03767290 -0.13691306 -0.00999413
v -0.04063446 -0.12478026 -0.03839213
v -0.03767290 -0.12708040 -0.03683785
v -0.03773901 -0.12708040 -0.03684432
v -0.04063446 -0.13643899 -0.01288897
v -0.04063446 -0.13638631 -0.01464402
v -0.03767290 -0.13677259 -0.01464402
v -0.04063446 -0.12695749 -0.03683785
v -0.03767290 -0.12711552 -0.03679251
v -0.04063446 -0.13605271 -0.01678115
v -0.03767290 -0.13592980 -0.01873695
v -0.04063446 -0.13573666 -0.01834838
v -0.03773901 -0.13591224 -0.01879524
v -0.03773901 -0.12913472 -0.03324357
v -0.04063446 -0.12773006 -0.03547785
v -0.03767290 -0.12913472 -0.03324357
v -0.03767290 -0.13591224 -0.01880819
v -0.04063446 -0.13528014 -0.01979257
v -0.04063446 -0.13498165 -0.02067333
v -0.03767290 -0.13512211 -0.02110076
v -0.04063446 -0.12897670 -0.03324357
v -0.03767290 -0.12915228 -0.03321119
v -0.03767290 -0.13380524 -0.02389199
v -0.04063446 -0.13238302 -0.02645007
v -0.04063446 -0.13408617 -0.02288170
v -0.04063446 -0.13359454 -0.02394379
f 1 2 3
f 1 3 4
f 1 4 5
f 1 5 6
f 1 6 13
f 1 13 17
f 1 17 23
f 1 23 31
f 1 31 36
f 1 36 42
f 1 42 50
f 1 50 49
f 1 49 55
f 1 55 61
f 1 61 65
f 1 65 71
f 1 71 74
f 1 74 77
f 1 77 76
f 1 76 70
f 1 70 63
f 1 63 57
f 1 57 51
f 1 51 45
f 1 45 44
f 1 44 37
f 1 37 32
f 1 32 27
f 1 27 26
f 1 26 24
f 1 24 19
f 1 19 14
f 1 14 7
f 1 7 2
f 2 7 3
f 3 7 4
f 4 8 5
f 4 7 9
f 4 9 15
f 4 15 21
f 4 21 28
f 4 28 34
f 4 34 39
f 4 39 46
f 4 46 53
f 4 53 56
f 4 56 62
f 4 62 69
f 4 69 75
f 4 75 78
f 4 78 80
f 4 80 79
f 4 79 73
f 4 73 72
f 4 72 66
f 4 66 64
f 4 64 60
f 4 60 59
f 4 59 54
f 4 54 48
f 4 48 47
f 4 47 40
f 4 40 35
f 4 35 29
f 4 29 22
f 4 22 16
f 4 16 12
f 4 12 11
f 4 11 10
f 4 10 8
f 5 8 10
f 5 10 6
f 6 10 11
f 6 11 12
f 6 12 13
f 7 14 18
f 7 18 20
f 7 20 15
f 7 15 9
f 12 16 17
f 12 17 13
f 14 19 18
f 15 20 21
f 16 22 17
f 17 22 23
f 18 19 20
f 19 24 25
f 19 25 20
f 20 25 21
f 21 25 24
f 21 24 26
f 21 26 27
f 21 27 28
f 22 29 23
f 23 29 30
f 23 30 31
f 27 32 33
f 27 33 34
f 27 34 28
f 29 35 36
f 29 36 30
f 30 36 31
f 32 37 38
f 32 38 33
f 33 38 34
f 34 38 39
f 35 40 41
f 35 41 42
f 35 42 43
f 35 43 36
f 36 43 42
f 37 44 38
f 38 44 39
f 39 44 45
f 39 45 46
f 40 47 41
f 41 47 48
f 41 48 49
f 41 49 50
f 41 50 42
f 45 51 52
f 45 52 46
f 46 52 53
f 48 54 55
f 48 55 49
f 51 56 53
f 51 53 52
f 51 57 58
f 51 58 56
f 54 59 55
f 55 59 60
f 55 60 61
f 56 58 62
f 57 63 58
f 58 63 62
f 60 64 61
f 61 64 66
f 61 66 67
f 61 67 65
f 62 63 68
f 62 68 69
f 63 70 68
f 65 67 71
f 66 72 67
f 67 72 73
f 67 73 74
f 67 74 71
f 68 75 69
f 68 70 76
f 68 76 77
f 68 77 78
f 68 78 75
f 73 79 74
f 74 79 80
f 74 80 77
f 77 80 78

