v 0.02018750 -0.14385925 -0.00982362
v 0.02498968 -0.14459840 -0.00760437
v 0.02018750 -0.14375974 -0.00822791
v 0.02018750 -0.14310588 -0.01464429
v 0.02915398 -0.14465526 -0.01257925
v 0.13896623 -0.16080300 -0.00534490
v 0.07852375 -0.15318400 -0.00069185
v 0.07387804 -0.15243063 -0.00069185
v 0.02018750 -0.14356074 -0.00551922
v 0.03667619 -0.14643208 -0.00534490
v 0.03201844 -0.14563607 -0.00534490
v 0.03667619 -0.14604829 -0.00069185
v 0.02018750 -0.14161334 -0.01929734
v 0.14314257 -0.15953790 -0.01011863
v 0.14314257 -0.16128630 -0.00534490
v 0.13896623 -0.16080300 -0.00069185
v 0.10176438 -0.15624012 -0.00069185
v 0.02272700 -0.14192606 -0.01929734
v 0.09711866 -0.15547254 0.00394779
v 0.08487852 -0.15392315 0.00194980
v 0.07852375 -0.15288549 0.00394779
v 0.03180180 -0.14512434 -0.00051753
v 0.03010478 -0.14449890 0.00113853
v 0.02018750 -0.14154227 0.00394779
v 0.05062538 -0.14778246 0.00394779
v 0.02018750 -0.14098790 -0.02090646
v 0.02272700 -0.14049039 -0.02301173
v 0.14314257 -0.15366729 -0.02546564
v 0.14314257 -0.16098781 -0.00069185
v 0.13896623 -0.15939577 0.00292197
v 0.11106785 -0.15705035 0.00394779
v 0.10642213 -0.15655285 0.00394779
v 0.09246091 -0.15413638 0.00669000
v 0.09005380 -0.15389473 0.00629443
v 0.06574202 -0.14947400 0.00674364
v 0.03320995 -0.14481161 0.00239901
v 0.02018750 -0.14053303 0.00718615
v 0.03869816 -0.14464104 0.00638159
v 0.03559299 -0.14431411 0.00549657
v 0.02018750 -0.13982231 -0.02386322
v 0.02272700 -0.13956644 -0.02533825
v 0.14314257 -0.15196155 -0.02830172
v 0.02018750 -0.13844349 -0.02710829
v 0.02018750 -0.13769012 -0.02859673
v 0.02018750 -0.13679460 -0.03021256
v 0.14314257 -0.15942418 0.00290186
v 0.13896623 -0.15743415 0.00524179
v 0.11106785 -0.15513139 0.00759514
v 0.10642213 -0.15491818 0.00746104
v 0.09711866 -0.15449174 0.00716604
v 0.08316948 -0.15162039 0.00860084
v 0.07841544 -0.15062537 0.00897630
v 0.07387804 -0.15029844 0.00799742
v 0.05090220 -0.14570713 0.00887573
v 0.04597966 -0.14538020 0.00766889
v 0.05263531 -0.14464104 0.01097429
v 0.02018750 -0.13815920 0.00950597
v 0.02018750 -0.13939587 -0.02492256
v 0.14314257 -0.15159197 -0.02881128
v 0.02018750 -0.13589909 -0.03158031
v 0.14314257 -0.15724936 0.00522838
v 0.13432051 -0.15520247 0.00723979
v 0.12967480 -0.15517403 0.00735377
v 0.11571358 -0.15511719 0.00759514
v 0.09246091 -0.14987201 0.01132294
v 0.08781520 -0.14978671 0.01130953
v 0.08316948 -0.14965879 0.01124919
v 0.07988377 -0.14943136 0.01108827
v 0.05090220 -0.14250886 0.01173192
v 0.02018750 -0.13582801 0.01120225
v 0.14018183 -0.14943136 -0.03108416
v 0.14314257 -0.14961614 -0.03122496
v 0.02018750 -0.13432127 -0.03255249
v 0.14314257 -0.15493238 0.00683080
v 0.13896623 -0.15511719 0.00703194
v 0.12501704 -0.15156353 0.00945233
v 0.12037132 -0.15156353 0.00968700
v 0.11571358 -0.15156353 0.00986802
v 0.08781520 -0.14691537 0.01212750
v 0.08316948 -0.14691537 0.01213420
v 0.09711866 -0.14981514 0.01125589
v 0.11571358 -0.13358211 0.01517813
v 0.11106785 -0.13144992 0.01578826
v 0.07387804 -0.14631836 0.01184590
v 0.05527110 -0.14225300 0.01217443
v 0.04597966 -0.14137170 0.01167158
v 0.02018750 -0.13446341 0.01154419
v 0.05062538 -0.13760483 0.01301252
v 0.14314257 -0.14694381 -0.03249885
v 0.02018750 -0.13295667 -0.03325648
v 0.14314257 -0.15156353 0.00796389
v 0.13896623 -0.15156353 0.00839970
v 0.13432051 -0.15156353 0.00884891
v 0.12967480 -0.15156353 0.00917074
v 0.12037132 -0.14855005 0.01078656
v 0.11571358 -0.14896227 0.01088043
v 0.06922029 -0.14225300 0.01284490
v 0.06457457 -0.14225300 0.01264376
v 0.05992885 -0.14225300 0.01242251
v 0.06922029 -0.11901218 0.01859751
v 0.12501704 -0.13760483 0.01386401
v 0.12037132 -0.13760483 0.01398470
v 0.11571358 -0.13125092 0.01572121
v 0.06457457 -0.08873516 0.02487310
v 0.06922029 -0.11434980 0.01960992
v 0.12037132 -0.05390947 0.03083356
v 0.09711866 -0.07251634 0.02760190
v 0.02018750 -0.13295667 0.01190624
v 0.05992885 -0.10505347 0.02138666
v 0.14314257 -0.14641786 -0.03262624
v 0.02018750 -0.13042648 -0.03379286
v 0.14314257 -0.13949538 0.01084020
v 0.14160202 -0.14010660 0.01098100
v 0.13432051 -0.13760483 0.01277785
v 0.12967480 -0.13760483 0.01347514
v 0.12967480 -0.14225300 0.01214761
v 0.11866227 -0.13086713 0.01562734
v 0.13746179 -0.05670974 0.02961331
v 0.13432051 -0.05949580 0.02926466
v 0.06457457 -0.08643240 0.02528879
v 0.05992885 -0.08819501 0.02478594
v 0.05992885 -0.10040532 0.02236554
v 0.07852375 -0.06786818 0.02877522
v 0.07852375 -0.06465568 0.02939205
v 0.13432051 -0.05716460 0.02970047
v 0.12037132 -0.04926131 0.03167164
v 0.05487392 -0.10549413 0.02090393
v 0.05527110 -0.10040532 0.02205713
v 0.05515074 -0.08646083 0.02457139
v 0.02018750 -0.04249517 0.02764883
v 0.14314257 -0.14225300 -0.03350455
v 0.02018750 -0.12830850 -0.03410797
v 0.14314257 -0.11777551 0.01586871
v 0.14314257 -0.09159229 0.02182247
v 0.14314257 -0.09110899 0.02192974
v 0.14314257 -0.08695833 0.02284828
v 0.13899031 -0.05838706 0.02911716
v 0.14314257 -0.05528828 0.02927137
v 0.14314257 -0.05504663 0.02931830
v 0.14314257 -0.04461314 0.03117550
v 0.06457457 -0.08181266 0.02603971
v 0.05992885 -0.08586381 0.02515469
v 0.05660704 -0.08491144 0.02499378
v 0.08316948 -0.05857185 0.03042457
v 0.07852375 -0.06232449 0.02975410
v 0.13896623 -0.03996498 0.03208733
v 0.13432051 -0.03996498 0.03224825
v 0.09246091 -0.03531682 0.03362941
v 0.08781520 -0.03531682 0.03364953
v 0.02018750 -0.02614842 0.03027036
v 0.14314257 -0.13760483 -0.03287431
v 0.02018750 -0.04481215 -0.02110090
v 0.07387804 -0.05390947 -0.02274354
v 0.14314257 -0.03996498 0.03172528
v 0.07387804 -0.06387388 0.02927807
v 0.06457457 -0.05729254 0.02972058
v 0.05527110 -0.03066866 0.03304610
v 0.08316948 -0.05390947 0.03105481
v 0.06631972 -0.02516762 0.03438704
v 0.13432051 -0.03531682 0.03174540
v 0.06734274 -0.02344766 0.03438704
v 0.06734274 -0.02516762 0.03438704
v 0.02272700 -0.02600628 0.03051843
v 0.02018750 -0.02124440 0.03029048
v 0.11435356 -0.03717892 -0.01708479
v 0.14314257 -0.01670995 -0.01017897
v 0.02018750 -0.03996498 -0.02032315
v 0.02272700 -0.03531682 -0.01944484
v 0.02737272 -0.03066866 -0.01853300
v 0.07387804 -0.04995782 -0.02198591
v 0.07852375 -0.04461314 -0.02072543
v 0.08316948 -0.04461314 -0.02046395
v 0.11106785 -0.03659613 -0.01719877
v 0.14314257 -0.03575747 0.03069276
v 0.06631972 -0.02344766 0.03438704
v 0.13931526 -0.03489038 0.03091401
v 0.13800338 -0.03268712 0.02998206
v 0.14314257 -0.01607029 0.01034405
v 0.02083742 -0.01895585 0.02961331
v 0.02018750 -0.01894164 0.02962672
v 0.12967480 -0.01670995 -0.01130536
v 0.13896623 -0.01607029 -0.01046057
v 0.14314257 -0.01607029 -0.01005829
v 0.02018750 -0.03531682 -0.01932416
v 0.02272700 -0.01607029 -0.01485884
v 0.02737272 -0.02633321 -0.01747366
v 0.03201844 -0.02394516 -0.01691047
v 0.04597966 -0.01607029 -0.01500634
v 0.06922029 -0.03531682 -0.01904926
v 0.07387804 -0.03996498 -0.01993428
v 0.07852375 -0.03996498 -0.01980689
v 0.08316948 -0.03996498 -0.01958564
v 0.11106785 -0.03426494 -0.01666240
v 0.13984483 -0.01607029 0.01049826
v 0.02018750 -0.01842991 0.02715269
v 0.12967480 -0.01607029 -0.01115785
v 0.02018750 -0.01670995 -0.01485884
v 0.02018750 -0.01607029 -0.01470463
v 0.02673483 -0.01607029 -0.01490577
v 0.05062538 -0.01607029 -0.01487895
v 0.07387804 -0.03531682 -0.01892858
v 0.07852375 -0.03531682 -0.01872744
v 0.08316948 -0.03531682 -0.01848607
v 0.10642213 -0.03066866 -0.01607238
v 0.13517504 -0.01607029 0.01057201
v 0.13432051 -0.01607029 0.01057872
v 0.02018750 -0.01607029 0.01016303
v 0.11915573 -0.01881371 -0.01239822
v 0.06922029 -0.03066866 -0.01791617
f 1 2 3
f 1 3 9
f 1 9 24
f 1 24 37
f 1 37 57
f 1 57 70
f 1 70 87
f 1 87 108
f 1 108 130
f 1 130 150
f 1 150 164
f 1 164 180
f 1 180 195
f 1 195 207
f 1 207 198
f 1 198 197
f 1 197 184
f 1 184 167
f 1 167 152
f 1 152 132
f 1 132 111
f 1 111 90
f 1 90 73
f 1 73 60
f 1 60 45
f 1 45 44
f 1 44 43
f 1 43 58
f 1 58 40
f 1 40 26
f 1 26 13
f 1 13 4
f 1 4 5
f 1 5 6
f 1 6 7
f 1 7 8
f 1 8 2
f 2 9 3
f 2 8 10
f 2 10 11
f 2 11 12
f 2 12 9
f 4 13 6
f 4 6 5
f 6 14 15
f 6 15 16
f 6 16 17
f 6 17 7
f 6 13 18
f 6 18 14
f 7 17 19
f 7 19 20
f 7 20 21
f 7 21 8
f 8 21 10
f 9 12 22
f 9 22 23
f 9 23 24
f 10 21 11
f 11 21 12
f 12 21 25
f 12 25 22
f 13 26 27
f 13 27 18
f 14 28 42
f 14 42 59
f 14 59 72
f 14 72 89
f 14 89 110
f 14 110 131
f 14 131 151
f 14 151 166
f 14 166 183
f 14 183 178
f 14 178 174
f 14 174 154
f 14 154 140
f 14 140 139
f 14 139 138
f 14 138 136
f 14 136 135
f 14 135 134
f 14 134 133
f 14 133 112
f 14 112 91
f 14 91 74
f 14 74 61
f 14 61 46
f 14 46 29
f 14 29 15
f 14 18 28
f 15 29 16
f 16 29 30
f 16 30 31
f 16 31 32
f 16 32 19
f 16 19 17
f 18 27 28
f 19 32 33
f 19 33 21
f 19 21 20
f 21 33 34
f 21 34 35
f 21 35 25
f 22 25 23
f 23 25 36
f 23 36 24
f 24 36 37
f 25 35 38
f 25 38 39
f 25 39 36
f 26 40 27
f 27 40 41
f 27 41 28
f 28 41 43
f 28 43 44
f 28 44 45
f 28 45 42
f 29 46 30
f 30 46 47
f 30 47 48
f 30 48 49
f 30 49 50
f 30 50 31
f 31 50 32
f 32 50 33
f 33 50 51
f 33 51 52
f 33 52 53
f 33 53 35
f 33 35 34
f 35 53 52
f 35 52 54
f 35 54 55
f 35 55 38
f 36 39 37
f 37 39 38
f 37 38 54
f 37 54 56
f 37 56 57
f 38 55 54
f 40 58 41
f 41 58 43
f 42 45 60
f 42 60 59
f 46 61 47
f 47 61 62
f 47 62 63
f 47 63 64
f 47 64 48
f 48 64 65
f 48 65 66
f 48 66 67
f 48 67 49
f 49 67 50
f 50 67 68
f 50 68 51
f 51 68 52
f 52 68 56
f 52 56 54
f 56 69 70
f 56 70 57
f 56 68 67
f 56 67 69
f 59 71 72
f 59 60 71
f 60 73 72
f 60 72 71
f 61 74 75
f 61 75 62
f 62 75 76
f 62 76 77
f 62 77 78
f 62 78 63
f 63 78 65
f 63 65 64
f 65 79 80
f 65 80 66
f 65 78 81
f 65 81 82
f 65 82 83
f 65 83 79
f 66 80 67
f 67 80 84
f 67 84 85
f 67 85 69
f 69 85 86
f 69 86 70
f 70 86 85
f 70 85 88
f 70 88 87
f 72 73 90
f 72 90 89
f 74 91 92
f 74 92 93
f 74 93 94
f 74 94 75
f 75 94 76
f 76 94 95
f 76 95 96
f 76 96 77
f 77 96 78
f 78 96 81
f 79 83 80
f 80 97 98
f 80 98 99
f 80 99 84
f 80 83 100
f 80 100 97
f 81 96 101
f 81 101 102
f 81 102 82
f 82 102 101
f 82 101 103
f 82 103 83
f 83 104 105
f 83 105 100
f 83 103 106
f 83 106 107
f 83 107 104
f 84 99 85
f 85 99 100
f 85 100 88
f 87 88 108
f 88 100 109
f 88 109 108
f 89 90 110
f 90 111 110
f 91 112 113
f 91 113 114
f 91 114 115
f 91 115 116
f 91 116 92
f 92 116 93
f 93 95 94
f 93 116 95
f 95 116 101
f 95 101 96
f 97 100 98
f 98 100 99
f 100 105 109
f 101 117 103
f 101 116 115
f 101 115 118
f 101 118 119
f 101 119 117
f 103 117 119
f 103 119 106
f 104 120 121
f 104 121 122
f 104 122 105
f 104 107 123
f 104 123 124
f 104 124 120
f 105 122 109
f 106 119 125
f 106 125 126
f 106 126 124
f 106 124 123
f 106 123 107
f 108 109 127
f 108 127 128
f 108 128 129
f 108 129 130
f 109 122 128
f 109 128 127
f 110 111 131
f 111 132 131
f 112 133 113
f 113 133 114
f 114 133 134
f 114 134 115
f 115 134 135
f 115 135 136
f 115 136 118
f 118 137 138
f 118 138 139
f 118 139 140
f 118 140 126
f 118 126 125
f 118 125 119
f 118 136 137
f 120 124 141
f 120 141 121
f 121 141 142
f 121 142 143
f 121 143 129
f 121 129 128
f 121 128 122
f 124 126 144
f 124 144 145
f 124 145 141
f 126 140 146
f 126 146 147
f 126 147 148
f 126 148 149
f 126 149 144
f 129 143 130
f 130 143 150
f 131 132 151
f 132 152 153
f 132 153 151
f 136 138 137
f 140 154 146
f 141 145 155
f 141 155 156
f 141 156 142
f 142 156 157
f 142 157 143
f 143 157 150
f 144 158 159
f 144 159 145
f 144 149 158
f 145 156 155
f 145 159 157
f 145 157 156
f 146 154 160
f 146 160 161
f 146 161 147
f 147 161 148
f 148 161 162
f 148 162 149
f 149 162 159
f 149 159 158
f 150 157 163
f 150 163 164
f 151 153 165
f 151 165 166
f 152 167 153
f 153 167 168
f 153 168 169
f 153 169 170
f 153 170 171
f 153 171 192
f 153 192 172
f 153 172 173
f 153 173 165
f 154 174 160
f 157 159 163
f 159 162 161
f 159 161 175
f 159 175 163
f 160 174 176
f 160 176 161
f 161 176 177
f 161 177 178
f 161 178 179
f 161 179 180
f 161 180 175
f 163 175 164
f 164 175 180
f 165 173 181
f 165 181 182
f 165 182 183
f 165 183 166
f 167 184 168
f 168 184 185
f 168 185 169
f 169 185 186
f 169 186 187
f 169 187 188
f 169 188 189
f 169 189 170
f 170 190 191
f 170 191 171
f 170 189 190
f 171 191 192
f 172 192 173
f 173 193 181
f 173 192 193
f 174 177 176
f 174 178 177
f 178 183 182
f 178 182 196
f 178 196 200
f 178 200 188
f 178 188 199
f 178 199 185
f 178 185 198
f 178 198 207
f 178 207 206
f 178 206 205
f 178 205 194
f 178 194 180
f 178 180 179
f 180 194 195
f 181 196 182
f 181 193 196
f 184 197 185
f 185 197 198
f 185 199 186
f 186 199 187
f 187 199 188
f 188 200 201
f 188 201 189
f 189 201 190
f 190 201 191
f 191 201 202
f 191 202 192
f 192 202 203
f 192 203 193
f 193 203 204
f 193 204 196
f 194 205 195
f 195 205 206
f 195 206 207
f 196 208 200
f 196 204 203
f 196 203 202
f 196 202 208
f 200 208 202
f 200 202 209
f 200 209 201
f 201 209 202

