v -0.16308003 0.01250103 -0.02953461
v -0.16308003 0.01250103 -0.00871512
v -0.16308003 0.02515034 -0.02742349
v -0.14340962 0.04246286 -0.02386120
v -0.14004132 0.04246286 -0.02373359
v -0.12608864 0.04246286 -0.02317573
v -0.12480605 0.04246286 -0.02310645
v -0.10283417 0.01250103 -0.02616921
v -0.14100025 0.04246286 -0.00665140
v -0.14464427 0.04246286 -0.00722749
v -0.16308003 0.04246286 -0.01044339
v -0.04063447 0.01250103 0.00359062
v -0.04704743 0.04246286 0.00718208
v -0.04856976 0.04246286 0.00701071
v -0.05112295 0.04246286 0.00671537
v -0.05270521 0.04246286 0.00648566
v -0.16308003 0.04246286 -0.02431697
v -0.14469221 0.04246286 -0.02390131
v -0.12119801 0.04246286 -0.02264339
v -0.11043383 0.04126627 -0.02157872
v -0.10748506 0.03801962 -0.02194333
v -0.10748506 0.03444743 -0.02270538
v -0.05748796 0.01944011 -0.01721793
v -0.10261841 0.01250103 -0.02613275
v -0.04063447 0.01250103 -0.01314518
v -0.04063447 0.04246286 0.00770712
v -0.11132086 0.04246286 -0.02131620
v -0.10748506 0.04246286 -0.02067812
v -0.05329257 0.03758556 -0.01256545
v -0.05609749 0.02079508 -0.01670017
v -0.05444331 0.01585032 -0.01686790
v -0.05676875 0.01585032 -0.01740753
v -0.05663690 0.01250103 -0.01746951
v -0.04063447 0.01459214 -0.01287172
v -0.05431145 0.01250103 -0.01689707
v -0.04063447 0.04246286 -0.00827393
v -0.05169832 0.04246286 -0.01070956
v -0.04063447 0.03917809 -0.00909432
v -0.04063447 0.03788177 -0.00933861
v -0.04063447 0.03734507 -0.00943705
v -0.04063447 0.03444743 -0.00989282
v -0.04063447 0.02025251 -0.01209874
v -0.04063447 0.02012053 -0.01211697
f 1 2 11
f 1 11 17
f 1 17 3
f 1 3 4
f 1 4 5
f 1 5 6
f 1 6 7
f 1 7 8
f 1 8 24
f 1 24 33
f 1 33 35
f 1 35 25
f 1 25 12
f 1 12 2
f 2 9 10
f 2 10 11
f 2 12 13
f 2 13 14
f 2 14 15
f 2 15 16
f 2 16 9
f 3 17 18
f 3 18 4
f 4 18 17
f 4 17 11
f 4 11 10
f 4 10 9
f 4 9 16
f 4 16 15
f 4 15 14
f 4 14 13
f 4 13 26
f 4 26 36
f 4 36 37
f 4 37 28
f 4 28 27
f 4 27 19
f 4 19 7
f 4 7 6
f 4 6 5
f 7 19 20
f 7 20 21
f 7 21 22
f 7 22 8
f 8 22 23
f 8 23 24
f 12 25 34
f 12 34 43
f 12 43 42
f 12 42 41
f 12 41 40
f 12 40 39
f 12 39 38
f 12 38 36
f 12 36 26
f 12 26 13
f 19 27 20
f 20 27 28
f 20 28 29
f 20 29 21
f 21 29 30
f 21 30 22
f 22 30 23
f 23 30 31
f 23 31 32
f 23 32 24
f 24 32 33
f 25 35 31
f 25 31 34
f 28 37 29
f 29 37 36
f 29 36 38
f 29 38 30
f 30 38 39
f 30 39 40
f 30 40 41
f 30 41 42
f 30 42 43
f 30 43 34
f 30 34 31
f 31 35 33
f 31 33 32

