v -0.32321117 0.00626186 -0.02178417
v -0.32302265 0.00626186 -0.02911112
v -0.32319023 0.00626186 0.00019216
v -0.10920477 0.31269937 -0.01446174
v -0.10920477 0.31260935 -0.02178417
v -0.27423439 0.07516905 -0.03327149
v -0.30402264 0.03194081 -0.03419301
v -0.31891680 0.01031168 -0.03450470
v -0.32082309 0.00626186 -0.03539911
v -0.10920477 0.31257937 -0.02235335
v -0.10920477 0.31206939 -0.02911112
v -0.32310643 0.00626186 0.00595163
v -0.10920477 0.31257937 0.00019216
v -0.18641969 0.19984397 -0.03350639
v -0.21627081 0.15670573 -0.03441887
v -0.12837233 0.28123063 -0.03498804
v -0.28252984 0.06190959 -0.03469442
v -0.31411967 0.01229161 -0.03715631
v -0.30856841 0.01424153 -0.03981245
v -0.31095651 0.00935172 -0.04014220
v -0.31380544 0.00626186 -0.03932007
v -0.29939313 0.03422071 -0.03695756
v -0.27940856 0.05809974 -0.03957755
v -0.10920477 0.30486969 -0.03675880
v -0.11343629 0.30288979 -0.03391746
v -0.13501291 0.27295101 -0.03319470
v -0.28544164 0.00626186 0.00595163
v -0.10920477 0.31149942 0.00595163
v -0.19115397 0.18289466 -0.03971307
v -0.29643943 0.03161083 -0.04018286
v -0.31095651 0.00839177 -0.04014220
v -0.31317701 0.00626186 -0.03964982
v -0.29681650 0.02729100 -0.04019189
v -0.28148243 0.05320994 -0.04013768
v -0.19373059 0.17800486 -0.04016027
v -0.10920477 0.29838994 -0.03897224
v -0.12384753 0.27640085 -0.03976276
v -0.15719701 0.22939276 -0.04017382
v -0.30150888 0.00626186 -0.02958995
v -0.30215828 0.00716182 -0.03475766
v -0.27815169 0.01307158 0.00595163
v -0.10920477 0.26215143 0.00595163
v -0.31034902 0.00839177 -0.04014220
v -0.30804471 0.00626186 -0.03819528
v -0.29535012 0.02729100 -0.04019189
v -0.10920477 0.29104024 -0.03891352
v -0.11651567 0.28372055 -0.03935620
v -0.13461488 0.25771162 -0.04013317
v -0.13461488 0.25864157 -0.04013317
v -0.13509668 0.25864157 -0.04013317
v -0.15617054 0.22939276 -0.04017382
v -0.30456730 0.00626186 -0.03604056
v -0.29830382 0.01853135 -0.03903096
v -0.29541296 0.01547148 -0.03414784
v -0.25617707 0.04238038 0.00595163
v -0.10960278 0.25483174 0.00595163
v -0.10920477 0.27958073 -0.02911112
v -0.30546809 0.01112166 -0.03964531
v -0.29593668 0.02342115 -0.04013768
v -0.30680876 0.00626186 -0.03771645
v -0.15617054 0.22789282 -0.04017382
v -0.10920477 0.28390055 -0.03602249
v -0.12384753 0.26908113 -0.03876445
v -0.29419797 0.02057127 -0.03652842
v -0.21955968 0.09370829 0.00595163
v -0.22913298 0.11020762 -0.03454987
v -0.11980453 0.26485131 -0.03365546
v -0.11697653 0.24019233 0.00595163
v -0.11161380 0.27817077 -0.03473959
v -0.12393132 0.26215143 -0.03583276
v -0.11831721 0.26908113 -0.03522746
v -0.12642415 0.25651167 -0.03463118
f 1 2 9
f 1 9 21
f 1 21 32
f 1 32 44
f 1 44 60
f 1 60 52
f 1 52 39
f 1 39 27
f 1 27 12
f 1 12 3
f 1 3 4
f 1 4 5
f 1 5 2
f 2 6 7
f 2 7 8
f 2 8 9
f 2 5 10
f 2 10 11
f 2 11 6
f 3 12 13
f 3 13 4
f 4 13 28
f 4 28 42
f 4 42 57
f 4 57 62
f 4 62 46
f 4 46 36
f 4 36 24
f 4 24 11
f 4 11 10
f 4 10 5
f 6 11 14
f 6 14 15
f 6 15 7
f 7 15 8
f 8 15 16
f 8 16 17
f 8 17 9
f 9 18 19
f 9 19 20
f 9 20 21
f 9 17 16
f 9 16 22
f 9 22 23
f 9 23 18
f 11 24 25
f 11 25 16
f 11 16 26
f 11 26 14
f 12 27 41
f 12 41 55
f 12 55 65
f 12 65 68
f 12 68 56
f 12 56 42
f 12 42 28
f 12 28 13
f 14 26 16
f 14 16 15
f 16 25 24
f 16 24 29
f 16 29 23
f 16 23 22
f 18 23 30
f 18 30 19
f 19 30 20
f 20 31 32
f 20 32 21
f 20 30 33
f 20 33 31
f 23 34 30
f 23 29 35
f 23 35 34
f 24 36 37
f 24 37 38
f 24 38 29
f 27 39 40
f 27 40 41
f 29 38 35
f 30 34 35
f 30 35 38
f 30 38 33
f 31 33 45
f 31 45 43
f 31 43 32
f 32 43 44
f 33 38 51
f 33 51 45
f 36 46 47
f 36 47 37
f 37 47 48
f 37 48 49
f 37 49 50
f 37 50 38
f 38 50 49
f 38 49 51
f 39 52 40
f 40 52 53
f 40 53 54
f 40 54 41
f 41 54 55
f 42 56 57
f 43 58 44
f 43 45 59
f 43 59 58
f 44 58 60
f 45 51 61
f 45 61 59
f 46 62 63
f 46 63 48
f 46 48 47
f 48 61 51
f 48 51 49
f 48 63 59
f 48 59 61
f 52 60 53
f 53 59 64
f 53 64 54
f 53 60 58
f 53 58 59
f 54 65 55
f 54 64 66
f 54 66 67
f 54 67 65
f 56 68 69
f 56 69 62
f 56 62 57
f 59 66 64
f 59 63 70
f 59 70 71
f 59 71 72
f 59 72 66
f 62 69 71
f 62 71 70
f 62 70 63
f 65 67 68
f 66 72 67
f 67 72 69
f 67 69 68
f 69 72 71

