v 0.06524442 -0.26582499 -0.43212069
v 0.06455253 -0.26582499 -0.42480029
v 0.06357102 -0.27034530 -0.42480029
v 0.06410736 -0.27094294 -0.43212069
v 0.06386065 -0.27052554 -0.43649329
v 0.06421464 -0.26582499 -0.43677578
v 0.06376411 -0.26159875 -0.43639502
v 0.06414491 -0.26119083 -0.43212069
v 0.06398401 -0.26111494 -0.42480029
v 0.06320094 -0.26187860 -0.40492712
v 0.06320094 -0.26271817 -0.40492712
v 0.05599784 -0.26993739 -0.38284310
v 0.06105556 -0.27400707 -0.42480029
v 0.06315267 -0.26972869 -0.42039085
v 0.05680772 -0.26401306 -0.36618796
v 0.04862846 -0.26257113 -0.31700863
v 0.05441562 -0.26767486 -0.36618796
v 0.05489833 -0.28343668 -0.43212069
v 0.05739233 -0.27913929 -0.42480029
v 0.05683990 -0.27896379 -0.43656698
v 0.05930708 -0.27304421 -0.43737762
v 0.05934463 -0.26582499 -0.43847075
v 0.05934463 -0.26020899 -0.43705828
v 0.05026967 -0.25360164 -0.43650555
v 0.05515578 -0.25523330 -0.43347177
v 0.05862056 -0.25722547 -0.43146972
v 0.05569748 -0.25482539 -0.42858332
v 0.05936608 -0.25745314 -0.42480029
v 0.05568139 -0.25483962 -0.36249091
v 0.05000686 -0.25249645 -0.31418365
v 0.05336438 -0.25850141 -0.33688180
v 0.05575111 -0.26228177 -0.35480204
v 0.05531668 -0.27630283 -0.40281451
v 0.05567066 -0.27680087 -0.40653614
v 0.04615055 -0.26537438 -0.31418365
v 0.04832811 -0.26945358 -0.34067709
v 0.05670581 -0.27824754 -0.41746760
v 0.05612119 -0.26292212 -0.35886756
v 0.04985669 -0.25896625 -0.31418365
v 0.04952952 -0.25963029 -0.31418365
v 0.04664934 -0.26465339 -0.31418365
v 0.05123509 -0.28556637 -0.43212069
v 0.05048421 -0.28510154 -0.43665293
v 0.05435126 -0.28280106 -0.42480029
v 0.04991032 -0.28513948 -0.41746760
v 0.05068802 -0.28550473 -0.42480029
v 0.04956170 -0.27838510 -0.38082876
v 0.05255987 -0.28103659 -0.43745131
v 0.05201815 -0.27315330 -0.43909717
v 0.05201815 -0.26582499 -0.43942883
v 0.04468632 -0.25850141 -0.43883926
v 0.05243651 -0.25800812 -0.43763553
v 0.04468632 -0.25260080 -0.43694774
v 0.04423043 -0.24910030 -0.43183820
v 0.05243651 -0.25307512 -0.43146972
v 0.05201815 -0.25225929 -0.42480029
v 0.04316847 -0.24600768 -0.38082876
v 0.05570284 -0.25482064 -0.42480029
v 0.05570284 -0.25482064 -0.38082876
v 0.05569748 -0.25482539 -0.37352065
v 0.04316847 -0.24600768 -0.31418365
v 0.04683171 -0.24882045 -0.31489602
v 0.04683171 -0.24883468 -0.31418365
v 0.04972260 -0.25214071 -0.31418365
v 0.05000686 -0.25298026 -0.31418365
v 0.04493841 -0.27315330 -0.33688180
v 0.04593064 -0.26568269 -0.31418365
v 0.04608082 -0.28556637 -0.43212069
v 0.04705160 -0.28510154 -0.43665293
v 0.04468632 -0.27315330 -0.43925687
v 0.05024822 -0.27924838 -0.38816145
v 0.04118936 -0.27696688 -0.33247236
v 0.04853192 -0.28427148 -0.40491483
v 0.04616127 -0.28513948 -0.41746760
v 0.04578047 -0.28550473 -0.42480029
v 0.04468632 -0.26582499 -0.43964990
v 0.03736522 -0.26582499 -0.43886378
v 0.03733304 -0.25871486 -0.43732851
v 0.03974659 -0.25309409 -0.43661609
v 0.04083001 -0.24736901 -0.42919744
v 0.04148434 -0.24736901 -0.42919744
v 0.04552302 -0.24861172 -0.42480029
v 0.04295393 -0.24651523 -0.41014720
v 0.04661716 -0.24858326 -0.41014720
v 0.04678343 -0.24858326 -0.40281451
v 0.05201815 -0.25222609 -0.38082876
v 0.04312020 -0.24633973 -0.40281451
v 0.03429732 -0.23977033 -0.32222871
v 0.03465131 -0.24001698 -0.31418365
v 0.04266431 -0.24565194 -0.31418365
v 0.04213869 -0.27091923 -0.31418365
v 0.03337481 -0.27707123 -0.43049938
v 0.03382534 -0.27671549 -0.43537557
v 0.04211723 -0.28343193 -0.42480029
v 0.03870608 -0.27821908 -0.43664067
v 0.03670551 -0.27382683 -0.43770928
v 0.04463805 -0.28059071 -0.43750047
v 0.03641052 -0.27524033 -0.31418365
v 0.03600290 -0.27549646 -0.31418365
v 0.03472104 -0.27704751 -0.32405880
v 0.04785076 -0.28427148 -0.40491483
v 0.03333191 -0.27704751 -0.32405880
v 0.03313882 -0.27717558 -0.32954911
v 0.03169069 -0.27182995 -0.43683721
v 0.03176578 -0.26582499 -0.43693543
v 0.03313346 -0.26129993 -0.43627217
v 0.03883481 -0.25086002 -0.43183820
v 0.03396479 -0.25521907 -0.42731822
v 0.03350890 -0.24733106 -0.40000182
v 0.01910804 -0.24035849 -0.31418365
v 0.02386542 -0.23800109 -0.32222871
v 0.03364835 -0.24016876 -0.35534247
v 0.03372880 -0.24016876 -0.35534247
v 0.03003875 -0.23716629 -0.31418365
v 0.03388970 -0.23949994 -0.31418365
v 0.03429732 -0.23977033 -0.31418365
v 0.03736522 -0.28015908 -0.42480029
v 0.03319245 -0.27720878 -0.42480029
v 0.02477184 -0.27097615 -0.40281451
v 0.02516874 -0.27082911 -0.41014720
v 0.02553345 -0.27055875 -0.41746760
v 0.02952922 -0.27381735 -0.42480029
v 0.02590353 -0.27015557 -0.42480029
v 0.02621461 -0.26975240 -0.42951678
v 0.03736522 -0.28014485 -0.38816145
v 0.03141716 -0.27548698 -0.31418365
v 0.02425159 -0.27098089 -0.31418365
v 0.02947022 -0.27464269 -0.32954911
v 0.03312809 -0.27721827 -0.38082876
v 0.02621461 -0.26909307 -0.42951678
v 0.02837608 -0.26632302 -0.43203471
v 0.03221631 -0.25996706 -0.43212069
v 0.03477467 -0.25630529 -0.43212069
v 0.03149761 -0.25799864 -0.42484943
v 0.02757156 -0.25654719 -0.40281451
v 0.01700557 -0.24322815 -0.31418365
v 0.03340699 -0.25445542 -0.42244203
v 0.02190776 -0.23797738 -0.31418365
v 0.02230466 -0.23786828 -0.31418365
v 0.02933077 -0.23711409 -0.31418365
v 0.03003875 -0.23758843 -0.32222871
v 0.03003875 -0.23718526 -0.31489602
v 0.03314955 -0.27722301 -0.41014720
v 0.03317101 -0.27722301 -0.41746760
v 0.03312809 -0.27722301 -0.38816145
v 0.03312809 -0.27722301 -0.40281451
v 0.02946486 -0.27463795 -0.40281451
v 0.02457876 -0.27098089 -0.39549411
v 0.01595434 -0.26471505 -0.33688180
v 0.01671058 -0.26469608 -0.35153487
v 0.01725765 -0.26448264 -0.35886756
v 0.01063380 -0.25741045 -0.31418365
v 0.01045680 -0.25670372 -0.31418365
v 0.01890960 -0.26251895 -0.37813887
v 0.02058835 -0.26840531 -0.31418365
v 0.02946486 -0.27464743 -0.38082876
v 0.01890960 -0.26190705 -0.37813887
v 0.02635406 -0.26212524 -0.41391794
v 0.02750720 -0.26454430 -0.42480029
v 0.02590889 -0.26144222 -0.41014720
v 0.02506683 -0.26020899 -0.40281451
v 0.01324043 -0.24880148 -0.31418365
v 0.02946486 -0.27464743 -0.38816145
v 0.02946486 -0.27464269 -0.39549411
v 0.02058835 -0.26840531 -0.32954911
v 0.02060444 -0.26835788 -0.35153487
v 0.01585243 -0.26474351 -0.32954911
v 0.01219992 -0.26107225 -0.31418365
v 0.01222138 -0.26099636 -0.31489602
v 0.01045680 -0.25302295 -0.31418365
v 0.01586316 -0.26474351 -0.31418365
v 0.01550917 -0.26445892 -0.31418365
f 1 2 3
f 1 3 4
f 1 4 5
f 1 5 6
f 1 6 7
f 1 7 8
f 1 8 9
f 1 9 10
f 1 10 11
f 1 11 2
f 2 11 3
f 3 12 13
f 3 13 4
f 3 11 14
f 3 14 15
f 3 15 16
f 3 16 17
f 3 17 12
f 4 18 5
f 4 13 19
f 4 19 18
f 5 20 21
f 5 21 22
f 5 22 6
f 5 18 20
f 6 22 7
f 7 22 23
f 7 23 24
f 7 24 25
f 7 25 26
f 7 26 8
f 8 26 27
f 8 27 28
f 8 28 29
f 8 29 9
f 9 29 10
f 10 29 30
f 10 30 31
f 10 31 11
f 11 31 32
f 11 32 14
f 12 33 34
f 12 34 13
f 12 17 35
f 12 35 36
f 12 36 33
f 13 37 19
f 13 34 37
f 14 32 38
f 14 38 15
f 15 38 16
f 16 39 40
f 16 40 41
f 16 41 35
f 16 35 17
f 16 38 32
f 16 32 39
f 18 42 43
f 18 43 20
f 18 19 44
f 18 44 45
f 18 45 46
f 18 46 42
f 19 37 47
f 19 47 44
f 20 43 48
f 20 48 21
f 21 48 49
f 21 49 22
f 22 49 50
f 22 50 51
f 22 51 52
f 22 52 23
f 23 52 24
f 24 52 53
f 24 53 54
f 24 54 55
f 24 55 25
f 25 55 26
f 26 55 27
f 27 55 56
f 27 56 57
f 27 57 58
f 27 58 28
f 28 58 59
f 28 59 60
f 28 60 29
f 29 61 62
f 29 62 63
f 29 63 64
f 29 64 30
f 29 60 61
f 30 64 63
f 30 63 61
f 30 61 90
f 30 90 89
f 30 89 116
f 30 116 115
f 30 115 114
f 30 114 140
f 30 140 139
f 30 139 138
f 30 138 110
f 30 110 136
f 30 136 162
f 30 162 170
f 30 170 153
f 30 153 152
f 30 152 168
f 30 168 172
f 30 172 171
f 30 171 155
f 30 155 127
f 30 127 126
f 30 126 99
f 30 99 98
f 30 98 91
f 30 91 67
f 30 67 35
f 30 35 41
f 30 41 40
f 30 40 39
f 30 39 65
f 30 65 31
f 31 65 39
f 31 39 32
f 33 36 66
f 33 66 34
f 34 66 47
f 34 47 37
f 35 67 36
f 36 67 66
f 42 68 69
f 42 69 43
f 42 46 75
f 42 75 68
f 43 69 70
f 43 70 48
f 44 47 71
f 44 71 72
f 44 72 73
f 44 73 45
f 45 74 75
f 45 75 46
f 45 73 101
f 45 101 74
f 47 66 72
f 47 72 71
f 48 70 49
f 49 70 76
f 49 76 50
f 50 76 51
f 51 76 77
f 51 77 78
f 51 78 79
f 51 79 53
f 51 53 52
f 53 79 80
f 53 80 54
f 54 80 81
f 54 81 82
f 54 82 55
f 55 82 56
f 56 82 83
f 56 83 84
f 56 84 85
f 56 85 57
f 57 86 58
f 57 85 84
f 57 84 87
f 57 87 88
f 57 88 89
f 57 89 86
f 58 86 59
f 59 86 90
f 59 90 61
f 59 61 60
f 61 63 62
f 66 67 91
f 66 91 72
f 68 92 93
f 68 93 69
f 68 75 94
f 68 94 92
f 69 93 95
f 69 95 96
f 69 96 97
f 69 97 70
f 70 97 96
f 70 96 77
f 70 77 76
f 72 91 98
f 72 98 99
f 72 99 100
f 72 100 73
f 73 100 102
f 73 102 101
f 74 101 102
f 74 102 75
f 75 102 103
f 75 103 94
f 77 96 104
f 77 104 105
f 77 105 78
f 78 105 106
f 78 106 79
f 79 106 107
f 79 107 80
f 80 107 108
f 80 108 109
f 80 109 110
f 80 110 111
f 80 111 112
f 80 112 113
f 80 113 81
f 81 83 82
f 81 113 83
f 83 87 84
f 83 113 87
f 86 89 90
f 87 113 114
f 87 114 88
f 88 114 115
f 88 115 116
f 88 116 89
f 92 94 117
f 92 117 118
f 92 118 119
f 92 119 120
f 92 120 121
f 92 121 122
f 92 122 123
f 92 123 124
f 92 124 93
f 93 104 95
f 93 124 104
f 94 125 117
f 94 103 125
f 95 104 96
f 99 126 102
f 99 102 100
f 102 126 103
f 103 126 127
f 103 127 128
f 103 128 129
f 103 129 125
f 104 130 105
f 104 124 130
f 105 130 131
f 105 131 106
f 106 131 132
f 106 132 133
f 106 133 107
f 107 133 108
f 108 133 132
f 108 132 134
f 108 134 135
f 108 135 136
f 108 136 137
f 108 137 109
f 109 137 136
f 109 136 110
f 110 138 111
f 111 138 139
f 111 139 140
f 111 140 141
f 111 141 112
f 112 141 113
f 113 141 142
f 113 142 114
f 114 142 140
f 117 143 144
f 117 144 118
f 117 125 145
f 117 145 146
f 117 146 143
f 118 144 147
f 118 147 148
f 118 148 119
f 119 148 149
f 119 149 150
f 119 150 120
f 120 150 121
f 121 123 122
f 121 150 123
f 123 150 151
f 123 151 124
f 124 151 152
f 124 152 153
f 124 153 154
f 124 154 157
f 124 157 130
f 125 129 145
f 127 155 156
f 127 156 145
f 127 145 128
f 128 145 129
f 130 157 158
f 130 158 159
f 130 159 131
f 131 159 132
f 132 159 134
f 134 159 158
f 134 158 160
f 134 160 161
f 134 161 135
f 135 161 136
f 136 161 162
f 140 142 141
f 143 146 147
f 143 147 144
f 145 156 163
f 145 163 146
f 146 163 164
f 146 164 147
f 147 164 165
f 147 165 166
f 147 166 148
f 148 166 149
f 149 166 167
f 149 167 168
f 149 168 150
f 150 168 169
f 150 169 152
f 150 152 151
f 152 169 168
f 153 170 157
f 153 157 154
f 155 171 167
f 155 167 165
f 155 165 163
f 155 163 156
f 157 170 160
f 157 160 158
f 160 170 161
f 161 170 162
f 163 165 164
f 165 167 166
f 167 171 172
f 167 172 168

