v 0.28688978 0.04926003 -0.42479272
v 0.28431902 0.04347771 -0.42479272
v 0.28456462 0.04306640 -0.43212232
v 0.28661284 0.04926003 -0.43212232
v 0.28540063 0.05547758 -0.42479272
v 0.28514981 0.05544888 -0.41747536
v 0.28485720 0.05532453 -0.41014576
v 0.28309114 0.05347840 -0.39002911
v 0.28309114 0.05239750 -0.39002911
v 0.28594405 0.04926003 -0.41747536
v 0.28174305 0.03981415 -0.42479272
v 0.27573418 0.03070783 -0.42735014
v 0.28462730 0.04867654 -0.40993774
v 0.28362932 0.04446774 -0.41747536
v 0.28194161 0.03940283 -0.43212232
v 0.27556175 0.03089436 -0.43584219
v 0.28392714 0.04397034 -0.43663758
v 0.28436606 0.04926003 -0.43687007
v 0.28378608 0.05392797 -0.43638060
v 0.28488333 0.05496583 -0.43212232
v 0.28088091 0.05862461 -0.43212232
v 0.28126757 0.05914114 -0.42479272
v 0.28128325 0.05911245 -0.41747536
v 0.27739577 0.06173338 -0.36619260
v 0.27668515 0.06165686 -0.34420380
v 0.27635074 0.06137468 -0.33687420
v 0.27557220 0.06036074 -0.32467450
v 0.27557220 0.06008813 -0.32467450
v 0.27242146 0.05658239 -0.31489762
v 0.27576555 0.05252185 -0.34638187
v 0.28105334 0.04080417 -0.41747536
v 0.27391062 0.04054112 -0.38082734
v 0.27770405 0.03410357 -0.42486615
v 0.26819958 0.03093262 -0.40638918
v 0.26816302 0.03093262 -0.40638918
v 0.27184670 0.03073653 -0.42716657
v 0.27234308 0.03075088 -0.43159616
v 0.27571851 0.03073175 -0.43212232
v 0.27210797 0.04193289 -0.36619260
v 0.26839814 0.03800149 -0.36170184
v 0.26885796 0.03746104 -0.36619260
v 0.26113526 0.03807323 -0.33155137
v 0.28266789 0.04584995 -0.40735585
v 0.28075552 0.04241117 -0.40993774
v 0.27766225 0.04984831 -0.36619260
v 0.26983503 0.05057528 -0.32222722
v 0.27511762 0.03089436 -0.43584219
v 0.27234308 0.03411314 -0.43706583
v 0.27184670 0.04193289 -0.43932956
v 0.27685758 0.03460576 -0.43656415
v 0.27948581 0.04168897 -0.43767762
v 0.27917231 0.04926003 -0.43871777
v 0.27897376 0.05645325 -0.43712699
v 0.27639778 0.06079119 -0.43628270
v 0.27721812 0.06135555 -0.43212232
v 0.26849743 0.06778353 -0.43044593
v 0.27236921 0.06535391 -0.42479272
v 0.27241101 0.06539695 -0.41747536
v 0.27762045 0.06173338 -0.41747536
v 0.27241101 0.06539695 -0.36619260
v 0.27241101 0.06537782 -0.35153340
v 0.26872209 0.06796528 -0.31489762
v 0.26871687 0.06796528 -0.31461620
v 0.27198257 0.06390953 -0.31461620
v 0.27587527 0.06078640 -0.32955684
v 0.27235354 0.05655847 -0.31461620
v 0.27223860 0.05638151 -0.31461620
v 0.26910353 0.05159878 -0.31461620
v 0.26655890 0.04789695 -0.31489762
v 0.26524218 0.03268310 -0.40983984
v 0.26811598 0.03090393 -0.42785182
v 0.26028879 0.03807323 -0.33155137
v 0.25977671 0.03784366 -0.33687420
v 0.25934304 0.03755670 -0.34420380
v 0.25879964 0.03700669 -0.35886300
v 0.25871080 0.03678668 -0.36619260
v 0.26811598 0.03090393 -0.42880625
v 0.26286477 0.04303770 -0.31461620
v 0.26289089 0.04299944 -0.31489762
v 0.25719552 0.04051242 -0.31461620
v 0.27023215 0.03134394 -0.43368857
v 0.25992826 0.03763801 -0.43630718
v 0.26451590 0.03626536 -0.43700466
v 0.26451590 0.04193289 -0.43887678
v 0.26451590 0.04926003 -0.43959874
v 0.27184670 0.04926003 -0.43961101
v 0.27184670 0.05658239 -0.43877893
v 0.27184670 0.06240775 -0.43693123
v 0.27130330 0.06546869 -0.43258731
v 0.26870120 0.06791267 -0.42479272
v 0.26475625 0.06625784 -0.43258731
v 0.26735835 0.06778353 -0.43044593
v 0.25467180 0.07526372 -0.36473649
v 0.25545556 0.07559851 -0.35886300
v 0.25581609 0.07593808 -0.35153340
v 0.25605645 0.07622983 -0.34420380
v 0.26874821 0.06793180 -0.41747536
v 0.26451590 0.07091622 -0.38082734
v 0.26874821 0.06797484 -0.38082734
v 0.26874821 0.06797484 -0.34420380
v 0.26856011 0.06808006 -0.31461620
v 0.26665295 0.04810739 -0.31461620
v 0.26654845 0.04795913 -0.31461620
v 0.25871080 0.03675798 -0.41747536
v 0.25871080 0.03676277 -0.37352222
v 0.25719552 0.04047416 -0.31489762
v 0.25719552 0.03984762 -0.32222722
v 0.24986469 0.04305205 -0.31461620
v 0.25901908 0.03730321 -0.35153340
v 0.24986469 0.04304727 -0.31489762
v 0.24617056 0.04557255 -0.31461620
v 0.25909222 0.03704973 -0.43212232
v 0.26521084 0.03313746 -0.43159616
v 0.25871080 0.03676277 -0.42479272
v 0.25542943 0.03987632 -0.43212232
v 0.25279599 0.04452513 -0.43639282
v 0.25736795 0.04202376 -0.43716373
v 0.25719552 0.04926003 -0.43817935
v 0.26451590 0.05658239 -0.43891352
v 0.26451590 0.06267080 -0.43696792
v 0.25616617 0.07671288 -0.32222722
v 0.26019996 0.06113554 -0.43633165
v 0.26041419 0.06796050 -0.42232096
v 0.25307814 0.07526372 -0.36473649
v 0.24984381 0.07956817 -0.31461620
v 0.25618184 0.07672245 -0.31461620
v 0.25984466 0.07421152 -0.31489762
v 0.26451590 0.07094970 -0.32955684
v 0.26451590 0.07094970 -0.32222722
v 0.26434346 0.07106448 -0.31461620
v 0.25504277 0.03933587 -0.36619260
v 0.25504277 0.03933587 -0.37352222
v 0.24986469 0.04297553 -0.38815694
v 0.24617577 0.04557255 -0.38815694
v 0.24986469 0.04297553 -0.35886300
v 0.24250776 0.04815044 -0.31461620
v 0.24617056 0.04557255 -0.37352222
v 0.25504801 0.03940761 -0.42479272
v 0.24620190 0.04559646 -0.40653601
v 0.25070073 0.04307118 -0.42479272
v 0.25169871 0.04353989 -0.43212232
v 0.25099334 0.04926003 -0.43212232
v 0.25289004 0.04926003 -0.43634386
v 0.25340733 0.05311013 -0.43591561
v 0.25753515 0.05596063 -0.43696792
v 0.25593105 0.07685637 -0.31461620
v 0.25914448 0.06234557 -0.43212232
v 0.25831368 0.06432084 -0.42478048
v 0.25434261 0.05905506 -0.42479272
v 0.25576908 0.06340734 -0.41746312
v 0.25530925 0.06505260 -0.41014576
v 0.25336551 0.06779788 -0.39256203
v 0.25287958 0.06847703 -0.38815694
v 0.25207492 0.06958662 -0.38082734
v 0.24589362 0.07523024 -0.33450033
v 0.24537111 0.07591417 -0.32955684
v 0.24367296 0.07775074 -0.31461620
v 0.24960345 0.07950121 -0.31461620
v 0.25984466 0.07421152 -0.31461620
v 0.24250776 0.04815044 -0.32222722
v 0.24250776 0.04815522 -0.33687420
v 0.23758572 0.05181401 -0.31461620
v 0.23755959 0.05181879 -0.32955684
v 0.24765971 0.04926003 -0.41747536
v 0.24900256 0.04926003 -0.42479272
v 0.23761706 0.05181879 -0.33687420
v 0.23798281 0.05196706 -0.34420380
v 0.23878747 0.05278968 -0.36372084
v 0.25282211 0.05399015 -0.43212232
v 0.25548168 0.05764893 -0.43212232
v 0.25183456 0.05538671 -0.42479272
v 0.25132250 0.05708457 -0.41746312
v 0.25379921 0.05985856 -0.41991040
v 0.23980115 0.07325497 -0.31461620
v 0.23744987 0.05196227 -0.31461620
v 0.23363553 0.05717544 -0.31461620
v 0.23878747 0.05319143 -0.36372084
v 0.24574731 0.05371275 -0.40154357
v 0.23351013 0.06325429 -0.31461620
v 0.24942056 0.05658239 -0.41014576
v 0.23735057 0.06977315 -0.31461620
v 0.23351535 0.06330690 -0.31461620
v 0.23532848 0.06390953 -0.32222722
v 0.23700574 0.06428258 -0.32915302
f 1 2 3
f 1 3 4
f 1 4 5
f 1 5 6
f 1 6 7
f 1 7 8
f 1 8 9
f 1 9 10
f 1 10 2
f 2 11 12
f 2 12 3
f 2 10 13
f 2 13 14
f 2 14 31
f 2 31 11
f 3 12 15
f 3 15 16
f 3 16 17
f 3 17 4
f 4 17 18
f 4 18 19
f 4 19 20
f 4 20 5
f 5 20 21
f 5 21 22
f 5 22 23
f 5 23 24
f 5 24 25
f 5 25 6
f 6 25 7
f 7 25 26
f 7 26 27
f 7 27 8
f 8 27 28
f 8 28 9
f 9 13 10
f 9 28 29
f 9 29 30
f 9 30 13
f 11 31 32
f 11 32 33
f 11 33 12
f 12 34 35
f 12 35 36
f 12 36 37
f 12 37 38
f 12 38 15
f 12 33 32
f 12 32 39
f 12 39 40
f 12 40 41
f 12 41 42
f 12 42 34
f 13 43 14
f 13 30 43
f 14 44 31
f 14 43 30
f 14 30 45
f 14 45 46
f 14 46 44
f 15 38 16
f 16 47 48
f 16 48 49
f 16 49 50
f 16 50 17
f 16 38 47
f 17 50 51
f 17 51 52
f 17 52 18
f 18 52 19
f 19 52 53
f 19 53 54
f 19 54 20
f 20 54 21
f 21 54 55
f 21 55 22
f 22 55 56
f 22 56 57
f 22 57 58
f 22 58 59
f 22 59 60
f 22 60 61
f 22 61 62
f 22 62 23
f 23 62 24
f 24 62 63
f 24 63 25
f 25 63 26
f 26 63 64
f 26 64 65
f 26 65 27
f 27 65 64
f 27 64 66
f 27 66 28
f 28 66 29
f 29 66 30
f 30 66 67
f 30 67 68
f 30 68 46
f 30 46 45
f 31 44 32
f 32 44 46
f 32 46 69
f 32 69 39
f 34 42 72
f 34 72 35
f 35 70 71
f 35 71 36
f 35 72 73
f 35 73 74
f 35 74 75
f 35 75 76
f 35 76 70
f 36 71 77
f 36 77 37
f 37 77 47
f 37 47 38
f 39 69 40
f 40 69 78
f 40 78 79
f 40 79 41
f 41 79 42
f 42 79 78
f 42 78 80
f 42 80 72
f 46 68 69
f 47 77 81
f 47 81 82
f 47 82 83
f 47 83 48
f 48 83 84
f 48 84 49
f 49 85 86
f 49 86 52
f 49 52 51
f 49 51 50
f 49 84 85
f 52 86 87
f 52 87 53
f 53 87 88
f 53 88 54
f 54 88 89
f 54 89 55
f 55 89 56
f 56 90 57
f 56 89 88
f 56 88 91
f 56 91 92
f 56 92 124
f 56 124 93
f 56 93 94
f 56 94 95
f 56 95 96
f 56 96 90
f 57 90 58
f 58 90 97
f 58 97 98
f 58 98 99
f 58 99 59
f 59 99 100
f 59 100 60
f 60 100 101
f 60 101 62
f 60 62 61
f 62 101 63
f 63 101 130
f 63 130 159
f 63 159 126
f 63 126 146
f 63 146 125
f 63 125 158
f 63 158 157
f 63 157 174
f 63 174 181
f 63 181 182
f 63 182 179
f 63 179 176
f 63 176 175
f 63 175 162
f 63 162 136
f 63 136 111
f 63 111 108
f 63 108 80
f 63 80 78
f 63 78 103
f 63 103 102
f 63 102 68
f 63 68 67
f 63 67 66
f 63 66 64
f 68 102 69
f 69 102 103
f 69 103 78
f 70 104 77
f 70 77 71
f 70 76 105
f 70 105 104
f 72 80 106
f 72 106 107
f 72 107 73
f 73 107 108
f 73 108 74
f 74 108 109
f 74 109 75
f 75 109 108
f 75 108 76
f 76 108 110
f 76 110 111
f 76 111 105
f 77 112 113
f 77 113 81
f 77 104 114
f 77 114 112
f 80 108 106
f 81 113 82
f 82 113 112
f 82 112 115
f 82 115 116
f 82 116 117
f 82 117 83
f 83 117 84
f 84 118 85
f 84 117 118
f 85 118 119
f 85 119 86
f 86 119 87
f 87 119 88
f 88 119 120
f 88 120 91
f 90 96 121
f 90 121 97
f 91 120 122
f 91 122 123
f 91 123 92
f 92 123 124
f 93 124 125
f 93 125 94
f 94 125 95
f 95 125 96
f 96 125 121
f 97 121 98
f 98 121 126
f 98 126 127
f 98 127 99
f 99 127 128
f 99 128 129
f 99 129 100
f 100 129 101
f 101 129 130
f 104 105 131
f 104 131 132
f 104 132 133
f 104 133 134
f 104 134 114
f 105 111 131
f 106 108 107
f 108 111 110
f 111 135 131
f 111 136 160
f 111 160 137
f 111 137 133
f 111 133 135
f 112 114 138
f 112 138 115
f 114 134 139
f 114 139 138
f 115 138 140
f 115 140 141
f 115 141 116
f 116 142 143
f 116 143 118
f 116 118 117
f 116 141 142
f 118 143 144
f 118 144 145
f 118 145 119
f 119 145 122
f 119 122 120
f 121 125 146
f 121 146 126
f 122 144 147
f 122 147 123
f 122 145 144
f 123 147 148
f 123 148 149
f 123 149 150
f 123 150 151
f 123 151 152
f 123 152 153
f 123 153 154
f 123 154 155
f 123 155 124
f 124 155 156
f 124 156 157
f 124 157 158
f 124 158 125
f 126 159 127
f 127 159 129
f 127 129 128
f 129 159 130
f 131 135 133
f 131 133 132
f 133 137 134
f 134 137 160
f 134 160 161
f 134 161 139
f 136 162 163
f 136 163 160
f 138 139 140
f 139 164 165
f 139 165 141
f 139 141 140
f 139 161 163
f 139 163 166
f 139 166 167
f 139 167 168
f 139 168 164
f 141 165 142
f 142 165 144
f 142 144 143
f 144 165 169
f 144 169 170
f 144 170 147
f 147 170 148
f 148 170 149
f 149 171 172
f 149 172 173
f 149 173 150
f 149 170 169
f 149 169 171
f 150 173 174
f 150 174 151
f 151 174 152
f 152 174 153
f 153 174 155
f 153 155 154
f 155 174 156
f 156 174 157
f 160 163 161
f 162 175 163
f 163 175 176
f 163 176 166
f 164 177 178
f 164 178 165
f 164 168 177
f 165 178 169
f 166 176 167
f 167 176 168
f 168 176 179
f 168 179 177
f 169 178 171
f 171 180 172
f 171 178 180
f 172 180 181
f 172 181 173
f 173 181 174
f 177 179 182
f 177 182 178
f 178 182 183
f 178 183 184
f 178 184 181
f 178 181 180
f 181 184 183
f 181 183 182

