v 0.25191540 0.07158577 0.12464038
v 0.24624833 0.08230078 0.07682201
v 0.25133052 0.07809131 0.12464038
v 0.24795185 0.06505003 0.12464038
v 0.24813356 0.07196845 0.10277409
v 0.24744648 0.07306110 0.09545219
v 0.23929793 0.08140450 0.03229398
v 0.24624833 0.08200873 0.07682201
v 0.24652090 0.08258275 0.08079030
v 0.23929793 0.08380632 0.03229398
v 0.23979196 0.08464720 0.03684079
v 0.24063803 0.08529675 0.04416270
v 0.23833828 0.08696845 0.03229398
v 0.23830419 0.08831285 0.03684079
v 0.25126805 0.07819705 0.12464038
v 0.24687863 0.08289997 0.08812124
v 0.24791210 0.06498960 0.12464038
v 0.24722501 0.06612253 0.11743598
v 0.24662310 0.06696845 0.11172309
v 0.23346050 0.07178215 0.03229398
v 0.23884934 0.07493421 0.04792308
v 0.23845752 0.07553340 0.04416270
v 0.24063803 0.07919906 0.04416270
v 0.23841777 0.07966230 0.03229398
v 0.23599876 0.09048808 0.03229398
v 0.23837235 0.08896240 0.04416270
v 0.24727045 0.08303088 0.11743598
v 0.24722501 0.08303088 0.12464038
v 0.23845752 0.08920410 0.05149364
v 0.24536248 0.06138437 0.12464038
v 0.23154118 0.06025144 0.06248553
v 0.23088817 0.06832797 0.03229398
v 0.23751491 0.07808124 0.03229398
v 0.23460188 0.09182746 0.03229398
v 0.24253462 0.08640450 0.11743598
v 0.24261413 0.08634911 0.12464038
v 0.23845752 0.08925445 0.05882459
v 0.22958782 0.09549311 0.03229398
v 0.24123428 0.05615778 0.12464038
v 0.23191029 0.05991911 0.06614649
v 0.23573755 0.05446091 0.12464038
v 0.23072918 0.05991911 0.06614649
v 0.22055912 0.06455153 0.03229398
v 0.22746408 0.06541256 0.03229398
v 0.23479494 0.09184256 0.05149364
v 0.22958782 0.09550822 0.04416270
v 0.22958782 0.09550822 0.08812124
v 0.23853134 0.08921920 0.12464038
v 0.22731644 0.09709936 0.03229398
v 0.24097306 0.05606211 0.12464038
v 0.23542523 0.05457671 0.12464038
v 0.22850892 0.05871065 0.08812124
v 0.22904270 0.05906312 0.08079030
v 0.22971841 0.05941558 0.07347743
v 0.21758361 0.06589595 0.03229398
v 0.22591955 0.09808627 0.03229398
v 0.22958214 0.09550822 0.09545219
v 0.22591955 0.09808627 0.05882459
v 0.22070676 0.10174689 0.05882459
v 0.23840073 0.08930984 0.12464038
v 0.22957645 0.09550822 0.10277409
v 0.22828746 0.05815678 0.12464038
v 0.22847485 0.05858477 0.09545219
v 0.22484633 0.06062908 0.08812124
v 0.21580628 0.06685264 0.03229398
v 0.22012188 0.10202886 0.03229398
v 0.21703849 0.10430983 0.05882459
v 0.23479494 0.09179725 0.12464038
v 0.22953670 0.09550822 0.11010504
v 0.22461918 0.06052837 0.12464038
v 0.20844135 0.07165627 0.03229398
v 0.21873634 0.10293521 0.03229398
v 0.21683406 0.10417891 0.03229398
v 0.21498290 0.10518596 0.03229398
v 0.21363143 0.10579019 0.03229398
v 0.21698738 0.10427458 0.06282903
v 0.22587411 0.09794528 0.11010504
v 0.22590821 0.09802584 0.10277409
v 0.22871901 0.09546291 0.12464038
v 0.22942881 0.09548304 0.11743598
v 0.22576623 0.09780933 0.11743598
v 0.22047961 0.06350421 0.12464038
v 0.20038935 0.07738638 0.03229398
v 0.20620972 0.07322726 0.03229398
v 0.20626082 0.10590097 0.03229398
v 0.21313172 0.10580530 0.03684079
v 0.21649905 0.10427458 0.06282903
v 0.22505642 0.09734608 0.12464038
v 0.22865656 0.09549815 0.12464038
v 0.21588010 0.06683754 0.12464038
v 0.19866309 0.07878617 0.03229398
v 0.21221751 0.06958678 0.11743598
v 0.21221751 0.06971266 0.12464038
v 0.20731135 0.10580530 0.03684079
v 0.20347840 0.10376099 0.03229398
v 0.20938965 0.10438032 0.05595910
v 0.22340401 0.09734608 0.12464038
v 0.19486422 0.08240652 0.03229398
v 0.20752144 0.07313663 0.10277409
v 0.21214935 0.06977812 0.12464038
v 0.20300709 0.10333803 0.03229398
v 0.20014517 0.10005001 0.03229398
v 0.21665803 0.09712957 0.10753785
v 0.22334722 0.09731084 0.12464038
v 0.19395568 0.08536220 0.03229398
v 0.20844135 0.07337832 0.12464038
v 0.19771479 0.09673178 0.03229398
v 0.21467627 0.09371567 0.11003272
v 0.21606181 0.09065424 0.12464038
v 0.21754955 0.09649010 0.11241912
v 0.21974711 0.09431991 0.12464038
v 0.19791922 0.08589090 0.05882459
v 0.19391025 0.08632394 0.03229398
v 0.20848677 0.07503492 0.12464038
v 0.20212693 0.08247701 0.08541846
v 0.20212693 0.08185264 0.08541846
v 0.19618161 0.09448606 0.03229398
v 0.20944075 0.08241659 0.12164834
v 0.21235378 0.08552333 0.12464038
v 0.21599933 0.09056864 0.12464038
v 0.21611859 0.09071467 0.12464038
v 0.20860034 0.07866533 0.12464038
v 0.19410899 0.09094125 0.03229398
v 0.19391025 0.08759281 0.03229398
v 0.20877637 0.07907318 0.12464038
v 0.21184841 0.08476301 0.12464038
v 0.21220614 0.08531185 0.12464038
f 1 2 3
f 1 3 15
f 1 15 28
f 1 28 36
f 1 36 48
f 1 48 60
f 1 60 68
f 1 68 79
f 1 79 89
f 1 89 88
f 1 88 97
f 1 97 104
f 1 104 111
f 1 111 121
f 1 121 109
f 1 109 120
f 1 120 119
f 1 119 127
f 1 127 126
f 1 126 125
f 1 125 122
f 1 122 114
f 1 114 106
f 1 106 100
f 1 100 93
f 1 93 90
f 1 90 82
f 1 82 70
f 1 70 62
f 1 62 51
f 1 51 41
f 1 41 50
f 1 50 39
f 1 39 30
f 1 30 17
f 1 17 4
f 1 4 5
f 1 5 6
f 1 6 7
f 1 7 8
f 1 8 2
f 2 9 3
f 2 8 7
f 2 7 10
f 2 10 11
f 2 11 12
f 2 12 13
f 2 13 14
f 2 14 9
f 3 9 16
f 3 16 15
f 4 17 6
f 4 6 5
f 6 17 18
f 6 18 19
f 6 19 20
f 6 20 21
f 6 21 22
f 6 22 23
f 6 23 7
f 7 23 24
f 7 24 33
f 7 33 20
f 7 20 32
f 7 32 44
f 7 44 43
f 7 43 55
f 7 55 65
f 7 65 71
f 7 71 84
f 7 84 83
f 7 83 91
f 7 91 98
f 7 98 105
f 7 105 113
f 7 113 124
f 7 124 123
f 7 123 117
f 7 117 107
f 7 107 102
f 7 102 101
f 7 101 95
f 7 95 85
f 7 85 75
f 7 75 74
f 7 74 73
f 7 73 72
f 7 72 66
f 7 66 56
f 7 56 49
f 7 49 38
f 7 38 34
f 7 34 25
f 7 25 13
f 7 13 10
f 9 14 16
f 10 13 11
f 11 13 12
f 13 25 14
f 14 25 26
f 14 26 16
f 15 27 28
f 15 16 27
f 16 26 29
f 16 29 27
f 17 30 18
f 18 30 20
f 18 20 19
f 20 31 32
f 20 33 22
f 20 22 21
f 20 30 31
f 22 33 23
f 23 33 24
f 25 34 26
f 26 34 29
f 27 35 36
f 27 36 28
f 27 29 37
f 27 37 35
f 29 34 38
f 29 38 37
f 30 39 31
f 31 40 41
f 31 41 42
f 31 42 43
f 31 43 44
f 31 44 32
f 31 39 40
f 35 37 45
f 35 45 46
f 35 46 36
f 36 47 48
f 36 46 47
f 37 38 45
f 38 49 45
f 39 50 40
f 40 50 41
f 41 51 52
f 41 52 53
f 41 53 54
f 41 54 42
f 42 54 43
f 43 54 53
f 43 53 52
f 43 52 55
f 45 49 56
f 45 56 46
f 46 56 58
f 46 58 47
f 47 57 48
f 47 58 59
f 47 59 57
f 48 57 61
f 48 61 60
f 51 62 63
f 51 63 52
f 52 63 64
f 52 64 55
f 55 64 65
f 56 66 67
f 56 67 59
f 56 59 58
f 57 59 61
f 59 67 61
f 60 61 69
f 60 69 68
f 61 67 69
f 62 70 64
f 62 64 63
f 64 70 65
f 65 70 71
f 66 72 67
f 67 72 73
f 67 73 74
f 67 74 75
f 67 75 76
f 67 76 77
f 67 77 78
f 67 78 69
f 68 69 80
f 68 80 81
f 68 81 79
f 69 78 80
f 70 82 83
f 70 83 84
f 70 84 71
f 75 85 86
f 75 86 76
f 76 86 94
f 76 94 87
f 76 87 97
f 76 97 88
f 76 88 81
f 76 81 77
f 77 81 80
f 77 80 78
f 79 81 89
f 81 88 89
f 82 90 83
f 83 90 92
f 83 92 93
f 83 93 91
f 85 94 86
f 85 95 96
f 85 96 94
f 87 94 96
f 87 96 97
f 90 93 92
f 91 93 99
f 91 99 98
f 93 100 99
f 95 101 96
f 96 101 102
f 96 102 103
f 96 103 97
f 97 103 104
f 98 99 106
f 98 106 105
f 99 100 106
f 102 107 108
f 102 108 103
f 103 108 109
f 103 109 110
f 103 110 104
f 104 110 111
f 105 112 113
f 105 106 112
f 106 114 115
f 106 115 116
f 106 116 112
f 107 117 118
f 107 118 119
f 107 119 108
f 108 119 120
f 108 120 109
f 109 121 110
f 110 121 111
f 112 115 122
f 112 122 123
f 112 123 124
f 112 124 113
f 112 116 115
f 114 122 115
f 117 123 118
f 118 122 125
f 118 125 126
f 118 126 127
f 118 127 119
f 118 123 122

