v -0.06404129 0.31414347 -0.00713380
v -0.06404129 0.31414347 -0.02186224
v -0.06404129 0.31409101 0.00019206
v 0.11999579 0.17112064 0.00019206
v 0.11999579 0.17115561 -0.00713380
v -0.06404129 0.31402107 -0.02911137
v 0.11999579 0.17115561 -0.02468335
v 0.11999579 0.17113813 -0.02911137
v -0.06404129 0.31365385 0.00545963
v 0.11999579 0.17099823 0.00595614
v 0.11999579 0.17103320 0.00478256
v -0.06404129 0.31396860 -0.02933705
v 0.09248751 0.19227941 -0.03311508
v 0.11999579 0.17059604 -0.03086722
v -0.06404129 0.31360139 0.00595614
v 0.11999579 0.13551794 0.00595614
v -0.06060050 0.31010405 -0.03423901
v -0.06404129 0.31225492 -0.03615737
v 0.06350203 0.21452236 -0.03364320
v 0.11660905 0.17196000 -0.03497927
v 0.07141044 0.20773756 -0.03446019
v 0.11999579 0.16610198 -0.03687506
v -0.06404129 0.27565549 0.00595614
v 0.11999579 0.14837059 -0.03258246
v 0.10335030 0.14499567 0.00595614
v -0.06404129 0.31194017 -0.03655007
v 0.11079033 0.17416330 -0.03662680
v 0.11999579 0.16456317 -0.03780038
v -0.05788030 0.26951769 0.00595614
v -0.06404129 0.29113112 -0.03334980
v 0.11999579 0.14934983 -0.03456852
v 0.02271699 0.20527195 0.00595614
v 0.11297010 0.15447340 -0.03460012
v 0.00974648 0.24851630 -0.03968714
v -0.04876491 0.29272240 -0.03985415
v -0.06404129 0.30408869 -0.03948402
v 0.08865041 0.18848483 -0.03831044
v 0.11999579 0.15963195 -0.03927187
v 0.11459141 0.16304184 -0.04011595
v 0.09598234 0.18115794 -0.03891528
v -0.04323443 0.25766178 0.00595614
v -0.04842264 0.27890799 -0.03464977
v -0.06404129 0.29237266 -0.03556606
v -0.05647516 0.28562283 -0.03494316
v 0.11999579 0.15053892 -0.03570147
v -0.03233560 0.26532091 -0.03296613
v -0.00331409 0.24313042 -0.03348070
v 0.09196509 0.16989658 -0.03335883
v 0.02576146 0.22097491 -0.03380118
v -0.01138463 0.24989774 -0.03440151
v -0.01385263 0.25428688 -0.03639208
v 0.11833845 0.15195534 -0.03584140
v 0.00484652 0.25105186 -0.04015657
v 0.07809385 0.19240182 -0.04012949
v -0.05364686 0.29511808 -0.04015206
v -0.06404129 0.29831811 -0.03891980
v -0.05478179 0.29511808 -0.04015206
v -0.05478179 0.29419127 -0.04015206
v 0.11999579 0.15721879 -0.03927638
v 0.11459141 0.16272708 -0.04011595
v -0.04294620 0.27644239 -0.03607161
v -0.06404129 0.29714651 -0.03855869
v -0.05218768 0.28929503 -0.03982706
v -0.05031417 0.28392665 -0.03723616
v 0.11999579 0.15193785 -0.03651847
v 0.11111460 0.15954452 -0.03719102
v 0.00347741 0.24989774 -0.04015657
v 0.00347741 0.25105186 -0.04015657
v 0.07809385 0.19198214 -0.04012949
v -0.04730573 0.28710920 -0.04013852
v 0.11414104 0.16272708 -0.04011595
f 1 2 6
f 1 6 12
f 1 12 18
f 1 18 26
f 1 26 36
f 1 36 56
f 1 56 62
f 1 62 43
f 1 43 30
f 1 30 23
f 1 23 15
f 1 15 9
f 1 9 3
f 1 3 4
f 1 4 5
f 1 5 7
f 1 7 2
f 2 7 8
f 2 8 6
f 3 9 10
f 3 10 11
f 3 11 4
f 4 11 10
f 4 10 16
f 4 16 24
f 4 24 31
f 4 31 45
f 4 45 65
f 4 65 59
f 4 59 38
f 4 38 28
f 4 28 22
f 4 22 14
f 4 14 8
f 4 8 7
f 4 7 5
f 6 8 13
f 6 13 12
f 8 14 13
f 9 15 10
f 10 15 23
f 10 23 29
f 10 29 41
f 10 41 32
f 10 32 25
f 10 25 16
f 12 17 18
f 12 13 19
f 12 19 17
f 13 14 20
f 13 20 21
f 13 21 19
f 14 22 20
f 16 25 24
f 17 19 18
f 18 19 21
f 18 21 26
f 20 22 27
f 20 27 26
f 20 26 21
f 22 28 27
f 23 30 29
f 24 25 32
f 24 32 33
f 24 33 31
f 26 34 35
f 26 35 36
f 26 27 34
f 27 28 37
f 27 37 34
f 28 38 39
f 28 39 40
f 28 40 34
f 28 34 37
f 29 30 42
f 29 42 41
f 30 43 44
f 30 44 42
f 31 33 45
f 32 41 46
f 32 46 47
f 32 47 48
f 32 48 33
f 33 48 49
f 33 49 50
f 33 50 51
f 33 51 52
f 33 52 45
f 34 53 35
f 34 40 54
f 34 54 53
f 35 55 36
f 35 53 55
f 36 55 57
f 36 57 58
f 36 58 56
f 38 59 39
f 39 59 60
f 39 60 69
f 39 69 54
f 39 54 40
f 41 42 46
f 42 44 43
f 42 43 61
f 42 61 51
f 42 51 50
f 42 50 46
f 43 62 63
f 43 63 64
f 43 64 61
f 45 52 65
f 46 50 47
f 47 50 49
f 47 49 48
f 51 61 64
f 51 64 63
f 51 63 66
f 51 66 52
f 52 66 65
f 53 67 68
f 53 68 57
f 53 57 55
f 53 54 69
f 53 69 67
f 56 58 63
f 56 63 62
f 57 68 67
f 57 67 58
f 58 70 63
f 58 67 70
f 59 65 71
f 59 71 60
f 60 71 67
f 60 67 69
f 63 70 71
f 63 71 66
f 65 66 71
f 67 71 70

