v -0.30781167 -0.04870429 -0.28557074
v -0.32556267 -0.04244030 -0.31488431
v -0.32550179 -0.04241308 -0.32952168
v -0.32537244 -0.04234505 -0.35712691
v -0.30781167 -0.04867253 -0.29287002
v -0.30781167 -0.04828245 -0.27823265
v -0.32408659 -0.04290749 -0.04321936
v -0.32645667 -0.04290749 -0.04321936
v -0.32645667 -0.04290749 -0.04380175
v -0.32630069 -0.04282584 -0.10242888
v -0.32627407 -0.04281677 -0.10972815
v -0.32919580 -0.04015877 -0.32218356
v -0.32996045 -0.04062142 -0.10242888
v -0.32993382 -0.04060782 -0.10972815
v -0.32901317 -0.03975962 -0.42480048
v -0.32543332 -0.04237679 -0.34419788
v -0.30781167 -0.04864532 -0.29415126
v -0.30781167 -0.04550198 -0.27330175
v -0.30793722 -0.02558059 -0.04321936
v -0.30890732 -0.03052012 -0.04321936
v -0.31050515 -0.03403993 -0.04321936
v -0.31432088 -0.03752345 -0.04321936
v -0.32675342 -0.04273513 -0.04321936
v -0.33011642 -0.04073936 -0.04380175
v -0.33448000 -0.03627610 -0.42480048
v -0.33564031 -0.03707440 -0.04380175
v -0.33561748 -0.03706079 -0.05110101
v -0.33546151 -0.03696101 -0.10242888
v -0.33476913 -0.03648021 -0.32952168
v -0.33434685 -0.03621713 -0.43209975
v -0.32901317 -0.03939675 -0.43209975
v -0.30781167 -0.04848203 -0.30020811
v -0.30781167 -0.03868462 -0.27163222
v -0.30874375 -0.01841851 -0.04321936
v -0.30781167 -0.02909133 -0.27182635
v -0.30781167 -0.02405656 -0.27710668
v -0.30781167 -0.02338072 -0.27823265
v -0.30781167 -0.02245087 -0.28557074
v -0.33011642 -0.04073936 -0.04321936
v -0.33930389 -0.03451619 -0.04380175
v -0.33901476 -0.03431208 -0.13904172
v -0.33847833 -0.03393560 -0.31488431
v -0.33814356 -0.03369974 -0.42480048
v -0.33564031 -0.03707440 -0.04321936
v -0.33593706 -0.03687029 -0.04321936
v -0.33514956 -0.03674329 -0.20500695
v -0.33371153 -0.03578169 -0.43664240
v -0.33801041 -0.03353191 -0.43209975
v -0.32168986 -0.03819929 -0.43209975
v -0.32901317 -0.03702904 -0.43741892
v -0.32168986 -0.03644846 -0.43679769
v -0.30781167 -0.04840492 -0.30075166
v -0.30894537 -0.01791957 -0.04321936
v -0.30781167 -0.02246448 -0.28774498
v -0.33930389 -0.03451619 -0.04321936
v -0.34305114 -0.03114607 -0.04321936
v -0.34337832 -0.03085124 -0.04380175
v -0.34285711 -0.03006654 -0.41012427
v -0.34284572 -0.03004839 -0.41746239
v -0.34282286 -0.03003479 -0.42480048
v -0.34264026 -0.02986696 -0.43209975
v -0.34164734 -0.02903237 -0.43699182
v -0.33622618 -0.03142275 -0.43784596
v -0.31802628 -0.03501060 -0.43578820
v -0.32901317 -0.03134564 -0.43943784
v -0.32168986 -0.03134564 -0.43881661
v -0.31675186 -0.03134564 -0.43679769
v -0.30781167 -0.04568342 -0.30544960
v -0.31188613 -0.02572121 -0.43209975
v -0.30983177 -0.02206079 -0.43209975
v -0.31561816 -0.00888418 -0.04321936
v -0.30974427 -0.01912610 -0.42480048
v -0.30781167 -0.02255066 -0.29496661
v -0.34337832 -0.03085124 -0.04321936
v -0.34364462 -0.03030240 -0.04321936
v -0.34667284 -0.02402027 -0.04380175
v -0.34519677 -0.02402027 -0.41746239
v -0.34515112 -0.02402027 -0.42480048
v -0.34496092 -0.02402027 -0.43209975
v -0.34239679 -0.02402027 -0.43769067
v -0.33634031 -0.02402027 -0.43967081
v -0.31017417 -0.02149834 -0.43648705
v -0.32901317 -0.02402027 -0.43978727
v -0.32168986 -0.02402027 -0.43978727
v -0.31407740 -0.02397491 -0.43780718
v -0.30781167 -0.04521169 -0.30579905
v -0.30983177 -0.01923042 -0.43209975
v -0.30781167 -0.03766860 -0.30758503
v -0.32164039 -0.00334139 -0.04321936
v -0.31353338 -0.01546568 -0.42480048
v -0.30781167 -0.02348504 -0.30098463
v -0.34667284 -0.02402027 -0.04321936
v -0.34646362 -0.02343061 -0.04321936
v -0.34233211 -0.01687633 -0.42480048
v -0.34402504 -0.01669489 -0.04321936
v -0.34382722 -0.01669489 -0.08775269
v -0.34372832 -0.01669489 -0.10972815
v -0.34232451 -0.01702601 -0.43209975
v -0.34155604 -0.01822800 -0.43706944
v -0.32901317 -0.01669489 -0.43978727
v -0.33689193 -0.01615059 -0.43815660
v -0.31017417 -0.01967040 -0.43648705
v -0.32168986 -0.01669489 -0.43904958
v -0.31369318 -0.01556547 -0.43209975
v -0.30781167 -0.02578017 -0.30517782
v -0.30781167 -0.02894619 -0.30657557
v -0.32216159 -0.00306471 -0.04321936
v -0.31719696 -0.01235410 -0.42480048
v -0.32168986 -0.00916540 -0.42480048
v -0.34369407 -0.01669489 -0.11706626
v -0.34235494 -0.01685365 -0.41746239
v -0.33987454 -0.01321137 -0.42480048
v -0.34375874 -0.01631388 -0.04321936
v -0.33989354 -0.01318869 -0.41746239
v -0.33970714 -0.01336559 -0.43209975
v -0.33481478 -0.01114303 -0.43710828
v -0.32901317 -0.01030844 -0.43776834
v -0.31768011 -0.01275325 -0.43613768
v -0.31488773 -0.01701694 -0.43722479
v -0.32168986 -0.01151497 -0.43703066
v -0.31735673 -0.01249017 -0.43209975
v -0.32897895 -0.00237072 -0.04321936
v -0.32771210 -0.00610372 -0.41746239
v -0.33161535 -0.00553220 -0.42480048
v -0.32168986 -0.00961899 -0.43209975
v -0.32795177 -0.00617175 -0.42480048
v -0.33645443 -0.00936498 -0.42480048
v -0.33803323 -0.00850317 -0.09509077
v -0.33436968 -0.00411248 -0.09509077
v -0.33815116 -0.00833989 -0.04321936
v -0.34072669 -0.01200484 -0.04380175
v -0.34067724 -0.01207288 -0.06577722
v -0.34012181 -0.01286211 -0.31488431
v -0.33811693 -0.00838524 -0.05843912
v -0.33805226 -0.00848049 -0.08775269
v -0.33282510 -0.00560024 -0.42891602
v -0.33545771 -0.00896583 -0.43167268
v -0.32939742 -0.00667069 -0.43167268
v -0.33292023 -0.00553220 -0.42480048
v -0.33438868 -0.00409434 -0.08775269
v -0.33448380 -0.00399909 -0.04380175
v -0.33448760 -0.00399909 -0.04321936
v -0.33209468 -0.00560024 -0.42891602
f 1 2 3
f 1 3 4
f 1 4 5
f 1 5 17
f 1 17 32
f 1 32 52
f 1 52 68
f 1 68 86
f 1 86 88
f 1 88 106
f 1 106 105
f 1 105 91
f 1 91 73
f 1 73 54
f 1 54 38
f 1 38 37
f 1 37 36
f 1 36 35
f 1 35 33
f 1 33 18
f 1 18 6
f 1 6 7
f 1 7 8
f 1 8 9
f 1 9 10
f 1 10 11
f 1 11 2
f 2 12 3
f 2 11 13
f 2 13 14
f 2 14 12
f 3 15 16
f 3 16 4
f 3 12 15
f 4 16 15
f 4 15 17
f 4 17 5
f 6 18 19
f 6 19 20
f 6 20 21
f 6 21 22
f 6 22 7
f 7 22 21
f 7 21 20
f 7 20 19
f 7 19 34
f 7 34 53
f 7 53 71
f 7 71 89
f 7 89 107
f 7 107 122
f 7 122 142
f 7 142 130
f 7 130 113
f 7 113 95
f 7 95 93
f 7 93 92
f 7 92 75
f 7 75 74
f 7 74 56
f 7 56 55
f 7 55 45
f 7 45 44
f 7 44 39
f 7 39 23
f 7 23 8
f 8 23 9
f 9 23 10
f 10 23 24
f 10 24 11
f 11 24 13
f 12 25 15
f 12 14 25
f 13 24 26
f 13 26 27
f 13 27 28
f 13 28 29
f 13 29 25
f 13 25 14
f 15 25 30
f 15 30 31
f 15 31 32
f 15 32 17
f 18 33 19
f 19 33 35
f 19 35 36
f 19 36 37
f 19 37 38
f 19 38 34
f 23 39 24
f 24 39 44
f 24 44 26
f 25 29 40
f 25 40 41
f 25 41 42
f 25 42 43
f 25 43 30
f 26 44 45
f 26 45 27
f 27 45 28
f 28 45 40
f 28 40 46
f 28 46 29
f 29 46 40
f 30 47 31
f 30 43 48
f 30 48 47
f 31 49 32
f 31 47 50
f 31 50 51
f 31 51 49
f 32 49 52
f 34 38 54
f 34 54 53
f 40 45 55
f 40 55 56
f 40 56 57
f 40 57 58
f 40 58 59
f 40 59 60
f 40 60 41
f 41 60 42
f 42 60 43
f 43 60 48
f 47 48 61
f 47 61 62
f 47 62 63
f 47 63 50
f 48 60 61
f 49 51 64
f 49 64 52
f 50 63 65
f 50 65 66
f 50 66 51
f 51 66 67
f 51 67 64
f 52 64 69
f 52 69 70
f 52 70 68
f 53 54 72
f 53 72 71
f 54 73 72
f 56 74 57
f 57 74 75
f 57 75 58
f 58 75 76
f 58 76 59
f 59 76 60
f 60 76 77
f 60 77 78
f 60 78 79
f 60 79 61
f 61 79 62
f 62 80 81
f 62 81 63
f 62 79 80
f 63 81 65
f 64 67 82
f 64 82 69
f 65 81 83
f 65 83 84
f 65 84 66
f 66 84 85
f 66 85 67
f 67 85 82
f 68 70 86
f 69 82 70
f 70 82 102
f 70 102 87
f 70 87 88
f 70 88 86
f 71 72 90
f 71 90 89
f 72 73 91
f 72 91 87
f 72 87 90
f 75 92 76
f 76 92 93
f 76 93 77
f 77 94 78
f 77 93 95
f 77 95 96
f 77 96 97
f 77 97 94
f 78 94 98
f 78 98 79
f 79 98 99
f 79 99 80
f 80 99 81
f 81 100 83
f 81 99 101
f 81 101 100
f 82 85 102
f 83 100 84
f 84 100 103
f 84 103 102
f 84 102 85
f 87 102 104
f 87 104 90
f 87 91 105
f 87 105 106
f 87 106 88
f 89 90 108
f 89 108 109
f 89 109 107
f 90 104 108
f 94 97 110
f 94 110 111
f 94 111 112
f 94 112 98
f 95 113 96
f 96 113 114
f 96 114 97
f 97 114 110
f 98 112 115
f 98 115 99
f 99 116 101
f 99 115 116
f 100 101 116
f 100 116 117
f 100 117 103
f 102 118 104
f 102 103 119
f 102 119 118
f 103 117 120
f 103 120 119
f 104 118 121
f 104 121 108
f 107 109 123
f 107 123 124
f 107 124 122
f 108 121 109
f 109 121 125
f 109 125 126
f 109 126 123
f 110 114 112
f 110 112 111
f 112 127 115
f 112 114 135
f 112 135 128
f 112 128 129
f 112 129 127
f 113 130 131
f 113 131 132
f 113 132 133
f 113 133 114
f 114 133 134
f 114 134 135
f 115 127 136
f 115 136 137
f 115 137 116
f 116 137 136
f 116 136 117
f 117 136 138
f 117 138 120
f 118 119 120
f 118 120 125
f 118 125 121
f 120 138 125
f 122 139 129
f 122 129 140
f 122 140 141
f 122 141 142
f 122 124 139
f 123 126 124
f 124 126 143
f 124 143 136
f 124 136 139
f 125 138 126
f 126 138 143
f 127 139 136
f 127 129 139
f 128 135 129
f 129 135 134
f 129 134 130
f 129 130 140
f 130 134 131
f 130 142 140
f 131 134 132
f 132 134 133
f 136 143 138
f 140 142 141

