v -0.09474387 0.33506020 0.00595615
v -0.09474387 0.33637569 0.00090027
v -0.09705399 0.33309057 0.00595615
v -0.09474387 0.28379185 0.00595615
v -0.09474387 0.33639749 0.00019145
v -0.09531716 0.33588874 0.00019145
v -0.09862946 0.33195676 0.00504797
v -0.09928484 0.33049591 0.00595615
v -0.09483871 0.27670557 0.00595615
v -0.09474387 0.30368431 -0.05061653
v -0.09474387 0.33545265 -0.05027320
v -0.09481040 0.33539450 -0.05061653
v -0.09873562 0.33202946 -0.05061653
v -0.09884320 0.33222568 0.00019145
v -0.10201395 0.32770500 0.00019145
v -0.10503182 0.32303895 0.00019145
v -0.10445146 0.32199962 0.00595615
v -0.09539642 0.26995362 0.00595615
v -0.09474387 0.33544540 -0.05061653
v -0.10230130 0.26220597 0.00595615
v -0.10920476 0.28392995 -0.03601927
v -0.09522231 0.30398958 -0.05061653
v -0.10184975 0.32770500 -0.05061653
v -0.10188089 0.32770500 -0.04376645
v -0.10194601 0.32770500 -0.02911382
v -0.10204226 0.32770500 -0.00713487
v -0.10507146 0.32311891 -0.00713487
v -0.10666391 0.31937590 0.00019145
v -0.10588255 0.31912152 0.00595615
v -0.10918919 0.26215508 0.00595615
v -0.10920476 0.27959098 -0.02911382
v -0.10920476 0.28399536 -0.03604696
v -0.10673893 0.31443367 -0.05061653
v -0.10655492 0.31415747 -0.05061653
v -0.10420799 0.31082148 -0.05061653
v -0.10062958 0.30756542 -0.05061653
v -0.10497379 0.32301715 -0.05061653
v -0.10505447 0.32311162 -0.01446119
v -0.10673893 0.31935409 -0.05061653
v -0.10671346 0.31944857 -0.01446119
v -0.10668939 0.31945585 -0.00713487
v -0.10623076 0.31833656 0.00595615
v -0.10920476 0.31258034 0.00019145
v -0.10920476 0.31150466 0.00595615
v -0.10920476 0.26216962 0.00595061
v -0.10920476 0.27275179 0.00595615
v -0.10920476 0.29107438 -0.03891547
v -0.10920476 0.29840050 -0.03897084
v -0.10920476 0.31207156 -0.02911382
v -0.10920476 0.31258760 -0.02235234
v -0.10920476 0.31261666 -0.02178750
v -0.10920476 0.31269662 -0.01490420
v -0.10920476 0.30489081 -0.03675578
v -0.10920476 0.31269662 -0.01446119
f 1 2 3
f 1 3 8
f 1 8 17
f 1 17 29
f 1 29 42
f 1 42 44
f 1 44 46
f 1 46 30
f 1 30 20
f 1 20 18
f 1 18 9
f 1 9 4
f 1 4 10
f 1 10 19
f 1 19 11
f 1 11 5
f 1 5 2
f 2 5 6
f 2 6 7
f 2 7 3
f 3 7 8
f 4 9 10
f 5 11 12
f 5 12 13
f 5 13 6
f 6 14 7
f 6 13 14
f 7 14 15
f 7 15 16
f 7 16 17
f 7 17 8
f 9 18 10
f 10 18 20
f 10 20 21
f 10 21 22
f 10 22 36
f 10 36 35
f 10 35 34
f 10 34 33
f 10 33 39
f 10 39 37
f 10 37 23
f 10 23 13
f 10 13 12
f 10 12 19
f 11 19 12
f 13 23 14
f 14 23 24
f 14 24 25
f 14 25 26
f 14 26 15
f 15 26 27
f 15 27 16
f 16 28 29
f 16 29 17
f 16 27 28
f 20 30 31
f 20 31 21
f 21 31 45
f 21 45 46
f 21 46 44
f 21 44 43
f 21 43 54
f 21 54 52
f 21 52 51
f 21 51 50
f 21 50 49
f 21 49 53
f 21 53 48
f 21 48 47
f 21 47 32
f 21 32 33
f 21 33 34
f 21 34 35
f 21 35 36
f 21 36 22
f 23 37 24
f 24 37 25
f 25 37 26
f 26 37 38
f 26 38 27
f 27 38 39
f 27 39 40
f 27 40 41
f 27 41 28
f 28 42 29
f 28 41 43
f 28 43 44
f 28 44 42
f 30 45 31
f 30 46 45
f 32 47 33
f 33 47 48
f 33 48 39
f 37 39 38
f 39 49 50
f 39 50 51
f 39 51 52
f 39 52 40
f 39 48 53
f 39 53 49
f 40 52 54
f 40 54 41
f 41 54 43

