v 0.03161108 -0.20237525 -0.00713547
v 0.03160508 -0.20237525 -0.02178946
v 0.03160508 -0.20237525 0.00041195
v 0.01531058 -0.23643849 -0.04462571
v 0.03155098 -0.20237525 -0.02911205
v 0.01347137 -0.23548788 0.00041195
v 0.00839849 -0.20237525 0.00041195
v 0.01592365 -0.22926575 -0.04462571
v 0.02875008 -0.20237525 -0.03599819
v 0.01230533 -0.24101866 -0.04462571
v 0.01101307 -0.23915107 0.00041195
v 0.00989511 -0.20237525 -0.02911205
v -0.02979229 -0.20254328 0.00041195
v 0.02323844 -0.20237525 -0.03871385
v 0.01305664 -0.22267394 -0.04462571
v 0.01092291 -0.23928068 0.00041195
v 0.00767122 -0.24384164 0.00041195
v 0.00966671 -0.24468664 -0.04462571
v 0.01085679 -0.20237525 -0.03423478
v -0.02979229 -0.20351309 -0.02911205
v -0.02979229 -0.23166626 0.00041195
v 0.01523244 -0.20237525 -0.03730312
v 0.00804988 -0.21864590 -0.04462571
v -0.00868939 -0.20996564 -0.04462571
v -0.01331147 -0.20921189 -0.04462571
v -0.01397263 -0.20921189 -0.04462571
v -0.02979229 -0.20549590 -0.03553529
v 0.00470804 -0.24786010 0.00041195
v 0.00643306 -0.24884432 -0.04462571
v -0.02979229 -0.20386836 -0.03192470
v -0.02979229 -0.23167108 0.00019152
v -0.02730995 -0.23462850 0.00041195
v -0.01954437 -0.21006648 -0.04462571
v -0.02979229 -0.20611042 -0.03625389
v 0.00084929 -0.24976610 0.00041195
v 0.00600030 -0.24936762 -0.04462571
v -0.02979229 -0.23187750 -0.02178946
v -0.02741814 -0.23462850 -0.02178946
v -0.02223708 -0.23829648 0.00041195
v -0.01998915 -0.21021051 -0.04462571
v -0.02979229 -0.21001847 -0.04008050
v 0.00072908 -0.24982373 0.00041195
v 0.00072908 -0.25141768 -0.04462571
v -0.02979229 -0.23185832 -0.02433760
v -0.02737005 -0.23462370 -0.02911205
v -0.02223708 -0.23828207 -0.03643905
v -0.02223708 -0.23829169 -0.02178946
v -0.02223708 -0.23829648 -0.01446247
v -0.00969915 -0.24711114 -0.03643905
v -0.01379832 -0.24422574 0.00041195
v -0.02395007 -0.21389770 -0.04462571
v -0.02659470 -0.21676869 -0.04462571
v -0.02979229 -0.21049856 -0.04024803
v -0.00582237 -0.24948764 0.00041195
v -0.00602072 -0.24947326 0.00041195
v -0.00603274 -0.24955486 -0.02911205
v -0.00603274 -0.24955486 -0.04462571
v -0.02979229 -0.23090292 -0.03178363
v -0.02686517 -0.23445085 -0.04462571
v -0.02691326 -0.23447486 -0.04376604
v -0.02724984 -0.23461888 -0.03643905
v -0.01854663 -0.24086981 -0.04462571
v -0.01855263 -0.24086981 -0.04376604
v -0.01446549 -0.24375524 -0.04462571
v -0.01857067 -0.24086981 -0.03643905
v -0.00969915 -0.24711114 -0.04462571
v -0.00927241 -0.24739922 -0.04462571
v -0.00968713 -0.24711114 0.00041195
v -0.02794105 -0.22153131 -0.04462571
v -0.02979229 -0.21370084 -0.04128403
v -0.02979229 -0.22990910 -0.03743978
v -0.02178629 -0.23845971 -0.04462571
v -0.02881859 -0.22978426 -0.04462571
v -0.02801919 -0.22182418 -0.04462571
v -0.02979229 -0.21928924 -0.04234649
v -0.02979229 -0.22918895 -0.03941481
v -0.02912512 -0.22918895 -0.04376604
v -0.02898087 -0.22918895 -0.04462571
v -0.02979229 -0.22737416 -0.04194972
f 1 2 5
f 1 5 9
f 1 9 14
f 1 14 22
f 1 22 19
f 1 19 12
f 1 12 7
f 1 7 3
f 1 3 4
f 1 4 2
f 2 4 5
f 3 6 4
f 3 7 13
f 3 13 21
f 3 21 32
f 3 32 39
f 3 39 50
f 3 50 68
f 3 68 55
f 3 55 54
f 3 54 42
f 3 42 35
f 3 35 28
f 3 28 17
f 3 17 16
f 3 16 11
f 3 11 6
f 4 8 9
f 4 9 5
f 4 6 10
f 4 10 18
f 4 18 29
f 4 29 36
f 4 36 43
f 4 43 57
f 4 57 67
f 4 67 66
f 4 66 64
f 4 64 62
f 4 62 72
f 4 72 59
f 4 59 73
f 4 73 78
f 4 78 74
f 4 74 69
f 4 69 52
f 4 52 51
f 4 51 40
f 4 40 33
f 4 33 26
f 4 26 25
f 4 25 24
f 4 24 23
f 4 23 15
f 4 15 8
f 6 11 10
f 7 12 13
f 8 14 9
f 8 15 14
f 10 11 16
f 10 16 17
f 10 17 18
f 12 19 13
f 13 20 30
f 13 30 27
f 13 27 34
f 13 34 41
f 13 41 53
f 13 53 70
f 13 70 75
f 13 75 79
f 13 79 76
f 13 76 71
f 13 71 58
f 13 58 44
f 13 44 37
f 13 37 31
f 13 31 21
f 13 19 20
f 14 15 23
f 14 23 24
f 14 24 25
f 14 25 26
f 14 26 27
f 14 27 22
f 17 28 18
f 18 28 29
f 19 22 20
f 20 22 30
f 21 31 32
f 22 27 30
f 26 33 27
f 27 33 34
f 28 35 36
f 28 36 29
f 31 37 32
f 32 38 39
f 32 37 38
f 33 40 34
f 34 40 41
f 35 42 36
f 36 42 43
f 37 44 38
f 38 45 46
f 38 46 47
f 38 47 48
f 38 48 39
f 38 44 45
f 39 49 50
f 39 48 66
f 39 66 49
f 40 51 41
f 41 51 52
f 41 52 53
f 42 54 43
f 43 54 55
f 43 55 56
f 43 56 57
f 44 58 59
f 44 59 60
f 44 60 61
f 44 61 45
f 45 61 46
f 46 61 62
f 46 62 63
f 46 63 64
f 46 64 65
f 46 65 47
f 47 65 48
f 48 65 66
f 49 66 67
f 49 67 68
f 49 68 50
f 52 69 70
f 52 70 53
f 55 68 56
f 56 68 67
f 56 67 57
f 58 71 59
f 59 72 60
f 59 71 73
f 60 72 61
f 61 72 62
f 62 64 63
f 64 66 65
f 69 74 70
f 70 74 75
f 71 76 73
f 73 76 77
f 73 77 78
f 74 78 75
f 75 78 79
f 76 79 77
f 77 79 78

