v -0.34403151 -0.01670974 -0.04318053
v -0.34406189 -0.01670974 -0.03645943
v -0.34408720 -0.01668953 -0.02911466
v -0.34402140 -0.01668953 -0.04318053
v -0.30993882 -0.01670974 -0.04318053
v -0.34412771 -0.01670974 -0.02178429
v -0.34415303 -0.01668953 -0.01446351
v -0.34375814 -0.01631002 -0.04318053
v -0.31319923 0.00623186 -0.03964968
v -0.30806052 0.00623186 -0.03819607
v -0.30681002 0.00623186 -0.03771634
v -0.30458745 0.00623186 -0.03603726
v -0.30151942 0.00623186 -0.02958960
v -0.29388982 -0.00785513 0.00582455
v -0.30048661 -0.01670974 0.00582455
v -0.31561923 -0.00888139 -0.04318053
v -0.34415809 -0.01670974 -0.01446351
v -0.34418340 -0.01668953 -0.00713313
v -0.34080654 -0.01188608 -0.00713313
v -0.33819922 -0.00826833 -0.02178429
v -0.34072553 -0.01199836 -0.04318053
v -0.31381689 0.00623186 -0.03931866
v -0.32163887 -0.00334136 -0.04318053
v -0.32215527 -0.00306290 -0.04318053
v -0.32897989 -0.00236675 -0.04318053
v -0.33448821 -0.00399934 -0.04318053
v -0.29247226 0.00623186 0.00582455
v -0.34279113 -0.01670974 0.00582455
v -0.34418846 -0.01670974 -0.00713313
v -0.34393534 -0.01668953 0.00019244
v -0.33803213 -0.00846595 0.00019244
v -0.33807770 -0.00822342 -0.00713313
v -0.33453375 -0.00394095 -0.02178429
v -0.33451858 -0.00395892 -0.02911466
v -0.33816376 -0.00831324 -0.03644024
v -0.33835616 -0.00862988 -0.04318053
v -0.32083897 0.00623186 -0.03539921
v -0.33785493 -0.00798762 -0.04318053
v -0.32320834 0.00623186 -0.02178429
v -0.32303114 0.00623186 -0.02911466
v -0.32311720 0.00623186 0.00582455
v -0.34265950 -0.01633696 0.00582455
v -0.34392520 -0.01670974 0.00027400
v -0.34394040 -0.01670974 0.00019244
v -0.34030024 -0.01260019 0.00503778
v -0.33396672 -0.00495374 0.00582455
v -0.33436669 -0.00414755 0.00019244
v -0.32318808 0.00623186 0.00019244
v -0.32319820 0.00623186 -0.00713313
v -0.32320834 0.00623186 -0.02172672
v -0.33814859 -0.00833570 -0.04318053
v -0.33375914 -0.00471121 0.00582455
v -0.34093311 -0.01376569 0.00582455
v -0.33935352 -0.01170418 0.00582455
f 1 2 3
f 1 3 4
f 1 4 8
f 1 8 21
f 1 21 36
f 1 36 51
f 1 51 38
f 1 38 26
f 1 26 25
f 1 25 24
f 1 24 23
f 1 23 16
f 1 16 5
f 1 5 15
f 1 15 28
f 1 28 43
f 1 43 44
f 1 44 29
f 1 29 17
f 1 17 6
f 1 6 2
f 2 6 7
f 2 7 3
f 3 7 8
f 3 8 4
f 5 9 10
f 5 10 11
f 5 11 12
f 5 12 13
f 5 13 14
f 5 14 15
f 5 16 9
f 6 17 7
f 7 17 29
f 7 29 18
f 7 18 19
f 7 19 20
f 7 20 8
f 8 20 21
f 9 22 37
f 9 37 40
f 9 40 39
f 9 39 50
f 9 50 49
f 9 49 48
f 9 48 41
f 9 41 27
f 9 27 13
f 9 13 12
f 9 12 11
f 9 11 10
f 9 16 23
f 9 23 24
f 9 24 25
f 9 25 26
f 9 26 22
f 13 27 14
f 14 27 41
f 14 41 52
f 14 52 46
f 14 46 54
f 14 54 53
f 14 53 42
f 14 42 28
f 14 28 15
f 18 29 44
f 18 44 30
f 18 30 19
f 19 30 31
f 19 31 32
f 19 32 20
f 20 32 33
f 20 33 34
f 20 34 26
f 20 26 35
f 20 35 36
f 20 36 21
f 22 26 37
f 26 38 35
f 26 34 39
f 26 39 40
f 26 40 37
f 28 42 30
f 28 30 43
f 30 44 43
f 30 42 45
f 30 45 31
f 31 45 46
f 31 46 47
f 31 47 32
f 32 47 33
f 33 47 41
f 33 41 48
f 33 48 49
f 33 49 50
f 33 50 39
f 33 39 34
f 35 38 51
f 35 51 36
f 41 47 52
f 42 53 45
f 45 54 46
f 45 53 54
f 46 52 47

