v 0.26505819 0.06391379 -0.25436906
v 0.26444991 0.06262182 -0.25436906
v 0.26370337 0.07051981 -0.25436906
v 0.26246605 0.07027427 -0.23426919
v 0.26198217 0.06997613 -0.22695290
v 0.26145685 0.06927460 -0.21961678
v 0.26104901 0.06835677 -0.21508386
v 0.26104901 0.06725772 -0.21508386
v 0.26145685 0.06657374 -0.21961678
v 0.26221028 0.05819053 -0.25436906
v 0.26283240 0.07147271 -0.25436906
v 0.25987388 0.07393973 -0.23426919
v 0.25987388 0.07364159 -0.22695290
v 0.25478635 0.07639507 -0.16832332
v 0.25430249 0.07595661 -0.16100705
v 0.25379096 0.07534278 -0.15631509
v 0.25379096 0.07434896 -0.15631509
v 0.25430249 0.07349544 -0.16100705
v 0.23928873 0.08141681 -0.05128282
v 0.24002836 0.08028852 -0.05844005
v 0.24046384 0.07821903 -0.06643228
v 0.24706519 0.07364743 -0.11704976
v 0.25900292 0.06290828 -0.21961678
v 0.26122873 0.05969296 -0.24323561
v 0.26174024 0.05892128 -0.24894151
v 0.26038541 0.05547797 -0.25436906
v 0.25987388 0.07418527 -0.25436906
v 0.25987388 0.07413850 -0.24894151
v 0.25987388 0.07407419 -0.24160534
v 0.25615501 0.07678675 -0.21230049
v 0.24698916 0.08295431 -0.11704976
v 0.24622879 0.08227033 -0.09838133
v 0.24622879 0.08211248 -0.09838133
v 0.23928873 0.08398322 -0.05128282
v 0.23720118 0.07775719 -0.05128282
v 0.23842468 0.07554739 -0.06442428
v 0.23888781 0.07487510 -0.06931505
v 0.25357667 0.06017818 -0.20102786
v 0.23994542 0.07337851 -0.08040875
v 0.24623570 0.06752664 -0.13518139
v 0.25394995 0.05964619 -0.20496433
v 0.25971492 0.05452507 -0.25436906
v 0.25621033 0.07678675 -0.25436906
v 0.25621033 0.07678675 -0.22695290
v 0.25620341 0.07678675 -0.21961678
v 0.23845925 0.08925633 -0.08040875
v 0.23845925 0.08921541 -0.07309247
v 0.23845233 0.08910433 -0.06575632
v 0.23837628 0.08859573 -0.05844005
v 0.23827261 0.08764868 -0.05128282
v 0.23831407 0.08756099 -0.05128282
v 0.24002836 0.08493027 -0.05844005
v 0.23362054 0.07224439 -0.05128282
v 0.23353068 0.07210993 -0.05128282
v 0.23344774 0.07198716 -0.05128282
v 0.24637396 0.06000280 -0.16375065
v 0.24680945 0.05938897 -0.16832332
v 0.25371493 0.05267772 -0.22979594
v 0.25415042 0.05213989 -0.23426919
v 0.25571263 0.04930456 -0.25436906
v 0.25485548 0.07773965 -0.25436906
v 0.24733479 0.08303031 -0.24160534
v 0.24733479 0.08303031 -0.19031191
v 0.23479567 0.09184612 -0.07309247
v 0.23845925 0.08926218 -0.08774490
v 0.23478875 0.09184028 -0.06575632
v 0.23471270 0.09183443 -0.05844005
v 0.23460903 0.09182858 -0.05128282
v 0.23084868 0.06845616 -0.05128282
v 0.23133253 0.06783648 -0.05573620
v 0.23182331 0.06721680 -0.06060709
v 0.23368275 0.06452762 -0.08040875
v 0.23404913 0.06322981 -0.08718823
v 0.23192009 0.05990926 -0.08925587
v 0.23890854 0.05289987 -0.15707057
v 0.24985780 0.04870827 -0.23426919
v 0.24985780 0.04624709 -0.25436906
v 0.25097761 0.08045221 -0.25436906
v 0.24733479 0.08302446 -0.24894151
v 0.25099834 0.08045221 -0.24894151
v 0.23845925 0.08926802 -0.19764806
v 0.22592702 0.09808384 -0.08774490
v 0.22592702 0.09808384 -0.05128282
v 0.22970813 0.09540635 -0.05128282
v 0.22732333 0.06535192 -0.05128282
v 0.22720582 0.06525838 -0.05128282
v 0.22702611 0.06523500 -0.05128282
v 0.22055608 0.06457439 -0.05128282
v 0.23055143 0.05990926 -0.08925587
v 0.23879796 0.05289987 -0.15707057
v 0.24253064 0.04871411 -0.22695290
v 0.24253064 0.04838089 -0.23426919
v 0.24302833 0.04794828 -0.25436906
v 0.23834864 0.05268941 -0.16100705
v 0.24731403 0.08300108 -0.25436906
v 0.24253064 0.08632162 -0.23426919
v 0.21703076 0.10430402 -0.07309247
v 0.22069434 0.10174930 -0.07309247
v 0.21984410 0.10224037 -0.05128282
v 0.22945929 0.05950004 -0.09508106
v 0.21586946 0.06690111 -0.05128282
v 0.22055608 0.06425871 -0.05844005
v 0.23778873 0.05240881 -0.16832332
v 0.23753296 0.05221004 -0.17565947
v 0.23729795 0.05183589 -0.20496433
v 0.23729103 0.05181836 -0.25436906
v 0.23729103 0.05181836 -0.21230049
v 0.23729103 0.05181251 -0.21961678
v 0.23729103 0.05181251 -0.23426919
v 0.24606980 0.08375521 -0.25436906
v 0.24253064 0.08626317 -0.24160534
v 0.21697546 0.10426309 -0.07732716
v 0.21395473 0.10559014 -0.05128282
v 0.21443169 0.10540891 -0.05128282
v 0.21521280 0.10504061 -0.05128282
v 0.21692706 0.10423386 -0.05241605
v 0.21938097 0.10255605 -0.05128282
v 0.22510446 0.06064586 -0.10239733
v 0.21228884 0.06936814 -0.05128282
v 0.23633713 0.05247896 -0.25436906
v 0.24253064 0.08545641 -0.25436906
v 0.24253064 0.08592409 -0.24894151
v 0.23479567 0.09151875 -0.19764806
v 0.21516440 0.10426309 -0.07732716
v 0.21292477 0.10453200 -0.07374855
v 0.20691098 0.10596429 -0.05128282
v 0.22428187 0.09690294 -0.15748807
v 0.21691325 0.10422801 -0.05128282
v 0.21860678 0.10308219 -0.05128282
v 0.21220590 0.06942660 -0.05128282
v 0.22475883 0.06062832 -0.21961678
v 0.23362745 0.05439061 -0.25436906
v 0.23591548 0.08456781 -0.25436906
v 0.23130489 0.08974155 -0.21699246
v 0.22418512 0.09690294 -0.15748807
v 0.20910912 0.10461970 -0.07174055
v 0.20853541 0.10504061 -0.06575632
v 0.20324740 0.10308804 -0.05128282
v 0.20700776 0.07309206 -0.05128282
v 0.22055608 0.06359226 -0.19764806
v 0.22475883 0.06064586 -0.22695290
v 0.22843625 0.05805607 -0.24160534
v 0.20700776 0.07310960 -0.08040875
v 0.20701467 0.07310960 -0.08774490
v 0.22856757 0.05805607 -0.24894151
v 0.22878877 0.05805607 -0.25436906
v 0.23239705 0.08114204 -0.25436906
v 0.23192009 0.08169157 -0.25088986
v 0.23138094 0.08245740 -0.24599908
v 0.23089705 0.08314138 -0.24160534
v 0.21645012 0.09737062 -0.12991288
v 0.20683496 0.10126407 -0.07374855
v 0.20039949 0.09942258 -0.05128282
v 0.20334418 0.07571108 -0.05128282
v 0.20334418 0.07571108 -0.07309247
v 0.22055608 0.06361564 -0.20496433
v 0.20334418 0.07571693 -0.08040875
v 0.22475883 0.06071017 -0.23426919
v 0.22477267 0.06085632 -0.24160534
v 0.22783486 0.05890959 -0.25436906
v 0.22981180 0.07762858 -0.25436906
v 0.20920590 0.08274970 -0.14436650
v 0.20174050 0.09028523 -0.08639298
v 0.20028199 0.09236642 -0.07309247
v 0.19672899 0.09395654 -0.05128282
v 0.22706759 0.07372928 -0.25436906
v 0.22605145 0.07227946 -0.25436906
v 0.21667821 0.07522586 -0.20232013
v 0.20321283 0.07581046 -0.05128282
v 0.19729582 0.08034114 -0.05128282
v 0.21596624 0.06687773 -0.17565947
v 0.21629113 0.06690111 -0.20496433
v 0.19488339 0.08220017 -0.05502048
v 0.22489709 0.06135323 -0.24894151
v 0.21651233 0.06714080 -0.21076965
v 0.22512519 0.06228275 -0.25436906
v 0.20226585 0.08949018 -0.09128375
v 0.19450320 0.09038461 -0.05128282
v 0.22356989 0.06861400 -0.25436906
v 0.20932340 0.07537786 -0.16605686
v 0.19489030 0.08220602 -0.05128282
v 0.19488339 0.08220017 -0.05241605
v 0.19457924 0.08462043 -0.05128282
v 0.19444791 0.09014493 -0.05128282
v 0.19488339 0.08589487 -0.05502048
v 0.20932340 0.07444834 -0.16605686
v 0.21651233 0.06899399 -0.21076965
v 0.22356989 0.06594821 -0.25436906
v 0.22307220 0.06501869 -0.24894151
v 0.19445481 0.09029692 -0.05128282
v 0.19489722 0.08957787 -0.05486143
v 0.19466910 0.08390721 -0.05128282
f 1 2 10
f 1 10 26
f 1 26 42
f 1 42 60
f 1 60 77
f 1 77 93
f 1 93 106
f 1 106 120
f 1 120 132
f 1 132 146
f 1 146 160
f 1 160 176
f 1 176 188
f 1 188 179
f 1 179 167
f 1 167 166
f 1 166 161
f 1 161 147
f 1 147 133
f 1 133 121
f 1 121 110
f 1 110 95
f 1 95 78
f 1 78 61
f 1 61 43
f 1 43 27
f 1 27 11
f 1 11 3
f 1 3 4
f 1 4 5
f 1 5 6
f 1 6 7
f 1 7 8
f 1 8 9
f 1 9 2
f 2 9 10
f 3 11 12
f 3 12 13
f 3 13 14
f 3 14 4
f 4 14 5
f 5 14 15
f 5 15 6
f 6 15 7
f 7 15 16
f 7 16 17
f 7 17 8
f 8 17 18
f 8 18 19
f 8 19 20
f 8 20 21
f 8 21 22
f 8 22 9
f 9 23 24
f 9 24 25
f 9 25 10
f 9 22 23
f 10 25 26
f 11 27 28
f 11 28 29
f 11 29 12
f 12 29 30
f 12 30 31
f 12 31 13
f 13 31 14
f 14 31 32
f 14 32 15
f 15 32 16
f 16 32 33
f 16 33 17
f 17 33 19
f 17 19 18
f 19 33 32
f 19 32 34
f 19 34 51
f 19 51 50
f 19 50 68
f 19 68 84
f 19 84 83
f 19 83 99
f 19 99 117
f 19 117 129
f 19 129 128
f 19 128 115
f 19 115 114
f 19 114 113
f 19 113 126
f 19 126 138
f 19 138 153
f 19 153 165
f 19 165 178
f 19 178 190
f 19 190 184
f 19 184 183
f 19 183 192
f 19 192 181
f 19 181 170
f 19 170 169
f 19 169 154
f 19 154 139
f 19 139 130
f 19 130 119
f 19 119 101
f 19 101 88
f 19 88 87
f 19 87 86
f 19 86 85
f 19 85 69
f 19 69 55
f 19 55 54
f 19 54 53
f 19 53 35
f 19 35 21
f 19 21 20
f 21 35 36
f 21 36 22
f 22 36 37
f 22 37 23
f 23 38 24
f 23 37 39
f 23 39 40
f 23 40 38
f 24 26 25
f 24 38 41
f 24 41 26
f 26 41 42
f 27 43 44
f 27 44 45
f 27 45 30
f 27 30 28
f 28 30 29
f 30 45 46
f 30 46 47
f 30 47 31
f 31 47 48
f 31 48 49
f 31 49 32
f 32 49 50
f 32 50 51
f 32 51 52
f 32 52 34
f 34 52 51
f 35 53 36
f 36 53 54
f 36 54 55
f 36 55 37
f 37 55 39
f 38 40 55
f 38 55 41
f 39 55 40
f 41 55 56
f 41 56 57
f 41 57 42
f 42 58 59
f 42 59 60
f 42 57 58
f 43 61 62
f 43 62 63
f 43 63 44
f 44 63 64
f 44 64 65
f 44 65 45
f 45 65 46
f 46 65 64
f 46 64 66
f 46 66 47
f 47 66 67
f 47 67 68
f 47 68 48
f 48 68 49
f 49 68 50
f 55 69 70
f 55 70 71
f 55 71 57
f 55 57 56
f 57 71 72
f 57 72 73
f 57 73 58
f 58 73 74
f 58 74 59
f 59 74 60
f 60 75 76
f 60 76 77
f 60 74 75
f 61 78 79
f 61 79 80
f 61 80 62
f 62 80 79
f 62 79 81
f 62 81 82
f 62 82 83
f 62 83 63
f 63 83 64
f 64 83 66
f 66 83 84
f 66 84 67
f 67 84 68
f 69 85 74
f 69 74 70
f 70 74 73
f 70 73 71
f 71 73 72
f 74 85 86
f 74 86 87
f 74 87 88
f 74 88 89
f 74 89 90
f 74 90 75
f 75 90 77
f 75 77 76
f 77 91 92
f 77 92 93
f 77 90 94
f 77 94 91
f 78 95 79
f 79 95 96
f 79 96 81
f 81 96 97
f 81 97 98
f 81 98 82
f 82 98 83
f 83 98 97
f 83 97 99
f 88 100 89
f 88 101 102
f 88 102 103
f 88 103 94
f 88 94 90
f 88 90 100
f 89 100 90
f 91 94 103
f 91 103 92
f 92 103 104
f 92 104 105
f 92 105 93
f 93 105 107
f 93 107 108
f 93 108 109
f 93 109 106
f 95 110 111
f 95 111 96
f 96 111 97
f 97 112 113
f 97 113 114
f 97 114 115
f 97 115 116
f 97 116 117
f 97 117 99
f 97 111 112
f 101 118 102
f 101 119 107
f 101 107 105
f 101 105 118
f 102 118 104
f 102 104 103
f 104 118 105
f 106 109 120
f 107 119 108
f 108 120 109
f 108 119 120
f 110 121 122
f 110 122 111
f 111 122 123
f 111 123 112
f 112 124 125
f 112 125 126
f 112 126 113
f 112 123 127
f 112 127 135
f 112 135 124
f 115 128 116
f 116 128 129
f 116 129 117
f 119 130 131
f 119 131 120
f 120 131 132
f 121 133 134
f 121 134 135
f 121 135 127
f 121 127 122
f 122 127 123
f 124 136 125
f 124 135 136
f 125 136 137
f 125 137 126
f 126 137 136
f 126 136 138
f 130 139 131
f 131 140 141
f 131 141 142
f 131 142 132
f 131 139 143
f 131 143 144
f 131 144 140
f 132 142 145
f 132 145 146
f 133 147 148
f 133 148 149
f 133 149 150
f 133 150 134
f 134 150 151
f 134 151 136
f 134 136 135
f 136 151 152
f 136 152 138
f 138 152 153
f 139 154 155
f 139 155 143
f 140 156 141
f 140 144 157
f 140 157 156
f 141 156 158
f 141 158 142
f 142 158 145
f 143 155 144
f 144 155 157
f 145 158 159
f 145 159 146
f 146 159 160
f 147 161 148
f 148 161 149
f 149 161 153
f 149 153 150
f 150 153 151
f 151 153 152
f 153 162 163
f 153 163 164
f 153 164 165
f 153 161 166
f 153 166 167
f 153 167 168
f 153 168 162
f 154 169 155
f 155 169 170
f 155 170 157
f 156 171 172
f 156 172 158
f 156 157 171
f 157 170 173
f 157 173 172
f 157 172 171
f 158 172 159
f 159 174 160
f 159 172 175
f 159 175 174
f 160 174 176
f 162 177 163
f 162 168 177
f 163 177 178
f 163 178 165
f 163 165 164
f 167 179 168
f 168 179 180
f 168 180 178
f 168 178 177
f 170 181 182
f 170 182 173
f 172 173 175
f 173 182 183
f 173 183 184
f 173 184 185
f 173 185 180
f 173 180 186
f 173 186 175
f 174 175 176
f 175 186 180
f 175 180 187
f 175 187 179
f 175 179 188
f 175 188 189
f 175 189 176
f 176 189 188
f 178 180 190
f 179 187 180
f 180 185 191
f 180 191 190
f 181 192 182
f 182 192 183
f 184 190 191
f 184 191 185

