v 0.27234924 0.05656506 -0.31461617
v 0.27223876 0.05638712 -0.31461617
v 0.27198265 0.06391477 -0.31461617
v 0.26833681 0.06775520 -0.27216131
v 0.26833681 0.06670736 -0.27216131
v 0.26841216 0.05987168 -0.28081269
v 0.26910516 0.05159770 -0.31461617
v 0.26882895 0.05918466 -0.28557774
v 0.26871847 0.06796773 -0.31461617
v 0.26855275 0.06796773 -0.28557774
v 0.26847743 0.06790348 -0.27825325
v 0.25987509 0.07418063 -0.25436906
v 0.26283293 0.07146712 -0.25436906
v 0.26370169 0.07051320 -0.25436906
v 0.26506260 0.06391477 -0.25436906
v 0.26539907 0.06391477 -0.25627391
v 0.26664446 0.06391477 -0.26359838
v 0.26633312 0.05552216 -0.28557774
v 0.26774426 0.05354016 -0.30023258
v 0.26444994 0.06261979 -0.25436906
v 0.26221023 0.05818625 -0.25436906
v 0.26038229 0.05547273 -0.25436906
v 0.26665453 0.04810820 -0.31461617
v 0.26434449 0.07106677 -0.31461617
v 0.26451524 0.07094320 -0.28557774
v 0.25987509 0.07419546 -0.25627391
v 0.25620917 0.07679035 -0.25436906
v 0.25991023 0.05426673 -0.25627391
v 0.26091961 0.05282842 -0.26691859
v 0.25971940 0.05452375 -0.25436906
v 0.26654905 0.04795992 -0.31461617
v 0.25983992 0.07421524 -0.31461617
v 0.25620917 0.07678541 -0.30023258
v 0.25987509 0.07421524 -0.30023258
v 0.25987509 0.07421524 -0.29290220
v 0.25987509 0.07421029 -0.26359838
v 0.25485831 0.07773934 -0.25436906
v 0.25822794 0.04993697 -0.26412325
v 0.26130127 0.05229462 -0.27092876
v 0.25571703 0.04930431 -0.25436906
v 0.26286807 0.04303704 -0.31461617
v 0.25617401 0.07672115 -0.31461617
v 0.25619911 0.07676069 -0.30756297
v 0.25620917 0.07679035 -0.29290220
v 0.24731555 0.08300325 -0.25436906
v 0.25097646 0.08045285 -0.25436906
v 0.25855936 0.04863212 -0.27092876
v 0.25579738 0.04881499 -0.25659236
v 0.25368823 0.04546882 -0.25925206
v 0.24986160 0.04624482 -0.25436906
v 0.25718842 0.04051630 -0.31461617
v 0.25420548 0.04503387 -0.26359838
v 0.25592794 0.07685955 -0.31461617
v 0.24693893 0.08260784 -0.29290220
v 0.25059981 0.08045285 -0.29290220
v 0.24726031 0.08294888 -0.26359838
v 0.24730552 0.08299831 -0.25627391
v 0.24607517 0.08375453 -0.25436906
v 0.24986160 0.04548859 -0.25923435
v 0.24986160 0.04604711 -0.25556621
v 0.24303195 0.04794509 -0.25436906
v 0.24618062 0.04558251 -0.25968257
v 0.24986160 0.04310624 -0.30756297
v 0.24986160 0.04305187 -0.31461617
v 0.24983650 0.07956811 -0.31461617
v 0.24632627 0.08228163 -0.30437842
v 0.24665269 0.08244473 -0.30023258
v 0.24253981 0.08545480 -0.25436906
v 0.23729706 0.05181518 -0.25436906
v 0.23634292 0.05248243 -0.25436906
v 0.24617058 0.04557262 -0.30756297
v 0.24617058 0.04557262 -0.31461617
v 0.24959546 0.07950386 -0.31461617
v 0.22105154 0.08614183 -0.30579378
v 0.22105154 0.08974996 -0.30239692
v 0.22105154 0.09051113 -0.30023258
v 0.22105154 0.09069400 -0.29749623
v 0.22105154 0.09094113 -0.29290220
v 0.22105154 0.09021951 -0.27825325
v 0.23592109 0.08456513 -0.25436906
v 0.22105154 0.09096585 -0.29055508
v 0.22105154 0.09100539 -0.28557774
v 0.23363115 0.05439029 -0.25436906
v 0.23363115 0.05439029 -0.25627391
v 0.24250467 0.04814774 -0.31461617
v 0.24250467 0.04814774 -0.30756297
v 0.24366971 0.07774922 -0.31461617
v 0.22105154 0.08597378 -0.30585274
v 0.22105154 0.08593918 -0.27255054
v 0.23240080 0.08114482 -0.25436906
v 0.22878510 0.05805279 -0.25436906
v 0.23363115 0.05439524 -0.26359838
v 0.23758834 0.05181518 -0.31461617
v 0.23729706 0.05181518 -0.28557774
v 0.23363115 0.05441007 -0.27092876
v 0.23363115 0.05442984 -0.27825325
v 0.23735733 0.05181518 -0.30023258
v 0.23747282 0.05181518 -0.30756297
v 0.23980294 0.07325636 -0.31461617
v 0.22105154 0.07856476 -0.30690246
v 0.23735230 0.06977674 -0.31461617
v 0.23351564 0.06331177 -0.31461617
v 0.22105154 0.07596987 -0.26645857
v 0.22356745 0.06861028 -0.25436906
v 0.22605325 0.07227278 -0.25436906
v 0.22706764 0.07372591 -0.25436906
v 0.22981959 0.07762566 -0.25436906
v 0.22783599 0.05890787 -0.25436906
v 0.22891568 0.05807751 -0.27092876
v 0.23363115 0.05447432 -0.28557774
v 0.22980454 0.05822578 -0.29290220
v 0.23744772 0.05196346 -0.31461617
v 0.23367132 0.05455834 -0.29290220
v 0.22914165 0.05809233 -0.27825325
v 0.22524977 0.06139896 -0.27092876
v 0.22105154 0.07806555 -0.30690838
v 0.23351063 0.06326234 -0.31461617
v 0.22105154 0.07079987 -0.26425299
v 0.22356745 0.06594125 -0.25436906
v 0.22512422 0.06228369 -0.25436906
v 0.22105154 0.06635149 -0.27092876
v 0.22211614 0.06506146 -0.27092876
v 0.22105154 0.06920340 -0.30023258
v 0.23363615 0.05718289 -0.31461617
v 0.22105154 0.06936650 -0.30124694
v 0.22105154 0.07270773 -0.30538686
v 0.22105154 0.07159069 -0.30506839
f 1 2 7
f 1 7 23
f 1 23 31
f 1 31 41
f 1 41 51
f 1 51 64
f 1 64 72
f 1 72 85
f 1 85 93
f 1 93 112
f 1 112 124
f 1 124 117
f 1 117 102
f 1 102 101
f 1 101 99
f 1 99 87
f 1 87 73
f 1 73 65
f 1 65 53
f 1 53 42
f 1 42 32
f 1 32 24
f 1 24 9
f 1 9 3
f 1 3 4
f 1 4 5
f 1 5 6
f 1 6 2
f 2 6 8
f 2 8 7
f 3 9 10
f 3 10 11
f 3 11 4
f 4 11 12
f 4 12 13
f 4 13 14
f 4 14 15
f 4 15 5
f 5 15 16
f 5 16 17
f 5 17 6
f 6 18 19
f 6 19 7
f 6 7 8
f 6 17 16
f 6 16 15
f 6 15 20
f 6 20 21
f 6 21 22
f 6 22 18
f 7 19 23
f 9 24 25
f 9 25 10
f 10 25 26
f 10 26 12
f 10 12 11
f 12 26 27
f 12 27 37
f 12 37 46
f 12 46 45
f 12 45 58
f 12 58 68
f 12 68 80
f 12 80 90
f 12 90 107
f 12 107 106
f 12 106 105
f 12 105 104
f 12 104 119
f 12 119 120
f 12 120 108
f 12 108 91
f 12 91 83
f 12 83 70
f 12 70 69
f 12 69 61
f 12 61 50
f 12 50 40
f 12 40 30
f 12 30 22
f 12 22 21
f 12 21 20
f 12 20 15
f 12 15 14
f 12 14 13
f 18 22 19
f 19 22 28
f 19 28 29
f 19 29 23
f 22 30 28
f 23 29 31
f 24 32 33
f 24 33 34
f 24 34 35
f 24 35 25
f 25 36 26
f 25 35 36
f 26 36 27
f 27 36 35
f 27 35 37
f 28 30 38
f 28 38 29
f 29 38 39
f 29 39 31
f 30 40 38
f 31 39 38
f 31 38 41
f 32 42 43
f 32 43 33
f 33 44 34
f 33 43 45
f 33 45 44
f 34 44 37
f 34 37 35
f 37 44 46
f 38 47 41
f 38 40 48
f 38 48 49
f 38 49 47
f 40 50 49
f 40 49 48
f 41 47 49
f 41 49 52
f 41 52 51
f 42 53 54
f 42 54 55
f 42 55 56
f 42 56 57
f 42 57 43
f 43 57 45
f 44 45 46
f 45 57 58
f 49 59 52
f 49 50 60
f 49 60 59
f 50 61 62
f 50 62 60
f 51 63 64
f 51 52 59
f 51 59 62
f 51 62 63
f 53 65 66
f 53 66 67
f 53 67 54
f 54 67 68
f 54 68 58
f 54 58 56
f 54 56 55
f 56 58 57
f 59 60 62
f 61 69 62
f 62 69 70
f 62 70 71
f 62 71 64
f 62 64 63
f 64 71 72
f 65 73 74
f 65 74 75
f 65 75 76
f 65 76 66
f 66 76 77
f 66 77 67
f 67 77 78
f 67 78 68
f 68 79 80
f 68 78 81
f 68 81 82
f 68 82 79
f 70 83 84
f 70 84 85
f 70 85 86
f 70 86 71
f 71 86 85
f 71 85 72
f 73 87 74
f 74 87 88
f 74 88 100
f 74 100 116
f 74 116 126
f 74 126 127
f 74 127 125
f 74 125 123
f 74 123 121
f 74 121 118
f 74 118 103
f 74 103 89
f 74 89 79
f 74 79 82
f 74 82 81
f 74 81 78
f 74 78 77
f 74 77 76
f 74 76 75
f 79 89 80
f 80 89 90
f 83 91 84
f 84 91 92
f 84 92 85
f 85 92 94
f 85 94 95
f 85 95 96
f 85 96 97
f 85 97 98
f 85 98 93
f 87 99 88
f 88 99 101
f 88 101 102
f 88 102 100
f 89 103 104
f 89 104 105
f 89 105 106
f 89 106 107
f 89 107 90
f 91 108 109
f 91 109 110
f 91 110 96
f 91 96 95
f 91 95 92
f 92 95 94
f 93 111 112
f 93 98 110
f 93 110 113
f 93 113 114
f 93 114 115
f 93 115 111
f 96 110 97
f 97 110 98
f 100 102 117
f 100 117 116
f 103 118 104
f 104 118 119
f 108 120 121
f 108 121 122
f 108 122 115
f 108 115 109
f 109 115 114
f 109 114 113
f 109 113 110
f 111 123 112
f 111 115 122
f 111 122 123
f 112 123 125
f 112 125 124
f 116 117 124
f 116 124 126
f 118 121 119
f 119 121 120
f 121 123 122
f 124 127 126
f 124 125 127

