v 0.02973654 -0.24384447 0.12473660
v 0.02856375 -0.23727819 0.11743296
v 0.02880640 -0.23717766 0.12473660
v 0.02729853 -0.24883402 0.12473660
v 0.02834999 -0.24445296 0.11710535
v 0.02800336 -0.24294499 0.11010042
v 0.01904858 -0.23286539 0.03314243
v 0.01904858 -0.23284951 0.03314243
v 0.02800336 -0.23767502 0.11010042
v 0.01601551 -0.22605571 0.02631093
v 0.02541514 -0.23361673 0.11743296
v 0.02546713 -0.23350562 0.12473660
v 0.01382592 -0.22330432 0.02631093
v 0.02472764 -0.25249548 0.12473660
v 0.01240471 -0.24116187 0.02631093
v 0.02673813 -0.24803505 0.11933113
v 0.02622973 -0.24729959 0.11444598
v 0.01577864 -0.23614061 0.02631093
v 0.01633326 -0.23257438 0.02631093
v 0.01641415 -0.22956371 0.02631093
v 0.02181590 -0.23093413 0.12473660
v 0.00773090 -0.21696555 0.02631093
v 0.02105907 -0.25760671 0.12473660
v 0.00978761 -0.24482862 0.02631093
v 0.01126659 -0.24276509 0.02631093
v 0.01363528 -0.23934174 0.02631093
v 0.01654702 -0.22725679 0.12473660
v 0.00526978 -0.21525651 0.02631093
v 0.01289578 -0.22471706 0.12473660
v 0.01538001 -0.26069673 0.12473660
v 0.01350817 -0.25654848 0.08812206
v 0.01276868 -0.25590825 0.08078951
v 0.01217940 -0.25532093 0.07491192
v 0.01157279 -0.25477067 0.07002677
v 0.00611904 -0.24950599 0.02631093
v -0.00731312 -0.20813993 0.02631093
v 0.00804865 -0.22154237 0.12473660
v 0.00804865 -0.25901415 0.12473660
v 0.00804865 -0.25878134 0.11010042
v 0.00804865 -0.25850092 0.10277751
v 0.00310908 -0.25555374 0.05882079
v 0.00425298 -0.25488707 0.04733538
v 0.00447829 -0.25488707 0.04733538
v 0.00390057 -0.25042134 0.02631093
v -0.01392811 -0.20664255 0.02631093
v -0.00040928 -0.21751052 0.11010042
v 0.00003557 -0.21693908 0.10277751
v 0.00324773 -0.21851055 0.11010042
v 0.00088483 -0.21878570 0.11726917
v 0.00072307 -0.22027250 0.12473660
v 0.00283177 -0.25592413 0.12473660
v 0.00283177 -0.25592413 0.11743296
v 0.00283755 -0.25591354 0.11010042
v 0.00283755 -0.25583419 0.07347624
v 0.00283755 -0.25581831 0.06615333
v -0.00603635 -0.24958007 0.02631093
v 0.00378502 -0.25511988 0.05149788
v -0.00222912 -0.25083405 0.02631093
v 0.00072307 -0.25158010 0.02631093
v -0.02014445 -0.20832513 0.02631093
v -0.01058306 -0.21063734 0.05689371
v -0.00322281 -0.21793911 0.11472541
v -0.00144341 -0.21793911 0.11472541
v -0.00465558 -0.22347363 0.12473660
v -0.00603635 -0.24968589 0.12473660
v -0.00082525 -0.25335264 0.11743296
v -0.01392811 -0.24413548 0.02631093
v -0.00969914 -0.24710910 0.02631093
v -0.00082525 -0.25334734 0.06615333
v -0.00809306 -0.24819380 0.02631093
v -0.02627992 -0.21676447 0.02631093
v -0.00830104 -0.22831502 0.12473660
v -0.00968181 -0.24695037 0.12473660
v -0.00969914 -0.24705090 0.11743296
v -0.00969914 -0.24709851 0.11010042
v -0.01855570 -0.24087086 0.06615333
v -0.01392811 -0.24413548 0.06615333
v -0.01595593 -0.24270689 0.02631093
v -0.02855039 -0.22199210 0.02631093
v -0.01481780 -0.23651626 0.11743296
v -0.01088926 -0.23200294 0.12473660
v -0.01241446 -0.24327304 0.12473660
v -0.01771222 -0.24033118 0.10797100
v -0.01848060 -0.24084441 0.07347624
v -0.02690386 -0.23447918 0.02631093
v -0.02437342 -0.23654273 0.02631093
v -0.02222427 -0.23814593 0.02631093
v -0.01856148 -0.24087086 0.02631093
v -0.02928410 -0.22919335 0.02631093
v -0.02510135 -0.23225161 0.05706714
v -0.01771222 -0.23973857 0.10797100
v -0.01644700 -0.23698718 0.11029313
v -0.01302107 -0.23654273 0.12473660
v -0.02510135 -0.23319343 0.05706714
v -0.02612393 -0.23421993 0.04416533
f 1 2 3
f 1 3 12
f 1 12 21
f 1 21 27
f 1 27 29
f 1 29 37
f 1 37 50
f 1 50 64
f 1 64 72
f 1 72 81
f 1 81 93
f 1 93 82
f 1 82 73
f 1 73 65
f 1 65 51
f 1 51 38
f 1 38 30
f 1 30 23
f 1 23 14
f 1 14 4
f 1 4 5
f 1 5 6
f 1 6 7
f 1 7 8
f 1 8 9
f 1 9 2
f 2 9 8
f 2 8 10
f 2 10 3
f 3 11 12
f 3 10 13
f 3 13 11
f 4 14 15
f 4 15 16
f 4 16 6
f 4 6 5
f 6 16 17
f 6 17 18
f 6 18 7
f 7 18 19
f 7 19 20
f 7 20 8
f 8 20 10
f 10 20 19
f 10 19 18
f 10 18 26
f 10 26 15
f 10 15 25
f 10 25 24
f 10 24 35
f 10 35 44
f 10 44 59
f 10 59 58
f 10 58 56
f 10 56 70
f 10 70 68
f 10 68 67
f 10 67 78
f 10 78 88
f 10 88 87
f 10 87 86
f 10 86 85
f 10 85 89
f 10 89 79
f 10 79 71
f 10 71 60
f 10 60 45
f 10 45 36
f 10 36 28
f 10 28 22
f 10 22 13
f 11 13 12
f 12 13 22
f 12 22 21
f 14 23 24
f 14 24 25
f 14 25 15
f 15 26 16
f 16 26 18
f 16 18 17
f 21 22 27
f 22 28 29
f 22 29 27
f 23 30 31
f 23 31 32
f 23 32 33
f 23 33 34
f 23 34 24
f 24 34 35
f 28 36 37
f 28 37 29
f 30 32 31
f 30 38 39
f 30 39 40
f 30 40 41
f 30 41 42
f 30 42 43
f 30 43 32
f 32 43 33
f 33 43 34
f 34 43 35
f 35 43 44
f 36 45 46
f 36 46 47
f 36 47 48
f 36 48 37
f 37 48 46
f 37 46 49
f 37 49 50
f 38 51 52
f 38 52 53
f 38 53 54
f 38 54 55
f 38 55 39
f 39 55 40
f 40 55 41
f 41 55 56
f 41 56 57
f 41 57 42
f 42 57 58
f 42 58 59
f 42 59 43
f 43 59 44
f 45 60 61
f 45 61 62
f 45 62 63
f 45 63 46
f 46 63 49
f 46 48 47
f 49 63 50
f 50 63 62
f 50 62 64
f 51 65 66
f 51 66 52
f 52 66 67
f 52 67 68
f 52 68 69
f 52 69 53
f 53 69 54
f 54 69 55
f 55 69 70
f 55 70 56
f 56 58 57
f 60 71 72
f 60 72 64
f 60 64 62
f 60 62 61
f 65 73 74
f 65 74 75
f 65 75 76
f 65 76 77
f 65 77 66
f 66 77 67
f 67 77 78
f 68 70 69
f 71 79 80
f 71 80 81
f 71 81 72
f 73 82 83
f 73 83 84
f 73 84 74
f 74 84 76
f 74 76 75
f 76 85 86
f 76 86 87
f 76 87 88
f 76 88 77
f 76 84 85
f 77 88 78
f 79 89 90
f 79 90 91
f 79 91 92
f 79 92 80
f 80 92 91
f 80 91 93
f 80 93 81
f 82 93 83
f 83 93 91
f 83 91 90
f 83 90 94
f 83 94 95
f 83 95 85
f 83 85 84
f 85 95 89
f 89 95 94
f 89 94 90

