v 0.06457782 -0.26589660 0.37157937
v 0.06452668 -0.26442428 0.37157937
v 0.06371414 -0.27054045 0.37157937
v 0.06370278 -0.23404503 0.29330367
v 0.06386756 -0.26118213 0.37157937
v 0.06364595 -0.23404503 0.30027375
v 0.06306638 -0.27147830 0.37157937
v 0.05596945 -0.26990515 0.33221398
v 0.04620194 -0.25905938 0.24933944
v 0.04867365 -0.25539371 0.24933944
v 0.04866229 -0.25537856 0.24924364
v 0.06363459 -0.23404503 0.29293241
v 0.05942985 -0.25752151 0.37157937
v 0.06354936 -0.23404503 0.30065698
v 0.06248681 -0.23404503 0.30377077
v 0.06129925 -0.27401454 0.37157937
v 0.05527056 -0.27624319 0.35016613
v 0.04852592 -0.26973875 0.29613003
v 0.04288360 -0.26617391 0.25723170
v 0.04253699 -0.26431335 0.24933944
v 0.04249154 -0.26434865 0.24924364
v 0.04619058 -0.25903920 0.24924364
v 0.04866229 -0.25408272 0.24924364
v 0.05528760 -0.23404503 0.25968679
v 0.05647516 -0.23404503 0.26189041
v 0.05729338 -0.23404503 0.26393831
v 0.05870253 -0.23404503 0.26918384
v 0.05919688 -0.23404503 0.27132756
v 0.05990146 -0.23404503 0.27469284
v 0.06066854 -0.23404503 0.27835752
v 0.06260045 -0.23404503 0.28760305
v 0.05826502 -0.25659879 0.37157937
v 0.05956053 -0.23404503 0.30464504
v 0.04253131 -0.24687742 0.37157937
v 0.04503143 -0.24800687 0.37157937
v 0.04619626 -0.24859681 0.37157937
v 0.05201472 -0.25220198 0.37157937
v 0.05576490 -0.25477856 0.37157937
v 0.05752067 -0.27927860 0.37157937
v 0.05699223 -0.27858779 0.36657339
v 0.05622514 -0.27755920 0.35924403
v 0.05578762 -0.27695414 0.35505238
v 0.04108238 -0.26957234 0.26005807
v 0.04057099 -0.26884627 0.25517182
v 0.03996301 -0.26797399 0.24933944
v 0.03995164 -0.26795885 0.24924364
v 0.04683834 -0.25042208 0.24924364
v 0.05208291 -0.23404503 0.25856105
v 0.04678720 -0.25033639 0.24924364
v 0.04317907 -0.24595470 0.24924364
v 0.03805951 -0.24233944 0.24924364
v 0.03432637 -0.23976289 0.24924364
v 0.05934461 -0.23404503 0.30466899
v 0.03991755 -0.24687742 0.37157937
v 0.05325910 -0.23404503 0.30493246
v 0.05445234 -0.28293922 0.37157937
v 0.05025895 -0.27931390 0.33725591
v 0.04946346 -0.27830040 0.32992655
v 0.04140626 -0.27717600 0.28824978
v 0.03629806 -0.27213380 0.24933944
v 0.03628669 -0.27211865 0.24924364
v 0.04467914 -0.23404503 0.25821375
v 0.03004208 -0.23697960 0.24924364
v 0.02271219 -0.23412066 0.24924364
v 0.03366725 -0.24748250 0.35572306
v 0.03875272 -0.24768418 0.37157937
v 0.04828727 -0.23404503 0.30458516
v 0.04798044 -0.23404503 0.30453725
v 0.04671901 -0.23404503 0.30337556
v 0.04149149 -0.23404503 0.29379470
v 0.02596234 -0.23982843 0.29896838
v 0.05078739 -0.28555612 0.37157937
v 0.05018509 -0.28527376 0.36657339
v 0.04862819 -0.28433592 0.35337573
v 0.03391727 -0.27691379 0.26565090
v 0.03620715 -0.27213883 0.24924364
v 0.03919592 -0.23404503 0.25888440
v 0.01608687 -0.23689892 0.24924364
v 0.02271219 -0.23413075 0.24933944
v 0.04133807 -0.23404503 0.29330367
v 0.03921866 -0.23404503 0.28609406
v 0.03787768 -0.23404503 0.27864494
v 0.03666172 -0.23404503 0.27132756
v 0.03658217 -0.23404503 0.26508800
v 0.03665035 -0.23404503 0.26399819
v 0.02505889 -0.24565721 0.31527980
v 0.02593393 -0.24689256 0.32260916
v 0.02637145 -0.24751274 0.32627385
v 0.03287745 -0.25376003 0.37157937
v 0.03625260 -0.25009435 0.37157937
v 0.01854153 -0.23953597 0.26979461
v 0.01914952 -0.24028726 0.27468086
v 0.02271219 -0.23491230 0.25666883
v 0.02271219 -0.23583503 0.26399819
v 0.02333153 -0.23781661 0.27864494
v 0.01699601 -0.23767541 0.25666883
v 0.01785968 -0.23867882 0.26399819
v 0.04583829 -0.28555612 0.37157937
v 0.04604852 -0.28527376 0.36657339
v 0.04766792 -0.28433592 0.35337573
v 0.03351952 -0.27691379 0.26565090
v 0.03004208 -0.27360610 0.24924364
v 0.01600732 -0.23698967 0.24924364
v 0.01242761 -0.24116965 0.24924364
v 0.02100756 -0.25153138 0.31566303
v 0.02640554 -0.25488443 0.34811822
v 0.02815563 -0.25143557 0.34524398
v 0.01915520 -0.24766400 0.29652524
v 0.02686011 -0.25553487 0.35191464
v 0.02774083 -0.25684080 0.35924403
v 0.03154784 -0.25569119 0.37157937
v 0.04217334 -0.28342832 0.37157937
v 0.03316723 -0.27715079 0.28597430
v 0.02425203 -0.27097913 0.24924364
v 0.02995685 -0.27358595 0.24924364
v 0.03004208 -0.27362125 0.24933944
v 0.00992181 -0.24474961 0.24924364
v 0.01074571 -0.24609589 0.25666883
v 0.01860972 -0.25420877 0.31347141
v 0.01918929 -0.25507098 0.31835764
v 0.02526913 -0.26050144 0.35924403
v 0.02954206 -0.25861567 0.37157937
v 0.04058236 -0.28239467 0.37157937
v 0.03736061 -0.28009542 0.32992655
v 0.03314450 -0.27715582 0.29330367
v 0.01538229 -0.26474697 0.24924364
v 0.02947956 -0.27464481 0.29330367
v 0.03312745 -0.27722136 0.33725591
v 0.00987067 -0.24483030 0.24924364
v 0.00987635 -0.24485047 0.24933944
v 0.01149006 -0.25447098 0.28353119
v 0.01136505 -0.24698331 0.26186646
v 0.02596802 -0.26150988 0.36459734
v 0.01888246 -0.26184770 0.33468107
v 0.02826927 -0.26070312 0.37157937
v 0.03602532 -0.27924833 0.37157937
v 0.01171734 -0.26216536 0.24924364
v 0.01538229 -0.26474697 0.24933944
v 0.03312745 -0.27722136 0.35191464
v 0.00980816 -0.24494122 0.24924364
v 0.01017182 -0.25236839 0.27132756
v 0.01094458 -0.25365919 0.27864494
v 0.00653528 -0.25117339 0.24924364
v 0.01149006 -0.25585757 0.28353119
v 0.02679193 -0.26320910 0.37157937
v 0.01888246 -0.26257377 0.33468107
v 0.02555891 -0.26677897 0.37157937
v 0.02615553 -0.26494867 0.37157937
v 0.03317291 -0.27722136 0.37157937
v 0.02946251 -0.27464481 0.35191464
v 0.00837628 -0.25849969 0.24924364
v 0.01171734 -0.26216536 0.26035746
v 0.00794444 -0.25117842 0.25666883
v 0.00892176 -0.25850474 0.25666883
v 0.01017182 -0.25784421 0.27132756
v 0.01094458 -0.25703241 0.27864494
v 0.01298445 -0.25850474 0.29330367
v 0.01780286 -0.26398560 0.32260916
v 0.02557596 -0.27049003 0.37157937
v 0.02950797 -0.27415068 0.37157937
v 0.02486002 -0.27091357 0.35924403
v 0.02457023 -0.27097913 0.35191464
v 0.02445090 -0.27097913 0.34458528
v 0.02946819 -0.27457927 0.35924403
v 0.01657553 -0.26469152 0.30796242
v 0.01614369 -0.26471673 0.30063303
v 0.01707555 -0.26453520 0.31527980
v 0.02529186 -0.27073207 0.36657339
v 0.02817835 -0.27299096 0.37157937
f 1 2 5
f 1 5 13
f 1 13 32
f 1 32 38
f 1 38 37
f 1 37 36
f 1 36 35
f 1 35 34
f 1 34 54
f 1 54 66
f 1 66 90
f 1 90 89
f 1 89 111
f 1 111 122
f 1 122 135
f 1 135 145
f 1 145 148
f 1 148 147
f 1 147 159
f 1 159 169
f 1 169 160
f 1 160 149
f 1 149 136
f 1 136 123
f 1 123 112
f 1 112 98
f 1 98 72
f 1 72 56
f 1 56 39
f 1 39 16
f 1 16 7
f 1 7 3
f 1 3 4
f 1 4 2
f 2 4 6
f 2 6 5
f 3 7 8
f 3 8 9
f 3 9 10
f 3 10 4
f 4 10 11
f 4 11 12
f 4 12 31
f 4 31 30
f 4 30 29
f 4 29 28
f 4 28 27
f 4 27 26
f 4 26 25
f 4 25 24
f 4 24 48
f 4 48 62
f 4 62 77
f 4 77 85
f 4 85 84
f 4 84 83
f 4 83 82
f 4 82 81
f 4 81 80
f 4 80 70
f 4 70 69
f 4 69 68
f 4 68 67
f 4 67 55
f 4 55 53
f 4 53 33
f 4 33 15
f 4 15 14
f 4 14 6
f 5 6 14
f 5 14 15
f 5 15 13
f 7 16 8
f 8 16 17
f 8 17 18
f 8 18 19
f 8 19 20
f 8 20 9
f 9 20 21
f 9 21 22
f 9 22 11
f 9 11 10
f 11 22 21
f 11 21 46
f 11 46 61
f 11 61 76
f 11 76 102
f 11 102 115
f 11 115 114
f 11 114 126
f 11 126 137
f 11 137 151
f 11 151 143
f 11 143 140
f 11 140 129
f 11 129 117
f 11 117 104
f 11 104 103
f 11 103 78
f 11 78 64
f 11 64 63
f 11 63 52
f 11 52 51
f 11 51 50
f 11 50 49
f 11 49 47
f 11 47 23
f 11 23 24
f 11 24 25
f 11 25 26
f 11 26 27
f 11 27 28
f 11 28 29
f 11 29 30
f 11 30 31
f 11 31 12
f 13 15 32
f 15 33 34
f 15 34 35
f 15 35 36
f 15 36 37
f 15 37 38
f 15 38 32
f 16 39 40
f 16 40 41
f 16 41 42
f 16 42 17
f 17 42 43
f 17 43 44
f 17 44 45
f 17 45 18
f 18 45 19
f 19 45 20
f 20 45 21
f 21 45 46
f 23 47 24
f 24 47 49
f 24 49 50
f 24 50 51
f 24 51 52
f 24 52 48
f 33 53 34
f 34 53 55
f 34 55 54
f 39 56 57
f 39 57 40
f 40 57 41
f 41 57 58
f 41 58 42
f 42 58 43
f 43 59 44
f 43 58 59
f 44 59 45
f 45 59 60
f 45 60 61
f 45 61 46
f 48 52 63
f 48 63 64
f 48 64 62
f 54 65 66
f 54 55 67
f 54 67 68
f 54 68 69
f 54 69 70
f 54 70 71
f 54 71 65
f 56 72 73
f 56 73 74
f 56 74 59
f 56 59 57
f 57 59 58
f 59 75 60
f 59 74 75
f 60 75 61
f 61 75 76
f 62 64 77
f 64 78 79
f 64 79 70
f 64 70 80
f 64 80 81
f 64 81 82
f 64 82 83
f 64 83 84
f 64 84 85
f 64 85 77
f 65 86 87
f 65 87 88
f 65 88 89
f 65 89 90
f 65 90 66
f 65 71 91
f 65 91 92
f 65 92 86
f 70 79 93
f 70 93 94
f 70 94 71
f 71 94 95
f 71 95 78
f 71 78 96
f 71 96 97
f 71 97 91
f 72 98 99
f 72 99 73
f 73 99 100
f 73 100 74
f 74 100 101
f 74 101 75
f 75 101 102
f 75 102 76
f 78 103 96
f 78 95 94
f 78 94 93
f 78 93 79
f 86 92 87
f 87 92 104
f 87 104 88
f 88 105 106
f 88 106 107
f 88 107 89
f 88 104 108
f 88 108 105
f 89 107 109
f 89 109 110
f 89 110 111
f 91 97 104
f 91 104 92
f 96 103 104
f 96 104 97
f 98 112 113
f 98 113 101
f 98 101 99
f 99 101 100
f 101 113 114
f 101 114 115
f 101 115 116
f 101 116 102
f 102 116 115
f 104 117 118
f 104 118 105
f 104 105 108
f 105 119 106
f 105 118 119
f 106 109 107
f 106 119 109
f 109 119 120
f 109 120 121
f 109 121 110
f 110 121 122
f 110 122 111
f 112 123 124
f 112 124 113
f 113 125 114
f 113 124 123
f 113 123 125
f 114 125 127
f 114 127 128
f 114 128 126
f 117 129 130
f 117 130 118
f 118 130 131
f 118 131 132
f 118 132 119
f 119 132 131
f 119 131 120
f 120 131 121
f 121 133 122
f 121 131 134
f 121 134 133
f 122 133 135
f 123 136 128
f 123 128 127
f 123 127 125
f 126 128 139
f 126 139 138
f 126 138 152
f 126 152 137
f 128 136 139
f 129 140 130
f 130 140 141
f 130 141 142
f 130 142 131
f 131 142 143
f 131 143 144
f 131 144 146
f 131 146 134
f 133 145 135
f 133 134 145
f 134 146 147
f 134 147 148
f 134 148 145
f 136 149 150
f 136 150 139
f 137 152 151
f 138 139 150
f 138 150 152
f 140 143 153
f 140 153 141
f 141 153 142
f 142 153 143
f 143 151 154
f 143 154 155
f 143 155 156
f 143 156 157
f 143 157 144
f 144 157 146
f 146 158 159
f 146 159 147
f 146 157 155
f 146 155 158
f 149 160 161
f 149 161 162
f 149 162 163
f 149 163 164
f 149 164 150
f 150 164 163
f 150 163 152
f 151 152 165
f 151 165 154
f 152 166 165
f 152 163 162
f 152 162 161
f 152 161 166
f 154 165 167
f 154 167 155
f 155 157 156
f 155 167 158
f 158 167 159
f 159 168 169
f 159 167 168
f 160 169 161
f 161 169 168
f 161 168 165
f 161 165 166
f 165 168 167

