v 0.03660729 -0.23404503 0.26508326
v 0.03667632 -0.23404503 0.26399804
v 0.03667632 -0.23404503 0.27132171
v 0.04797283 -0.21763418 0.26399804
v 0.04806486 -0.21776959 0.26004703
v 0.03923011 -0.23404503 0.25888382
v 0.03791869 -0.23404503 0.27865189
v 0.23400874 0.04258350 0.28707378
v 0.20212080 0.00169177 0.26809851
v 0.06304252 -0.19615925 0.26771510
v 0.06304252 -0.19615925 0.26759815
v 0.20212080 0.00169177 0.26701329
v 0.22367854 0.03167001 0.26551216
v 0.17269465 -0.04212468 0.26017699
v 0.14273933 -0.08493914 0.25972861
v 0.24935452 0.04258350 0.25160564
v 0.04470581 -0.23404503 0.25821448
v 0.03925312 -0.23404503 0.28609254
v 0.23566525 0.04258350 0.29389059
v 0.23159299 0.04258350 0.27132171
v 0.22634736 0.03519050 0.27132171
v 0.18021800 -0.04236840 0.31159866
v 0.23014354 0.04014625 0.26399804
v 0.22614028 0.03429684 0.26343918
v 0.22439175 0.03069512 0.26062539
v 0.23092577 0.03906303 0.25994955
v 0.23541218 0.04258350 0.25877334
v 0.25719995 0.04258350 0.25636244
v 0.06465302 -0.22055887 0.25909826
v 0.05211412 -0.23404503 0.25856540
v 0.05204510 -0.22917052 0.25800654
v 0.04136977 -0.23404503 0.29329274
v 0.07758305 -0.18868500 0.31176764
v 0.23773590 0.04258350 0.29994707
v 0.19524167 -0.02081223 0.31033800
v 0.20179871 -0.01255264 0.31222901
v 0.23200712 0.04258350 0.26399804
v 0.11400338 -0.13709642 0.31238499
v 0.17193542 -0.05563791 0.31340522
v 0.18689007 -0.03408173 0.31289185
v 0.26297475 0.04258350 0.27303078
v 0.06297350 -0.22543341 0.26052790
v 0.05611737 -0.23350342 0.25992355
v 0.05531211 -0.23404503 0.25968962
v 0.04153082 -0.23404503 0.29378661
v 0.08156329 -0.18584152 0.31352220
v 0.08416310 -0.18031709 0.31292435
v 0.09907173 -0.15870675 0.31280737
v 0.05565722 -0.21809456 0.30437247
v 0.06999068 -0.20279401 0.31194308
v 0.07645569 -0.19253045 0.31270341
v 0.24291251 0.04258350 0.30764766
v 0.20851680 -0.00437429 0.31266442
v 0.19353914 -0.02568674 0.31343121
v 0.15700377 -0.07722116 0.31361968
v 0.17851547 -0.04724292 0.31393808
v 0.12060644 -0.12872851 0.31346371
v 0.27164845 0.04258350 0.31354820
v 0.05922334 -0.23404503 0.27132171
v 0.05871718 -0.23404503 0.26919673
v 0.05731374 -0.23404503 0.26393305
v 0.05650849 -0.23404503 0.26189905
v 0.04675345 -0.23404503 0.30335874
v 0.04799584 -0.23228478 0.30451545
v 0.04686849 -0.23063289 0.30061641
v 0.08848844 -0.17787982 0.31471141
v 0.08135622 -0.19253045 0.31487385
v 0.10330506 -0.15610701 0.31496484
v 0.10574381 -0.15039300 0.31375614
v 0.07383288 -0.20016717 0.31299584
v 0.06978362 -0.20639572 0.31194308
v 0.24378677 0.04258350 0.30864840
v 0.19114640 -0.03156323 0.31478289
v 0.20598600 -0.00981750 0.31356769
v 0.24802009 0.04258350 0.31291785
v 0.17626076 -0.05325481 0.31544571
v 0.09272176 -0.19667377 0.31196908
v 0.09267576 -0.19661963 0.30794009
v 0.07700787 -0.21728214 0.30061641
v 0.06373274 -0.23404503 0.29329274
v 0.06260538 -0.23404503 0.28758715
v 0.05993656 -0.23404503 0.27469438
v 0.24960759 0.04258350 0.31354820
v 0.19855470 -0.03140075 0.31733025
v 0.18389914 -0.05339022 0.31793460
v 0.11798362 -0.14855152 0.31773313
v 0.10335106 -0.17054097 0.31709632
v 0.10346610 -0.17779858 0.31427600
v 0.10114238 -0.18367509 0.31300883
v 0.04799584 -0.23404503 0.30451545
v 0.06973761 -0.20720814 0.31194308
v 0.08869551 -0.18519160 0.31635549
v 0.10335106 -0.16320212 0.31740171
v 0.06992166 -0.21118899 0.31171565
v 0.08135622 -0.19986930 0.31437349
v 0.11798362 -0.14121267 0.31723927
v 0.12500081 -0.12639957 0.31547820
v 0.19121542 -0.03871252 0.31742771
v 0.15458802 -0.09000321 0.31736925
v 0.17655986 -0.06070198 0.31786311
v 0.09426323 -0.19253045 0.31295034
v 0.08579660 -0.20439176 0.31212505
v 0.07061188 -0.22581252 0.30452845
v 0.07357980 -0.22185877 0.30061641
v 0.07056587 -0.22575836 0.30061641
v 0.06366371 -0.23404503 0.30025900
v 0.16190429 -0.08269144 0.31798657
v 0.11066735 -0.15586327 0.31796710
v 0.13263919 -0.12656205 0.31785662
v 0.09601179 -0.17787982 0.31703133
v 0.08869551 -0.19253045 0.31512729
v 0.08841942 -0.19940892 0.31285286
v 0.09660997 -0.18573321 0.31443198
v 0.04831794 -0.23404503 0.30456742
v 0.12532290 -0.13390090 0.31786311
v 0.07233742 -0.21118899 0.31171565
v 0.05326447 -0.23404503 0.30491184
v 0.08135622 -0.20596241 0.31250844
v 0.07723794 -0.21078278 0.31156617
v 0.06331861 -0.23312430 0.30445046
v 0.06380176 -0.23385546 0.30061641
v 0.06357168 -0.23404503 0.30064241
v 0.05938438 -0.23404503 0.30465190
v 0.05959145 -0.23404503 0.30462591
v 0.06249035 -0.23404503 0.30375512
f 1 2 6
f 1 6 17
f 1 17 30
f 1 30 44
f 1 44 62
f 1 62 61
f 1 61 60
f 1 60 59
f 1 59 82
f 1 82 81
f 1 81 80
f 1 80 106
f 1 106 122
f 1 122 125
f 1 125 124
f 1 124 123
f 1 123 117
f 1 117 114
f 1 114 90
f 1 90 63
f 1 63 45
f 1 45 32
f 1 32 18
f 1 18 7
f 1 7 3
f 1 3 4
f 1 4 5
f 1 5 2
f 2 5 6
f 3 7 8
f 3 8 9
f 3 9 10
f 3 10 4
f 4 10 11
f 4 11 12
f 4 12 5
f 5 12 13
f 5 13 14
f 5 14 15
f 5 15 16
f 5 16 6
f 6 16 17
f 7 18 8
f 8 19 34
f 8 34 52
f 8 52 72
f 8 72 75
f 8 75 83
f 8 83 58
f 8 58 41
f 8 41 28
f 8 28 16
f 8 16 27
f 8 27 37
f 8 37 20
f 8 20 21
f 8 21 9
f 8 18 22
f 8 22 19
f 9 21 20
f 9 20 13
f 9 13 12
f 9 12 11
f 9 11 10
f 13 20 23
f 13 23 24
f 13 24 14
f 14 24 25
f 14 25 26
f 14 26 15
f 15 26 27
f 15 27 16
f 16 28 29
f 16 29 30
f 16 30 31
f 16 31 17
f 17 31 30
f 18 32 33
f 18 33 22
f 19 22 35
f 19 35 36
f 19 36 34
f 20 37 23
f 22 33 38
f 22 38 39
f 22 39 40
f 22 40 36
f 22 36 35
f 23 37 26
f 23 26 25
f 23 25 24
f 26 37 27
f 28 41 42
f 28 42 29
f 29 42 43
f 29 43 44
f 29 44 30
f 32 45 33
f 33 46 47
f 33 47 48
f 33 48 38
f 33 45 49
f 33 49 50
f 33 50 51
f 33 51 46
f 34 36 53
f 34 53 52
f 36 40 54
f 36 54 53
f 38 48 39
f 39 55 56
f 39 56 40
f 39 48 57
f 39 57 55
f 40 56 54
f 41 58 59
f 41 59 60
f 41 60 42
f 42 60 61
f 42 61 62
f 42 62 43
f 43 62 44
f 45 63 64
f 45 64 65
f 45 65 49
f 46 66 47
f 46 51 67
f 46 67 66
f 47 66 68
f 47 68 69
f 47 69 48
f 48 69 57
f 49 65 64
f 49 64 50
f 50 70 67
f 50 67 51
f 50 64 71
f 50 71 70
f 52 53 72
f 53 54 73
f 53 73 74
f 53 74 75
f 53 75 72
f 54 56 73
f 55 76 56
f 55 57 69
f 55 69 68
f 55 68 76
f 56 76 73
f 58 77 78
f 58 78 79
f 58 79 80
f 58 80 81
f 58 81 82
f 58 82 59
f 58 83 84
f 58 84 85
f 58 85 86
f 58 86 87
f 58 87 88
f 58 88 89
f 58 89 77
f 63 90 64
f 64 90 91
f 64 91 71
f 66 67 92
f 66 92 93
f 66 93 68
f 67 70 91
f 67 91 94
f 67 94 95
f 67 95 92
f 68 93 96
f 68 96 97
f 68 97 76
f 70 71 91
f 73 76 98
f 73 98 74
f 74 98 75
f 75 98 83
f 76 97 96
f 76 96 99
f 76 99 100
f 76 100 98
f 77 89 101
f 77 101 102
f 77 102 103
f 77 103 104
f 77 104 78
f 78 104 79
f 79 104 80
f 80 104 105
f 80 105 103
f 80 103 106
f 83 98 84
f 84 98 85
f 85 98 100
f 85 100 107
f 85 107 108
f 85 108 109
f 85 109 86
f 86 109 108
f 86 108 87
f 87 108 110
f 87 110 111
f 87 111 112
f 87 112 113
f 87 113 101
f 87 101 88
f 88 101 89
f 90 114 94
f 90 94 91
f 92 110 93
f 92 95 111
f 92 111 110
f 93 110 108
f 93 108 115
f 93 115 96
f 94 116 95
f 94 114 117
f 94 117 116
f 95 118 102
f 95 102 111
f 95 116 119
f 95 119 118
f 96 115 100
f 96 100 99
f 100 115 107
f 101 112 102
f 101 113 112
f 102 112 111
f 102 118 119
f 102 119 120
f 102 120 103
f 103 120 121
f 103 121 106
f 103 105 104
f 106 121 122
f 107 115 108
f 116 117 123
f 116 123 119
f 119 123 124
f 119 124 120
f 120 124 125
f 120 125 121
f 121 125 122

