v -0.02979228 -0.20668280 -0.28558274
v -0.02979228 -0.20673778 -0.29108519
v -0.02979228 -0.20720500 -0.27825438
v 0.02141120 -0.23161059 -0.26363229
v -0.02979228 -0.20675838 -0.29290615
v -0.02979228 -0.20924567 -0.27375146
v 0.01686498 -0.23161746 -0.26363229
v 0.02505910 -0.23352071 -0.26363229
v 0.03003494 -0.23697680 -0.30756286
v -0.02979228 -0.20740424 -0.30023450
v 0.03003494 -0.23716917 -0.31418363
v -0.02979228 -0.21453630 -0.27232635
v 0.01321707 -0.23414598 -0.26363229
v 0.03003494 -0.23677067 -0.26363229
v 0.03003494 -0.23677067 -0.27092601
v 0.03387813 -0.23949842 -0.31418363
v -0.02487113 -0.21084659 -0.30392095
v -0.02979228 -0.20866163 -0.30344593
v 0.02932410 -0.23711422 -0.31418363
v -0.02979228 -0.20938996 -0.30458896
v -0.02979228 -0.22211496 -0.27296964
v 0.00333570 -0.25592686 -0.26363229
v 0.00284359 -0.25119278 -0.26363229
v 0.00389031 -0.24674728 -0.26363229
v 0.00391374 -0.24669230 -0.26363229
v 0.00631183 -0.24305757 -0.26363229
v 0.00995193 -0.23784252 -0.26363229
v 0.00999879 -0.23778757 -0.26363229
v 0.03428432 -0.23976640 -0.26363229
v 0.04316583 -0.24599835 -0.29290615
v 0.03795566 -0.24233614 -0.28558274
v 0.03795566 -0.24233614 -0.31418363
v 0.03429213 -0.23976640 -0.30756286
v 0.03429213 -0.23977327 -0.31418363
v 0.02229388 -0.23787001 -0.31418363
v -0.02979228 -0.21330640 -0.30582109
v -0.02979228 -0.22311810 -0.27387517
v 0.01170948 -0.26216568 -0.29665197
v 0.00806939 -0.25960281 -0.26363229
v -0.02979228 -0.22665663 -0.27796737
v -0.02979228 -0.22688339 -0.27919455
v -0.02979228 -0.22743305 -0.28558274
v -0.02979228 -0.22745367 -0.28781440
v -0.02979228 -0.22749489 -0.29290615
v 0.03793223 -0.24249416 -0.26363229
v 0.04315022 -0.24599835 -0.28558274
v 0.04682936 -0.24882918 -0.31418363
v 0.04316583 -0.24599835 -0.31418363
v 0.02190331 -0.23797994 -0.31418363
v -0.02979228 -0.21453630 -0.30596459
v 0.01909903 -0.24035731 -0.31418363
v -0.02979228 -0.22745367 -0.29446483
v 0.01178759 -0.26208323 -0.30154084
v 0.02058319 -0.26840450 -0.31418363
v 0.02424672 -0.27098110 -0.31418363
v 0.01170948 -0.26216568 -0.26363229
v 0.04237689 -0.24617011 -0.26363229
v 0.04293150 -0.24602582 -0.27825438
v 0.04682936 -0.24891848 -0.30756286
v 0.04971957 -0.25213411 -0.31418363
v -0.02979228 -0.22175078 -0.30572211
v 0.01699777 -0.24322248 -0.31418363
v 0.01323270 -0.24879482 -0.31418363
v 0.01045185 -0.25301359 -0.31418363
v 0.01045185 -0.25669641 -0.31418363
v -0.02979228 -0.22714447 -0.29984359
v 0.01549799 -0.26445370 -0.31418363
v 0.01585731 -0.26474228 -0.31418363
v 0.02481695 -0.27134525 -0.31418363
v 0.02424672 -0.27098110 -0.30023450
v 0.01538082 -0.26474228 -0.26363229
v 0.04368139 -0.25117216 -0.26363229
v 0.04849319 -0.25438775 -0.28840324
v 0.04883689 -0.25365945 -0.29290615
v 0.04935244 -0.25292426 -0.30023450
v 0.04978207 -0.25258757 -0.30756286
v 0.04682936 -0.24926204 -0.30023450
v 0.05000859 -0.25249139 -0.31418363
v -0.02979228 -0.22226611 -0.30560335
v 0.01062370 -0.25740411 -0.31418363
v 0.01219379 -0.26106633 -0.31418363
v -0.02979228 -0.22702081 -0.30081345
v -0.02979228 -0.22605886 -0.30373788
v 0.03069890 -0.27507618 -0.30688495
v 0.03140973 -0.27548155 -0.31418363
v 0.03358911 -0.27687637 -0.31229340
v 0.02424672 -0.27096048 -0.29290615
v 0.02072380 -0.26841823 -0.26363229
v 0.02425453 -0.27093988 -0.28558274
v 0.04233002 -0.25690940 -0.26363229
v 0.04849319 -0.25506800 -0.28840324
v 0.04883689 -0.25565888 -0.29290615
v 0.04935244 -0.25662083 -0.30023450
v 0.04978207 -0.25759649 -0.30756286
v 0.05000859 -0.25297234 -0.31418363
v 0.03358911 -0.27687637 -0.30887911
v 0.03599501 -0.27549531 -0.31418363
v 0.03382345 -0.27687637 -0.31229340
v 0.02428578 -0.27089177 -0.27825438
v 0.02437170 -0.27068563 -0.26363229
v 0.03992412 -0.26057849 -0.26363229
v 0.04636850 -0.25932796 -0.29290615
v 0.04614977 -0.26537441 -0.31418363
v 0.04818854 -0.26189083 -0.31211525
v 0.04602480 -0.25790569 -0.28581036
v 0.04985236 -0.25896381 -0.31418363
v 0.03382345 -0.27687637 -0.30887911
v 0.03640120 -0.27523423 -0.31418363
v 0.02588710 -0.27065817 -0.26363229
v 0.03585440 -0.26630198 -0.26363229
v 0.03586221 -0.26632260 -0.26373619
v 0.04061933 -0.26157477 -0.27092601
v 0.04458751 -0.26582789 -0.30756286
v 0.04664971 -0.26465294 -0.31418363
v 0.04593106 -0.26568361 -0.31418363
v 0.04952428 -0.25962343 -0.31418363
v 0.04298618 -0.26624702 -0.30065512
v 0.04098647 -0.26210383 -0.27480049
v 0.04213474 -0.27091925 -0.31418363
v 0.03670584 -0.27441656 -0.30688495
v 0.03389375 -0.26970998 -0.26627466
v 0.03038645 -0.27057570 -0.26363229
v 0.03573723 -0.26644627 -0.26363229
v 0.04065839 -0.26896792 -0.29849272
v 0.04012721 -0.26821210 -0.29290615
v 0.04111926 -0.26962064 -0.30338159
v 0.04151764 -0.27014970 -0.30756286
v 0.03646369 -0.27225909 -0.29290615
v 0.03052705 -0.27051388 -0.26363229
f 1 2 5
f 1 5 10
f 1 10 18
f 1 18 20
f 1 20 36
f 1 36 50
f 1 50 61
f 1 61 79
f 1 79 83
f 1 83 82
f 1 82 66
f 1 66 52
f 1 52 44
f 1 44 43
f 1 43 42
f 1 42 41
f 1 41 40
f 1 40 37
f 1 37 21
f 1 21 12
f 1 12 6
f 1 6 3
f 1 3 4
f 1 4 2
f 2 4 5
f 3 6 4
f 4 7 13
f 4 13 28
f 4 28 27
f 4 27 26
f 4 26 25
f 4 25 24
f 4 24 23
f 4 23 22
f 4 22 39
f 4 39 56
f 4 56 71
f 4 71 88
f 4 88 100
f 4 100 109
f 4 109 122
f 4 122 129
f 4 129 123
f 4 123 110
f 4 110 101
f 4 101 90
f 4 90 72
f 4 72 57
f 4 57 45
f 4 45 29
f 4 29 14
f 4 14 8
f 4 8 9
f 4 9 5
f 4 6 7
f 5 9 11
f 5 11 10
f 6 12 7
f 7 12 13
f 8 14 15
f 8 15 9
f 9 15 16
f 9 16 11
f 10 17 18
f 10 11 17
f 11 16 34
f 11 34 32
f 11 32 48
f 11 48 47
f 11 47 60
f 11 60 78
f 11 78 95
f 11 95 106
f 11 106 116
f 11 116 114
f 11 114 103
f 11 103 115
f 11 115 119
f 11 119 108
f 11 108 97
f 11 97 85
f 11 85 69
f 11 69 55
f 11 55 54
f 11 54 68
f 11 68 67
f 11 67 81
f 11 81 80
f 11 80 65
f 11 65 64
f 11 64 63
f 11 63 62
f 11 62 51
f 11 51 49
f 11 49 35
f 11 35 19
f 11 19 20
f 11 20 18
f 11 18 17
f 12 21 22
f 12 22 23
f 12 23 24
f 12 24 25
f 12 25 26
f 12 26 27
f 12 27 28
f 12 28 13
f 14 29 30
f 14 30 31
f 14 31 32
f 14 32 15
f 15 32 33
f 15 33 34
f 15 34 16
f 19 35 36
f 19 36 20
f 21 37 22
f 22 38 39
f 22 37 40
f 22 40 41
f 22 41 42
f 22 42 43
f 22 43 44
f 22 44 38
f 29 45 46
f 29 46 30
f 30 46 47
f 30 47 48
f 30 48 32
f 30 32 31
f 32 34 33
f 35 49 36
f 36 49 51
f 36 51 50
f 38 44 52
f 38 52 53
f 38 53 54
f 38 54 55
f 38 55 70
f 38 70 56
f 38 56 39
f 45 57 58
f 45 58 46
f 46 58 59
f 46 59 47
f 47 59 60
f 50 51 62
f 50 62 63
f 50 63 64
f 50 64 65
f 50 65 61
f 52 66 53
f 53 67 68
f 53 68 54
f 53 66 67
f 55 69 70
f 56 70 71
f 57 72 73
f 57 73 74
f 57 74 75
f 57 75 76
f 57 76 77
f 57 77 58
f 58 77 59
f 59 77 60
f 60 77 78
f 61 65 80
f 61 80 81
f 61 81 79
f 66 82 67
f 67 82 83
f 67 83 81
f 69 84 70
f 69 85 86
f 69 86 84
f 70 84 87
f 70 87 71
f 71 87 89
f 71 89 88
f 72 90 91
f 72 91 73
f 73 91 92
f 73 92 74
f 74 92 93
f 74 93 75
f 75 93 94
f 75 94 76
f 76 94 95
f 76 95 78
f 76 78 77
f 79 81 83
f 84 86 96
f 84 96 89
f 84 89 87
f 85 97 86
f 86 97 98
f 86 98 107
f 86 107 96
f 88 89 99
f 88 99 100
f 89 96 99
f 90 101 91
f 91 102 103
f 91 103 104
f 91 104 92
f 91 101 105
f 91 105 102
f 92 104 93
f 93 104 94
f 94 106 95
f 94 104 106
f 96 107 100
f 96 100 99
f 97 108 107
f 97 107 98
f 100 107 109
f 101 110 111
f 101 111 112
f 101 112 105
f 102 105 113
f 102 113 103
f 103 114 104
f 103 113 115
f 104 114 116
f 104 116 106
f 105 117 113
f 105 112 118
f 105 118 117
f 107 108 119
f 107 119 120
f 107 120 121
f 107 121 122
f 107 122 109
f 110 123 121
f 110 121 111
f 111 121 124
f 111 124 125
f 111 125 112
f 112 125 118
f 113 117 124
f 113 124 126
f 113 126 115
f 115 126 127
f 115 127 119
f 117 118 124
f 118 125 124
f 119 127 121
f 119 121 128
f 119 128 120
f 120 128 121
f 121 127 126
f 121 126 124
f 121 123 129
f 121 129 122

