v 0.10933592 0.17643300 -0.29290694
v 0.10923906 0.17643300 -0.29660925
v 0.10930825 0.17643300 -0.28920885
v 0.11590906 0.17137888 -0.28558641
v 0.14498306 0.14920109 -0.29290275
v 0.18240149 0.12049281 -0.30023169
v 0.10912835 0.17643300 -0.30023169
v 0.10926674 0.17643300 -0.28558641
v 0.10875473 0.17643300 -0.27847597
v 0.13638956 0.15555915 -0.28141345
v 0.22105152 0.09101941 -0.28558641
v 0.21147550 0.09839045 -0.29290275
v 0.16554659 0.13348912 -0.29290275
v 0.21139246 0.09833657 -0.30023169
v 0.10890694 0.17643300 -0.30236230
v 0.10847796 0.17643300 -0.27604281
v 0.20272976 0.10461920 -0.27825747
v 0.21111570 0.09809949 -0.27825747
v 0.22105152 0.09023273 -0.27825747
v 0.22105152 0.09098708 -0.29055361
v 0.21514262 0.09554549 -0.29290275
v 0.22105152 0.09095475 -0.29290275
v 0.22105152 0.09070689 -0.29749594
v 0.22105152 0.09052369 -0.30023169
v 0.21071439 0.09780853 -0.30469881
v 0.20253602 0.10444678 -0.30411050
v 0.10800746 0.17643300 -0.30436684
v 0.17346203 0.12661379 -0.30431639
v 0.10593173 0.17643300 -0.27399205
v 0.11492655 0.17064608 -0.27417274
v 0.20241150 0.10437135 -0.27445432
v 0.21039613 0.09754989 -0.27408029
v 0.21824237 0.09063146 -0.27385337
v 0.22105152 0.08594373 -0.27255484
v 0.22105152 0.08976935 -0.30239592
v 0.21317758 0.09329323 -0.30560654
v 0.17617431 0.12240023 -0.30541322
v 0.18162656 0.11990010 -0.30477447
v 0.21854680 0.09087932 -0.30486270
v 0.10640223 0.17643300 -0.30497198
v 0.11513413 0.17082928 -0.30451812
v 0.10323329 0.17643300 -0.27315997
v 0.11065055 0.17234874 -0.27350458
v 0.22105152 0.07598636 -0.26646138
v 0.18134979 0.11969535 -0.27393322
v 0.22105152 0.08615926 -0.30579145
v 0.22105152 0.08598684 -0.30585028
v 0.20588488 0.09323934 -0.30693867
v 0.16925523 0.12251877 -0.30687984
v 0.10331631 0.17382511 -0.30660251
v 0.12549891 0.15946020 -0.30584187
v 0.12000515 0.16438500 -0.30560654
v 0.11773570 0.16641096 -0.30550987
v 0.11002783 0.17349104 -0.30508545
v 0.10088080 0.17643300 -0.30632515
v 0.10404974 0.17454712 -0.27282798
v 0.22105152 0.07081370 -0.26425092
v 0.09602360 0.17643300 -0.27242876
v 0.22105152 0.07857269 -0.30689667
v 0.21320528 0.08591140 -0.30696391
v 0.17657562 0.11521238 -0.30710259
v 0.11065055 0.16649717 -0.30698071
v 0.09338050 0.17643300 -0.30696391
v 0.22105152 0.06636305 -0.27093272
v 0.09599593 0.17382511 -0.27209257
v 0.08877239 0.17643300 -0.27284058
v 0.08332016 0.17643300 -0.27373990
v 0.08340318 0.17626057 -0.27377772
v 0.09138781 0.16946068 -0.27404247
v 0.09937244 0.16260690 -0.27438285
v 0.22105152 0.07807698 -0.30690927
v 0.22053949 0.07857269 -0.30691768
v 0.12530519 0.15184129 -0.30717822
v 0.11797095 0.15916924 -0.30717822
v 0.09599593 0.17382511 -0.30695130
v 0.08579718 0.17643300 -0.30571579
v 0.12000515 0.15713250 -0.30717822
v 0.22105152 0.06921879 -0.30023169
v 0.08066322 0.17643300 -0.27825747
v 0.07968071 0.17643300 -0.28558641
v 0.07974991 0.17643300 -0.28908699
v 0.07986061 0.17643300 -0.29290694
v 0.08020657 0.17643300 -0.29678153
v 0.09897113 0.16231594 -0.30023169
v 0.22105152 0.07160037 -0.30506862
v 0.21338518 0.07858347 -0.30551409
v 0.11792944 0.15167966 -0.30578304
v 0.12000515 0.15172275 -0.30617806
v 0.10331631 0.16649717 -0.30669074
v 0.08875856 0.17373891 -0.30559813
v 0.08311258 0.17643300 -0.30497198
v 0.22105152 0.06938044 -0.30124445
v 0.09927557 0.16254224 -0.30420292
v 0.08060787 0.17643300 -0.30023169
v 0.21594522 0.07419748 -0.30454753
v 0.12035112 0.14718590 -0.30473243
v 0.08326481 0.17613126 -0.30490473
v 0.08250370 0.17643300 -0.30416933
v 0.19496654 0.08964003 -0.30341288
v 0.09126327 0.16936369 -0.30460216
f 1 2 7
f 1 7 15
f 1 15 27
f 1 27 40
f 1 40 55
f 1 55 63
f 1 63 76
f 1 76 91
f 1 91 98
f 1 98 94
f 1 94 83
f 1 83 82
f 1 82 81
f 1 81 80
f 1 80 79
f 1 79 67
f 1 67 66
f 1 66 58
f 1 58 42
f 1 42 29
f 1 29 16
f 1 16 9
f 1 9 8
f 1 8 3
f 1 3 4
f 1 4 5
f 1 5 6
f 1 6 2
f 2 6 7
f 3 8 4
f 4 8 9
f 4 9 10
f 4 10 11
f 4 11 12
f 4 12 13
f 4 13 5
f 5 13 6
f 6 13 12
f 6 12 14
f 6 14 15
f 6 15 7
f 9 16 17
f 9 17 10
f 10 17 11
f 11 17 18
f 11 18 19
f 11 19 34
f 11 34 44
f 11 44 57
f 11 57 64
f 11 64 78
f 11 78 92
f 11 92 85
f 11 85 71
f 11 71 59
f 11 59 47
f 11 47 46
f 11 46 35
f 11 35 24
f 11 24 23
f 11 23 22
f 11 22 20
f 11 20 12
f 12 20 21
f 12 21 14
f 14 21 22
f 14 22 23
f 14 23 24
f 14 24 25
f 14 25 26
f 14 26 15
f 15 26 28
f 15 28 27
f 16 29 30
f 16 30 31
f 16 31 17
f 17 31 18
f 18 31 19
f 19 31 32
f 19 32 33
f 19 33 34
f 20 22 21
f 24 35 25
f 25 36 37
f 25 37 38
f 25 38 28
f 25 28 26
f 25 35 39
f 25 39 36
f 27 28 38
f 27 38 41
f 27 41 40
f 29 42 43
f 29 43 30
f 30 43 44
f 30 44 45
f 30 45 31
f 31 45 44
f 31 44 32
f 32 44 33
f 33 44 34
f 35 46 39
f 36 39 46
f 36 46 47
f 36 47 48
f 36 48 49
f 36 49 37
f 37 49 50
f 37 50 51
f 37 51 52
f 37 52 53
f 37 53 54
f 37 54 38
f 38 54 41
f 40 41 54
f 40 54 55
f 42 56 57
f 42 57 43
f 42 58 56
f 43 57 44
f 47 59 60
f 47 60 48
f 48 61 49
f 48 60 61
f 49 61 62
f 49 62 50
f 50 55 54
f 50 54 53
f 50 53 52
f 50 52 51
f 50 62 63
f 50 63 55
f 56 58 57
f 57 58 65
f 57 65 66
f 57 66 67
f 57 67 68
f 57 68 69
f 57 69 70
f 57 70 64
f 58 66 65
f 59 71 72
f 59 72 60
f 60 72 61
f 61 72 73
f 61 73 74
f 61 74 62
f 62 74 63
f 63 75 76
f 63 74 77
f 63 77 73
f 63 73 75
f 64 70 79
f 64 79 80
f 64 80 81
f 64 81 82
f 64 82 83
f 64 83 84
f 64 84 78
f 67 79 68
f 68 79 70
f 68 70 69
f 71 85 86
f 71 86 87
f 71 87 88
f 71 88 89
f 71 89 73
f 71 73 72
f 73 77 74
f 73 89 75
f 75 89 76
f 76 89 87
f 76 87 90
f 76 90 91
f 78 84 93
f 78 93 92
f 83 94 84
f 84 94 93
f 85 92 95
f 85 95 96
f 85 96 87
f 85 87 86
f 87 97 90
f 87 89 88
f 87 96 97
f 90 97 91
f 91 97 98
f 92 99 95
f 92 93 99
f 93 94 98
f 93 98 100
f 93 100 96
f 93 96 95
f 93 95 99
f 96 100 97
f 97 100 98

