v -0.14103913 -0.12414139 -0.28558122
v -0.14110648 -0.12414139 -0.29290563
v -0.14149710 -0.12414139 -0.27825330
v -0.02979229 -0.20667436 -0.28558122
v -0.14140281 -0.12414139 -0.30023355
v -0.02979229 -0.20672497 -0.29108676
v -0.02979229 -0.20674520 -0.29290563
v -0.14215713 -0.12414139 -0.27496186
v -0.02979229 -0.20720047 -0.27825330
v -0.14262856 -0.12414139 -0.30457082
v -0.02979229 -0.20740280 -0.30023355
v -0.14288449 -0.12414139 -0.27402795
v -0.02979229 -0.20924405 -0.27375162
v -0.14602295 -0.12414139 -0.30572161
v -0.03825131 -0.20271870 -0.30465127
v -0.02979229 -0.20864717 -0.30344802
v -0.14428535 -0.12414139 -0.27338786
v -0.02979229 -0.21453515 -0.27232800
v -0.14587478 -0.12414139 -0.27297512
v -0.15068349 -0.12414139 -0.27179986
v -0.15332356 -0.12414139 -0.30655408
v -0.03585369 -0.20711952 -0.30538581
v -0.02979229 -0.21330089 -0.30582305
v -0.04324860 -0.20720047 -0.30698432
v -0.02979229 -0.20938569 -0.30459181
v -0.04324860 -0.20720047 -0.27203419
v -0.03592104 -0.21453515 -0.27218809
v -0.02979229 -0.22211265 -0.27297161
v -0.15834780 -0.12414139 -0.27195025
v -0.16047601 -0.12660990 -0.27151304
v -0.15314846 -0.12660990 -0.27160046
v -0.15314846 -0.12660990 -0.30686889
v -0.16047601 -0.12660990 -0.30702630
v -0.16739948 -0.12660990 -0.30702630
v -0.16739948 -0.12414139 -0.30634771
v -0.02979229 -0.21453515 -0.30596645
v -0.02979229 -0.22173833 -0.30572161
v -0.05057615 -0.20720047 -0.30662054
v -0.07988637 -0.18521661 -0.30711024
v -0.10185557 -0.17057758 -0.30724315
v -0.10185557 -0.17057758 -0.27174037
v -0.09454148 -0.17789203 -0.27213914
v -0.16047601 -0.13393446 -0.27160397
v -0.03592104 -0.22024103 -0.27342633
v -0.02979229 -0.22311420 -0.27387405
v -0.16739948 -0.12414139 -0.27242245
v -0.16739948 -0.12660990 -0.27178235
v -0.15314846 -0.13393446 -0.27153751
v -0.16047601 -0.13393446 -0.30716622
v -0.16739948 -0.12701456 -0.30703679
v -0.02979229 -0.22226438 -0.30560618
v -0.09454148 -0.17789203 -0.30698081
v -0.05057615 -0.21216782 -0.30488914
v -0.10168046 -0.17797297 -0.30566215
v -0.16739948 -0.13411657 -0.27286317
v -0.10142454 -0.17782122 -0.27324095
v -0.08740250 -0.18552011 -0.27291215
v -0.04064893 -0.21889551 -0.27398597
v -0.03177235 -0.22510720 -0.27636449
v -0.02979229 -0.22664497 -0.27796648
v -0.13116579 -0.15591831 -0.30656108
v -0.15314846 -0.14126916 -0.30656108
v -0.16739948 -0.13422786 -0.30591050
v -0.02979229 -0.22604809 -0.30373835
v -0.03592104 -0.22031186 -0.30495560
v -0.04056811 -0.21880444 -0.30439944
v -0.05453626 -0.21106507 -0.30410911
v -0.09913468 -0.18215121 -0.30452184
v -0.09454148 -0.18351699 -0.30522143
v -0.16571576 -0.13857809 -0.30477719
v -0.15991027 -0.14111742 -0.30524242
v -0.16739948 -0.13478428 -0.30575308
v -0.16739948 -0.13499673 -0.27314651
v -0.16548678 -0.13841622 -0.27391951
v -0.07653240 -0.19641594 -0.27439171
v -0.05414564 -0.21077170 -0.27493039
v -0.12094223 -0.16745149 -0.27409441
v -0.04149753 -0.21946204 -0.27825330
v -0.02979229 -0.22687765 -0.27919421
v -0.02979229 -0.22700917 -0.30081767
v -0.03204175 -0.22528933 -0.30276946
v -0.02979229 -0.22714070 -0.29984529
v -0.05483260 -0.21125729 -0.30023355
v -0.13496427 -0.15967165 -0.30399718
v -0.15709510 -0.14511354 -0.30411611
v -0.16739948 -0.13792050 -0.30312973
v -0.16739948 -0.13543175 -0.30552224
v -0.16739948 -0.13847692 -0.27825330
v -0.15687958 -0.14497192 -0.27454562
v -0.13464099 -0.15942885 -0.27560547
v -0.03239196 -0.22560293 -0.28125092
v -0.07697690 -0.19669919 -0.27825330
v -0.02979229 -0.22742398 -0.28558122
v -0.02979229 -0.22744421 -0.29446564
v -0.03244584 -0.22564342 -0.29788651
v -0.02979229 -0.22749479 -0.29290563
v -0.04194203 -0.21971495 -0.29290563
v -0.09967347 -0.18250530 -0.30023355
v -0.13509896 -0.15975259 -0.30023355
v -0.15736449 -0.14529566 -0.30023355
v -0.16739948 -0.13872983 -0.30023355
v -0.16739948 -0.13902323 -0.28558122
v -0.16649700 -0.13907381 -0.27825330
v -0.15720285 -0.14517425 -0.27825330
v -0.13500468 -0.15969188 -0.28049190
v -0.03617697 -0.22334690 -0.28558122
v -0.05057615 -0.21417094 -0.29290563
v -0.13515284 -0.15979305 -0.29290563
v -0.16687415 -0.13936720 -0.29290563
v -0.08672901 -0.19093262 -0.29290563
v -0.16739948 -0.13880067 -0.29886591
v -0.16739948 -0.13902323 -0.29290563
v -0.13877621 -0.15742572 -0.28558122
v -0.11272567 -0.17416904 -0.28558122
f 1 2 5
f 1 5 10
f 1 10 14
f 1 14 21
f 1 21 35
f 1 35 46
f 1 46 29
f 1 29 20
f 1 20 19
f 1 19 17
f 1 17 12
f 1 12 8
f 1 8 3
f 1 3 4
f 1 4 2
f 2 4 6
f 2 6 7
f 2 7 5
f 3 8 9
f 3 9 4
f 4 9 13
f 4 13 18
f 4 18 28
f 4 28 45
f 4 45 60
f 4 60 79
f 4 79 93
f 4 93 96
f 4 96 94
f 4 94 82
f 4 82 80
f 4 80 64
f 4 64 51
f 4 51 37
f 4 37 36
f 4 36 23
f 4 23 25
f 4 25 16
f 4 16 11
f 4 11 7
f 4 7 6
f 5 7 11
f 5 11 10
f 8 12 13
f 8 13 9
f 10 11 15
f 10 15 14
f 11 16 15
f 12 17 13
f 13 17 19
f 13 19 20
f 13 20 18
f 14 15 22
f 14 22 23
f 14 23 24
f 14 24 21
f 15 16 25
f 15 25 23
f 15 23 22
f 18 26 27
f 18 27 28
f 18 20 26
f 20 29 30
f 20 30 31
f 20 31 26
f 21 32 33
f 21 33 34
f 21 34 35
f 21 24 32
f 23 36 24
f 24 36 37
f 24 37 38
f 24 38 39
f 24 39 40
f 24 40 32
f 26 31 30
f 26 30 41
f 26 41 27
f 27 42 28
f 27 41 43
f 27 43 42
f 28 44 45
f 28 42 44
f 29 46 47
f 29 47 30
f 30 43 48
f 30 48 41
f 30 47 43
f 32 40 33
f 33 49 50
f 33 50 34
f 33 40 49
f 34 50 63
f 34 63 72
f 34 72 87
f 34 87 86
f 34 86 101
f 34 101 111
f 34 111 112
f 34 112 102
f 34 102 88
f 34 88 73
f 34 73 55
f 34 55 47
f 34 47 46
f 34 46 35
f 37 51 38
f 38 52 39
f 38 51 53
f 38 53 54
f 38 54 52
f 39 52 40
f 40 52 49
f 41 48 43
f 42 43 44
f 43 47 55
f 43 55 56
f 43 56 57
f 43 57 44
f 44 58 59
f 44 59 45
f 44 57 56
f 44 56 58
f 45 59 60
f 49 61 62
f 49 62 63
f 49 63 50
f 49 52 61
f 51 64 65
f 51 65 53
f 52 54 61
f 53 65 66
f 53 66 67
f 53 67 68
f 53 68 69
f 53 69 54
f 54 70 71
f 54 71 72
f 54 72 61
f 54 69 68
f 54 68 70
f 55 73 56
f 56 73 74
f 56 74 58
f 58 75 76
f 58 76 59
f 58 74 77
f 58 77 75
f 59 76 78
f 59 78 60
f 60 78 79
f 61 72 63
f 61 63 62
f 64 80 81
f 64 81 67
f 64 67 66
f 64 66 65
f 67 81 80
f 67 80 82
f 67 82 83
f 67 83 84
f 67 84 68
f 68 84 70
f 70 84 85
f 70 85 86
f 70 86 87
f 70 87 71
f 71 87 72
f 73 88 74
f 74 88 89
f 74 89 77
f 75 78 76
f 75 77 89
f 75 89 90
f 75 90 78
f 78 91 79
f 78 90 92
f 78 92 91
f 79 91 93
f 82 94 95
f 82 95 83
f 83 95 96
f 83 96 97
f 83 97 98
f 83 98 84
f 84 99 100
f 84 100 101
f 84 101 85
f 84 98 99
f 85 101 86
f 88 102 103
f 88 103 89
f 89 103 104
f 89 104 90
f 90 104 105
f 90 105 92
f 91 106 93
f 91 92 105
f 91 105 106
f 93 106 96
f 94 96 95
f 96 106 97
f 97 106 107
f 97 107 98
f 98 107 99
f 99 108 109
f 99 109 100
f 99 107 110
f 99 110 108
f 100 109 111
f 100 111 101
f 102 104 103
f 102 112 109
f 102 109 108
f 102 108 110
f 102 110 113
f 102 113 105
f 102 105 104
f 105 113 114
f 105 114 106
f 106 114 107
f 107 114 113
f 107 113 110
f 109 112 111

