v -0.02977192 -0.23164699 0.00041195
v -0.02730751 -0.23462488 0.00041195
v -0.02736861 -0.23462488 0.00752544
v -0.02977192 -0.23162176 0.00752544
v -0.02977192 -0.20252412 0.00041195
v -0.02223610 -0.23828416 0.00041195
v -0.02730751 -0.23459967 0.01484926
v -0.02223610 -0.23828416 0.00752544
v -0.02223610 -0.23825895 0.02217816
v -0.02714457 -0.23459967 0.02217816
v -0.02977192 -0.23081418 0.01478337
v -0.02977192 0.00623186 0.00600999
v 0.15479470 0.00623186 0.00041195
v -0.01392633 -0.24413905 0.00041195
v -0.01392633 -0.24413905 0.02630129
v -0.01857003 -0.24085828 0.02217816
v -0.02437465 -0.23654286 0.02630129
v -0.01854966 -0.24085828 0.02630129
v -0.02690017 -0.23447347 0.02630129
v -0.02977192 -0.22965331 0.02217816
v -0.02977192 0.00623186 0.02311581
v 0.15943839 0.00623186 0.00041195
v -0.00968997 -0.24709170 0.00041195
v -0.01154338 -0.24580464 0.02630129
v -0.02928312 -0.22917382 0.02630129
v -0.02977192 -0.22917382 0.02355423
v 0.15552790 0.00623186 0.02311581
v -0.02977192 -0.22225903 0.02387100
v -0.02854990 -0.22198141 0.02630129
v -0.02626879 -0.21675748 0.02630129
v -0.02013829 -0.20830327 0.02630129
v -0.01392633 -0.20663768 0.02630129
v 0.17827795 0.00623186 0.00566534
v 0.17825758 0.00618138 0.00041195
v -0.00602390 -0.24946393 0.00041195
v -0.00602390 -0.24959011 0.01484926
v -0.00968997 -0.24709170 0.02630129
v 0.16192317 0.00623186 0.02311328
v -0.00730702 -0.20812662 0.02630129
v 0.17827795 0.00623186 0.00752544
v 0.01242870 -0.24116113 0.02630129
v 0.01110483 -0.23904127 0.00041195
v -0.00582022 -0.24948916 0.00041195
v 0.00073798 -0.25158379 0.02630129
v -0.00221525 -0.25082669 0.02630129
v -0.00602390 -0.24959011 0.02217816
v -0.00602390 -0.24956487 0.02630129
v 0.16286007 0.00623186 0.02309807
v 0.00527984 -0.21524330 0.02630129
v 0.00774426 -0.21695937 0.02630129
v 0.01383402 -0.22329373 0.02630129
v 0.01603367 -0.22604450 0.02630129
v 0.17823722 0.00623186 0.01299423
v 0.01578927 -0.23613909 0.02630129
v 0.01128814 -0.24275105 0.02630129
v 0.00768316 -0.24383619 0.00041195
v 0.17821685 0.00623186 0.01484926
v 0.00073798 -0.24981725 0.00041195
v 0.00391525 -0.25039768 0.02630129
v 0.16192317 -0.00204570 0.02292321
v 0.16925534 0.00623186 0.02252788
v 0.01642064 -0.22955236 0.02630129
v 0.01633918 -0.23255549 0.02630129
v 0.17357316 0.00065459 0.01931958
v 0.17520252 0.00527287 0.02015840
v 0.17550803 0.00623186 0.02029272
v 0.17039589 0.00623186 0.02226432
v 0.16925534 0.00527287 0.02245692
v 0.00980134 -0.24482042 0.02630129
v 0.00470957 -0.24784880 0.00041195
v 0.17646528 0.00623186 0.01881528
v 0.00086018 -0.24976678 0.00041195
v 0.00613526 -0.24948916 0.02630129
f 1 2 3
f 1 3 4
f 1 4 11
f 1 11 20
f 1 20 26
f 1 26 28
f 1 28 21
f 1 21 12
f 1 12 5
f 1 5 13
f 1 13 22
f 1 22 34
f 1 34 42
f 1 42 56
f 1 56 70
f 1 70 72
f 1 72 58
f 1 58 43
f 1 43 35
f 1 35 23
f 1 23 14
f 1 14 6
f 1 6 2
f 2 6 3
f 3 7 4
f 3 6 8
f 3 8 9
f 3 9 7
f 4 7 10
f 4 10 11
f 5 12 13
f 6 14 15
f 6 15 8
f 7 9 10
f 8 15 16
f 8 16 9
f 9 17 10
f 9 16 15
f 9 15 18
f 9 18 17
f 10 19 11
f 10 17 19
f 11 19 20
f 12 21 27
f 12 27 38
f 12 38 48
f 12 48 61
f 12 61 67
f 12 67 66
f 12 66 71
f 12 71 57
f 12 57 53
f 12 53 40
f 12 40 33
f 12 33 22
f 12 22 13
f 14 23 24
f 14 24 15
f 15 24 37
f 15 37 47
f 15 47 45
f 15 45 44
f 15 44 59
f 15 59 73
f 15 73 69
f 15 69 55
f 15 55 41
f 15 41 54
f 15 54 63
f 15 63 62
f 15 62 52
f 15 52 51
f 15 51 50
f 15 50 49
f 15 49 39
f 15 39 32
f 15 32 31
f 15 31 30
f 15 30 29
f 15 29 25
f 15 25 19
f 15 19 17
f 15 17 18
f 19 25 26
f 19 26 20
f 21 28 25
f 21 25 29
f 21 29 30
f 21 30 31
f 21 31 32
f 21 32 27
f 22 33 34
f 23 35 36
f 23 36 46
f 23 46 37
f 23 37 24
f 25 28 26
f 27 32 38
f 32 39 38
f 33 40 34
f 34 41 42
f 34 40 41
f 35 43 44
f 35 44 45
f 35 45 36
f 36 45 46
f 37 46 47
f 38 39 49
f 38 49 50
f 38 50 51
f 38 51 52
f 38 52 48
f 40 53 41
f 41 55 56
f 41 56 42
f 41 53 57
f 41 57 54
f 43 58 44
f 44 58 59
f 45 47 46
f 48 60 61
f 48 52 62
f 48 62 63
f 48 63 54
f 48 54 60
f 54 57 64
f 54 64 65
f 54 65 66
f 54 66 67
f 54 67 68
f 54 68 61
f 54 61 60
f 55 69 56
f 56 69 70
f 57 71 64
f 58 72 73
f 58 73 59
f 61 68 67
f 64 71 65
f 65 71 66
f 69 73 70
f 70 73 72

