v -0.34667547 -0.02402224 -0.04318053
v -0.34681417 -0.02402224 -0.00713313
v -0.34418901 -0.01670974 -0.00713313
v -0.34646202 -0.02343154 -0.04318053
v -0.34364475 -0.03030407 -0.04318053
v -0.34651538 -0.02402224 0.00019244
v -0.34393822 -0.01670974 0.00019244
v -0.34337798 -0.03085403 -0.04318053
v -0.34343133 -0.03093144 -0.00713313
v -0.34406094 -0.01670974 -0.03645943
v -0.34402892 -0.01670974 -0.04318053
v -0.34321789 -0.03068701 0.00019244
v -0.34313785 -0.02976225 0.00582455
v -0.34591779 -0.02402224 0.00582455
v -0.34392221 -0.01670974 0.00027400
v -0.34305250 -0.03115142 -0.04318053
v -0.33941353 -0.03459788 -0.00713313
v -0.30993893 -0.01670974 -0.04318053
v -0.33920009 -0.03434937 0.00019244
v -0.33445663 -0.03620296 0.00582455
v -0.34279105 -0.01670974 0.00582455
v -0.33930679 -0.03452047 -0.04318053
v -0.33568383 -0.03711141 -0.02911466
v -0.33574788 -0.03715623 -0.00713313
v -0.33553978 -0.03696883 0.00019244
v -0.30048933 -0.01670974 0.00582455
v -0.29230965 -0.02550104 0.00582455
v -0.30917590 -0.01762635 -0.04318053
v -0.32583408 -0.04260292 0.00463480
v -0.32709330 -0.04116487 0.00582455
v -0.33593462 -0.03687513 -0.04318053
v -0.33566250 -0.03709512 -0.03644024
v -0.33011868 -0.04074119 -0.04318053
v -0.33016137 -0.04076970 -0.02911466
v -0.33022539 -0.04081452 -0.00713313
v -0.32999596 -0.04062712 0.00019244
v -0.29230965 -0.05790825 0.00582455
v -0.29230965 -0.03602371 -0.03043873
v -0.30894647 -0.01791967 -0.04318053
v -0.32633031 -0.04285550 0.00019244
v -0.33564114 -0.03707883 -0.04318053
v -0.33519295 -0.03737621 -0.04318053
v -0.32645303 -0.04290846 -0.04318053
v -0.32649571 -0.04292882 -0.02911466
v -0.32655973 -0.04296142 -0.00713313
v -0.29230965 -0.05815675 0.00196747
v -0.29230965 -0.03873279 -0.03600847
v -0.30874372 -0.01842075 -0.04318053
v -0.29230965 -0.03887945 -0.03610442
v -0.29230965 -0.04599234 -0.03944339
v -0.29230965 -0.04607381 -0.03946737
v -0.29230965 -0.05826675 0.00019244
v -0.32407862 -0.04290846 -0.04318053
v -0.29230965 -0.05422552 -0.03658896
v -0.29230965 -0.05475104 -0.03623395
v -0.29230965 -0.05752124 -0.03259755
v -0.29230965 -0.05827897 -0.02911466
v -0.29230965 -0.05832378 -0.02178429
v -0.29230965 -0.05832785 -0.00713313
v -0.30793803 -0.02558659 -0.04318053
v -0.30890913 -0.03052405 -0.04318053
v -0.29230965 -0.05382221 -0.03680484
v -0.31431957 -0.03752287 -0.04318053
v -0.31050984 -0.03404791 -0.04318053
f 1 2 3
f 1 3 4
f 1 4 11
f 1 11 18
f 1 18 28
f 1 28 39
f 1 39 48
f 1 48 60
f 1 60 61
f 1 61 64
f 1 64 63
f 1 63 53
f 1 53 43
f 1 43 33
f 1 33 42
f 1 42 41
f 1 41 31
f 1 31 22
f 1 22 16
f 1 16 8
f 1 8 5
f 1 5 2
f 2 6 7
f 2 7 3
f 2 5 8
f 2 8 9
f 2 9 6
f 3 10 4
f 3 7 15
f 3 15 21
f 3 21 26
f 3 26 18
f 3 18 11
f 3 11 10
f 4 10 11
f 6 9 12
f 6 12 13
f 6 13 14
f 6 14 7
f 7 14 15
f 8 16 9
f 9 16 17
f 9 17 12
f 12 17 19
f 12 19 13
f 13 19 20
f 13 20 30
f 13 30 37
f 13 37 27
f 13 27 26
f 13 26 21
f 13 21 14
f 14 21 15
f 16 22 17
f 17 22 23
f 17 23 24
f 17 24 25
f 17 25 19
f 18 26 27
f 18 27 28
f 19 25 20
f 20 25 29
f 20 29 30
f 22 31 32
f 22 32 23
f 23 32 33
f 23 33 34
f 23 34 35
f 23 35 24
f 24 35 25
f 25 35 36
f 25 36 29
f 27 37 46
f 27 46 52
f 27 52 59
f 27 59 58
f 27 58 57
f 27 57 56
f 27 56 55
f 27 55 54
f 27 54 62
f 27 62 51
f 27 51 50
f 27 50 49
f 27 49 47
f 27 47 38
f 27 38 39
f 27 39 28
f 29 36 40
f 29 40 37
f 29 37 30
f 31 41 32
f 32 41 42
f 32 42 33
f 33 43 34
f 34 43 35
f 35 43 44
f 35 44 45
f 35 45 40
f 35 40 36
f 37 40 46
f 38 47 39
f 39 47 49
f 39 49 50
f 39 50 51
f 39 51 48
f 40 45 52
f 40 52 46
f 43 53 54
f 43 54 55
f 43 55 56
f 43 56 57
f 43 57 58
f 43 58 44
f 44 58 45
f 45 58 59
f 45 59 52
f 48 51 60
f 51 61 60
f 51 62 53
f 51 53 63
f 51 63 64
f 51 64 61
f 53 62 54

