v 0.00840423 -0.20237045 0.00040915
v 0.00990401 -0.20237045 -0.02911141
v 0.03162011 -0.20237045 0.00040915
v 0.15353433 0.00622329 0.00254674
v 0.15486975 0.00952652 0.00254674
v 0.01477318 -0.19238334 0.00040915
v 0.04070102 -0.15909300 -0.03356647
v 0.01089017 -0.20231885 -0.03422741
v 0.01086963 -0.20237045 -0.03422741
v 0.18706383 0.05649431 0.00254674
v 0.03162011 -0.20237045 -0.02178251
v 0.21827172 0.06126850 0.00254674
v 0.17827055 0.00622329 0.00254674
v 0.04731652 -0.15080911 -0.03460808
v 0.10697929 -0.06433161 -0.03278422
v 0.17989361 0.03876526 -0.03359575
v 0.16495737 0.01708782 -0.03419394
v 0.01518409 -0.19986722 -0.03637337
v 0.01524572 -0.20237045 -0.03730203
v 0.01748513 -0.19395755 -0.03490090
v 0.19115228 0.06126850 0.00254674
v 0.19485039 0.06028785 -0.03289298
v 0.03157902 -0.20237045 -0.02911141
v 0.21827172 0.06126850 -0.02911141
v 0.11423169 -0.06428000 -0.04011730
v 0.18646802 0.04699753 -0.03462063
v 0.03003815 -0.18520914 -0.03895856
v 0.02603186 -0.19553174 -0.04013821
v 0.02323773 -0.19937692 -0.03971990
v 0.02325828 -0.20237045 -0.03871176
v 0.19534348 0.06126850 -0.02911141
v 0.19616529 0.06126850 -0.03364595
v 0.02876435 -0.20237045 -0.03599689
v 0.03441423 -0.19718336 -0.03418976
v 0.09243341 -0.11571230 -0.03301848
v 0.14375490 -0.04257675 -0.03319417
v 0.20999209 0.05226204 -0.03383837
v 0.21385454 0.06126850 -0.03700503
v 0.15998547 -0.00058962 -0.03979519
v 0.19470658 0.04596527 -0.04012566
v 0.16487519 0.00253296 -0.04018423
v 0.05530853 -0.15158331 -0.04015913
v 0.04053666 -0.17320914 -0.04016331
v 0.18398206 0.04147494 -0.03580028
v 0.19150155 0.04893301 -0.03726020
v 0.19357660 0.05657173 -0.03455370
v 0.19875394 0.06126850 -0.03601362
v 0.02603186 -0.19661559 -0.04013821
v 0.02658657 -0.19661559 -0.04013821
v 0.02964779 -0.19935108 -0.03699666
v 0.14367272 -0.03511868 -0.04013403
v 0.04937102 -0.17560914 -0.03452023
v 0.08579736 -0.12407360 -0.03437382
v 0.17358628 0.00062328 -0.03417721
v 0.20345875 0.04382332 -0.03472102
v 0.19509694 0.04521688 -0.04012566
v 0.20588307 0.05657173 -0.03868247
v 0.20571871 0.06126850 -0.03912171
v 0.19854849 0.05657173 -0.03802990
v 0.19509694 0.04596527 -0.04012566
v 0.16596407 0.00253296 -0.04018423
v 0.16596407 0.00095877 -0.04018423
v 0.04053666 -0.17483495 -0.04016331
v 0.04142009 -0.17483495 -0.04016331
v 0.14402199 -0.03137675 -0.04017168
f 1 2 9
f 1 9 19
f 1 19 30
f 1 30 33
f 1 33 23
f 1 23 11
f 1 11 3
f 1 3 13
f 1 13 4
f 1 4 5
f 1 5 6
f 1 6 2
f 2 7 8
f 2 8 9
f 2 6 10
f 2 10 7
f 3 11 24
f 3 24 12
f 3 12 13
f 4 13 12
f 4 12 21
f 4 21 10
f 4 10 5
f 5 10 6
f 7 14 8
f 7 10 15
f 7 15 16
f 7 16 17
f 7 17 14
f 8 18 19
f 8 19 9
f 8 14 20
f 8 20 18
f 10 21 22
f 10 22 15
f 11 23 24
f 12 24 38
f 12 38 58
f 12 58 47
f 12 47 32
f 12 32 31
f 12 31 21
f 14 25 20
f 14 17 25
f 15 22 16
f 16 22 26
f 16 26 17
f 17 26 25
f 18 20 25
f 18 25 19
f 19 25 27
f 19 27 28
f 19 28 29
f 19 29 30
f 21 31 22
f 22 31 32
f 22 32 26
f 23 33 34
f 23 34 35
f 23 35 24
f 24 35 36
f 24 36 37
f 24 37 38
f 25 39 40
f 25 40 41
f 25 41 42
f 25 42 43
f 25 43 27
f 25 26 44
f 25 44 45
f 25 45 39
f 26 32 46
f 26 46 47
f 26 47 44
f 27 43 28
f 28 43 63
f 28 63 48
f 28 48 29
f 29 48 49
f 29 49 30
f 30 49 33
f 32 47 46
f 33 49 50
f 33 50 51
f 33 51 34
f 34 52 53
f 34 53 35
f 34 51 52
f 35 53 54
f 35 54 36
f 36 54 37
f 37 55 38
f 37 54 55
f 38 56 57
f 38 57 58
f 38 55 54
f 38 54 51
f 38 51 56
f 39 45 40
f 40 45 59
f 40 59 58
f 40 58 60
f 40 60 61
f 40 61 41
f 41 61 62
f 41 62 63
f 41 63 43
f 41 43 42
f 44 47 45
f 45 47 59
f 47 58 59
f 48 63 64
f 48 64 49
f 49 64 51
f 49 51 50
f 51 65 62
f 51 62 56
f 51 54 53
f 51 53 52
f 51 64 65
f 56 60 58
f 56 58 57
f 56 62 61
f 56 61 60
f 62 65 64
f 62 64 63

