v 0.04866630 -0.25407939 0.24921950
v 0.04684263 -0.25041998 0.24921950
v 0.04866630 -0.25537560 0.24921950
v 0.04835833 -0.25480246 0.24561237
v 0.04137765 -0.22856937 0.16874129
v 0.04678828 -0.25033620 0.24921950
v 0.04110590 -0.22856937 0.17221437
v 0.04619045 -0.25903501 0.24921950
v 0.04835833 -0.25484653 0.24561237
v 0.04084021 -0.22856937 0.16529257
v 0.04317717 -0.24595375 0.24921950
v 0.03748875 -0.22856937 0.17666237
v 0.02145612 -0.23164678 0.23466908
v 0.02270613 -0.23412019 0.24921950
v 0.03003101 -0.23697719 0.24921950
v 0.03432450 -0.23975922 0.24921950
v 0.03793561 -0.24225466 0.24921950
v 0.04252499 -0.26429925 0.24921950
v 0.04572548 -0.25777405 0.24269986
v 0.04135349 -0.24815378 0.19306511
v 0.02730154 -0.24884157 0.12477317
v 0.03468682 -0.24899149 0.16140514
v 0.04014576 -0.22856937 0.16140514
v 0.01538728 -0.22856937 0.19896327
v 0.01730153 -0.23164678 0.23466908
v 0.02044767 -0.23232137 0.24059163
v 0.01608776 -0.23689782 0.24921950
v 0.01827979 -0.23232137 0.24059163
v 0.03994649 -0.26796307 0.24921950
v 0.03382329 -0.26233730 0.20110806
v 0.03530880 -0.25712154 0.19070097
v 0.03400445 -0.25526978 0.17827096
v 0.03406484 -0.24806120 0.15592131
v 0.02973512 -0.24385068 0.12473662
v 0.02472908 -0.25249658 0.12473662
v 0.02729550 -0.24883717 0.12473662
v 0.03876894 -0.22857377 0.15443458
v 0.03876894 -0.22856937 0.15443458
v 0.00812882 -0.22856937 0.18638702
v 0.01129911 -0.23237428 0.21816885
v 0.00390176 -0.22856937 0.17368891
v 0.00225924 -0.22856937 0.16826601
v 0.01242834 -0.24117007 0.24921950
v 0.01198148 -0.23306206 0.22304337
v 0.03628706 -0.27212070 0.24921950
v 0.03471097 -0.27057316 0.23466908
v 0.03411919 -0.26995149 0.22908776
v 0.02106361 -0.25760652 0.12473662
v 0.03503102 -0.26406557 0.21268503
v 0.02780275 -0.25687463 0.15408119
v 0.02655879 -0.25509785 0.14218737
v 0.02880517 -0.23718000 0.12473662
v 0.03514575 -0.22856937 0.13942108
v 0.03671580 -0.22856937 0.14489273
v 0.03705397 -0.22856937 0.14629415
v 0.00922785 -0.23591021 0.22037458
v -0.00086878 -0.22856937 0.15617722
v -0.00127941 -0.22856937 0.15458082
v -0.00256564 -0.22856937 0.14931635
v 0.00405876 -0.23240072 0.18843432
v 0.01189694 -0.24043818 0.24491774
v 0.00992230 -0.24475011 0.24921950
v 0.03620856 -0.27214274 0.24921950
v 0.02656483 -0.26964286 0.19343069
v 0.01933656 -0.26244311 0.13416879
v 0.02145009 -0.25910115 0.13187777
v 0.01538728 -0.26069277 0.12473662
v 0.02546579 -0.23350735 0.12473662
v 0.03122063 -0.22856937 0.13398600
v 0.00980152 -0.23745335 0.22734512
v 0.00464451 -0.23321636 0.19332102
v -0.00848352 -0.22856937 0.12474880
v 0.00526045 -0.24142578 0.22002117
v -0.01037966 -0.23269170 0.12892868
v -0.00312120 -0.23991352 0.18052541
v 0.00986795 -0.24482946 0.24921950
v 0.03003101 -0.27361090 0.24921950
v 0.02588246 -0.26964286 0.19343069
v 0.01779066 -0.26244311 0.13416879
v 0.01538728 -0.26070158 0.12477317
v 0.00805635 -0.25901737 0.12473662
v 0.02181845 -0.23093255 0.12473662
v 0.01843076 -0.22856937 0.12476099
v -0.00827821 -0.22856937 0.12473662
v -0.01088691 -0.23200391 0.12473662
v -0.01087483 -0.23198628 0.12477317
v -0.01028304 -0.24015159 0.15051060
v -0.00299438 -0.24740868 0.20192453
v 0.00362398 -0.24637259 0.22734512
v 0.00417954 -0.24719264 0.23200029
v 0.00471094 -0.24831691 0.23688699
v 0.00980756 -0.24494411 0.24921950
v 0.02995251 -0.27358443 0.24921950
v 0.02449961 -0.27045851 0.21268503
v 0.02474115 -0.27021603 0.20536107
v 0.02526652 -0.26990741 0.19803712
v 0.01636554 -0.26288400 0.13942108
v 0.01536312 -0.26177736 0.13187777
v 0.00283896 -0.25592672 0.12473662
v 0.01270008 -0.26194049 0.13942108
v 0.01184259 -0.26212566 0.14538018
v 0.01592472 -0.22856937 0.12473662
v -0.01302459 -0.23654512 0.12473662
v -0.01301855 -0.23651865 0.12477317
v -0.01135792 -0.23823812 0.13942108
v -0.01069367 -0.23947704 0.14675723
v -0.01028304 -0.24030152 0.15051060
v -0.00299438 -0.24765559 0.20192453
v 0.00382929 -0.25319761 0.24043319
v 0.00653461 -0.25116948 0.24921950
v 0.02424598 -0.27097877 0.24921950
v 0.02425806 -0.27094792 0.24200523
v 0.02427618 -0.27087738 0.23466908
v 0.02440903 -0.27059960 0.22002117
v 0.01472907 -0.26316618 0.14739091
v -0.00082651 -0.25335190 0.12477317
v -0.00603183 -0.24969252 0.12473662
v 0.01171578 -0.26216534 0.15026687
v -0.01241469 -0.24327752 0.12473662
v -0.01135792 -0.24291158 0.13942108
v -0.01069367 -0.24155364 0.14675723
v -0.00334463 -0.24827283 0.19803712
v 0.00382929 -0.25548582 0.24043319
v 0.00837640 -0.25849271 0.24921950
v 0.02051410 -0.26835547 0.24921950
v -0.00968521 -0.24695457 0.12473662
v -0.00603183 -0.24969252 0.13942108
v -0.00969729 -0.24694133 0.12477317
v -0.00969729 -0.24681348 0.13209712
v -0.00969729 -0.24657540 0.13942108
v -0.00391830 -0.24906204 0.19070097
v 0.00344282 -0.25586498 0.23466908
v 0.01171578 -0.26216534 0.24921950
v 0.00805031 -0.25959054 0.22002117
v 0.00330997 -0.25592232 0.22734512
v 0.00805031 -0.25958611 0.22734512
v 0.00805031 -0.25952880 0.23466908
f 1 2 6
f 1 6 11
f 1 11 17
f 1 17 16
f 1 16 15
f 1 15 14
f 1 14 27
f 1 27 43
f 1 43 62
f 1 62 76
f 1 76 92
f 1 92 110
f 1 110 124
f 1 124 133
f 1 133 125
f 1 125 111
f 1 111 93
f 1 93 77
f 1 77 63
f 1 63 45
f 1 45 29
f 1 29 18
f 1 18 8
f 1 8 3
f 1 3 9
f 1 9 4
f 1 4 5
f 1 5 2
f 2 5 7
f 2 7 6
f 3 8 9
f 4 9 5
f 5 10 23
f 5 23 38
f 5 38 55
f 5 55 54
f 5 54 53
f 5 53 69
f 5 69 83
f 5 83 102
f 5 102 84
f 5 84 72
f 5 72 59
f 5 59 58
f 5 58 57
f 5 57 42
f 5 42 41
f 5 41 39
f 5 39 24
f 5 24 12
f 5 12 7
f 5 9 10
f 6 7 11
f 7 12 13
f 7 13 14
f 7 14 15
f 7 15 16
f 7 16 17
f 7 17 11
f 8 18 19
f 8 19 9
f 9 20 10
f 9 19 21
f 9 21 22
f 9 22 20
f 10 20 23
f 12 24 13
f 13 24 25
f 13 25 28
f 13 28 26
f 13 26 14
f 14 26 28
f 14 28 27
f 18 29 30
f 18 30 31
f 18 31 19
f 19 31 32
f 19 32 21
f 20 22 33
f 20 33 34
f 20 34 23
f 21 32 35
f 21 35 36
f 21 36 34
f 21 34 33
f 21 33 22
f 23 37 38
f 23 34 37
f 24 39 25
f 25 40 28
f 25 39 41
f 25 41 42
f 25 42 40
f 27 28 44
f 27 44 43
f 28 40 44
f 29 45 46
f 29 46 47
f 29 47 48
f 29 48 49
f 29 49 30
f 30 49 50
f 30 50 51
f 30 51 35
f 30 35 31
f 31 35 32
f 34 36 35
f 34 35 48
f 34 48 67
f 34 67 81
f 34 81 99
f 34 99 117
f 34 117 126
f 34 126 119
f 34 119 103
f 34 103 85
f 34 85 84
f 34 84 102
f 34 102 82
f 34 82 68
f 34 68 52
f 34 52 53
f 34 53 54
f 34 54 55
f 34 55 37
f 35 51 48
f 37 55 38
f 40 56 44
f 40 42 57
f 40 57 58
f 40 58 59
f 40 59 60
f 40 60 56
f 43 44 61
f 43 61 62
f 44 56 61
f 45 63 64
f 45 64 46
f 46 64 47
f 47 64 65
f 47 65 66
f 47 66 48
f 48 66 65
f 48 65 67
f 48 51 50
f 48 50 49
f 52 68 69
f 52 69 53
f 56 70 61
f 56 60 71
f 56 71 70
f 59 72 60
f 60 72 71
f 61 73 62
f 61 70 71
f 61 71 72
f 61 72 74
f 61 74 75
f 61 75 73
f 62 73 75
f 62 75 76
f 63 77 64
f 64 77 78
f 64 78 79
f 64 79 65
f 65 79 80
f 65 80 67
f 67 80 81
f 68 82 69
f 69 82 83
f 72 84 85
f 72 85 86
f 72 86 74
f 74 86 87
f 74 87 75
f 75 87 88
f 75 88 89
f 75 89 76
f 76 89 90
f 76 90 91
f 76 91 92
f 77 93 94
f 77 94 95
f 77 95 96
f 77 96 78
f 78 96 97
f 78 97 79
f 79 97 98
f 79 98 80
f 80 98 81
f 81 98 100
f 81 100 101
f 81 101 99
f 82 102 83
f 85 103 104
f 85 104 86
f 86 104 105
f 86 105 106
f 86 106 87
f 87 106 121
f 87 121 107
f 87 107 108
f 87 108 88
f 88 108 123
f 88 123 109
f 88 109 110
f 88 110 91
f 88 91 90
f 88 90 89
f 91 110 92
f 93 111 112
f 93 112 113
f 93 113 114
f 93 114 94
f 94 114 101
f 94 101 95
f 95 101 96
f 96 101 115
f 96 115 97
f 97 115 100
f 97 100 98
f 99 116 117
f 99 101 118
f 99 118 116
f 100 115 101
f 101 114 113
f 101 113 118
f 103 106 104
f 103 119 120
f 103 120 121
f 103 121 106
f 104 106 105
f 107 121 108
f 108 121 120
f 108 120 122
f 108 122 123
f 109 123 110
f 110 123 124
f 111 125 116
f 111 116 118
f 111 118 112
f 112 118 113
f 116 125 117
f 117 125 127
f 117 127 126
f 119 126 128
f 119 128 129
f 119 129 130
f 119 130 120
f 120 130 131
f 120 131 122
f 122 131 123
f 123 132 133
f 123 133 124
f 123 131 132
f 125 133 134
f 125 134 127
f 126 129 128
f 126 127 135
f 126 135 129
f 127 134 133
f 127 133 136
f 127 136 137
f 127 137 135
f 129 135 132
f 129 132 130
f 130 132 131
f 132 135 133
f 133 135 137
f 133 137 136

