v 0.11179015 -0.20644038 0.43252033
v 0.11162133 -0.20644038 0.43132221
v 0.11020327 -0.20644038 0.43674329
v 0.10770478 -0.21189405 0.43685422
v 0.07118967 -0.27809720 0.44415381
v 0.07160328 -0.27865593 0.43984950
v 0.07122343 -0.27805551 0.43252033
v 0.11063375 -0.20644038 0.42470302
v 0.10952800 -0.20644038 0.43789701
v 0.10929165 -0.20721590 0.43774911
v 0.06668226 -0.27315220 0.44600276
v 0.06677511 -0.28051550 0.44501172
v 0.06439479 -0.28584412 0.44427954
v 0.06519667 -0.28701991 0.43984950
v 0.06885156 -0.28231673 0.43984950
v 0.10424403 -0.20644038 0.43960543
v 0.06496033 -0.28687814 0.43252033
v 0.06862366 -0.28172464 0.43252033
v 0.07067478 -0.27730501 0.42724715
v 0.06423442 -0.28587748 0.42519112
v 0.11029612 -0.20644038 0.42299460
v 0.06398119 -0.27090068 0.37390904
v 0.10330709 -0.20644038 0.43975336
v 0.05934716 -0.27315220 0.44705298
v 0.05934716 -0.28048214 0.44660182
v 0.05934716 -0.28691983 0.44482682
v 0.05913614 -0.29058066 0.43958326
v 0.06026722 -0.29054730 0.43252033
v 0.05749862 -0.28625272 0.39588919
v 0.05673050 -0.28543550 0.38856001
v 0.06648812 -0.28048214 0.41786194
v 0.06273194 -0.27641274 0.38625992
v 0.06143205 -0.27456981 0.37390904
v 0.06306114 -0.28420966 0.41399399
v 0.10926634 -0.20644038 0.41786194
v 0.06306958 -0.27147604 0.37158679
v 0.06371952 -0.27053375 0.37158679
v 0.09598888 -0.20644038 0.43841473
v 0.05202051 -0.26582223 0.44660921
v 0.05202051 -0.27315220 0.44713432
v 0.05202051 -0.28048214 0.44653526
v 0.05202051 -0.28622769 0.44469369
v 0.05547282 -0.29157298 0.43696517
v 0.05654481 -0.29157298 0.43696517
v 0.05660389 -0.29162304 0.43252033
v 0.05609744 -0.29159801 0.42519112
v 0.05586954 -0.29154798 0.42070930
v 0.05079659 -0.28555225 0.37158679
v 0.05612276 -0.28469333 0.38318329
v 0.06074834 -0.27994010 0.38864877
v 0.06130544 -0.27401111 0.37158679
v 0.05752394 -0.27927299 0.37158679
v 0.06116195 -0.28150785 0.39588919
v 0.10922413 -0.20644038 0.41765487
v 0.06458049 -0.26589729 0.37158679
v 0.09924704 -0.20644038 0.38355308
v 0.10145855 -0.20644038 0.38568306
v 0.10291881 -0.20644038 0.38844908
v 0.10469983 -0.20644038 0.39603712
v 0.10475892 -0.20644038 0.39631814
v 0.10900466 -0.20644038 0.41660468
v 0.09565124 -0.20644038 0.43825941
v 0.04744557 -0.26090223 0.44417603
v 0.05202051 -0.25974311 0.44483421
v 0.04487955 -0.26606406 0.44490821
v 0.04469386 -0.27315220 0.44624679
v 0.04468541 -0.28060724 0.44504873
v 0.04711638 -0.28491016 0.44409464
v 0.05262825 -0.28946323 0.43958326
v 0.05536309 -0.29162304 0.43252033
v 0.04610348 -0.28562730 0.43984950
v 0.05169976 -0.28966336 0.43252033
v 0.05539685 -0.29159801 0.42519112
v 0.05550658 -0.29154798 0.42070930
v 0.05445992 -0.28294215 0.37158679
v 0.04585025 -0.28555225 0.37158679
v 0.06453829 -0.26442129 0.37158679
v 0.09639404 -0.20644038 0.38296883
v 0.06387990 -0.26117741 0.37158679
v 0.09200480 -0.20644038 0.43585579
v 0.04652552 -0.25847558 0.43933918
v 0.04043967 -0.26866582 0.44407986
v 0.03979817 -0.27315220 0.44453101
v 0.03997542 -0.27824731 0.44430171
v 0.04243171 -0.28299218 0.43984950
v 0.05173352 -0.28969672 0.42519112
v 0.04201810 -0.28340913 0.43252033
v 0.04568144 -0.28599420 0.43252033
v 0.04566455 -0.28603592 0.42519112
v 0.04568144 -0.28592751 0.38123083
v 0.04574896 -0.28568568 0.37390904
v 0.04218693 -0.28342580 0.37158679
v 0.08867910 -0.20644038 0.38272478
v 0.05943157 -0.25751661 0.37158679
v 0.05827517 -0.25659098 0.37158679
v 0.05576825 -0.25477308 0.37158679
v 0.05202051 -0.25219635 0.37158679
v 0.04620477 -0.24860224 0.37158679
v 0.04503993 -0.24801018 0.37158679
v 0.04254144 -0.24687608 0.37158679
v 0.09062895 -0.20644038 0.43280135
v 0.04823057 -0.25473139 0.43655838
v 0.03970532 -0.26751503 0.43984950
v 0.03731656 -0.27315220 0.43984950
v 0.04249924 -0.26385423 0.43984950
v 0.03367855 -0.27685469 0.42913306
v 0.03864177 -0.27933138 0.43984950
v 0.03681855 -0.27918127 0.43195085
v 0.04566455 -0.28603592 0.41786194
v 0.04567299 -0.28600256 0.38856001
v 0.04200122 -0.28345916 0.42519112
v 0.03338313 -0.27712988 0.41054015
v 0.03325651 -0.27722160 0.40321836
v 0.04208563 -0.28344249 0.37390904
v 0.04059160 -0.28239178 0.37158679
v 0.08340358 -0.20644038 0.38413736
v 0.03992478 -0.24687608 0.37158679
v 0.09051078 -0.20644038 0.43241679
v 0.03946897 -0.25278007 0.39588919
v 0.04308165 -0.25755831 0.42519112
v 0.04363875 -0.25910102 0.43216532
v 0.04146945 -0.26279518 0.43436925
v 0.09042637 -0.20644038 0.43212834
v 0.08888168 -0.20644038 0.42627092
v 0.03913134 -0.26547200 0.43216532
v 0.03719838 -0.26582223 0.42519112
v 0.03329027 -0.26877423 0.41635321
v 0.03501220 -0.27381098 0.43195085
v 0.03367855 -0.27668792 0.42913306
v 0.02635190 -0.26953306 0.38519496
v 0.02571039 -0.27037531 0.37390904
v 0.02557534 -0.27048372 0.37158679
v 0.04200122 -0.28345916 0.41786194
v 0.03736720 -0.28019862 0.38123083
v 0.04200967 -0.28345916 0.38856001
v 0.04201810 -0.28345916 0.38123083
v 0.03318898 -0.27722160 0.39588919
v 0.03736720 -0.28019862 0.40321836
v 0.02817512 -0.27298540 0.37158679
v 0.03603355 -0.27924799 0.37158679
v 0.08177449 -0.20644038 0.38856001
v 0.03875994 -0.24768494 0.37158679
v 0.04051563 -0.24713457 0.37966293
v 0.03857424 -0.25175436 0.38856001
v 0.03287667 -0.25375573 0.37158679
v 0.03362791 -0.25473139 0.37788795
v 0.04087859 -0.26194461 0.42948067
v 0.08855249 -0.20644038 0.42482134
v 0.03424409 -0.26292860 0.40461617
v 0.03035285 -0.26582223 0.39588919
v 0.02635190 -0.26942468 0.38519496
v 0.02556690 -0.26678120 0.37158679
v 0.03316366 -0.27722160 0.38856001
v 0.03317210 -0.27722160 0.37158679
v 0.02950877 -0.27415286 0.37158679
v 0.08185046 -0.20644038 0.38958802
v 0.03626145 -0.25008657 0.37158679
v 0.03736720 -0.25116230 0.38121605
v 0.08402820 -0.20644038 0.40321836
v 0.08371589 -0.20644038 0.40172444
v 0.08257637 -0.20644038 0.39625158
v 0.03155145 -0.25568202 0.37158679
v 0.02954254 -0.25860901 0.37158679
v 0.03235334 -0.26020176 0.38856001
v 0.03320586 -0.26144427 0.39588919
v 0.02826797 -0.26070210 0.37158679
v 0.02679082 -0.26321214 0.37158679
v 0.02837770 -0.26652271 0.38800534
v 0.02615776 -0.26494663 0.37158679
f 1 2 8
f 1 8 21
f 1 21 35
f 1 35 54
f 1 54 61
f 1 61 60
f 1 60 59
f 1 59 58
f 1 58 57
f 1 57 56
f 1 56 78
f 1 78 93
f 1 93 116
f 1 116 141
f 1 141 156
f 1 156 161
f 1 161 160
f 1 160 159
f 1 159 148
f 1 148 124
f 1 124 123
f 1 123 118
f 1 118 101
f 1 101 80
f 1 80 62
f 1 62 38
f 1 38 23
f 1 23 16
f 1 16 9
f 1 9 3
f 1 3 4
f 1 4 5
f 1 5 6
f 1 6 7
f 1 7 2
f 2 7 8
f 3 9 10
f 3 10 4
f 4 10 5
f 5 11 12
f 5 12 13
f 5 13 14
f 5 14 15
f 5 15 6
f 5 10 9
f 5 9 16
f 5 16 11
f 6 15 17
f 6 17 18
f 6 18 7
f 7 19 8
f 7 18 20
f 7 20 19
f 8 19 22
f 8 22 21
f 11 16 23
f 11 23 24
f 11 24 25
f 11 25 12
f 12 25 13
f 13 25 26
f 13 26 27
f 13 27 14
f 14 27 28
f 14 28 17
f 14 17 15
f 17 28 29
f 17 29 30
f 17 30 20
f 17 20 18
f 19 31 32
f 19 32 33
f 19 33 22
f 19 20 31
f 20 30 34
f 20 34 32
f 20 32 31
f 21 22 35
f 22 33 36
f 22 36 37
f 22 37 35
f 23 38 39
f 23 39 24
f 24 39 40
f 24 40 25
f 25 40 41
f 25 41 26
f 26 41 42
f 26 42 27
f 27 42 43
f 27 43 44
f 27 44 28
f 28 44 45
f 28 45 46
f 28 46 47
f 28 47 29
f 29 47 30
f 30 47 48
f 30 48 49
f 30 49 34
f 32 34 50
f 32 50 33
f 33 51 36
f 33 50 49
f 33 49 52
f 33 52 51
f 34 53 50
f 34 49 53
f 35 37 54
f 36 51 52
f 36 52 75
f 36 75 48
f 36 48 76
f 36 76 92
f 36 92 115
f 36 115 140
f 36 140 154
f 36 154 155
f 36 155 139
f 36 139 132
f 36 132 152
f 36 152 169
f 36 169 167
f 36 167 166
f 36 166 163
f 36 163 162
f 36 162 145
f 36 145 157
f 36 157 142
f 36 142 117
f 36 117 100
f 36 100 99
f 36 99 98
f 36 98 97
f 36 97 96
f 36 96 95
f 36 95 94
f 36 94 79
f 36 79 77
f 36 77 55
f 36 55 37
f 37 55 56
f 37 56 57
f 37 57 58
f 37 58 59
f 37 59 60
f 37 60 61
f 37 61 54
f 38 62 63
f 38 63 64
f 38 64 39
f 39 64 63
f 39 63 65
f 39 65 66
f 39 66 40
f 40 66 41
f 41 66 67
f 41 67 42
f 42 67 68
f 42 68 69
f 42 69 43
f 43 70 45
f 43 45 44
f 43 69 71
f 43 71 72
f 43 72 70
f 45 70 73
f 45 73 46
f 46 73 74
f 46 74 47
f 47 74 76
f 47 76 48
f 48 75 49
f 49 75 52
f 49 50 53
f 55 77 56
f 56 77 79
f 56 79 78
f 62 80 63
f 63 81 82
f 63 82 65
f 63 80 81
f 65 82 66
f 66 82 83
f 66 83 84
f 66 84 67
f 67 84 68
f 68 84 85
f 68 85 71
f 68 71 69
f 70 72 86
f 70 86 73
f 71 85 87
f 71 87 88
f 71 88 72
f 72 88 89
f 72 89 86
f 73 86 90
f 73 90 74
f 74 90 91
f 74 91 76
f 76 91 92
f 78 79 94
f 78 94 95
f 78 95 96
f 78 96 97
f 78 97 98
f 78 98 99
f 78 99 100
f 78 100 93
f 80 101 102
f 80 102 81
f 81 102 82
f 82 103 104
f 82 104 83
f 82 102 105
f 82 105 103
f 83 104 84
f 84 104 106
f 84 106 107
f 84 107 85
f 85 107 106
f 85 106 108
f 85 108 87
f 86 89 109
f 86 109 110
f 86 110 90
f 87 111 88
f 87 108 106
f 87 106 112
f 87 112 113
f 87 113 111
f 88 111 89
f 89 111 133
f 89 133 109
f 90 110 114
f 90 114 92
f 90 92 91
f 92 114 115
f 93 100 117
f 93 117 116
f 101 118 102
f 102 119 120
f 102 120 121
f 102 121 122
f 102 122 103
f 102 103 105
f 102 118 123
f 102 123 124
f 102 124 119
f 103 122 125
f 103 125 126
f 103 126 127
f 103 127 128
f 103 128 104
f 104 128 129
f 104 129 106
f 106 129 151
f 106 151 130
f 106 130 131
f 106 131 132
f 106 132 112
f 109 133 134
f 109 134 135
f 109 135 136
f 109 136 110
f 110 136 114
f 111 113 137
f 111 137 138
f 111 138 134
f 111 134 133
f 112 132 113
f 113 132 139
f 113 139 137
f 114 136 140
f 114 140 115
f 116 117 142
f 116 142 141
f 119 143 144
f 119 144 145
f 119 145 146
f 119 146 121
f 119 121 120
f 119 124 143
f 121 146 147
f 121 147 122
f 122 147 126
f 122 126 125
f 124 148 143
f 126 149 150
f 126 150 127
f 126 147 149
f 127 150 151
f 127 151 128
f 128 151 129
f 130 151 152
f 130 152 132
f 130 132 131
f 134 138 153
f 134 153 154
f 134 154 140
f 134 140 136
f 134 136 135
f 137 139 155
f 137 155 153
f 137 153 138
f 141 142 157
f 141 157 156
f 143 157 145
f 143 145 158
f 143 158 144
f 143 148 159
f 143 159 160
f 143 160 161
f 143 161 157
f 144 158 145
f 145 162 146
f 146 162 163
f 146 163 164
f 146 164 165
f 146 165 149
f 146 149 147
f 149 165 150
f 150 164 163
f 150 163 166
f 150 166 167
f 150 167 168
f 150 168 151
f 150 165 164
f 151 168 167
f 151 167 169
f 151 169 152
f 153 155 154
f 156 157 161

