v -0.08907025 0.33771576 0.00595782
v -0.09284384 0.33726149 0.00595782
v -0.09271371 0.33294597 0.01336220
v -0.08863649 0.33294597 0.01336220
v -0.08698826 0.33518486 0.00793490
v -0.08182667 0.33255661 0.00612244
v -0.08178330 0.33255661 0.00595782
v -0.09709456 0.33307576 0.00595782
v -0.09457883 0.33489283 0.00739738
v -0.09852593 0.32437981 0.01889364
v -0.09453545 0.32596975 0.01989309
v -0.08720513 0.32642402 0.02035503
v -0.08221704 0.32499632 0.01951011
v -0.08373515 0.33122626 0.01100718
v -0.07957118 0.32986347 0.00814823
v -0.07397585 0.32593731 0.00752336
v 0.10017357 0.18521239 0.01897763
v 0.11999581 0.17080570 0.01485046
v -0.07358548 0.32603464 0.00595782
v -0.09930667 0.33047995 0.00595782
v -0.09757168 0.33060975 0.00993549
v -0.10685387 0.31127104 0.01973016
v -0.09995729 0.32035632 0.01982758
v -0.09453545 0.32035632 0.02206502
v -0.09930667 0.32558039 0.01485046
v -0.13500405 0.27298295 0.01876094
v -0.12836772 0.28125707 0.01953027
v -0.08720513 0.32035632 0.02257567
v -0.07983143 0.32061592 0.02080352
v -0.07410597 0.31834458 0.01989813
v -0.06118031 0.30968110 0.01890876
v -0.07735908 0.32324417 0.01689977
v -0.07983143 0.32635911 0.01461362
v -0.07549396 0.32460696 0.01201503
v 0.06326170 0.21431782 0.01876766
v 0.11643908 0.17181157 0.01987630
v 0.11999581 0.16658752 0.02085560
v 0.11999581 0.17087060 0.01230059
v 0.11999581 0.17100038 0.00595782
v -0.32312011 0.00626431 0.00595782
v -0.32290323 0.00626431 0.01485046
v -0.27423685 0.07518285 0.01876766
v -0.10229953 0.31344499 0.02097486
v -0.12173139 0.28979076 0.01990989
v -0.12403025 0.28372309 0.02085224
v -0.10182240 0.30572249 0.02282427
v -0.09453545 0.31302319 0.02297209
v -0.13114370 0.26905679 0.02203647
v -0.12381338 0.27638995 0.02264454
v -0.18640306 0.19987868 0.01891548
v -0.21624487 0.15672347 0.01944628
v -0.17976674 0.20825014 0.01957898
v -0.15829626 0.23816675 0.01983598
v -0.08720513 0.31302319 0.02303592
v -0.07991818 0.31302319 0.02291162
v -0.05792721 0.29838936 0.02255383
v -0.06525753 0.30572249 0.02214733
v 0.08156582 0.19617967 0.02099334
v 0.07380175 0.20312343 0.02057508
v -0.01598388 0.27405371 0.01973016
v 0.00500948 0.25860869 0.01914896
v 0.07124265 0.20753630 0.01934717
v 0.11852107 0.16710667 0.02111260
v 0.11999581 0.15918948 0.02279908
v 0.11999581 0.13553524 0.00595782
v -0.28542749 0.00626431 0.00595782
v -0.32281649 0.00626431 0.01519649
v -0.31895616 0.01035270 0.01953195
v -0.16059513 0.23232620 0.02071450
v -0.17542927 0.21058636 0.02091271
v -0.18245596 0.19579029 0.02216581
v -0.13847402 0.25442296 0.02279068
v -0.15313467 0.23242354 0.02294018
v -0.11648305 0.28372309 0.02296033
v -0.13114370 0.26175610 0.02303928
v -0.10915273 0.29105622 0.02303760
v -0.10182240 0.29838936 0.02307960
v -0.09453545 0.30572249 0.02309975
v -0.16046499 0.22509040 0.02252864
v -0.17512564 0.20312343 0.02272685
v -0.29748568 0.04030176 0.01982087
v -0.19473101 0.18667254 0.01974024
v -0.08720513 0.30572249 0.02311487
v -0.07991818 0.30572249 0.02309639
v -0.07258786 0.30572249 0.02302080
v 0.08130557 0.18845716 0.02302920
v 0.11062687 0.16652262 0.02297209
v -0.05059689 0.29105622 0.02285451
v -0.02127559 0.26905679 0.02279404
v 0.06664492 0.20312343 0.02247320
v 0.00071538 0.25442296 0.02232706
v 0.05931460 0.21045656 0.02199111
v 0.11795719 0.15918948 0.02303928
v 0.11999581 0.15185635 0.02309807
v 0.11999581 0.00626431 0.00600822
v -0.32086465 0.00626431 0.02002580
v -0.29982790 0.03446120 0.02068258
v -0.31461868 0.01272137 0.02086568
v -0.27037647 0.07125669 0.02202135
v -0.29969779 0.02729030 0.02248160
v -0.21173389 0.15185635 0.02259415
v -0.18978629 0.18112401 0.02287634
v -0.29236746 0.03462344 0.02294522
v -0.16779532 0.21045656 0.02301241
v -0.18245596 0.18845716 0.02305272
v -0.18978629 0.17382331 0.02310647
v -0.15313467 0.22509040 0.02310983
v -0.10182240 0.29105622 0.02311487
v -0.09453545 0.29838936 0.02311487
v -0.31340418 0.00626431 0.02272685
v -0.27770682 0.05659042 0.02279572
v 0.00071538 0.21045656 0.02311655
v -0.05059689 0.28372309 0.02311487
v -0.06525753 0.29838936 0.02306112
v 0.05931460 0.20312343 0.02307960
v 0.10329654 0.16652262 0.02309975
v 0.11062687 0.15918948 0.02311151
v 0.11795719 0.15185635 0.02311319
v 0.11999581 0.14452320 0.02311487
v 0.11999581 0.00626431 0.02311487
v -0.32025739 0.00626431 0.02032479
v -0.31435843 0.00626431 0.02245809
v -0.30702810 0.01262402 0.02298889
v -0.27037647 0.06392356 0.02302416
v -0.28503713 0.04195659 0.02304936
v -0.29236746 0.02729030 0.02311487
v -0.16779532 0.20312343 0.02311487
v -0.30702810 0.00626431 0.02309975
v 0.07397525 0.18845716 0.02311487
v -0.30607385 0.00626431 0.02311487
v -0.29969779 0.01995717 0.02305272
f 1 2 3
f 1 3 4
f 1 4 5
f 1 5 6
f 1 6 7
f 1 7 19
f 1 19 39
f 1 39 65
f 1 65 66
f 1 66 40
f 1 40 20
f 1 20 8
f 1 8 2
f 2 8 9
f 2 9 3
f 3 9 10
f 3 10 11
f 3 11 12
f 3 12 4
f 4 12 13
f 4 13 14
f 4 14 5
f 5 14 6
f 6 14 15
f 6 15 16
f 6 16 17
f 6 17 18
f 6 18 7
f 7 18 19
f 8 20 21
f 8 21 9
f 9 21 10
f 10 22 23
f 10 23 24
f 10 24 11
f 10 21 25
f 10 25 26
f 10 26 27
f 10 27 22
f 11 24 12
f 12 28 29
f 12 29 13
f 12 24 28
f 13 29 30
f 13 30 31
f 13 31 32
f 13 32 33
f 13 33 14
f 14 33 15
f 15 33 32
f 15 32 34
f 15 34 16
f 16 34 35
f 16 35 17
f 17 36 18
f 17 35 36
f 18 36 37
f 18 37 64
f 18 64 94
f 18 94 119
f 18 119 120
f 18 120 95
f 18 95 65
f 18 65 39
f 18 39 38
f 18 38 19
f 19 38 39
f 20 26 25
f 20 25 21
f 20 40 41
f 20 41 42
f 20 42 26
f 22 43 23
f 22 27 44
f 22 44 45
f 22 45 43
f 23 43 24
f 24 46 47
f 24 47 28
f 24 43 45
f 24 45 48
f 24 48 49
f 24 49 46
f 26 42 50
f 26 50 27
f 27 50 51
f 27 51 52
f 27 52 53
f 27 53 44
f 28 47 54
f 28 54 55
f 28 55 56
f 28 56 57
f 28 57 29
f 29 57 58
f 29 58 30
f 30 58 59
f 30 59 60
f 30 60 31
f 31 60 61
f 31 61 35
f 31 35 32
f 32 35 34
f 35 61 62
f 35 62 36
f 36 59 58
f 36 58 63
f 36 63 37
f 36 62 60
f 36 60 59
f 37 63 64
f 40 66 95
f 40 95 120
f 40 120 130
f 40 130 128
f 40 128 110
f 40 110 122
f 40 122 121
f 40 121 96
f 40 96 67
f 40 67 41
f 41 67 68
f 41 68 42
f 42 68 51
f 42 51 50
f 44 53 69
f 44 69 45
f 45 69 70
f 45 70 71
f 45 71 48
f 46 49 72
f 46 72 73
f 46 73 74
f 46 74 47
f 47 74 75
f 47 75 76
f 47 76 77
f 47 77 78
f 47 78 54
f 48 71 49
f 49 71 79
f 49 79 80
f 49 80 72
f 51 68 81
f 51 81 82
f 51 82 52
f 52 82 53
f 53 82 69
f 54 78 83
f 54 83 84
f 54 84 85
f 54 85 55
f 55 85 86
f 55 86 87
f 55 87 88
f 55 88 56
f 56 88 89
f 56 89 90
f 56 90 91
f 56 91 57
f 57 91 92
f 57 92 58
f 58 92 63
f 60 62 61
f 63 87 64
f 63 92 90
f 63 90 87
f 64 87 93
f 64 93 94
f 65 95 66
f 67 96 68
f 68 96 81
f 69 82 97
f 69 97 70
f 70 97 98
f 70 98 99
f 70 99 71
f 71 99 100
f 71 100 101
f 71 101 79
f 72 80 102
f 72 102 73
f 73 75 74
f 73 102 103
f 73 103 104
f 73 104 75
f 75 104 105
f 75 105 106
f 75 106 107
f 75 107 77
f 75 77 76
f 77 107 78
f 78 108 109
f 78 109 83
f 78 107 108
f 79 101 80
f 80 101 110
f 80 110 111
f 80 111 103
f 80 103 102
f 81 96 97
f 81 97 82
f 83 109 112
f 83 112 113
f 83 113 84
f 84 113 114
f 84 114 85
f 85 114 115
f 85 115 86
f 86 115 93
f 86 93 87
f 87 90 89
f 87 89 88
f 90 92 91
f 93 116 117
f 93 117 94
f 93 115 116
f 94 117 118
f 94 118 119
f 96 121 97
f 97 121 98
f 98 121 122
f 98 122 100
f 98 100 99
f 100 122 110
f 100 110 101
f 103 111 110
f 103 110 123
f 103 123 104
f 104 123 124
f 104 124 105
f 105 124 125
f 105 125 126
f 105 126 106
f 106 126 107
f 107 126 127
f 107 127 108
f 108 127 112
f 108 112 109
f 110 128 123
f 112 120 119
f 112 119 129
f 112 129 113
f 112 127 126
f 112 126 130
f 112 130 120
f 113 129 115
f 113 115 114
f 115 129 116
f 116 129 117
f 117 129 118
f 118 129 119
f 123 128 131
f 123 131 125
f 123 125 124
f 125 131 126
f 126 131 128
f 126 128 130

