v -0.02979229 0.00623186 0.02311570
v -0.02979229 -0.22226082 0.02387158
v -0.02979229 0.00623186 0.00600948
v -0.30606505 0.00623186 0.02311570
v -0.02979229 -0.22917634 0.02355545
v -0.30702433 0.00527719 0.02311570
v -0.31435817 -0.00936888 0.02311570
v -0.31435817 -0.01670356 0.02311570
v -0.32166109 -0.01670356 0.02309450
v -0.31435817 -0.02403824 0.02310863
v -0.32166109 -0.02403824 0.02306801
v -0.31435817 -0.03134963 0.02303799
v -0.02979229 -0.19278239 0.00582934
v -0.03591932 -0.18670508 0.00582934
v -0.29244943 0.00623186 0.00582934
v -0.30702433 0.00623186 0.02309980
v -0.02979229 -0.22966533 0.02217791
v -0.32899491 -0.02403824 0.02272893
v -0.32166109 -0.03134963 0.02204369
v -0.31460573 -0.03910343 0.02093989
v -0.33422455 -0.02874175 0.01965065
v -0.32562197 -0.03523817 0.01877645
v -0.34214634 -0.02825277 0.01220135
v -0.32707635 -0.04117577 0.00582934
v -0.31435817 -0.00205749 0.02307508
v -0.32166109 -0.00936888 0.02296205
v -0.02979229 -0.23162126 0.00582934
v -0.32311547 0.00623186 0.00582934
v -0.31339886 0.00623186 0.02272716
v -0.02979229 -0.23080627 0.01478512
v -0.32899491 -0.01670356 0.02245518
v -0.33654539 -0.02389853 0.02041007
v -0.32843794 -0.03125649 0.02024229
v -0.34038250 -0.02136050 0.01906785
v -0.33911379 -0.02625029 0.01708455
v -0.34233201 -0.02389853 0.01472684
v -0.34573592 -0.02403824 0.00752478
v -0.34310562 -0.02948685 0.00752478
v -0.33441022 -0.03619285 0.00594061
v -0.02979229 -0.23164453 0.00752478
v -0.33444114 -0.03621613 0.00582934
v -0.31435817 0.00527719 0.02268831
v -0.33376038 -0.00471194 0.00582934
v -0.32308452 0.00623186 0.00769609
v -0.31438912 0.00623186 0.02245695
v -0.33608124 -0.01702955 0.02017518
v -0.34038250 -0.01970729 0.01906785
v -0.32166109 -0.00205749 0.02202956
v -0.34592159 -0.02403824 0.00582934
v -0.34131086 -0.01838006 0.01485046
v -0.34227014 -0.01623787 0.00750005
v -0.34264147 -0.01635429 0.00582934
v -0.34313657 -0.02976627 0.00582934
v -0.33933041 -0.01172064 0.00582934
v -0.32556010 0.00194748 0.01883120
v -0.32292980 0.00623186 0.01485046
v -0.32023761 0.00623186 0.02032530
v -0.32150635 0.00474164 0.02020344
v -0.32085653 0.00623186 0.02002683
v -0.33963984 -0.01349027 0.00992664
v -0.34090855 -0.01376969 0.00582934
v -0.32283698 0.00623186 0.01519661
f 1 2 5
f 1 5 17
f 1 17 30
f 1 30 40
f 1 40 27
f 1 27 13
f 1 13 3
f 1 3 15
f 1 15 28
f 1 28 44
f 1 44 56
f 1 56 62
f 1 62 59
f 1 59 57
f 1 57 45
f 1 45 29
f 1 29 16
f 1 16 4
f 1 4 2
f 2 4 6
f 2 6 7
f 2 7 8
f 2 8 9
f 2 9 10
f 2 10 11
f 2 11 12
f 2 12 5
f 3 13 14
f 3 14 15
f 4 16 6
f 5 12 18
f 5 18 19
f 5 19 20
f 5 20 21
f 5 21 22
f 5 22 23
f 5 23 24
f 5 24 17
f 6 16 25
f 6 25 9
f 6 9 7
f 7 9 8
f 9 11 10
f 9 25 26
f 9 26 18
f 9 18 11
f 11 18 12
f 13 27 24
f 13 24 41
f 13 41 53
f 13 53 49
f 13 49 52
f 13 52 61
f 13 61 54
f 13 54 43
f 13 43 28
f 13 28 15
f 13 15 14
f 16 29 25
f 17 24 30
f 18 26 31
f 18 31 32
f 18 32 21
f 18 21 19
f 19 21 33
f 19 33 20
f 20 33 21
f 21 32 34
f 21 34 35
f 21 35 23
f 21 23 22
f 23 35 34
f 23 34 36
f 23 36 37
f 23 37 38
f 23 38 39
f 23 39 24
f 24 40 30
f 24 39 41
f 24 27 40
f 25 29 26
f 26 29 42
f 26 42 31
f 28 43 44
f 29 45 42
f 31 46 47
f 31 47 32
f 31 42 48
f 31 48 46
f 32 47 34
f 34 47 37
f 34 37 36
f 37 49 38
f 37 47 50
f 37 50 51
f 37 51 52
f 37 52 49
f 38 49 53
f 38 53 41
f 38 41 39
f 42 45 48
f 43 54 55
f 43 55 56
f 43 56 44
f 45 57 48
f 46 48 57
f 46 57 47
f 47 55 50
f 47 57 58
f 47 58 59
f 47 59 55
f 50 60 51
f 50 55 60
f 51 60 61
f 51 61 52
f 54 61 55
f 55 61 60
f 55 59 62
f 55 62 56
f 57 59 58

