v -0.29230433 -0.02549821 0.00582934
v -0.29230433 -0.03602343 -0.03043736
v -0.29230433 -0.05792236 0.00582934
v -0.27770892 -0.03281132 0.00582934
v -0.28659976 -0.04099312 -0.03486577
v -0.29230433 -0.03875069 -0.03600706
v -0.26313919 -0.04024564 0.00582934
v -0.29230433 -0.05828599 0.00019362
v -0.02979229 -0.23161882 0.00582934
v -0.27298082 -0.04901330 -0.03406403
v -0.25059944 -0.06339709 -0.03453093
v -0.25892501 -0.06410415 -0.04017608
v -0.29230433 -0.03889211 -0.03610610
v -0.25931046 -0.05695266 -0.03292274
v -0.05792960 -0.17208364 0.00582934
v -0.07599400 -0.17408364 -0.03313025
v -0.29230433 -0.05834660 -0.00713518
v -0.02979229 -0.23188145 -0.02178334
v -0.02979229 -0.19277045 0.00582934
v -0.13419582 -0.13717466 -0.03375277
v -0.17011906 -0.11475047 -0.03445547
v -0.02979229 -0.20610374 -0.03625230
v -0.02979229 -0.21000272 -0.04007704
v -0.26046678 -0.06410415 -0.04017608
v -0.29230433 -0.04608401 -0.03946395
v -0.29230433 -0.04600320 -0.03944037
v -0.02979229 -0.21048758 -0.04024682
v -0.02979229 -0.21367949 -0.04128436
v -0.02979229 -0.21927543 -0.04235020
v -0.03593368 -0.18670987 0.00582934
v -0.03153964 -0.20307344 -0.03391784
v -0.29230433 -0.05834660 -0.01297369
v -0.02979229 -0.23186125 -0.02433475
v -0.29230433 -0.05832639 -0.02178334
v -0.29230433 -0.05828599 -0.02911214
v -0.02979229 -0.20386134 -0.03192293
v -0.06743718 -0.18052807 -0.03459223
v -0.02979229 -0.20547748 -0.03553545
v -0.26046678 -0.06541729 -0.04017608
v -0.28503231 -0.05333651 -0.03933190
v -0.29230433 -0.05384156 -0.03680880
v -0.25766591 -0.07030616 -0.03999687
v -0.02979229 -0.22735621 -0.04194933
v -0.04505581 -0.19501287 -0.03472428
v -0.02979229 -0.23089154 -0.03178145
v -0.29230433 -0.05753852 -0.03259733
v -0.28169182 -0.06452840 -0.03329059
v -0.02979229 -0.22990166 -0.03744075
v -0.27770892 -0.06066983 -0.03837454
v -0.29230433 -0.05424560 -0.03658714
v -0.02979229 -0.22917437 -0.03941208
v -0.29055700 -0.05816478 -0.03467713
v -0.29230433 -0.05477085 -0.03623343
f 1 2 6
f 1 6 13
f 1 13 26
f 1 26 25
f 1 25 41
f 1 41 50
f 1 50 53
f 1 53 46
f 1 46 35
f 1 35 34
f 1 34 32
f 1 32 17
f 1 17 8
f 1 8 3
f 1 3 9
f 1 9 19
f 1 19 30
f 1 30 15
f 1 15 7
f 1 7 4
f 1 4 2
f 2 5 6
f 2 4 7
f 2 7 5
f 3 8 9
f 5 7 10
f 5 10 11
f 5 11 12
f 5 12 6
f 6 12 13
f 7 14 10
f 7 15 16
f 7 16 14
f 8 17 18
f 8 18 9
f 9 18 33
f 9 33 45
f 9 45 48
f 9 48 51
f 9 51 43
f 9 43 29
f 9 29 28
f 9 28 27
f 9 27 23
f 9 23 22
f 9 22 38
f 9 38 36
f 9 36 19
f 10 14 11
f 11 14 20
f 11 20 21
f 11 21 22
f 11 22 23
f 11 23 12
f 12 24 25
f 12 25 26
f 12 26 13
f 12 23 27
f 12 27 28
f 12 28 29
f 12 29 24
f 14 16 20
f 15 30 31
f 15 31 16
f 16 31 20
f 17 32 18
f 18 32 34
f 18 34 35
f 18 35 33
f 19 36 30
f 20 31 37
f 20 37 21
f 21 37 22
f 22 37 38
f 24 29 39
f 24 39 25
f 25 40 41
f 25 39 42
f 25 42 40
f 29 43 39
f 30 36 31
f 31 36 38
f 31 38 44
f 31 44 37
f 33 35 45
f 35 46 47
f 35 47 48
f 35 48 45
f 37 44 38
f 39 43 42
f 40 49 41
f 40 42 43
f 40 43 49
f 41 49 43
f 41 43 50
f 43 51 52
f 43 52 53
f 43 53 50
f 46 53 52
f 46 52 47
f 47 52 48
f 48 52 51

