v -0.05137919 0.29914995 -0.28558272
v -0.04623550 0.29523527 -0.29290532
v -0.05137919 0.29914995 -0.29290532
v -0.05214990 0.29914995 -0.27825314
v -0.04648682 0.29502921 -0.27825314
v -0.01731690 0.27295245 -0.27960710
v -0.01718286 0.27305546 -0.28558272
v -0.01724988 0.27299364 -0.30023489
v -0.04633602 0.29516315 -0.30023489
v -0.00872174 0.26659623 -0.28558272
v 0.08647842 0.19391695 -0.29290532
v -0.05164726 0.29914995 -0.29830016
v -0.04678840 0.29481289 -0.27450612
v -0.05788001 0.29914995 -0.27304370
v -0.01761848 0.27271550 -0.27472305
v 0.07813458 0.19984049 -0.27825314
v 0.07840266 0.20004654 -0.28558272
v -0.01741743 0.27287003 -0.30404488
v 0.08629411 0.19391695 -0.29947220
v 0.08626060 0.19391695 -0.30023489
v -0.04658734 0.29496739 -0.30416031
v -0.05179805 0.29914995 -0.30023489
v 0.08639464 0.19391695 -0.28558272
v -0.05055821 0.29608000 -0.27386239
v -0.03884668 0.28797247 -0.27411079
v 0.04864632 0.22169064 -0.27437667
v 0.07781624 0.19959325 -0.27448165
v -0.06523532 0.29914995 -0.27205009
v -0.05764544 0.29868637 -0.27295625
v -0.03619943 0.28362511 -0.27329910
v -0.04388984 0.29067155 -0.27372593
v 0.08180386 0.19700750 -0.27825314
v 0.07801729 0.19973747 -0.30417431
v 0.02776997 0.23722576 -0.30482855
v 0.08522181 0.19391695 -0.30370900
v -0.03864562 0.28813730 -0.30458015
v -0.05055821 0.29634785 -0.30491951
v -0.05297088 0.29914995 -0.30235504
v 0.08579147 0.19391695 -0.27825314
v -0.03078767 0.28110118 -0.27382389
v 0.02748515 0.23697851 -0.27394635
v 0.08369714 0.19391695 -0.27390086
v -0.06521856 0.29838760 -0.27192066
v -0.05055821 0.29106301 -0.27235098
v -0.07657824 0.29914995 -0.27185070
v 0.00079492 0.25457401 -0.27296674
v 0.08426679 0.19391695 -0.30483906
v 0.08079857 0.19559615 -0.30517842
v 0.05933582 0.21063679 -0.30565772
v -0.03608215 0.28373844 -0.30557376
v -0.04377256 0.29077457 -0.30512245
v -0.03055310 0.28129690 -0.30489504
v -0.05793027 0.29914995 -0.30580468
v -0.05771246 0.29914995 -0.30574171
v 0.05146111 0.21747718 -0.27348804
v 0.06474758 0.20808194 -0.27377143
v 0.08068129 0.19547252 -0.27365948
v 0.07399616 0.19581249 -0.27220754
v 0.08083209 0.19391695 -0.27327811
v -0.05788001 0.29106301 -0.27180172
v 0.00072791 0.24709488 -0.27164076
v -0.00659390 0.25442977 -0.27187169
v 0.04467546 0.21779654 -0.27213757
v -0.07996268 0.29914995 -0.27349852
v 0.05982170 0.19391695 -0.27309968
v 0.06667438 0.19391695 -0.27156380
v 0.08264159 0.19391695 -0.30526590
v 0.07399616 0.19581249 -0.30672830
v 0.00089545 0.25470792 -0.30583967
v -0.05055821 0.29106301 -0.30667232
v -0.06597252 0.29914995 -0.30726008
v 0.07399616 0.19391695 -0.27196613
v 0.06667438 0.19581249 -0.27160229
v -0.08396705 0.29914995 -0.27811669
v 0.04100619 0.20679421 -0.27458309
v 0.05888344 0.19391695 -0.27438367
v 0.07588945 0.19391695 -0.30680877
v 0.04467546 0.21779654 -0.30679826
v -0.00659390 0.25442977 -0.30718663
v -0.07676254 0.29914995 -0.30679129
v 0.00072791 0.24709488 -0.30729858
v 0.06667438 0.19391695 -0.30725309
v -0.08468751 0.29914995 -0.28558272
v 0.05643725 0.19391695 -0.28558272
v 0.05727499 0.19391695 -0.27825314
v 0.06856764 0.19391695 -0.30730558
v 0.05201401 0.21047196 -0.30702919
v -0.07917522 0.29914995 -0.30611254
v 0.06134638 0.19391695 -0.30609507
v -0.08457023 0.29914995 -0.29028136
v 0.05645401 0.19391695 -0.28627195
v -0.08338064 0.29914995 -0.30324019
v 0.05972117 0.19391695 -0.30561925
v -0.08448646 0.29914995 -0.29290532
v 0.05668858 0.19391695 -0.29290532
v -0.08428540 0.29914995 -0.29731706
v 0.04088890 0.20671180 -0.30399939
v 0.05737551 0.19391695 -0.30024188
f 1 2 3
f 1 3 12
f 1 12 22
f 1 22 38
f 1 38 54
f 1 54 53
f 1 53 71
f 1 71 80
f 1 80 88
f 1 88 92
f 1 92 96
f 1 96 94
f 1 94 90
f 1 90 83
f 1 83 74
f 1 74 64
f 1 64 45
f 1 45 28
f 1 28 14
f 1 14 4
f 1 4 5
f 1 5 6
f 1 6 7
f 1 7 2
f 2 8 9
f 2 9 3
f 2 7 10
f 2 10 11
f 2 11 8
f 3 9 12
f 4 13 5
f 4 14 13
f 5 13 15
f 5 15 6
f 6 10 7
f 6 15 16
f 6 16 17
f 6 17 10
f 8 18 9
f 8 11 19
f 8 19 20
f 8 20 18
f 9 21 22
f 9 22 12
f 9 18 21
f 10 17 11
f 11 17 23
f 11 23 39
f 11 39 42
f 11 42 59
f 11 59 72
f 11 72 66
f 11 66 65
f 11 65 76
f 11 76 85
f 11 85 84
f 11 84 91
f 11 91 95
f 11 95 98
f 11 98 93
f 11 93 89
f 11 89 82
f 11 82 86
f 11 86 77
f 11 77 67
f 11 67 47
f 11 47 35
f 11 35 20
f 11 20 19
f 13 14 24
f 13 24 25
f 13 25 26
f 13 26 27
f 13 27 15
f 14 28 29
f 14 29 30
f 14 30 31
f 14 31 24
f 15 27 16
f 16 27 32
f 16 32 23
f 16 23 17
f 18 20 33
f 18 33 34
f 18 34 21
f 20 35 33
f 21 36 37
f 21 37 38
f 21 38 22
f 21 34 36
f 23 32 39
f 24 31 40
f 24 40 25
f 25 40 41
f 25 41 26
f 26 41 42
f 26 42 27
f 27 42 39
f 27 39 32
f 28 43 44
f 28 44 29
f 28 45 43
f 29 44 46
f 29 46 30
f 30 46 40
f 30 40 31
f 33 35 47
f 33 47 34
f 34 47 48
f 34 48 49
f 34 49 50
f 34 50 51
f 34 51 52
f 34 52 36
f 36 52 51
f 36 51 37
f 37 51 53
f 37 53 54
f 37 54 38
f 40 46 55
f 40 55 41
f 41 55 56
f 41 56 42
f 42 56 55
f 42 55 57
f 42 57 58
f 42 58 59
f 43 45 60
f 43 60 61
f 43 61 44
f 44 61 62
f 44 62 63
f 44 63 58
f 44 58 46
f 45 61 60
f 45 64 65
f 45 65 66
f 45 66 61
f 46 58 55
f 47 67 48
f 48 67 49
f 49 67 68
f 49 68 69
f 49 69 50
f 50 69 70
f 50 70 53
f 50 53 51
f 53 70 71
f 55 58 57
f 58 72 59
f 58 63 72
f 61 66 73
f 61 73 72
f 61 72 63
f 61 63 62
f 64 74 75
f 64 75 65
f 65 75 76
f 66 72 73
f 67 77 68
f 68 77 78
f 68 78 70
f 68 70 69
f 70 79 71
f 70 78 79
f 71 79 81
f 71 81 82
f 71 82 80
f 74 83 84
f 74 84 85
f 74 85 75
f 75 85 76
f 77 86 87
f 77 87 79
f 77 79 78
f 79 87 86
f 79 86 81
f 80 82 89
f 80 89 88
f 81 86 82
f 83 90 91
f 83 91 84
f 88 89 93
f 88 93 92
f 90 94 91
f 91 94 95
f 92 93 97
f 92 97 98
f 92 98 96
f 93 98 97
f 94 96 95
f 95 96 98

