v 0.21832421 0.06126850 0.00752479
v 0.21829533 0.06126850 0.00311467
v 0.21825683 0.06126850 0.01034075
v 0.17822669 0.00623186 0.01484951
v 0.17827482 0.00623186 0.00752479
v 0.17827482 0.00623186 0.00255510
v 0.21828571 0.06126850 0.00255510
v 0.21796807 0.06126850 0.01484951
v 0.18192268 0.01388183 0.01990575
v 0.17647496 0.00623186 0.01881479
v 0.21756383 0.06126850 0.01660067
v 0.19493559 0.03088953 0.01856319
v 0.15353872 0.00623186 0.00255510
v 0.19115299 0.06126850 0.00255510
v 0.17551246 0.00623186 0.02029222
v 0.21005637 0.05220168 0.01913886
v 0.20345366 0.04383520 0.01968837
v 0.21305936 0.06126850 0.02162673
v 0.11999579 0.00623186 0.00600913
v 0.11999579 0.06126850 0.00600913
v 0.15488621 0.00953428 0.00255510
v 0.18708165 0.05650613 0.00255510
v 0.17039200 0.00623186 0.02226480
v 0.21109587 0.06126850 0.02241576
v 0.11999579 0.00623186 0.02311623
v 0.11999579 0.06126850 0.02311623
v 0.16925625 0.00623186 0.02252848
v 0.20325154 0.06126850 0.02308201
v 0.19123962 0.04192810 0.02303773
v 0.17658083 0.01994792 0.02300955
v 0.15555033 0.00623186 0.02311623
v 0.19591733 0.06126850 0.02311824
v 0.16287491 0.00623186 0.02309811
v 0.19123962 0.04925482 0.02311623
v 0.17658083 0.02728004 0.02311623
v 0.16194129 0.00623186 0.02311220
v 0.16194129 0.01262120 0.02311623
f 1 2 7
f 1 7 14
f 1 14 20
f 1 20 26
f 1 26 32
f 1 32 28
f 1 28 24
f 1 24 18
f 1 18 11
f 1 11 8
f 1 8 3
f 1 3 4
f 1 4 5
f 1 5 6
f 1 6 2
f 2 6 7
f 3 8 4
f 4 9 10
f 4 10 15
f 4 15 23
f 4 23 27
f 4 27 33
f 4 33 36
f 4 36 31
f 4 31 25
f 4 25 19
f 4 19 13
f 4 13 6
f 4 6 5
f 4 8 11
f 4 11 12
f 4 12 9
f 6 13 21
f 6 21 22
f 6 22 14
f 6 14 7
f 9 15 10
f 9 12 16
f 9 16 17
f 9 17 18
f 9 18 15
f 11 18 16
f 11 16 12
f 13 19 20
f 13 20 21
f 14 22 20
f 15 18 24
f 15 24 23
f 16 18 17
f 19 25 26
f 19 26 20
f 20 22 21
f 23 24 27
f 24 28 29
f 24 29 30
f 24 30 27
f 25 31 32
f 25 32 26
f 27 30 33
f 28 32 34
f 28 34 35
f 28 35 36
f 28 36 33
f 28 33 29
f 29 33 30
f 31 36 37
f 31 37 32
f 32 35 34
f 32 37 35
f 35 37 36

