v 0.26140743 0.06908006 0.18396639
v 0.25986890 0.07266469 0.18337987
v 0.25986890 0.07273970 0.18396639
v 0.26140743 0.06666351 0.18396639
v 0.26135816 0.06900504 0.18337987
v 0.25441014 0.07606714 0.13209678
v 0.25482078 0.07641542 0.13942543
v 0.25612387 0.07678514 0.17605704
v 0.25649620 0.07653330 0.18396639
v 0.25894359 0.06299850 0.18396639
v 0.26135816 0.06675460 0.18337987
v 0.26095300 0.06805128 0.17920451
v 0.25391192 0.07547774 0.12691678
v 0.25126739 0.07818898 0.12464038
v 0.24722124 0.08302744 0.12464038
v 0.25620600 0.07679050 0.18337987
v 0.25620600 0.07679050 0.18396639
v 0.25888337 0.06308959 0.18337987
v 0.26095300 0.06741901 0.17920451
v 0.25524785 0.05778498 0.18396639
v 0.25445396 0.05894771 0.17605704
v 0.25389001 0.05973536 0.17066218
v 0.24791113 0.06498639 0.12464038
v 0.25391192 0.07415427 0.12691678
v 0.25191346 0.07158233 0.12464038
v 0.25133309 0.07808718 0.12464038
v 0.24261662 0.08634951 0.12464038
v 0.25579536 0.07707984 0.18396639
v 0.24795491 0.06505069 0.12464038
v 0.25403236 0.06680818 0.14828135
v 0.25188608 0.07153411 0.12464038
v 0.25271831 0.05439860 0.18396639
v 0.25176016 0.05528271 0.17605704
v 0.24771401 0.05813862 0.14674826
v 0.24694747 0.05919419 0.13942543
v 0.24644378 0.05990147 0.13458805
v 0.24591815 0.06063554 0.12970422
v 0.24536516 0.06138569 0.12464038
v 0.23840073 0.08931259 0.12464038
v 0.24253449 0.08640310 0.18337987
v 0.24762640 0.08282382 0.18396639
v 0.25254310 0.05416820 0.18396639
v 0.24660803 0.05252324 0.16294445
v 0.24595101 0.05300547 0.15806062
v 0.24124783 0.05608108 0.12498881
v 0.24123140 0.05615609 0.12464038
v 0.24140113 0.05637042 0.12464038
v 0.23479805 0.09179879 0.12464038
v 0.23479805 0.09180951 0.13209678
v 0.23846095 0.08926973 0.13209678
v 0.23843904 0.08926973 0.16872838
v 0.24253449 0.08639774 0.18396639
v 0.24892950 0.05050320 0.18396639
v 0.24809726 0.05119976 0.17605704
v 0.24725958 0.05188025 0.16872838
v 0.23904133 0.05280186 0.12757300
v 0.24097406 0.05606500 0.12464038
v 0.22866039 0.09550131 0.12464038
v 0.23479258 0.09178808 0.13942543
v 0.23477617 0.09146123 0.16872838
v 0.23813244 0.08926973 0.17605704
v 0.23729473 0.08926973 0.18337987
v 0.23710859 0.08924829 0.18396639
v 0.24881998 0.05051927 0.18337987
v 0.24312582 0.04925474 0.18396639
v 0.22510700 0.04261058 0.18001753
v 0.22551764 0.04261058 0.17979685
v 0.22964045 0.04261058 0.17617318
v 0.23012226 0.04261058 0.17534275
v 0.23174291 0.04261058 0.17188748
v 0.23207690 0.04261058 0.16872838
v 0.23074642 0.04261058 0.16139974
v 0.22769128 0.04261058 0.14650436
v 0.22732443 0.04261058 0.14495384
v 0.22586256 0.04261058 0.13942543
v 0.22209565 0.04261058 0.13449514
v 0.23573432 0.05446290 0.12464038
v 0.22506318 0.09734988 0.12464038
v 0.23446954 0.09077002 0.17605704
v 0.23374682 0.08990735 0.18396639
v 0.24253449 0.04913150 0.18396639
v 0.22119224 0.04261058 0.18070858
v 0.22071043 0.04261058 0.13416994
v 0.23542769 0.05457542 0.12464038
v 0.21325323 0.04261058 0.13370537
v 0.22340970 0.09734988 0.12464038
v 0.22504678 0.09733917 0.12476814
v 0.23348948 0.08994486 0.18396639
v 0.23598071 0.05087291 0.18396639
v 0.21555829 0.04261058 0.18042403
v 0.22829354 0.05815470 0.12464038
v 0.20790398 0.04261058 0.13500617
v 0.22455401 0.06057660 0.12464038
v 0.22462519 0.06052838 0.12464038
v 0.22469088 0.06048551 0.12464038
v 0.22334945 0.09730702 0.12464038
v 0.22343158 0.09733917 0.12476814
v 0.22434594 0.09692659 0.12877508
v 0.23099281 0.08994486 0.18396639
v 0.23116254 0.05241071 0.18396639
v 0.21520787 0.04261058 0.18038337
v 0.20547301 0.04261058 0.13943703
v 0.20844054 0.07337197 0.12464038
v 0.21215273 0.06977662 0.12464038
v 0.21221843 0.06971768 0.12464038
v 0.21227865 0.06966946 0.12464038
v 0.21588133 0.06684033 0.12464038
v 0.22047500 0.06350753 0.12464038
v 0.21974680 0.09431715 0.12464038
v 0.22451020 0.08925901 0.16401877
v 0.22413789 0.09692659 0.12877508
v 0.22509605 0.08849279 0.16872838
v 0.22728064 0.08589943 0.18396639
v 0.22441164 0.05925849 0.18396639
v 0.21810971 0.07128227 0.18396639
v 0.21269477 0.04261058 0.17739848
v 0.22073781 0.06387189 0.18396639
v 0.20547848 0.04261058 0.14656824
v 0.20859932 0.07866051 0.12464038
v 0.20848983 0.07502765 0.12464038
v 0.21611676 0.09071644 0.12464038
v 0.22238582 0.08483314 0.16872838
v 0.21662593 0.08990735 0.12956485
v 0.21720631 0.08911434 0.13444869
v 0.22326187 0.08359004 0.17605704
v 0.22387508 0.08272202 0.18116734
v 0.22638819 0.08482779 0.18396639
v 0.22695213 0.08551364 0.18396639
v 0.21836157 0.07180738 0.18396639
v 0.21727200 0.07376312 0.17813600
v 0.21651645 0.06888180 0.18087117
v 0.21228413 0.04261058 0.17658548
v 0.20711557 0.04261058 0.15453567
v 0.20953559 0.07494728 0.14318847
v 0.20929468 0.07545095 0.13942543
v 0.20886761 0.07654938 0.13209678
v 0.20877453 0.07906773 0.12464038
v 0.21606199 0.09065215 0.12464038
v 0.21235530 0.08551899 0.12464038
v 0.21220748 0.08531003 0.12464038
v 0.21723917 0.08173611 0.15629524
v 0.21784690 0.08086808 0.16139974
v 0.21872295 0.07962498 0.16872838
v 0.21928689 0.07800680 0.17583636
v 0.22235299 0.07958747 0.18396639
v 0.22194235 0.07899271 0.18396639
v 0.21669713 0.07519376 0.17324637
v 0.20855553 0.04261058 0.16139974
v 0.20927278 0.04261058 0.16479693
v 0.21010501 0.04261058 0.16872838
v 0.21043352 0.04261058 0.17013952
v 0.21184610 0.08476348 0.12464038
v 0.21001740 0.08129673 0.12653932
f 1 2 3
f 1 3 9
f 1 9 17
f 1 17 28
f 1 28 41
f 1 41 52
f 1 52 63
f 1 63 80
f 1 80 88
f 1 88 99
f 1 99 113
f 1 113 128
f 1 128 127
f 1 127 145
f 1 145 146
f 1 146 129
f 1 129 115
f 1 115 117
f 1 117 114
f 1 114 100
f 1 100 89
f 1 89 81
f 1 81 65
f 1 65 53
f 1 53 42
f 1 42 32
f 1 32 20
f 1 20 10
f 1 10 4
f 1 4 11
f 1 11 5
f 1 5 6
f 1 6 2
f 2 6 7
f 2 7 3
f 3 8 9
f 3 7 8
f 4 10 11
f 5 11 19
f 5 19 12
f 5 12 13
f 5 13 6
f 6 13 14
f 6 14 15
f 6 15 7
f 7 15 8
f 8 16 9
f 8 15 16
f 9 16 17
f 10 18 19
f 10 19 11
f 10 20 21
f 10 21 22
f 10 22 23
f 10 23 18
f 12 19 24
f 12 24 13
f 13 24 25
f 13 25 26
f 13 26 14
f 14 26 25
f 14 25 31
f 14 31 29
f 14 29 23
f 14 23 38
f 14 38 47
f 14 47 46
f 14 46 57
f 14 57 77
f 14 77 84
f 14 84 91
f 14 91 95
f 14 95 94
f 14 94 93
f 14 93 108
f 14 108 107
f 14 107 106
f 14 106 105
f 14 105 104
f 14 104 103
f 14 103 120
f 14 120 119
f 14 119 137
f 14 137 152
f 14 152 140
f 14 140 139
f 14 139 138
f 14 138 121
f 14 121 109
f 14 109 96
f 14 96 86
f 14 86 78
f 14 78 58
f 14 58 48
f 14 48 39
f 14 39 27
f 14 27 15
f 15 27 16
f 16 28 17
f 16 27 28
f 18 23 29
f 18 29 19
f 19 29 30
f 19 30 31
f 19 31 24
f 20 32 33
f 20 33 21
f 21 33 34
f 21 34 35
f 21 35 36
f 21 36 22
f 22 36 23
f 23 36 37
f 23 37 38
f 24 31 25
f 27 39 40
f 27 40 41
f 27 41 28
f 29 31 30
f 32 42 33
f 33 42 43
f 33 43 44
f 33 44 34
f 34 45 46
f 34 46 35
f 34 44 45
f 35 46 36
f 36 46 47
f 36 47 38
f 36 38 37
f 39 48 49
f 39 49 50
f 39 50 40
f 40 51 52
f 40 52 41
f 40 50 51
f 42 53 54
f 42 54 55
f 42 55 43
f 43 55 56
f 43 56 44
f 44 56 45
f 45 56 46
f 46 56 57
f 48 58 49
f 49 58 59
f 49 59 51
f 49 51 50
f 51 60 61
f 51 61 52
f 51 59 60
f 52 61 62
f 52 62 63
f 53 64 54
f 53 65 66
f 53 66 67
f 53 67 68
f 53 68 69
f 53 69 70
f 53 70 71
f 53 71 72
f 53 72 73
f 53 73 64
f 54 64 56
f 54 56 55
f 56 74 75
f 56 75 76
f 56 76 77
f 56 77 57
f 56 64 74
f 58 78 60
f 58 60 59
f 60 79 62
f 60 62 61
f 60 78 79
f 62 79 63
f 63 79 80
f 64 73 74
f 65 81 66
f 66 82 90
f 66 90 101
f 66 101 116
f 66 116 132
f 66 132 151
f 66 151 150
f 66 150 149
f 66 149 148
f 66 148 133
f 66 133 118
f 66 118 102
f 66 102 92
f 66 92 85
f 66 85 83
f 66 83 76
f 66 76 75
f 66 75 74
f 66 74 73
f 66 73 72
f 66 72 71
f 66 71 70
f 66 70 69
f 66 69 68
f 66 68 67
f 66 81 82
f 76 83 77
f 77 83 85
f 77 85 84
f 78 86 97
f 78 97 87
f 78 87 79
f 79 88 80
f 79 87 88
f 81 89 90
f 81 90 82
f 84 85 91
f 85 92 93
f 85 93 94
f 85 94 95
f 85 95 91
f 86 96 97
f 87 97 111
f 87 111 98
f 87 98 88
f 88 98 111
f 88 111 99
f 89 100 90
f 90 100 101
f 92 102 103
f 92 103 104
f 92 104 105
f 92 105 106
f 92 106 107
f 92 107 108
f 92 108 93
f 96 109 110
f 96 110 99
f 96 99 97
f 97 99 111
f 99 110 112
f 99 112 113
f 100 114 101
f 101 115 116
f 101 114 117
f 101 117 115
f 102 118 119
f 102 119 120
f 102 120 103
f 109 121 110
f 110 122 112
f 110 121 123
f 110 123 124
f 110 124 122
f 112 122 125
f 112 125 126
f 112 126 127
f 112 127 128
f 112 128 113
f 115 129 130
f 115 130 131
f 115 131 132
f 115 132 116
f 118 133 134
f 118 134 135
f 118 135 136
f 118 136 119
f 119 136 135
f 119 135 134
f 119 134 137
f 121 138 123
f 122 124 125
f 123 138 139
f 123 139 124
f 124 139 140
f 124 140 141
f 124 141 142
f 124 142 143
f 124 143 125
f 125 143 144
f 125 144 126
f 126 145 127
f 126 144 145
f 129 146 130
f 130 146 147
f 130 147 134
f 130 134 131
f 131 133 148
f 131 148 149
f 131 149 150
f 131 150 151
f 131 151 132
f 131 134 133
f 134 140 152
f 134 152 153
f 134 153 137
f 134 147 140
f 137 153 152
f 140 147 141
f 141 147 142
f 142 147 143
f 143 147 144
f 144 147 145
f 145 147 146

