v -0.16739948 -0.12414139 -0.30634779
v -0.07253444 -0.00936235 -0.30719653
v -0.13847922 -0.10460453 -0.30715482
v -0.14580380 -0.11925717 -0.30681042
v -0.15331739 -0.12414139 -0.30655303
v -0.16739948 -0.12414139 -0.27242546
v -0.16739948 -0.12046352 -0.30533555
v 0.05174703 0.17397224 -0.30587124
v 0.04468237 0.15914306 -0.30679999
v 0.05200694 0.16646938 -0.30715133
v -0.05053709 0.01997236 -0.30723134
v -0.13115466 -0.09727821 -0.30699132
v -0.06520986 -0.00203603 -0.30716870
v -0.14010953 -0.11925717 -0.30513031
v -0.14601645 -0.12414139 -0.30571818
v 0.04468237 0.15181674 -0.30701915
v -0.12383008 -0.08995188 -0.30653912
v -0.13788854 -0.11251931 -0.30596516
v -0.16739948 -0.12052236 -0.27334029
v -0.15835008 -0.12414139 -0.27195237
v -0.07253444 -0.00936235 -0.27173673
v 0.05200694 0.16646938 -0.27178193
v 0.04468237 0.15914306 -0.27212630
v 0.05181792 0.17388397 -0.27288115
v -0.16739948 -0.11963967 -0.30509554
v 0.04723416 0.17164782 -0.30480680
v 0.05271577 0.17644377 -0.30550599
v 0.05914250 0.17644377 -0.30670956
v 0.05933152 0.17379571 -0.30708524
v -0.07988264 -0.02401499 -0.30707827
v -0.14164533 -0.12355294 -0.30438243
v -0.14261407 -0.12414139 -0.30457027
v -0.13101289 -0.10457511 -0.30563469
v -0.13335203 -0.11045970 -0.30496681
v 0.05942603 0.16649880 -0.30572166
v 0.04465873 0.14472579 -0.30557905
v -0.03591157 0.03459558 -0.30650083
v -0.07974087 -0.03131189 -0.30576341
v -0.16739948 -0.11737410 -0.27807801
v 0.04737592 0.17150071 -0.27382381
v 0.04073654 0.16320343 -0.27433167
v -0.15067109 -0.12414139 -0.27179933
v -0.05053709 0.01997236 -0.27169847
v 0.04468237 0.15181674 -0.27190717
v 0.05933152 0.17379571 -0.27192457
v 0.05916612 0.17644377 -0.27222022
v 0.05410980 0.17644377 -0.27285680
v 0.05288117 0.17644377 -0.27323249
v -0.16739948 -0.11778602 -0.30021521
v 0.04066566 0.16332112 -0.30426765
v 0.04938427 0.17644377 -0.30023607
v 0.06623080 0.17644377 -0.30555122
v 0.06545108 0.17379571 -0.30530424
v -0.14138543 -0.12414139 -0.30023258
v -0.12673628 -0.10207415 -0.30461550
v -0.12004966 -0.09377688 -0.30402066
v -0.07532250 -0.02889920 -0.30469202
v 0.06386803 0.16897033 -0.30467116
v -0.16739948 -0.11758006 -0.29300427
v 0.04959692 0.17644377 -0.27824848
v 0.04900623 0.17644377 -0.28548374
v 0.04898260 0.17644377 -0.29276774
v 0.04898260 0.17644377 -0.29290338
v 0.04978594 0.17644377 -0.27788671
v -0.14585105 -0.12414139 -0.27297855
v -0.13800667 -0.11237220 -0.27280809
v 0.05933152 0.16664592 -0.27307247
v 0.06240310 0.17644377 -0.27223068
v -0.06509173 -0.00936235 -0.27284983
v 0.04936064 0.17644377 -0.30001345
v 0.06972768 0.17644377 -0.30294931
v -0.14110190 -0.12414139 -0.29311210
v -0.13505322 -0.11531449 -0.30023258
v -0.05379771 0.00099454 -0.30434766
v -0.01731660 0.05254360 -0.30418416
v -0.03224928 0.03091771 -0.30389894
v 0.07178329 0.17644377 -0.29917860
v 0.07372076 0.17644377 -0.29290338
v 0.04893534 0.14734444 -0.30447289
v -0.14426800 -0.12414139 -0.27338901
v 0.04454060 0.14484348 -0.27322551
v 0.05016398 0.15181674 -0.27346902
v 0.06367901 0.16920572 -0.27404297
v 0.06514392 0.17379571 -0.27348642
v 0.06594727 0.17644377 -0.27318377
v -0.12522411 -0.09727821 -0.27341684
v -0.11189811 -0.08033058 -0.27387253
v -0.14103101 -0.12414139 -0.28587682
v 0.07398066 0.17644377 -0.28558463
v -0.14287396 -0.12414139 -0.27403254
v 0.04879358 0.14755041 -0.27419601
v 0.07190143 0.17644377 -0.27775453
v 0.06845179 0.17644377 -0.27448820
v -0.14178710 -0.12340582 -0.27429341
v -0.12016779 -0.09360033 -0.27470041
v -0.01745837 0.05272014 -0.27445343
v -0.14103101 -0.12414139 -0.28558463
v -0.14150356 -0.12414139 -0.27825542
v -0.14147994 -0.12414139 -0.27851633
v -0.14129092 -0.12414139 -0.28128171
v -0.14214151 -0.12414139 -0.27496477
f 1 2 3
f 1 3 4
f 1 4 5
f 1 5 15
f 1 15 32
f 1 32 54
f 1 54 72
f 1 72 88
f 1 88 97
f 1 97 100
f 1 100 99
f 1 99 98
f 1 98 101
f 1 101 90
f 1 90 80
f 1 80 65
f 1 65 42
f 1 42 20
f 1 20 6
f 1 6 19
f 1 19 39
f 1 39 59
f 1 59 49
f 1 49 25
f 1 25 7
f 1 7 8
f 1 8 9
f 1 9 10
f 1 10 2
f 2 10 11
f 2 11 3
f 3 12 4
f 3 11 13
f 3 13 12
f 4 14 15
f 4 15 5
f 4 12 16
f 4 16 17
f 4 17 18
f 4 18 14
f 6 20 21
f 6 21 22
f 6 22 23
f 6 23 24
f 6 24 19
f 7 25 26
f 7 26 8
f 8 26 27
f 8 27 28
f 8 28 10
f 8 10 9
f 10 28 29
f 10 29 11
f 11 29 13
f 12 13 30
f 12 30 16
f 13 29 16
f 13 16 30
f 14 31 32
f 14 32 15
f 14 18 33
f 14 33 34
f 14 34 31
f 16 29 35
f 16 35 36
f 16 36 37
f 16 37 17
f 17 38 33
f 17 33 18
f 17 37 38
f 19 24 40
f 19 40 41
f 19 41 39
f 20 42 21
f 21 42 43
f 21 43 22
f 22 43 44
f 22 44 45
f 22 45 46
f 22 46 47
f 22 47 24
f 22 24 23
f 24 47 48
f 24 48 40
f 25 49 50
f 25 50 26
f 26 50 51
f 26 51 27
f 27 51 70
f 27 70 63
f 27 63 62
f 27 62 61
f 27 61 60
f 27 60 64
f 27 64 48
f 27 48 47
f 27 47 46
f 27 46 68
f 27 68 85
f 27 85 93
f 27 93 92
f 27 92 89
f 27 89 78
f 27 78 77
f 27 77 71
f 27 71 52
f 27 52 28
f 28 52 29
f 29 52 53
f 29 53 35
f 31 54 32
f 31 34 55
f 31 55 56
f 31 56 54
f 33 38 34
f 34 38 36
f 34 36 57
f 34 57 55
f 35 58 36
f 35 53 58
f 36 58 57
f 36 38 37
f 39 41 60
f 39 60 61
f 39 61 62
f 39 62 63
f 39 63 59
f 40 48 64
f 40 64 60
f 40 60 41
f 42 65 66
f 42 66 44
f 42 44 43
f 44 67 68
f 44 68 45
f 44 66 69
f 44 69 67
f 45 68 46
f 49 59 63
f 49 63 70
f 49 70 51
f 49 51 50
f 52 71 53
f 53 71 58
f 54 56 73
f 54 73 72
f 55 57 56
f 56 57 74
f 56 74 75
f 56 75 76
f 56 76 77
f 56 77 78
f 56 78 73
f 57 58 74
f 58 71 77
f 58 77 79
f 58 79 75
f 58 75 74
f 65 80 66
f 66 80 69
f 67 69 81
f 67 81 82
f 67 82 83
f 67 83 84
f 67 84 85
f 67 85 68
f 69 80 86
f 69 86 87
f 69 87 81
f 72 73 78
f 72 78 89
f 72 89 88
f 75 79 76
f 76 79 77
f 80 90 87
f 80 87 86
f 81 87 82
f 82 87 83
f 83 87 91
f 83 91 92
f 83 92 93
f 83 93 84
f 84 93 85
f 87 90 94
f 87 94 95
f 87 95 96
f 87 96 91
f 88 89 97
f 89 92 95
f 89 95 98
f 89 98 99
f 89 99 100
f 89 100 97
f 90 101 94
f 91 96 92
f 92 96 95
f 94 101 95
f 95 101 98

