v 0.12000747 0.17102028 0.00469415
v 0.12000747 0.14347490 0.00469415
v 0.12000747 0.17084840 0.01230268
v 0.22591853 0.09809594 0.03229128
v 0.21701962 0.10431621 0.02217810
v 0.21704299 0.10432695 0.01485327
v 0.21704299 0.10432695 0.00469415
v 0.12000747 0.06126850 0.00600997
v 0.18975065 0.06126850 0.00469415
v 0.12000747 0.17078393 0.01485327
v 0.22011438 0.10203867 0.03229128
v 0.22958555 0.09549610 0.03229128
v 0.22591853 0.09809594 0.00469415
v 0.22070998 0.10175935 0.01485327
v 0.22070998 0.10175935 0.00469415
v 0.12000747 0.06126850 0.02311565
v 0.21830424 0.06126850 0.00469415
v 0.12000747 0.16657263 0.02085687
v 0.12529777 0.16473555 0.01992202
v 0.12938520 0.16316706 0.01894933
v 0.21682108 0.10418729 0.03229128
v 0.22958555 0.09549610 0.02950563
v 0.23459556 0.09183270 0.03229128
v 0.22958555 0.09548536 0.02217810
v 0.22817247 0.09647373 0.00469415
v 0.19591683 0.06126850 0.02311565
v 0.22054648 0.06455590 0.03229128
v 0.21756852 0.06589879 0.03229128
v 0.21579341 0.06685493 0.03229128
v 0.20843603 0.07165710 0.03229128
v 0.20620545 0.07322560 0.03229128
v 0.20037795 0.07739394 0.03229128
v 0.19866125 0.07879054 0.03229128
v 0.19485409 0.08241098 0.03229128
v 0.19394318 0.08536533 0.03229128
v 0.19389647 0.08633222 0.03229128
v 0.12000747 0.14450624 0.02311565
v 0.21909837 0.06178417 0.00469415
v 0.22746010 0.06541535 0.03229128
v 0.21831592 0.06126850 0.00752573
v 0.12000747 0.15917062 0.02279683
v 0.21362124 0.10579876 0.03229128
v 0.21497590 0.10519715 0.03229128
v 0.23599696 0.09048980 0.03229128
v 0.23457221 0.09183270 0.02950563
v 0.22958555 0.09544239 0.00469415
v 0.22958555 0.09545313 0.00752573
v 0.19856781 0.06126850 0.02310484
v 0.20325083 0.06126850 0.02308053
v 0.21109870 0.06126850 0.02241586
v 0.21306065 0.06126850 0.02162691
v 0.19389647 0.08759990 0.03229128
v 0.12000747 0.15183306 0.02309674
v 0.21965893 0.06214944 0.00469415
v 0.22364125 0.06495340 0.00469415
v 0.22553315 0.06633926 0.00469415
v 0.23088185 0.06833748 0.03229128
v 0.21756852 0.06126850 0.01660409
v 0.21796558 0.06126850 0.01485327
v 0.21825754 0.06126850 0.01034110
v 0.22054648 0.06274031 0.00469415
v 0.19409500 0.09095176 0.03229128
v 0.19617375 0.09449699 0.03229128
v 0.19770363 0.09674230 0.03229128
v 0.20013272 0.10006193 0.03229128
v 0.20299391 0.10334933 0.03229128
v 0.20347271 0.10376831 0.03229128
v 0.20625217 0.10590619 0.03229128
v 0.23833265 0.08697680 0.03229128
v 0.23408170 0.09177898 0.00469415
v 0.23450214 0.09182195 0.02217810
v 0.22920017 0.07084063 0.00469415
v 0.23346275 0.07178602 0.03229128
v 0.23929025 0.08380759 0.03229128
v 0.23672101 0.08590249 0.00469415
v 0.23575172 0.08816929 0.00469415
v 0.23082344 0.07308594 0.00469415
v 0.23182779 0.07450403 0.00469415
v 0.23279711 0.07599733 0.00469415
v 0.23446710 0.07857568 0.00469415
v 0.23751514 0.07808150 0.03229128
v 0.23929025 0.08141187 0.03229128
v 0.23537801 0.08140112 0.00469415
v 0.23841439 0.07967148 0.03229128
f 1 2 8
f 1 8 16
f 1 16 37
f 1 37 53
f 1 53 41
f 1 41 18
f 1 18 10
f 1 10 3
f 1 3 4
f 1 4 5
f 1 5 6
f 1 6 7
f 1 7 15
f 1 15 13
f 1 13 25
f 1 25 46
f 1 46 70
f 1 70 76
f 1 76 75
f 1 75 83
f 1 83 80
f 1 80 79
f 1 79 78
f 1 78 77
f 1 77 72
f 1 72 56
f 1 56 55
f 1 55 61
f 1 61 54
f 1 54 38
f 1 38 17
f 1 17 9
f 1 9 2
f 2 9 8
f 3 10 4
f 4 11 21
f 4 21 43
f 4 43 42
f 4 42 68
f 4 68 67
f 4 67 66
f 4 66 65
f 4 65 64
f 4 64 63
f 4 63 62
f 4 62 52
f 4 52 36
f 4 36 35
f 4 35 34
f 4 34 33
f 4 33 32
f 4 32 31
f 4 31 30
f 4 30 29
f 4 29 28
f 4 28 27
f 4 27 39
f 4 39 57
f 4 57 73
f 4 73 81
f 4 81 84
f 4 84 82
f 4 82 74
f 4 74 69
f 4 69 44
f 4 44 23
f 4 23 12
f 4 12 22
f 4 22 13
f 4 13 15
f 4 15 14
f 4 14 6
f 4 6 5
f 4 10 11
f 6 14 15
f 6 15 7
f 8 9 17
f 8 17 40
f 8 40 60
f 8 60 59
f 8 59 58
f 8 58 51
f 8 51 50
f 8 50 49
f 8 49 48
f 8 48 26
f 8 26 16
f 10 18 19
f 10 19 20
f 10 20 21
f 10 21 11
f 12 23 22
f 13 22 24
f 13 24 25
f 16 26 27
f 16 27 28
f 16 28 29
f 16 29 30
f 16 30 31
f 16 31 32
f 16 32 33
f 16 33 34
f 16 34 35
f 16 35 36
f 16 36 52
f 16 52 37
f 17 38 39
f 17 39 40
f 18 41 42
f 18 42 43
f 18 43 19
f 19 43 21
f 19 21 20
f 22 23 24
f 23 44 45
f 23 45 46
f 23 46 47
f 23 47 24
f 24 47 25
f 25 47 46
f 26 48 27
f 27 48 49
f 27 49 50
f 27 50 51
f 27 51 39
f 37 52 53
f 38 54 39
f 39 55 56
f 39 56 57
f 39 51 58
f 39 58 59
f 39 59 60
f 39 60 40
f 39 54 61
f 39 61 55
f 41 53 62
f 41 62 63
f 41 63 64
f 41 64 65
f 41 65 66
f 41 66 67
f 41 67 68
f 41 68 42
f 44 69 70
f 44 70 71
f 44 71 45
f 45 71 46
f 46 71 70
f 52 62 53
f 56 72 57
f 57 72 73
f 69 74 75
f 69 75 76
f 69 76 70
f 72 77 73
f 73 78 79
f 73 79 80
f 73 80 81
f 73 77 78
f 74 82 75
f 75 82 83
f 80 83 82
f 80 82 84
f 80 84 81

