v 0.29799674 0.04618792 0.44414238
v 0.27610106 0.06053901 0.44383326
v 0.27879891 0.05651682 0.44468337
v 0.27917428 0.04926018 0.44658956
v 0.28745553 0.04261058 0.44640926
v 0.29799674 0.04459851 0.44414238
v 0.29799674 0.04618792 0.44233918
v 0.29015339 0.05291167 0.42518302
v 0.29005173 0.05283752 0.43249886
v 0.28638420 0.05549737 0.43249886
v 0.28116833 0.05916275 0.43249886
v 0.28060531 0.05870400 0.43984046
v 0.27492026 0.06053901 0.44383326
v 0.27694561 0.06103484 0.43984046
v 0.26845322 0.06774468 0.39352398
v 0.27183923 0.04926018 0.44658956
v 0.27917428 0.04261058 0.44713054
v 0.28650152 0.04261058 0.44653809
v 0.29483751 0.04261058 0.44481214
v 0.29636238 0.04261058 0.44079358
v 0.29799674 0.04459851 0.44233918
v 0.29011429 0.05286069 0.41052558
v 0.27578827 0.06069193 0.28025726
v 0.26828899 0.06770761 0.22902062
v 0.26842974 0.06786052 0.23468782
v 0.28128566 0.05916275 0.38121070
v 0.28648587 0.05549737 0.42518302
v 0.25621507 0.07678999 0.18399214
v 0.27750082 0.06144262 0.43249886
v 0.28127001 0.05916275 0.41786718
v 0.26873472 0.06792540 0.38121070
v 0.26865652 0.06786979 0.38855230
v 0.26756173 0.05384307 0.44406513
v 0.27222238 0.05640560 0.44463180
v 0.26778852 0.06774468 0.39352398
v 0.27372380 0.06103484 0.43984046
v 0.26882856 0.05981150 0.43463694
v 0.27005629 0.05877814 0.43984046
v 0.24682339 0.08254525 0.25666110
v 0.24647150 0.08235526 0.26400270
v 0.24623691 0.08224405 0.26784094
v 0.26416791 0.04261058 0.44488945
v 0.26486388 0.04261058 0.44509553
v 0.27183923 0.04261058 0.44700172
v 0.26605251 0.04926018 0.44486366
v 0.29636238 0.04261058 0.44040718
v 0.29180339 0.04261058 0.41142718
v 0.29176429 0.04280983 0.41052558
v 0.29108397 0.04406098 0.40320974
v 0.29051311 0.04500629 0.39741374
v 0.27578827 0.05963541 0.28025726
v 0.26852358 0.06795320 0.24202942
v 0.26828899 0.06710520 0.22902062
v 0.26139967 0.06907460 0.18399214
v 0.25986696 0.07273999 0.18399214
v 0.25987480 0.07359725 0.19071550
v 0.25650443 0.07653513 0.18399214
v 0.28128566 0.05916275 0.41052558
v 0.25580063 0.07708192 0.18399214
v 0.25100704 0.08045538 0.18399214
v 0.27241007 0.06539994 0.37389486
v 0.27239442 0.06539994 0.38121070
v 0.26875036 0.06794393 0.37389486
v 0.24253811 0.08640063 0.18399214
v 0.24253811 0.08623845 0.20537294
v 0.24253811 0.08610407 0.21271454
v 0.26663899 0.05511739 0.43984046
v 0.26268214 0.04902385 0.44025262
v 0.26107124 0.04400074 0.44295742
v 0.24617436 0.08224405 0.26784094
v 0.25349376 0.07493644 0.32641918
v 0.26798401 0.06046024 0.42976830
v 0.26598212 0.05705898 0.43231854
v 0.23711892 0.08924583 0.18399214
v 0.23375636 0.08990847 0.18399214
v 0.23349831 0.08995017 0.18399214
v 0.23257557 0.08968604 0.18780462
v 0.26098520 0.04261058 0.44313774
v 0.29164699 0.04261058 0.41052558
v 0.28278707 0.04568283 0.35578558
v 0.27552239 0.05289776 0.29689822
v 0.26824989 0.06013587 0.23803662
v 0.26139967 0.06666035 0.18399214
v 0.25100704 0.08045538 0.20537294
v 0.25621507 0.07678999 0.25666110
v 0.26191579 0.05125274 0.43249886
v 0.26035963 0.04642425 0.43806302
v 0.26047692 0.04261058 0.44130878
v 0.25351721 0.04562723 0.41428654
v 0.23138694 0.08968604 0.18780462
v 0.24615088 0.07495498 0.29718158
v 0.23043290 0.08378249 0.20537294
v 0.26065677 0.06051121 0.40029886
v 0.26016413 0.05389868 0.41786718
v 0.26068806 0.05315726 0.42219486
v 0.26127454 0.05230926 0.42708926
v 0.23099595 0.08995017 0.18399214
v 0.28476548 0.04261058 0.37551774
v 0.28467948 0.04296739 0.37389486
v 0.28390531 0.04405634 0.36655326
v 0.26688141 0.05476985 0.24934526
v 0.25964802 0.06198478 0.19071550
v 0.28289653 0.04261058 0.36655326
v 0.25894421 0.06299960 0.18399214
v 0.25351721 0.04552528 0.41428654
v 0.25483878 0.04261058 0.41730046
v 0.23873763 0.05336578 0.32057166
v 0.23896441 0.06744811 0.28927326
v 0.22448981 0.07450549 0.20789742
v 0.22353577 0.06868535 0.22003038
v 0.22405189 0.06785589 0.22453838
v 0.22728151 0.08589554 0.18399214
v 0.22695307 0.08551556 0.18399214
v 0.22958054 0.08480658 0.19805710
v 0.24439922 0.07151665 0.30004094
v 0.25554258 0.06473266 0.36655326
v 0.23109760 0.08286963 0.21093710
v 0.23167627 0.08204480 0.21583150
v 0.22445852 0.08189187 0.18607870
v 0.28442924 0.04261058 0.37389486
v 0.26114943 0.05249925 0.22961310
v 0.28155935 0.04261058 0.36016478
v 0.27367689 0.04261058 0.32252942
v 0.26063332 0.05322677 0.22471870
v 0.25739589 0.05658632 0.19805710
v 0.25525322 0.05778649 0.18399214
v 0.25313404 0.04471899 0.41052558
v 0.25481533 0.04261058 0.41717166
v 0.23873763 0.05272168 0.32057166
v 0.23403005 0.04261058 0.28708366
v 0.22194051 0.07899108 0.18399214
v 0.22391895 0.07534422 0.20302878
v 0.22333244 0.07619222 0.19805710
v 0.22273813 0.07001064 0.21271454
v 0.21810877 0.07128032 0.18399214
v 0.22405189 0.06704496 0.22453838
v 0.22639002 0.08482975 0.18399214
v 0.22235498 0.07958421 0.18399214
v 0.25370490 0.05269851 0.19367790
v 0.27354395 0.04261058 0.32191118
v 0.26294019 0.04293495 0.27131854
v 0.26094611 0.04546967 0.25261678
v 0.25272741 0.05439914 0.18399214
v 0.23161372 0.04261058 0.27131854
v 0.21835901 0.07180395 0.18399214
v 0.22073624 0.06387076 0.18399214
v 0.25393168 0.04527505 0.22229726
v 0.24893476 0.05050206 0.18399214
v 0.25254756 0.05416744 0.18399214
v 0.26298709 0.04261058 0.27304446
v 0.23201254 0.04261058 0.26400270
v 0.22441161 0.05925543 0.18399214
v 0.24986532 0.04534456 0.22224574
v 0.24253811 0.04913043 0.18399214
v 0.24313240 0.04925554 0.18399214
v 0.25720821 0.04261058 0.25637774
v 0.24938049 0.04261058 0.25161214
v 0.23542982 0.04261058 0.25877342
v 0.23116015 0.05241121 0.18399214
v 0.23599284 0.05087277 0.18399214
f 1 2 3
f 1 3 4
f 1 4 5
f 1 5 6
f 1 6 21
f 1 21 7
f 1 7 8
f 1 8 9
f 1 9 10
f 1 10 11
f 1 11 12
f 1 12 2
f 2 13 16
f 2 16 4
f 2 4 3
f 2 12 14
f 2 14 15
f 2 15 35
f 2 35 13
f 4 16 17
f 4 17 18
f 4 18 5
f 5 18 17
f 5 17 44
f 5 44 43
f 5 43 42
f 5 42 78
f 5 78 88
f 5 88 106
f 5 106 128
f 5 128 130
f 5 130 144
f 5 144 151
f 5 151 158
f 5 158 157
f 5 157 156
f 5 156 150
f 5 150 140
f 5 140 123
f 5 123 122
f 5 122 103
f 5 103 120
f 5 120 98
f 5 98 79
f 5 79 47
f 5 47 46
f 5 46 20
f 5 20 19
f 5 19 6
f 6 19 20
f 6 20 46
f 6 46 21
f 7 22 8
f 7 21 51
f 7 51 23
f 7 23 24
f 7 24 25
f 7 25 22
f 8 26 27
f 8 27 10
f 8 10 9
f 8 22 28
f 8 28 26
f 10 27 11
f 11 29 14
f 11 14 12
f 11 27 30
f 11 30 31
f 11 31 32
f 11 32 29
f 13 33 34
f 13 34 16
f 13 35 36
f 13 36 37
f 13 37 38
f 13 38 33
f 14 29 15
f 15 29 32
f 15 32 39
f 15 39 40
f 15 40 41
f 15 41 70
f 15 70 35
f 16 42 43
f 16 43 44
f 16 44 17
f 16 34 33
f 16 33 45
f 16 45 42
f 21 46 47
f 21 47 48
f 21 48 49
f 21 49 50
f 21 50 51
f 22 25 52
f 22 52 28
f 23 51 53
f 23 53 24
f 24 53 83
f 24 83 54
f 24 54 55
f 24 55 56
f 24 56 57
f 24 57 25
f 25 57 28
f 25 28 52
f 26 58 27
f 26 28 59
f 26 59 60
f 26 60 84
f 26 84 58
f 27 58 30
f 28 57 55
f 28 55 54
f 28 54 83
f 28 83 104
f 28 104 126
f 28 126 143
f 28 143 149
f 28 149 148
f 28 148 155
f 28 155 154
f 28 154 160
f 28 160 159
f 28 159 152
f 28 152 146
f 28 146 135
f 28 135 145
f 28 145 131
f 28 131 138
f 28 138 137
f 28 137 113
f 28 113 112
f 28 112 97
f 28 97 76
f 28 76 75
f 28 75 74
f 28 74 64
f 28 64 60
f 28 60 59
f 30 58 61
f 30 61 62
f 30 62 63
f 30 63 31
f 31 63 64
f 31 64 65
f 31 65 32
f 32 65 66
f 32 66 39
f 33 38 67
f 33 67 68
f 33 68 69
f 33 69 45
f 35 70 71
f 35 71 36
f 36 72 37
f 36 71 72
f 37 67 38
f 37 72 73
f 37 73 67
f 39 66 40
f 40 66 74
f 40 74 41
f 41 74 75
f 41 75 76
f 41 76 77
f 41 77 90
f 41 90 70
f 42 45 78
f 45 69 78
f 47 79 48
f 48 79 49
f 49 79 80
f 49 80 50
f 50 80 81
f 50 81 82
f 50 82 83
f 50 83 51
f 51 83 53
f 55 57 56
f 58 84 61
f 60 64 84
f 61 63 62
f 61 84 85
f 61 85 64
f 61 64 63
f 64 85 84
f 64 74 65
f 65 74 66
f 67 73 86
f 67 86 68
f 68 86 87
f 68 87 69
f 69 88 78
f 69 87 89
f 69 89 88
f 70 90 71
f 71 91 72
f 71 90 92
f 71 92 91
f 72 93 73
f 72 91 93
f 73 94 95
f 73 95 96
f 73 96 86
f 73 93 94
f 76 97 90
f 76 90 77
f 79 98 99
f 79 99 100
f 79 100 80
f 80 100 81
f 81 101 102
f 81 102 82
f 81 100 99
f 81 99 103
f 81 103 101
f 82 102 104
f 82 104 83
f 86 96 89
f 86 89 87
f 88 89 105
f 88 105 106
f 89 107 129
f 89 129 105
f 89 96 95
f 89 95 94
f 89 94 108
f 89 108 109
f 89 109 110
f 89 110 111
f 89 111 107
f 90 97 112
f 90 112 113
f 90 113 114
f 90 114 92
f 91 115 94
f 91 94 116
f 91 116 93
f 91 92 117
f 91 117 118
f 91 118 115
f 92 114 119
f 92 119 117
f 93 116 94
f 94 115 118
f 94 118 119
f 94 119 108
f 98 120 99
f 99 120 103
f 101 121 102
f 101 103 122
f 101 122 123
f 101 123 121
f 102 121 124
f 102 124 125
f 102 125 104
f 104 125 126
f 105 127 128
f 105 128 106
f 105 129 130
f 105 130 127
f 107 111 136
f 107 136 129
f 108 119 109
f 109 119 131
f 109 131 132
f 109 132 110
f 110 132 133
f 110 133 131
f 110 131 134
f 110 134 135
f 110 135 111
f 111 135 136
f 113 137 114
f 114 137 119
f 117 119 118
f 119 137 138
f 119 138 131
f 121 139 125
f 121 125 124
f 121 123 139
f 123 140 141
f 123 141 142
f 123 142 139
f 125 139 126
f 126 139 143
f 127 130 128
f 129 136 144
f 129 144 130
f 131 133 132
f 131 145 134
f 134 145 135
f 135 146 144
f 135 144 136
f 139 142 147
f 139 147 148
f 139 148 149
f 139 149 143
f 140 150 141
f 141 150 147
f 141 147 142
f 144 146 151
f 146 152 151
f 147 153 154
f 147 154 155
f 147 155 148
f 147 150 156
f 147 156 157
f 147 157 153
f 151 152 159
f 151 159 160
f 151 160 154
f 151 154 158
f 153 157 154
f 154 157 158

