v 0.08177862 -0.20643204 0.38855899
v 0.08186539 -0.20643204 0.38958684
v 0.08459000 -0.20295565 0.39417676
v 0.08438175 -0.20266422 0.38855899
v 0.08457264 -0.20295565 0.38454800
v 0.08340991 -0.20643204 0.38414040
v 0.08259427 -0.20643204 0.39625019
v 0.08262897 -0.20643204 0.39645103
v 0.08693282 -0.20024946 0.39632697
v 0.09951459 -0.18134785 0.39290079
v 0.09954930 -0.18136868 0.38479611
v 0.15088297 -0.10817699 0.39254046
v 0.20223398 -0.03502694 0.39152443
v 0.20219928 -0.03498530 0.38663914
v 0.20219928 -0.03498530 0.38487289
v 0.22378787 -0.00505082 0.38453618
v 0.20884591 -0.02674187 0.38437080
v 0.08885913 -0.20024946 0.38380368
v 0.08868558 -0.20643204 0.38272268
v 0.08712370 -0.20643204 0.41796509
v 0.09149695 -0.20235195 0.42519552
v 0.09479426 -0.19317177 0.41013213
v 0.21143172 -0.02303649 0.39588984
v 0.18730939 -0.05663472 0.39345608
v 0.22375317 -0.00507164 0.39437168
v 0.22354492 -0.00473857 0.38855899
v 0.22625218 -0.00107483 0.38855899
v 0.22991390 0.00375466 0.38855899
v 0.23185759 0.00623186 0.38855899
v 0.23053867 0.00279709 0.38427627
v 0.22800493 -0.00238628 0.38377415
v 0.14019279 -0.12707860 0.38382732
v 0.21327124 -0.02418141 0.38362056
v 0.13996718 -0.13392731 0.38263405
v 0.11065597 -0.17789228 0.38232098
v 0.09599169 -0.19987477 0.38225601
v 0.09640820 -0.20643204 0.38296487
v 0.08856411 -0.20643204 0.42482335
v 0.09932370 -0.18840473 0.41576170
v 0.08889383 -0.20643204 0.42627653
v 0.09203494 -0.20312218 0.42990947
v 0.10963207 -0.17860005 0.43187067
v 0.11980163 -0.16429894 0.43252046
v 0.14991113 -0.12145808 0.43252046
v 0.11938513 -0.16269606 0.42524277
v 0.23539782 0.00623186 0.41208740
v 0.23201377 0.00623186 0.39588984
v 0.23548459 0.00623186 0.38355560
v 0.23515487 0.00525347 0.38345518
v 0.22786612 -0.00938071 0.38254545
v 0.21321919 -0.03136319 0.38239186
v 0.23520694 -0.00205321 0.38222056
v 0.10331516 -0.19254727 0.38219102
v 0.09925428 -0.20643204 0.38355560
v 0.10345400 -0.19985394 0.38320706
v 0.22222599 -0.01629186 0.42481153
v 0.09043836 -0.20643204 0.43213057
v 0.09463807 -0.20035355 0.43242004
v 0.09856012 -0.19464976 0.43252046
v 0.10748016 -0.18236788 0.43387911
v 0.11613989 -0.16952395 0.43252046
v 0.11409210 -0.17391628 0.43670867
v 0.18035036 -0.07913762 0.43570442
v 0.13679137 -0.13829883 0.42644783
v 0.20709316 -0.03804537 0.42557949
v 0.23064278 -0.00444714 0.42519552
v 0.23668202 0.00623186 0.41818364
v 0.24253040 0.00623186 0.38229737
v 0.24253040 0.00527428 0.38222645
v 0.13996718 -0.14125480 0.38227373
v 0.16193758 -0.11194482 0.38249228
v 0.10147561 -0.20643204 0.38568217
v 0.10111117 -0.20557856 0.38385685
v 0.10782725 -0.19739757 0.38412268
v 0.24265187 -0.00199076 0.38322478
v 0.22543653 -0.02936478 0.38388049
v 0.09052512 -0.20643204 0.43242004
v 0.09921957 -0.19558651 0.43686226
v 0.09276382 -0.20418385 0.43478883
v 0.12066934 -0.16554795 0.43793737
v 0.15051853 -0.12231157 0.43708082
v 0.20190426 -0.04922396 0.43689769
v 0.21686356 -0.02767863 0.43620655
v 0.21641236 -0.02703331 0.43252046
v 0.23119810 -0.00523817 0.42997444
v 0.22460351 -0.01358569 0.42699720
v 0.23322855 -0.00078339 0.42519552
v 0.23777534 0.00623186 0.42337018
v 0.24959354 0.00623186 0.38378007
v 0.21321919 -0.03869069 0.38247457
v 0.10293337 -0.20643204 0.38844675
v 0.14425367 -0.14583448 0.38425853
v 0.16580756 -0.11587919 0.38467206
v 0.12932908 -0.16740064 0.38449483
v 0.10864289 -0.19856332 0.38855899
v 0.24697307 0.00048643 0.38415811
v 0.24959354 0.00600287 0.38382142
v 0.09064661 -0.20643204 0.43280400
v 0.09201758 -0.20643204 0.43585212
v 0.09781388 -0.19987477 0.43781331
v 0.10341927 -0.19290115 0.43869348
v 0.11268641 -0.17789228 0.43823863
v 0.11813562 -0.17110601 0.43889434
v 0.12504259 -0.16315402 0.43998716
v 0.15466617 -0.11962620 0.43929012
v 0.15713047 -0.11400568 0.43815003
v 0.17205507 -0.09239789 0.43789602
v 0.20851620 -0.04087644 0.43783103
v 0.22351022 -0.01937275 0.43708082
v 0.22934123 -0.00904764 0.43245547
v 0.23781006 0.00310934 0.43041749
v 0.23886866 0.00623186 0.42713898
v 0.23819185 0.00623186 0.42519552
v 0.23689030 0.00439998 0.42519552
v 0.24988857 0.00623186 0.38389821
v 0.10466878 -0.20643204 0.39583077
v 0.15084826 -0.13746615 0.38518007
v 0.21714124 -0.04272914 0.38460707
v 0.16629347 -0.11658695 0.38855899
v 0.15140359 -0.13823637 0.39006533
v 0.25254376 0.00623186 0.38855899
v 0.24777135 -0.00065849 0.38855899
v 0.09566196 -0.20643204 0.43825634
v 0.10331516 -0.19987477 0.44031206
v 0.11797944 -0.17789228 0.44144034
v 0.11020477 -0.18496998 0.43967408
v 0.15461412 -0.12659981 0.44187747
v 0.17634155 -0.08996234 0.43986311
v 0.21288945 -0.03852415 0.43955003
v 0.20599984 -0.04647615 0.43892387
v 0.22054263 -0.03136319 0.44031798
v 0.23026099 -0.01125421 0.43705128
v 0.23277735 -0.00638310 0.43485972
v 0.24251303 0.00623186 0.43151624
v 0.10477292 -0.20643204 0.39632108
v 0.10904203 -0.20031193 0.39614975
v 0.21767921 -0.04347854 0.38855899
v 0.18783001 -0.08669411 0.39098095
v 0.12417489 -0.17855841 0.39538182
v 0.24581034 -0.00515491 0.39407632
v 0.24374519 -0.00875621 0.39626791
v 0.25419240 0.00623186 0.39588984
v 0.09600904 -0.20643204 0.43840993
v 0.11065597 -0.19254727 0.44136355
v 0.10331516 -0.20643204 0.43975087
v 0.12530291 -0.17056479 0.44232642
v 0.17658450 -0.09731065 0.44237959
v 0.19123143 -0.07532816 0.44201924
v 0.20589573 -0.05334568 0.44162938
v 0.19806898 -0.06029847 0.44005805
v 0.22786612 -0.02403570 0.43996355
v 0.21321919 -0.04601818 0.44194246
v 0.23767122 -0.00475939 0.43650191
v 0.24305100 0.00623186 0.43164027
v 0.10928499 -0.20643204 0.41786467
v 0.14473959 -0.15382812 0.41054563
v 0.20417767 -0.06710555 0.40321477
v 0.25558074 0.00602369 0.40321477
v 0.24676482 -0.00652881 0.40321477
v 0.22953211 -0.03094685 0.40289580
v 0.25544190 0.00623186 0.40185612
v 0.11797944 -0.18521977 0.44187157
v 0.10425228 -0.20643204 0.43960910
v 0.13262637 -0.16323729 0.44253318
v 0.16193758 -0.11927232 0.44253908
v 0.19855491 -0.06800067 0.44243274
v 0.22054263 -0.03869069 0.44152304
v 0.23520694 -0.01670820 0.43856352
v 0.24010081 -0.00475939 0.43650191
v 0.20589573 -0.06067317 0.44220236
v 0.24985384 0.00623186 0.43234915
v 0.14149436 -0.16275850 0.42506554
v 0.12899935 -0.18159766 0.42870439
v 0.11981899 -0.19360892 0.42519552
v 0.11065597 -0.20643204 0.42470522
v 0.15617599 -0.14192094 0.42519552
v 0.21561406 -0.05519837 0.41786467
v 0.25681287 0.00623186 0.40841313
v 0.25160662 -0.00167851 0.41006714
v 0.23690765 -0.02491000 0.41786467
v 0.12530291 -0.17789228 0.44146397
v 0.10954531 -0.20643204 0.43789602
v 0.13996718 -0.15590979 0.44190700
v 0.15461412 -0.13392731 0.44217283
v 0.18390797 -0.08998315 0.44248591
v 0.22795289 -0.03829517 0.43830362
v 0.22786612 -0.03136319 0.44003441
v 0.21321919 -0.05334568 0.44119814
v 0.24043053 -0.01670820 0.43706310
v 0.24067348 -0.00938071 0.43680317
v 0.25079098 0.00623186 0.43220738
v 0.19855491 -0.07532816 0.44110362
v 0.17658450 -0.10461733 0.44167073
v 0.13562864 -0.17327095 0.43252046
v 0.20237282 -0.07920008 0.43546223
v 0.11162780 -0.20643204 0.43132719
v 0.12049580 -0.19462894 0.43252046
v 0.20389999 -0.07403752 0.42519552
v 0.25875656 0.00623186 0.41775833
v 0.25853095 0.00583634 0.41800644
v 0.24266924 -0.01670820 0.41786467
v 0.22519356 -0.04374916 0.42519552
v 0.11836123 -0.19281789 0.43901837
v 0.12521614 -0.18486589 0.43869940
v 0.14010602 -0.16307075 0.43916014
v 0.14729065 -0.14858230 0.44086733
v 0.16193758 -0.12659981 0.44132810
v 0.11022212 -0.20643204 0.43674410
v 0.11619196 -0.19856332 0.43758294
v 0.12271713 -0.19056967 0.43750613
v 0.23975372 -0.02218300 0.43685044
v 0.22555800 -0.04414467 0.43759476
v 0.21309770 -0.06021520 0.43867576
v 0.25570223 0.00527428 0.43013984
v 0.25592781 0.00623186 0.43009849
v 0.20619075 -0.06810475 0.43952049
v 0.15489178 -0.14131726 0.43946143
v 0.15095238 -0.15224605 0.43614748
v 0.23767122 -0.02597166 0.42519552
v 0.22590509 -0.04466510 0.43252046
v 0.21722800 -0.05744658 0.43422764
v 0.20237282 -0.07920008 0.43648419
v 0.11180135 -0.20643204 0.43252046
v 0.12945055 -0.18220134 0.43701585
v 0.25887802 0.00623186 0.41835497
v 0.13101243 -0.17789228 0.43826226
v 0.16179875 -0.13342770 0.43859898
v 0.23185759 -0.03558899 0.43656690
v 0.24034377 -0.02295323 0.43252046
v 0.25443535 -0.00003399 0.42969681
v 0.25648315 0.00623186 0.42970861
v 0.21058135 -0.06575246 0.43767154
v 0.21722800 -0.05744658 0.43677956
v 0.18234609 -0.10461733 0.43837450
v 0.15095238 -0.15224605 0.43619473
v 0.25257846 -0.00425979 0.42519552
v 0.23815713 -0.02661697 0.43252046
v 0.15926504 -0.13894414 0.43760655
v 0.13774585 -0.16904516 0.43787238
v 0.25906893 0.00623186 0.42479974
v 0.25490393 -0.00059604 0.42519552
v 0.25887802 0.00623186 0.42531955
f 1 2 3
f 1 3 4
f 1 4 5
f 1 5 6
f 1 6 19
f 1 19 37
f 1 37 54
f 1 54 72
f 1 72 91
f 1 91 116
f 1 116 135
f 1 135 155
f 1 155 175
f 1 175 196
f 1 196 223
f 1 223 208
f 1 208 182
f 1 182 163
f 1 163 145
f 1 145 143
f 1 143 123
f 1 123 99
f 1 99 98
f 1 98 77
f 1 77 57
f 1 57 40
f 1 40 38
f 1 38 20
f 1 20 8
f 1 8 7
f 1 7 2
f 2 7 3
f 3 7 8
f 3 8 9
f 3 9 10
f 3 10 4
f 4 11 5
f 4 10 12
f 4 12 13
f 4 13 14
f 4 14 15
f 4 15 11
f 5 11 15
f 5 15 16
f 5 16 17
f 5 17 6
f 6 18 19
f 6 17 18
f 8 20 9
f 9 20 21
f 9 21 22
f 9 22 23
f 9 23 10
f 10 23 12
f 12 23 24
f 12 24 13
f 13 24 25
f 13 25 26
f 13 26 14
f 14 26 15
f 15 26 16
f 16 26 27
f 16 27 28
f 16 28 29
f 16 29 30
f 16 30 31
f 16 31 17
f 17 31 32
f 17 32 18
f 18 32 31
f 18 31 33
f 18 33 34
f 18 34 19
f 19 35 36
f 19 36 37
f 19 34 35
f 20 38 21
f 21 39 22
f 21 38 40
f 21 40 41
f 21 41 42
f 21 42 43
f 21 43 44
f 21 44 45
f 21 45 39
f 22 39 46
f 22 46 23
f 23 46 47
f 23 47 25
f 23 25 24
f 25 47 26
f 26 47 27
f 27 47 28
f 28 47 29
f 29 47 46
f 29 46 67
f 29 67 88
f 29 88 113
f 29 113 112
f 29 112 134
f 29 134 154
f 29 154 171
f 29 171 191
f 29 191 215
f 29 215 231
f 29 231 242
f 29 242 240
f 29 240 225
f 29 225 199
f 29 199 178
f 29 178 161
f 29 161 142
f 29 142 121
f 29 121 115
f 29 115 89
f 29 89 68
f 29 68 48
f 29 48 30
f 30 48 31
f 31 48 49
f 31 49 50
f 31 50 33
f 33 50 34
f 34 50 35
f 35 50 51
f 35 51 52
f 35 52 36
f 36 53 37
f 36 52 53
f 37 53 55
f 37 55 54
f 39 45 56
f 39 56 46
f 40 57 41
f 41 57 58
f 41 58 59
f 41 59 42
f 42 60 61
f 42 61 43
f 42 59 60
f 43 61 62
f 43 62 63
f 43 63 44
f 44 64 45
f 44 63 56
f 44 56 65
f 44 65 64
f 45 64 65
f 45 65 56
f 46 56 66
f 46 66 67
f 48 68 52
f 48 52 49
f 49 52 50
f 50 52 51
f 52 68 69
f 52 69 53
f 53 70 71
f 53 71 55
f 53 69 70
f 54 55 73
f 54 73 72
f 55 74 73
f 55 71 75
f 55 75 76
f 55 76 74
f 56 63 66
f 57 77 58
f 58 78 59
f 58 77 79
f 58 79 78
f 59 78 62
f 59 62 60
f 60 62 61
f 62 78 80
f 62 80 81
f 62 81 63
f 63 82 83
f 63 83 84
f 63 84 85
f 63 85 86
f 63 86 66
f 63 81 82
f 66 87 88
f 66 88 67
f 66 86 87
f 68 89 69
f 69 89 75
f 69 75 90
f 69 90 71
f 69 71 70
f 71 90 75
f 72 73 74
f 72 74 91
f 74 92 93
f 74 93 94
f 74 94 95
f 74 95 91
f 74 76 96
f 74 96 92
f 75 89 97
f 75 97 96
f 75 96 76
f 77 98 79
f 78 79 99
f 78 99 100
f 78 100 101
f 78 101 102
f 78 102 80
f 79 98 99
f 80 102 103
f 80 103 104
f 80 104 105
f 80 105 106
f 80 106 107
f 80 107 81
f 81 107 82
f 82 107 108
f 82 108 83
f 83 108 109
f 83 109 110
f 83 110 85
f 83 85 84
f 85 110 111
f 85 111 112
f 85 112 113
f 85 113 114
f 85 114 86
f 86 114 87
f 87 114 88
f 88 114 113
f 89 115 97
f 91 95 116
f 92 96 93
f 93 117 94
f 93 96 118
f 93 118 117
f 94 117 95
f 95 117 119
f 95 119 120
f 95 120 116
f 96 97 115
f 96 115 121
f 96 121 122
f 96 122 118
f 99 123 100
f 100 124 101
f 100 123 124
f 101 124 125
f 101 125 126
f 101 126 104
f 101 104 103
f 101 103 102
f 104 126 125
f 104 125 127
f 104 127 128
f 104 128 105
f 105 128 106
f 106 128 107
f 107 128 108
f 108 129 109
f 108 128 130
f 108 130 129
f 109 129 131
f 109 131 132
f 109 132 133
f 109 133 111
f 109 111 110
f 111 134 112
f 111 133 134
f 116 120 136
f 116 136 135
f 117 118 122
f 117 122 137
f 117 137 119
f 119 137 138
f 119 138 120
f 120 139 136
f 120 138 140
f 120 140 141
f 120 141 139
f 121 142 122
f 122 142 140
f 122 140 137
f 123 143 124
f 124 144 125
f 124 143 145
f 124 145 144
f 125 146 127
f 125 144 146
f 127 146 147
f 127 147 148
f 127 148 149
f 127 149 128
f 128 149 150
f 128 150 130
f 129 130 149
f 129 149 131
f 130 150 149
f 131 151 132
f 131 149 152
f 131 152 151
f 132 153 134
f 132 134 133
f 132 151 153
f 134 153 154
f 135 136 155
f 136 156 155
f 136 139 141
f 136 141 157
f 136 157 156
f 137 140 138
f 140 142 141
f 141 142 158
f 141 158 159
f 141 159 160
f 141 160 157
f 142 161 158
f 144 145 162
f 144 162 146
f 145 163 162
f 146 162 164
f 146 164 165
f 146 165 147
f 147 166 148
f 147 165 166
f 148 166 149
f 149 166 152
f 151 152 167
f 151 167 168
f 151 168 169
f 151 169 153
f 152 166 170
f 152 170 167
f 153 169 171
f 153 171 154
f 155 172 173
f 155 173 174
f 155 174 175
f 155 156 176
f 155 176 172
f 156 157 177
f 156 177 176
f 157 160 177
f 158 161 178
f 158 178 179
f 158 179 159
f 159 179 180
f 159 180 160
f 160 180 177
f 162 181 164
f 162 163 182
f 162 182 181
f 164 181 183
f 164 183 184
f 164 184 170
f 164 170 185
f 164 185 165
f 165 185 166
f 166 185 170
f 167 186 187
f 167 187 168
f 167 170 188
f 167 188 186
f 168 187 189
f 168 189 190
f 168 190 169
f 169 190 191
f 169 191 171
f 170 192 188
f 170 184 183
f 170 183 193
f 170 193 192
f 172 176 173
f 173 194 175
f 173 175 174
f 173 176 195
f 173 195 194
f 175 194 197
f 175 197 196
f 176 177 198
f 176 198 195
f 177 180 202
f 177 202 198
f 178 199 200
f 178 200 179
f 179 200 201
f 179 201 180
f 180 201 202
f 181 182 203
f 181 203 204
f 181 204 205
f 181 205 206
f 181 206 207
f 181 207 183
f 182 208 209
f 182 209 210
f 182 210 204
f 182 204 203
f 183 207 192
f 183 192 193
f 186 211 187
f 186 188 212
f 186 212 211
f 187 211 189
f 188 192 213
f 188 213 212
f 189 211 214
f 189 214 215
f 189 215 190
f 190 215 191
f 192 216 213
f 192 207 206
f 192 206 205
f 192 205 217
f 192 217 216
f 194 218 197
f 194 195 218
f 195 198 202
f 195 202 219
f 195 219 220
f 195 220 221
f 195 221 233
f 195 233 222
f 195 222 235
f 195 235 218
f 196 197 223
f 197 218 224
f 197 224 223
f 199 225 200
f 200 225 219
f 200 219 202
f 200 202 201
f 204 226 205
f 204 210 226
f 205 226 227
f 205 227 213
f 205 213 217
f 208 223 210
f 208 210 209
f 210 223 224
f 210 224 226
f 211 212 228
f 211 228 229
f 211 229 230
f 211 230 231
f 211 231 214
f 212 213 232
f 212 232 233
f 212 233 228
f 213 216 217
f 213 227 234
f 213 234 232
f 214 231 215
f 218 235 224
f 219 225 220
f 220 233 221
f 220 225 236
f 220 236 237
f 220 237 233
f 222 233 232
f 222 232 238
f 222 238 224
f 222 224 235
f 224 238 239
f 224 239 226
f 225 240 241
f 225 241 236
f 226 239 238
f 226 238 234
f 226 234 227
f 228 237 229
f 228 233 237
f 229 237 240
f 229 240 230
f 230 240 242
f 230 242 231
f 232 234 238
f 236 241 237
f 237 241 240

