v -0.30779794 -0.02246002 -0.28558140
v -0.30779794 -0.02247142 -0.28775415
v -0.30779794 -0.02338429 -0.27825325
v -0.16739949 -0.11740952 -0.27807720
v -0.30779794 -0.02255130 -0.29496963
v -0.30779794 -0.02405753 -0.27712287
v -0.17160525 -0.11573213 -0.27539384
v -0.16739949 -0.12053609 -0.27334082
v -0.16739949 -0.11759209 -0.29300817
v -0.30779794 -0.02348699 -0.30099485
v -0.16739949 -0.11779749 -0.30021660
v -0.17139908 -0.11554955 -0.30396343
v -0.30779794 -0.02910112 -0.27185125
v -0.18530836 -0.10780160 -0.27410851
v -0.16739949 -0.12659524 -0.27178083
v -0.30779794 -0.02579197 -0.30519947
v -0.16739949 -0.11965745 -0.30509734
v -0.30779794 -0.03869762 -0.27163644
v -0.24840864 -0.07531498 -0.27166812
v -0.18247703 -0.11926949 -0.27185125
v -0.16781181 -0.12659524 -0.27179842
v -0.16739949 -0.13410357 -0.27286542
v -0.24108289 -0.08262932 -0.27175968
v -0.30779794 -0.02895277 -0.30657987
v -0.16739949 -0.12046762 -0.30533678
v -0.30779794 -0.04550989 -0.27331265
v -0.30669838 -0.04595491 -0.27321406
v -0.16789427 -0.13411497 -0.27295348
v -0.16739949 -0.13498220 -0.27314713
v -0.30779794 -0.03767065 -0.30761166
v -0.16739949 -0.12659524 -0.30702709
v -0.30779794 -0.04829413 -0.27825325
v -0.30403197 -0.05009704 -0.27419302
v -0.22365507 -0.10150283 -0.27410497
v -0.20995197 -0.10935348 -0.27374580
v -0.18775486 -0.12379959 -0.27384792
v -0.17513755 -0.13159319 -0.27374580
v -0.17912341 -0.13049775 -0.27435500
v -0.16739949 -0.13846250 -0.27825325
v -0.24108289 -0.08262932 -0.30717851
v -0.25573436 -0.07531498 -0.30668904
v -0.29970251 -0.04601197 -0.30687567
v -0.30779794 -0.04522462 -0.30581220
v -0.18247703 -0.11926949 -0.30716443
v -0.16739949 -0.12700603 -0.30703414
v -0.30779794 -0.04870492 -0.28558140
v -0.30459550 -0.05046218 -0.27825325
v -0.25947283 -0.07903490 -0.27453461
v -0.17956323 -0.13077161 -0.27825325
v -0.16739949 -0.13901022 -0.28558140
v -0.17513755 -0.12659524 -0.30669255
v -0.16803172 -0.13424049 -0.30579810
v -0.30419691 -0.05021115 -0.30444939
v -0.30779794 -0.04569246 -0.30548469
v -0.16739949 -0.13477680 -0.30575584
v -0.18205095 -0.12650395 -0.30539666
v -0.17513755 -0.13186703 -0.30504451
v -0.22391621 -0.10167398 -0.30458673
v -0.16739949 -0.13421767 -0.30591079
v -0.30779794 -0.04868210 -0.29290605
v -0.30484290 -0.05062194 -0.28558140
v -0.25980268 -0.07925171 -0.27825325
v -0.28613684 -0.06267178 -0.28558140
v -0.23759183 -0.09373205 -0.28087322
v -0.17054694 -0.13699050 -0.28558140
v -0.16739949 -0.13902163 -0.29186016
v -0.25972021 -0.07921748 -0.30416063
v -0.30779794 -0.04840824 -0.30078001
v -0.16739949 -0.13541581 -0.30551991
v -0.17932957 -0.13064608 -0.30432260
v -0.30779794 -0.04865927 -0.29417730
v -0.29182700 -0.05899749 -0.29290605
v -0.21168375 -0.11057444 -0.29290605
v -0.26009133 -0.07942287 -0.28558140
v -0.22468590 -0.10218748 -0.28558140
v -0.17992058 -0.13098842 -0.29290605
v -0.16739949 -0.13901022 -0.29290605
v -0.25996762 -0.07938864 -0.30023421
v -0.30467796 -0.05050783 -0.30023421
v -0.30779794 -0.04848811 -0.30023421
v -0.17975564 -0.13090853 -0.30023421
v -0.16739949 -0.13791479 -0.30312884
v -0.16739949 -0.13871353 -0.30023421
v -0.16739949 -0.13878201 -0.29886788
f 1 2 5
f 1 5 10
f 1 10 16
f 1 16 24
f 1 24 30
f 1 30 43
f 1 43 54
f 1 54 68
f 1 68 80
f 1 80 71
f 1 71 60
f 1 60 46
f 1 46 32
f 1 32 26
f 1 26 18
f 1 18 13
f 1 13 6
f 1 6 3
f 1 3 4
f 1 4 2
f 2 4 5
f 3 6 7
f 3 7 4
f 4 7 8
f 4 8 15
f 4 15 22
f 4 22 29
f 4 29 39
f 4 39 50
f 4 50 66
f 4 66 77
f 4 77 84
f 4 84 83
f 4 83 82
f 4 82 69
f 4 69 55
f 4 55 59
f 4 59 45
f 4 45 31
f 4 31 25
f 4 25 17
f 4 17 11
f 4 11 9
f 4 9 5
f 5 9 11
f 5 11 12
f 5 12 10
f 6 13 14
f 6 14 7
f 7 14 8
f 8 14 13
f 8 13 15
f 10 12 16
f 11 17 12
f 12 17 16
f 13 18 19
f 13 19 15
f 15 20 21
f 15 21 22
f 15 19 23
f 15 23 20
f 16 17 24
f 17 25 24
f 18 26 27
f 18 27 23
f 18 23 19
f 20 22 21
f 20 23 22
f 22 28 29
f 22 23 27
f 22 27 28
f 24 25 31
f 24 31 30
f 26 32 33
f 26 33 34
f 26 34 35
f 26 35 27
f 27 35 29
f 27 29 28
f 29 35 36
f 29 36 37
f 29 37 38
f 29 38 39
f 30 40 41
f 30 41 42
f 30 42 43
f 30 31 44
f 30 44 40
f 31 45 44
f 32 46 47
f 32 47 33
f 33 47 48
f 33 48 38
f 33 38 34
f 34 38 36
f 34 36 35
f 36 38 37
f 38 49 39
f 38 48 49
f 39 49 50
f 40 44 51
f 40 51 41
f 41 43 42
f 41 51 52
f 41 52 43
f 43 53 54
f 43 52 55
f 43 55 56
f 43 56 57
f 43 57 58
f 43 58 53
f 44 45 51
f 45 59 51
f 46 60 61
f 46 61 47
f 47 62 48
f 47 61 63
f 47 63 64
f 47 64 62
f 48 62 49
f 49 64 50
f 49 62 64
f 50 64 65
f 50 65 66
f 51 59 52
f 52 59 55
f 53 67 68
f 53 68 54
f 53 58 67
f 55 69 57
f 55 57 56
f 57 69 70
f 57 70 58
f 58 70 67
f 60 71 72
f 60 72 61
f 61 72 63
f 63 73 74
f 63 74 64
f 63 72 73
f 64 75 65
f 64 74 75
f 65 76 66
f 65 75 73
f 65 73 76
f 66 76 77
f 67 78 79
f 67 79 80
f 67 80 68
f 67 70 81
f 67 81 78
f 69 82 70
f 70 82 83
f 70 83 81
f 71 80 79
f 71 79 78
f 71 78 72
f 72 78 73
f 73 75 74
f 73 78 76
f 76 81 77
f 76 78 81
f 77 81 84
f 81 83 84

