v -0.07084944 0.32037739 -0.32148712
v -0.07364154 0.32634509 -0.32222848
v -0.07336198 0.32574797 -0.32148712
v -0.07105306 0.31964380 -0.32148712
v -0.07087014 0.32037739 -0.32954938
v -0.07379685 0.32616765 -0.42480197
v -0.07802124 0.33000967 -0.32148712
v -0.07407640 0.32671019 -0.32148712
v -0.07364154 0.32634509 -0.32148712
v -0.07299269 0.31305167 -0.32148712
v -0.07117386 0.32037739 -0.42480197
v -0.07155695 0.32037739 -0.43212284
v -0.07409366 0.32592882 -0.43212284
v -0.07834911 0.32983223 -0.42480197
v -0.07802469 0.33000967 -0.32222848
v -0.08175555 0.33261305 -0.34420273
v -0.08168651 0.33263011 -0.32148712
v -0.07327224 0.31261493 -0.32148712
v -0.07311004 0.31305167 -0.35153518
v -0.07339994 0.31305167 -0.42480197
v -0.07350003 0.31305167 -0.43212284
v -0.07490471 0.31305167 -0.43690692
v -0.07409366 0.32037739 -0.43745136
v -0.07502551 0.32511333 -0.43665204
v -0.08295314 0.33171570 -0.43620031
v -0.07867698 0.32958996 -0.43212284
v -0.08234226 0.33209785 -0.43212284
v -0.08201439 0.33231963 -0.42480197
v -0.08186598 0.33254141 -0.38083030
v -0.08184527 0.33255847 -0.37352101
v -0.08180041 0.33258918 -0.35886766
v -0.08177625 0.33260283 -0.35153518
v -0.08720515 0.33563958 -0.34420273
v -0.08720515 0.33570441 -0.32148712
v -0.07578479 0.30877635 -0.32148712
v -0.07604019 0.30915510 -0.43212284
v -0.07610577 0.30924381 -0.43594549
v -0.08022662 0.30637085 -0.43711541
v -0.07987803 0.31305167 -0.43892249
v -0.07987803 0.32037739 -0.43946693
v -0.08025768 0.32761438 -0.43735865
v -0.08720515 0.33278024 -0.43710382
v -0.08720515 0.33442147 -0.43212284
v -0.08720515 0.33470124 -0.42480197
v -0.08720515 0.33554063 -0.36618853
v -0.08720515 0.33558497 -0.35886766
v -0.08720515 0.33561568 -0.35153518
v -0.09437350 0.33436686 -0.35886766
v -0.09442527 0.33441122 -0.33688183
v -0.09446323 0.33444193 -0.32148712
v -0.07834221 0.30547690 -0.32148712
v -0.07856654 0.30527215 -0.35886766
v -0.07858035 0.30529265 -0.36618853
v -0.07862866 0.30535748 -0.38816278
v -0.07868044 0.30542228 -0.41014862
v -0.07869769 0.30544618 -0.41746949
v -0.07872185 0.30546665 -0.42480197
v -0.07882539 0.30549055 -0.43212284
v -0.08249067 0.30111968 -0.43212284
v -0.08290137 0.30148819 -0.43651305
v -0.08720515 0.31305167 -0.43982600
v -0.08720515 0.32037739 -0.43982600
v -0.08720515 0.32770309 -0.43911939
v -0.09285837 0.33290310 -0.43713857
v -0.09390067 0.33369468 -0.43212284
v -0.09435624 0.33433617 -0.36618853
v -0.09802153 0.33113564 -0.36618853
v -0.09810781 0.33125165 -0.32954938
v -0.09812506 0.33127212 -0.32222848
v -0.09812506 0.33127552 -0.32148712
v -0.07863557 0.30511180 -0.32148712
v -0.08222837 0.30085013 -0.35886766
v -0.08227669 0.30090131 -0.38083030
v -0.08235952 0.30099002 -0.41746949
v -0.08238368 0.30101732 -0.42480197
v -0.08576941 0.30111968 -0.43212284
v -0.08490313 0.30148819 -0.43651305
v -0.08728798 0.30533699 -0.43783359
v -0.09453226 0.31305167 -0.43921206
v -0.09453226 0.32037739 -0.43964067
v -0.09499473 0.32807843 -0.43806525
v -0.09933302 0.32588788 -0.43689533
v -0.09756250 0.33057264 -0.43212284
v -0.09762808 0.33068525 -0.42480197
v -0.10060655 0.32747109 -0.36618853
v -0.10062380 0.32749496 -0.35886766
v -0.10047540 0.32702070 -0.42480197
v -0.09838391 0.33091043 -0.32148712
v -0.08230085 0.30108216 -0.32148712
v -0.08224563 0.30087741 -0.35153518
v -0.08623533 0.30085013 -0.35886766
v -0.08226288 0.30088425 -0.37352101
v -0.08229394 0.30091837 -0.38816278
v -0.08602480 0.30099002 -0.41746949
v -0.08232846 0.30095249 -0.40281614
v -0.08597994 0.30101732 -0.42480197
v -0.08942779 0.30276429 -0.43212284
v -0.08964177 0.30260053 -0.42480197
v -0.09886364 0.30892989 -0.43632772
v -0.09453226 0.30764354 -0.43719649
v -0.10152804 0.31348160 -0.43715016
v -0.10577660 0.31621124 -0.43617715
v -0.10180760 0.31992016 -0.43749769
v -0.10577660 0.31717686 -0.43617715
v -0.10018549 0.32690809 -0.43212284
v -0.10432015 0.32166034 -0.34420273
v -0.10436846 0.32175245 -0.32222848
v -0.10414068 0.32132252 -0.42480197
v -0.10070664 0.32761097 -0.32148712
v -0.08679444 0.30108216 -0.32148712
v -0.08659081 0.30087741 -0.35153518
v -0.08625949 0.30086719 -0.36618853
v -0.08622498 0.30088425 -0.37352101
v -0.08609037 0.30095249 -0.40281614
v -0.09050459 0.30218426 -0.34420273
v -0.09453226 0.30566115 -0.43212284
v -0.09453226 0.30540523 -0.42480197
v -0.09929851 0.30862281 -0.43212284
v -0.10296378 0.31228055 -0.43212284
v -0.10591119 0.31594169 -0.43212284
v -0.10591119 0.31752831 -0.43212284
v -0.10384731 0.32118945 -0.43212284
v -0.10592500 0.31766478 -0.42480197
v -0.10608031 0.31803329 -0.33688183
v -0.10610447 0.31809471 -0.32222848
v -0.10436846 0.32175585 -0.32148712
v -0.09045627 0.30219448 -0.32148712
v -0.08615941 0.30091837 -0.38816278
v -0.08619392 0.30090131 -0.38083030
v -0.09453226 0.30478083 -0.32148712
v -0.09453226 0.30481835 -0.34420273
v -0.09941239 0.30853411 -0.42480197
v -0.10307423 0.31224984 -0.42480197
v -0.10592500 0.31591441 -0.42480197
v -0.10309839 0.31222596 -0.41746949
v -0.10339174 0.31188818 -0.32148712
v -0.10608031 0.31560731 -0.33688183
v -0.10610447 0.31555613 -0.32222848
v -0.10610447 0.31809812 -0.32148712
v -0.09920532 0.30795746 -0.32148712
v -0.09972647 0.30831233 -0.32148712
v -0.09972302 0.30831233 -0.32222848
v -0.09968160 0.30834302 -0.33688183
v -0.09945727 0.30849999 -0.41014862
v -0.10601473 0.31573357 -0.37352101
v -0.10009230 0.30866718 -0.32148712
v -0.10583527 0.31518763 -0.32148712
v -0.10606651 0.31563121 -0.34420273
v -0.10610447 0.31555273 -0.32148712
f 1 2 3
f 1 3 9
f 1 9 8
f 1 8 7
f 1 7 17
f 1 17 34
f 1 34 50
f 1 50 70
f 1 70 88
f 1 88 109
f 1 109 126
f 1 126 139
f 1 139 149
f 1 149 147
f 1 147 136
f 1 136 146
f 1 146 141
f 1 141 140
f 1 140 130
f 1 130 127
f 1 127 110
f 1 110 89
f 1 89 71
f 1 71 51
f 1 51 35
f 1 35 18
f 1 18 10
f 1 10 4
f 1 4 5
f 1 5 6
f 1 6 2
f 2 7 8
f 2 8 9
f 2 9 3
f 2 6 7
f 4 10 11
f 4 11 5
f 5 11 6
f 6 11 12
f 6 12 13
f 6 13 14
f 6 14 15
f 6 15 7
f 7 15 16
f 7 16 17
f 10 18 19
f 10 19 11
f 11 20 21
f 11 21 12
f 11 19 20
f 12 21 22
f 12 22 23
f 12 23 24
f 12 24 13
f 13 24 25
f 13 25 26
f 13 26 14
f 14 26 27
f 14 27 28
f 14 28 29
f 14 29 30
f 14 30 31
f 14 31 32
f 14 32 15
f 15 32 16
f 16 32 33
f 16 33 34
f 16 34 17
f 18 35 20
f 18 20 19
f 20 36 21
f 20 35 36
f 21 36 37
f 21 37 22
f 22 38 39
f 22 39 23
f 22 37 38
f 23 39 40
f 23 40 24
f 24 40 41
f 24 41 25
f 25 41 42
f 25 42 43
f 25 43 27
f 25 27 26
f 27 43 28
f 28 43 44
f 28 44 45
f 28 45 29
f 29 45 46
f 29 46 47
f 29 47 30
f 30 47 31
f 31 47 32
f 32 47 33
f 33 47 48
f 33 48 34
f 34 49 50
f 34 48 49
f 35 51 52
f 35 52 53
f 35 53 54
f 35 54 55
f 35 55 56
f 35 56 36
f 36 56 57
f 36 57 58
f 36 58 37
f 37 58 59
f 37 59 60
f 37 60 38
f 38 60 39
f 39 61 40
f 39 60 61
f 40 61 62
f 40 62 63
f 40 63 41
f 41 63 42
f 42 64 43
f 42 63 64
f 43 64 65
f 43 65 44
f 44 65 45
f 45 66 46
f 45 65 66
f 46 66 48
f 46 48 47
f 48 66 67
f 48 67 68
f 48 68 69
f 48 69 70
f 48 70 50
f 48 50 49
f 51 71 52
f 52 72 73
f 52 73 53
f 52 71 72
f 53 73 74
f 53 74 54
f 54 74 55
f 55 74 56
f 56 74 57
f 57 74 75
f 57 75 58
f 58 75 59
f 59 76 77
f 59 77 60
f 59 75 96
f 59 96 76
f 60 77 78
f 60 78 61
f 61 78 79
f 61 79 80
f 61 80 62
f 62 80 63
f 63 80 81
f 63 81 64
f 64 81 82
f 64 82 83
f 64 83 65
f 65 83 84
f 65 84 66
f 66 84 67
f 67 85 86
f 67 86 68
f 67 84 87
f 67 87 85
f 68 88 69
f 68 86 88
f 69 88 70
f 71 89 90
f 71 90 72
f 72 90 111
f 72 111 91
f 72 91 113
f 72 113 92
f 72 92 95
f 72 95 93
f 72 93 73
f 73 93 74
f 74 94 96
f 74 96 75
f 74 93 95
f 74 95 114
f 74 114 94
f 76 97 77
f 76 96 98
f 76 98 97
f 77 97 99
f 77 99 100
f 77 100 78
f 78 100 79
f 79 100 99
f 79 99 101
f 79 101 102
f 79 102 80
f 80 102 103
f 80 103 81
f 81 103 82
f 82 103 104
f 82 104 105
f 82 105 83
f 83 105 87
f 83 87 84
f 85 106 107
f 85 107 86
f 85 87 108
f 85 108 106
f 86 107 109
f 86 109 88
f 87 105 108
f 89 110 111
f 89 111 90
f 91 112 113
f 91 111 112
f 92 113 114
f 92 114 95
f 94 114 111
f 94 111 115
f 94 115 96
f 96 115 98
f 97 116 99
f 97 98 116
f 98 117 116
f 98 115 117
f 99 102 101
f 99 116 118
f 99 118 119
f 99 119 102
f 102 119 120
f 102 120 121
f 102 121 104
f 102 104 103
f 104 121 122
f 104 122 105
f 105 122 108
f 106 108 123
f 106 123 107
f 107 124 125
f 107 125 139
f 107 139 126
f 107 126 109
f 107 123 124
f 108 122 121
f 108 121 123
f 110 127 111
f 111 127 115
f 111 114 128
f 111 128 129
f 111 129 112
f 112 129 128
f 112 128 113
f 113 128 114
f 115 127 130
f 115 130 131
f 115 131 132
f 115 132 117
f 116 117 118
f 117 132 118
f 118 132 119
f 119 132 133
f 119 133 120
f 120 134 123
f 120 123 121
f 120 133 135
f 120 135 136
f 120 136 134
f 123 134 137
f 123 137 124
f 124 137 138
f 124 138 125
f 125 138 149
f 125 149 139
f 130 140 131
f 131 140 141
f 131 141 142
f 131 142 143
f 131 143 144
f 131 144 132
f 132 144 136
f 132 136 133
f 133 136 135
f 134 136 145
f 134 145 137
f 136 143 146
f 136 147 137
f 136 137 148
f 136 148 145
f 136 144 143
f 137 147 138
f 137 145 148
f 138 147 149
f 141 146 142
f 142 146 143

