v 0.29636322 0.04261058 0.44080228
v 0.29483715 0.04261058 0.44481801
v 0.29020084 0.03088880 0.44354920
v 0.29636322 0.04261058 0.44040988
v 0.29128119 0.03460370 0.44434715
v 0.28745878 0.04261058 0.44640077
v 0.28649953 0.04192999 0.44668856
v 0.29396511 0.04206327 0.44498809
v 0.28749269 0.02812531 0.44072382
v 0.29020084 0.03088880 0.44330069
v 0.28643656 0.02812531 0.44441251
v 0.29186738 0.03418825 0.44044911
v 0.29184802 0.03585854 0.43252229
v 0.29365992 0.04192999 0.42518410
v 0.29180926 0.04261058 0.41143641
v 0.28649953 0.03460370 0.44583830
v 0.28624277 0.02812531 0.44449102
v 0.28634934 0.02812531 0.44445177
v 0.28650438 0.04261058 0.44653159
v 0.27916959 0.04261058 0.44712022
v 0.27916959 0.04192999 0.44718563
v 0.27916959 0.03460370 0.44646618
v 0.28749269 0.02812531 0.44067149
v 0.28730375 0.02812531 0.43961198
v 0.28978420 0.03146872 0.43840854
v 0.28925614 0.03219610 0.43252229
v 0.29113586 0.03686667 0.42518410
v 0.29165423 0.04261058 0.41053386
v 0.27919383 0.02812531 0.44509270
v 0.27184450 0.04261058 0.44701555
v 0.27184450 0.04192999 0.44705481
v 0.28712448 0.02812531 0.43867015
v 0.28336988 0.03024507 0.41053386
v 0.28293873 0.03079947 0.40640039
v 0.28849552 0.03320423 0.42518410
v 0.29056418 0.03769614 0.41961176
v 0.29005066 0.03844621 0.41473272
v 0.28476999 0.04261058 0.37554332
v 0.27139395 0.03410460 0.44527582
v 0.27712517 0.02812531 0.44467415
v 0.26487308 0.04261058 0.44510580
v 0.26391867 0.04170454 0.44489653
v 0.26077451 0.03816121 0.44358845
v 0.26451941 0.03664831 0.44430790
v 0.28529806 0.02812531 0.42967074
v 0.27595276 0.03047903 0.37546483
v 0.26874876 0.03759263 0.31695543
v 0.27567661 0.03804778 0.34747241
v 0.27384049 0.04063970 0.32994445
v 0.27346261 0.04236528 0.32234465
v 0.28129640 0.04261058 0.35891792
v 0.28422256 0.04261058 0.37290105
v 0.27352558 0.02966232 0.44429479
v 0.25826497 0.02812531 0.42986694
v 0.26417543 0.04261058 0.44489653
v 0.26077451 0.03911120 0.44358845
v 0.25327500 0.02812531 0.42217558
v 0.25463635 0.02812531 0.42518410
v 0.25493187 0.02812531 0.42577273
v 0.27646628 0.02812531 0.39588360
v 0.27733347 0.02927381 0.38854541
v 0.27654865 0.02991045 0.38122029
v 0.27410210 0.02812531 0.38854541
v 0.26824494 0.03091574 0.35526844
v 0.26941250 0.03688510 0.32261933
v 0.27153443 0.04245035 0.31356759
v 0.26479071 0.03678301 0.31356759
v 0.26817227 0.03817255 0.31356759
v 0.27086103 0.04155282 0.31356759
v 0.27354497 0.04261058 0.32192607
v 0.26279957 0.04261058 0.44413782
v 0.26099251 0.04261058 0.44313064
v 0.25176831 0.02812531 0.41762352
v 0.27184450 0.02812531 0.38498749
v 0.26638943 0.02812531 0.38136419
v 0.26504263 0.02812531 0.38088020
v 0.26813836 0.03091574 0.35526844
v 0.26451941 0.03547429 0.32261933
v 0.27164586 0.04261058 0.31356759
v 0.26394773 0.03678301 0.31356759
v 0.26048381 0.04261058 0.44131245
v 0.25483983 0.04261058 0.41730958
v 0.25481074 0.04261058 0.41717879
v 0.25047481 0.02812531 0.41143641
v 0.25717492 0.02812531 0.38191356
v 0.25009693 0.02812531 0.38365329
v 0.25874461 0.03689219 0.31356759
v 0.24963183 0.04261058 0.31356759
v 0.25305699 0.04261058 0.40523621
v 0.24738877 0.02812531 0.39588360
v 0.24886639 0.02812531 0.40353574
v 0.24920067 0.02812531 0.40521006
v 0.24687522 0.02812531 0.38854541
v 0.25382246 0.03980739 0.31356759
v 0.25041666 0.04261058 0.36064455
v 0.25277117 0.04261058 0.40320872
v 0.25244171 0.04261058 0.40074960
v 0.25151640 0.04261058 0.38854541
v 0.25072672 0.04261058 0.37630199
v 0.25054263 0.04261058 0.36738104
f 1 2 3
f 1 3 10
f 1 10 4
f 1 4 15
f 1 15 28
f 1 28 38
f 1 38 52
f 1 52 51
f 1 51 70
f 1 70 79
f 1 79 88
f 1 88 95
f 1 95 100
f 1 100 99
f 1 99 98
f 1 98 97
f 1 97 96
f 1 96 89
f 1 89 83
f 1 83 82
f 1 82 81
f 1 81 72
f 1 72 71
f 1 71 55
f 1 55 41
f 1 41 30
f 1 30 20
f 1 20 19
f 1 19 6
f 1 6 2
f 2 5 3
f 2 6 7
f 2 7 8
f 2 8 5
f 3 9 23
f 3 23 10
f 3 5 11
f 3 11 9
f 4 10 12
f 4 12 13
f 4 13 14
f 4 14 15
f 5 8 16
f 5 16 17
f 5 17 18
f 5 18 11
f 6 19 7
f 7 19 20
f 7 20 21
f 7 21 22
f 7 22 16
f 7 16 8
f 9 11 18
f 9 18 17
f 9 17 29
f 9 29 40
f 9 40 54
f 9 54 59
f 9 59 58
f 9 58 57
f 9 57 73
f 9 73 84
f 9 84 92
f 9 92 91
f 9 91 90
f 9 90 93
f 9 93 86
f 9 86 85
f 9 85 76
f 9 76 75
f 9 75 74
f 9 74 63
f 9 63 60
f 9 60 45
f 9 45 32
f 9 32 24
f 9 24 23
f 10 23 24
f 10 24 25
f 10 25 13
f 10 13 12
f 13 25 26
f 13 26 27
f 13 27 15
f 13 15 14
f 15 27 28
f 16 22 17
f 17 22 29
f 20 30 21
f 21 30 31
f 21 31 22
f 22 31 29
f 24 32 26
f 24 26 25
f 26 32 33
f 26 33 34
f 26 34 35
f 26 35 27
f 27 35 34
f 27 34 36
f 27 36 28
f 28 36 37
f 28 37 38
f 29 31 39
f 29 39 40
f 30 41 31
f 31 41 42
f 31 42 43
f 31 43 44
f 31 44 39
f 32 45 33
f 33 45 46
f 33 46 34
f 34 46 47
f 34 47 48
f 34 48 49
f 34 49 50
f 34 50 36
f 36 50 51
f 36 51 52
f 36 52 38
f 36 38 37
f 39 44 53
f 39 53 40
f 40 53 54
f 41 55 42
f 42 55 56
f 42 56 43
f 43 53 44
f 43 56 57
f 43 57 58
f 43 58 59
f 43 59 54
f 43 54 53
f 45 60 61
f 45 61 62
f 45 62 46
f 46 62 63
f 46 63 64
f 46 64 65
f 46 65 47
f 47 66 50
f 47 50 49
f 47 49 48
f 47 65 64
f 47 64 67
f 47 67 68
f 47 68 69
f 47 69 66
f 50 66 70
f 50 70 51
f 55 71 56
f 56 71 72
f 56 72 73
f 56 73 57
f 60 63 61
f 61 63 62
f 63 74 64
f 64 74 75
f 64 75 76
f 64 76 77
f 64 77 78
f 64 78 67
f 66 79 70
f 66 69 68
f 66 68 67
f 66 67 80
f 66 80 87
f 66 87 94
f 66 94 88
f 66 88 79
f 67 78 80
f 72 81 73
f 73 82 83
f 73 83 84
f 73 81 82
f 76 85 77
f 77 85 86
f 77 86 87
f 77 87 78
f 78 87 80
f 83 89 90
f 83 90 91
f 83 91 92
f 83 92 84
f 86 93 87
f 87 93 94
f 88 93 95
f 88 94 93
f 89 96 90
f 90 96 97
f 90 97 98
f 90 98 93
f 93 98 99
f 93 99 100
f 93 100 95

