v 0.18745715 0.11892157 0.00468597
v 0.21322852 0.10643940 0.00468597
v 0.21322852 0.10645070 0.00019472
v 0.18745715 0.11899503 -0.03062511
v 0.18745715 0.08255431 0.00468597
v 0.21704933 0.10432608 0.00468597
v 0.21322852 0.10645070 -0.01446208
v 0.18745715 0.11899503 -0.03260783
v 0.18975572 0.06127415 0.00468597
v 0.18745715 0.09296272 -0.02911342
v 0.21704933 0.10432608 -0.03644182
v 0.22071284 0.10174940 0.00468597
v 0.21322852 0.10643940 -0.02179049
v 0.18745715 0.11893853 -0.03287621
v 0.21322852 0.10633769 -0.03644182
v 0.21395413 0.10586869 -0.04448225
v 0.21691233 0.10422437 -0.05125747
v 0.21442603 0.10541099 -0.05125747
v 0.21394907 0.10559181 -0.05125747
v 0.19536767 0.06127415 -0.02911342
v 0.21830772 0.06127415 0.00468597
v 0.18745715 0.09412674 -0.03214775
v 0.18745715 0.09595188 -0.03618440
v 0.21699352 0.10428652 -0.04252144
v 0.22071284 0.10174940 -0.03644182
v 0.22592396 0.09808216 -0.05125747
v 0.22047437 0.10180591 -0.05125747
v 0.21937326 0.10255743 -0.05125747
v 0.21860201 0.10308294 -0.05125747
v 0.22592396 0.09808216 0.00468597
v 0.18745715 0.11735071 -0.03466175
v 0.20704827 0.10595344 -0.05125747
v 0.20690618 0.10595910 -0.05125747
v 0.19617446 0.06127415 -0.03364849
v 0.21910434 0.06178270 0.00468597
v 0.21828233 0.06127415 -0.02179049
v 0.22719754 0.06525782 -0.05125747
v 0.18745715 0.10319596 -0.03910371
v 0.19489072 0.08221527 -0.05125747
v 0.22970415 0.09540943 -0.05125747
v 0.22817178 0.09646044 0.00468597
v 0.18745715 0.11498876 -0.03624465
v 0.18745715 0.11145713 -0.03847932
v 0.20324268 0.10308859 -0.05125747
v 0.19876225 0.06127415 -0.03601461
v 0.21966249 0.06214999 0.00468597
v 0.21827219 0.06127415 -0.02911342
v 0.22701995 0.06523522 -0.05125747
v 0.22731932 0.06534823 -0.05125747
v 0.22553832 0.06633708 0.00468597
v 0.22364059 0.06494704 0.00468597
v 0.22055047 0.06273765 0.00468597
v 0.21387802 0.06127415 -0.03700597
v 0.18745715 0.10758082 -0.03919134
v 0.19444927 0.09014307 -0.05125747
v 0.19458119 0.08462243 -0.05125747
v 0.19466746 0.08391046 -0.05125747
v 0.19659055 0.08089303 -0.05125747
v 0.22958746 0.09543203 0.00468597
v 0.23461082 0.09182695 -0.05109316
v 0.23461082 0.09182695 -0.05125747
v 0.20039611 0.09942700 -0.05125747
v 0.19672755 0.09395722 -0.05125747
v 0.19450001 0.09038604 -0.05125747
v 0.19445434 0.09029563 -0.05125747
v 0.21220357 0.06942796 -0.05125747
v 0.21586199 0.06690215 -0.05125747
v 0.22055047 0.06457410 -0.05125747
v 0.20574423 0.06127415 -0.03912562
v 0.19729584 0.08034492 -0.05125747
v 0.20334418 0.07571143 -0.05125747
v 0.20342536 0.07564928 -0.05125747
v 0.20700768 0.07309520 -0.05125747
v 0.23085090 0.06845606 -0.05125747
v 0.22920182 0.07083496 0.00468597
v 0.23408312 0.09177044 0.00468597
v 0.23827432 0.08765115 -0.05125747
v 0.23344884 0.07198768 -0.05125747
v 0.23353511 0.07210635 -0.05125747
v 0.23083059 0.07308390 0.00468597
v 0.23576263 0.08816536 0.00468597
v 0.23831491 0.08756639 -0.05125747
v 0.23720369 0.07776260 -0.05125747
v 0.23447381 0.07857063 0.00468597
v 0.23182512 0.07450220 0.00468597
v 0.23673178 0.08589947 0.00468597
v 0.23928915 0.08398956 -0.05125747
v 0.23928915 0.08142419 -0.05125747
v 0.23537701 0.08140159 0.00468597
f 1 2 3
f 1 3 4
f 1 4 8
f 1 8 14
f 1 14 31
f 1 31 42
f 1 42 43
f 1 43 54
f 1 54 38
f 1 38 23
f 1 23 22
f 1 22 10
f 1 10 5
f 1 5 9
f 1 9 21
f 1 21 35
f 1 35 46
f 1 46 52
f 1 52 51
f 1 51 50
f 1 50 75
f 1 75 80
f 1 80 85
f 1 85 84
f 1 84 89
f 1 89 86
f 1 86 81
f 1 81 76
f 1 76 59
f 1 59 41
f 1 41 30
f 1 30 12
f 1 12 6
f 1 6 2
f 2 6 3
f 3 6 11
f 3 11 7
f 3 7 8
f 3 8 4
f 5 10 9
f 6 12 25
f 6 25 11
f 7 11 13
f 7 13 8
f 8 13 15
f 8 15 16
f 8 16 17
f 8 17 18
f 8 18 19
f 8 19 14
f 9 20 34
f 9 34 45
f 9 45 69
f 9 69 53
f 9 53 47
f 9 47 36
f 9 36 21
f 9 10 22
f 9 22 23
f 9 23 20
f 11 24 16
f 11 16 15
f 11 15 13
f 11 25 26
f 11 26 27
f 11 27 28
f 11 28 29
f 11 29 24
f 12 30 26
f 12 26 25
f 14 19 32
f 14 32 33
f 14 33 31
f 16 24 17
f 17 24 29
f 17 29 28
f 17 28 27
f 17 27 26
f 17 26 40
f 17 40 61
f 17 61 77
f 17 77 82
f 17 82 87
f 17 87 88
f 17 88 83
f 17 83 79
f 17 79 78
f 17 78 74
f 17 74 49
f 17 49 37
f 17 37 48
f 17 48 68
f 17 68 67
f 17 67 66
f 17 66 73
f 17 73 72
f 17 72 71
f 17 71 70
f 17 70 58
f 17 58 39
f 17 39 57
f 17 57 56
f 17 56 55
f 17 55 65
f 17 65 64
f 17 64 63
f 17 63 62
f 17 62 44
f 17 44 33
f 17 33 32
f 17 32 19
f 17 19 18
f 20 23 34
f 21 36 37
f 21 37 35
f 23 38 39
f 23 39 34
f 26 30 40
f 30 41 40
f 31 33 42
f 33 43 42
f 33 44 43
f 34 39 45
f 35 37 46
f 36 47 37
f 37 49 50
f 37 50 51
f 37 51 52
f 37 52 46
f 37 47 53
f 37 53 48
f 38 54 55
f 38 55 56
f 38 56 57
f 38 57 39
f 39 58 45
f 40 41 59
f 40 59 60
f 40 60 61
f 43 44 62
f 43 62 63
f 43 63 64
f 43 64 65
f 43 65 54
f 45 66 67
f 45 67 68
f 45 68 69
f 45 58 70
f 45 70 71
f 45 71 72
f 45 72 73
f 45 73 66
f 48 53 68
f 49 74 50
f 50 74 75
f 53 69 68
f 54 65 55
f 59 76 60
f 60 76 77
f 60 77 61
f 74 78 75
f 75 78 79
f 75 79 80
f 76 81 82
f 76 82 77
f 79 83 84
f 79 84 85
f 79 85 80
f 81 86 82
f 82 86 87
f 83 88 84
f 84 88 89
f 86 89 88
f 86 88 87

