v 0.11999579 0.14347254 0.00469145
v 0.12553571 0.13741944 0.00469145
v 0.11999579 0.17101500 0.00469145
v 0.11999579 0.14835491 -0.03258048
v 0.18745209 0.08255131 0.00469145
v 0.12082116 0.17038194 0.00469145
v 0.11999579 0.17110173 0.00019319
v 0.11999579 0.14933486 -0.03456849
v 0.12103247 0.14771318 -0.03377416
v 0.18745209 0.09296645 -0.02911353
v 0.18745209 0.11893061 0.00469145
v 0.12142865 0.17000038 0.00019319
v 0.12529800 0.16693914 0.00469145
v 0.11999579 0.17111908 -0.00267692
v 0.11999579 0.15053160 -0.03570074
v 0.18745209 0.09595831 -0.03618348
v 0.18745209 0.09413718 -0.03215040
v 0.18745209 0.11899998 -0.03062319
v 0.14191116 0.15418253 0.00019319
v 0.13824651 0.15701829 0.00019319
v 0.12984747 0.16351367 0.00019319
v 0.14885753 0.14875383 0.00469145
v 0.12979466 0.16347898 0.00469145
v 0.11999579 0.17113641 -0.00713569
v 0.11999579 0.15191912 -0.03652140
v 0.18745209 0.10319948 -0.03910186
v 0.11999579 0.15720908 -0.03927301
v 0.18745209 0.11899998 -0.03260681
v 0.11999579 0.17114509 -0.02178466
v 0.17250289 0.11852302 -0.04014195
v 0.17334807 0.11852302 -0.04014195
v 0.18745209 0.10758755 -0.03918963
v 0.11999579 0.15961125 -0.03927301
v 0.18745209 0.11894795 -0.03287890
v 0.12946451 0.16323616 -0.03376100
v 0.11999579 0.17112775 -0.02911353
v 0.17250289 0.11923413 -0.04014195
v 0.17334807 0.11923413 -0.04014195
v 0.18745209 0.11146396 -0.03847869
v 0.11999579 0.16455431 -0.03779846
v 0.12529800 0.15916897 -0.03868495
v 0.13262734 0.15184108 -0.03936518
v 0.18745209 0.11736096 -0.03466504
v 0.17460925 0.12747258 -0.03478792
v 0.16657339 0.13427148 -0.03417352
v 0.13757300 0.15644594 -0.03454216
v 0.12529800 0.16488386 -0.03524433
v 0.11999579 0.17058141 -0.03086456
v 0.17641848 0.12243412 -0.03731573
v 0.18745209 0.11499349 -0.03624492
v 0.11999579 0.16609795 -0.03687687
v 0.13219815 0.15899552 -0.03580606
v 0.13998970 0.15203186 -0.03650823
v 0.16910894 0.12989209 -0.03627125
f 1 2 5
f 1 5 11
f 1 11 22
f 1 22 23
f 1 23 13
f 1 13 6
f 1 6 3
f 1 3 7
f 1 7 14
f 1 14 24
f 1 24 29
f 1 29 36
f 1 36 48
f 1 48 51
f 1 51 40
f 1 40 33
f 1 33 27
f 1 27 25
f 1 25 15
f 1 15 8
f 1 8 4
f 1 4 2
f 2 4 5
f 3 6 7
f 4 8 9
f 4 9 5
f 5 10 17
f 5 17 16
f 5 16 26
f 5 26 32
f 5 32 39
f 5 39 50
f 5 50 43
f 5 43 34
f 5 34 28
f 5 28 18
f 5 18 11
f 5 9 10
f 6 12 7
f 6 13 12
f 7 12 14
f 8 15 16
f 8 16 9
f 9 16 17
f 9 17 10
f 11 18 19
f 11 19 20
f 11 20 21
f 11 21 22
f 12 13 23
f 12 23 21
f 12 21 14
f 14 21 24
f 15 25 16
f 16 25 27
f 16 27 26
f 18 28 29
f 18 29 24
f 18 24 21
f 18 21 20
f 18 20 19
f 21 23 22
f 26 30 31
f 26 31 32
f 26 27 30
f 27 33 37
f 27 37 30
f 28 34 35
f 28 35 36
f 28 36 29
f 30 37 38
f 30 38 31
f 31 38 32
f 32 38 39
f 33 40 41
f 33 41 42
f 33 42 38
f 33 38 37
f 34 43 44
f 34 44 45
f 34 45 35
f 35 45 46
f 35 46 47
f 35 47 48
f 35 48 36
f 38 49 39
f 38 42 41
f 38 41 49
f 39 49 50
f 40 51 52
f 40 52 41
f 41 52 53
f 41 53 49
f 43 50 49
f 43 49 54
f 43 54 44
f 44 54 46
f 44 46 45
f 46 52 47
f 46 54 52
f 47 51 48
f 47 52 51
f 49 53 54
f 52 54 53

