v -0.06969784 0.32035722 -0.05061653
v -0.07287136 0.32650715 -0.05061653
v -0.06976313 0.31980690 -0.05061653
v -0.07006778 0.32037509 -0.14637021
v -0.07341902 0.32657861 -0.21962438
v -0.07327757 0.32671441 -0.15367550
v -0.07316877 0.32686805 -0.08774674
v -0.07310711 0.32695382 -0.05061653
v -0.07166724 0.31305306 -0.05061653
v -0.07062270 0.32031791 -0.25621123
v -0.07057192 0.32037509 -0.24892605
v -0.07349156 0.32643925 -0.25621123
v -0.07351694 0.32648927 -0.25621123
v -0.07719822 0.33061661 -0.05109953
v -0.07321954 0.32680374 -0.11704841
v -0.07719822 0.33061661 -0.05061653
v -0.07184858 0.31262426 -0.05061653
v -0.07270815 0.31305306 -0.24892605
v -0.07276981 0.31301732 -0.25621123
v -0.07060819 0.32037509 -0.25621123
v -0.07782567 0.33015207 -0.25621123
v -0.07780029 0.33016994 -0.24892605
v -0.07771324 0.33024140 -0.21962438
v -0.08112976 0.33298939 -0.13904479
v -0.08101732 0.33306085 -0.10239757
v -0.08088313 0.33314662 -0.05844506
v -0.08086137 0.33316090 -0.05109953
v -0.08144167 0.33278569 -0.24160065
v -0.08086137 0.33316090 -0.05061653
v -0.07502935 0.30781794 -0.05061653
v -0.07565317 0.30857910 -0.25621123
v -0.08145980 0.33273210 -0.25621123
v -0.08720840 0.33675939 -0.05061653
v -0.08122043 0.33293221 -0.16832634
v -0.08153234 0.33277857 -0.25621123
v -0.08720840 0.33614118 -0.21229897
v -0.08720840 0.33619836 -0.19764814
v -0.08720840 0.33631272 -0.16832634
v -0.08720840 0.33645208 -0.13171937
v -0.07771324 0.30438387 -0.05061653
v -0.07846400 0.30494490 -0.25621123
v -0.09453106 0.33563017 -0.05109953
v -0.09453106 0.33563017 -0.05061653
v -0.08720840 0.33595894 -0.25621123
v -0.08720840 0.33599110 -0.24892605
v -0.08720840 0.33605184 -0.23427521
v -0.08164478 0.30062815 -0.05061653
v -0.08208000 0.30090330 -0.22694981
v -0.08214891 0.30096049 -0.25621123
v -0.07851478 0.30488413 -0.25621123
v -0.09453106 0.33549796 -0.08042132
v -0.09873461 0.33203527 -0.05061653
v -0.08726643 0.33595179 -0.25621123
v -0.08720840 0.30025294 -0.05061653
v -0.08201834 0.30085684 -0.19764814
v -0.08713224 0.30096049 -0.25621123
v -0.09453106 0.33529786 -0.12437383
v -0.10164337 0.32799012 -0.05061653
v -0.09453106 0.33502983 -0.18297717
v -0.09861855 0.33189591 -0.10239757
v -0.09456008 0.33465105 -0.25621123
v -0.09453106 0.33471180 -0.24892605
v -0.09453106 0.33496193 -0.19764814
v -0.09162594 0.30166088 -0.05061653
v -0.09087518 0.30205396 -0.24689345
v -0.09085704 0.30206468 -0.25178379
v -0.09083165 0.30207183 -0.25621123
v -0.08720840 0.30086043 -0.22694981
v -0.08721928 0.30097477 -0.25621123
v -0.10184647 0.32770424 -0.05109953
v -0.10184647 0.32770424 -0.05061653
v -0.09845534 0.33169581 -0.17565176
v -0.09835742 0.33157429 -0.21962438
v -0.09827400 0.33147068 -0.25621123
v -0.09829214 0.33149211 -0.24892605
v -0.09522017 0.30399791 -0.05061653
v -0.10062784 0.30757137 -0.05061653
v -0.09452381 0.30451607 -0.25621123
v -0.08793378 0.30116418 -0.24918769
v -0.10181383 0.32770424 -0.05844506
v -0.10494019 0.32298012 -0.06577048
v -0.10476973 0.32332677 -0.05061653
v -0.10093250 0.32770424 -0.25621123
v -0.10096514 0.32770424 -0.24892605
v -0.10148741 0.32770424 -0.13171937
v -0.10420757 0.31083037 -0.05061653
v -0.10373970 0.31125563 -0.20497355
v -0.09995687 0.30820030 -0.25621123
v -0.09987345 0.30813599 -0.25621123
v -0.10497284 0.32301943 -0.05109953
v -0.10462828 0.32248699 -0.20497355
v -0.10654690 0.31882063 -0.20497355
v -0.10497284 0.32301943 -0.05061653
v -0.10448684 0.32205460 -0.25621123
v -0.10655416 0.31416441 -0.05061653
v -0.10654690 0.31491842 -0.20497355
v -0.10359100 0.31168443 -0.25621123
v -0.10669923 0.31918869 -0.10239757
v -0.10674638 0.31931733 -0.06577048
v -0.10674275 0.31935664 -0.05109953
v -0.10452673 0.32197957 -0.25621123
v -0.10620598 0.31834893 -0.25621123
v -0.10663395 0.31902433 -0.14637021
v -0.10673913 0.31935307 -0.05061653
v -0.10673913 0.31443601 -0.05061653
v -0.10663395 0.31476832 -0.14637021
v -0.10620598 0.31537225 -0.25621123
v -0.10618422 0.31531863 -0.25621123
v -0.10668835 0.31466826 -0.10972299
v -0.10669923 0.31465039 -0.10239757
v -0.10674638 0.31455749 -0.06577048
v -0.10674275 0.31453962 -0.05109953
f 1 2 8
f 1 8 16
f 1 16 29
f 1 29 33
f 1 33 43
f 1 43 52
f 1 52 58
f 1 58 71
f 1 71 82
f 1 82 93
f 1 93 104
f 1 104 105
f 1 105 95
f 1 95 86
f 1 86 77
f 1 77 76
f 1 76 64
f 1 64 54
f 1 54 47
f 1 47 40
f 1 40 30
f 1 30 17
f 1 17 9
f 1 9 3
f 1 3 4
f 1 4 5
f 1 5 6
f 1 6 2
f 2 7 8
f 2 6 7
f 3 9 4
f 4 9 10
f 4 10 11
f 4 11 12
f 4 12 5
f 5 12 13
f 5 13 14
f 5 14 6
f 6 14 15
f 6 15 7
f 7 15 8
f 8 14 16
f 8 15 14
f 9 17 18
f 9 18 10
f 10 18 19
f 10 19 31
f 10 31 41
f 10 41 50
f 10 50 49
f 10 49 56
f 10 56 69
f 10 69 67
f 10 67 78
f 10 78 89
f 10 89 88
f 10 88 97
f 10 97 108
f 10 108 107
f 10 107 102
f 10 102 101
f 10 101 94
f 10 94 83
f 10 83 74
f 10 74 61
f 10 61 53
f 10 53 44
f 10 44 35
f 10 35 32
f 10 32 21
f 10 21 13
f 10 13 12
f 10 12 20
f 10 20 11
f 11 20 12
f 13 21 22
f 13 22 23
f 13 23 14
f 14 24 25
f 14 25 26
f 14 26 27
f 14 27 29
f 14 29 16
f 14 23 28
f 14 28 24
f 17 30 31
f 17 31 19
f 17 19 18
f 21 32 22
f 22 32 28
f 22 28 23
f 24 33 25
f 24 28 34
f 24 34 33
f 25 33 26
f 26 33 27
f 27 33 29
f 28 32 35
f 28 35 36
f 28 36 37
f 28 37 38
f 28 38 39
f 28 39 33
f 28 33 34
f 30 40 41
f 30 41 31
f 33 42 43
f 33 39 42
f 35 44 45
f 35 45 46
f 35 46 36
f 36 46 42
f 36 42 37
f 37 42 38
f 38 42 39
f 40 47 48
f 40 48 49
f 40 49 50
f 40 50 41
f 42 51 52
f 42 52 43
f 42 46 53
f 42 53 51
f 44 53 45
f 45 53 46
f 47 54 55
f 47 55 48
f 48 55 54
f 48 54 49
f 49 54 56
f 51 57 52
f 51 53 57
f 52 57 59
f 52 59 60
f 52 60 58
f 53 61 62
f 53 62 63
f 53 63 59
f 53 59 57
f 54 64 65
f 54 65 66
f 54 66 67
f 54 67 68
f 54 68 56
f 56 68 69
f 58 70 71
f 58 60 72
f 58 72 73
f 58 73 70
f 59 63 60
f 60 63 72
f 61 74 75
f 61 75 62
f 62 75 63
f 63 75 73
f 63 73 72
f 64 76 65
f 65 76 66
f 66 76 77
f 66 77 78
f 66 78 67
f 67 69 79
f 67 79 68
f 68 79 69
f 70 80 81
f 70 81 82
f 70 82 71
f 70 73 75
f 70 75 80
f 74 83 75
f 75 83 84
f 75 84 85
f 75 85 80
f 77 86 87
f 77 87 88
f 77 88 89
f 77 89 78
f 80 85 81
f 81 90 82
f 81 85 84
f 81 84 83
f 81 83 91
f 81 91 92
f 81 92 90
f 82 90 93
f 83 94 91
f 86 95 96
f 86 96 87
f 87 96 97
f 87 97 88
f 90 98 99
f 90 99 100
f 90 100 93
f 90 92 98
f 91 94 101
f 91 101 92
f 92 101 102
f 92 102 107
f 92 107 96
f 92 96 106
f 92 106 103
f 92 103 98
f 93 100 104
f 95 105 96
f 96 107 108
f 96 108 97
f 96 105 109
f 96 109 106
f 98 110 111
f 98 111 99
f 98 103 106
f 98 106 110
f 99 111 112
f 99 112 100
f 100 112 105
f 100 105 104
f 105 112 111
f 105 111 110
f 105 110 109
f 106 109 110

