v 0.03025152 -0.20643204 0.13942782
v 0.03347165 -0.20309228 0.13557416
v 0.03228632 -0.20643204 0.13512112
v 0.03042931 -0.20643204 0.14675274
v 0.04797212 -0.18098171 0.14507596
v 0.06290722 -0.15938307 0.14372276
v 0.06290722 -0.15938307 0.14136938
v 0.06314428 -0.15969998 0.13648609
v 0.04832772 -0.18146926 0.13572712
v 0.08446037 -0.12954476 0.13528586
v 0.04003044 -0.19475512 0.13518585
v 0.03750175 -0.20033761 0.13476812
v 0.03740298 -0.20643204 0.13384442
v 0.03060711 -0.20643204 0.14764703
v 0.04846601 -0.18166429 0.14995923
v 0.16893453 -0.00938706 0.14675274
v 0.18712926 0.01691648 0.14526422
v 0.20206435 0.03849075 0.14391692
v 0.20206435 0.03849075 0.14190477
v 0.08422331 -0.12915471 0.13942782
v 0.07400976 -0.15589705 0.13349140
v 0.06816216 -0.15589705 0.13480342
v 0.15097686 -0.03512991 0.13608014
v 0.19412269 0.02479048 0.13528586
v 0.17922710 0.00302119 0.13509171
v 0.21320640 0.04190363 0.13359731
v 0.04471248 -0.19987443 0.13339139
v 0.04494954 -0.20643204 0.13409740
v 0.03183195 -0.20643204 0.15359521
v 0.03607936 -0.20043512 0.15384233
v 0.08343309 -0.13532228 0.16140845
v 0.18762316 0.01620953 0.15015338
v 0.20546229 0.04258620 0.14657035
v 0.20546229 0.04258620 0.13944547
v 0.19345100 0.02574121 0.13942782
v 0.18390913 -0.00207375 0.13340315
v 0.20259776 0.03775942 0.13701561
v 0.20789222 0.04258620 0.13500934
v 0.20765514 0.04190363 0.13492109
v 0.21324592 0.04258620 0.13370909
v 0.22069373 0.04258620 0.13417390
v 0.20589691 0.02725263 0.13350317
v 0.05204174 -0.19253675 0.13361496
v 0.08133902 -0.14855937 0.13338550
v 0.12529482 -0.08997975 0.13353848
v 0.05200223 -0.19953316 0.13448572
v 0.04714240 -0.20643204 0.13453866
v 0.03347165 -0.20643204 0.16140845
v 0.03904267 -0.20067891 0.16872161
v 0.04066262 -0.19563272 0.15959634
v 0.06108972 -0.17147441 0.17605241
v 0.12165982 -0.08634748 0.17953542
v 0.18602297 0.00621467 0.17612301
v 0.20708223 0.04258620 0.15448361
v 0.11798532 -0.09729307 0.13341492
v 0.22207660 0.04258620 0.13449748
v 0.22071349 0.04185487 0.13426214
v 0.17657988 -0.01672475 0.13364438
v 0.12505775 -0.09670799 0.13460338
v 0.08849048 -0.14809620 0.13451513
v 0.20597594 0.02006121 0.13432686
v 0.04953280 -0.20523752 0.13489756
v 0.04988840 -0.20643204 0.13750982
v 0.03501257 -0.20643204 0.16872161
v 0.03983289 -0.20180027 0.17605241
v 0.05486676 -0.18034791 0.17605241
v 0.07031550 -0.15950496 0.17988842
v 0.09821015 -0.12086630 0.18337732
v 0.15860245 -0.03554434 0.18533064
v 0.17970124 -0.00497469 0.18337732
v 0.19455730 0.01674584 0.18128281
v 0.20236068 0.03073864 0.17173394
v 0.21008507 0.04258620 0.16872161
v 0.22584987 0.04258620 0.13942782
v 0.21682166 0.03098242 0.13587421
v 0.21838233 0.03585795 0.13485637
v 0.21022335 0.02257211 0.13513878
v 0.21184330 0.02725263 0.13455631
v 0.20358553 0.01435682 0.13480342
v 0.07106621 -0.17525295 0.13510935
v 0.05615087 -0.19687597 0.13533294
v 0.05093543 -0.20643204 0.13980437
v 0.03679056 -0.20643204 0.17608771
v 0.03710665 -0.20643204 0.17718791
v 0.04052433 -0.20275101 0.18046501
v 0.05607184 -0.18205433 0.18580131
v 0.05792886 -0.17834892 0.18336555
v 0.06187994 -0.17262017 0.18337732
v 0.07748671 -0.15197226 0.18746045
v 0.18013586 -0.00558414 0.18718393
v 0.19260152 0.01316232 0.18358913
v 0.20965045 0.03819822 0.17955896
v 0.20897878 0.03907582 0.17466980
v 0.21042092 0.04258620 0.17013952
v 0.22731177 0.04258620 0.14495828
v 0.16553661 -0.04232134 0.13585068
v 0.12912737 -0.09388018 0.13558593
v 0.14400320 -0.07223278 0.13538589
v 0.09267862 -0.14534151 0.13543295
v 0.06274917 -0.18853880 0.13650962
v 0.05253563 -0.20643204 0.14675274
v 0.06340110 -0.18939202 0.14139291
v 0.03941803 -0.20643204 0.18101217
v 0.05449141 -0.18692987 0.18801937
v 0.06253186 -0.17352213 0.18781345
v 0.09896085 -0.12191454 0.18847828
v 0.16520076 -0.02718278 0.18789583
v 0.17183858 -0.01891874 0.18880777
v 0.19347076 0.01109021 0.18821353
v 0.19548580 0.01596575 0.18616608
v 0.21518196 0.04258620 0.18038263
v 0.21267302 0.04258620 0.17739383
v 0.21227792 0.04258620 0.17658780
v 0.22766738 0.04258620 0.14650564
v 0.05395802 -0.20643204 0.15335987
v 0.08493451 -0.15943183 0.14351095
v 0.06138605 -0.19387753 0.14675274
v 0.03979338 -0.20643204 0.18128281
v 0.05376046 -0.19253675 0.18800172
v 0.06670026 -0.17788574 0.19105525
v 0.06108972 -0.17788574 0.18872539
v 0.06677928 -0.17086498 0.18944907
v 0.08845097 -0.14127043 0.19071401
v 0.09072284 -0.13539541 0.18940199
v 0.10324777 -0.11937925 0.19057868
v 0.12051401 -0.09210060 0.18913135
v 0.13538983 -0.07042883 0.18871362
v 0.15694300 -0.04041988 0.18920195
v 0.16373886 -0.03137575 0.18947848
v 0.16932964 -0.02445248 0.18997269
v 0.19817255 0.01316232 0.18848417
v 0.20036540 0.01772095 0.18754870
v 0.17626379 -0.01657848 0.19056691
v 0.18390913 -0.00938706 0.19129058
v 0.19121863 -0.00207375 0.19107879
v 0.21553757 0.04258620 0.18042382
v 0.23072947 0.04258620 0.16140257
v 0.19507094 -0.01331187 0.17887647
v 0.16573416 -0.05724049 0.18631317
v 0.08971532 -0.16252780 0.17671135
v 0.05717815 -0.20643204 0.16872161
v 0.04546318 -0.20643204 0.18374210
v 0.05937100 -0.19253675 0.18864302
v 0.05431361 -0.19716853 0.18734277
v 0.07400976 -0.17054806 0.19206132
v 0.08133902 -0.15589705 0.19199661
v 0.06670026 -0.18519907 0.18990208
v 0.10332679 -0.12659507 0.19311446
v 0.13969652 -0.06799106 0.19079637
v 0.16138796 -0.03827464 0.19112585
v 0.16925062 -0.03137575 0.19270851
v 0.20411892 0.01772095 0.18754870
v 0.19850840 0.00621467 0.18982560
v 0.22116784 0.04258620 0.18071212
v 0.17657988 -0.02403806 0.19304386
v 0.18390913 -0.01672475 0.19234373
v 0.19854789 0.00526394 0.19000799
v 0.23207284 0.04258620 0.16872161
v 0.20996654 0.00835991 0.17761152
v 0.18669465 -0.02645145 0.18337732
v 0.18059023 -0.03554434 0.18506588
v 0.16573416 -0.05724049 0.18731924
v 0.09273789 -0.16016315 0.18771932
v 0.08382820 -0.17252266 0.18337732
v 0.09009066 -0.16369793 0.18337732
v 0.12025719 -0.12096381 0.18337732
v 0.09236255 -0.15957809 0.17960014
v 0.07693356 -0.18049416 0.17605241
v 0.06442838 -0.19816801 0.17605241
v 0.06180091 -0.20184904 0.17605241
v 0.05844250 -0.20643204 0.17605241
v 0.05257513 -0.20643204 0.18331260
v 0.05937100 -0.19704662 0.18732512
v 0.06316404 -0.19633965 0.18711921
v 0.08133902 -0.16323475 0.19239079
v 0.08866828 -0.14855937 0.19293796
v 0.07229104 -0.18519907 0.18821353
v 0.07466169 -0.17851957 0.18980207
v 0.11065605 -0.11925737 0.19332626
v 0.12529482 -0.09729307 0.19335568
v 0.13993359 -0.07532875 0.19325566
v 0.09599754 -0.14124606 0.19317330
v 0.16192136 -0.04602675 0.19349100
v 0.19937763 0.00621467 0.18974912
v 0.20486962 0.01260163 0.18796643
v 0.22509919 0.04258620 0.18001198
v 0.16925062 -0.03871344 0.19311446
v 0.19121863 -0.00938706 0.19089051
v 0.17657988 -0.03137575 0.19218487
v 0.19890350 -0.00214688 0.18909605
v 0.20405966 0.00526394 0.18807822
v 0.23173699 0.04258620 0.17188103
v 0.22434848 0.03071426 0.17985901
v 0.22440773 0.03064113 0.17605241
v 0.21599194 0.01759906 0.17605241
v 0.18918383 -0.02277042 0.18337732
v 0.20996654 0.00835991 0.18091804
v 0.18059023 -0.03554434 0.18773697
v 0.12260809 -0.11708775 0.18852535
v 0.08613958 -0.16847595 0.18830179
v 0.07065134 -0.18924576 0.18729571
v 0.07738794 -0.18117673 0.18337732
v 0.08017345 -0.17749570 0.18337732
v 0.05786959 -0.20643204 0.17852934
v 0.07090816 -0.18961142 0.18337732
v 0.05417532 -0.20643204 0.18291841
v 0.05630891 -0.20643204 0.18185351
v 0.05753374 -0.20589575 0.18156521
v 0.08173413 -0.17076747 0.18986678
v 0.08866828 -0.15589705 0.19202014
v 0.07954127 -0.17649622 0.18854301
v 0.11798532 -0.11194406 0.19303209
v 0.10332679 -0.13390836 0.19275557
v 0.20417819 0.00621467 0.18806644
v 0.22468431 0.03459031 0.18000610
v 0.22551405 0.04258620 0.17979429
v 0.13993359 -0.08264206 0.19256141
v 0.16192136 -0.05336444 0.19196718
v 0.17642183 -0.03827464 0.18952555
v 0.18209164 -0.03137575 0.18896073
v 0.18442277 -0.02445248 0.19017861
v 0.20305214 0.00024213 0.18769579
v 0.23009731 0.04258620 0.17534050
v 0.22962318 0.04258620 0.17616419
v 0.19509070 -0.01336062 0.18728394
v 0.18882825 -0.02230724 0.18829589
v 0.16166455 -0.06009268 0.18916665
v 0.11832116 -0.11942802 0.19028451
v 0.08862876 -0.16284471 0.18931962
v 0.05729668 -0.20643204 0.18095334
v 0.10340582 -0.14109979 0.18986090
v 0.16956671 -0.04617301 0.19034923
f 1 2 3
f 1 3 13
f 1 13 28
f 1 28 47
f 1 47 63
f 1 63 82
f 1 82 101
f 1 101 115
f 1 115 141
f 1 141 171
f 1 171 204
f 1 204 230
f 1 230 207
f 1 207 206
f 1 206 172
f 1 172 142
f 1 142 118
f 1 118 103
f 1 103 84
f 1 84 83
f 1 83 64
f 1 64 48
f 1 48 29
f 1 29 14
f 1 14 4
f 1 4 5
f 1 5 6
f 1 6 7
f 1 7 8
f 1 8 9
f 1 9 2
f 2 9 10
f 2 10 11
f 2 11 3
f 3 11 12
f 3 12 13
f 4 14 5
f 5 14 15
f 5 15 16
f 5 16 17
f 5 17 6
f 6 17 18
f 6 18 19
f 6 19 7
f 7 19 20
f 7 20 8
f 8 20 10
f 8 10 9
f 10 21 22
f 10 22 12
f 10 12 11
f 10 20 19
f 10 19 23
f 10 23 24
f 10 24 25
f 10 25 26
f 10 26 21
f 12 22 21
f 12 21 13
f 13 21 27
f 13 27 28
f 14 29 30
f 14 30 15
f 15 30 31
f 15 31 32
f 15 32 16
f 16 32 17
f 17 32 33
f 17 33 18
f 18 33 34
f 18 34 19
f 19 34 35
f 19 35 23
f 21 26 36
f 21 36 27
f 23 35 37
f 23 37 24
f 24 37 38
f 24 38 39
f 24 39 25
f 25 39 26
f 26 39 40
f 26 40 41
f 26 41 42
f 26 42 36
f 27 43 28
f 27 36 44
f 27 44 45
f 27 45 43
f 28 43 45
f 28 45 46
f 28 46 47
f 29 48 30
f 30 48 49
f 30 49 50
f 30 50 51
f 30 51 31
f 31 51 52
f 31 52 53
f 31 53 32
f 32 53 54
f 32 54 33
f 33 54 73
f 33 73 94
f 33 94 113
f 33 113 112
f 33 112 111
f 33 111 136
f 33 136 154
f 33 154 186
f 33 186 216
f 33 216 224
f 33 224 223
f 33 223 192
f 33 192 158
f 33 158 137
f 33 137 114
f 33 114 95
f 33 95 74
f 33 74 56
f 33 56 41
f 33 41 40
f 33 40 38
f 33 38 34
f 34 37 35
f 34 38 37
f 36 42 45
f 36 45 55
f 36 55 44
f 38 40 39
f 41 56 57
f 41 57 58
f 41 58 42
f 42 58 45
f 44 55 45
f 45 59 60
f 45 60 46
f 45 58 57
f 45 57 61
f 45 61 59
f 46 62 47
f 46 60 62
f 47 62 63
f 48 64 49
f 49 64 65
f 49 65 66
f 49 66 51
f 49 51 50
f 51 66 67
f 51 67 68
f 51 68 52
f 52 68 69
f 52 69 53
f 53 70 71
f 53 71 72
f 53 72 54
f 53 69 70
f 54 72 73
f 56 74 75
f 56 75 76
f 56 76 77
f 56 77 78
f 56 78 57
f 57 78 61
f 59 62 60
f 59 61 78
f 59 78 79
f 59 79 77
f 59 77 62
f 62 80 81
f 62 81 63
f 62 77 80
f 63 81 82
f 64 83 65
f 65 83 84
f 65 84 85
f 65 85 86
f 65 86 87
f 65 87 88
f 65 88 66
f 66 88 67
f 67 88 68
f 68 88 69
f 69 88 89
f 69 89 90
f 69 90 70
f 70 90 71
f 71 91 92
f 71 92 93
f 71 93 73
f 71 73 72
f 71 90 91
f 73 93 94
f 74 95 75
f 75 77 76
f 75 95 96
f 75 96 77
f 77 79 78
f 77 96 97
f 77 97 98
f 77 98 80
f 80 98 99
f 80 99 81
f 81 99 100
f 81 100 82
f 82 100 102
f 82 102 101
f 84 103 85
f 85 103 104
f 85 104 86
f 86 104 105
f 86 105 88
f 86 88 87
f 88 105 89
f 89 106 107
f 89 107 90
f 89 105 106
f 90 108 109
f 90 109 110
f 90 110 91
f 90 107 108
f 91 110 92
f 92 111 112
f 92 112 113
f 92 113 94
f 92 94 93
f 92 110 111
f 95 114 96
f 96 102 100
f 96 100 97
f 96 114 102
f 97 99 98
f 97 100 99
f 101 102 115
f 102 116 117
f 102 117 115
f 102 114 116
f 103 118 104
f 104 119 120
f 104 120 121
f 104 121 105
f 104 118 119
f 105 121 122
f 105 122 123
f 105 123 124
f 105 124 106
f 106 124 125
f 106 125 126
f 106 126 127
f 106 127 107
f 107 127 128
f 107 128 108
f 108 128 129
f 108 129 130
f 108 130 109
f 109 131 132
f 109 132 111
f 109 111 110
f 109 130 133
f 109 133 134
f 109 134 135
f 109 135 131
f 111 132 136
f 114 137 138
f 114 138 139
f 114 139 140
f 114 140 141
f 114 141 115
f 114 115 116
f 115 117 116
f 118 142 119
f 119 143 120
f 119 142 144
f 119 144 143
f 120 145 146
f 120 146 122
f 120 122 121
f 120 143 147
f 120 147 145
f 122 146 123
f 123 146 148
f 123 148 125
f 123 125 124
f 125 148 149
f 125 149 128
f 125 128 126
f 126 128 127
f 128 130 129
f 128 149 130
f 130 149 150
f 130 150 151
f 130 151 133
f 131 152 132
f 131 135 153
f 131 153 152
f 132 152 154
f 132 154 136
f 133 151 134
f 134 151 155
f 134 155 135
f 135 155 156
f 135 156 157
f 135 157 153
f 137 158 159
f 137 159 138
f 138 159 139
f 139 160 161
f 139 161 198
f 139 198 162
f 139 162 163
f 139 163 164
f 139 164 165
f 139 165 166
f 139 166 167
f 139 167 140
f 139 159 160
f 140 167 168
f 140 168 141
f 141 168 169
f 141 169 170
f 141 170 171
f 142 172 173
f 142 173 144
f 143 144 173
f 143 173 174
f 143 174 147
f 145 147 175
f 145 175 176
f 145 176 146
f 146 176 148
f 147 174 177
f 147 177 178
f 147 178 175
f 148 179 180
f 148 180 181
f 148 181 151
f 148 151 149
f 148 176 182
f 148 182 179
f 149 151 150
f 151 181 183
f 151 183 155
f 152 153 157
f 152 157 184
f 152 184 185
f 152 185 186
f 152 186 154
f 155 183 187
f 155 187 156
f 156 188 157
f 156 187 189
f 156 189 188
f 157 188 190
f 157 190 191
f 157 191 184
f 158 192 193
f 158 193 194
f 158 194 195
f 158 195 159
f 159 196 160
f 159 195 197
f 159 197 196
f 160 196 161
f 161 196 198
f 162 198 199
f 162 199 163
f 163 199 200
f 163 200 201
f 163 201 202
f 163 202 203
f 163 203 164
f 164 203 171
f 164 171 170
f 164 170 169
f 164 169 165
f 165 169 167
f 165 167 166
f 167 169 168
f 171 203 202
f 171 202 205
f 171 205 201
f 171 201 204
f 172 206 174
f 172 174 173
f 174 201 177
f 174 206 207
f 174 207 208
f 174 208 201
f 175 178 209
f 175 209 210
f 175 210 182
f 175 182 176
f 177 201 211
f 177 211 209
f 177 209 178
f 179 212 183
f 179 183 180
f 179 182 212
f 180 183 181
f 182 210 213
f 182 213 212
f 183 212 187
f 184 191 214
f 184 214 185
f 185 215 186
f 185 214 215
f 186 215 216
f 187 212 213
f 187 213 217
f 187 217 218
f 187 218 189
f 188 189 190
f 189 218 219
f 189 219 220
f 189 220 221
f 189 221 222
f 189 222 190
f 190 222 191
f 191 222 193
f 191 193 215
f 191 215 214
f 192 223 193
f 193 197 194
f 193 223 224
f 193 224 215
f 193 222 225
f 193 225 197
f 194 197 195
f 196 197 198
f 197 225 198
f 198 225 226
f 198 226 220
f 198 220 199
f 199 220 227
f 199 227 228
f 199 228 200
f 200 229 209
f 200 209 211
f 200 211 201
f 200 228 229
f 201 208 230
f 201 230 204
f 201 205 202
f 207 230 208
f 209 229 210
f 210 229 213
f 213 228 218
f 213 218 217
f 213 229 231
f 213 231 228
f 215 224 216
f 218 232 219
f 218 228 232
f 219 232 228
f 219 228 227
f 219 227 220
f 220 226 221
f 221 226 222
f 222 226 225
f 228 231 229

