v 0.28749735 0.02812317 0.44072752
v 0.28749735 0.02812317 0.44067097
v 0.28643538 0.02812317 0.44441099
v 0.28361978 0.02293912 0.44432299
v 0.28730128 0.02812317 0.43960865
v 0.28361978 0.02293912 0.44138124
v 0.28634824 0.02812317 0.44445502
v 0.28165376 0.02293912 0.44432299
v 0.24986535 0.00623400 0.43234855
v 0.25080751 0.00623400 0.43221026
v 0.25594853 0.00623400 0.43009823
v 0.25649314 0.00623400 0.42970853
v 0.25888394 0.00623400 0.42531476
v 0.25906911 0.00623400 0.42479932
v 0.28624476 0.02812317 0.44448641
v 0.27919215 0.02812317 0.44509616
v 0.28712702 0.02812317 0.43867207
v 0.28529714 0.02812317 0.42967082
v 0.25888939 0.00623400 0.41835007
v 0.25868245 0.00623400 0.41735065
v 0.25544751 0.00623400 0.40185615
v 0.25419491 0.00623400 0.39589092
v 0.25361766 0.00623400 0.39327603
v 0.25256113 0.00623400 0.38856168
v 0.27646371 0.02812317 0.39589092
v 0.27919215 0.02724023 0.44490758
v 0.24306872 0.00623400 0.43163828
v 0.27712813 0.02812317 0.44468127
v 0.24989803 0.00623400 0.38389763
v 0.25354685 0.00893640 0.38487819
v 0.27410014 0.02812317 0.38856168
v 0.24252957 0.00623400 0.43151883
v 0.25826311 0.02812317 0.42987195
v 0.25328000 0.02391207 0.42902965
v 0.24617294 0.01632994 0.42889136
v 0.24488767 0.01262031 0.42989710
v 0.24960937 0.00623400 0.38377819
v 0.26638312 0.02812317 0.38137700
v 0.27184547 0.02812317 0.38500392
v 0.23888616 0.00623400 0.42713764
v 0.25493014 0.02812317 0.42577362
v 0.25463606 0.02812317 0.42519531
v 0.25327455 0.02812317 0.42218443
v 0.25176601 0.02812317 0.41762093
v 0.23819997 0.00623400 0.42519531
v 0.24254044 0.00623400 0.38230103
v 0.26503796 0.02812317 0.38088043
v 0.23669143 0.00623400 0.41818037
v 0.23778606 0.00623400 0.42337243
v 0.25047531 0.02812317 0.41144199
v 0.23235638 0.00623400 0.39746238
v 0.23550419 0.00623400 0.38355819
v 0.24254044 0.01262031 0.38278502
v 0.24986535 0.01994527 0.38230103
v 0.25717390 0.02812317 0.38192389
v 0.25029014 0.02812317 0.41054311
v 0.23202963 0.00623400 0.39589092
v 0.23186624 0.00623400 0.38856168
v 0.23871735 0.01652924 0.38475248
v 0.24281274 0.01936022 0.38397305
v 0.24977276 0.02725309 0.38356448
v 0.25009407 0.02812317 0.38365877
v 0.24920093 0.02812317 0.40521905
v 0.24886873 0.02812317 0.40354074
v 0.23869554 0.01654424 0.39309374
v 0.23861931 0.01666211 0.38856168
v 0.24495302 0.02546578 0.38856168
v 0.24687548 0.02812317 0.38856168
v 0.24544317 0.02479501 0.38436904
v 0.24739286 0.02812317 0.39589092
f 1 2 5
f 1 5 17
f 1 17 18
f 1 18 25
f 1 25 31
f 1 31 39
f 1 39 38
f 1 38 47
f 1 47 55
f 1 55 62
f 1 62 68
f 1 68 70
f 1 70 64
f 1 64 63
f 1 63 56
f 1 56 50
f 1 50 44
f 1 44 43
f 1 43 42
f 1 42 41
f 1 41 33
f 1 33 28
f 1 28 16
f 1 16 15
f 1 15 7
f 1 7 3
f 1 3 4
f 1 4 6
f 1 6 2
f 2 6 5
f 3 7 4
f 4 8 9
f 4 9 10
f 4 10 11
f 4 11 12
f 4 12 13
f 4 13 14
f 4 14 6
f 4 7 15
f 4 15 16
f 4 16 8
f 5 6 17
f 6 18 17
f 6 14 19
f 6 19 20
f 6 20 21
f 6 21 22
f 6 22 23
f 6 23 24
f 6 24 25
f 6 25 18
f 8 16 26
f 8 26 27
f 8 27 9
f 9 27 32
f 9 32 40
f 9 40 45
f 9 45 49
f 9 49 48
f 9 48 51
f 9 51 57
f 9 57 58
f 9 58 52
f 9 52 46
f 9 46 37
f 9 37 29
f 9 29 24
f 9 24 23
f 9 23 22
f 9 22 21
f 9 21 20
f 9 20 19
f 9 19 14
f 9 14 13
f 9 13 12
f 9 12 11
f 9 11 10
f 16 28 26
f 24 29 30
f 24 30 31
f 24 31 25
f 26 28 27
f 27 28 32
f 28 33 34
f 28 34 35
f 28 35 36
f 28 36 32
f 29 37 38
f 29 38 39
f 29 39 30
f 30 39 31
f 32 36 35
f 32 35 40
f 33 41 34
f 34 41 35
f 35 41 42
f 35 42 43
f 35 43 44
f 35 44 45
f 35 45 40
f 37 46 47
f 37 47 38
f 44 48 49
f 44 49 45
f 44 50 51
f 44 51 48
f 46 52 53
f 46 53 54
f 46 54 47
f 47 54 55
f 50 56 57
f 50 57 51
f 52 58 59
f 52 59 60
f 52 60 53
f 53 55 54
f 53 60 61
f 53 61 55
f 55 61 62
f 56 63 57
f 57 63 64
f 57 64 65
f 57 65 66
f 57 66 58
f 58 66 59
f 59 66 67
f 59 67 68
f 59 68 69
f 59 69 60
f 60 62 61
f 60 69 62
f 62 69 68
f 64 70 65
f 65 68 67
f 65 67 66
f 65 70 68

