v 0.07400262 0.18848112 -0.30742096
v 0.05915721 0.17644547 -0.30670992
v 0.06667440 0.18848112 -0.30721931
v 0.06858174 0.19390664 -0.30730421
v 0.08132495 0.18848112 -0.30704245
v 0.09336546 0.17644547 -0.30696815
v 0.05273836 0.17644547 -0.30550717
v 0.06667440 0.19390664 -0.30725115
v 0.07590998 0.19390664 -0.30680896
v 0.10087674 0.17644547 -0.30632434
v 0.04940198 0.17644547 -0.30023992
v 0.05973000 0.19390664 -0.30562038
v 0.06135981 0.19390664 -0.30609441
v 0.08265360 0.19390664 -0.30526663
v 0.08859413 0.18847940 -0.30555316
v 0.10639210 0.17644547 -0.30497656
v 0.04938427 0.17644547 -0.30001353
v 0.05669478 0.19390664 -0.29290678
v 0.05739158 0.19390664 -0.30023992
v 0.08427159 0.19390664 -0.30484215
v 0.10800419 0.17644547 -0.30436812
v 0.08611399 0.19300752 -0.30466173
v 0.04913035 0.17644547 -0.29526627
v 0.05645858 0.19390664 -0.28627053
v 0.04900634 0.17644547 -0.29290678
v 0.04900043 0.17644547 -0.29276881
v 0.08522232 0.19390664 -0.30371016
v 0.10717748 0.17764887 -0.30407098
v 0.10890176 0.17644547 -0.30236238
v 0.05645267 0.19390664 -0.28558072
v 0.04901815 0.17644547 -0.28558072
v 0.08627343 0.19390664 -0.30023284
v 0.10737826 0.17780101 -0.30023284
v 0.10912025 0.17644547 -0.30023284
v 0.05728529 0.19390664 -0.27825466
v 0.04902406 0.17644547 -0.28548167
v 0.04960866 0.17644547 -0.27824759
v 0.08629705 0.19390664 -0.29947228
v 0.10746683 0.17786938 -0.29290678
v 0.10932694 0.17644547 -0.29290678
v 0.10923245 0.17644547 -0.29661402
v 0.08688755 0.19359212 -0.29290678
v 0.05888557 0.19390664 -0.27438469
v 0.04979762 0.17644547 -0.27788323
v 0.08647420 0.19390664 -0.29290678
v 0.09898120 0.18431197 -0.28558072
v 0.10929740 0.17644547 -0.28921367
v 0.08647420 0.19390664 -0.29227358
v 0.05289780 0.17644547 -0.27322793
v 0.05983039 0.19390664 -0.27310059
v 0.10725424 0.17770870 -0.27952107
v 0.10925608 0.17644547 -0.28558072
v 0.08639743 0.19390664 -0.28558072
v 0.05413787 0.17644547 -0.27285652
v 0.06667440 0.19390664 -0.27156534
v 0.10696490 0.17748305 -0.27463584
v 0.10875414 0.17644547 -0.27847044
v 0.08633838 0.19390664 -0.28485200
v 0.08580102 0.19390664 -0.27825466
v 0.05917492 0.17644547 -0.27221624
v 0.06667440 0.18848112 -0.27146275
v 0.07400262 0.18848112 -0.27128589
v 0.07400262 0.19390664 -0.27196859
v 0.10208138 0.17907106 -0.27361351
v 0.10592559 0.17644547 -0.27399203
v 0.10846479 0.17644547 -0.27604022
v 0.08584825 0.19280069 -0.27406986
v 0.08371061 0.19390664 -0.27390004
v 0.06242272 0.17644547 -0.27222685
v 0.09600503 0.17644547 -0.27242847
v 0.08132495 0.18848112 -0.27195091
v 0.08082893 0.19390664 -0.27327745
v 0.10322106 0.17644547 -0.27315720
v 0.08843470 0.18835805 -0.27331637
f 1 2 3
f 1 3 4
f 1 4 5
f 1 5 6
f 1 6 2
f 2 7 8
f 2 8 3
f 2 6 10
f 2 10 16
f 2 16 21
f 2 21 29
f 2 29 34
f 2 34 41
f 2 41 40
f 2 40 47
f 2 47 52
f 2 52 57
f 2 57 66
f 2 66 65
f 2 65 73
f 2 73 70
f 2 70 69
f 2 69 60
f 2 60 54
f 2 54 49
f 2 49 44
f 2 44 37
f 2 37 36
f 2 36 31
f 2 31 26
f 2 26 25
f 2 25 23
f 2 23 17
f 2 17 11
f 2 11 7
f 3 8 4
f 4 8 13
f 4 13 12
f 4 12 19
f 4 19 18
f 4 18 24
f 4 24 30
f 4 30 35
f 4 35 43
f 4 43 50
f 4 50 55
f 4 55 63
f 4 63 72
f 4 72 68
f 4 68 59
f 4 59 58
f 4 58 53
f 4 53 48
f 4 48 45
f 4 45 38
f 4 38 32
f 4 32 27
f 4 27 20
f 4 20 14
f 4 14 9
f 4 9 5
f 5 10 6
f 5 9 10
f 7 11 12
f 7 12 13
f 7 13 8
f 9 14 15
f 9 15 10
f 10 15 16
f 11 17 18
f 11 18 19
f 11 19 12
f 14 20 16
f 14 16 15
f 16 20 22
f 16 22 21
f 17 23 18
f 18 23 25
f 18 25 26
f 18 26 24
f 20 27 22
f 21 28 29
f 21 22 28
f 22 27 28
f 24 26 30
f 26 31 30
f 27 32 28
f 28 33 29
f 28 32 33
f 29 33 34
f 30 31 36
f 30 36 37
f 30 37 35
f 32 38 33
f 33 39 40
f 33 40 41
f 33 41 34
f 33 38 42
f 33 42 39
f 35 37 43
f 37 44 43
f 38 45 42
f 39 46 47
f 39 47 40
f 39 42 48
f 39 48 46
f 42 45 48
f 43 44 49
f 43 49 50
f 46 51 52
f 46 52 47
f 46 48 53
f 46 53 51
f 49 54 50
f 50 54 55
f 51 56 57
f 51 57 52
f 51 53 58
f 51 58 59
f 51 59 56
f 54 60 61
f 54 61 55
f 55 61 62
f 55 62 63
f 56 64 65
f 56 65 66
f 56 66 57
f 56 59 67
f 56 67 64
f 59 68 67
f 60 69 62
f 60 62 61
f 62 69 70
f 62 70 71
f 62 71 63
f 63 71 72
f 64 73 65
f 64 67 68
f 64 68 74
f 64 74 73
f 68 72 74
f 70 73 71
f 71 73 74
f 71 74 72

