v -0.08903071 0.33771002 0.00595615
v -0.09018477 0.33910916 0.00485969
v -0.09153116 0.33910916 0.00485969
v -0.09283248 0.33728717 0.00595615
v -0.08177882 0.33257359 0.00595615
v -0.08635897 0.33686432 0.00019145
v -0.09002248 0.33918379 0.00019145
v -0.07716562 0.33070804 0.00019145
v -0.08082613 0.33320165 0.00019145
v -0.09165138 0.33918379 0.00019145
v -0.09474087 0.33640415 0.00019145
v -0.09474087 0.33637304 0.00090027
v -0.09474087 0.33506096 0.00595615
v -0.07354419 0.32605665 0.00595615
v -0.08072395 0.33324518 -0.00713487
v -0.08081411 0.33318921 -0.03644013
v -0.08085619 0.33315813 -0.05061653
v -0.09085797 0.33869875 -0.01205231
v -0.08720347 0.33675860 -0.05061653
v -0.07706344 0.33077023 -0.00713487
v -0.06905721 0.32361280 0.00222930
v -0.07192130 0.32649816 -0.00005221
v -0.06881378 0.32412271 -0.00266044
v -0.07255242 0.32722573 -0.00713487
v -0.09087600 0.33869875 -0.01205231
v -0.09453049 0.33562684 -0.05061653
v -0.09474087 0.33544650 -0.05061653
v -0.09474087 0.28378986 0.00595615
v -0.06993477 0.32262407 0.00595615
v -0.07710852 0.33073915 -0.02178750
v -0.07713257 0.33072049 -0.02911382
v -0.07719568 0.33061478 -0.05061653
v -0.07255242 0.32720083 -0.01446119
v -0.07255242 0.32716975 -0.02178750
v -0.06404129 0.31361352 0.00595615
v -0.06878372 0.32416003 -0.00713487
v -0.06404129 0.31409235 0.00019145
v -0.06404129 0.31409856 0.00009731
v -0.06880777 0.32413516 -0.02178750
v -0.09474087 0.30368890 -0.05061653
v -0.09162733 0.30166167 -0.05061653
v -0.08720347 0.30025629 -0.05061653
v -0.06404129 0.27565612 0.00595615
v -0.06883782 0.32409784 -0.02636714
v -0.07337288 0.32719462 -0.05061653
v -0.06404129 0.31416074 -0.00713487
v -0.06404129 0.31416074 -0.00720686
v -0.06404129 0.31415453 -0.02178750
v -0.06404129 0.31401774 -0.02911382
v -0.08164058 0.30062940 -0.05061653
v -0.06404129 0.29238374 -0.03556519
v -0.06404129 0.29113384 -0.03335012
v -0.06899109 0.32370607 -0.03125136
v -0.07310841 0.32695209 -0.05061653
v -0.06404129 0.31398042 -0.02933533
v -0.07771560 0.30438536 -0.05061653
v -0.06404129 0.29715951 -0.03856106
v -0.07287099 0.32650437 -0.05061653
v -0.06970035 0.32035433 -0.05061653
v -0.06404129 0.31226412 -0.03615772
v -0.07502882 0.30781173 -0.05061653
v -0.07184917 0.31261858 -0.05061653
v -0.07166885 0.31304766 -0.05061653
v -0.06404129 0.29832238 -0.03892101
v -0.06404129 0.31194698 -0.03655089
v -0.06404129 0.30409309 -0.03948585
v -0.06976347 0.31980711 -0.05061653
f 1 2 3
f 1 3 4
f 1 4 13
f 1 13 28
f 1 28 43
f 1 43 35
f 1 35 29
f 1 29 14
f 1 14 5
f 1 5 2
f 2 6 7
f 2 7 10
f 2 10 3
f 2 5 8
f 2 8 9
f 2 9 6
f 3 10 11
f 3 11 12
f 3 12 13
f 3 13 4
f 5 14 8
f 6 9 15
f 6 15 16
f 6 16 17
f 6 17 7
f 7 18 25
f 7 25 10
f 7 17 19
f 7 19 18
f 8 20 9
f 8 14 21
f 8 21 22
f 8 22 23
f 8 23 24
f 8 24 20
f 9 20 15
f 10 25 26
f 10 26 27
f 10 27 11
f 11 27 40
f 11 40 28
f 11 28 13
f 11 13 12
f 14 29 21
f 15 20 16
f 16 20 17
f 17 20 30
f 17 30 31
f 17 31 32
f 17 32 45
f 17 45 54
f 17 54 58
f 17 58 59
f 17 59 67
f 17 67 63
f 17 63 62
f 17 62 61
f 17 61 56
f 17 56 50
f 17 50 42
f 17 42 41
f 17 41 40
f 17 40 27
f 17 27 26
f 17 26 19
f 18 19 25
f 19 26 25
f 20 24 33
f 20 33 34
f 20 34 30
f 21 23 22
f 21 29 35
f 21 35 23
f 23 36 24
f 23 35 37
f 23 37 38
f 23 38 36
f 24 36 39
f 24 39 33
f 28 40 41
f 28 41 42
f 28 42 43
f 30 34 31
f 31 34 32
f 32 34 39
f 32 39 44
f 32 44 45
f 33 39 34
f 35 43 52
f 35 52 51
f 35 51 57
f 35 57 64
f 35 64 66
f 35 66 65
f 35 65 60
f 35 60 55
f 35 55 49
f 35 49 48
f 35 48 47
f 35 47 46
f 35 46 38
f 35 38 37
f 36 38 46
f 36 46 47
f 36 47 48
f 36 48 39
f 39 48 49
f 39 49 44
f 42 50 51
f 42 51 52
f 42 52 43
f 44 49 53
f 44 53 54
f 44 54 45
f 49 55 53
f 50 56 57
f 50 57 51
f 53 58 54
f 53 55 59
f 53 59 58
f 55 60 59
f 56 61 57
f 57 61 62
f 57 62 63
f 57 63 64
f 59 60 65
f 59 65 66
f 59 66 64
f 59 64 67
f 63 67 64

