v -0.05137985 0.29914997 -0.29146891
v -0.05138522 0.29914997 -0.29290655
v -0.07350748 0.32647819 -0.26360396
v -0.07351821 0.32648901 -0.25621123
v -0.05139059 0.29914997 -0.28558410
v -0.05166430 0.29914997 -0.29829935
v -0.07364165 0.32634488 -0.32148712
v -0.07782245 0.33015367 -0.25627512
v -0.07351821 0.32648901 -0.25627512
v -0.07407637 0.32671241 -0.32148712
v -0.07349138 0.32643857 -0.25621123
v -0.05215805 0.29914997 -0.27825527
v -0.07782245 0.33015367 -0.25621123
v -0.05181457 0.29914997 -0.30023541
v -0.07336257 0.32575031 -0.32148712
v -0.08152559 0.33272650 -0.27092643
v -0.08150412 0.33274091 -0.26360396
v -0.08148265 0.33275532 -0.25627512
v -0.07802102 0.33000954 -0.32148712
v -0.08165976 0.33264363 -0.31488669
v -0.07060937 0.32037763 -0.25621123
v -0.05788988 0.29914997 -0.27304776
v -0.07062547 0.32031636 -0.25621123
v -0.08145582 0.33273370 -0.25621123
v -0.05298455 0.29914997 -0.30235675
v -0.07085088 0.32037763 -0.32148712
v -0.08157389 0.33270129 -0.28558410
v -0.08720374 0.33595876 -0.25621123
v -0.08153096 0.33278056 -0.25621123
v -0.08155243 0.33271570 -0.27825527
v -0.08720374 0.33595876 -0.25627512
v -0.08168123 0.33262922 -0.32148712
v -0.08720374 0.33576057 -0.30755786
v -0.08720374 0.33578939 -0.30023541
v -0.08720374 0.33584705 -0.28558410
v -0.08720374 0.33587587 -0.27825527
v -0.06524786 0.29914997 -0.27205098
v -0.07277222 0.31301588 -0.25621123
v -0.07565423 0.30858007 -0.25621123
v -0.07846647 0.30494424 -0.25621123
v -0.07851477 0.30488298 -0.25621123
v -0.08214815 0.30095886 -0.25621123
v -0.05772887 0.29914997 -0.30573684
v -0.07299226 0.31305191 -0.32148712
v -0.07105482 0.31964613 -0.32148712
v -0.08726278 0.33595155 -0.25621123
v -0.08720374 0.33570292 -0.32148712
v -0.09445976 0.33444172 -0.32148712
v -0.07659343 0.29914997 -0.27185292
v -0.08712861 0.30095886 -0.25621123
v -0.05794354 0.29914997 -0.30580712
v -0.08229305 0.30108140 -0.32148712
v -0.07863821 0.30511361 -0.32148712
v -0.07834303 0.30547755 -0.32148712
v -0.07578303 0.30877465 -0.32148712
v -0.07327134 0.31261590 -0.32148712
v -0.09452953 0.33467595 -0.25627512
v -0.09456173 0.33465071 -0.25621123
v -0.09776039 0.33159143 -0.32148712
v -0.09820047 0.33137162 -0.29023571
v -0.09822730 0.33140765 -0.27825527
v -0.09824340 0.33142927 -0.27092643
v -0.09827561 0.33146892 -0.25627512
v -0.07996920 0.29914997 -0.27350141
v -0.08721448 0.30097327 -0.25621123
v -0.08716617 0.30095886 -0.25627512
v -0.08397288 0.29914997 -0.27812109
v -0.06598312 0.29914997 -0.30725754
v -0.08679049 0.30108140 -0.32148712
v -0.09827561 0.33146892 -0.25621123
v -0.09812533 0.33127432 -0.32148712
v -0.09814143 0.33129596 -0.31488669
v -0.10070680 0.32761328 -0.32148712
v -0.10090001 0.32770335 -0.26360396
v -0.10093221 0.32770335 -0.25627512
v -0.09083175 0.30207233 -0.25621123
v -0.08468668 0.29914997 -0.28558410
v -0.07677054 0.29914997 -0.30679111
v -0.09045607 0.30219484 -0.32148712
v -0.07917490 0.29914997 -0.30610741
v -0.08338789 0.29914997 -0.30323851
v -0.10093221 0.32770335 -0.25621123
v -0.09838294 0.33091038 -0.32148712
v -0.10436701 0.32175774 -0.32148712
v -0.10438311 0.32178657 -0.31488669
v -0.10451191 0.32200997 -0.25627512
v -0.10448508 0.32205321 -0.25621123
v -0.09452416 0.30451544 -0.25621123
v -0.09095519 0.30199665 -0.28558410
v -0.09093909 0.30201106 -0.29290655
v -0.09091226 0.30202909 -0.30023541
v -0.09088542 0.30205071 -0.30417137
v -0.08457934 0.29914997 -0.29028044
v -0.09452953 0.30478208 -0.32148712
v -0.08428417 0.29914997 -0.29731536
v -0.08449347 0.29914997 -0.29290655
v -0.10610587 0.31809306 -0.32148712
v -0.10452802 0.32197755 -0.25621123
v -0.09987493 0.30813686 -0.25621123
v -0.09972466 0.30830982 -0.32148712
v -0.09988030 0.30820172 -0.27092643
v -0.09983736 0.30823416 -0.28558410
v -0.10610587 0.31555267 -0.32148712
v -0.10611661 0.31812189 -0.31488669
v -0.10620785 0.31834531 -0.25621123
v -0.09995544 0.30819813 -0.25621123
v -0.09992324 0.30817289 -0.25627512
v -0.09990177 0.30818731 -0.26360396
v -0.10341171 0.31186637 -0.31488669
v -0.10339024 0.31188799 -0.32148712
v -0.10358881 0.31168621 -0.25627512
v -0.10611661 0.31553105 -0.31488669
v -0.10583753 0.31518873 -0.32148712
v -0.10620785 0.31537251 -0.25621123
v -0.10358881 0.31168621 -0.25621123
v -0.10618638 0.31531845 -0.25621123
v -0.10620248 0.31535087 -0.25627512
f 1 2 3
f 1 3 4
f 1 4 5
f 1 5 12
f 1 12 22
f 1 22 37
f 1 37 49
f 1 49 64
f 1 64 67
f 1 67 77
f 1 77 93
f 1 93 96
f 1 96 95
f 1 95 81
f 1 81 80
f 1 80 78
f 1 78 68
f 1 68 51
f 1 51 43
f 1 43 25
f 1 25 14
f 1 14 6
f 1 6 2
f 2 6 7
f 2 7 3
f 3 8 9
f 3 9 4
f 3 7 10
f 3 10 8
f 4 11 12
f 4 12 5
f 4 9 8
f 4 8 13
f 4 13 24
f 4 24 29
f 4 29 28
f 4 28 46
f 4 46 58
f 4 58 70
f 4 70 82
f 4 82 87
f 4 87 98
f 4 98 105
f 4 105 114
f 4 114 116
f 4 116 115
f 4 115 106
f 4 106 99
f 4 99 88
f 4 88 76
f 4 76 65
f 4 65 50
f 4 50 42
f 4 42 41
f 4 41 40
f 4 40 39
f 4 39 38
f 4 38 23
f 4 23 21
f 4 21 11
f 6 14 7
f 7 14 15
f 7 15 26
f 7 26 45
f 7 45 44
f 7 44 56
f 7 56 55
f 7 55 54
f 7 54 53
f 7 53 52
f 7 52 69
f 7 69 79
f 7 79 94
f 7 94 100
f 7 100 110
f 7 110 113
f 7 113 103
f 7 103 97
f 7 97 84
f 7 84 73
f 7 73 83
f 7 83 71
f 7 71 59
f 7 59 48
f 7 48 47
f 7 47 32
f 7 32 19
f 7 19 10
f 8 16 17
f 8 17 18
f 8 18 13
f 8 10 19
f 8 19 20
f 8 20 16
f 11 21 12
f 12 21 23
f 12 23 22
f 13 18 24
f 14 25 26
f 14 26 15
f 16 20 17
f 17 20 27
f 17 27 30
f 17 30 18
f 18 28 29
f 18 29 24
f 18 30 31
f 18 31 28
f 19 32 20
f 20 32 33
f 20 33 34
f 20 34 35
f 20 35 36
f 20 36 31
f 20 31 27
f 22 23 38
f 22 38 39
f 22 39 40
f 22 40 41
f 22 41 42
f 22 42 37
f 25 43 44
f 25 44 45
f 25 45 26
f 27 31 30
f 28 31 46
f 31 36 46
f 32 47 33
f 33 47 48
f 33 48 34
f 34 48 35
f 35 48 36
f 36 48 46
f 37 42 49
f 42 50 49
f 43 51 52
f 43 52 53
f 43 53 54
f 43 54 55
f 43 55 56
f 43 56 44
f 46 57 58
f 46 48 57
f 48 59 60
f 48 60 61
f 48 61 62
f 48 62 63
f 48 63 58
f 48 58 57
f 49 50 64
f 50 65 66
f 50 66 67
f 50 67 64
f 51 68 52
f 52 68 69
f 58 63 70
f 59 71 72
f 59 72 60
f 60 72 73
f 60 73 74
f 60 74 75
f 60 75 61
f 61 75 62
f 62 75 63
f 63 75 82
f 63 82 70
f 65 76 67
f 65 67 66
f 67 76 77
f 68 78 69
f 69 78 80
f 69 80 81
f 69 81 79
f 71 83 72
f 72 83 73
f 73 84 85
f 73 85 86
f 73 86 87
f 73 87 75
f 73 75 74
f 75 87 82
f 76 88 89
f 76 89 77
f 77 89 90
f 77 90 91
f 77 91 92
f 77 92 93
f 79 81 95
f 79 95 96
f 79 96 92
f 79 92 94
f 84 97 85
f 85 97 98
f 85 98 86
f 86 98 87
f 88 99 89
f 89 99 90
f 90 100 91
f 90 99 101
f 90 101 102
f 90 102 100
f 91 100 92
f 92 96 93
f 92 100 94
f 97 103 112
f 97 112 104
f 97 104 98
f 98 104 105
f 99 106 107
f 99 107 108
f 99 108 101
f 100 109 110
f 100 102 111
f 100 111 109
f 101 108 106
f 101 106 102
f 102 106 111
f 103 113 111
f 103 111 112
f 104 112 114
f 104 114 105
f 106 115 111
f 106 108 107
f 109 113 110
f 109 111 113
f 111 115 116
f 111 116 112
f 112 116 117
f 112 117 114
f 114 117 116

