v 0.04368599 -0.25117145 -0.26363229
v 0.04232736 -0.25690660 -0.26358941
v 0.04232736 -0.25691260 -0.26363229
v 0.04237715 -0.24617050 -0.26363229
v 0.04237715 -0.24617050 -0.26358941
v 0.04234870 -0.24611633 -0.25625775
v 0.04222778 -0.24614041 -0.24892610
v 0.04195036 -0.24632094 -0.24159444
v 0.04165872 -0.24656769 -0.23428420
v 0.04136708 -0.24695284 -0.22946074
v 0.04136708 -0.24818654 -0.22946074
v 0.04165872 -0.24890266 -0.23428420
v 0.04304580 -0.25117145 -0.25625775
v 0.04172985 -0.25591362 -0.25625775
v 0.03992309 -0.26057154 -0.26358941
v 0.03992309 -0.26057757 -0.26363229
v 0.03793138 -0.24249350 -0.26363229
v 0.03795272 -0.24245139 -0.25625775
v 0.03794561 -0.24247544 -0.24892610
v 0.01305639 -0.22267628 -0.04462572
v 0.03390529 -0.23997798 -0.18298401
v 0.03377014 -0.24009834 -0.17893230
v 0.01904574 -0.23285268 -0.05476570
v 0.03509320 -0.24957066 -0.19764734
v 0.04128883 -0.25522759 -0.25111274
v 0.01904574 -0.23285871 -0.05476570
v 0.03486557 -0.26382729 -0.24892610
v 0.03556268 -0.26477813 -0.25625775
v 0.03586143 -0.26630067 -0.26363229
v 0.01230239 -0.24101910 -0.04462572
v 0.03428229 -0.23976737 -0.26363229
v 0.00804867 -0.21865022 -0.04462572
v 0.01592303 -0.22927199 -0.04462572
v 0.01965747 -0.23182962 -0.06576319
v 0.02014118 -0.23134217 -0.07309485
v 0.02061776 -0.23105934 -0.08042651
v 0.01531129 -0.23644543 -0.04462572
v 0.02106590 -0.25770097 -0.15370025
v 0.01199652 -0.24144638 -0.04462572
v 0.00966338 -0.24468407 -0.04462572
v 0.03574051 -0.26644511 -0.26363229
v 0.01203209 -0.25516739 -0.09706210
v 0.02866995 -0.26636689 -0.22703831
v 0.02656443 -0.26964669 -0.22954651
v 0.03310150 -0.26909905 -0.26138134
v 0.03003569 -0.23677040 -0.26363229
v -0.00856785 -0.20990608 -0.05843153
v -0.00868877 -0.20996627 -0.04462572
v 0.02539075 -0.23352671 -0.25625775
v 0.02172743 -0.23118570 -0.25625775
v 0.01287856 -0.22473443 -0.19031568
v 0.00643397 -0.24884249 -0.04462572
v 0.03052650 -0.27051328 -0.26363229
v 0.00600718 -0.24936605 -0.04462572
v 0.00444938 -0.25486650 -0.06908602
v 0.02587445 -0.26964669 -0.22954651
v 0.02694143 -0.26991750 -0.23428420
v 0.02505642 -0.23352069 -0.26363229
v 0.02507776 -0.23352671 -0.26358941
v -0.00881681 -0.21005052 -0.06576319
v -0.01331237 -0.20921402 -0.04462572
v 0.01274341 -0.22484274 -0.19764734
v 0.02141444 -0.23160695 -0.26363229
v 0.01208188 -0.22532419 -0.21091721
v 0.01244465 -0.22508346 -0.20495756
v 0.03038423 -0.27057345 -0.26363229
v 0.00072915 -0.25141217 -0.04462572
v 0.00430711 -0.25486650 -0.06908602
v 0.02526271 -0.26991750 -0.23428420
v 0.00376651 -0.25513128 -0.07309485
v 0.02744647 -0.27020033 -0.24159444
v -0.00947123 -0.21045372 -0.07309485
v -0.01167633 -0.21005052 -0.06576319
v -0.01397390 -0.20920802 -0.04462572
v 0.01686197 -0.23161901 -0.26363229
v 0.01688332 -0.23160695 -0.26358941
v 0.01122829 -0.22532419 -0.21091721
v -0.00999761 -0.21076064 -0.07755387
v 0.02588867 -0.27065770 -0.26363229
v 0.02800130 -0.27041097 -0.24892610
v 0.02873396 -0.27057947 -0.25625775
v -0.00603553 -0.24955261 -0.04462572
v 0.02476478 -0.27020033 -0.24159444
v 0.00305518 -0.25557662 -0.08042651
v -0.01084408 -0.21045372 -0.07309485
v -0.01954357 -0.21006858 -0.04462572
v 0.01322000 -0.23414053 -0.26363229
v 0.01225260 -0.23335819 -0.25833720
v 0.01151994 -0.23262401 -0.25344943
v -0.00340364 -0.21779566 -0.13753630
v -0.01041729 -0.21076064 -0.07755387
v 0.02437355 -0.27068178 -0.26363229
v 0.02437355 -0.27068178 -0.26358941
v 0.02454427 -0.27041097 -0.24892610
v 0.02440912 -0.27057947 -0.25625775
v -0.00927206 -0.24739817 -0.04462572
v 0.00284179 -0.25581734 -0.08773673
v -0.01999170 -0.21021300 -0.04462572
v 0.00999059 -0.23778744 -0.26363229
v 0.00994791 -0.23784161 -0.26363229
v -0.02659278 -0.21677262 -0.04462572
v -0.02394666 -0.21389602 -0.04462572
v 0.02072446 -0.26841901 -0.26363229
v 0.02074580 -0.26840699 -0.25625775
v 0.01171199 -0.26216633 -0.17929674
v -0.00969885 -0.24710931 -0.04462572
v -0.00082153 -0.25334996 -0.08773673
v 0.00631304 -0.24305920 -0.26363229
v -0.02497808 -0.23273835 -0.08443535
v -0.02793719 -0.22153285 -0.04462572
v 0.00390877 -0.24669406 -0.26363229
v -0.00318313 -0.24707923 -0.23158307
v 0.01537531 -0.26474804 -0.26363229
v 0.01537531 -0.26474202 -0.23428420
v 0.01537531 -0.26474804 -0.24892610
v 0.01170488 -0.26216633 -0.18298401
v -0.01446472 -0.24375729 -0.04462572
v 0.00804156 -0.25959062 -0.18298401
v -0.01760165 -0.24013446 -0.13554260
v -0.02497808 -0.23298507 -0.08443535
v -0.02898283 -0.22919374 -0.04462572
v -0.02801543 -0.22182772 -0.04462572
v 0.00388743 -0.24674822 -0.26363229
v 0.00283467 -0.25117145 -0.26358941
v 0.00284179 -0.25118951 -0.26363229
v -0.00318313 -0.24802404 -0.23158307
v 0.00804156 -0.25959062 -0.26358941
v 0.01170488 -0.26216633 -0.26363229
v -0.01854771 -0.24086866 -0.04462572
v -0.01854771 -0.24086866 -0.08773673
v -0.01392411 -0.24413643 -0.09506840
v -0.01760165 -0.24020065 -0.13554260
v -0.02585301 -0.23408638 -0.06576319
v -0.02881923 -0.22978952 -0.04462572
v 0.00333260 -0.25592565 -0.26363229
v -0.00601419 -0.24967899 -0.17565236
v -0.00595017 -0.24966094 -0.18298401
v 0.00806290 -0.25960265 -0.26363229
v -0.00603553 -0.24968500 -0.16101047
v -0.01852638 -0.24086866 -0.09506840
v -0.02178424 -0.23846144 -0.04462572
v -0.01784350 -0.24047146 -0.12437361
v -0.02686309 -0.23445950 -0.04462572
v -0.02620867 -0.23423080 -0.05843153
f 1 2 3
f 1 3 16
f 1 16 29
f 1 29 41
f 1 41 53
f 1 53 66
f 1 66 79
f 1 79 92
f 1 92 103
f 1 103 113
f 1 113 128
f 1 128 138
f 1 138 135
f 1 135 125
f 1 125 123
f 1 123 111
f 1 111 108
f 1 108 100
f 1 100 99
f 1 99 87
f 1 87 75
f 1 75 63
f 1 63 58
f 1 58 46
f 1 46 31
f 1 31 17
f 1 17 4
f 1 4 5
f 1 5 6
f 1 6 7
f 1 7 8
f 1 8 9
f 1 9 10
f 1 10 11
f 1 11 12
f 1 12 13
f 1 13 2
f 2 14 15
f 2 15 16
f 2 16 3
f 2 13 12
f 2 12 11
f 2 11 14
f 4 17 18
f 4 18 6
f 4 6 5
f 6 18 19
f 6 19 20
f 6 20 7
f 7 21 22
f 7 22 8
f 7 20 21
f 8 22 9
f 9 22 10
f 10 22 23
f 10 23 26
f 10 26 11
f 11 24 25
f 11 25 14
f 11 26 24
f 14 25 15
f 15 27 28
f 15 28 29
f 15 29 16
f 15 25 30
f 15 30 27
f 17 31 18
f 18 31 32
f 18 32 20
f 18 20 19
f 20 32 48
f 20 48 61
f 20 61 74
f 20 74 86
f 20 86 98
f 20 98 102
f 20 102 101
f 20 101 110
f 20 110 122
f 20 122 121
f 20 121 134
f 20 134 143
f 20 143 141
f 20 141 129
f 20 129 117
f 20 117 106
f 20 106 96
f 20 96 82
f 20 82 67
f 20 67 54
f 20 54 52
f 20 52 40
f 20 40 39
f 20 39 30
f 20 30 37
f 20 37 33
f 20 33 23
f 20 23 34
f 20 34 35
f 20 35 36
f 20 36 22
f 20 22 21
f 22 36 35
f 22 35 34
f 22 34 23
f 23 33 26
f 24 26 37
f 24 37 30
f 24 30 25
f 26 33 37
f 27 38 29
f 27 29 28
f 27 30 39
f 27 39 40
f 27 40 38
f 29 38 42
f 29 42 43
f 29 43 44
f 29 44 45
f 29 45 41
f 31 46 32
f 32 47 48
f 32 46 49
f 32 49 50
f 32 50 51
f 32 51 47
f 38 40 42
f 40 52 42
f 41 45 53
f 42 52 54
f 42 54 55
f 42 55 44
f 42 44 43
f 44 56 69
f 44 69 57
f 44 57 45
f 44 55 68
f 44 68 56
f 45 57 53
f 46 58 59
f 46 59 49
f 47 60 61
f 47 61 48
f 47 51 62
f 47 62 60
f 49 59 50
f 50 59 63
f 50 63 64
f 50 64 65
f 50 65 62
f 50 62 51
f 53 57 66
f 54 67 55
f 55 67 68
f 56 68 70
f 56 70 69
f 57 69 83
f 57 83 71
f 57 71 66
f 58 63 59
f 60 72 85
f 60 85 73
f 60 73 74
f 60 74 61
f 60 62 65
f 60 65 64
f 60 64 72
f 63 75 76
f 63 76 77
f 63 77 64
f 64 77 91
f 64 91 78
f 64 78 72
f 66 71 80
f 66 80 81
f 66 81 79
f 67 82 70
f 67 70 68
f 69 70 84
f 69 84 83
f 70 82 84
f 71 83 94
f 71 94 80
f 72 78 91
f 72 91 85
f 73 85 86
f 73 86 74
f 75 87 88
f 75 88 89
f 75 89 90
f 75 90 76
f 76 90 77
f 77 90 91
f 79 81 93
f 79 93 92
f 80 94 95
f 80 95 81
f 81 95 93
f 82 96 97
f 82 97 84
f 83 84 97
f 83 97 94
f 85 91 86
f 86 91 98
f 87 99 88
f 88 99 89
f 89 99 100
f 89 100 101
f 89 101 102
f 89 102 98
f 89 98 90
f 90 98 91
f 92 93 103
f 93 104 103
f 93 95 97
f 93 97 105
f 93 105 104
f 94 97 95
f 96 106 107
f 96 107 97
f 97 107 105
f 100 108 101
f 101 109 110
f 101 108 111
f 101 111 112
f 101 112 109
f 103 104 105
f 103 105 114
f 103 114 115
f 103 115 113
f 105 116 114
f 105 107 116
f 106 117 118
f 106 118 116
f 106 116 107
f 109 119 132
f 109 132 120
f 109 120 121
f 109 121 122
f 109 122 110
f 109 112 119
f 111 123 112
f 112 123 124
f 112 124 125
f 112 125 126
f 112 126 132
f 112 132 119
f 113 127 128
f 113 115 118
f 113 118 127
f 114 116 115
f 115 116 118
f 117 129 130
f 117 130 131
f 117 131 127
f 117 127 118
f 120 133 134
f 120 134 121
f 120 132 133
f 123 125 124
f 125 135 126
f 126 135 132
f 127 136 137
f 127 137 135
f 127 135 138
f 127 138 128
f 127 131 139
f 127 139 130
f 127 130 140
f 127 140 136
f 129 141 130
f 130 141 140
f 130 139 131
f 132 142 143
f 132 143 144
f 132 144 133
f 132 135 142
f 133 144 134
f 134 144 143
f 135 137 140
f 135 140 142
f 136 140 137
f 140 141 143
f 140 143 142

