v 0.05843414 -0.20643419 0.17605366
v 0.05812627 -0.20684808 0.17605366
v 0.04137699 -0.22856937 0.16872888
v 0.04876580 -0.21875101 0.17034206
v 0.05715027 -0.20643419 0.16872888
v 0.05728783 -0.20643419 0.18095863
v 0.05540132 -0.21051019 0.17605366
v 0.05221785 -0.21453633 0.17605366
v 0.04883130 -0.21879218 0.17605366
v 0.04110843 -0.22856937 0.17220233
v 0.04083986 -0.22856937 0.16528448
v 0.05485109 -0.20969759 0.16872888
v 0.04014552 -0.22856937 0.16140409
v 0.03876994 -0.22856937 0.15442812
v 0.05561749 -0.20643419 0.16140409
v 0.05628563 -0.20643419 0.18185969
v 0.04857584 -0.21843680 0.17989770
v 0.04208442 -0.22695501 0.17455672
v 0.03748607 -0.22856937 0.17665678
v 0.03705375 -0.22856937 0.14629674
v 0.05393404 -0.20643419 0.15335992
v 0.05416330 -0.20643419 0.18292062
v 0.01538513 -0.22856937 0.19896538
v 0.03671313 -0.22856937 0.14489428
v 0.04845793 -0.21101942 0.14262710
v 0.05251261 -0.20643419 0.14674728
v 0.05255847 -0.20643419 0.18331302
v 0.04543822 -0.20643419 0.18374903
v 0.03976560 -0.20643419 0.18128564
v 0.03939223 -0.20643419 0.18101677
v 0.03709305 -0.20643419 0.17719451
v 0.00813388 -0.22856937 0.18637955
v 0.03514759 -0.22856937 0.13942250
v 0.04182242 -0.21930790 0.13942250
v 0.05090122 -0.20643419 0.13980036
v 0.03675898 -0.20643419 0.17608998
v 0.00261192 -0.22384329 0.15407932
v 0.00360757 -0.22471873 0.16140409
v 0.00421676 -0.22535796 0.16575681
v 0.00390234 -0.22856937 0.17367746
v 0.03121737 -0.22856937 0.13398705
v 0.03447290 -0.22667330 0.13508432
v 0.04125908 -0.21850182 0.13553484
v 0.04761294 -0.21014180 0.13773664
v 0.04985971 -0.20643419 0.13750410
v 0.03512794 -0.20643419 0.16928841
v 0.00073196 -0.22027004 0.12473662
v -0.00463279 -0.22345324 0.12476568
v -0.00194714 -0.22685314 0.14674728
v -0.00105629 -0.22808829 0.15407932
v 0.00225820 -0.22856937 0.16825654
v 0.01843761 -0.22856937 0.12475841
v 0.04713476 -0.20643419 0.13453205
v 0.03499693 -0.20643419 0.16872888
v 0.03181346 -0.20643419 0.15359246
v 0.03059508 -0.20643419 0.14764107
v 0.03041822 -0.20643419 0.14674728
v 0.03027412 -0.20643419 0.14067236
v 0.03024791 -0.20643419 0.13942250
v 0.03225888 -0.20643419 0.13511338
v 0.03737471 -0.20643419 0.13383446
v 0.04493384 -0.20643419 0.13409605
v 0.00805527 -0.22153550 0.12473662
v -0.00465244 -0.22346842 0.12473662
v 0.03344449 -0.20643419 0.16140409
v -0.00830099 -0.22831801 0.12476568
v -0.00318516 -0.22856937 0.14674728
v -0.00256287 -0.22856937 0.14931966
v -0.00140345 -0.22856937 0.15407932
v -0.00127900 -0.22856937 0.15457345
v -0.00086633 -0.22856937 0.15617211
v 0.01592226 -0.22856937 0.12473662
v 0.01655110 -0.22725621 0.12473662
v 0.01290254 -0.22471438 0.12473662
v -0.00830099 -0.22831366 0.12473662
v -0.00848440 -0.22856937 0.12474388
v -0.00827479 -0.22856937 0.12473662
f 1 2 3
f 1 3 4
f 1 4 5
f 1 5 15
f 1 15 21
f 1 21 26
f 1 26 35
f 1 35 45
f 1 45 53
f 1 53 62
f 1 62 61
f 1 61 60
f 1 60 59
f 1 59 58
f 1 58 57
f 1 57 56
f 1 56 55
f 1 55 65
f 1 65 54
f 1 54 46
f 1 46 36
f 1 36 31
f 1 31 30
f 1 30 29
f 1 29 28
f 1 28 27
f 1 27 22
f 1 22 16
f 1 16 6
f 1 6 2
f 2 6 7
f 2 7 3
f 3 7 8
f 3 8 9
f 3 9 10
f 3 10 19
f 3 19 23
f 3 23 32
f 3 32 40
f 3 40 51
f 3 51 71
f 3 71 70
f 3 70 69
f 3 69 68
f 3 68 67
f 3 67 76
f 3 76 77
f 3 77 72
f 3 72 52
f 3 52 41
f 3 41 33
f 3 33 24
f 3 24 20
f 3 20 14
f 3 14 13
f 3 13 11
f 3 11 4
f 4 12 5
f 4 11 13
f 4 13 12
f 5 12 13
f 5 13 14
f 5 14 15
f 6 16 17
f 6 17 7
f 7 17 8
f 8 17 9
f 9 17 10
f 10 17 18
f 10 18 19
f 14 20 21
f 14 21 15
f 16 22 23
f 16 23 17
f 17 23 18
f 18 23 19
f 20 24 25
f 20 25 21
f 21 25 26
f 22 27 23
f 23 27 28
f 23 28 29
f 23 29 30
f 23 30 31
f 23 31 32
f 24 33 34
f 24 34 25
f 25 34 35
f 25 35 26
f 31 36 37
f 31 37 38
f 31 38 39
f 31 39 32
f 32 39 40
f 33 41 42
f 33 42 43
f 33 43 34
f 34 43 35
f 35 43 44
f 35 44 45
f 36 46 47
f 36 47 48
f 36 48 37
f 37 48 38
f 38 48 49
f 38 49 50
f 38 50 39
f 39 50 51
f 39 51 40
f 41 52 42
f 42 52 43
f 43 52 53
f 43 53 45
f 43 45 44
f 46 54 47
f 47 55 56
f 47 56 57
f 47 57 58
f 47 58 59
f 47 59 60
f 47 60 61
f 47 61 62
f 47 62 63
f 47 63 74
f 47 74 73
f 47 73 72
f 47 72 77
f 47 77 75
f 47 75 64
f 47 64 48
f 47 54 65
f 47 65 55
f 48 64 49
f 49 64 66
f 49 66 67
f 49 67 68
f 49 68 50
f 50 68 69
f 50 69 70
f 50 70 71
f 50 71 51
f 52 72 73
f 52 73 62
f 52 62 53
f 62 73 74
f 62 74 63
f 64 75 66
f 66 75 76
f 66 76 67
f 75 77 76

