v -0.23625071 0.04428459 0.28233773
v -0.23603793 0.04428459 0.28233147
v -0.26431155 0.04428459 0.28232522
v -0.26431155 -0.35345578 0.28218124
v -0.23625071 -0.35345578 0.28218124
v -0.23135695 0.04428459 0.28211861
v -0.26898628 0.04428459 0.28216869
v -0.26898628 -0.35345578 0.28206228
v -0.26898628 -0.35813181 0.28153017
v -0.26431155 -0.35813181 0.28159905
v -0.24560640 -0.35813181 0.28159905
v -0.23625071 -0.35813181 0.28153643
v -0.23160726 -0.35837160 0.28112954
v -0.23157598 -0.35345578 0.28176180
v -0.23157598 -0.33007576 0.28179311
v -0.22640687 0.04428459 0.28135491
v -0.27366100 0.04428459 0.28172423
v -0.27366100 -0.33007576 0.28173049
v -0.27366100 -0.33475175 0.28173049
v -0.27366100 -0.35345578 0.28171798
v -0.27396765 -0.35853147 0.28113580
v -0.27261591 -0.36064965 0.28074767
v -0.26898628 -0.36072957 0.28081030
v -0.26431155 -0.36076955 0.28082281
v -0.24560640 -0.36076955 0.28082281
v -0.23625071 -0.36068963 0.28076022
v -0.23319054 -0.36060968 0.28071011
v -0.23007406 -0.36005018 0.28052232
v -0.22880995 -0.35693282 0.28086663
v -0.22859092 -0.35345578 0.28098556
v -0.22365335 0.04428459 0.28042843
v -0.27724683 0.04428459 0.28107946
v -0.27771618 0.03001677 0.28103564
v -0.27790392 -0.33475175 0.28107321
v -0.27778503 -0.35345578 0.28106069
v -0.27719677 -0.35725257 0.28091671
v -0.27573240 -0.36036989 0.28060371
v -0.27396765 -0.36196854 0.27874449
v -0.26898628 -0.36248810 0.27829376
v -0.26431155 -0.36252804 0.27829376
v -0.25028113 -0.36252804 0.27829376
v -0.24093168 -0.36248810 0.27829376
v -0.23625071 -0.36244812 0.27829376
v -0.23160726 -0.36196854 0.27869441
v -0.22758338 -0.35837160 0.27869441
v -0.22811530 -0.36164880 0.27740485
v -0.22678862 -0.35345578 0.27829376
v -0.22043674 0.04428459 0.27812474
v -0.22106255 0.04428459 0.27892602
v -0.27747212 0.04428459 0.28102938
v -0.28005667 0.03001677 0.28001527
v -0.28024441 -0.33007576 0.28019055
v -0.28023815 -0.33475175 0.28018429
v -0.28012552 -0.35345578 0.28005908
v -0.27888018 -0.35869131 0.27886969
v -0.27744708 -0.36164880 0.27748622
v -0.27366100 -0.36400680 0.27361129
v -0.25495586 -0.36400680 0.27361129
v -0.23157598 -0.36396682 0.27361129
v -0.22562462 -0.35813181 0.27361129
v -0.22751453 -0.36220833 0.27361129
v -0.22544939 -0.35345578 0.27361129
v -0.21958566 0.04428459 0.27608399
v -0.27979385 0.04428459 0.27969601
v -0.28105168 0.04428459 0.27737353
v -0.28109550 0.03001677 0.27768028
v -0.28110176 0.02534077 0.27768028
v -0.28111427 -0.33007576 0.27785556
v -0.28111427 -0.33475175 0.27784930
v -0.28108925 -0.35345578 0.27771785
v -0.28095156 -0.35697280 0.27713567
v -0.28056982 -0.36009012 0.27473809
v -0.27874250 -0.36192856 0.27335462
v -0.27366100 -0.36400680 0.25490641
v -0.27834198 -0.36240815 0.26893507
v -0.27834198 -0.36252804 0.26425884
v -0.25495586 -0.36400680 0.25490641
v -0.22738311 -0.36224827 0.24088400
v -0.22738937 -0.36224827 0.26425884
v -0.22743319 -0.36224827 0.26893507
v -0.23157598 -0.36396682 0.23152532
v -0.22539308 -0.35813181 0.26893507
v -0.22515528 -0.35345578 0.26893507
v -0.21895360 0.04428459 0.27201499
v -0.21905998 0.04428459 0.27361129
v -0.28170880 0.04428459 0.27361129
v -0.28175259 0.02534077 0.27361129
v -0.28177136 -0.30201970 0.27361129
v -0.28177136 -0.33007576 0.27361129
v -0.28176510 -0.33475175 0.27361129
v -0.28173382 -0.35345578 0.27361129
v -0.28112053 -0.35837160 0.27335462
v -0.28070752 -0.36052976 0.27161434
v -0.28080138 -0.36064965 0.26893507
v -0.27834198 -0.36252804 0.23620153
v -0.27366100 -0.36396682 0.23152532
v -0.28088274 -0.36076955 0.26425884
v -0.28088900 -0.36076955 0.24088400
v -0.22738937 -0.36224827 0.23620153
v -0.22529295 -0.35813181 0.23620153
v -0.22529295 -0.35813181 0.26425884
v -0.24560640 -0.36224827 0.22732485
v -0.23625071 -0.36224827 0.22733736
v -0.23157598 -0.36220833 0.22741876
v -0.22812783 -0.36164880 0.22805727
v -0.22748326 -0.36220833 0.23152532
v -0.22504889 -0.35345578 0.26425884
v -0.21879089 0.04428459 0.26749527
v -0.21883469 0.04428459 0.26893507
v -0.28217189 0.04428459 0.26915416
v -0.28210930 -0.33475175 0.26893507
v -0.28210304 -0.34877978 0.26893507
v -0.28209679 -0.35345578 0.26893507
v -0.28151480 -0.35813181 0.26893507
v -0.28165872 -0.35813181 0.26425884
v -0.28087023 -0.36076955 0.23620153
v -0.28078887 -0.36064965 0.23295259
v -0.27875501 -0.36196854 0.23144392
v -0.27747212 -0.36164880 0.22798841
v -0.27366100 -0.36224827 0.22735615
v -0.26898628 -0.36224827 0.22733111
v -0.26431155 -0.36224827 0.22732485
v -0.28166497 -0.35813181 0.24088400
v -0.22555579 -0.35813181 0.23152532
v -0.22504889 -0.35345578 0.23620153
v -0.24093168 -0.35813181 0.22523400
v -0.23625071 -0.35813181 0.22524653
v -0.23157598 -0.35813181 0.22548442
v -0.22752706 -0.35813181 0.22745631
v -0.21845296 0.04428459 0.23620153
v -0.21872206 0.04428459 0.26425884
v -0.28218440 0.04428459 0.26893507
v -0.28222819 -0.35345578 0.26425884
v -0.28237214 0.04428459 0.26447794
v -0.28237839 0.04428459 0.26425884
v -0.28163995 -0.35813181 0.23620153
v -0.28120814 -0.35841158 0.23144392
v -0.28059486 -0.36013010 0.22983512
v -0.27875501 -0.35841158 0.22746258
v -0.27366100 -0.35813181 0.22545312
v -0.26898628 -0.35813181 0.22528408
v -0.26431155 -0.35813181 0.22523400
v -0.28222819 -0.35345578 0.23620153
v -0.22538056 -0.35345578 0.23152532
v -0.21847173 0.04428459 0.23152532
v -0.23625071 -0.35345578 0.22500239
v -0.23157598 -0.35345578 0.22532165
v -0.22700138 0.04428459 0.21888638
v -0.22263330 0.04428459 0.22220418
v -0.22225782 0.04428459 0.22258603
v -0.21896611 0.04428459 0.22696803
v -0.28238465 0.04428459 0.25958263
v -0.28183395 -0.35345578 0.23152532
v -0.28093279 -0.35701277 0.22872083
v -0.27834198 -0.35345578 0.22668633
v -0.27366100 -0.35345578 0.22537799
v -0.26898628 -0.35345578 0.22509630
v -0.26431155 -0.35345578 0.22500239
v -0.28186522 -0.33007576 0.23152532
v -0.28237839 0.04428459 0.23620153
v -0.28211555 0.04428459 0.23152532
v -0.23157598 0.04428459 0.21839184
v -0.28105797 -0.35345578 0.22849547
v -0.28134583 0.04428459 0.22651731
v -0.27809166 0.04428459 0.22079567
v -0.27597020 0.04428459 0.21972521
v -0.27366100 0.04428459 0.21911799
v -0.27200889 0.04428459 0.21896149
v -0.26898628 0.04428459 0.21879247
v -0.26754694 0.04428459 0.21873614
v -0.26431155 0.04428459 0.21866102
v -0.23625071 0.04428459 0.21841688
v -0.28026945 0.04428459 0.22372536
v -0.27872372 0.04428459 0.22130274
f 1 2 6
f 1 6 16
f 1 16 31
f 1 31 49
f 1 49 48
f 1 48 63
f 1 63 85
f 1 85 84
f 1 84 109
f 1 109 108
f 1 108 131
f 1 131 130
f 1 130 145
f 1 145 151
f 1 151 150
f 1 150 149
f 1 149 148
f 1 148 162
f 1 162 172
f 1 172 171
f 1 171 170
f 1 170 169
f 1 169 168
f 1 168 167
f 1 167 166
f 1 166 165
f 1 165 174
f 1 174 173
f 1 173 164
f 1 164 161
f 1 161 160
f 1 160 152
f 1 152 135
f 1 135 134
f 1 134 132
f 1 132 110
f 1 110 86
f 1 86 65
f 1 65 64
f 1 64 50
f 1 50 32
f 1 32 17
f 1 17 7
f 1 7 3
f 1 3 4
f 1 4 5
f 1 5 2
f 2 5 6
f 3 7 8
f 3 8 4
f 4 8 9
f 4 9 10
f 4 10 11
f 4 11 5
f 5 11 12
f 5 12 13
f 5 13 14
f 5 14 15
f 5 15 6
f 6 15 16
f 7 17 18
f 7 18 19
f 7 19 8
f 8 19 20
f 8 20 21
f 8 21 9
f 9 21 22
f 9 22 23
f 9 23 10
f 10 23 24
f 10 24 25
f 10 25 11
f 11 25 12
f 12 25 26
f 12 26 27
f 12 27 13
f 13 27 28
f 13 28 29
f 13 29 14
f 14 29 30
f 14 30 16
f 14 16 15
f 16 30 31
f 17 32 33
f 17 33 34
f 17 34 18
f 18 34 19
f 19 34 20
f 20 35 36
f 20 36 21
f 20 34 35
f 21 37 22
f 21 36 37
f 22 37 38
f 22 38 39
f 22 39 23
f 23 39 24
f 24 39 40
f 24 40 41
f 24 41 25
f 25 41 42
f 25 42 43
f 25 43 26
f 26 43 27
f 27 43 44
f 27 44 28
f 28 45 29
f 28 44 46
f 28 46 45
f 29 47 30
f 29 45 47
f 30 47 48
f 30 48 49
f 30 49 31
f 32 50 33
f 33 50 51
f 33 51 52
f 33 52 34
f 34 52 53
f 34 53 35
f 35 54 36
f 35 53 54
f 36 54 55
f 36 55 37
f 37 55 56
f 37 56 38
f 38 57 39
f 38 56 57
f 39 57 40
f 40 57 58
f 40 58 41
f 41 58 59
f 41 59 42
f 42 59 43
f 43 59 44
f 44 59 46
f 45 46 60
f 45 60 47
f 46 59 61
f 46 61 60
f 47 60 62
f 47 62 63
f 47 63 48
f 50 64 51
f 51 64 65
f 51 65 66
f 51 66 67
f 51 67 52
f 52 68 69
f 52 69 53
f 52 67 68
f 53 69 70
f 53 70 54
f 54 70 71
f 54 71 55
f 55 72 56
f 55 71 72
f 56 72 73
f 56 73 57
f 57 74 77
f 57 77 58
f 57 73 75
f 57 75 76
f 57 76 95
f 57 95 74
f 58 77 81
f 58 81 59
f 59 78 79
f 59 79 80
f 59 80 61
f 59 81 78
f 60 61 82
f 60 82 83
f 60 83 62
f 61 80 82
f 62 83 84
f 62 84 85
f 62 85 63
f 65 86 66
f 66 87 67
f 66 86 87
f 67 87 68
f 68 88 89
f 68 89 69
f 68 87 88
f 69 89 90
f 69 90 91
f 69 91 70
f 70 91 71
f 71 91 92
f 71 92 72
f 72 92 93
f 72 93 73
f 73 93 94
f 73 94 75
f 74 95 96
f 74 96 81
f 74 81 77
f 75 94 97
f 75 97 76
f 76 97 98
f 76 98 95
f 78 81 99
f 78 99 100
f 78 100 101
f 78 101 79
f 79 101 80
f 80 101 82
f 81 102 103
f 81 103 104
f 81 104 105
f 81 105 106
f 81 106 99
f 81 96 122
f 81 122 102
f 82 101 107
f 82 107 83
f 83 107 108
f 83 108 109
f 83 109 84
f 86 110 87
f 87 110 88
f 88 110 89
f 89 111 112
f 89 112 113
f 89 113 90
f 89 110 111
f 90 113 91
f 91 113 114
f 91 114 92
f 92 114 93
f 93 114 94
f 94 114 115
f 94 115 97
f 95 98 116
f 95 116 117
f 95 117 118
f 95 118 96
f 96 118 119
f 96 119 120
f 96 120 121
f 96 121 122
f 97 115 123
f 97 123 98
f 98 123 116
f 99 106 100
f 100 124 125
f 100 125 107
f 100 107 101
f 100 106 124
f 102 126 103
f 102 122 142
f 102 142 126
f 103 126 127
f 103 127 104
f 104 127 128
f 104 128 105
f 105 128 129
f 105 129 124
f 105 124 106
f 107 125 130
f 107 130 131
f 107 131 108
f 110 132 111
f 111 133 112
f 111 132 134
f 111 134 135
f 111 135 133
f 112 133 113
f 113 133 115
f 113 115 114
f 115 133 123
f 116 123 136
f 116 136 117
f 117 136 137
f 117 137 138
f 117 138 118
f 118 138 119
f 119 138 139
f 119 139 140
f 119 140 120
f 120 140 141
f 120 141 142
f 120 142 121
f 121 142 122
f 123 133 143
f 123 143 136
f 124 129 144
f 124 144 125
f 125 144 145
f 125 145 130
f 126 142 158
f 126 158 146
f 126 146 127
f 127 146 128
f 128 146 147
f 128 147 129
f 129 147 148
f 129 148 149
f 129 149 150
f 129 150 151
f 129 151 144
f 133 135 152
f 133 152 143
f 136 143 137
f 137 143 153
f 137 153 154
f 137 154 138
f 138 154 139
f 139 154 155
f 139 155 140
f 140 155 156
f 140 156 157
f 140 157 141
f 141 157 158
f 141 158 142
f 143 159 153
f 143 152 160
f 143 160 161
f 143 161 159
f 144 151 145
f 146 162 147
f 146 158 162
f 147 162 148
f 153 163 154
f 153 159 164
f 153 164 163
f 154 163 155
f 155 163 165
f 155 165 166
f 155 166 156
f 156 166 167
f 156 167 168
f 156 168 157
f 157 168 169
f 157 169 170
f 157 170 171
f 157 171 158
f 158 171 172
f 158 172 162
f 159 161 164
f 163 164 173
f 163 173 174
f 163 174 165

