v 0.14643088 0.07680604 0.28320537
v 0.14643088 0.06197835 0.28320537
v 0.14643088 0.09083480 0.28314990
v 0.13789185 0.08148229 0.28320537
v 0.11917332 0.05342478 0.28320537
v 0.14643088 0.05342478 0.28314990
v 0.14643088 0.09471213 0.28303904
v -0.27366334 0.09083480 0.28314990
v -0.26428308 0.08148229 0.28320537
v -0.24089543 0.05342478 0.28320537
v -0.23622632 0.04874853 0.28281725
v -0.23601597 0.04429018 0.28231826
v 0.14643088 0.05262585 0.28298357
v 0.14643088 0.09551105 0.28298357
v -0.24556454 0.09551105 0.28298357
v -0.26428308 0.09551105 0.28292811
v -0.26895219 0.09551105 0.28281725
v -0.27366334 0.09551105 0.28259545
v -0.27833248 0.09083480 0.28248459
v -0.27833248 0.08615855 0.28270638
v -0.27833248 0.08148229 0.28276178
v -0.27366334 0.05810103 0.28314990
v -0.25027573 0.06277729 0.28320537
v -0.26895219 0.05342478 0.28314990
v -0.26428308 0.04874853 0.28276178
v -0.26428308 0.04429018 0.28231826
v 0.14643088 0.04874853 0.28215193
v -0.23134686 0.04429018 0.28209653
v 0.14643088 0.04566456 0.27827103
v 0.14643088 0.04620090 0.28087677
v 0.14643088 0.09851122 0.28193020
v 0.01628452 0.09913696 0.28170841
v -0.20816955 0.09910903 0.28170841
v -0.26428308 0.09908109 0.28165295
v -0.26895219 0.09900847 0.28154208
v -0.27366334 0.09872353 0.28132029
v -0.27723880 0.09829893 0.28098770
v -0.27858485 0.09572895 0.28148662
v -0.28089840 0.09431546 0.28087677
v -0.28123490 0.09083480 0.28115403
v -0.28148727 0.08615855 0.28143122
v -0.28152936 0.08148229 0.28148662
v -0.27833248 0.06277729 0.28276178
v -0.27366334 0.05342478 0.28309444
v -0.26895219 0.04874853 0.28270638
v -0.26895219 0.04429018 0.28215193
v -0.22638330 0.04429018 0.28132029
v 0.14643088 0.04528464 0.27361391
v 0.14643088 0.04559751 0.27749483
v 0.14643088 0.09912579 0.28170841
v 0.14643088 0.10087449 0.27827103
v 0.01628452 0.10088008 0.27827103
v -0.24556454 0.10085215 0.27827103
v -0.24556454 0.09910344 0.28165295
v -0.26428308 0.10082980 0.27827103
v -0.26895219 0.10075717 0.27827103
v -0.27366334 0.10047224 0.27827103
v -0.27858485 0.09908668 0.27854824
v -0.28035154 0.09743295 0.28032237
v -0.28157141 0.09572895 0.27854824
v -0.28249682 0.09083480 0.27827103
v -0.28274922 0.08615855 0.27827103
v -0.28283332 0.08148229 0.27827103
v -0.28152936 0.06277729 0.28148662
v -0.27833248 0.05810103 0.28265092
v -0.27833248 0.05342478 0.28237373
v -0.27366334 0.04874853 0.28242919
v -0.27366334 0.04429018 0.28170841
v -0.22360707 0.04429018 0.28037782
v 0.14643088 0.04521760 0.26890135
v 0.14643088 0.10134379 0.27361391
v 0.13789185 0.10134938 0.27361391
v 0.08177833 0.10135496 0.27361391
v -0.12866838 0.10136055 0.27361391
v -0.17073249 0.10136055 0.27361391
v -0.26895219 0.10135496 0.27361391
v -0.27366334 0.10134938 0.27361391
v -0.27833248 0.10049458 0.27361391
v -0.28106663 0.09829893 0.27721763
v -0.28274922 0.09551105 0.27361391
v -0.28321191 0.09083480 0.27361391
v -0.28283332 0.06277729 0.27827103
v -0.28140317 0.05810103 0.28137575
v -0.28270714 0.05810103 0.27827103
v -0.28115077 0.05342478 0.28109856
v -0.28089840 0.05012291 0.28087677
v -0.27850072 0.04863680 0.28143122
v -0.27744912 0.04429018 0.28098770
v -0.27723880 0.04429018 0.28104310
v -0.22104115 0.04429018 0.27888088
v 0.14643088 0.04519525 0.26424426
v 0.14643088 0.10135496 0.26973298
v 0.14643088 0.10136055 0.26424426
v -0.27366334 0.10136055 0.26424426
v -0.27833248 0.10083539 0.26424426
v -0.27833248 0.10077952 0.26890135
v -0.28144522 0.09874588 0.27361391
v -0.28165554 0.09902523 0.26890135
v -0.28291746 0.09551105 0.26890135
v -0.28321191 0.05342478 0.27361391
v -0.28295954 0.09551105 0.26424426
v -0.28300159 0.09551105 0.24550492
v -0.28321191 0.09083480 -0.27359665
v -0.28241268 0.05342478 0.27827103
v -0.28148727 0.04863680 0.27843734
v -0.28102458 0.04429018 0.27732851
v -0.28094045 0.04429018 0.27749483
v -0.27976267 0.04429018 0.27965707
v -0.27967853 0.04429018 0.27971250
v -0.22041020 0.04429018 0.27810470
v -0.21956892 0.04429018 0.27605334
v -0.21902210 0.04429018 0.27361391
v -0.21893796 0.04429018 0.27200609
v -0.21881178 0.04429018 0.26890135
v -0.21876969 0.04429018 0.26745988
v -0.21868556 0.04429018 0.26424426
v -0.21843319 0.04429018 0.23619069
v 0.14643088 0.04519525 -0.26422699
v 0.14643088 0.10136055 -0.26422699
v -0.27366334 0.10136055 -0.26422699
v -0.27833248 0.10084097 -0.20811988
v -0.28169759 0.09908668 0.08649784
v -0.28169759 0.09908109 0.26424426
v -0.28283332 0.04874853 0.26424426
v -0.28237063 0.04429018 0.26446602
v -0.28216031 0.04429018 0.26912313
v -0.28249682 0.04874853 0.27361391
v -0.28321191 0.05342478 -0.27359665
v -0.28287541 0.04874853 -0.23617343
v -0.28300159 0.09551105 -0.24548765
v -0.28295954 0.09551105 -0.26422699
v -0.28291746 0.09551105 -0.26888409
v -0.28274922 0.09551105 -0.27359665
v -0.28253890 0.09083480 -0.27825376
v -0.28274922 0.08615855 -0.27825376
v -0.28283332 0.08148229 -0.27825376
v -0.28169759 0.04429018 0.27361391
v -0.21843319 0.04429018 0.23147815
v -0.21847524 0.04429018 -0.23256971
v -0.21872764 0.04429018 -0.26422699
v -0.21876969 0.04429018 -0.26888409
v -0.21881178 0.04429018 -0.27032558
v -0.21893796 0.04429018 -0.27359665
v -0.22066260 0.04429018 -0.27803198
v -0.22646744 0.04429018 -0.28124759
v 0.14643088 0.04522318 -0.26888409
v 0.14643088 0.10134938 -0.27359665
v -0.27366334 0.10134938 -0.27359665
v -0.27833248 0.10083539 -0.26422699
v -0.28169759 0.09908668 -0.21277699
v -0.28237063 0.04429018 -0.26422699
v -0.28283332 0.06277729 -0.27825376
v -0.28270714 0.05810103 -0.27825376
v -0.28245477 0.05342478 -0.27825376
v -0.28249682 0.04874853 -0.27359665
v -0.28220236 0.04429018 -0.26888409
v -0.28283332 0.04874853 -0.26422699
v -0.28169759 0.09908109 -0.26422699
v -0.28165554 0.09902523 -0.26888409
v -0.28144522 0.09875146 -0.27359665
v -0.28110872 0.09830451 -0.27720036
v -0.28157141 0.09574012 -0.27858640
v -0.28089840 0.09433222 -0.28085954
v -0.28123490 0.09083480 -0.28119219
v -0.28148727 0.08615855 -0.28141392
v -0.28152936 0.08148229 -0.28146938
v -0.22718253 0.04429018 -0.28135852
v 0.14643088 0.04529022 -0.27359665
v 0.14643088 0.04523436 -0.26971571
v 0.14643088 0.10087449 -0.27825376
v 0.11917332 0.10088008 -0.27825376
v -0.24089543 0.10088008 -0.27825376
v -0.26428308 0.10086332 -0.27825376
v -0.26895219 0.10078511 -0.27825376
v -0.27366334 0.10049458 -0.27825376
v -0.27833248 0.10050017 -0.27359665
v -0.27833248 0.10077393 -0.26888409
v -0.28152936 0.06277729 -0.28146938
v -0.28140317 0.05810103 -0.28135852
v -0.28106663 0.04429018 -0.27736669
v -0.28110872 0.04429018 -0.27714493
v -0.28119282 0.05342478 -0.28113673
v -0.28094045 0.05004470 -0.28085954
v -0.28173968 0.04429018 -0.27359665
v -0.27862694 0.09909785 -0.27858640
v -0.28035154 0.09744971 -0.28030510
v -0.27862694 0.09574012 -0.28146938
v -0.27833248 0.09083480 -0.28246736
v -0.27833248 0.08615855 -0.28268908
v -0.27833248 0.08148229 -0.28274455
v -0.23155718 0.04429018 -0.28202377
v 0.14643088 0.04569808 -0.27825376
v -0.23622632 0.04429018 -0.28235643
v 0.14643088 0.09912579 -0.28169118
v 0.11917332 0.09913137 -0.28169118
v -0.24089543 0.09913137 -0.28169118
v -0.26428308 0.09911461 -0.28169118
v -0.26895219 0.09903081 -0.28158025
v -0.27366334 0.09874588 -0.28130306
v -0.27723880 0.09831010 -0.28097040
v -0.27833248 0.06277729 -0.28274455
v -0.27833248 0.05810103 -0.28263368
v -0.27833248 0.05342478 -0.28235643
v -0.27988885 0.04429018 -0.27958436
v -0.27749121 0.04429018 -0.28102586
v -0.27980472 0.04429018 -0.27969524
v -0.27366334 0.09551105 -0.28257822
v -0.27366334 0.09083480 -0.28313260
v 0.14643088 0.04578747 -0.27869728
v 0.13789185 0.04874853 -0.28213470
v 0.14643088 0.04874853 -0.28207923
v 0.14643088 0.04665902 -0.28102586
v 0.14643088 0.04622883 -0.28080407
v -0.26449340 0.04429018 -0.28230103
v -0.26428308 0.04874853 -0.28280001
v -0.23622632 0.04874853 -0.28280001
v 0.14643088 0.05342478 -0.28313260
v 0.14643088 0.09551105 -0.28296634
v -0.26428308 0.09551105 -0.28296634
v -0.26895219 0.09551105 -0.28285541
v -0.27366334 0.05810103 -0.28313260
v -0.27366334 0.05342478 -0.28307720
v -0.27366334 0.04874853 -0.28241189
v -0.27366334 0.04429018 -0.28169118
v 0.14643088 0.09163373 -0.28313260
v -0.04916723 0.05342478 -0.28318807
v -0.26920456 0.04429018 -0.28213470
v -0.26895219 0.04874853 -0.28268908
v -0.26895219 0.05342478 -0.28313260
f 1 2 6
f 1 6 13
f 1 13 27
f 1 27 30
f 1 30 29
f 1 29 49
f 1 49 48
f 1 48 70
f 1 70 91
f 1 91 118
f 1 118 146
f 1 146 169
f 1 169 168
f 1 168 192
f 1 192 209
f 1 209 213
f 1 213 212
f 1 212 211
f 1 211 217
f 1 217 225
f 1 225 218
f 1 218 194
f 1 194 170
f 1 170 147
f 1 147 119
f 1 119 93
f 1 93 92
f 1 92 71
f 1 71 51
f 1 51 50
f 1 50 31
f 1 31 14
f 1 14 7
f 1 7 3
f 1 3 4
f 1 4 9
f 1 9 23
f 1 23 10
f 1 10 5
f 1 5 2
f 2 5 6
f 3 7 8
f 3 8 9
f 3 9 4
f 5 10 11
f 5 11 12
f 5 12 6
f 6 12 13
f 7 14 15
f 7 15 8
f 8 15 16
f 8 16 17
f 8 17 18
f 8 18 19
f 8 19 20
f 8 20 21
f 8 21 43
f 8 43 22
f 8 22 9
f 9 22 23
f 10 23 22
f 10 22 24
f 10 24 25
f 10 25 11
f 11 25 26
f 11 26 12
f 12 27 13
f 12 26 46
f 12 46 68
f 12 68 89
f 12 89 88
f 12 88 109
f 12 109 108
f 12 108 107
f 12 107 106
f 12 106 137
f 12 137 126
f 12 126 125
f 12 125 151
f 12 151 156
f 12 156 184
f 12 184 181
f 12 181 180
f 12 180 204
f 12 204 206
f 12 206 205
f 12 205 224
f 12 224 227
f 12 227 214
f 12 214 193
f 12 193 191
f 12 191 167
f 12 167 145
f 12 145 144
f 12 144 143
f 12 143 142
f 12 142 141
f 12 141 140
f 12 140 139
f 12 139 138
f 12 138 117
f 12 117 116
f 12 116 115
f 12 115 114
f 12 114 113
f 12 113 112
f 12 112 111
f 12 111 110
f 12 110 90
f 12 90 69
f 12 69 47
f 12 47 28
f 12 28 29
f 12 29 30
f 12 30 27
f 14 31 15
f 15 31 32
f 15 32 33
f 15 33 34
f 15 34 16
f 16 34 17
f 17 34 35
f 17 35 18
f 18 35 36
f 18 36 37
f 18 37 38
f 18 38 19
f 19 38 39
f 19 39 40
f 19 40 41
f 19 41 20
f 20 41 42
f 20 42 21
f 21 42 64
f 21 64 43
f 22 44 24
f 22 43 44
f 24 44 25
f 25 45 26
f 25 44 45
f 26 45 46
f 28 47 48
f 28 48 49
f 28 49 29
f 31 50 32
f 32 50 51
f 32 51 52
f 32 52 53
f 32 53 33
f 33 54 34
f 33 53 54
f 34 54 53
f 34 53 55
f 34 55 56
f 34 56 35
f 35 56 57
f 35 57 36
f 36 57 37
f 37 57 58
f 37 58 59
f 37 59 38
f 38 59 39
f 39 59 60
f 39 60 61
f 39 61 40
f 40 61 41
f 41 61 62
f 41 62 63
f 41 63 42
f 42 63 82
f 42 82 64
f 43 64 65
f 43 65 44
f 44 65 66
f 44 66 67
f 44 67 46
f 44 46 45
f 46 67 68
f 47 69 70
f 47 70 48
f 51 71 72
f 51 72 73
f 51 73 52
f 52 73 74
f 52 74 75
f 52 75 76
f 52 76 53
f 53 76 77
f 53 77 55
f 55 77 56
f 56 77 57
f 57 77 78
f 57 78 58
f 58 78 79
f 58 79 59
f 59 79 60
f 60 79 80
f 60 80 61
f 61 80 81
f 61 81 62
f 62 81 63
f 63 81 100
f 63 100 82
f 64 83 65
f 64 82 84
f 64 84 83
f 65 83 66
f 66 83 85
f 66 85 86
f 66 86 87
f 66 87 88
f 66 88 89
f 66 89 68
f 66 68 67
f 69 90 91
f 69 91 70
f 71 92 72
f 72 92 73
f 73 92 93
f 73 93 74
f 74 93 119
f 74 119 120
f 74 120 94
f 74 94 75
f 75 94 76
f 76 94 77
f 77 94 95
f 77 95 96
f 77 96 78
f 78 97 79
f 78 96 98
f 78 98 97
f 79 97 80
f 80 97 98
f 80 98 99
f 80 99 81
f 81 99 101
f 81 101 102
f 81 102 130
f 81 130 103
f 81 103 128
f 81 128 100
f 82 100 84
f 83 84 104
f 83 104 85
f 84 100 104
f 85 104 86
f 86 88 87
f 86 104 105
f 86 105 106
f 86 106 107
f 86 107 108
f 86 108 109
f 86 109 88
f 90 110 91
f 91 110 111
f 91 111 112
f 91 112 113
f 91 113 114
f 91 114 115
f 91 115 116
f 91 116 117
f 91 117 138
f 91 138 118
f 94 120 121
f 94 121 95
f 95 122 123
f 95 123 96
f 95 121 122
f 96 123 98
f 98 123 99
f 99 123 101
f 100 124 125
f 100 125 126
f 100 126 127
f 100 127 104
f 100 128 129
f 100 129 124
f 101 123 102
f 102 123 122
f 102 122 150
f 102 150 130
f 103 130 131
f 103 131 132
f 103 132 133
f 103 133 134
f 103 134 135
f 103 135 136
f 103 136 152
f 103 152 128
f 104 127 106
f 104 106 105
f 106 127 137
f 118 139 140
f 118 140 141
f 118 141 142
f 118 142 143
f 118 143 144
f 118 144 145
f 118 145 146
f 118 138 139
f 119 147 148
f 119 148 120
f 120 148 149
f 120 149 121
f 121 149 150
f 121 150 122
f 124 129 125
f 125 129 151
f 126 137 127
f 128 152 153
f 128 153 154
f 128 154 155
f 128 155 156
f 128 156 151
f 128 151 157
f 128 157 129
f 129 157 151
f 130 150 158
f 130 158 131
f 131 158 132
f 132 159 133
f 132 158 159
f 133 160 161
f 133 161 162
f 133 162 134
f 133 159 160
f 134 162 163
f 134 163 164
f 134 164 165
f 134 165 135
f 135 165 136
f 136 165 166
f 136 166 178
f 136 178 152
f 145 167 168
f 145 168 169
f 145 169 146
f 147 170 171
f 147 171 172
f 147 172 148
f 148 172 173
f 148 173 174
f 148 174 175
f 148 175 176
f 148 176 177
f 148 177 149
f 149 177 158
f 149 158 150
f 152 178 153
f 153 178 179
f 153 179 154
f 154 180 181
f 154 181 155
f 154 179 182
f 154 182 183
f 154 183 180
f 155 184 156
f 155 181 184
f 158 177 159
f 159 177 176
f 159 176 160
f 160 176 161
f 161 185 186
f 161 186 162
f 161 176 185
f 162 186 163
f 163 187 188
f 163 188 164
f 163 186 187
f 164 188 165
f 165 188 189
f 165 189 166
f 166 189 190
f 166 190 201
f 166 201 178
f 167 191 168
f 168 191 193
f 168 193 192
f 170 194 195
f 170 195 171
f 171 195 196
f 171 196 172
f 172 196 197
f 172 197 173
f 173 197 174
f 174 197 198
f 174 198 175
f 175 185 176
f 175 198 199
f 175 199 200
f 175 200 185
f 178 201 202
f 178 202 179
f 179 202 203
f 179 203 182
f 180 183 204
f 182 203 183
f 183 203 205
f 183 205 206
f 183 206 204
f 185 200 186
f 186 200 187
f 187 200 207
f 187 207 188
f 188 207 208
f 188 208 189
f 189 208 190
f 190 208 221
f 190 221 201
f 192 193 209
f 193 210 211
f 193 211 212
f 193 212 213
f 193 213 209
f 193 214 215
f 193 215 216
f 193 216 217
f 193 217 210
f 194 218 195
f 195 218 219
f 195 219 196
f 196 219 197
f 197 219 220
f 197 220 198
f 198 220 207
f 198 207 199
f 199 207 200
f 201 221 222
f 201 222 202
f 202 222 203
f 203 222 223
f 203 223 224
f 203 224 205
f 207 220 208
f 208 220 219
f 208 219 225
f 208 225 226
f 208 226 221
f 210 217 211
f 214 227 228
f 214 228 215
f 215 222 229
f 215 229 226
f 215 226 216
f 215 228 222
f 216 226 217
f 217 226 225
f 218 225 219
f 221 226 229
f 221 229 222
f 222 228 227
f 222 227 223
f 223 227 224

