v -0.22795842 0.04428459 -0.21844059
v -0.22331656 0.04428459 -0.21858449
v -0.23271914 0.04428459 -0.21846561
v -0.26431135 -0.35345578 -0.22498484
v -0.23625372 -0.35345578 -0.22498484
v -0.22022615 0.04428459 -0.22016111
v -0.23157431 -0.35345578 -0.22531017
v -0.22753927 -0.35813181 -0.22743111
v -0.26898449 0.04428459 -0.21865958
v -0.26898449 -0.35345578 -0.22508493
v -0.26898449 -0.35813181 -0.22526638
v -0.26431135 -0.35813181 -0.22521006
v -0.24092686 -0.35813181 -0.22521006
v -0.23625372 -0.35813181 -0.22522258
v -0.23157431 -0.35813181 -0.22546033
v -0.21866218 0.04428459 -0.22325181
v -0.22814609 -0.36160882 -0.22803173
v -0.22556867 -0.35813181 -0.23151031
v -0.22538100 -0.35345578 -0.23151031
v -0.27366388 0.04428459 -0.21882850
v -0.27366388 -0.35345578 -0.22537273
v -0.27366388 -0.35813181 -0.22545407
v -0.27366388 -0.36224827 -0.22735603
v -0.26898449 -0.36224827 -0.22731224
v -0.26431135 -0.36224827 -0.22729972
v -0.24560625 -0.36224827 -0.22729972
v -0.24092686 -0.36224827 -0.22730598
v -0.23625372 -0.36224827 -0.22731849
v -0.23157431 -0.36220833 -0.22739356
v -0.21848076 0.04428459 -0.22786906
v -0.22504943 -0.35345578 -0.23618388
v -0.23157431 -0.36396682 -0.23151031
v -0.22750174 -0.36220833 -0.23151031
v -0.22530593 -0.35813181 -0.23618388
v -0.27816811 0.04428459 -0.22056153
v -0.27833703 -0.35345578 -0.22666781
v -0.27874991 -0.35837160 -0.22745613
v -0.27746120 -0.36164880 -0.22798794
v -0.27366388 -0.36396682 -0.23151031
v -0.21849327 0.04428459 -0.23260519
v -0.22504943 -0.35345578 -0.26424405
v -0.22529342 -0.35813181 -0.24554352
v -0.22738914 -0.36224827 -0.24554352
v -0.22740165 -0.36224827 -0.23618388
v -0.25495254 -0.36400680 -0.25489065
v -0.23157431 -0.36396682 -0.27359743
v -0.28139615 0.04428459 -0.22638002
v -0.28107085 -0.35345578 -0.22846968
v -0.28093322 -0.35697280 -0.22870743
v -0.28057663 -0.36009012 -0.22992743
v -0.27874991 -0.36196854 -0.23149780
v -0.27833703 -0.36244812 -0.23618388
v -0.27833703 -0.36252804 -0.24554352
v -0.27833703 -0.36256802 -0.26891761
v -0.27366388 -0.36400680 -0.25489065
v -0.21878103 0.04428459 -0.26891761
v -0.22529342 -0.35813181 -0.26424405
v -0.22534972 -0.35813181 -0.26891761
v -0.22515578 -0.35345578 -0.26891761
v -0.22738914 -0.36224827 -0.26891761
v -0.25495254 -0.36400680 -0.27359743
v -0.24092686 -0.36248810 -0.27827101
v -0.23625372 -0.36244812 -0.27827101
v -0.23167442 -0.36196854 -0.27865889
v -0.22805226 -0.36164880 -0.27735756
v -0.22742667 -0.36224827 -0.27359743
v -0.28146496 0.04428459 -0.22674915
v -0.28187787 -0.33007576 -0.23151031
v -0.28184659 -0.35345578 -0.23151031
v -0.28120222 -0.35837160 -0.23149780
v -0.28077683 -0.36064965 -0.23304314
v -0.28083313 -0.36072957 -0.23618388
v -0.28085815 -0.36076955 -0.24086369
v -0.28088318 -0.36076955 -0.24554352
v -0.28088943 -0.36080953 -0.26891761
v -0.27833703 -0.36240815 -0.27359743
v -0.27366388 -0.36396682 -0.27359743
v -0.27366388 -0.36400680 -0.26891761
v -0.21894996 0.04428459 -0.27359743
v -0.22553114 -0.35813181 -0.27359743
v -0.22544356 -0.35345578 -0.27359743
v -0.26898449 -0.36400680 -0.27359743
v -0.24560625 -0.36072957 -0.28079862
v -0.24092686 -0.36072957 -0.28077356
v -0.26898449 -0.36248810 -0.27827101
v -0.23625372 -0.36068963 -0.28074854
v -0.23330094 -0.36060968 -0.28069849
v -0.23018551 -0.35997022 -0.28047327
v -0.22882173 -0.35685290 -0.28084241
v -0.22755178 -0.35829168 -0.27865889
v -0.28218440 0.04428459 -0.23129134
v -0.28222819 -0.35345578 -0.23618388
v -0.28160884 -0.35813181 -0.23618388
v -0.28165889 -0.35813181 -0.24554352
v -0.28165889 -0.35813181 -0.26424405
v -0.28159633 -0.35813181 -0.26891761
v -0.28080185 -0.36068963 -0.27359743
v -0.28069551 -0.36052976 -0.27599991
v -0.27833703 -0.36136903 -0.27715110
v -0.27407052 -0.36200848 -0.27873398
v -0.22070161 0.04428459 -0.27807705
v -0.22680108 -0.35345578 -0.27827101
v -0.26898449 -0.36072957 -0.28079862
v -0.24560625 -0.35813181 -0.28157439
v -0.24092686 -0.35813181 -0.28154937
v -0.23625372 -0.35813181 -0.28152435
v -0.23167442 -0.35829168 -0.28111144
v -0.23157431 -0.35345578 -0.28173708
v -0.22860278 -0.35345578 -0.28096127
v -0.28238458 0.04428459 -0.23597115
v -0.28222819 -0.35345578 -0.26424405
v -0.28239084 0.04428459 -0.23618388
v -0.28209056 -0.35345578 -0.26891761
v -0.28132108 -0.35813181 -0.27359743
v -0.27855598 -0.35857142 -0.27945347
v -0.27590349 -0.36044984 -0.28060466
v -0.28089569 -0.35813181 -0.27683202
v -0.28005739 -0.35345578 -0.27997902
v -0.27278806 -0.36064965 -0.28073603
v -0.22650079 0.04428459 -0.28128034
v -0.26898449 -0.35813181 -0.28150558
v -0.26431135 -0.35813181 -0.28157439
v -0.23625372 -0.35345578 -0.28216250
v -0.23157431 -0.33942779 -0.28176210
v -0.22854648 -0.33475175 -0.28099880
v -0.28209682 -0.34877978 -0.26891761
v -0.28237833 0.04428459 -0.25956422
v -0.28237207 0.04428459 -0.26424405
v -0.28172148 -0.35345578 -0.27359743
v -0.27713590 -0.35733248 -0.28088620
v -0.27407052 -0.35857142 -0.28111144
v -0.28108336 -0.35345578 -0.27763910
v -0.27771770 -0.35345578 -0.28103008
v -0.28018252 -0.33475175 -0.28010413
v -0.23157431 0.04428459 -0.28206241
v -0.23157431 -0.33007576 -0.28177461
v -0.26898449 -0.35345578 -0.28203738
v -0.26431135 -0.35345578 -0.28216250
v -0.23625372 0.04428459 -0.28235646
v -0.28210308 -0.33007576 -0.26891761
v -0.28175272 -0.33007576 -0.27359743
v -0.28221568 0.04428459 -0.26891761
v -0.28110213 -0.33007576 -0.27778925
v -0.27366388 -0.35345578 -0.28167452
v -0.28021380 -0.33007576 -0.28012916
v -0.27787409 -0.33007576 -0.28105510
v -0.27366388 -0.33007576 -0.28171831
v -0.26898449 -0.33007576 -0.28204989
v -0.26431135 0.04428459 -0.28233144
v -0.28110838 -0.26461166 -0.27780802
v -0.28175901 0.04428459 -0.27359743
v -0.28022631 -0.26461166 -0.28014794
v -0.27788661 -0.26461166 -0.28106139
v -0.27366388 0.04428459 -0.28173082
v -0.26920344 0.04428459 -0.28215624
v -0.26898449 0.04428459 -0.28216875
v -0.26452404 0.04428459 -0.28232518
v -0.28110213 0.03001677 -0.27776423
v -0.28111464 0.04428459 -0.27717612
v -0.28019503 -0.00739129 -0.28011039
v -0.27784282 0.03001677 -0.28104888
v -0.27784282 -0.00271527 -0.28105510
v -0.27786158 -0.07289535 -0.28105510
v -0.27751750 0.04428459 -0.28103008
v -0.28107085 0.04428459 -0.27740136
v -0.28018252 0.03001677 -0.28010413
v -0.27767391 0.04428459 -0.28094250
v -0.27988849 0.04428459 -0.27962865
v -0.27983218 0.04428459 -0.27972250
f 1 2 6
f 1 6 16
f 1 16 30
f 1 30 40
f 1 40 56
f 1 56 79
f 1 79 101
f 1 101 120
f 1 120 135
f 1 135 139
f 1 139 149
f 1 149 157
f 1 157 156
f 1 156 155
f 1 155 154
f 1 154 164
f 1 164 167
f 1 167 169
f 1 169 168
f 1 168 165
f 1 165 159
f 1 159 151
f 1 151 142
f 1 142 128
f 1 128 127
f 1 127 112
f 1 112 110
f 1 110 91
f 1 91 67
f 1 67 47
f 1 47 35
f 1 35 20
f 1 20 9
f 1 9 3
f 1 3 4
f 1 4 5
f 1 5 2
f 2 5 7
f 2 7 8
f 2 8 6
f 3 9 4
f 4 10 11
f 4 11 12
f 4 12 13
f 4 13 5
f 4 9 10
f 5 13 14
f 5 14 15
f 5 15 7
f 6 8 16
f 7 15 8
f 8 15 17
f 8 17 18
f 8 18 19
f 8 19 16
f 9 20 10
f 10 21 22
f 10 22 11
f 10 20 21
f 11 22 23
f 11 23 12
f 12 23 24
f 12 24 25
f 12 25 26
f 12 26 13
f 13 26 27
f 13 27 28
f 13 28 14
f 14 28 29
f 14 29 15
f 15 29 17
f 16 19 31
f 16 31 30
f 17 29 32
f 17 32 33
f 17 33 18
f 18 33 34
f 18 34 31
f 18 31 19
f 20 35 36
f 20 36 21
f 21 36 22
f 22 37 38
f 22 38 23
f 22 36 37
f 23 39 24
f 23 38 39
f 24 39 25
f 25 39 32
f 25 32 26
f 26 32 27
f 27 32 28
f 28 32 29
f 30 31 41
f 30 41 40
f 31 34 42
f 31 42 57
f 31 57 41
f 32 43 44
f 32 44 33
f 32 39 55
f 32 55 45
f 32 45 61
f 32 61 46
f 32 46 60
f 32 60 43
f 33 44 34
f 34 44 43
f 34 43 42
f 35 47 48
f 35 48 36
f 36 48 49
f 36 49 37
f 37 50 38
f 37 49 50
f 38 50 51
f 38 51 39
f 39 51 52
f 39 52 53
f 39 53 54
f 39 54 55
f 40 41 56
f 41 57 58
f 41 58 59
f 41 59 56
f 42 43 60
f 42 60 57
f 45 55 78
f 45 78 82
f 45 82 61
f 46 61 62
f 46 62 63
f 46 63 64
f 46 64 65
f 46 65 66
f 46 66 60
f 47 67 68
f 47 68 69
f 47 69 48
f 48 69 49
f 49 69 70
f 49 70 50
f 50 70 71
f 50 71 51
f 51 71 52
f 52 71 72
f 52 72 73
f 52 73 53
f 53 73 74
f 53 74 75
f 53 75 54
f 54 76 77
f 54 77 78
f 54 78 55
f 54 75 76
f 56 59 79
f 57 60 66
f 57 66 58
f 58 80 59
f 58 66 80
f 59 80 81
f 59 81 79
f 61 82 85
f 61 85 62
f 62 83 84
f 62 84 63
f 62 85 103
f 62 103 83
f 63 84 86
f 63 86 87
f 63 87 64
f 64 87 88
f 64 88 65
f 65 88 89
f 65 89 90
f 65 90 80
f 65 80 66
f 67 91 68
f 68 92 69
f 68 91 92
f 69 92 70
f 70 93 71
f 70 92 93
f 71 93 72
f 72 93 73
f 73 93 94
f 73 94 74
f 74 94 75
f 75 94 95
f 75 95 96
f 75 96 97
f 75 97 76
f 76 97 98
f 76 98 99
f 76 99 77
f 77 82 78
f 77 99 100
f 77 100 85
f 77 85 82
f 79 81 102
f 79 102 101
f 80 90 102
f 80 102 81
f 83 103 122
f 83 122 104
f 83 104 105
f 83 105 84
f 84 105 106
f 84 106 86
f 85 100 103
f 86 106 87
f 87 106 107
f 87 107 88
f 88 107 89
f 89 108 109
f 89 109 102
f 89 102 90
f 89 107 108
f 91 110 92
f 92 111 95
f 92 95 94
f 92 94 93
f 92 110 112
f 92 112 111
f 95 111 96
f 96 111 113
f 96 113 114
f 96 114 98
f 96 98 97
f 98 115 116
f 98 116 99
f 98 114 117
f 98 117 118
f 98 118 115
f 99 116 100
f 100 116 119
f 100 119 103
f 101 102 109
f 101 109 120
f 103 119 121
f 103 121 122
f 104 122 138
f 104 138 123
f 104 123 105
f 105 123 106
f 106 123 107
f 107 123 108
f 108 123 124
f 108 124 120
f 108 120 125
f 108 125 109
f 109 125 120
f 111 126 113
f 111 112 127
f 111 127 128
f 111 128 126
f 113 129 114
f 113 126 141
f 113 141 129
f 114 129 117
f 115 118 130
f 115 130 116
f 116 130 131
f 116 131 121
f 116 121 119
f 117 129 132
f 117 132 118
f 118 133 130
f 118 132 134
f 118 134 133
f 120 124 136
f 120 136 135
f 121 131 137
f 121 137 138
f 121 138 122
f 123 139 135
f 123 135 136
f 123 136 124
f 123 138 139
f 126 140 141
f 126 128 140
f 128 142 140
f 129 141 143
f 129 143 132
f 130 133 144
f 130 144 131
f 131 144 137
f 132 143 145
f 132 145 134
f 133 134 145
f 133 145 146
f 133 146 144
f 137 144 147
f 137 147 148
f 137 148 138
f 138 148 149
f 138 149 139
f 140 142 141
f 141 150 143
f 141 142 151
f 141 151 150
f 143 150 152
f 143 152 145
f 144 146 147
f 145 152 146
f 146 152 153
f 146 153 147
f 147 153 154
f 147 154 155
f 147 155 148
f 148 155 156
f 148 156 157
f 148 157 149
f 150 151 158
f 150 158 152
f 151 159 158
f 152 158 160
f 152 160 161
f 152 161 162
f 152 162 163
f 152 163 153
f 153 163 162
f 153 162 154
f 154 162 161
f 154 161 164
f 158 159 165
f 158 165 166
f 158 166 160
f 160 166 161
f 161 166 164
f 164 166 167
f 165 168 166
f 166 168 169
f 166 169 167

