v 0.22453883 0.03767926 0.25490551
v 0.22457265 0.03767926 0.26425964
v 0.22461211 0.03767926 0.23620287
v 0.22493337 -0.35346819 0.23620287
v 0.22493337 -0.35346819 0.26425964
v 0.22465155 0.03767926 0.26893671
v 0.22485446 0.03767926 0.23152580
v 0.22524900 -0.35346819 0.23152580
v 0.22538991 -0.35814763 0.23152580
v 0.22514190 -0.35814763 0.23620287
v 0.22513626 -0.35814763 0.24087994
v 0.22514190 -0.35814763 0.26425964
v 0.22523209 -0.35814763 0.26893671
v 0.22502918 -0.35346819 0.26893671
v 0.22480936 0.03767926 0.27276852
v 0.22703004 0.03767926 0.22712485
v 0.22734005 -0.35346819 0.22741789
v 0.22737949 -0.35814763 0.22746296
v 0.22798820 -0.36164742 0.22807154
v 0.22732878 -0.36223727 0.23152580
v 0.22723859 -0.36223727 0.23620287
v 0.22723295 -0.36223727 0.24087994
v 0.22723859 -0.36223727 0.26425964
v 0.22727804 -0.36223727 0.26893671
v 0.22736258 -0.36223727 0.27361378
v 0.22544626 -0.35814763 0.27361378
v 0.22529408 -0.35346819 0.27361378
v 0.22486009 0.03767926 0.27361378
v 0.22880546 0.03767926 0.22621199
v 0.23146014 -0.35346819 0.22532165
v 0.23146014 -0.35814763 0.22548507
v 0.23146014 -0.36223727 0.22742351
v 0.23146014 -0.36396749 0.23152580
v 0.23146014 -0.36396749 0.27361378
v 0.22825875 -0.36137214 0.27829085
v 0.22697369 -0.35814763 0.27829085
v 0.22655660 -0.35346819 0.27829085
v 0.22652279 -0.33475038 0.27829085
v 0.22651716 -0.33007091 0.27829085
v 0.22558152 0.03767926 0.27631859
v 0.23146014 0.03767926 0.22491593
v 0.23613823 -0.35346819 0.22500045
v 0.23226049 0.03767926 0.22485958
v 0.23613823 -0.35814763 0.22523150
v 0.23613823 -0.36223727 0.22732208
v 0.27354600 -0.36396749 0.23152580
v 0.27354600 -0.36396749 0.27361378
v 0.23613823 -0.36251252 0.27829085
v 0.23146014 -0.36235522 0.27829085
v 0.22911545 -0.36050704 0.28063500
v 0.22874911 -0.35814763 0.28083224
v 0.22838275 -0.35346819 0.28103510
v 0.22834893 -0.33475038 0.28105765
v 0.22834329 -0.33007091 0.28106327
v 0.22607752 0.03767926 0.27812179
v 0.26419546 -0.35346819 0.22500045
v 0.24081630 -0.35814763 0.22522586
v 0.23613823 0.03767926 0.22464545
v 0.24065849 0.03767926 0.22463981
v 0.26397000 0.03767926 0.22462290
v 0.24081630 -0.36223727 0.22732208
v 0.26419546 -0.36223727 0.22732771
v 0.26887355 -0.36223727 0.22737279
v 0.27354600 -0.36223727 0.22747422
v 0.27741245 -0.36164742 0.22808281
v 0.27867497 -0.36196198 0.23129477
v 0.27822407 -0.36243387 0.23620287
v 0.27822407 -0.36247321 0.24087994
v 0.27822407 -0.36247321 0.26425964
v 0.27810008 -0.36223727 0.27361378
v 0.27728282 -0.36164742 0.27738360
v 0.27316836 -0.36188334 0.27868529
v 0.26887355 -0.36239456 0.27829085
v 0.26419546 -0.36251252 0.27829085
v 0.24081630 -0.36074299 0.28082097
v 0.23613823 -0.36074299 0.28080408
v 0.23146014 -0.36058569 0.28071389
v 0.23613823 -0.35814763 0.28158169
v 0.23146014 -0.35814763 0.28129995
v 0.23146014 -0.35346819 0.28180710
v 0.23146014 -0.33475038 0.28183527
v 0.23146014 -0.26459786 0.28184092
v 0.22834329 -0.26459786 0.28106327
v 0.22830949 0.03767926 0.28102383
v 0.26887355 -0.35346819 0.22510752
v 0.26887355 -0.35814763 0.22533293
v 0.26419546 -0.35814763 0.22523150
v 0.26419546 0.03767926 0.22462290
v 0.27354600 -0.35814763 0.22558086
v 0.27867497 -0.35854088 0.22753621
v 0.28053494 -0.36034975 0.22958173
v 0.28064204 -0.36058569 0.23269789
v 0.28070965 -0.36070365 0.23620287
v 0.28073219 -0.36070365 0.24087994
v 0.28073219 -0.36070365 0.26425964
v 0.28067586 -0.36062500 0.26814781
v 0.28056312 -0.36046770 0.27126397
v 0.28043911 -0.36003516 0.27361378
v 0.28080549 -0.35681065 0.27693844
v 0.27864680 -0.35842292 0.27871910
v 0.27447598 -0.36003516 0.28050541
v 0.27135912 -0.36050704 0.28064066
v 0.26887355 -0.36062500 0.28073643
v 0.26419546 -0.36074299 0.28082097
v 0.24081630 -0.35814763 0.28159858
v 0.23613823 -0.35346819 0.28217900
v 0.23613823 0.03767926 0.28218465
v 0.23146014 -0.00738508 0.28183527
v 0.22834893 -0.10561433 0.28106327
v 0.22834893 -0.00738508 0.28105765
v 0.22836584 0.03001125 0.28105200
v 0.23146014 0.03001125 0.28182964
v 0.23146014 0.03767926 0.28180144
v 0.27354600 -0.35346819 0.22540053
v 0.26887355 0.03767926 0.22472997
v 0.27354600 0.03767926 0.22496665
v 0.27822407 -0.35346819 0.22671350
v 0.28081111 -0.35724323 0.22874211
v 0.28107037 -0.35854088 0.23129477
v 0.28148181 -0.35814763 0.23620287
v 0.28151001 -0.35814763 0.24087994
v 0.28151001 -0.35814763 0.26425964
v 0.28119438 -0.35861952 0.26939878
v 0.28105910 -0.35771509 0.27361378
v 0.28156073 -0.35346819 0.27361378
v 0.28092947 -0.35346819 0.27744559
v 0.27975150 -0.35346819 0.27978413
v 0.27689393 -0.35692864 0.28088858
v 0.27316836 -0.35834427 0.28104638
v 0.26887355 -0.35814763 0.28144082
v 0.26419546 -0.35814763 0.28159858
v 0.26419546 -0.35346819 0.28217900
v 0.26419546 0.03767926 0.28217900
v 0.23446426 0.03767926 0.28204940
v 0.27822407 -0.33007091 0.22666842
v 0.27444779 0.03767926 0.22522022
v 0.28093512 -0.35346819 0.22851670
v 0.28097456 -0.33007091 0.22846599
v 0.28170728 -0.35346819 0.23152580
v 0.28211307 -0.35346819 0.23620287
v 0.28211307 -0.35346819 0.26425964
v 0.28196654 -0.35346819 0.26893671
v 0.28158893 -0.33475038 0.27361378
v 0.28095201 -0.33475038 0.27756391
v 0.27988113 -0.33007091 0.27991936
v 0.27986422 -0.33475038 0.27990245
v 0.27741245 -0.35346819 0.28101821
v 0.27354600 -0.35346819 0.28164930
v 0.26887355 -0.35346819 0.28203812
v 0.26887355 -0.33475038 0.28204378
v 0.26887355 0.02533177 0.28204378
v 0.26887355 0.03001125 0.28203812
v 0.26887355 0.03469070 0.28202685
v 0.26887355 0.03767926 0.28200996
v 0.27803243 0.03767926 0.22622888
v 0.28174672 -0.33007091 0.23152580
v 0.28174110 -0.33475038 0.23152580
v 0.27909770 0.03767926 0.22695018
v 0.28098021 -0.26459786 0.22845473
v 0.28175800 -0.26459786 0.23152580
v 0.28211872 0.03767926 0.23620287
v 0.28197782 -0.33475038 0.26893671
v 0.28211307 0.03767926 0.26425964
v 0.28159455 -0.26459786 0.27361378
v 0.28095767 -0.26459786 0.27761463
v 0.28094639 -0.33007091 0.27758083
v 0.27991495 -0.26459786 0.27995316
v 0.27754210 -0.33007091 0.28104072
v 0.27752519 -0.33475038 0.28104072
v 0.27354600 -0.33475038 0.28167750
v 0.27354600 -0.26459786 0.28168312
v 0.27354600 -0.00738508 0.28168312
v 0.27354600 0.02533177 0.28167750
v 0.27354600 0.03001125 0.28167185
v 0.27354600 0.03469070 0.28163241
v 0.27354600 0.03767926 0.28158731
v 0.28093512 0.03767926 0.22844909
v 0.28096894 0.03001125 0.22847162
v 0.28174110 0.03001125 0.23152580
v 0.28170728 0.03767926 0.23152580
v 0.28197782 0.02533177 0.26893671
v 0.28205673 0.03767926 0.26593325
v 0.28197216 0.03001125 0.26893671
v 0.28158893 0.02533177 0.27361378
v 0.28095201 -0.00738508 0.27758083
v 0.27757590 -0.26459786 0.28104638
v 0.27988113 -0.00738508 0.27991936
v 0.27754210 -0.00738508 0.28104072
v 0.27752519 0.02533177 0.28104072
v 0.27752519 0.03001125 0.28103510
v 0.27739556 0.03469070 0.28101255
v 0.27723772 0.03767926 0.28097873
v 0.28121128 0.03767926 0.22953665
v 0.28194400 0.03767926 0.26893671
v 0.28195527 0.03469070 0.26893671
v 0.28157765 0.03001125 0.27361378
v 0.28094639 0.03001125 0.27756391
v 0.28095201 0.02533177 0.27756391
v 0.27986422 0.03001125 0.27990245
v 0.27973459 0.03469070 0.27976158
v 0.27957678 0.03767926 0.27959254
v 0.28179182 0.03767926 0.27061030
v 0.28153818 0.03469070 0.27361378
v 0.28091819 0.03469070 0.27742304
v 0.28088437 0.03767926 0.27725401
v 0.28046166 0.03767926 0.27809361
v 0.28148746 0.03767926 0.27361378
v 0.28126764 0.03767926 0.27497744
f 1 2 6
f 1 6 15
f 1 15 28
f 1 28 40
f 1 40 55
f 1 55 84
f 1 84 113
f 1 113 134
f 1 134 107
f 1 107 133
f 1 133 154
f 1 154 176
f 1 176 192
f 1 192 201
f 1 201 206
f 1 206 205
f 1 205 208
f 1 208 207
f 1 207 202
f 1 202 194
f 1 194 182
f 1 182 163
f 1 163 161
f 1 161 180
f 1 180 193
f 1 193 177
f 1 177 158
f 1 158 155
f 1 155 136
f 1 136 116
f 1 116 115
f 1 115 88
f 1 88 60
f 1 60 59
f 1 59 58
f 1 58 43
f 1 43 41
f 1 41 29
f 1 29 16
f 1 16 7
f 1 7 3
f 1 3 4
f 1 4 5
f 1 5 2
f 2 5 6
f 3 7 4
f 4 8 9
f 4 9 10
f 4 10 11
f 4 11 5
f 4 7 8
f 5 11 12
f 5 12 13
f 5 13 14
f 5 14 6
f 6 14 15
f 7 16 8
f 8 17 18
f 8 18 9
f 8 16 17
f 9 18 19
f 9 19 20
f 9 20 10
f 10 20 21
f 10 21 22
f 10 22 11
f 11 22 23
f 11 23 12
f 12 23 24
f 12 24 25
f 12 25 13
f 13 26 14
f 13 25 26
f 14 26 27
f 14 27 15
f 15 27 28
f 16 29 17
f 17 30 18
f 17 29 30
f 18 30 31
f 18 31 19
f 19 31 32
f 19 32 33
f 19 33 20
f 20 33 21
f 21 33 22
f 22 33 34
f 22 34 23
f 23 34 24
f 24 34 25
f 25 34 35
f 25 35 26
f 26 36 37
f 26 37 27
f 26 35 36
f 27 37 38
f 27 38 39
f 27 39 40
f 27 40 28
f 29 41 30
f 30 42 31
f 30 41 43
f 30 43 42
f 31 42 44
f 31 44 32
f 32 45 33
f 32 44 45
f 33 45 61
f 33 61 46
f 33 46 47
f 33 47 34
f 34 47 74
f 34 74 48
f 34 48 49
f 34 49 35
f 35 50 36
f 35 49 50
f 36 51 52
f 36 52 37
f 36 50 51
f 37 52 53
f 37 53 54
f 37 54 38
f 38 54 39
f 39 54 55
f 39 55 40
f 42 56 57
f 42 57 44
f 42 43 58
f 42 58 59
f 42 59 60
f 42 60 88
f 42 88 56
f 44 57 45
f 45 57 61
f 46 61 62
f 46 62 63
f 46 63 64
f 46 64 65
f 46 65 66
f 46 66 67
f 46 67 68
f 46 68 69
f 46 69 47
f 47 69 70
f 47 70 71
f 47 71 72
f 47 72 73
f 47 73 74
f 48 74 104
f 48 104 75
f 48 75 76
f 48 76 49
f 49 76 77
f 49 77 50
f 50 77 78
f 50 78 79
f 50 79 51
f 51 79 80
f 51 80 52
f 52 80 53
f 53 80 81
f 53 81 54
f 54 81 82
f 54 82 83
f 54 83 84
f 54 84 55
f 56 85 86
f 56 86 87
f 56 87 57
f 56 88 115
f 56 115 85
f 57 87 62
f 57 62 61
f 62 87 63
f 63 87 86
f 63 86 64
f 64 86 89
f 64 89 65
f 65 89 90
f 65 90 91
f 65 91 66
f 66 91 92
f 66 92 93
f 66 93 67
f 67 93 68
f 68 93 94
f 68 94 95
f 68 95 69
f 69 95 96
f 69 96 70
f 70 96 97
f 70 97 98
f 70 98 71
f 71 98 99
f 71 99 100
f 71 100 101
f 71 101 72
f 72 101 102
f 72 102 103
f 72 103 73
f 73 103 104
f 73 104 74
f 75 104 131
f 75 131 105
f 75 105 78
f 75 78 76
f 76 78 77
f 78 105 106
f 78 106 79
f 79 106 80
f 80 106 81
f 81 106 82
f 82 106 107
f 82 107 108
f 82 108 109
f 82 109 83
f 83 109 84
f 84 110 111
f 84 111 112
f 84 112 113
f 84 109 110
f 85 114 89
f 85 89 86
f 85 115 116
f 85 116 114
f 89 114 117
f 89 117 90
f 90 117 118
f 90 118 91
f 91 118 119
f 91 119 120
f 91 120 92
f 92 120 93
f 93 120 121
f 93 121 94
f 94 121 122
f 94 122 95
f 95 122 96
f 96 122 123
f 96 123 97
f 97 123 124
f 97 124 98
f 98 124 99
f 99 124 125
f 99 125 126
f 99 126 127
f 99 127 100
f 100 127 128
f 100 128 101
f 101 128 129
f 101 129 102
f 102 129 130
f 102 130 103
f 103 130 131
f 103 131 104
f 105 131 132
f 105 132 106
f 106 132 107
f 107 134 112
f 107 112 108
f 107 132 133
f 108 112 110
f 108 110 109
f 110 112 111
f 112 134 113
f 114 135 117
f 114 116 135
f 116 136 135
f 117 137 118
f 117 135 138
f 117 138 137
f 118 137 139
f 118 139 119
f 119 139 140
f 119 140 120
f 120 140 121
f 121 140 141
f 121 141 122
f 122 141 142
f 122 142 123
f 123 142 124
f 124 142 125
f 125 142 143
f 125 143 144
f 125 144 126
f 126 144 145
f 126 145 146
f 126 146 127
f 127 147 128
f 127 146 147
f 128 147 148
f 128 148 129
f 129 148 130
f 130 148 149
f 130 149 131
f 131 149 132
f 132 149 150
f 132 150 151
f 132 151 133
f 133 151 152
f 133 152 153
f 133 153 154
f 135 136 155
f 135 155 138
f 137 138 139
f 138 156 157
f 138 157 139
f 138 155 158
f 138 158 159
f 138 159 160
f 138 160 156
f 139 157 140
f 140 157 156
f 140 156 160
f 140 160 161
f 140 161 141
f 141 162 142
f 141 161 163
f 141 163 181
f 141 181 162
f 142 162 143
f 143 162 164
f 143 164 165
f 143 165 144
f 144 166 167
f 144 167 145
f 144 165 166
f 145 168 169
f 145 169 147
f 145 147 146
f 145 167 168
f 147 169 148
f 148 169 170
f 148 170 149
f 149 170 150
f 150 170 171
f 150 171 172
f 150 172 151
f 151 172 173
f 151 173 174
f 151 174 152
f 152 174 153
f 153 174 154
f 154 174 175
f 154 175 176
f 158 177 178
f 158 178 159
f 159 178 160
f 160 178 179
f 160 179 161
f 161 179 180
f 162 181 164
f 163 182 183
f 163 183 181
f 164 181 184
f 164 184 165
f 165 167 166
f 165 184 185
f 165 185 167
f 167 186 168
f 167 185 187
f 167 187 188
f 167 188 186
f 168 170 169
f 168 186 170
f 170 186 171
f 171 186 172
f 172 188 189
f 172 189 173
f 172 186 188
f 173 189 190
f 173 190 174
f 174 190 175
f 175 191 176
f 175 190 191
f 176 191 192
f 177 193 178
f 178 193 179
f 179 193 180
f 181 183 184
f 182 194 195
f 182 195 183
f 183 196 184
f 183 195 196
f 184 196 197
f 184 197 198
f 184 198 185
f 185 198 187
f 187 198 199
f 187 199 189
f 187 189 188
f 189 199 190
f 190 199 191
f 191 199 192
f 192 199 200
f 192 200 201
f 194 202 196
f 194 196 195
f 196 202 203
f 196 203 197
f 197 199 198
f 197 203 204
f 197 204 199
f 199 204 205
f 199 205 206
f 199 206 200
f 200 206 201
f 202 207 203
f 203 207 208
f 203 208 204
f 204 208 205

