v 0.26419261 0.03767926 -0.22459675
v 0.26886995 0.03767926 -0.22469823
v 0.23613992 0.03767926 -0.22460239
v 0.23613992 -0.35346821 -0.22498009
v 0.26419261 -0.35346821 -0.22498009
v 0.27270198 0.03767926 -0.22486735
v 0.26886995 -0.35346821 -0.22508157
v 0.23146258 0.03767926 -0.22488427
v 0.23146258 -0.35346821 -0.22529015
v 0.23146258 -0.35814765 -0.22545927
v 0.23613992 -0.35814765 -0.22520560
v 0.26419261 -0.35814765 -0.22520560
v 0.26886995 -0.35814765 -0.22529579
v 0.27354727 0.03767926 -0.22491809
v 0.27354727 -0.35346821 -0.22534088
v 0.27354727 -0.35814765 -0.22550437
v 0.22703322 0.03767926 -0.22711103
v 0.22733752 -0.34878875 -0.22738162
v 0.22734316 -0.35346821 -0.22738725
v 0.22738260 -0.35814765 -0.22743799
v 0.22799121 -0.36164742 -0.22805247
v 0.23146258 -0.36223727 -0.22739853
v 0.23613992 -0.36223727 -0.22729707
v 0.24081724 -0.36223727 -0.22729707
v 0.26419261 -0.36223727 -0.22730270
v 0.26886995 -0.36223727 -0.22734216
v 0.27354727 -0.36223727 -0.22742108
v 0.27625223 0.03767926 -0.22566222
v 0.27822460 -0.35346821 -0.22664876
v 0.27822460 -0.33475038 -0.22661494
v 0.27822460 -0.33007092 -0.22660930
v 0.27822460 -0.36137216 -0.22827796
v 0.27822460 -0.35814765 -0.22701519
v 0.22613720 0.03767926 -0.22885862
v 0.22524681 -0.35346821 -0.23150818
v 0.22539897 -0.35814765 -0.23150818
v 0.22733752 -0.36223727 -0.23150818
v 0.23146258 -0.36396749 -0.23150818
v 0.27354727 -0.36396749 -0.23150818
v 0.27805555 0.03767926 -0.22617522
v 0.28093519 -0.35346821 -0.22848655
v 0.28095773 -0.33475038 -0.22845272
v 0.28095773 -0.33007092 -0.22844708
v 0.28059146 -0.36054637 -0.22911793
v 0.27822460 -0.36235524 -0.23150818
v 0.28076615 -0.35814765 -0.22879096
v 0.22485233 0.03767926 -0.23150818
v 0.22493123 -0.35346821 -0.23618721
v 0.22479034 0.03767926 -0.23236507
v 0.22515100 -0.35814765 -0.23618721
v 0.22724735 -0.36223727 -0.23618721
v 0.22723608 -0.36223727 -0.24553962
v 0.23146258 -0.36396749 -0.27359688
v 0.27822460 -0.36247321 -0.24553962
v 0.27822460 -0.36243389 -0.23618721
v 0.27354727 -0.36396749 -0.27359688
v 0.28093519 0.03767926 -0.22840762
v 0.28098028 -0.26459787 -0.22843017
v 0.28170725 -0.35346821 -0.23150818
v 0.28173542 -0.33007092 -0.23150818
v 0.28064779 -0.36062502 -0.23150818
v 0.28146492 -0.35814765 -0.23618721
v 0.28121696 -0.35814765 -0.23150818
v 0.22493123 -0.35346821 -0.26424447
v 0.22513974 -0.35814765 -0.24553962
v 0.22459874 0.03767926 -0.23618721
v 0.22454803 0.03767926 -0.26424447
v 0.22723608 -0.36223727 -0.26424447
v 0.22724735 -0.36223727 -0.26891786
v 0.22729243 -0.36223727 -0.27359688
v 0.22792359 -0.36164742 -0.27735702
v 0.23155276 -0.36196200 -0.27865926
v 0.23613992 -0.36247321 -0.27827591
v 0.24081724 -0.36251254 -0.27827591
v 0.27822460 -0.36247321 -0.26891786
v 0.28073795 -0.36074299 -0.26891786
v 0.28073233 -0.36070366 -0.24553962
v 0.28070978 -0.36070366 -0.24086623
v 0.28069289 -0.36066434 -0.23618721
v 0.26419261 -0.36251254 -0.27827591
v 0.26886995 -0.36239456 -0.27827591
v 0.27314153 -0.36188335 -0.27866488
v 0.27741312 -0.36164742 -0.27736829
v 0.27866980 -0.36200132 -0.27387876
v 0.28096339 0.03001124 -0.22845272
v 0.28174107 0.03001124 -0.23150818
v 0.28170725 0.03767926 -0.23150818
v 0.28175796 -0.26459787 -0.23150818
v 0.28211300 -0.35346821 -0.23618721
v 0.28151001 -0.35814765 -0.24553962
v 0.22503266 -0.35346821 -0.26891786
v 0.22520173 -0.35814765 -0.26891786
v 0.22513974 -0.35814765 -0.26424447
v 0.22465509 0.03767926 -0.26891786
v 0.22538206 -0.35814765 -0.27359688
v 0.22739951 -0.35830495 -0.27865926
v 0.22866181 -0.35684999 -0.28086348
v 0.23005374 -0.35999585 -0.28047449
v 0.23317573 -0.36062502 -0.28070000
v 0.23613992 -0.36070366 -0.28076764
v 0.24081724 -0.36074299 -0.28079581
v 0.24549458 -0.36074299 -0.28080146
v 0.28068161 -0.36066434 -0.27250324
v 0.28143675 -0.35814765 -0.26891786
v 0.28151001 -0.35814765 -0.26424447
v 0.26419261 -0.36074299 -0.28079581
v 0.26886995 -0.36062502 -0.28071127
v 0.27131005 -0.36050704 -0.28062105
v 0.27442638 -0.36003517 -0.28048576
v 0.27870360 -0.35861954 -0.27869872
v 0.28052945 -0.36031044 -0.27562071
v 0.28211300 0.03767926 -0.23618721
v 0.28197210 0.03767926 -0.23451290
v 0.28211300 -0.35346821 -0.26424447
v 0.28211862 0.03767926 -0.24854436
v 0.22530316 -0.35346821 -0.27359688
v 0.22488615 0.03767926 -0.27359688
v 0.22659928 -0.35346821 -0.27827591
v 0.22842513 -0.35346821 -0.28099877
v 0.23146258 -0.35346821 -0.28177110
v 0.23155276 -0.35830495 -0.28112843
v 0.23613992 -0.35814765 -0.28154559
v 0.24081724 -0.35814765 -0.28157379
v 0.26419261 -0.35814765 -0.28157379
v 0.28103100 -0.35850157 -0.27387876
v 0.28196648 -0.35346821 -0.26891786
v 0.26886995 -0.35814765 -0.28141593
v 0.27314153 -0.35834427 -0.28102131
v 0.27688339 -0.35688932 -0.28086910
v 0.27972924 -0.35346821 -0.27975291
v 0.28080559 -0.35720391 -0.27691166
v 0.28197775 -0.33007092 -0.26891786
v 0.28211300 0.03767926 -0.26424447
v 0.28211862 0.03767926 -0.25488642
v 0.22654293 -0.33007092 -0.27827591
v 0.22610901 0.03767926 -0.27806733
v 0.22835751 -0.33007092 -0.28103824
v 0.23613992 -0.35346821 -0.28216571
v 0.23146258 -0.33007092 -0.28181619
v 0.26419261 -0.35346821 -0.28216571
v 0.26886995 -0.35346821 -0.28201915
v 0.28155507 -0.35346821 -0.27359688
v 0.28158889 -0.33007092 -0.27359688
v 0.27354727 -0.35346821 -0.28162451
v 0.27739621 -0.35346821 -0.28099877
v 0.28092957 -0.35346821 -0.27741339
v 0.27984758 -0.33475038 -0.27986565
v 0.28197775 0.03001124 -0.26891786
v 0.28197210 0.03469070 -0.26891786
v 0.28201719 0.03767926 -0.26724919
v 0.22684724 0.03767926 -0.27914970
v 0.22835187 -0.26459787 -0.28104386
v 0.23613992 0.03767926 -0.28218260
v 0.26419261 0.03767926 -0.28218826
v 0.23146258 -0.26459787 -0.28181619
v 0.26886995 -0.33475038 -0.28202477
v 0.27354727 -0.33475038 -0.28165271
v 0.28095211 -0.33007092 -0.27755433
v 0.28095773 -0.26459787 -0.27758815
v 0.28158889 0.03001124 -0.27359688
v 0.27750891 -0.33475038 -0.28101569
v 0.27986449 -0.33007092 -0.27989385
v 0.28196082 0.03767926 -0.26891786
v 0.22832934 0.03767926 -0.28099877
v 0.22838005 0.03001124 -0.28102697
v 0.23146258 0.03001124 -0.28180492
v 0.23146258 0.03767926 -0.28178237
v 0.26586632 0.03767926 -0.28212623
v 0.26886995 0.02533177 -0.28202477
v 0.27354727 -0.26927732 -0.28165833
v 0.27752582 -0.33007092 -0.28101569
v 0.27755964 -0.26459787 -0.28102697
v 0.27989829 -0.26459787 -0.27992767
v 0.28095211 0.03001124 -0.27754305
v 0.28156635 0.03469070 -0.27359688
v 0.28152690 0.03767926 -0.27359688
v 0.22942258 0.03767926 -0.28128064
v 0.26886995 0.03767926 -0.28200784
v 0.26886995 0.03001124 -0.28201915
v 0.27354727 0.02533177 -0.28165271
v 0.27354727 -0.00738509 -0.28165833
v 0.27752582 -0.00738509 -0.28102131
v 0.27986449 -0.00738509 -0.27988821
v 0.27984758 0.03001124 -0.27988257
v 0.28093519 0.03469070 -0.27741903
v 0.28090702 0.03767926 -0.27725554
v 0.27054364 0.03767926 -0.28186694
v 0.27354727 0.03001124 -0.28164705
v 0.27750891 0.02533177 -0.28101569
v 0.27750891 0.03001124 -0.28101004
v 0.27737930 0.03469070 -0.28098749
v 0.27722715 0.03767926 -0.28096495
v 0.27806119 0.03767926 -0.28052522
v 0.27971797 0.03469070 -0.27975855
v 0.27956018 0.03767926 -0.27959506
v 0.27354727 0.03767926 -0.28157379
v 0.27354727 0.03469070 -0.28160761
v 0.27491667 0.03767926 -0.28135394
f 1 2 6
f 1 6 14
f 1 14 28
f 1 28 40
f 1 40 57
f 1 57 87
f 1 87 113
f 1 113 112
f 1 112 115
f 1 115 134
f 1 134 133
f 1 133 150
f 1 150 163
f 1 163 176
f 1 176 186
f 1 186 195
f 1 195 193
f 1 193 192
f 1 192 198
f 1 198 196
f 1 196 187
f 1 187 178
f 1 178 168
f 1 168 154
f 1 154 153
f 1 153 167
f 1 167 177
f 1 177 164
f 1 164 151
f 1 151 136
f 1 136 117
f 1 117 94
f 1 94 67
f 1 67 66
f 1 66 49
f 1 49 47
f 1 47 34
f 1 34 17
f 1 17 8
f 1 8 3
f 1 3 4
f 1 4 5
f 1 5 7
f 1 7 2
f 2 7 6
f 3 8 4
f 4 9 10
f 4 10 11
f 4 11 12
f 4 12 5
f 4 8 9
f 5 12 13
f 5 13 7
f 6 7 15
f 6 15 14
f 7 13 16
f 7 16 15
f 8 17 9
f 9 18 19
f 9 19 20
f 9 20 10
f 9 17 18
f 10 20 21
f 10 21 22
f 10 22 11
f 11 22 23
f 11 23 24
f 11 24 12
f 12 24 25
f 12 25 26
f 12 26 27
f 12 27 13
f 13 27 16
f 14 15 28
f 15 16 29
f 15 29 30
f 15 30 31
f 15 31 28
f 16 32 33
f 16 33 29
f 16 27 32
f 17 34 18
f 18 35 19
f 18 34 35
f 19 35 20
f 20 35 36
f 20 36 21
f 21 36 37
f 21 37 38
f 21 38 22
f 22 38 23
f 23 38 39
f 23 39 24
f 24 39 25
f 25 39 26
f 26 39 27
f 27 39 32
f 28 31 40
f 29 33 41
f 29 41 42
f 29 42 30
f 30 42 43
f 30 43 31
f 31 43 40
f 32 44 33
f 32 39 45
f 32 45 44
f 33 46 41
f 33 44 46
f 34 47 35
f 35 48 36
f 35 47 49
f 35 49 48
f 36 48 50
f 36 50 37
f 37 51 38
f 37 50 51
f 38 51 52
f 38 52 68
f 38 68 53
f 38 53 56
f 38 56 39
f 39 54 55
f 39 55 45
f 39 56 75
f 39 75 54
f 40 43 58
f 40 58 57
f 41 46 59
f 41 59 42
f 42 60 58
f 42 58 43
f 42 59 60
f 44 45 61
f 44 61 62
f 44 62 63
f 44 63 59
f 44 59 46
f 45 55 61
f 48 64 93
f 48 93 65
f 48 65 50
f 48 49 66
f 48 66 67
f 48 67 64
f 50 65 52
f 50 52 51
f 52 65 93
f 52 93 68
f 53 68 69
f 53 69 70
f 53 70 71
f 53 71 72
f 53 72 73
f 53 73 74
f 53 74 80
f 53 80 56
f 54 75 76
f 54 76 77
f 54 77 78
f 54 78 55
f 55 78 79
f 55 79 61
f 56 80 81
f 56 81 82
f 56 82 83
f 56 83 84
f 56 84 75
f 57 85 86
f 57 86 87
f 57 58 85
f 58 60 88
f 58 88 86
f 58 86 85
f 59 63 89
f 59 89 60
f 60 89 88
f 61 79 62
f 62 90 89
f 62 89 63
f 62 79 78
f 62 78 77
f 62 77 90
f 64 91 92
f 64 92 93
f 64 67 91
f 67 94 91
f 68 93 69
f 69 93 70
f 70 93 92
f 70 92 95
f 70 95 71
f 71 95 96
f 71 96 97
f 71 97 98
f 71 98 72
f 72 98 99
f 72 99 73
f 73 99 100
f 73 100 101
f 73 101 74
f 74 101 102
f 74 102 80
f 75 84 103
f 75 103 76
f 76 103 104
f 76 104 105
f 76 105 90
f 76 90 77
f 80 102 106
f 80 106 81
f 81 106 107
f 81 107 82
f 82 107 108
f 82 108 109
f 82 109 83
f 83 109 110
f 83 110 111
f 83 111 84
f 84 111 103
f 86 112 113
f 86 113 87
f 86 88 112
f 88 89 112
f 89 90 105
f 89 105 114
f 89 114 134
f 89 134 115
f 89 115 112
f 91 116 95
f 91 95 92
f 91 94 117
f 91 117 116
f 95 116 118
f 95 118 96
f 96 118 97
f 97 118 119
f 97 119 120
f 97 120 121
f 97 121 98
f 98 121 99
f 99 121 122
f 99 122 100
f 100 122 101
f 101 122 123
f 101 123 102
f 102 123 124
f 102 124 106
f 103 111 125
f 103 125 104
f 104 125 126
f 104 126 114
f 104 114 105
f 106 124 107
f 107 124 127
f 107 127 108
f 108 127 128
f 108 128 109
f 109 128 129
f 109 129 110
f 110 129 130
f 110 130 131
f 110 131 111
f 111 131 125
f 114 126 132
f 114 132 148
f 114 148 133
f 114 133 134
f 116 135 118
f 116 117 135
f 117 136 135
f 118 135 137
f 118 137 119
f 119 137 120
f 120 138 122
f 120 122 121
f 120 137 139
f 120 139 138
f 122 138 123
f 123 138 140
f 123 140 124
f 124 140 141
f 124 141 127
f 125 131 142
f 125 142 126
f 126 142 143
f 126 143 132
f 127 141 144
f 127 144 128
f 128 144 129
f 129 144 145
f 129 145 130
f 130 146 131
f 130 145 147
f 130 147 146
f 131 146 142
f 132 143 160
f 132 160 148
f 133 148 149
f 133 149 150
f 135 136 137
f 136 151 137
f 137 152 139
f 137 151 152
f 138 139 153
f 138 153 154
f 138 154 140
f 139 152 155
f 139 155 153
f 140 154 156
f 140 156 141
f 141 156 157
f 141 157 144
f 142 146 158
f 142 158 143
f 143 158 159
f 143 159 160
f 144 157 161
f 144 161 145
f 145 161 162
f 145 162 147
f 146 147 162
f 146 162 158
f 148 160 149
f 149 160 163
f 149 163 150
f 151 164 152
f 152 164 165
f 152 165 166
f 152 166 155
f 153 166 167
f 153 155 166
f 154 168 169
f 154 169 156
f 156 170 157
f 156 169 181
f 156 181 170
f 157 171 161
f 157 170 172
f 157 172 171
f 158 162 173
f 158 173 159
f 159 173 174
f 159 174 160
f 160 174 175
f 160 175 163
f 161 171 162
f 162 171 173
f 163 175 176
f 164 177 165
f 165 177 166
f 166 177 167
f 168 178 179
f 168 179 169
f 169 179 188
f 169 188 180
f 169 180 181
f 170 181 172
f 171 172 173
f 172 181 182
f 172 182 173
f 173 182 183
f 173 183 174
f 174 183 184
f 174 184 185
f 174 185 175
f 175 185 176
f 176 185 186
f 178 187 188
f 178 188 179
f 180 188 190
f 180 190 189
f 180 189 182
f 180 182 181
f 182 189 184
f 182 184 183
f 184 189 190
f 184 190 191
f 184 191 192
f 184 192 193
f 184 193 194
f 184 194 186
f 184 186 185
f 186 194 195
f 187 196 197
f 187 197 188
f 188 197 190
f 190 197 191
f 191 197 198
f 191 198 192
f 193 195 194
f 196 198 197

