v 0.28312603 0.09083246 0.27361391
v 0.28295214 0.09551092 0.26424424
v 0.28288523 0.09551092 0.26890135
v 0.28265782 0.09551092 0.27361391
v 0.28249728 0.09083246 0.27827101
v 0.28269796 0.08616024 0.27827101
v 0.28273807 0.08148177 0.27827101
v 0.28312603 0.05342347 0.27361391
v 0.28312603 0.09083246 -0.27359661
v 0.28166788 0.09911165 0.25021747
v 0.28166788 0.09910543 0.26424424
v 0.28295214 0.09551092 -0.26422694
v 0.28168126 0.09911789 -0.01634668
v 0.28161435 0.09900576 0.26890135
v 0.28097222 0.09828934 0.27732851
v 0.28153410 0.09586602 0.27865912
v 0.28137356 0.09870674 0.27361391
v 0.28090535 0.09454533 0.28093223
v 0.28121301 0.09083246 0.28126489
v 0.28141370 0.08616024 0.28143119
v 0.28145384 0.08148177 0.28148665
v 0.28273807 0.06278040 0.27827101
v 0.28263106 0.05810193 0.27827101
v 0.28237688 0.05342347 0.27827101
v 0.28148057 0.03772479 0.27361391
v 0.28178827 0.03772479 0.27056460
v 0.28193543 0.03772479 0.26890135
v 0.28205583 0.03772479 0.26590749
v 0.28210932 0.03772479 0.26424424
v 0.28312603 0.05342347 -0.26888405
v 0.28312603 0.05810193 -0.27359661
v 0.28273807 0.08148177 -0.27825371
v 0.28269796 0.08616024 -0.27825371
v 0.28249728 0.09083246 -0.27825371
v 0.28265782 0.09551092 -0.27359661
v 0.28289861 0.09551092 -0.26888405
v 0.27821643 0.10086218 0.25021747
v 0.28166788 0.09911789 0.15197461
v 0.27821643 0.10085596 0.26424424
v 0.27821643 0.10075629 0.26890135
v 0.28166788 0.09910543 -0.26422694
v 0.28166788 0.09911789 -0.24548762
v 0.28168126 0.09911789 -0.18472341
v 0.27821643 0.10086842 0.15197461
v 0.27821643 0.10045727 0.27361391
v 0.27859100 0.09908675 0.27865912
v 0.28038361 0.09766638 0.28043325
v 0.27859100 0.09586602 0.28154208
v 0.27821643 0.09083246 0.28254002
v 0.27821643 0.08616024 0.28270635
v 0.28145384 0.06278040 0.28148665
v 0.27821643 0.08148177 0.28276181
v 0.28134679 0.05810193 0.28137575
v 0.28087858 0.03772479 0.27721763
v 0.28126654 0.03772479 0.27494451
v 0.28109262 0.05342347 0.28109856
v 0.28081168 0.05012178 0.28087677
v 0.28210932 0.03772479 -0.26422694
v 0.28311265 0.05342347 -0.27359661
v 0.28273807 0.06278040 -0.27825371
v 0.28145384 0.08148177 -0.28146935
v 0.28140032 0.08616024 -0.28141389
v 0.28121301 0.09083246 -0.28124759
v 0.28089197 0.09452665 -0.28091493
v 0.28152072 0.09585978 -0.27858637
v 0.28097222 0.09831427 -0.27731121
v 0.28137356 0.09876280 -0.27359661
v 0.28161435 0.09904312 -0.26888405
v 0.27354762 0.10135433 0.26890135
v 0.27354762 0.10134811 0.27361391
v 0.27821643 0.10079365 -0.26888405
v 0.27821643 0.10086218 -0.26422694
v 0.27821643 0.10086842 -0.24548762
v 0.27354762 0.10050087 0.27827101
v 0.27726661 0.09830803 0.28098767
v 0.27354762 0.09551092 0.28270635
v 0.27354762 0.09083246 0.28314990
v 0.27821643 0.05810193 0.28265092
v 0.27821643 0.06278040 0.28276181
v 0.27821643 0.05342347 0.28237373
v 0.28046387 0.03772479 0.27804925
v 0.27723985 0.03772479 0.28093223
v 0.27956756 0.03772479 0.27954617
v 0.28201569 0.03772479 -0.26722080
v 0.28152072 0.03772479 -0.27359661
v 0.28240364 0.05342347 -0.27825371
v 0.28264444 0.05810193 -0.27825371
v 0.28196220 0.03772479 -0.26888405
v 0.28145384 0.06278040 -0.28146935
v 0.27821643 0.08148177 -0.28274451
v 0.27821643 0.08616024 -0.28268905
v 0.27821643 0.09083246 -0.28252272
v 0.28037023 0.09764770 -0.28041595
v 0.27857762 0.09585978 -0.28152478
v 0.27821643 0.10051332 -0.27359661
v 0.27857762 0.09908675 -0.27858637
v 0.26419659 0.10136055 0.26424424
v 0.14647293 0.10135433 0.26973298
v 0.27354762 0.10135433 -0.26888405
v 0.14647293 0.10134811 0.27361391
v 0.25016341 0.10088088 0.27827101
v 0.26419659 0.10086218 0.27827101
v 0.26886542 0.10079365 0.27827101
v 0.27354762 0.10134811 -0.27359661
v 0.26886542 0.09904936 0.28165298
v 0.27354762 0.09875657 0.28137575
v 0.26886542 0.09551092 0.28292814
v 0.26886542 0.08148177 0.28320533
v 0.27354762 0.05342347 0.28314990
v 0.26419659 0.09551092 0.28298357
v 0.14647293 0.09471353 0.28303901
v 0.14647293 0.09083246 0.28314990
v 0.27354762 0.03772479 0.28154208
v 0.28090535 0.03772479 -0.27725577
v 0.28085182 0.05009062 -0.28085947
v 0.28113276 0.05342347 -0.28113669
v 0.28136017 0.05810193 -0.28135845
v 0.27821643 0.05810193 -0.28263362
v 0.27821643 0.06278040 -0.28274451
v 0.27354762 0.09083246 -0.28313260
v 0.27354762 0.09551092 -0.28268905
v 0.27725323 0.09828312 -0.28097037
v 0.27354762 0.10045727 -0.27825371
v 0.14647293 0.10136055 0.26424424
v 0.26419659 0.10136055 -0.26422694
v 0.14647293 0.10135433 -0.27276499
v 0.14647293 0.10087464 0.27827101
v 0.15195777 0.10088088 0.27827101
v 0.25016341 0.09913658 0.28170841
v 0.26419659 0.09911789 0.28170841
v 0.26886542 0.10076251 -0.27825371
v 0.26419659 0.10086218 -0.27825371
v 0.25016341 0.10088088 -0.27825371
v 0.14647293 0.10134811 -0.27359661
v 0.25483222 0.05342347 0.28320533
v 0.15662659 0.08148177 0.28320533
v 0.26419659 0.03772479 0.28215193
v 0.26886542 0.03772479 0.28198560
v 0.27187540 0.03772479 0.28170841
v 0.14647293 0.09851361 0.28193017
v 0.14647293 0.09551092 0.28298357
v 0.14647293 0.07680331 0.28320533
v 0.27955420 0.03772479 -0.27958432
v 0.27805588 0.03772479 -0.28052683
v 0.27722648 0.03772479 -0.28091493
v 0.27821643 0.05342347 -0.28241186
v 0.27354762 0.05342347 -0.28313260
v 0.26419659 0.08148177 -0.28318803
v 0.14647293 0.09162987 -0.28313260
v 0.26419659 0.09551092 -0.28296627
v 0.26886542 0.09551092 -0.28291084
v 0.26886542 0.09901198 -0.28163568
v 0.27354762 0.09870674 -0.28135845
v 0.14647293 0.10136055 -0.26422694
v 0.14647293 0.09913035 0.28170841
v 0.15195777 0.09913658 0.28170841
v 0.26419659 0.09911165 -0.28169111
v 0.25016341 0.09913035 -0.28169111
v 0.18469299 0.10088088 -0.27825371
v 0.14647293 0.10095563 -0.27747753
v 0.15195777 0.05342347 0.28320533
v 0.23613020 0.03772479 0.28215193
v 0.14647293 0.06198300 0.28320533
v 0.27491214 0.03772479 -0.28130302
v 0.27354762 0.03772479 -0.28152478
v 0.25483222 0.05342347 -0.28318803
v 0.27053763 0.03772479 -0.28185744
v 0.26886542 0.03772479 -0.28196830
v 0.26585543 0.03772479 -0.28207920
v 0.26419659 0.03772479 -0.28213463
v 0.15662659 0.08148177 -0.28318803
v 0.14647293 0.09551092 -0.28296627
v 0.14647293 0.07760072 -0.28318803
v 0.15195777 0.09913035 -0.28169111
v 0.14647293 0.10087464 -0.27825371
v 0.14647293 0.05342347 0.28314990
v 0.14647293 0.04874502 0.28215193
v 0.14647293 0.04620332 0.28087677
v 0.23445800 0.03772479 0.28204107
v 0.14647293 0.05262609 0.28298357
v 0.15195777 0.05342347 -0.28318803
v 0.23613020 0.03772479 -0.28213463
v 0.14647293 0.09912411 -0.28169111
v 0.14647293 0.06278040 -0.28318803
v 0.14647293 0.04610989 0.28043325
v 0.22830427 0.03772479 0.28098767
v 0.23144802 0.03772479 0.28176384
v 0.14647293 0.05342347 -0.28313260
v 0.23312023 0.03772479 -0.28191287
v 0.14647293 0.04623447 -0.28080404
v 0.14647293 0.04665808 -0.28102580
v 0.14647293 0.04874502 -0.28207920
v 0.14647293 0.04566135 0.27827101
v 0.14647293 0.04559282 0.27749483
v 0.14647293 0.04528756 0.27361391
v 0.22607019 0.03772479 0.27810470
v 0.23144802 0.03772479 -0.28174654
v 0.22831763 0.03772479 -0.28097037
v 0.14647293 0.04578593 -0.27869725
v 0.22941461 0.03772479 -0.28124759
v 0.14647293 0.04527510 0.27278229
v 0.22485282 0.03772479 0.27361391
v 0.22683272 0.03772479 -0.27914079
v 0.14647293 0.04529380 -0.27359661
v 0.14647293 0.04569250 -0.27825371
v 0.14647293 0.04521903 0.26890135
v 0.22479931 0.03772479 0.27272684
v 0.22609693 0.03772479 -0.27803195
v 0.22487956 0.03772479 -0.27359661
v 0.14647293 0.04522527 -0.26888405
v 0.14647293 0.04519413 0.26424424
v 0.22463877 0.03772479 0.26890135
v 0.22465215 0.03772479 -0.26888405
v 0.14647293 0.04519413 -0.26422694
v 0.22453175 0.03772479 0.25487458
v 0.22455850 0.03772479 0.26424424
v 0.22454513 0.03772479 -0.26439327
v 0.22453175 0.03772479 0.25465282
f 1 2 3
f 1 3 4
f 1 4 5
f 1 5 6
f 1 6 7
f 1 7 22
f 1 22 8
f 1 8 30
f 1 30 31
f 1 31 9
f 1 9 12
f 1 12 2
f 2 10 11
f 2 11 3
f 2 12 43
f 2 43 13
f 2 13 10
f 3 14 4
f 3 11 14
f 4 15 16
f 4 16 5
f 4 14 17
f 4 17 15
f 5 16 18
f 5 18 19
f 5 19 20
f 5 20 6
f 6 20 21
f 6 21 7
f 7 21 51
f 7 51 22
f 8 22 23
f 8 23 24
f 8 24 55
f 8 55 25
f 8 25 26
f 8 26 27
f 8 27 28
f 8 28 29
f 8 29 58
f 8 58 30
f 9 31 60
f 9 60 32
f 9 32 33
f 9 33 34
f 9 34 35
f 9 35 36
f 9 36 12
f 10 37 39
f 10 39 11
f 10 13 38
f 10 38 44
f 10 44 37
f 11 39 40
f 11 40 14
f 12 36 41
f 12 41 42
f 12 42 43
f 13 43 73
f 13 73 44
f 13 44 38
f 14 40 45
f 14 45 17
f 15 17 45
f 15 45 46
f 15 46 47
f 15 47 16
f 16 47 18
f 18 47 48
f 18 48 49
f 18 49 19
f 19 49 20
f 20 49 50
f 20 50 21
f 21 50 52
f 21 52 79
f 21 79 51
f 22 51 23
f 23 51 53
f 23 53 24
f 24 54 55
f 24 53 56
f 24 56 57
f 24 57 54
f 25 55 54
f 25 54 81
f 25 81 83
f 25 83 82
f 25 82 113
f 25 113 139
f 25 139 138
f 25 138 137
f 25 137 162
f 25 162 179
f 25 179 187
f 25 187 186
f 25 186 196
f 25 196 202
f 25 202 207
f 25 207 212
f 25 212 216
f 25 216 215
f 25 215 218
f 25 218 217
f 25 217 213
f 25 213 209
f 25 209 208
f 25 208 203
f 25 203 198
f 25 198 200
f 25 200 197
f 25 197 189
f 25 189 182
f 25 182 170
f 25 170 169
f 25 169 168
f 25 168 167
f 25 167 165
f 25 165 164
f 25 164 145
f 25 145 144
f 25 144 143
f 25 143 114
f 25 114 85
f 25 85 88
f 25 88 84
f 25 84 58
f 25 58 29
f 25 29 28
f 25 28 27
f 25 27 26
f 30 58 59
f 30 59 31
f 31 59 60
f 32 60 89
f 32 89 61
f 32 61 33
f 33 61 62
f 33 62 34
f 34 62 63
f 34 63 64
f 34 64 65
f 34 65 35
f 35 65 66
f 35 66 67
f 35 67 68
f 35 68 36
f 36 68 41
f 37 69 39
f 37 44 69
f 39 69 70
f 39 70 40
f 40 70 45
f 41 68 71
f 41 71 72
f 41 72 42
f 42 72 73
f 42 73 43
f 44 73 99
f 44 99 69
f 45 70 74
f 45 74 46
f 46 75 47
f 46 74 75
f 47 75 48
f 48 75 76
f 48 76 49
f 49 76 77
f 49 77 50
f 50 77 52
f 51 78 53
f 51 79 78
f 52 77 109
f 52 109 79
f 53 78 80
f 53 80 56
f 54 57 81
f 56 80 57
f 57 80 82
f 57 82 83
f 57 83 81
f 58 84 59
f 59 85 86
f 59 86 87
f 59 87 60
f 59 84 88
f 59 88 85
f 60 87 89
f 61 89 119
f 61 119 90
f 61 90 91
f 61 91 62
f 62 91 92
f 62 92 63
f 63 92 64
f 64 93 65
f 64 92 94
f 64 94 93
f 65 93 66
f 66 95 67
f 66 93 96
f 66 96 95
f 67 95 68
f 68 95 71
f 69 97 98
f 69 98 70
f 69 99 125
f 69 125 97
f 70 98 100
f 70 100 128
f 70 128 101
f 70 101 102
f 70 102 103
f 70 103 74
f 71 95 104
f 71 104 72
f 72 104 99
f 72 99 73
f 74 103 105
f 74 105 106
f 74 106 75
f 75 106 76
f 76 106 105
f 76 105 107
f 76 107 77
f 77 108 109
f 77 107 110
f 77 110 111
f 77 111 112
f 77 112 136
f 77 136 108
f 78 79 109
f 78 109 80
f 80 109 82
f 82 109 113
f 85 114 86
f 86 114 115
f 86 115 116
f 86 116 117
f 86 117 87
f 87 117 89
f 89 117 118
f 89 118 119
f 90 119 147
f 90 147 120
f 90 120 91
f 91 120 92
f 92 120 121
f 92 121 94
f 93 94 122
f 93 122 96
f 94 121 122
f 95 96 123
f 95 123 104
f 96 122 123
f 97 124 98
f 97 125 154
f 97 154 124
f 98 124 154
f 98 154 126
f 98 126 134
f 98 134 160
f 98 160 175
f 98 175 183
f 98 183 172
f 98 172 149
f 98 149 173
f 98 173 184
f 98 184 188
f 98 188 192
f 98 192 191
f 98 191 190
f 98 190 199
f 98 199 205
f 98 205 204
f 98 204 210
f 98 210 214
f 98 214 211
f 98 211 206
f 98 206 201
f 98 201 195
f 98 195 194
f 98 194 193
f 98 193 185
f 98 185 178
f 98 178 177
f 98 177 180
f 98 180 176
f 98 176 163
f 98 163 142
f 98 142 112
f 98 112 111
f 98 111 141
f 98 141 140
f 98 140 155
f 98 155 127
f 98 127 100
f 99 104 126
f 99 126 125
f 100 127 128
f 101 128 156
f 101 156 129
f 101 129 130
f 101 130 102
f 102 130 103
f 103 130 105
f 104 123 131
f 104 131 132
f 104 132 133
f 104 133 159
f 104 159 134
f 104 134 126
f 105 130 107
f 107 130 110
f 108 135 109
f 108 136 142
f 108 142 163
f 108 163 161
f 108 161 135
f 109 135 137
f 109 137 138
f 109 138 139
f 109 139 113
f 110 130 129
f 110 129 140
f 110 140 141
f 110 141 111
f 112 142 136
f 114 143 115
f 115 143 144
f 115 144 145
f 115 145 146
f 115 146 116
f 116 146 117
f 117 146 118
f 118 146 147
f 118 147 119
f 120 147 148
f 120 148 149
f 120 149 150
f 120 150 151
f 120 151 121
f 121 152 153
f 121 153 122
f 121 151 152
f 122 153 123
f 123 153 152
f 123 152 131
f 125 126 154
f 127 155 156
f 127 156 128
f 129 156 140
f 131 152 157
f 131 157 132
f 132 157 158
f 132 158 133
f 133 158 174
f 133 174 159
f 134 159 160
f 135 161 162
f 135 162 137
f 140 156 155
f 145 164 146
f 146 164 165
f 146 165 147
f 147 166 148
f 147 165 167
f 147 167 168
f 147 168 169
f 147 169 170
f 147 170 166
f 148 166 181
f 148 181 184
f 148 184 173
f 148 173 171
f 148 171 149
f 149 172 150
f 149 171 173
f 150 172 174
f 150 174 158
f 150 158 157
f 150 157 151
f 151 157 152
f 159 175 160
f 159 174 175
f 161 163 176
f 161 176 162
f 162 177 178
f 162 178 179
f 162 176 180
f 162 180 177
f 166 170 182
f 166 182 181
f 172 183 174
f 174 183 175
f 178 185 186
f 178 186 187
f 178 187 179
f 181 188 184
f 181 182 188
f 182 189 190
f 182 190 191
f 182 191 192
f 182 192 188
f 185 193 186
f 186 193 194
f 186 194 195
f 186 195 196
f 189 197 190
f 190 198 199
f 190 197 200
f 190 200 198
f 195 201 202
f 195 202 196
f 198 203 204
f 198 204 205
f 198 205 199
f 201 206 202
f 202 206 207
f 203 208 204
f 204 208 209
f 204 209 210
f 206 211 207
f 207 211 212
f 209 213 214
f 209 214 210
f 211 215 216
f 211 216 212
f 211 214 218
f 211 218 215
f 213 217 214
f 214 217 218

