v -0.75583405 0.65996039 0.05269413
v -0.75618539 0.65996039 0.05000090
v -0.75938949 0.65996039 0.05904792
v -0.71848078 0.65082895 0.04821275
v -0.71848913 0.65082304 0.04189194
v -0.75784181 0.65996039 0.04216676
v -0.76730353 0.65996039 0.06057224
v -0.72820182 0.64045045 0.05851294
v -0.72454596 0.64437490 0.05472778
v -0.71723427 0.64485956 0.05011450
v -0.71155391 0.62326332 0.05104155
v -0.71622202 0.64485956 0.04189194
v -0.71887395 0.65044479 0.03626733
v -0.75824340 0.65996039 0.04075969
v -0.77848022 0.65996039 0.06166785
v -0.72841096 0.63404963 0.05848363
v -0.71364535 0.61244743 0.05377142
v -0.71155391 0.61257158 0.05314116
v -0.71155391 0.62648442 0.04126536
v -0.71155391 0.62599977 0.03972638
v -0.71155391 0.62179165 0.03315272
v -0.71155391 0.62059775 0.03260309
v -0.71155391 0.61258929 0.02962039
v -0.72869540 0.64068097 0.02484589
v -0.77278313 0.65996039 0.02971200
v -0.76754614 0.65996039 0.03205345
v -0.76232590 0.65996039 0.03673269
v -0.78853590 0.65996039 0.06029376
v -0.73912755 0.62959916 0.05801094
v -0.73192459 0.62828706 0.05820148
v -0.72959053 0.62828706 0.05820148
v -0.71364535 0.60413166 0.05004854
v -0.71155391 0.60365292 0.04990197
v -0.72445396 0.61244743 0.05311185
v -0.71155391 0.61004787 0.02934558
v -0.72869540 0.63655557 0.02484589
v -0.73471879 0.63339355 0.02423396
v -0.73526254 0.64123063 0.02435122
v -0.77876466 0.65996039 0.02885823
v -0.78928884 0.65996039 0.06010689
v -0.78928884 0.65947574 0.05989069
v -0.72445396 0.60528417 0.04921310
v -0.71155391 0.59958661 0.04189194
v -0.79230888 0.65996039 0.05927877
v -0.71155391 0.60266591 0.03228430
v -0.74251571 0.62762511 0.02504376
v -0.73794798 0.62762511 0.02504376
v -0.74350287 0.63404963 0.02450145
v -0.74259935 0.64059230 0.02474329
v -0.78429447 0.65996039 0.03004178
v -0.73029326 0.60669673 0.04769976
v -0.72238761 0.60551465 0.03479797
v -0.72537418 0.60471676 0.04140093
v -0.79560501 0.65996039 0.05681273
v -0.74562778 0.62345835 0.03109342
v -0.75452059 0.62649625 0.03369137
v -0.79554642 0.65996039 0.03514607
v -0.78945616 0.65996039 0.03163572
v -0.73029326 0.60669673 0.04466943
v -0.79648341 0.65893199 0.05269413
v -0.76077821 0.63001285 0.04189194
v -0.75537390 0.62585792 0.04189194
v -0.72959892 0.60741778 0.03746920
v -0.79665077 0.65996039 0.05269413
v -0.79676788 0.65858919 0.04189560
v -0.79560501 0.65996039 0.03523768
v -0.79701046 0.65996039 0.04189560
f 1 2 6
f 1 6 14
f 1 14 27
f 1 27 26
f 1 26 25
f 1 25 39
f 1 39 50
f 1 50 58
f 1 58 57
f 1 57 66
f 1 66 67
f 1 67 64
f 1 64 54
f 1 54 44
f 1 44 40
f 1 40 28
f 1 28 15
f 1 15 7
f 1 7 3
f 1 3 4
f 1 4 5
f 1 5 2
f 2 5 6
f 3 7 8
f 3 8 9
f 3 9 4
f 4 9 10
f 4 10 11
f 4 11 12
f 4 12 5
f 5 12 13
f 5 13 14
f 5 14 6
f 7 15 8
f 8 16 17
f 8 17 18
f 8 18 11
f 8 11 10
f 8 10 9
f 8 15 16
f 11 18 33
f 11 33 43
f 11 43 45
f 11 45 35
f 11 35 23
f 11 23 22
f 11 22 21
f 11 21 20
f 11 20 19
f 11 19 12
f 12 19 20
f 12 20 21
f 12 21 13
f 13 21 22
f 13 22 23
f 13 23 24
f 13 24 25
f 13 25 26
f 13 26 27
f 13 27 14
f 15 28 29
f 15 29 30
f 15 30 31
f 15 31 16
f 16 31 17
f 17 32 33
f 17 33 18
f 17 31 30
f 17 30 34
f 17 34 32
f 23 35 24
f 24 35 36
f 24 36 37
f 24 37 38
f 24 38 39
f 24 39 25
f 28 40 41
f 28 41 29
f 29 34 30
f 29 41 34
f 32 34 42
f 32 42 33
f 33 42 43
f 34 41 44
f 34 44 42
f 35 45 46
f 35 46 47
f 35 47 37
f 35 37 36
f 37 47 46
f 37 46 48
f 37 48 38
f 38 48 49
f 38 49 39
f 39 49 48
f 39 48 46
f 39 46 50
f 40 44 41
f 42 51 43
f 42 44 51
f 43 52 45
f 43 51 53
f 43 53 52
f 44 54 51
f 45 52 46
f 46 55 56
f 46 56 57
f 46 57 58
f 46 58 50
f 46 52 55
f 51 59 53
f 51 54 60
f 51 60 61
f 51 61 62
f 51 62 59
f 52 53 63
f 52 63 55
f 53 59 63
f 54 64 60
f 55 63 56
f 56 62 61
f 56 61 65
f 56 65 66
f 56 66 57
f 56 63 59
f 56 59 62
f 60 64 67
f 60 67 65
f 60 65 61
f 65 67 66

