v 0.25468120 -0.24559757 -0.01215138
v 0.25468120 -0.23931803 -0.00370043
v 0.25468120 -0.24558786 -0.01246155
v 0.25877186 -0.25217796 -0.02295486
v 0.25857373 -0.25217796 -0.01215138
v 0.26404579 -0.25796253 -0.00626768
v 0.25468120 -0.23084502 0.00005025
v 0.26230566 -0.25217796 -0.00372906
v 0.26453837 -0.24619929 0.00400612
v 0.25468120 -0.24480169 -0.02295486
v 0.26440989 -0.25762282 -0.02841386
v 0.26334438 -0.25857399 -0.02295486
v 0.26307131 -0.25882635 -0.01215138
v 0.27542896 -0.26824080 -0.00721728
v 0.30548782 -0.29179637 -0.00496497
v 0.30937501 -0.29340749 -0.00292261
v 0.28263046 -0.27141452 -0.00385313
v 0.26986588 -0.26045687 -0.00397720
v 0.26883253 -0.25289619 0.00192081
v 0.25468120 -0.21976117 0.00193990
v 0.27599115 -0.25698224 0.00367208
v 0.27174523 -0.24977097 0.00550925
v 0.26883253 -0.24211324 0.00593872
v 0.25468120 -0.24463669 -0.02314096
v 0.26986588 -0.26010746 -0.03055165
v 0.30559489 -0.29183518 -0.03041326
v 0.27561101 -0.26810490 -0.02753106
v 0.26250375 -0.25217796 -0.03049916
v 0.26999973 -0.25197415 -0.03612040
v 0.27039061 -0.26469823 -0.02353702
v 0.27434204 -0.26923079 -0.02032557
v 0.27434204 -0.26923079 -0.01442278
v 0.28563419 -0.27956727 -0.01603090
v 0.28677464 -0.27862583 -0.00882540
v 0.30937501 -0.29923085 -0.01215138
v 0.30937501 -0.28675914 0.00162973
v 0.29935717 -0.27739319 0.00277021
v 0.28736899 -0.26726052 0.00335237
v 0.28067615 -0.24137561 0.00815763
v 0.28067615 -0.23286375 0.00575739
v 0.25468120 -0.20905587 -0.00155309
v 0.29457581 -0.27019163 0.00506547
v 0.29117586 -0.26338798 0.00640158
v 0.28002827 -0.25289619 0.00669744
v 0.25468120 -0.23613457 -0.03070435
v 0.30937501 -0.28640003 -0.03707000
v 0.30937501 -0.29324248 -0.03201661
v 0.30937501 -0.29842531 -0.02348930
v 0.30937501 -0.29866793 -0.02295486
v 0.28563419 -0.27956727 -0.01869359
v 0.27781160 -0.25544878 -0.03843475
v 0.26784733 -0.24137561 -0.03782395
v 0.27369416 -0.24825691 -0.03955613
v 0.30937501 -0.28158604 0.00487937
v 0.30656404 -0.28007194 0.00454534
v 0.29143286 -0.24126886 0.00617253
v 0.29147568 -0.25217796 0.00830555
v 0.30937501 -0.26298036 0.00809082
v 0.28779733 -0.23452345 0.00482211
v 0.25468120 -0.20257250 -0.00572369
v 0.30269288 -0.27379241 0.00603893
v 0.30937501 -0.27379241 0.00759455
v 0.30228596 -0.26298036 0.00825784
v 0.25468120 -0.22619600 -0.03163486
v 0.30937501 -0.28421625 -0.03822479
v 0.30937501 -0.28094547 -0.03948456
v 0.30731361 -0.27961578 -0.03929845
v 0.27415466 -0.23510578 -0.03952273
v 0.27325512 -0.24137561 -0.03972792
v 0.30937501 -0.27007517 -0.04043893
v 0.30937501 -0.27349155 -0.04027191
v 0.30937501 -0.27933432 -0.03978996
v 0.30937501 -0.25404147 0.00559991
v 0.29499882 -0.23760012 0.00294676
v 0.29182374 -0.23030150 -0.00085163
v 0.28864867 -0.22338135 -0.00465003
v 0.30649976 -0.24789780 0.00338100
v 0.25476686 -0.20261133 -0.00574278
v 0.25468120 -0.20008786 -0.01215138
v 0.25468120 -0.21486953 -0.03007923
v 0.27753853 -0.23510578 -0.03952273
v 0.28095456 -0.24126886 -0.03976610
v 0.25468120 -0.21174432 -0.02930619
v 0.30937501 -0.26249505 -0.03999992
v 0.30937501 -0.24877129 0.00236937
v 0.30018710 -0.23328111 -0.00425873
v 0.30738859 -0.23623162 -0.00722683
v 0.29585549 -0.22607955 -0.00941711
v 0.29194151 -0.22253697 -0.01267151
v 0.29725831 -0.22492456 -0.01877948
v 0.25468120 -0.20045668 -0.01831184
v 0.29725831 -0.22492456 -0.01661783
v 0.25468120 -0.21008466 -0.02855701
v 0.28095456 -0.23112648 -0.03675983
v 0.28473469 -0.23760012 -0.03892148
v 0.30937501 -0.25607965 -0.03928891
v 0.30937501 -0.25652612 -0.03937003
v 0.30937501 -0.25959308 -0.03980427
v 0.30937501 -0.24273441 -0.00285581
v 0.30937501 -0.23728956 -0.00870133
v 0.30925187 -0.23465931 -0.01443233
v 0.30937501 -0.23427110 -0.02294531
v 0.30142929 -0.22862240 -0.02261128
v 0.29594652 -0.22581749 -0.02598498
v 0.29199508 -0.22276992 -0.02261128
v 0.25593943 -0.20165047 -0.01997722
v 0.25468120 -0.20111665 -0.02053553
v 0.30937501 -0.23455256 -0.01782034
v 0.25468120 -0.20642565 -0.02591818
v 0.28873969 -0.22376961 -0.02987404
v 0.30228596 -0.24137561 -0.03559073
v 0.29199508 -0.22987444 -0.03268467
v 0.30937501 -0.24860632 -0.03678369
v 0.30937501 -0.25157624 -0.03788121
v 0.30937501 -0.23481462 -0.01433212
v 0.30937501 -0.23456226 -0.02419077
v 0.30862540 -0.23519313 -0.02919167
v 0.25468120 -0.20411569 -0.02366586
v 0.30228596 -0.23317436 -0.03073775
v 0.30937501 -0.23902683 -0.03129606
v 0.30937501 -0.24157942 -0.03280396
v 0.30937501 -0.23563960 -0.02845203
v 0.30937501 -0.23642573 -0.02964022
f 1 2 7
f 1 7 20
f 1 20 41
f 1 41 60
f 1 60 79
f 1 79 91
f 1 91 107
f 1 107 118
f 1 118 109
f 1 109 93
f 1 93 83
f 1 83 80
f 1 80 64
f 1 64 45
f 1 45 24
f 1 24 10
f 1 10 3
f 1 3 4
f 1 4 5
f 1 5 6
f 1 6 2
f 2 6 8
f 2 8 9
f 2 9 7
f 3 10 4
f 4 11 12
f 4 12 13
f 4 13 5
f 4 10 11
f 5 13 6
f 6 13 14
f 6 14 15
f 6 15 16
f 6 16 17
f 6 17 18
f 6 18 19
f 6 19 9
f 6 9 8
f 7 9 20
f 9 19 21
f 9 21 22
f 9 22 23
f 9 23 20
f 10 24 11
f 11 25 26
f 11 26 27
f 11 27 12
f 11 24 28
f 11 28 29
f 11 29 25
f 12 27 30
f 12 30 31
f 12 31 13
f 13 31 32
f 13 32 33
f 13 33 34
f 13 34 14
f 14 34 15
f 15 34 35
f 15 35 16
f 16 35 49
f 16 49 48
f 16 48 47
f 16 47 46
f 16 46 65
f 16 65 66
f 16 66 72
f 16 72 71
f 16 71 70
f 16 70 84
f 16 84 98
f 16 98 97
f 16 97 96
f 16 96 114
f 16 114 113
f 16 113 121
f 16 121 120
f 16 120 123
f 16 123 122
f 16 122 116
f 16 116 102
f 16 102 108
f 16 108 115
f 16 115 100
f 16 100 99
f 16 99 85
f 16 85 73
f 16 73 58
f 16 58 62
f 16 62 54
f 16 54 36
f 16 36 37
f 16 37 38
f 16 38 17
f 17 38 19
f 17 19 18
f 19 38 21
f 20 23 39
f 20 39 40
f 20 40 41
f 21 38 42
f 21 42 22
f 22 42 43
f 22 43 44
f 22 44 23
f 23 44 39
f 24 45 28
f 25 29 46
f 25 46 47
f 25 47 26
f 26 47 48
f 26 48 27
f 27 48 49
f 27 49 50
f 27 50 31
f 27 31 30
f 28 45 29
f 29 51 46
f 29 45 52
f 29 52 53
f 29 53 51
f 31 50 33
f 31 33 32
f 33 50 35
f 33 35 34
f 35 50 49
f 36 54 55
f 36 55 42
f 36 42 37
f 37 42 38
f 39 56 40
f 39 44 57
f 39 57 58
f 39 58 56
f 40 56 59
f 40 59 41
f 41 59 60
f 42 55 54
f 42 54 61
f 42 61 43
f 43 61 62
f 43 62 44
f 44 62 63
f 44 63 57
f 45 64 52
f 46 51 65
f 51 53 66
f 51 66 67
f 51 67 65
f 52 64 68
f 52 68 69
f 52 69 53
f 53 70 71
f 53 71 72
f 53 72 66
f 53 69 70
f 54 62 61
f 56 58 73
f 56 73 59
f 57 63 58
f 58 63 62
f 59 74 75
f 59 75 76
f 59 76 60
f 59 73 77
f 59 77 74
f 60 76 78
f 60 78 79
f 64 80 68
f 65 67 66
f 68 81 82
f 68 82 69
f 68 80 83
f 68 83 81
f 69 82 70
f 70 82 84
f 73 85 77
f 74 77 85
f 74 85 75
f 75 86 76
f 75 85 86
f 76 86 87
f 76 87 88
f 76 88 89
f 76 89 79
f 76 79 78
f 79 90 91
f 79 89 92
f 79 92 90
f 81 83 93
f 81 93 94
f 81 94 95
f 81 95 96
f 81 96 97
f 81 97 98
f 81 98 84
f 81 84 82
f 85 99 86
f 86 99 87
f 87 100 101
f 87 101 88
f 87 99 100
f 88 92 89
f 88 101 92
f 90 92 102
f 90 102 103
f 90 103 104
f 90 104 105
f 90 105 91
f 91 106 107
f 91 105 104
f 91 104 106
f 92 101 108
f 92 108 102
f 93 109 110
f 93 110 94
f 94 111 95
f 94 110 112
f 94 112 111
f 95 111 113
f 95 113 114
f 95 114 96
f 100 115 101
f 101 115 108
f 102 116 117
f 102 117 103
f 103 117 104
f 104 110 107
f 104 107 106
f 104 117 110
f 107 110 118
f 109 118 110
f 110 117 119
f 110 119 112
f 111 112 119
f 111 119 120
f 111 120 121
f 111 121 113
f 116 122 117
f 117 122 123
f 117 123 120
f 117 120 119

