v -0.25736280 0.23914302 0.00946646
v -0.25811484 0.23914302 0.00721582
v -0.26149912 0.23914302 0.01761716
v -0.24425549 0.22794519 0.01181176
v -0.24334229 0.22884671 0.00460760
v -0.24334229 0.22884671 0.00388718
v -0.26139167 0.23914302 0.00125792
v -0.22174748 0.20721022 0.01494583
v -0.25145376 0.23112424 0.01688096
v -0.27036265 0.23914302 0.02065658
v -0.25935038 0.23449308 0.01890550
v -0.19934690 0.18623801 0.01544013
v -0.00289864 0.02510307 0.00542793
v 0.00429962 0.02258831 0.00213084
v 0.00537399 0.02372706 -0.00506807
v -0.15653332 0.15345113 -0.00705579
v -0.24887529 0.23083955 0.00193627
v 0.00537399 0.02372706 -0.00727664
v -0.26402388 0.23914302 0.00008528
v -0.23227629 0.20740002 -0.00684544
v -0.28153607 0.23914302 0.02076701
v -0.27052380 0.23416094 0.02207638
v -0.22728048 0.20170619 0.01973634
v 0.04039840 -0.01669902 0.00625877
v 0.25468120 -0.20264948 -0.00564651
v 0.25468120 -0.20255459 -0.00572012
v 0.23228058 -0.18167727 -0.00646157
v 0.25468120 -0.20008726 -0.01214602
v 0.23861937 -0.18561548 -0.01214602
v 0.24463580 -0.19097716 -0.01965518
v -0.15239700 0.14718793 -0.00838619
v -0.13295094 0.13338043 -0.00812852
v 0.00413848 0.01120067 -0.01729937
v -0.12962040 0.12654786 -0.01004788
v 0.00016331 0.01798580 -0.01513286
v 0.24006977 -0.19496283 -0.02685935
v -0.27546590 0.23914302 -0.00203390
v -0.23549939 0.20740002 -0.00684544
v -0.00305980 0.01437972 -0.01807763
v -0.06059223 0.05518539 -0.01749919
v -0.08019944 0.06733219 -0.01768324
v -0.29056078 0.23914302 0.01800103
v -0.28180466 0.23359157 0.01923678
v -0.25967267 0.22334269 0.02175561
v 0.23303267 -0.20255459 0.00425002
v 0.22266499 -0.19149911 0.00440251
v 0.03271667 -0.01361486 0.00775744
v 0.22986327 -0.19534243 0.00346650
v 0.25468120 -0.20900759 -0.00155538
v 0.25468120 -0.20041940 -0.01831426
v 0.25468120 -0.20108370 -0.02053335
v 0.25468120 -0.20407294 -0.02366743
v 0.25468120 -0.20639791 -0.02591807
v 0.25161922 -0.20511681 -0.02718537
v 0.23287149 -0.19206848 -0.02865776
v -0.25967267 0.22334269 -0.00413205
v -0.28674676 0.23914302 0.00077414
v -0.23512337 0.20170619 -0.00694536
v -0.08181100 0.06733219 -0.01768324
v 0.23684665 -0.19837913 -0.02942024
v 0.25468120 -0.22618391 -0.03163408
v -0.29410620 0.23914302 0.00946646
v -0.28959383 0.23681805 0.01724906
v -0.27852784 0.22647430 0.01691778
v -0.25961897 0.21247700 0.01832180
v -0.23807788 0.20170619 0.02071442
v -0.24887529 0.21252445 0.02124553
v 0.23061532 -0.20416783 0.00425002
v 0.23303267 -0.20416783 0.00425002
v 0.25468120 -0.21973094 0.00193627
v 0.24823497 -0.20891266 0.00131051
v 0.25468120 -0.21005146 -0.02855784
v 0.24442098 -0.20217499 -0.02890491
v 0.25468120 -0.21171212 -0.02930981
v 0.25468120 -0.21484375 -0.03007756
v -0.23313579 0.19582258 -0.00691380
v -0.28980872 0.23914302 0.00211506
v -0.08181100 0.06619343 -0.01768324
v -0.03271237 0.01798580 -0.01978665
v 0.25468120 -0.23610063 -0.03070332
v -0.26230489 0.20967754 0.00946646
v -0.29238721 0.23914302 0.00585386
v -0.26697839 0.21603564 0.00214661
v -0.25612726 0.20545462 0.00224653
v -0.22287557 0.17371162 0.00268824
v -0.26719325 0.21603564 0.01661804
v -0.25591239 0.20569187 0.01619210
v -0.24833809 0.20194343 0.01764345
v -0.21444176 0.17190858 0.01646555
v 0.21036350 -0.19273275 0.00407649
v 0.22341707 -0.20184286 0.00360848
v 0.25468120 -0.23083385 0.00004847
v 0.24823497 -0.21973094 0.00225178
v -0.28900295 0.23748234 0.00251997
v -0.04007179 0.01798580 -0.01826168
v -0.03819164 0.01252923 -0.01759384
v -0.03271237 0.01091599 -0.01859296
v 0.25468120 -0.24459390 -0.02314158
v -0.20047498 0.15288174 0.00454975
v -0.25687932 0.20479036 0.00946646
v -0.20047498 0.15288174 0.00367684
v -0.23308206 0.18514670 0.01520350
v 0.25468120 -0.23927969 -0.00370086
v -0.03867510 0.01191240 -0.01214602
v 0.25468120 -0.24478372 -0.02295227
v 0.25468120 -0.24559034 -0.01214602
v -0.11382717 0.07739126 0.00411855
v -0.13692609 0.09784155 0.00571188
v -0.22164005 0.17489782 0.01446205
f 1 2 7
f 1 7 19
f 1 19 37
f 1 37 57
f 1 57 77
f 1 77 82
f 1 82 62
f 1 62 42
f 1 42 21
f 1 21 10
f 1 10 3
f 1 3 4
f 1 4 5
f 1 5 6
f 1 6 2
f 2 6 7
f 3 8 9
f 3 9 4
f 3 10 11
f 3 11 12
f 3 12 13
f 3 13 8
f 4 9 8
f 4 8 14
f 4 14 15
f 4 15 5
f 5 15 18
f 5 18 6
f 6 16 17
f 6 17 7
f 6 18 16
f 7 17 16
f 7 16 20
f 7 20 19
f 8 13 14
f 10 21 22
f 10 22 23
f 10 23 11
f 11 23 24
f 11 24 12
f 12 24 13
f 13 24 25
f 13 25 26
f 13 26 14
f 14 26 27
f 14 27 28
f 14 28 15
f 15 28 29
f 15 29 30
f 15 30 18
f 16 31 20
f 16 18 32
f 16 32 33
f 16 33 34
f 16 34 31
f 18 35 32
f 18 30 36
f 18 36 35
f 19 20 37
f 20 38 37
f 20 31 34
f 20 34 39
f 20 39 40
f 20 40 41
f 20 41 59
f 20 59 38
f 21 42 43
f 21 43 22
f 22 43 44
f 22 44 45
f 22 45 46
f 22 46 23
f 23 46 47
f 23 47 24
f 24 47 48
f 24 48 49
f 24 49 25
f 25 49 70
f 25 70 92
f 25 92 103
f 25 103 106
f 25 106 105
f 25 105 98
f 25 98 80
f 25 80 61
f 25 61 75
f 25 75 74
f 25 74 72
f 25 72 53
f 25 53 52
f 25 52 51
f 25 51 50
f 25 50 28
f 25 28 26
f 26 28 27
f 28 50 30
f 28 30 29
f 30 50 51
f 30 51 52
f 30 52 53
f 30 53 54
f 30 54 36
f 32 35 33
f 33 39 34
f 33 35 55
f 33 55 39
f 35 36 55
f 36 54 55
f 37 56 57
f 37 38 56
f 38 58 56
f 38 59 58
f 39 41 40
f 39 55 41
f 41 55 60
f 41 60 61
f 41 61 59
f 42 62 63
f 42 63 43
f 43 63 64
f 43 64 65
f 43 65 66
f 43 66 67
f 43 67 44
f 44 67 68
f 44 68 69
f 44 69 45
f 45 69 70
f 45 70 71
f 45 71 48
f 45 48 46
f 46 48 47
f 48 71 49
f 49 71 70
f 53 72 54
f 54 72 55
f 55 72 73
f 55 73 74
f 55 74 75
f 55 75 60
f 56 58 76
f 56 76 57
f 57 76 77
f 58 59 78
f 58 78 76
f 59 61 79
f 59 79 78
f 60 75 61
f 61 80 79
f 62 81 64
f 62 64 63
f 62 82 83
f 62 83 84
f 62 84 85
f 62 85 81
f 64 81 86
f 64 86 65
f 65 86 87
f 65 87 88
f 65 88 89
f 65 89 66
f 66 89 90
f 66 90 68
f 66 68 67
f 68 90 91
f 68 91 92
f 68 92 93
f 68 93 69
f 69 93 70
f 70 93 92
f 72 74 73
f 76 94 77
f 76 78 95
f 76 95 96
f 76 96 94
f 77 94 82
f 78 79 95
f 79 97 95
f 79 80 97
f 80 98 96
f 80 96 97
f 81 99 100
f 81 100 87
f 81 87 86
f 81 85 101
f 81 101 99
f 82 94 83
f 83 94 96
f 83 96 84
f 84 96 85
f 85 96 101
f 87 102 89
f 87 89 88
f 87 100 99
f 87 99 102
f 89 102 90
f 90 103 92
f 90 92 91
f 90 102 103
f 95 97 96
f 96 104 101
f 96 98 105
f 96 105 104
f 99 106 107
f 99 107 108
f 99 108 102
f 99 101 106
f 101 104 106
f 102 109 103
f 102 108 109
f 103 109 106
f 104 105 106
f 106 109 108
f 106 108 107

