v -0.71153551 0.62648052 0.04125419
v -0.70503145 0.62070156 0.04957698
v -0.70353046 0.62195105 0.04188686
v -0.70516484 0.62045168 0.03407903
v -0.71153551 0.62598072 0.03971911
v -0.71153551 0.62323181 0.05104339
v -0.62174558 0.55300987 0.03651652
v -0.50340431 0.44480314 0.03636940
v -0.43722925 0.39166811 0.02640363
v -0.44836961 0.40213267 0.02616331
v -0.62174558 0.55300987 0.03644296
v -0.67521262 0.59667993 0.03581519
v -0.64329250 0.56384929 0.02564344
v -0.67511255 0.58584051 0.02547179
v -0.70206289 0.61320458 0.03149931
v -0.71153551 0.62057660 0.03259790
v -0.71153551 0.62176367 0.03314720
v -0.66347189 0.58662143 0.03462833
v -0.65166444 0.57656297 0.03368178
v -0.53519101 0.47750882 0.02545217
v -0.58882484 0.52096019 0.02522166
v -0.47962267 0.42462367 0.01389737
v -0.71153551 0.61254859 0.05314249
v -0.50083603 0.43758727 0.03739442
v -0.37272191 0.33725236 0.01560901
v -0.37195478 0.32722511 0.02620254
v -0.40420843 0.35983708 0.02650172
v -0.41511531 0.37045784 0.02657037
v -0.42615560 0.38110982 0.02653114
v -0.37272191 0.33725236 0.01421616
v -0.37135438 0.32725636 0.00343626
v -0.69665947 0.59661747 0.02559440
v -0.71153551 0.61257982 0.02961111
v -0.44896999 0.40166411 0.01521666
v -0.43732932 0.39151192 0.01421616
v -0.37082072 0.32706892 0.00359320
v -0.71153551 0.60364588 0.04990067
v -0.50523879 0.43249554 0.03739442
v -0.50083603 0.43249554 0.03739442
v -0.37082072 0.32094637 0.02658509
v -0.37082072 0.32472611 0.02637420
v -0.37082072 0.33415984 0.01756587
v -0.37082072 0.33437850 0.01227891
v -0.37082072 0.32847462 0.02390728
v -0.37082072 0.33184827 0.02058209
v -0.37082072 0.32628798 0.00335288
v -0.69756006 0.59661747 0.02559440
v -0.37082072 0.32325795 0.00308804
v -0.71153551 0.61001834 0.02934136
v -0.37082072 0.33291033 0.01033186
v -0.71153551 0.59955376 0.04188686
v -0.48179068 0.40132050 0.02618783
v -0.37082072 0.30823269 0.02114119
v -0.53679204 0.45379953 0.03730614
v -0.37278863 0.31604208 0.02545217
v -0.37082072 0.31810375 0.02606522
v -0.69756006 0.59605517 0.02559440
v -0.37605736 0.32725636 0.00343626
v -0.37585724 0.32066523 0.00330384
v -0.37082072 0.32082141 0.00303900
v -0.71153551 0.60264627 0.03227911
v -0.55713817 0.46632579 0.02632025
v -0.55713817 0.46632579 0.02536879
v -0.48179068 0.40132050 0.02383371
v -0.40620969 0.33644017 0.01609455
v -0.37082072 0.30920107 0.02193080
v -0.37639090 0.31229358 0.01825249
v -0.37082072 0.30735804 0.00947359
v -0.37082072 0.31476134 0.00312728
v -0.37082072 0.31273089 0.00336760
v -0.37388933 0.31457391 0.00368638
v -0.49186371 0.41281591 0.01528042
v -0.59115963 0.49728213 0.02416721
v -0.41751683 0.34668608 0.01372572
v -0.40620969 0.33644017 0.01425049
v -0.37082072 0.30773289 0.00897825
f 1 2 3
f 1 3 4
f 1 4 5
f 1 5 17
f 1 17 16
f 1 16 33
f 1 33 49
f 1 49 61
f 1 61 51
f 1 51 37
f 1 37 23
f 1 23 6
f 1 6 2
f 2 7 3
f 2 6 8
f 2 8 9
f 2 9 10
f 2 10 7
f 3 7 11
f 3 11 12
f 3 12 4
f 4 13 14
f 4 14 15
f 4 15 16
f 4 16 17
f 4 17 5
f 4 12 18
f 4 18 19
f 4 19 20
f 4 20 21
f 4 21 22
f 4 22 13
f 6 23 24
f 6 24 8
f 7 10 25
f 7 25 30
f 7 30 11
f 8 24 26
f 8 26 27
f 8 27 28
f 8 28 29
f 8 29 9
f 9 29 25
f 9 25 10
f 11 19 18
f 11 18 12
f 11 30 20
f 11 20 19
f 13 22 31
f 13 31 14
f 14 32 16
f 14 16 15
f 14 31 32
f 16 32 33
f 20 30 34
f 20 34 21
f 21 34 22
f 22 34 35
f 22 35 36
f 22 36 31
f 23 37 38
f 23 38 39
f 23 39 24
f 24 39 40
f 24 40 41
f 24 41 26
f 25 29 42
f 25 42 43
f 25 43 30
f 26 41 44
f 26 44 27
f 27 44 45
f 27 45 28
f 28 45 42
f 28 42 29
f 30 43 35
f 30 35 34
f 31 36 46
f 31 46 32
f 32 47 33
f 32 46 48
f 32 48 47
f 33 47 49
f 35 43 50
f 35 50 36
f 36 50 43
f 36 43 42
f 36 42 45
f 36 45 44
f 36 44 41
f 36 41 40
f 36 40 56
f 36 56 66
f 36 66 53
f 36 53 68
f 36 68 76
f 36 76 70
f 36 70 69
f 36 69 60
f 36 60 48
f 36 48 46
f 37 51 52
f 37 52 53
f 37 53 54
f 37 54 38
f 38 54 55
f 38 55 56
f 38 56 40
f 38 40 39
f 47 57 49
f 47 48 58
f 47 58 59
f 47 59 57
f 48 60 58
f 49 57 61
f 51 62 52
f 51 61 63
f 51 63 62
f 52 62 63
f 52 63 64
f 52 64 75
f 52 75 65
f 52 65 53
f 53 66 54
f 53 65 67
f 53 67 68
f 54 66 55
f 55 66 56
f 57 59 69
f 57 69 70
f 57 70 71
f 57 71 72
f 57 72 73
f 57 73 61
f 58 60 59
f 59 60 69
f 61 73 63
f 63 73 74
f 63 74 75
f 63 75 64
f 65 75 68
f 65 68 67
f 68 75 74
f 68 74 72
f 68 72 76
f 70 76 71
f 71 76 72
f 72 74 73

