v 0.40496830 -0.32240748 -0.21193255
v 0.40496830 -0.32243925 -0.21193255
v 0.40496830 -0.32240748 -0.21208577
v 0.40247643 -0.31809180 -0.20765955
v 0.40138583 -0.31702401 -0.19587899
v 0.37261384 -0.31152612 -0.06060693
v 0.40182870 -0.32676128 -0.20765955
v 0.40496830 -0.32243925 -0.21208577
v 0.37261384 -0.31222529 -0.06060693
v 0.39930379 -0.32676128 -0.21446912
v 0.39902619 -0.31809180 -0.21406055
v 0.39507360 -0.31111935 -0.21271565
v 0.39658720 -0.31005157 -0.20667216
v 0.39724818 -0.30929519 -0.19587899
v 0.39649467 -0.30937783 -0.18506881
v 0.39531154 -0.31022318 -0.17425861
v 0.39437296 -0.31124010 -0.16821512
v 0.36241511 -0.28918507 -0.06922103
v 0.35162811 -0.27860245 -0.04441718
v 0.35166776 -0.27869780 -0.04441718
v 0.35382912 -0.28460245 -0.04441718
v 0.35384895 -0.28475501 -0.04441718
v 0.39494141 -0.33403246 -0.19930080
v 0.39577420 -0.33485237 -0.20667216
v 0.39793560 -0.32849008 -0.19575983
v 0.39552965 -0.33459812 -0.21339661
v 0.35316153 -0.29350709 -0.04441718
v 0.34946671 -0.29883336 -0.04441718
v 0.36671800 -0.31630578 -0.05934716
v 0.36283151 -0.32259177 -0.06035157
v 0.38874811 -0.32782906 -0.21833355
v 0.38809374 -0.31606425 -0.21528627
v 0.39125981 -0.31111935 -0.21271565
v 0.38809374 -0.30979098 -0.20750633
v 0.38874811 -0.30749646 -0.19587899
v 0.33744370 -0.27637789 -0.04441718
v 0.34529601 -0.27712789 -0.04441718
v 0.35117202 -0.27904103 -0.05163532
v 0.35152896 -0.27853257 -0.04441718
v 0.38941570 -0.33729941 -0.19575983
v 0.38874811 -0.33996250 -0.20667216
v 0.38874811 -0.33671465 -0.21479258
v 0.34928825 -0.29903041 -0.04441718
v 0.34398730 -0.30452825 -0.04441718
v 0.33744370 -0.30725497 -0.04441718
v 0.36153602 -0.32259177 -0.06035157
v 0.37794127 -0.33984809 -0.18506881
v 0.37794127 -0.33609177 -0.21404352
v 0.37742570 -0.32835662 -0.21487769
v 0.38068430 -0.31902612 -0.21412864
v 0.38404861 -0.31182486 -0.21167720
v 0.33744370 -0.27668935 -0.04565992
v 0.37794127 -0.34130997 -0.19587899
v 0.37794127 -0.34058541 -0.20667216
v 0.33744370 -0.31172317 -0.05713405
v 0.33820382 -0.31226340 -0.05779798
v 0.33744370 -0.31303249 -0.06499910
v 0.35021361 -0.32285240 -0.10175374
v 0.36807962 -0.33637142 -0.17425861
v 0.37228337 -0.33375915 -0.21239220
v 0.37228337 -0.33230999 -0.21239220
v 0.37347972 -0.32510239 -0.21014505
v 0.37780908 -0.31668078 -0.20730205
v 0.33890446 -0.28878464 -0.07422607
v 0.33744370 -0.28739271 -0.06722923
v 0.36903803 -0.33675913 -0.18506881
v 0.36989068 -0.33682905 -0.19587899
v 0.37116634 -0.33548158 -0.20667216
v 0.33744370 -0.31313419 -0.06593542
v 0.34971790 -0.32331637 -0.10943153
v 0.33744370 -0.31315962 -0.06620780
v 0.34979061 -0.32350070 -0.12024172
v 0.36242833 -0.33225916 -0.16344843
v 0.33943321 -0.31277190 -0.09564216
v 0.33951914 -0.30621895 -0.09525061
v 0.37106720 -0.32835662 -0.20658704
v 0.37190664 -0.32154308 -0.20292690
v 0.34000166 -0.30060032 -0.09349714
v 0.33744370 -0.29339268 -0.07672858
v 0.35031275 -0.32309389 -0.12856642
v 0.33744370 -0.31345832 -0.07015735
v 0.33766181 -0.31396044 -0.07700096
v 0.33850785 -0.31376343 -0.08781115
v 0.33744370 -0.31167230 -0.08481494
v 0.33744370 -0.30630155 -0.08791330
v 0.33744370 -0.30621895 -0.08789627
v 0.33744370 -0.30609816 -0.08781115
v 0.33744370 -0.29564905 -0.07977586
v 0.33744370 -0.31366170 -0.07657536
f 1 2 8
f 1 8 3
f 1 3 4
f 1 4 5
f 1 5 6
f 1 6 9
f 1 9 2
f 2 7 8
f 2 9 7
f 3 8 10
f 3 10 11
f 3 11 12
f 3 12 13
f 3 13 4
f 4 13 14
f 4 14 5
f 5 14 15
f 5 15 16
f 5 16 17
f 5 17 6
f 6 18 19
f 6 19 20
f 6 20 21
f 6 21 22
f 6 22 9
f 6 17 16
f 6 16 18
f 7 23 24
f 7 24 8
f 7 9 25
f 7 25 23
f 8 24 26
f 8 26 10
f 9 22 27
f 9 27 28
f 9 28 29
f 9 29 30
f 9 30 23
f 9 23 25
f 10 31 11
f 10 26 31
f 11 31 32
f 11 32 12
f 12 32 33
f 12 33 34
f 12 34 35
f 12 35 13
f 13 35 36
f 13 36 37
f 13 37 38
f 13 38 14
f 14 38 39
f 14 39 19
f 14 19 15
f 15 19 16
f 16 19 18
f 19 39 37
f 19 37 36
f 19 36 45
f 19 45 44
f 19 44 43
f 19 43 28
f 19 28 27
f 19 27 22
f 19 22 21
f 19 21 20
f 23 40 41
f 23 41 24
f 23 30 40
f 24 41 26
f 26 42 31
f 26 41 42
f 28 43 29
f 29 43 44
f 29 44 30
f 30 44 45
f 30 45 46
f 30 46 47
f 30 47 41
f 30 41 40
f 31 42 48
f 31 48 49
f 31 49 50
f 31 50 32
f 32 50 51
f 32 51 33
f 33 51 34
f 34 51 52
f 34 52 36
f 34 36 35
f 36 52 65
f 36 65 79
f 36 79 88
f 36 88 87
f 36 87 86
f 36 86 85
f 36 85 84
f 36 84 89
f 36 89 81
f 36 81 71
f 36 71 69
f 36 69 57
f 36 57 55
f 36 55 45
f 37 39 38
f 41 47 53
f 41 53 54
f 41 54 42
f 42 54 48
f 45 55 46
f 46 55 56
f 46 56 57
f 46 57 58
f 46 58 59
f 46 59 53
f 46 53 47
f 48 60 49
f 48 54 60
f 49 60 61
f 49 61 50
f 50 61 62
f 50 62 51
f 51 62 63
f 51 63 64
f 51 64 52
f 52 64 65
f 53 59 66
f 53 66 67
f 53 67 54
f 54 67 68
f 54 68 60
f 55 57 56
f 57 69 58
f 58 70 59
f 58 69 71
f 58 71 70
f 59 72 73
f 59 73 66
f 59 70 72
f 60 68 74
f 60 74 61
f 61 74 75
f 61 75 76
f 61 76 62
f 62 76 77
f 62 77 63
f 63 77 64
f 64 78 79
f 64 79 65
f 64 77 78
f 66 73 67
f 67 73 72
f 67 72 80
f 67 80 68
f 68 80 74
f 70 71 81
f 70 81 82
f 70 82 72
f 72 82 83
f 72 83 80
f 74 83 84
f 74 84 85
f 74 85 75
f 74 80 83
f 75 85 86
f 75 86 78
f 75 78 76
f 76 78 77
f 78 86 87
f 78 87 88
f 78 88 79
f 81 89 82
f 82 89 83
f 83 89 84

