v 0.49681415 -0.20536298 0.07431353
v 0.49681415 -0.20732105 0.08511558
v 0.50465664 -0.21065434 0.07431353
v 0.50406419 -0.21153775 0.06660840
v 0.49622170 -0.21029005 0.06320593
v 0.48600929 -0.20884197 0.06350322
v 0.48600929 -0.20545404 0.07431353
v 0.48600929 -0.20690210 0.08511558
v 0.50284806 -0.21343208 0.09123509
v 0.50373673 -0.21207508 0.08511558
v 0.48600929 -0.21133740 0.09334099
v 0.49681415 -0.21158330 0.09287027
v 0.50498410 -0.21976171 0.07431353
v 0.50362766 -0.21976171 0.06715346
v 0.49743784 -0.21976171 0.06174418
v 0.49221469 -0.21387835 0.05774709
v 0.48600929 -0.21330457 0.05695428
v 0.46973182 -0.21432460 0.05802788
v 0.43196935 -0.23545364 0.02502713
v 0.42553010 -0.23568134 0.02519230
v 0.39403538 -0.24673767 0.01474536
v 0.39391065 -0.24667394 0.02027852
v 0.39397300 -0.24668302 0.02593556
v 0.47773023 -0.21164703 0.08511558
v 0.47946089 -0.21310422 0.09185447
v 0.50284806 -0.21703859 0.09123509
v 0.49768729 -0.22028992 0.09361353
v 0.50367443 -0.22028992 0.08544592
v 0.48600929 -0.21976171 0.09612408
v 0.50262975 -0.22561774 0.08206821
v 0.50255183 -0.22552663 0.07431353
v 0.50225560 -0.22518967 0.06887122
v 0.49141951 -0.22517146 0.05809394
v 0.49202758 -0.21976171 0.05782967
v 0.47264743 -0.22864137 0.04560717
v 0.47264743 -0.22336821 0.04560717
v 0.43843982 -0.23556295 0.02529965
v 0.41037519 -0.24548996 0.01309367
v 0.39957033 -0.24608195 0.01359743
v 0.39104181 -0.24873217 0.01176406
v 0.37794502 -0.25422391 0.01176406
v 0.37147455 -0.25706542 0.01176406
v 0.36809122 -0.25891421 0.01176406
v 0.37205146 -0.25727488 0.01561250
v 0.47833830 -0.21976171 0.09278768
v 0.35752024 -0.26605436 0.01176406
v 0.35985893 -0.26693778 0.01686778
v 0.34978686 -0.27766623 0.01576941
v 0.42390859 -0.24344993 0.06004294
v 0.50186580 -0.22424251 0.08926958
v 0.49466253 -0.22722062 0.09254818
v 0.47874367 -0.22716597 0.09220958
v 0.48600929 -0.22820422 0.09330796
v 0.49768729 -0.22809492 0.08544592
v 0.39660795 -0.29438734 0.01176406
v 0.40340584 -0.28219260 0.01176406
v 0.43829948 -0.24752091 0.02491150
v 0.43886078 -0.24137345 0.02481240
v 0.41828007 -0.24595444 0.01406817
v 0.41014135 -0.24767571 0.01176406
v 0.39957033 -0.24742985 0.01176406
v 0.43722369 -0.24638246 0.06898684
v 0.43722369 -0.24689251 0.06898684
v 0.38312136 -0.26793047 0.03663025
v 0.35334173 -0.26954247 0.01176406
v 0.35265570 -0.27046234 0.01238344
v 0.35151752 -0.27111807 0.01176406
v 0.34777558 -0.27560799 0.01176406
v 0.34571750 -0.28464246 0.01176406
v 0.34978686 -0.28107240 0.01576941
v 0.38876546 -0.29839459 0.01176406
v 0.44277421 -0.24735699 0.06954841
v 0.38767406 -0.29832173 0.01176406
v 0.41263597 -0.26036225 0.01176406
v 0.41835803 -0.25217476 0.01363047
v 0.41508381 -0.25242066 0.01176406
v 0.38312136 -0.26867729 0.03663025
v 0.37030518 -0.27980645 0.02633196
v 0.34576427 -0.28484283 0.01176406
v 0.35633525 -0.28290298 0.01797441
f 1 2 3
f 1 3 4
f 1 4 5
f 1 5 6
f 1 6 7
f 1 7 8
f 1 8 2
f 2 9 10
f 2 10 3
f 2 8 11
f 2 11 12
f 2 12 9
f 3 10 13
f 3 13 4
f 4 13 14
f 4 14 15
f 4 15 16
f 4 16 5
f 5 16 17
f 5 17 6
f 6 18 7
f 6 17 19
f 6 19 20
f 6 20 18
f 7 18 21
f 7 21 22
f 7 22 23
f 7 23 8
f 8 24 25
f 8 25 11
f 8 23 24
f 9 26 10
f 9 12 27
f 9 27 26
f 10 26 28
f 10 28 13
f 11 25 29
f 11 29 12
f 12 29 27
f 13 28 30
f 13 30 31
f 13 31 32
f 13 32 14
f 14 32 33
f 14 33 15
f 15 33 34
f 15 34 16
f 16 34 35
f 16 35 36
f 16 36 37
f 16 37 17
f 17 37 19
f 18 20 21
f 19 37 38
f 19 38 20
f 20 38 39
f 20 39 21
f 21 39 40
f 21 40 41
f 21 41 42
f 21 42 22
f 22 42 23
f 23 42 43
f 23 43 44
f 23 44 24
f 24 44 25
f 25 45 29
f 25 44 46
f 25 46 47
f 25 47 48
f 25 48 49
f 25 49 45
f 26 27 50
f 26 50 28
f 27 29 51
f 27 51 50
f 28 50 30
f 29 45 52
f 29 52 53
f 29 53 51
f 30 50 54
f 30 54 55
f 30 55 31
f 31 55 32
f 32 55 33
f 33 35 34
f 33 55 56
f 33 56 57
f 33 57 35
f 35 57 58
f 35 58 36
f 36 58 37
f 37 58 59
f 37 59 38
f 38 59 60
f 38 60 61
f 38 61 39
f 39 61 40
f 40 61 60
f 40 60 76
f 40 76 74
f 40 74 56
f 40 56 55
f 40 55 71
f 40 71 73
f 40 73 79
f 40 79 69
f 40 69 68
f 40 68 67
f 40 67 65
f 40 65 46
f 40 46 43
f 40 43 42
f 40 42 41
f 43 46 44
f 45 62 63
f 45 63 52
f 45 49 64
f 45 64 62
f 46 65 47
f 47 65 66
f 47 66 67
f 47 67 48
f 48 67 68
f 48 68 69
f 48 69 70
f 48 70 77
f 48 77 64
f 48 64 49
f 50 51 54
f 51 53 71
f 51 71 54
f 52 63 53
f 53 63 72
f 53 72 73
f 53 73 71
f 54 71 55
f 56 74 57
f 57 74 75
f 57 75 58
f 58 75 76
f 58 76 59
f 59 76 60
f 62 64 77
f 62 77 63
f 63 77 78
f 63 78 72
f 65 67 66
f 69 79 70
f 70 79 80
f 70 80 78
f 70 78 77
f 72 78 73
f 73 78 80
f 73 80 79
f 74 76 75

