v 0.28067781 -0.45751253 0.08431708
v 0.27338630 -0.45751253 0.08158475
v 0.27349406 -0.46603424 0.08135894
v 0.28067781 -0.46769128 0.08237509
v 0.28823509 -0.46616052 0.08161862
v 0.28931985 -0.45751253 0.08244283
v 0.28824228 -0.44995340 0.08144927
v 0.28067781 -0.44984293 0.08165250
v 0.27453573 -0.45124745 0.08056859
v 0.26902578 -0.45751253 0.07431360
v 0.27184901 -0.46911157 0.07441521
v 0.27476559 -0.47403524 0.07088126
v 0.28067781 -0.47308836 0.07773465
v 0.26405465 -0.46407743 0.06066327
v 0.28678400 -0.47427195 0.07149095
v 0.28929109 -0.46919046 0.07477652
v 0.29449213 -0.45667611 0.07346681
v 0.29772484 -0.44671829 0.07015867
v 0.29824922 -0.43590833 0.07040706
v 0.29772484 -0.42877529 0.06962800
v 0.33063352 -0.31889212 0.01606541
v 0.32109353 -0.34066990 0.02778505
v 0.31309083 -0.35632466 0.03588041
v 0.32390234 -0.31377905 0.01445085
v 0.30565565 -0.36277909 0.03821756
v 0.27335759 -0.44727063 0.07328616
v 0.31689820 -0.32040711 0.01621218
v 0.31439825 -0.31377905 0.00800392
v 0.30750907 -0.32195363 0.00448125
v 0.26575002 -0.45778081 0.06396013
v 0.26405465 -0.46155243 0.06066327
v 0.26730888 -0.46794375 0.06396013
v 0.27329292 -0.47488740 0.06349721
v 0.28067781 -0.47435083 0.07232646
v 0.26405465 -0.46407743 0.05723093
v 0.27313488 -0.47496632 0.05552604
v 0.28170510 -0.47496632 0.06253750
v 0.28678400 -0.47427195 0.06550693
v 0.28926957 -0.46937985 0.06253750
v 0.29702799 -0.45249416 0.06930058
v 0.33744370 -0.34944413 0.01172982
v 0.33744370 -0.34930212 0.01172982
v 0.33744370 -0.31377905 0.00944911
v 0.31889529 -0.36329988 0.03696430
v 0.33648827 -0.31377905 0.01020558
v 0.33449118 -0.31377905 0.01110883
v 0.32390234 -0.31826086 0.01676542
v 0.32305467 -0.31377905 0.01424762
v 0.31007368 -0.31377905 -0.00118663
v 0.30921878 -0.31553074 -0.00133341
v 0.30725045 -0.32094363 -0.00133341
v 0.26405465 -0.46155243 0.05723093
v 0.27304149 -0.45751253 0.04537580
v 0.27373830 -0.46527679 0.04626776
v 0.26983036 -0.46827515 0.05277114
v 0.30615135 -0.33864993 -0.00875133
v 0.27878849 -0.47496632 0.05552604
v 0.28067781 -0.46576600 0.04583871
v 0.28599376 -0.47367227 0.05830354
v 0.29702799 -0.45249416 0.06829572
v 0.33744370 -0.35646670 0.00203119
v 0.33744370 -0.35719262 0.00752971
v 0.33744370 -0.35586702 0.00838780
v 0.33744370 -0.31377905 -0.03101639
v 0.30992997 -0.31377905 -0.01186754
v 0.30728636 -0.32091209 -0.00787066
v 0.30661830 -0.32783993 -0.00878520
v 0.30666140 -0.34945994 -0.00774647
v 0.28390329 -0.44383036 0.03512394
v 0.30734383 -0.35555139 -0.00700129
v 0.31480058 -0.31377905 -0.02153229
v 0.28170510 -0.47165229 0.05222919
v 0.28707133 -0.46434571 0.04638066
v 0.28840752 -0.46666550 0.05269211
v 0.33744370 -0.34687183 -0.00579319
v 0.31752320 -0.33418389 -0.01807737
v 0.32687643 -0.31377905 -0.02738082
v 0.31594996 -0.32783993 -0.01931933
v 0.32332767 -0.31377905 -0.02587917
f 1 2 3
f 1 3 4
f 1 4 5
f 1 5 6
f 1 6 7
f 1 7 8
f 1 8 9
f 1 9 2
f 2 10 3
f 2 9 10
f 3 11 12
f 3 12 13
f 3 13 4
f 3 10 14
f 3 14 11
f 4 13 5
f 5 13 15
f 5 15 16
f 5 16 17
f 5 17 6
f 6 17 18
f 6 18 19
f 6 19 20
f 6 20 7
f 7 20 21
f 7 21 22
f 7 22 23
f 7 23 8
f 8 23 24
f 8 24 25
f 8 25 9
f 9 26 10
f 9 25 27
f 9 27 28
f 9 28 29
f 9 29 26
f 10 30 31
f 10 31 14
f 10 26 29
f 10 29 30
f 11 14 32
f 11 32 12
f 12 33 34
f 12 34 13
f 12 32 33
f 13 34 15
f 14 31 52
f 14 52 35
f 14 35 36
f 14 36 32
f 15 34 37
f 15 37 38
f 15 38 39
f 15 39 16
f 16 39 40
f 16 40 17
f 17 40 18
f 18 40 41
f 18 41 19
f 19 41 42
f 19 42 43
f 19 43 44
f 19 44 20
f 20 44 21
f 21 45 46
f 21 46 24
f 21 24 47
f 21 47 22
f 21 44 45
f 22 47 23
f 23 47 24
f 24 46 45
f 24 45 43
f 24 43 64
f 24 64 77
f 24 77 79
f 24 79 71
f 24 71 65
f 24 65 49
f 24 49 28
f 24 28 48
f 24 48 25
f 25 48 27
f 27 48 28
f 28 49 29
f 29 49 50
f 29 50 51
f 29 51 31
f 29 31 30
f 31 51 52
f 32 36 33
f 33 36 37
f 33 37 34
f 35 53 54
f 35 54 55
f 35 55 36
f 35 52 56
f 35 56 53
f 36 57 37
f 36 55 54
f 36 54 58
f 36 58 57
f 37 57 38
f 38 57 59
f 38 59 39
f 39 60 40
f 39 59 61
f 39 61 62
f 39 62 60
f 40 60 62
f 40 62 63
f 40 63 41
f 41 63 62
f 41 62 61
f 41 61 75
f 41 75 64
f 41 64 43
f 41 43 42
f 43 45 44
f 49 65 50
f 50 65 66
f 50 66 51
f 51 66 52
f 52 66 67
f 52 67 56
f 53 56 68
f 53 68 54
f 54 69 58
f 54 68 70
f 54 70 64
f 54 64 69
f 56 67 71
f 56 71 68
f 57 58 72
f 57 72 59
f 58 64 73
f 58 73 72
f 58 69 64
f 59 72 73
f 59 73 74
f 59 74 61
f 61 74 73
f 61 73 75
f 64 70 76
f 64 76 77
f 64 75 73
f 65 71 67
f 65 67 66
f 68 71 70
f 70 71 78
f 70 78 76
f 71 79 78
f 76 78 77
f 77 78 79

