v 0.35751409 -0.26606456 0.01175581
v 0.35767252 -0.26639032 0.01175581
v 0.35767252 -0.26593999 0.01171182
v 0.33744567 -0.26467535 -0.00171009
v 0.33744567 -0.27407414 0.00659819
v 0.35333013 -0.26955198 0.01175581
v 0.35767252 -0.28742027 0.01175581
v 0.35767252 -0.26475199 0.00911101
v 0.33744567 -0.25994238 -0.01215180
v 0.34776797 -0.27561665 0.01175581
v 0.35150840 -0.27113283 0.01175581
v 0.33744567 -0.28462263 0.00889108
v 0.35713194 -0.28732446 0.01175581
v 0.33744567 -0.34943706 0.01172282
v 0.35767252 -0.33539152 0.00426681
v 0.35767252 -0.26273043 -0.00136918
v 0.33744567 -0.25990407 -0.01269616
v 0.34570274 -0.28465139 0.01175581
v 0.33744567 -0.34929335 0.01172282
v 0.34575422 -0.28485257 0.01175581
v 0.33744567 -0.35585624 0.00837971
v 0.35157971 -0.34469454 0.00452524
v 0.35767252 -0.33999033 0.00040134
v 0.33744567 -0.25931962 -0.02295092
v 0.35767252 -0.26483822 -0.01224528
v 0.33744567 -0.35718798 0.00752194
v 0.34106729 -0.35557837 0.00533352
v 0.35313606 -0.34567177 -0.00134169
v 0.35767252 -0.34042149 -0.00054990
v 0.33744567 -0.25961666 -0.02370971
v 0.35767252 -0.26764541 -0.01842013
v 0.33744567 -0.35645982 0.00202891
v 0.34106729 -0.35557837 0.00257876
v 0.35321526 -0.34555682 -0.00824785
v 0.35767252 -0.33862029 -0.01238824
v 0.33744567 -0.26575798 -0.03254035
v 0.35152823 -0.27853883 -0.04441718
v 0.35767252 -0.28736276 -0.03041792
v 0.35382120 -0.28460350 -0.04441718
v 0.35166483 -0.27870171 -0.04441718
v 0.35162525 -0.27860589 -0.04441718
v 0.35767252 -0.33262268 -0.02649747
v 0.33744567 -0.30725261 -0.04441718
v 0.35767252 -0.32705619 -0.03268881
v 0.35767252 -0.33667538 -0.01839813
v 0.34529682 -0.27713044 -0.04441718
v 0.33744567 -0.27638311 -0.04441718
v 0.35767252 -0.29611967 -0.03405245
v 0.35384296 -0.28475679 -0.04441718
v 0.34398796 -0.30453165 -0.04441718
v 0.35767252 -0.31776279 -0.03719211
v 0.35767252 -0.32665382 -0.03304072
v 0.35767252 -0.30720468 -0.03633434
v 0.35767252 -0.31764781 -0.03719211
v 0.35315786 -0.29350408 -0.04441718
v 0.34928276 -0.29903222 -0.04441718
v 0.34946099 -0.29883104 -0.04441718
f 1 2 3
f 1 3 4
f 1 4 5
f 1 5 6
f 1 6 11
f 1 11 10
f 1 10 18
f 1 18 20
f 1 20 13
f 1 13 7
f 1 7 2
f 2 7 15
f 2 15 23
f 2 23 29
f 2 29 35
f 2 35 45
f 2 45 42
f 2 42 44
f 2 44 52
f 2 52 51
f 2 51 54
f 2 54 53
f 2 53 48
f 2 48 38
f 2 38 31
f 2 31 25
f 2 25 16
f 2 16 8
f 2 8 3
f 3 8 4
f 4 8 9
f 4 9 17
f 4 17 24
f 4 24 30
f 4 30 36
f 4 36 47
f 4 47 43
f 4 43 32
f 4 32 26
f 4 26 21
f 4 21 14
f 4 14 19
f 4 19 12
f 4 12 5
f 5 10 11
f 5 11 6
f 5 12 10
f 7 13 14
f 7 14 15
f 8 16 9
f 9 16 17
f 10 12 18
f 12 19 18
f 13 20 14
f 14 21 22
f 14 22 15
f 14 20 18
f 14 18 19
f 15 22 23
f 16 24 17
f 16 25 24
f 21 26 22
f 22 26 27
f 22 27 28
f 22 28 29
f 22 29 23
f 24 25 30
f 25 31 30
f 26 32 33
f 26 33 27
f 27 33 28
f 28 34 29
f 28 33 34
f 29 34 35
f 30 31 37
f 30 37 36
f 31 38 39
f 31 39 40
f 31 40 41
f 31 41 37
f 32 42 34
f 32 34 33
f 32 43 44
f 32 44 42
f 34 42 45
f 34 45 35
f 36 37 46
f 36 46 47
f 37 41 40
f 37 40 39
f 37 39 49
f 37 49 55
f 37 55 57
f 37 57 56
f 37 56 50
f 37 50 43
f 37 43 47
f 37 47 46
f 38 48 49
f 38 49 39
f 43 50 51
f 43 51 52
f 43 52 44
f 48 53 49
f 49 53 54
f 49 54 51
f 49 51 55
f 50 56 51
f 51 56 57
f 51 57 55

