v 0.33744095 -0.31375551 -0.03101730
v 0.32687874 -0.31375551 -0.02739071
v 0.33744095 -0.31366213 -0.07656006
v 0.33744095 -0.31375551 0.00943620
v 0.32333513 -0.31375551 -0.02588798
v 0.33744095 -0.31166999 -0.08480504
v 0.31480294 -0.31375551 -0.02154008
v 0.30993527 -0.31375551 -0.01188253
v 0.33744095 -0.31273607 0.00957646
v 0.33649051 -0.31375551 0.01018757
v 0.30938035 -0.29324275 -0.03202914
v 0.30938035 -0.28640258 -0.03706830
v 0.33744095 -0.30629277 -0.08790067
v 0.31008087 -0.31375551 -0.00120313
v 0.30938035 -0.29923472 -0.01215303
v 0.30938035 -0.29867442 -0.02296267
v 0.30938035 -0.29842539 -0.02349363
v 0.33744095 -0.28461277 0.00888520
v 0.33449068 -0.31375551 0.01109922
v 0.30938035 -0.28421590 -0.03822039
v 0.33744095 -0.30621497 -0.08789065
v 0.30938035 -0.28094756 -0.03948269
v 0.30938035 -0.27933671 -0.03978323
v 0.30938035 -0.27350040 -0.04027412
v 0.30938035 -0.27008421 -0.04043442
v 0.30938035 -0.26250475 -0.03999361
v 0.30938035 -0.25960217 -0.03980327
v 0.30938035 -0.29340617 -0.00292626
v 0.31440738 -0.31375551 0.00799358
v 0.30938035 -0.27379612 0.00759286
v 0.30938035 -0.28158566 0.00487792
v 0.30938035 -0.28676053 0.00163202
v 0.31309705 -0.26298724 0.00799358
v 0.32390102 -0.31375551 0.01444530
v 0.33744095 -0.27406846 0.00660105
v 0.33744095 -0.30609047 -0.08780048
v 0.30938035 -0.25653613 -0.03936247
v 0.30938035 -0.25608479 -0.03929234
v 0.30938035 -0.25157917 -0.03787977
v 0.30938035 -0.24860652 -0.03677777
v 0.30938035 -0.24157181 -0.03281056
v 0.30938035 -0.23902718 -0.03129781
v 0.30938035 -0.23642805 -0.02964481
v 0.32305768 -0.31375551 0.01423492
v 0.30938035 -0.26298724 0.00808374
v 0.31937944 -0.25703419 0.00447719
v 0.30938035 -0.25405377 0.00559923
v 0.33744095 -0.26467589 -0.00171406
v 0.33744095 -0.29563954 -0.07976588
v 0.30938035 -0.23564211 -0.02846266
v 0.32005523 -0.24545490 -0.02984517
v 0.33744095 -0.29339059 -0.07671033
v 0.30938035 -0.24877771 0.00236335
v 0.33072454 -0.25604591 -0.00500003
v 0.32273355 -0.25293318 -0.00212481
v 0.30938035 -0.24273909 -0.00285613
v 0.33744095 -0.25993677 -0.01215303
v 0.30938035 -0.23456044 -0.02419491
v 0.32681010 -0.24880886 -0.02296267
v 0.33130965 -0.25567238 -0.03046630
v 0.33744095 -0.25961774 -0.02371403
v 0.32593105 -0.24908901 -0.01215303
v 0.30938035 -0.23480944 -0.01433700
v 0.30938035 -0.23729184 -0.00870676
v 0.33228761 -0.25449733 -0.01215303
v 0.33744095 -0.25989785 -0.01269401
v 0.30938035 -0.23427249 -0.02295265
v 0.30956715 -0.23440479 -0.02296267
v 0.30938035 -0.23455264 -0.01782333
v 0.33272712 -0.25421719 -0.02296267
v 0.33744095 -0.25931425 -0.02296267
f 1 2 3
f 1 3 6
f 1 6 13
f 1 13 21
f 1 21 36
f 1 36 49
f 1 49 52
f 1 52 61
f 1 61 71
f 1 71 66
f 1 66 57
f 1 57 48
f 1 48 35
f 1 35 18
f 1 18 9
f 1 9 4
f 1 4 10
f 1 10 19
f 1 19 34
f 1 34 44
f 1 44 29
f 1 29 14
f 1 14 8
f 1 8 7
f 1 7 5
f 1 5 2
f 2 5 3
f 3 5 7
f 3 7 8
f 3 8 6
f 4 9 10
f 6 11 12
f 6 12 13
f 6 8 11
f 8 14 15
f 8 15 16
f 8 16 17
f 8 17 11
f 9 18 10
f 10 18 19
f 11 17 16
f 11 16 15
f 11 15 28
f 11 28 32
f 11 32 31
f 11 31 30
f 11 30 45
f 11 45 47
f 11 47 53
f 11 53 56
f 11 56 64
f 11 64 63
f 11 63 69
f 11 69 67
f 11 67 58
f 11 58 50
f 11 50 43
f 11 43 42
f 11 42 41
f 11 41 40
f 11 40 39
f 11 39 38
f 11 38 37
f 11 37 27
f 11 27 26
f 11 26 25
f 11 25 24
f 11 24 23
f 11 23 22
f 11 22 20
f 11 20 12
f 12 20 13
f 13 20 22
f 13 22 23
f 13 23 24
f 13 24 25
f 13 25 26
f 13 26 27
f 13 27 21
f 14 28 15
f 14 29 30
f 14 30 31
f 14 31 32
f 14 32 28
f 18 33 34
f 18 34 19
f 18 35 33
f 21 27 37
f 21 37 38
f 21 38 39
f 21 39 40
f 21 40 41
f 21 41 42
f 21 42 43
f 21 43 36
f 29 44 30
f 30 44 45
f 33 45 34
f 33 35 46
f 33 46 47
f 33 47 45
f 34 45 44
f 35 48 46
f 36 43 49
f 43 50 51
f 43 51 52
f 43 52 49
f 46 53 47
f 46 48 54
f 46 54 55
f 46 55 56
f 46 56 53
f 48 57 54
f 50 58 59
f 50 59 51
f 51 59 60
f 51 60 52
f 52 60 61
f 54 62 63
f 54 63 64
f 54 64 55
f 54 57 65
f 54 65 62
f 55 64 56
f 57 66 65
f 58 67 68
f 58 68 59
f 59 68 69
f 59 69 63
f 59 63 62
f 59 62 65
f 59 65 70
f 59 70 60
f 60 70 71
f 60 71 61
f 65 66 70
f 66 71 70
f 67 69 68

