v -0.37078734 0.33434365 0.01227742
v -0.37078734 0.33288993 0.01033336
v -0.37078734 0.33412000 0.01756349
v -0.34005941 0.32631086 0.02641981
v -0.34005941 0.32631086 0.02510338
v -0.33606301 0.32034684 0.02063651
v -0.36410448 0.32468941 0.00554859
v -0.37078734 0.32702841 0.00359229
v -0.37078734 0.33180894 0.02057129
v -0.33779479 0.31701072 0.03762367
v -0.33533033 0.32072891 0.03121272
v -0.32832551 0.31724370 0.02879588
v -0.32832551 0.31724370 0.02337532
v -0.33928234 0.31624658 0.01393620
v -0.35169341 0.31514696 0.00414250
v -0.37078734 0.32627360 0.00335183
v -0.33955986 0.30544612 0.00331107
v -0.34617614 0.30784105 0.00234516
v -0.37078734 0.32845419 0.02390107
v -0.34617614 0.31701072 0.03765220
v -0.33622952 0.30981663 0.03839396
v -0.26151889 0.23914303 0.01762463
v -0.34617614 0.30981663 0.03960033
v -0.26279552 0.24192003 0.01685026
v -0.25738927 0.23914303 0.00946932
v -0.25813304 0.23914303 0.00721959
v -0.26265121 0.24177092 0.00221474
v -0.29667618 0.27269995 0.00335590
v -0.34617614 0.31323663 0.00612325
v -0.37078734 0.32322635 0.00308691
v -0.34617614 0.29901618 0.00063340
v -0.29270197 0.26619544 0.00182347
v -0.30294832 0.26659615 -0.00058521
v -0.37078734 0.32469872 0.02637497
v -0.35224846 0.31582725 0.03690228
v -0.33768376 0.30147633 0.03788858
v -0.27042200 0.23914303 0.02065689
v -0.35382481 0.30981663 0.03769295
v -0.35366939 0.29901618 0.03751770
v -0.34650918 0.29832657 0.03815758
v -0.26140788 0.23914303 0.00126104
v -0.26404995 0.23914303 0.00008726
v -0.37078734 0.32080347 0.00304208
v -0.35662230 0.29964985 0.00232478
v -0.37078734 0.31473695 0.00312360
v -0.29214692 0.25579568 -0.00117618
v -0.27550633 0.23914303 -0.00203205
v -0.37078734 0.32090598 0.02658283
v -0.28158974 0.23914303 0.02077101
v -0.35907565 0.29901618 0.03403305
v -0.35204864 0.29335035 0.03666589
v -0.35279241 0.29252098 0.00314805
v -0.37078734 0.31267749 0.00336406
v -0.28677397 0.23914303 0.00078012
v -0.37078734 0.31806375 0.02606115
v -0.29061496 0.23914303 0.01800774
v -0.36414887 0.29901618 0.02862878
v -0.36314978 0.29217619 0.02714119
v -0.35617827 0.29062928 0.03087852
v -0.36314978 0.29217619 0.02383994
v -0.37078734 0.30735648 0.00946932
v -0.37078734 0.30771059 0.00897618
v -0.36312756 0.30366624 0.00362490
v -0.30037286 0.24794928 0.00235331
v -0.31871193 0.26164787 0.00544262
v -0.28982679 0.23914303 0.00211692
v -0.37078734 0.30918296 0.02192440
v -0.30844339 0.25031625 0.01497548
v -0.29411182 0.23914303 0.00946932
v -0.37078734 0.30818585 0.02113373
v -0.30757750 0.25112698 0.00726035
v -0.29241335 0.23914303 0.00585833
f 1 2 8
f 1 8 16
f 1 16 30
f 1 30 43
f 1 43 45
f 1 45 53
f 1 53 62
f 1 62 61
f 1 61 70
f 1 70 67
f 1 67 55
f 1 55 48
f 1 48 34
f 1 34 19
f 1 19 9
f 1 9 3
f 1 3 4
f 1 4 5
f 1 5 2
f 2 5 6
f 2 6 7
f 2 7 8
f 3 9 4
f 4 10 11
f 4 11 12
f 4 12 13
f 4 13 5
f 4 9 10
f 5 13 6
f 6 14 7
f 6 13 14
f 7 14 15
f 7 15 8
f 8 15 17
f 8 17 18
f 8 18 16
f 9 19 20
f 9 20 10
f 10 21 22
f 10 22 12
f 10 12 11
f 10 20 23
f 10 23 21
f 12 22 24
f 12 24 25
f 12 25 13
f 13 25 26
f 13 26 27
f 13 27 28
f 13 28 14
f 14 28 17
f 14 17 29
f 14 29 15
f 15 29 17
f 16 18 31
f 16 31 30
f 17 28 32
f 17 32 18
f 18 32 33
f 18 33 31
f 19 34 35
f 19 35 20
f 20 35 23
f 21 23 36
f 21 36 37
f 21 37 22
f 22 37 49
f 22 49 56
f 22 56 69
f 22 69 72
f 22 72 66
f 22 66 54
f 22 54 47
f 22 47 42
f 22 42 41
f 22 41 26
f 22 26 25
f 22 25 24
f 23 35 38
f 23 38 39
f 23 39 40
f 23 40 36
f 26 41 27
f 27 41 28
f 28 41 42
f 28 42 32
f 30 31 43
f 31 44 45
f 31 45 43
f 31 33 46
f 31 46 47
f 31 47 44
f 32 42 33
f 33 42 46
f 34 48 38
f 34 38 35
f 36 40 37
f 37 40 49
f 38 48 50
f 38 50 39
f 39 51 40
f 39 50 51
f 40 51 49
f 42 47 46
f 44 52 53
f 44 53 45
f 44 47 52
f 47 54 52
f 48 55 50
f 49 51 56
f 50 55 57
f 50 57 58
f 50 58 51
f 51 58 59
f 51 59 56
f 52 60 61
f 52 61 62
f 52 62 63
f 52 63 53
f 52 54 64
f 52 64 65
f 52 65 60
f 53 63 62
f 54 66 64
f 55 67 57
f 56 68 69
f 56 59 58
f 56 58 68
f 57 67 58
f 58 69 68
f 58 67 70
f 58 70 61
f 58 61 60
f 58 60 69
f 60 65 71
f 60 71 69
f 64 66 65
f 65 66 71
f 66 72 71
f 69 71 72

