v 0.35767813 -0.34042624 -0.00054799
v 0.35767813 -0.33998925 0.00040556
v 0.35767813 -0.33862373 -0.01238526
v 0.36713583 -0.33558308 -0.02295114
v 0.37363201 -0.33393532 -0.02295114
v 0.36809675 -0.33622945 -0.01137020
v 0.37363765 -0.33392620 -0.01444614
v 0.37233953 -0.33305225 -0.00724843
v 0.35767813 -0.33539191 0.00426587
v 0.39484579 -0.30176284 0.00562954
v 0.39659346 -0.29438885 0.01175581
v 0.35767813 -0.33667553 -0.01839874
v 0.36070146 -0.33375324 -0.02906202
v 0.36713583 -0.33380785 -0.02913892
v 0.37290149 -0.33347100 -0.02869804
v 0.37959997 -0.32687994 -0.02231545
v 0.38344936 -0.32264673 -0.01829108
v 0.38344936 -0.32264673 -0.01722475
v 0.38874857 -0.29840359 0.01175581
v 0.38765840 -0.29832165 0.01175581
v 0.35767813 -0.28741544 0.01175581
v 0.39484579 -0.30176284 0.00145138
v 0.40339873 -0.28219902 0.01175581
v 0.39693066 -0.29560873 0.00932581
v 0.35767813 -0.33262438 -0.02649874
v 0.35767813 -0.32706202 -0.03268652
v 0.35767813 -0.32665236 -0.03304025
v 0.36160617 -0.32254659 -0.03936645
v 0.36713583 -0.32337501 -0.04040202
v 0.37363765 -0.32357530 -0.04061734
v 0.37527292 -0.32743528 -0.03288645
v 0.38284806 -0.31998843 -0.02549392
v 0.41262603 -0.26036836 0.01175581
v 0.35767813 -0.26638587 0.01175581
v 0.35767813 -0.31776716 -0.03719278
v 0.36160617 -0.32116282 -0.03936645
v 0.36713583 -0.31949686 -0.04040202
v 0.37363765 -0.31978818 -0.04061734
v 0.38355051 -0.31278744 -0.02861089
v 0.41508176 -0.25242993 0.01175581
v 0.36808554 -0.25892085 0.01175581
v 0.35767813 -0.26593979 0.01170967
v 0.35767813 -0.31764881 -0.03719278
v 0.35767813 -0.30719776 -0.03633664
v 0.35767813 -0.29610946 -0.03405019
v 0.38355051 -0.31130353 -0.02861089
v 0.35767813 -0.28736991 -0.03042057
v 0.40542740 -0.25689984 0.00377885
v 0.41012535 -0.24767780 0.01175581
v 0.37147412 -0.25707280 0.01175581
v 0.35767813 -0.26272622 -0.00136824
v 0.36573092 -0.25989495 0.00946422
v 0.35767813 -0.26475632 0.00911561
v 0.35767813 -0.26764220 -0.01841924
v 0.36362360 -0.26778784 -0.01811165
v 0.39955498 -0.25544325 0.00241005
v 0.39955498 -0.24742289 0.01175581
v 0.38874857 -0.25479688 0.00037480
v 0.37113693 -0.25695445 0.00946422
v 0.37793660 -0.25423245 0.01175581
v 0.37794781 -0.25399575 0.00946422
v 0.37116503 -0.25704548 0.00191790
v 0.36739433 -0.25909382 -0.00154767
v 0.35767813 -0.26483826 -0.01224684
v 0.39103574 -0.24873384 0.01175581
v 0.37794781 -0.25862042 -0.00519779
f 1 2 9
f 1 9 21
f 1 21 34
f 1 34 42
f 1 42 53
f 1 53 51
f 1 51 64
f 1 64 54
f 1 54 47
f 1 47 45
f 1 45 44
f 1 44 43
f 1 43 35
f 1 35 27
f 1 27 26
f 1 26 25
f 1 25 12
f 1 12 3
f 1 3 4
f 1 4 5
f 1 5 6
f 1 6 7
f 1 7 8
f 1 8 2
f 2 8 10
f 2 10 11
f 2 11 9
f 3 12 13
f 3 13 14
f 3 14 4
f 4 14 15
f 4 15 5
f 5 7 6
f 5 15 16
f 5 16 17
f 5 17 18
f 5 18 7
f 7 18 10
f 7 10 8
f 9 19 20
f 9 20 21
f 9 11 19
f 10 22 23
f 10 23 24
f 10 24 11
f 10 18 17
f 10 17 22
f 11 23 33
f 11 33 40
f 11 40 49
f 11 49 57
f 11 57 65
f 11 65 60
f 11 60 50
f 11 50 41
f 11 41 34
f 11 34 21
f 11 21 20
f 11 20 19
f 11 24 23
f 12 25 13
f 13 25 26
f 13 26 27
f 13 27 28
f 13 28 29
f 13 29 30
f 13 30 14
f 14 30 15
f 15 30 31
f 15 31 16
f 16 31 32
f 16 32 17
f 17 32 33
f 17 33 22
f 22 33 23
f 27 35 28
f 28 35 43
f 28 43 36
f 28 36 37
f 28 37 29
f 29 37 38
f 29 38 30
f 30 38 46
f 30 46 39
f 30 39 32
f 30 32 31
f 32 39 40
f 32 40 33
f 34 41 42
f 36 43 44
f 36 44 37
f 37 44 45
f 37 45 38
f 38 45 47
f 38 47 48
f 38 48 40
f 38 40 46
f 39 46 40
f 40 48 49
f 41 50 51
f 41 51 52
f 41 52 53
f 41 53 42
f 47 54 55
f 47 55 48
f 48 55 56
f 48 56 49
f 49 56 55
f 49 55 58
f 49 58 57
f 50 59 51
f 50 60 59
f 51 59 61
f 51 61 62
f 51 62 63
f 51 63 64
f 51 53 52
f 54 64 65
f 54 65 57
f 54 57 66
f 54 66 58
f 54 58 55
f 57 58 66
f 59 60 61
f 60 65 61
f 61 65 62
f 62 65 64
f 62 64 63

