v -0.75583003 0.65996627 0.05269689
v -0.75618651 0.65996627 0.05000257
v -0.76221806 0.68285683 0.03637653
v -0.76179107 0.68434295 0.04189387
v -0.76163353 0.68470856 0.05269689
v -0.76200250 0.68334431 0.05855317
v -0.75939920 0.65996627 0.05905085
v -0.75784880 0.65996627 0.04216416
v -0.75824676 0.65996627 0.04075693
v -0.77211306 0.67728822 0.02493425
v -0.77244056 0.68337477 0.02522599
v -0.76891283 0.68671933 0.03263966
v -0.77258566 0.69373344 0.03611053
v -0.76536855 0.68974567 0.04189387
v -0.76565457 0.69011128 0.05269689
v -0.77296703 0.69354385 0.05816704
v -0.76869313 0.68740652 0.06036798
v -0.76690646 0.67747781 0.06235868
v -0.77848865 0.67728822 0.06714668
v -0.77848865 0.66648274 0.06570942
v -0.76731686 0.65996627 0.06057391
v -0.76233826 0.65996627 0.03673263
v -0.77243642 0.67089362 0.02514019
v -0.77848865 0.67728822 0.02332109
v -0.77848865 0.68372008 0.02489993
v -0.77371734 0.69373344 0.03611053
v -0.77077410 0.69454926 0.04189387
v -0.77106016 0.69440710 0.05269689
v -0.77747304 0.68803279 0.06130755
v -0.77319500 0.69354385 0.05816704
v -0.78544049 0.68438694 0.06011914
v -0.78914231 0.67668568 0.06182239
v -0.78929568 0.66648274 0.06302797
v -0.78854120 0.65996627 0.06029504
v -0.77848865 0.65996627 0.06166794
v -0.76755728 0.65996627 0.03205189
v -0.77279291 0.65996627 0.02970938
v -0.77848865 0.66868986 0.02410622
v -0.78665508 0.67728822 0.02407189
v -0.78472331 0.68337817 0.02509299
v -0.78674212 0.66861542 0.02412338
v -0.78061526 0.69172603 0.04189387
v -0.77521795 0.69454926 0.04189387
v -0.78601667 0.68491167 0.03108656
v -0.77482830 0.69440710 0.05269689
v -0.78022557 0.69129270 0.05269689
v -0.79519043 0.67267762 0.05888353
v -0.78675457 0.68588998 0.05269689
v -0.79216015 0.67923131 0.05269689
v -0.79545574 0.66648274 0.05913237
v -0.79521942 0.66044018 0.05869475
v -0.79230938 0.65996627 0.05928253
v -0.78929568 0.65996627 0.06010627
v -0.77877471 0.65996627 0.02885560
v -0.77848865 0.66328374 0.02689493
v -0.79589931 0.66648274 0.03384094
v -0.79540596 0.67307029 0.03428714
v -0.79162536 0.67692261 0.03084630
v -0.78992578 0.66560260 0.02801899
v -0.78429636 0.65996627 0.03003972
v -0.78946563 0.65996627 0.03163572
v -0.78709447 0.68632327 0.04189387
v -0.79250005 0.67952584 0.04189387
v -0.79594484 0.67383195 0.05269689
v -0.79773155 0.66648274 0.05269689
v -0.79561738 0.65996627 0.05681559
v -0.79817511 0.66648274 0.04189387
v -0.79559249 0.65998320 0.03516236
v -0.79610656 0.67412648 0.04189387
v -0.79554688 0.65996627 0.03514520
v -0.79665788 0.65996627 0.05269689
v -0.79701850 0.65996627 0.04189387
v -0.79560911 0.65996627 0.03523530
f 1 2 3
f 1 3 4
f 1 4 5
f 1 5 6
f 1 6 7
f 1 7 21
f 1 21 35
f 1 35 34
f 1 34 53
f 1 53 52
f 1 52 66
f 1 66 71
f 1 71 72
f 1 72 73
f 1 73 70
f 1 70 61
f 1 61 60
f 1 60 54
f 1 54 37
f 1 37 36
f 1 36 22
f 1 22 9
f 1 9 8
f 1 8 2
f 2 8 3
f 3 9 10
f 3 10 11
f 3 11 12
f 3 12 13
f 3 13 14
f 3 14 4
f 3 8 9
f 4 14 5
f 5 14 15
f 5 15 6
f 6 16 17
f 6 17 18
f 6 18 7
f 6 15 16
f 7 18 19
f 7 19 20
f 7 20 21
f 9 22 23
f 9 23 10
f 10 23 24
f 10 24 11
f 11 24 25
f 11 25 13
f 11 13 12
f 13 26 43
f 13 43 27
f 13 27 14
f 13 25 26
f 14 27 15
f 15 28 16
f 15 27 28
f 16 29 19
f 16 19 17
f 16 28 45
f 16 45 30
f 16 30 29
f 17 19 18
f 19 29 31
f 19 31 32
f 19 32 33
f 19 33 20
f 20 33 34
f 20 34 35
f 20 35 21
f 22 36 23
f 23 37 38
f 23 38 24
f 23 36 37
f 24 39 40
f 24 40 25
f 24 38 41
f 24 41 39
f 25 40 26
f 26 42 43
f 26 40 44
f 26 44 42
f 27 43 45
f 27 45 28
f 29 30 31
f 30 45 46
f 30 46 31
f 31 47 32
f 31 46 48
f 31 48 49
f 31 49 47
f 32 47 33
f 33 47 50
f 33 50 51
f 33 51 52
f 33 52 53
f 33 53 34
f 37 54 55
f 37 55 38
f 38 55 41
f 39 41 56
f 39 56 57
f 39 57 58
f 39 58 40
f 40 58 44
f 41 59 56
f 41 55 54
f 41 54 60
f 41 60 61
f 41 61 59
f 42 62 48
f 42 48 46
f 42 46 45
f 42 45 43
f 42 44 62
f 44 58 57
f 44 57 63
f 44 63 62
f 47 49 64
f 47 64 65
f 47 65 50
f 48 62 49
f 49 62 63
f 49 63 64
f 50 65 51
f 51 65 66
f 51 66 52
f 56 67 57
f 56 59 68
f 56 68 67
f 57 67 69
f 57 69 63
f 59 61 70
f 59 70 68
f 63 69 64
f 64 69 67
f 64 67 65
f 65 71 66
f 65 67 71
f 67 72 71
f 67 68 73
f 67 73 72
f 68 70 73

