v -0.16529977 0.00979145 -0.19384463
v -0.16545019 0.00979145 -0.19380914
v -0.16529977 0.01139909 -0.19437726
v -0.16529977 0.00979145 0.15044275
v -0.16875245 0.00979145 -0.19185616
v -0.17047538 0.01695975 -0.19416422
v -0.16640737 0.01193863 -0.19423521
v -0.17558261 0.03815636 -0.19849622
v -0.17323069 0.03727546 -0.19867376
v -0.17123428 0.03463277 -0.19838970
v -0.16861571 0.03421434 -0.19849622
v -0.16529977 0.03423636 -0.19846069
v -0.16529977 0.11066527 0.13560033
v -0.17707991 0.00979145 0.16013649
v -0.16949085 0.00979145 -0.19125255
v -0.18675427 0.03888310 -0.19427074
v -0.18389641 0.03659276 -0.19498090
v -0.18527065 0.04032557 -0.19569106
v -0.18107956 0.03659276 -0.19625918
v -0.18087445 0.04071097 -0.19771503
v -0.17820118 0.03953276 -0.19817663
v -0.17942501 0.04215343 -0.19846069
v -0.17699788 0.04071097 -0.19867376
v -0.17715512 0.04444377 -0.19924187
v -0.17323069 0.04051276 -0.19924187
v -0.16929941 0.04051276 -0.19941942
v -0.16537498 0.03659276 -0.19885130
v -0.16529977 0.03659276 -0.19885130
v -0.16529977 0.11262527 0.13517423
v -0.18654917 0.01950335 0.16290614
v -0.18514757 0.02084672 0.16205394
v -0.18107956 0.01695975 0.16113071
v -0.17776362 0.01302875 0.15999447
v -0.18107956 0.01302875 0.16176988
v -0.18118212 0.00979145 0.16226698
v -0.17078305 0.00979145 -0.19000976
v -0.18762257 0.03756175 -0.19164313
v -0.18829944 0.04032557 -0.19277939
v -0.18743797 0.04150377 -0.19483886
v -0.17229402 0.00979145 -0.18795027
v -0.18501084 0.04444377 -0.19693385
v -0.18220083 0.04444377 -0.19817663
v -0.18023861 0.04444377 -0.19867376
v -0.17715512 0.04836377 -0.19909986
v -0.17323069 0.04444377 -0.19970347
v -0.18016341 0.04836377 -0.19867376
v -0.16929941 0.04444377 -0.19984552
v -0.16529977 0.04051276 -0.19931290
v -0.16529977 0.11517987 0.13446407
v -0.20559704 0.04704242 0.15956837
v -0.20442792 0.04461995 0.15992345
v -0.18754736 0.01950335 0.16290614
v -0.18654917 0.01796178 0.16290614
v -0.18484675 0.00979145 0.16251554
v -0.18734910 0.03396108 -0.18745317
v -0.18823107 0.03638355 -0.18869596
v -0.19023430 0.04057883 -0.18851842
v -0.18967367 0.04444377 -0.19249533
v -0.18788922 0.04444377 -0.19519394
v -0.17264270 0.00979145 -0.18709809
v -0.18501084 0.04836377 -0.19689835
v -0.18791656 0.04836377 -0.19519394
v -0.18212562 0.04836377 -0.19810561
v -0.17323069 0.04836377 -0.19934839
v -0.17931561 0.05047792 -0.19846069
v -0.16759699 0.05438691 -0.19842519
v -0.16537498 0.05476129 -0.19849622
v -0.16929941 0.04836377 -0.19949044
v -0.16529977 0.04836377 -0.19941942
v -0.16529977 0.04444377 -0.19959696
v -0.16529977 0.04436669 -0.19959696
v -0.18501084 0.11092953 0.13673660
v -0.16529977 0.11889065 0.13254662
v -0.21641318 0.06798577 0.15250224
v -0.20751140 0.04704242 0.15956837
v -0.20781908 0.04444377 0.15974591
v -0.18754736 0.01796178 0.16290614
v -0.18888741 0.01677256 0.16244452
v -0.18873016 0.00979145 0.16066911
v -0.17359304 0.00979145 -0.18464802
v -0.17454339 0.00979145 -0.18017398
v -0.18752001 0.03368580 -0.18464802
v -0.18914038 0.03659276 -0.18464802
v -0.19054880 0.03957681 -0.18464802
v -0.19104791 0.04192220 -0.18716909
v -0.19071973 0.04444377 -0.18990322
v -0.18980358 0.04836377 -0.19249533
v -0.19082229 0.04836377 -0.19032932
v -0.18747900 0.05130376 -0.19483886
v -0.18521594 0.05249297 -0.19554902
v -0.18080609 0.05198646 -0.19739545
v -0.17715512 0.05280129 -0.19789257
v -0.16537498 0.05672128 -0.19799909
v -0.16529977 0.05477230 -0.19849622
v -0.16529977 0.05221769 -0.19888679
v -0.16529977 0.11900077 0.13247563
v -0.18893528 0.11078640 0.13663008
v -0.21641318 0.07050734 0.15154352
v -0.22426205 0.07919519 0.14760210
v -0.22677808 0.07846845 0.14735354
v -0.21900440 0.07029813 0.15129496
v -0.21953768 0.06798577 0.15168553
v -0.20731313 0.04176804 0.15935530
v -0.22715411 0.07583677 0.14749558
v -0.22911632 0.07583677 0.14643034
v -0.23109905 0.07583677 0.14447739
v -0.23075721 0.07303992 0.14405129
v -0.19015909 0.00979145 0.15765092
v -0.17476218 0.00979145 -0.17775943
v -0.18313067 0.00979145 -0.07865607
v -0.20220589 0.04732871 -0.09825659
v -0.20312888 0.04929972 -0.09825659
v -0.20660892 0.05422174 -0.08469246
v -0.19177263 0.04444377 -0.18464802
v -0.19125985 0.04444377 -0.18795027
v -0.19145129 0.04836377 -0.18837637
v -0.18827893 0.05249297 -0.19270837
v -0.19129404 0.05092938 -0.18773723
v -0.18666539 0.05392443 -0.19412869
v -0.18405366 0.05477230 -0.19490988
v -0.18107956 0.05539994 -0.19544250
v -0.16962759 0.06050914 -0.19569106
v -0.16529977 0.06014578 -0.19672081
v -0.16529977 0.05673229 -0.19799909
v -0.16529977 0.12077357 0.13030961
v -0.18893528 0.11274639 0.13478365
v -0.19874636 0.11314280 0.13137486
v -0.22547221 0.09325652 0.13904463
v -0.22684645 0.08608822 0.14341215
v -0.22426205 0.08651765 0.14373170
v -0.22426205 0.08369878 0.14547161
v -0.22426205 0.08115519 0.14682092
v -0.22033761 0.08144148 0.14696296
v -0.22812497 0.07977878 0.14614628
v -0.22817282 0.08378687 0.14422883
v -0.19048727 0.00979145 0.15690526
v -0.23103068 0.07976778 0.14415781
v -0.23296556 0.07976778 0.14121064
v -0.23251431 0.07583677 0.14121064
v -0.23105120 0.07270958 0.14121064
v -0.20748406 0.05264713 -0.06686735
v -0.19024114 0.00979145 0.03862747
v -0.21910012 0.06108173 0.02733587
v -0.20731313 0.05292241 -0.07077325
v -0.20711485 0.05328578 -0.07471466
v -0.20939842 0.06014578 -0.06686735
v -0.20269816 0.05414465 -0.11221132
v -0.19214866 0.04836377 -0.18464802
v -0.22099397 0.06407678 0.03124177
v -0.22210840 0.06686262 0.03124177
v -0.22259383 0.06882262 0.03124177
v -0.22238872 0.06953835 0.02879170
v -0.19000184 0.05226174 -0.18887350
v -0.18741063 0.05466218 -0.19153661
v -0.19551931 0.05229477 -0.16110609
v -0.19483561 0.05427679 -0.16309453
v -0.17115224 0.06206172 -0.19437726
v -0.18521594 0.05545499 -0.19270837
v -0.16853367 0.06248015 -0.19480336
v -0.16529977 0.06295363 -0.19515844
v -0.16529977 0.12111492 0.12942191
v -0.19612779 0.11341808 0.13176546
v -0.16529977 0.12134616 0.12881827
v -0.16529977 0.12211694 0.12576458
v -0.19915659 0.11336302 0.12874724
v -0.20692343 0.10938797 0.12846319
v -0.20648585 0.10914572 0.13109080
v -0.22702420 0.09795832 0.13254662
v -0.22576619 0.09735270 0.13513873
v -0.22819333 0.09255181 0.13847651
v -0.22819333 0.09058080 0.13989683
v -0.22819333 0.09474304 0.13648804
v -0.22817282 0.08748664 0.14195630
v -0.22946502 0.08515227 0.14284400
v -0.23066149 0.08253159 0.14362519
v -0.19321524 0.00979145 0.13726922
v -0.23401162 0.08369878 0.13904463
v -0.23459276 0.08369878 0.13709168
v -0.23442867 0.08102306 0.13652356
v -0.23436031 0.08117721 0.13332780
v -0.22435777 0.06798577 0.05481921
v -0.19876004 0.01890874 0.13130383
v -0.19338617 0.00979145 0.13332780
v -0.21923002 0.06090555 0.03124177
v -0.19025482 0.00979145 0.03891154
v -0.19110944 0.00979145 0.05872511
v -0.19125985 0.00979145 0.06266652
v -0.22238872 0.07025408 0.02879170
v -0.22488422 0.07583677 0.05087780
v -0.23439449 0.09056979 0.13045166
v -0.22219728 0.06632307 0.03518318
v -0.22286731 0.06828307 0.03518318
v -0.22551322 0.07191677 0.05481921
v -0.22507566 0.07191677 0.05087780
v -0.23482523 0.08770687 0.12927987
v -0.18786870 0.05511364 -0.18858941
v -0.18481256 0.05717274 -0.18851842
v -0.19507491 0.05456308 -0.16110609
v -0.23349884 0.09174799 0.12927987
v -0.23150244 0.09459989 0.12942191
v -0.16529977 0.06512285 -0.19231779
v -0.17200686 0.06261229 -0.19178517
v -0.16529977 0.06715992 -0.18862494
v -0.18244012 0.05796555 -0.18979670
v -0.16529977 0.06499072 -0.19249533
v -0.16529977 0.12213897 0.12537397
v -0.16529977 0.12227110 0.12157461
v -0.19915659 0.11336302 0.12707836
v -0.20718324 0.10953111 0.12548049
v -0.22702420 0.09795832 0.13027412
v -0.23135202 0.09455585 0.13332780
v -0.22827538 0.09664798 0.13364739
v -0.23057945 0.09392821 0.13577787
v -0.23043586 0.08986507 0.13939971
v -0.23129733 0.08761878 0.14010987
v -0.23340312 0.08796013 0.13755328
v -0.23197419 0.08378687 0.14142368
v -0.23441499 0.08687002 0.13645254
v -0.23489358 0.08796013 0.13368288
v -0.23513973 0.08369878 0.13332780
v -0.19327677 0.00979145 0.12942191
v -0.23439449 0.09056979 0.13258214
v -0.18337679 0.05836195 -0.18720461
v -0.16791149 0.06633408 -0.18731113
v -0.20705332 0.10946505 0.12324348
v -0.16529977 0.06813992 -0.18475454
v -0.16529977 0.12226009 0.12146807
v -0.16529977 0.12177559 0.11781073
v -0.16529977 0.06816194 -0.18464802
v -0.23345099 0.09174799 0.13368288
v -0.23404580 0.08949069 0.13520976
v -0.23134519 0.09131855 0.13716270
f 1 2 3
f 1 3 12
f 1 12 28
f 1 28 48
f 1 48 71
f 1 71 70
f 1 70 69
f 1 69 95
f 1 95 94
f 1 94 124
f 1 124 123
f 1 123 160
f 1 160 205
f 1 205 201
f 1 201 203
f 1 203 226
f 1 226 229
f 1 229 228
f 1 228 227
f 1 227 207
f 1 207 206
f 1 206 164
f 1 164 163
f 1 163 161
f 1 161 125
f 1 125 96
f 1 96 73
f 1 73 49
f 1 49 29
f 1 29 13
f 1 13 4
f 1 4 14
f 1 14 35
f 1 35 54
f 1 54 79
f 1 79 108
f 1 108 136
f 1 136 176
f 1 176 183
f 1 183 221
f 1 221 187
f 1 187 186
f 1 186 185
f 1 185 142
f 1 142 110
f 1 110 109
f 1 109 81
f 1 81 80
f 1 80 60
f 1 60 40
f 1 40 36
f 1 36 15
f 1 15 5
f 1 5 2
f 2 5 6
f 2 6 7
f 2 7 3
f 3 7 8
f 3 8 9
f 3 9 10
f 3 10 11
f 3 11 12
f 4 13 14
f 5 15 16
f 5 16 6
f 6 16 17
f 6 17 18
f 6 18 7
f 7 18 19
f 7 19 20
f 7 20 21
f 7 21 8
f 8 21 22
f 8 22 23
f 8 23 24
f 8 24 25
f 8 25 9
f 9 25 10
f 10 25 11
f 11 25 26
f 11 26 27
f 11 27 28
f 11 28 12
f 13 29 30
f 13 30 31
f 13 31 32
f 13 32 33
f 13 33 14
f 14 33 34
f 14 34 35
f 15 36 16
f 16 37 38
f 16 38 39
f 16 39 18
f 16 18 17
f 16 36 40
f 16 40 37
f 18 39 41
f 18 41 42
f 18 42 20
f 18 20 19
f 20 42 22
f 20 22 21
f 22 43 24
f 22 24 23
f 22 42 43
f 24 44 45
f 24 45 25
f 24 43 46
f 24 46 44
f 25 45 26
f 26 45 47
f 26 47 48
f 26 48 28
f 26 28 27
f 29 49 50
f 29 50 30
f 30 50 51
f 30 51 52
f 30 52 77
f 30 77 53
f 30 53 35
f 30 35 34
f 30 34 32
f 30 32 31
f 32 34 33
f 35 53 54
f 37 40 55
f 37 55 56
f 37 56 57
f 37 57 38
f 38 57 58
f 38 58 39
f 39 59 41
f 39 58 59
f 40 60 55
f 41 61 42
f 41 59 62
f 41 62 61
f 42 61 63
f 42 63 46
f 42 46 43
f 44 64 45
f 44 46 65
f 44 65 66
f 44 66 67
f 44 67 64
f 45 64 68
f 45 68 47
f 46 63 65
f 47 68 69
f 47 69 70
f 47 70 71
f 47 71 48
f 49 72 50
f 49 73 72
f 50 74 75
f 50 75 51
f 50 72 74
f 51 75 52
f 52 75 76
f 52 76 77
f 53 77 54
f 54 77 78
f 54 78 79
f 55 60 80
f 55 80 81
f 55 81 82
f 55 82 83
f 55 83 84
f 55 84 57
f 55 57 56
f 57 84 85
f 57 85 86
f 57 86 58
f 58 87 59
f 58 86 88
f 58 88 87
f 59 87 62
f 61 62 89
f 61 89 90
f 61 90 63
f 62 87 89
f 63 90 91
f 63 91 65
f 64 67 68
f 65 91 92
f 65 92 93
f 65 93 66
f 66 93 67
f 67 94 68
f 67 93 124
f 67 124 94
f 68 94 95
f 68 95 69
f 72 73 96
f 72 96 97
f 72 97 98
f 72 98 74
f 74 98 99
f 74 99 100
f 74 100 101
f 74 101 102
f 74 102 75
f 75 102 100
f 75 100 76
f 76 103 78
f 76 78 77
f 76 100 104
f 76 104 105
f 76 105 106
f 76 106 107
f 76 107 103
f 78 103 79
f 79 103 108
f 81 109 82
f 82 109 110
f 82 110 83
f 83 111 84
f 83 110 111
f 84 111 112
f 84 112 113
f 84 113 85
f 85 114 115
f 85 115 86
f 85 113 114
f 86 115 116
f 86 116 88
f 87 117 89
f 87 88 118
f 87 118 117
f 88 116 118
f 89 119 90
f 89 117 119
f 90 119 120
f 90 120 91
f 91 120 121
f 91 121 122
f 91 122 92
f 92 123 93
f 92 122 123
f 93 123 124
f 96 125 126
f 96 126 97
f 97 126 127
f 97 127 128
f 97 128 129
f 97 129 130
f 97 130 131
f 97 131 132
f 97 132 133
f 97 133 98
f 98 133 99
f 99 133 132
f 99 132 100
f 100 134 105
f 100 105 104
f 100 102 101
f 100 132 135
f 100 135 134
f 103 136 108
f 103 107 136
f 105 134 137
f 105 137 106
f 106 137 138
f 106 138 139
f 106 139 107
f 107 139 140
f 107 140 136
f 110 141 111
f 110 142 143
f 110 143 141
f 111 141 144
f 111 144 112
f 112 144 145
f 112 145 113
f 113 146 147
f 113 147 148
f 113 148 114
f 113 145 149
f 113 149 150
f 113 150 151
f 113 151 152
f 113 152 146
f 114 148 115
f 115 148 116
f 116 148 118
f 117 118 153
f 117 153 154
f 117 154 119
f 118 148 155
f 118 155 156
f 118 156 153
f 119 157 120
f 119 154 158
f 119 158 157
f 120 157 121
f 121 157 122
f 122 157 159
f 122 159 160
f 122 160 123
f 125 161 127
f 125 127 162
f 125 162 126
f 126 162 127
f 127 161 163
f 127 163 164
f 127 164 165
f 127 165 166
f 127 166 167
f 127 167 168
f 127 168 169
f 127 169 128
f 128 170 171
f 128 171 129
f 128 169 172
f 128 172 170
f 129 173 174
f 129 174 135
f 129 135 131
f 129 131 130
f 129 171 173
f 131 135 132
f 134 135 175
f 134 175 137
f 135 174 175
f 136 140 176
f 137 175 177
f 137 177 138
f 138 177 178
f 138 178 139
f 139 178 179
f 139 179 180
f 139 180 181
f 139 181 140
f 140 182 183
f 140 183 176
f 140 181 184
f 140 184 185
f 140 185 186
f 140 186 187
f 140 187 182
f 141 143 149
f 141 149 144
f 142 185 184
f 142 184 143
f 143 184 149
f 144 149 145
f 146 156 155
f 146 155 148
f 146 148 147
f 146 152 188
f 146 188 189
f 146 189 190
f 146 190 156
f 149 184 181
f 149 181 191
f 149 191 150
f 150 191 181
f 150 181 192
f 150 192 151
f 151 192 193
f 151 193 194
f 151 194 152
f 152 194 195
f 152 195 188
f 153 156 196
f 153 196 154
f 154 196 197
f 154 197 158
f 156 198 196
f 156 190 199
f 156 199 200
f 156 200 198
f 157 201 159
f 157 158 202
f 157 202 203
f 157 203 201
f 158 197 204
f 158 204 202
f 159 201 205
f 159 205 160
f 164 206 165
f 165 206 207
f 165 207 208
f 165 208 209
f 165 209 166
f 166 209 168
f 166 168 167
f 168 209 210
f 168 210 200
f 168 200 211
f 168 211 212
f 168 212 169
f 169 212 213
f 169 213 172
f 170 214 171
f 170 172 213
f 170 213 214
f 171 214 173
f 173 214 174
f 174 214 175
f 175 214 215
f 175 215 216
f 175 216 217
f 175 217 177
f 177 216 218
f 177 218 178
f 177 217 216
f 178 218 219
f 178 219 220
f 178 220 179
f 179 220 180
f 180 220 181
f 181 193 192
f 181 220 193
f 182 221 183
f 182 187 221
f 188 195 189
f 189 195 190
f 190 195 219
f 190 219 222
f 190 222 200
f 190 200 199
f 193 220 194
f 194 220 195
f 195 220 219
f 196 198 200
f 196 200 210
f 196 210 197
f 197 223 224
f 197 224 204
f 197 210 225
f 197 225 223
f 200 222 211
f 202 204 224
f 202 224 203
f 203 224 226
f 207 227 208
f 208 225 209
f 208 227 228
f 208 228 229
f 208 229 225
f 209 225 210
f 211 230 213
f 211 213 212
f 211 222 230
f 213 230 231
f 213 231 216
f 213 216 232
f 213 232 214
f 214 232 216
f 214 216 215
f 216 231 218
f 218 231 219
f 219 231 222
f 222 231 230
f 223 225 224
f 224 225 229
f 224 229 226

