v -0.09843542 -0.10042849 -0.17544161
v -0.09843542 -0.08167728 -0.17789496
v -0.09496147 -0.10042849 -0.17515715
v -0.09843542 -0.10042849 0.16991538
v -0.09843542 -0.01838930 -0.18276615
v -0.06721110 -0.01053494 -0.18009945
v -0.06328357 -0.01053494 -0.17963723
v -0.03421371 -0.02378377 -0.17480159
v -0.03188400 -0.02624365 -0.17426824
v -0.02795647 -0.02624365 -0.17369934
v -0.09403371 -0.10042849 -0.17505047
v -0.09460068 -0.10042849 -0.17512160
v 0.00687581 -0.10042849 0.17908885
v 0.00687581 0.00979145 0.16475973
v -0.09843542 0.00979145 0.15281284
v -0.09843542 -0.01430028 -0.18297950
v -0.07113862 -0.00660776 -0.18077501
v -0.06721110 -0.00660776 -0.18038390
v -0.06328357 -0.00660776 -0.17992168
v -0.01328754 0.00909016 -0.17497936
v -0.02795647 -0.02231647 -0.17409045
v -0.01107122 0.00979145 -0.17469491
v -0.02402895 -0.02624365 -0.17305933
v -0.00832917 -0.03802519 -0.16925481
v -0.00873120 -0.10042849 -0.16022355
v 0.00687581 -0.10042849 -0.15702350
v 0.00687581 0.00979145 -0.17014372
v -0.09843542 0.00979145 -0.18415286
v -0.08291088 -0.00268058 -0.18209059
v -0.07506614 -0.00268058 -0.18134392
v -0.06721110 -0.00268058 -0.18056169
v -0.06328357 -0.00268058 -0.18013500
v -0.01618421 0.00979145 -0.17537047
v -0.01379265 0.00979145 -0.17508602
v -0.01304013 0.00979145 -0.17497936
v -0.00893736 0.00979145 -0.17423269
v 0.00687581 -0.02624365 -0.16786813
v -0.00440164 -0.03409801 -0.16900594
v -0.00047412 -0.03409801 -0.16829480
v -0.00440164 -0.03802519 -0.16850814
v 0.00687581 -0.04128345 -0.16591255
v 0.00687581 -0.10032059 -0.15705905
v 0.00687581 0.00974829 -0.17014372
v -0.00440164 0.00979145 -0.17309488
v -0.06328357 0.00517377 -0.18034835
v -0.06721110 0.00124660 -0.18070391
v -0.06328357 0.00124660 -0.18027724
v 0.00687581 -0.02231647 -0.16818814
v 0.00687581 -0.02999821 -0.16740591
v 0.00345340 -0.03017083 -0.16804593
v 0.00377297 -0.03437852 -0.16744147
v 0.00528831 -0.03587819 -0.16694367
f 1 2 3
f 1 3 12
f 1 12 11
f 1 11 25
f 1 25 26
f 1 26 13
f 1 13 4
f 1 4 15
f 1 15 28
f 1 28 16
f 1 16 5
f 1 5 2
f 2 5 6
f 2 6 7
f 2 7 8
f 2 8 9
f 2 9 10
f 2 10 11
f 2 11 12
f 2 12 3
f 4 13 14
f 4 14 15
f 5 16 17
f 5 17 18
f 5 18 6
f 6 18 19
f 6 19 7
f 7 19 20
f 7 20 8
f 8 20 9
f 9 20 21
f 9 21 10
f 10 21 20
f 10 20 22
f 10 22 23
f 10 23 24
f 10 24 11
f 11 24 25
f 13 26 42
f 13 42 41
f 13 41 49
f 13 49 37
f 13 37 48
f 13 48 43
f 13 43 27
f 13 27 14
f 14 27 44
f 14 44 36
f 14 36 22
f 14 22 35
f 14 35 34
f 14 34 33
f 14 33 28
f 14 28 15
f 16 28 29
f 16 29 17
f 17 29 30
f 17 30 31
f 17 31 18
f 18 31 32
f 18 32 33
f 18 33 19
f 19 33 34
f 19 34 20
f 20 34 35
f 20 35 22
f 22 36 37
f 22 37 38
f 22 38 24
f 22 24 23
f 24 38 50
f 24 50 39
f 24 39 40
f 24 40 41
f 24 41 25
f 25 41 42
f 25 42 26
f 27 43 44
f 28 33 45
f 28 45 46
f 28 46 31
f 28 31 30
f 28 30 29
f 31 46 47
f 31 47 32
f 32 47 33
f 33 47 46
f 33 46 45
f 36 44 48
f 36 48 37
f 37 49 50
f 37 50 38
f 39 50 51
f 39 51 41
f 39 41 40
f 41 51 52
f 41 52 49
f 43 48 44
f 49 51 50
f 49 52 51

