v -0.16143363 0.00979146 -0.19459409
v -0.16102917 0.00979146 -0.19459409
v -0.16306836 0.00979146 -0.19448706
v -0.16529294 0.03427296 -0.19848212
v -0.16529294 0.03651297 -0.19883880
v -0.15841697 0.00979146 -0.19455839
v -0.16529294 0.01139712 -0.19438006
v -0.16377619 0.01066367 -0.19452273
v -0.16529294 0.00979146 -0.19384500
v -0.16529294 0.04043794 -0.19930251
v -0.16143363 0.04051723 -0.19905282
v -0.16175384 0.03663191 -0.19858911
v -0.15400151 0.00979146 -0.19413038
v -0.16529294 0.00979146 0.15044174
v -0.16529294 0.04444220 -0.19962355
v -0.15749007 0.04057670 -0.19862478
v -0.15878772 0.03796005 -0.19848212
v -0.16143363 0.04444220 -0.19930251
v -0.13394663 0.05621712 -0.19744768
v -0.15615868 0.03928820 -0.19830376
v -0.13394663 0.05229214 -0.19701964
v -0.01304425 0.00979146 -0.17501126
v 0.00685897 0.00979146 0.16478108
v -0.09076962 0.16221115 0.14559063
v -0.09469633 0.16221115 0.14505559
v -0.16529294 0.11069095 0.13560303
v -0.16529294 0.04836717 -0.19944520
v -0.13394663 0.06408688 -0.19744768
v -0.13394663 0.06014208 -0.19759034
v -0.13001991 0.05621712 -0.19694828
v 0.00475236 0.13473635 -0.18653267
v -0.01144323 0.00979146 -0.17476155
v 0.00089306 0.12966164 -0.18653267
v 0.00333672 0.13089068 -0.18631865
v 0.00685897 0.13473635 -0.18621162
v 0.00685897 0.13814592 0.15012072
v 0.00685897 0.00979146 -0.17012446
v 0.00685897 0.20096527 0.14255868
v 0.00685897 0.20148067 0.14248735
v 0.00685897 0.20489024 0.14198795
v -0.08684290 0.16613611 0.14501990
v -0.09469633 0.16526389 0.14405682
v -0.09705573 0.16462955 0.14362878
v -0.16529294 0.11509167 0.13449726
v -0.16529294 0.11265344 0.13513932
v -0.16529294 0.05477003 -0.19851778
v -0.16143363 0.05510702 -0.19855345
v -0.13787335 0.06408688 -0.19759034
v -0.11432990 0.07586179 -0.19602087
v -0.11040319 0.07586179 -0.19580685
v 0.00193793 0.13227829 -0.18667533
v 0.00279743 0.13473635 -0.18671100
v 0.00685897 0.13870096 -0.18635431
v -0.01107247 0.00979146 -0.17469022
v -0.01046576 0.01153589 -0.17479724
v -0.00439874 0.00979146 -0.17308508
v -0.00893216 0.00979146 -0.17422651
v 0.00685897 0.20540563 0.14188095
v 0.00685897 0.20881522 0.14102487
v 0.00685897 0.20931080 0.14084652
v -0.01225217 0.20148067 0.14131022
v -0.09065165 0.16633435 0.14427084
v -0.08926971 0.16821753 0.14334343
v 0.00685897 0.21153098 0.13981208
v 0.00685897 0.21176884 0.13966942
v -0.01440934 0.20352244 0.13945540
v -0.09206728 0.16784090 0.14120323
v -0.09469633 0.16657222 0.14120323
v -0.16529294 0.12210905 0.12575812
v -0.16529294 0.12135576 0.12882574
v -0.16529294 0.12111788 0.12943213
v -0.16529294 0.12076108 0.13028821
v -0.16362451 0.12111788 0.13153664
v -0.16529294 0.11899682 0.13246408
v -0.16529294 0.11889770 0.13253541
v -0.16529294 0.11517096 0.13446160
v -0.16529294 0.05673252 -0.19798272
v -0.14180005 0.06801185 -0.19676995
v -0.13787335 0.06801185 -0.19701964
v -0.11825663 0.07586179 -0.19602087
v -0.11040319 0.07978676 -0.19545017
v 0.00345469 0.14258628 -0.18621162
v 0.00685897 0.14258628 -0.18617596
v 0.00276372 0.13794769 -0.18671100
v 0.00685897 0.21226442 0.13777890
v 0.00532536 0.21135257 0.13927704
v 0.00685897 0.21230408 0.13727953
v -0.01440934 0.20352244 0.13906302
v -0.09006179 0.16839595 0.13881334
v -0.16529294 0.12177205 0.11780371
v -0.16529294 0.12226763 0.12147772
v -0.16529294 0.12226763 0.12154905
v -0.16529294 0.12212887 0.12540141
v 0.00685897 0.15866281 -0.17287106
v -0.01858884 0.14476683 -0.17911329
v -0.16032134 0.07039062 -0.18788812
v -0.16529294 0.06819026 -0.18464215
v -0.16529294 0.06008262 -0.19673426
v -0.13787335 0.07193682 -0.19598520
v -0.13394663 0.07193682 -0.19627055
v -0.11432990 0.07978676 -0.19537881
v -0.00047202 0.14258628 -0.18599760
v 0.00685897 0.14651126 -0.18539121
v 0.00685897 0.21202655 0.13378387
v 0.00685897 0.20603997 0.09415450
v 0.00685897 0.17866429 -0.06268645
v 0.00320190 0.17688022 -0.06290047
v 0.00685897 0.15798883 -0.17618836
v 0.00685897 0.15785006 -0.17679476
v -0.00279772 0.15255730 -0.17897063
v -0.15944499 0.06995452 -0.19052770
v -0.16529294 0.06717929 -0.18860151
v -0.16529294 0.06817043 -0.18474915
v -0.16529294 0.06289749 -0.19516479
v -0.15176010 0.07001398 -0.19448706
v -0.13475556 0.07744764 -0.19427304
v -0.13787335 0.07489046 -0.19487944
v -0.13364328 0.07602038 -0.19502213
v 0.00345469 0.14651126 -0.18517719
v 0.00685897 0.15069392 -0.18364338
v 0.00685897 0.15675979 -0.17914898
v 0.00540962 0.15632369 -0.17875660
v -0.05745152 0.12099895 -0.18663967
v -0.14094057 0.07839914 -0.19124109
v -0.15437229 0.06943911 -0.19395202
v -0.16529294 0.06295697 -0.19512912
v -0.16529294 0.06499874 -0.19248955
v -0.16529294 0.06511768 -0.19231119
v -0.13787335 0.07685295 -0.19388067
v -0.13214338 0.07784410 -0.19448706
v -0.00047202 0.14922702 -0.18325100
v -0.00047202 0.14651126 -0.18464215
v 0.00345469 0.14994065 -0.18353638
v 0.00571297 0.15227977 -0.18260897
v 0.00685897 0.15107057 -0.18342936
v 0.00685897 0.15380615 -0.18171720
v 0.00345469 0.15190313 -0.18228793
v -0.00296625 0.14871163 -0.18289432
v -0.00047202 0.15118950 -0.18153887
f 1 2 6
f 1 6 13
f 1 13 22
f 1 22 32
f 1 32 54
f 1 54 57
f 1 57 56
f 1 56 37
f 1 37 23
f 1 23 14
f 1 14 9
f 1 9 3
f 1 3 4
f 1 4 5
f 1 5 2
f 2 5 6
f 3 7 8
f 3 8 4
f 3 9 7
f 4 8 7
f 4 7 9
f 4 9 14
f 4 14 26
f 4 26 45
f 4 45 44
f 4 44 76
f 4 76 75
f 4 75 74
f 4 74 72
f 4 72 71
f 4 71 70
f 4 70 69
f 4 69 93
f 4 93 92
f 4 92 91
f 4 91 90
f 4 90 97
f 4 97 113
f 4 113 112
f 4 112 128
f 4 128 127
f 4 127 126
f 4 126 114
f 4 114 98
f 4 98 77
f 4 77 46
f 4 46 27
f 4 27 15
f 4 15 10
f 4 10 5
f 5 10 11
f 5 11 12
f 5 12 6
f 6 12 13
f 10 15 11
f 11 16 17
f 11 17 12
f 11 15 18
f 11 18 19
f 11 19 16
f 12 17 13
f 13 17 20
f 13 20 21
f 13 21 22
f 14 23 24
f 14 24 25
f 14 25 26
f 15 27 28
f 15 28 29
f 15 29 19
f 15 19 18
f 16 19 21
f 16 21 17
f 17 21 20
f 19 30 21
f 19 29 31
f 19 31 30
f 21 30 22
f 22 30 33
f 22 33 34
f 22 34 35
f 22 35 32
f 23 36 24
f 23 37 35
f 23 35 53
f 23 53 83
f 23 83 103
f 23 103 120
f 23 120 135
f 23 135 136
f 23 136 121
f 23 121 109
f 23 109 108
f 23 108 94
f 23 94 106
f 23 106 105
f 23 105 104
f 23 104 87
f 23 87 85
f 23 85 65
f 23 65 64
f 23 64 60
f 23 60 59
f 23 59 58
f 23 58 40
f 23 40 39
f 23 39 38
f 23 38 36
f 24 36 38
f 24 38 39
f 24 39 40
f 24 40 41
f 24 41 25
f 25 41 42
f 25 42 43
f 25 43 44
f 25 44 45
f 25 45 26
f 27 46 47
f 27 47 48
f 27 48 28
f 28 48 49
f 28 49 29
f 29 49 50
f 29 50 31
f 30 31 51
f 30 51 33
f 31 50 52
f 31 52 53
f 31 53 35
f 31 35 34
f 31 34 51
f 32 35 55
f 32 55 54
f 33 51 34
f 35 37 56
f 35 56 57
f 35 57 55
f 40 58 41
f 41 58 59
f 41 59 60
f 41 60 61
f 41 61 62
f 41 62 42
f 42 63 43
f 42 62 61
f 42 61 64
f 42 64 65
f 42 65 66
f 42 66 63
f 43 63 66
f 43 66 67
f 43 67 68
f 43 68 69
f 43 69 70
f 43 70 71
f 43 71 72
f 43 72 73
f 43 73 74
f 43 74 75
f 43 75 76
f 43 76 44
f 46 77 78
f 46 78 79
f 46 79 47
f 47 79 48
f 48 79 80
f 48 80 49
f 49 80 81
f 49 81 82
f 49 82 83
f 49 83 84
f 49 84 50
f 50 84 52
f 52 84 53
f 53 84 83
f 54 55 57
f 60 64 61
f 65 85 86
f 65 86 66
f 66 86 85
f 66 85 87
f 66 87 88
f 66 88 67
f 67 88 89
f 67 89 68
f 68 90 91
f 68 91 92
f 68 92 93
f 68 93 69
f 68 89 94
f 68 94 95
f 68 95 96
f 68 96 97
f 68 97 90
f 72 74 73
f 77 98 99
f 77 99 78
f 78 99 100
f 78 100 79
f 79 100 101
f 79 101 80
f 80 101 82
f 80 82 81
f 82 101 100
f 82 100 102
f 82 102 103
f 82 103 83
f 87 104 88
f 88 104 105
f 88 105 89
f 89 105 106
f 89 106 107
f 89 107 94
f 94 107 106
f 94 108 95
f 95 108 109
f 95 109 110
f 95 110 111
f 95 111 96
f 96 111 112
f 96 112 113
f 96 113 97
f 98 114 115
f 98 115 116
f 98 116 117
f 98 117 99
f 99 117 118
f 99 118 119
f 99 119 100
f 100 119 102
f 102 119 103
f 103 119 120
f 109 121 122
f 109 122 110
f 110 122 121
f 110 121 123
f 110 123 124
f 110 124 111
f 111 124 125
f 111 125 126
f 111 126 127
f 111 127 128
f 111 128 112
f 114 126 115
f 115 129 116
f 115 126 125
f 115 125 123
f 115 123 129
f 116 130 117
f 116 129 123
f 116 123 131
f 116 131 132
f 116 132 130
f 117 130 118
f 118 130 132
f 118 132 119
f 119 132 120
f 120 132 133
f 120 133 134
f 120 134 135
f 121 136 137
f 121 137 138
f 121 138 139
f 121 139 123
f 123 139 138
f 123 138 131
f 123 125 124
f 131 138 137
f 131 137 134
f 131 134 133
f 131 133 132
f 134 137 136
f 134 136 135

