v -0.09903954 -0.10042849 -0.17546095
v -0.09863060 -0.10042849 -0.17546095
v -0.10264564 -0.10042849 -0.17523928
v -0.10948607 -0.08365166 -0.17885999
v -0.10648409 -0.08373797 -0.17889694
v -0.09844472 -0.10042849 -0.17542401
v -0.10648409 -0.08120257 -0.17937724
v -0.10380739 -0.08343588 -0.17882305
v -0.10119575 -0.08254040 -0.17871221
v -0.10324046 -0.10042849 -0.17516538
v -0.11063853 -0.08503265 -0.17837969
v -0.11825968 -0.07334821 -0.18055952
v -0.14182014 -0.01446212 -0.19204974
v -0.10045223 -0.07991869 -0.17882305
v -0.09844472 -0.08167728 -0.17789940
v -0.09844472 -0.10042849 0.16991081
v -0.13789805 -0.01446212 -0.19179111
v -0.10522009 -0.10042849 -0.17490677
v -0.11683768 -0.07977843 -0.17893388
v -0.12219107 -0.06942104 -0.18089202
v -0.14324214 -0.02022342 -0.19049800
v -0.14188520 -0.01870218 -0.19105219
v -0.15751783 0.00124660 -0.19352758
v -0.15358643 0.00124660 -0.19386009
v -0.14966434 0.00124660 -0.19374925
v -0.14574224 -0.00268058 -0.19323200
v -0.09844472 -0.08121336 -0.17793634
v -0.09844472 -0.01838930 -0.18277628
v -0.09844472 -0.10030981 0.16991081
v -0.11148429 -0.10042849 0.17936901
v -0.09844472 0.00979145 -0.18414329
v -0.09844472 0.00974829 -0.18414329
v -0.10714397 -0.10042849 -0.17457425
v -0.12225612 -0.07341295 -0.17963585
v -0.10827784 -0.09878856 -0.17483288
v -0.14406931 -0.03255519 -0.18680339
v -0.14574224 -0.02231647 -0.18938962
v -0.14182014 -0.02624365 -0.18909405
v -0.14574224 -0.01931715 -0.19023938
v -0.16143992 0.00517377 -0.19371231
v -0.16143992 0.00782786 -0.19434040
v -0.16143992 0.00979145 -0.19459901
v -0.15840076 0.00976987 -0.19456207
v -0.15358643 0.00979145 -0.19408177
v -0.14966434 0.00517377 -0.19371231
v -0.14574224 0.00124660 -0.19319506
v -0.09844472 0.00979145 0.15280478
v -0.11362193 -0.10042849 0.18018181
v -0.15035209 0.00979145 -0.19352758
v -0.11073147 -0.10042849 -0.17291168
v -0.12098284 -0.07604545 -0.17908167
v -0.12480270 -0.07215064 -0.17911861
v -0.13685711 -0.04908386 -0.18321962
v -0.14778693 -0.02829355 -0.18665562
v -0.16439543 0.00204498 -0.19123692
v -0.15968335 -0.00493547 -0.19068273
v -0.16544567 0.00979145 -0.19378619
v -0.16306639 0.00979145 -0.19448817
v -0.15841935 0.00979145 -0.19456207
v -0.18117124 0.00979145 0.16226297
v -0.15941382 -0.03206968 0.17460296
v -0.13562099 -0.07417896 0.18262026
v -0.13517488 -0.07727539 0.18284193
v -0.11425393 -0.10042849 0.18032960
v -0.11140065 -0.10042849 -0.17250528
v -0.12859467 -0.06806163 -0.17908167
v -0.13221008 -0.06385394 -0.17893388
v -0.16701636 0.00370648 -0.19020243
v -0.16776918 0.00631740 -0.19094136
v -0.16557579 0.00507667 -0.19186501
v -0.16583602 0.00979145 -0.19356452
v -0.18484238 0.00979145 0.16252159
v -0.16028745 -0.03206968 0.17460296
v -0.13629946 -0.07417896 0.18262026
v -0.13664334 -0.07727539 0.18284193
v -0.13523994 -0.07975685 0.18276804
v -0.13650394 -0.07975685 0.18276804
v -0.11817603 -0.10042849 0.17973846
v -0.11244158 -0.10042849 -0.17184024
v -0.11298993 -0.10042849 -0.17147078
v -0.13121560 -0.06647565 -0.17804717
v -0.13240524 -0.06800768 -0.17542401
v -0.16385638 -0.00531309 -0.18706202
v -0.17148681 0.00672738 -0.18695118
v -0.17078046 0.00979145 -0.19001770
v -0.16947929 0.00979145 -0.19123692
v -0.16859635 0.00909016 -0.19164332
v -0.16874506 0.00979145 -0.19186501
v -0.18872731 0.00979145 0.16067429
v -0.18538145 0.00517377 0.16248465
v -0.17642195 -0.01446212 0.16750931
v -0.16256451 -0.03409801 0.17434434
v -0.16060346 -0.03409801 0.17478769
v -0.15985993 -0.04071164 0.17486157
v -0.14036097 -0.07977843 0.17914732
v -0.12016495 -0.10042849 0.17877786
v -0.11846415 -0.10042849 0.17962762
v -0.11464428 -0.10042849 -0.16929097
v -0.12029507 -0.09112840 -0.17099048
v -0.13278630 -0.06935630 -0.17250528
v -0.15538019 -0.02790515 -0.17819496
v -0.14772188 -0.03999957 -0.17878611
v -0.17182140 0.00606926 -0.18466052
v -0.17327127 0.00909016 -0.18466052
v -0.17357798 0.00979145 -0.18466052
v -0.17263928 0.00979145 -0.18709896
v -0.17228610 0.00979145 -0.18794873
v -0.15948817 -0.02037446 -0.17878611
v -0.19014931 0.00979145 0.15764471
v -0.18824402 0.00517377 0.16052651
v -0.18552085 0.00124660 0.16226297
v -0.17838302 -0.01446212 0.16584674
v -0.16483226 -0.03409801 0.17238620
v -0.16224850 -0.03802519 0.17353152
v -0.13427336 -0.10042849 0.15709053
v -0.13412465 -0.10042849 0.15738610
v -0.13344618 -0.10042849 0.15867921
v -0.13232160 -0.10042849 0.16082208
v -0.12765597 -0.10042849 0.16943051
v -0.12562987 -0.10042849 0.17234924
v -0.12196800 -0.10042849 0.17674583
v -0.16411661 -0.03802519 0.17157338
v -0.17526020 -0.02042841 0.16680733
v -0.17936818 -0.01691121 0.16322357
v -0.14380906 -0.08712571 0.15502154
v -0.13602994 -0.09902592 0.15516933
v -0.13451500 -0.10042849 0.15653634
v -0.11479299 -0.10042849 -0.16906928
v -0.11513686 -0.10042849 -0.16851509
v -0.11654956 -0.09928485 -0.16736977
v -0.12065754 -0.09178653 -0.16895845
v -0.13203348 -0.07142778 -0.17095354
v -0.15576125 -0.02853091 -0.17557180
v -0.16351250 -0.01269273 -0.17900778
v -0.16750895 -0.00501100 -0.17930335
v -0.17144034 0.00283257 -0.17948808
v -0.17427504 0.00939225 -0.18052256
v -0.17453527 0.00979145 -0.18015310
v -0.15970192 -0.02076286 -0.17679101
v -0.16518543 -0.01053494 -0.17679101
v -0.19047459 0.00979145 0.15690580
v -0.18779791 0.00124660 0.16030483
v -0.18736109 -0.00166642 0.15971370
v -0.18756555 -0.00191457 0.15690580
v -0.17133811 -0.03619107 0.13950421
v -0.15342844 -0.06942104 0.14120372
v -0.14380906 -0.08712571 0.15443041
v -0.13637381 -0.10042849 0.14903628
v -0.13569534 -0.10042849 0.15298951
v -0.11609415 -0.10042849 -0.16622443
v -0.11992331 -0.09445140 -0.16500523
v -0.15598430 -0.02894089 -0.17287474
v -0.15748994 -0.02624365 -0.17287474
v -0.16010157 -0.02147493 -0.17287474
v -0.16176521 -0.01838930 -0.17287474
v -0.16678402 -0.00746009 -0.17679101
v -0.17163552 0.00242259 -0.17679101
v -0.17474902 0.00979145 -0.17778856
v -0.16310356 -0.01587547 -0.17287474
v -0.16414450 -0.01391188 -0.17287474
v -0.19320705 0.00979145 0.13725049
v -0.18974036 0.00517377 0.15690580
v -0.18878307 0.00124660 0.15690580
v -0.19337434 0.00979145 0.13333421
v -0.19067907 0.00371727 0.13725049
v -0.18948013 0.00124660 0.13725049
v -0.17131952 -0.03615870 0.13725049
v -0.15494336 -0.06630303 0.13725049
v -0.13145726 -0.10042849 0.03912176
v -0.13624369 -0.10042849 0.14512000
v -0.11630792 -0.10042849 -0.16500523
v -0.14636494 -0.05763950 -0.09041113
v -0.12103860 -0.09248781 -0.16500523
v -0.11642873 -0.10042849 -0.16367516
v -0.13140148 -0.10042849 0.03834589
v -0.14759176 -0.05547092 -0.09041113
v -0.17080835 -0.01164620 -0.09436435
v -0.17948901 0.00251969 -0.07862533
v -0.16584531 -0.01053494 -0.17287474
v -0.16707213 -0.00801033 -0.17287474
v -0.17180281 0.00202340 -0.17287474
v -0.18312299 0.00979145 -0.07862533
v -0.18083664 0.00517377 -0.07862533
v -0.19327211 0.00979145 0.12941792
v -0.19062331 0.00378200 0.13333421
v -0.19125530 0.00979145 0.06265640
v -0.18321593 -0.00498942 0.04303804
v -0.17913584 -0.01254168 0.04078433
v -0.19025154 0.00979145 0.03890008
v -0.19110660 0.00979145 0.05874011
f 1 2 6
f 1 6 16
f 1 16 30
f 1 30 48
f 1 48 64
f 1 64 78
f 1 78 97
f 1 97 96
f 1 96 121
f 1 121 120
f 1 120 119
f 1 119 118
f 1 118 117
f 1 117 116
f 1 116 115
f 1 115 127
f 1 127 149
f 1 149 148
f 1 148 170
f 1 170 169
f 1 169 175
f 1 175 174
f 1 174 171
f 1 171 150
f 1 150 129
f 1 129 128
f 1 128 98
f 1 98 80
f 1 80 79
f 1 79 65
f 1 65 50
f 1 50 33
f 1 33 18
f 1 18 10
f 1 10 3
f 1 3 4
f 1 4 5
f 1 5 2
f 2 5 7
f 2 7 8
f 2 8 9
f 2 9 6
f 3 10 11
f 3 11 4
f 4 11 12
f 4 12 13
f 4 13 5
f 5 13 7
f 6 9 14
f 6 14 15
f 6 15 27
f 6 27 28
f 6 28 32
f 6 32 31
f 6 31 47
f 6 47 29
f 6 29 16
f 7 13 17
f 7 17 8
f 8 17 9
f 9 17 14
f 10 18 12
f 10 12 11
f 12 18 19
f 12 19 20
f 12 20 21
f 12 21 22
f 12 22 13
f 13 22 23
f 13 23 24
f 13 24 25
f 13 25 26
f 13 26 17
f 14 27 15
f 14 17 28
f 14 28 27
f 16 29 30
f 17 26 31
f 17 31 32
f 17 32 28
f 18 33 19
f 19 34 20
f 19 33 35
f 19 35 34
f 20 34 36
f 20 36 37
f 20 37 38
f 20 38 21
f 21 38 39
f 21 39 23
f 21 23 22
f 23 40 41
f 23 41 24
f 23 39 37
f 23 37 36
f 23 36 40
f 24 41 42
f 24 42 43
f 24 43 25
f 25 43 44
f 25 44 45
f 25 45 46
f 25 46 26
f 26 46 31
f 29 47 30
f 30 47 48
f 31 46 45
f 31 45 49
f 31 49 44
f 31 44 59
f 31 59 42
f 31 42 58
f 31 58 57
f 31 57 71
f 31 71 88
f 31 88 86
f 31 86 85
f 31 85 107
f 31 107 106
f 31 106 105
f 31 105 138
f 31 138 158
f 31 158 182
f 31 182 189
f 31 189 190
f 31 190 186
f 31 186 184
f 31 184 164
f 31 164 161
f 31 161 141
f 31 141 109
f 31 109 89
f 31 89 72
f 31 72 60
f 31 60 47
f 33 50 35
f 34 35 51
f 34 51 52
f 34 52 36
f 35 50 52
f 35 52 51
f 36 53 54
f 36 54 55
f 36 55 56
f 36 56 40
f 36 52 53
f 37 39 38
f 40 56 57
f 40 57 58
f 40 58 41
f 41 58 42
f 42 59 43
f 43 59 44
f 44 49 45
f 47 60 61
f 47 61 62
f 47 62 48
f 48 62 63
f 48 63 64
f 50 65 66
f 50 66 52
f 52 66 53
f 53 66 54
f 54 66 67
f 54 67 55
f 55 68 69
f 55 69 70
f 55 70 57
f 55 57 56
f 55 67 68
f 57 70 71
f 60 72 61
f 61 72 73
f 61 73 74
f 61 74 62
f 62 74 75
f 62 75 63
f 63 75 77
f 63 77 76
f 63 76 64
f 64 76 77
f 64 77 78
f 65 79 66
f 66 79 80
f 66 80 67
f 67 80 81
f 67 81 82
f 67 82 83
f 67 83 68
f 68 83 84
f 68 84 85
f 68 85 69
f 69 86 87
f 69 87 88
f 69 88 70
f 69 85 86
f 70 88 71
f 72 89 90
f 72 90 91
f 72 91 92
f 72 92 73
f 73 92 93
f 73 93 74
f 74 93 75
f 75 93 92
f 75 92 77
f 77 94 95
f 77 95 96
f 77 96 97
f 77 97 78
f 77 92 94
f 80 98 99
f 80 99 81
f 81 99 82
f 82 99 100
f 82 100 101
f 82 101 102
f 82 102 83
f 83 102 84
f 84 103 104
f 84 104 105
f 84 105 106
f 84 106 107
f 84 107 85
f 84 102 101
f 84 101 108
f 84 108 103
f 86 88 87
f 89 109 110
f 89 110 111
f 89 111 91
f 89 91 90
f 91 112 92
f 91 111 112
f 92 112 113
f 92 113 94
f 94 113 114
f 94 114 95
f 95 115 116
f 95 116 117
f 95 117 118
f 95 118 119
f 95 119 120
f 95 120 121
f 95 121 96
f 95 114 122
f 95 122 123
f 95 123 124
f 95 124 125
f 95 125 126
f 95 126 127
f 95 127 115
f 98 128 99
f 99 128 129
f 99 129 130
f 99 130 131
f 99 131 100
f 100 131 132
f 100 132 101
f 101 132 133
f 101 133 108
f 103 108 134
f 103 134 135
f 103 135 136
f 103 136 104
f 104 136 137
f 104 137 138
f 104 138 105
f 108 133 139
f 108 139 140
f 108 140 134
f 109 141 110
f 110 141 142
f 110 142 111
f 111 142 112
f 112 123 113
f 112 142 143
f 112 143 124
f 112 124 123
f 113 122 114
f 113 123 122
f 124 143 144
f 124 144 145
f 124 145 125
f 125 145 146
f 125 146 147
f 125 147 148
f 125 148 149
f 125 149 126
f 126 149 127
f 129 150 130
f 130 150 151
f 130 151 131
f 131 151 132
f 132 151 133
f 133 151 152
f 133 152 153
f 133 153 154
f 133 154 155
f 133 155 139
f 134 140 135
f 135 140 156
f 135 156 136
f 136 156 157
f 136 157 138
f 136 138 137
f 138 157 158
f 139 155 140
f 140 155 159
f 140 159 160
f 140 160 156
f 141 161 162
f 141 162 142
f 142 162 143
f 143 162 163
f 143 163 144
f 144 163 161
f 144 161 164
f 144 164 165
f 144 165 145
f 145 165 166
f 145 166 167
f 145 167 146
f 146 167 168
f 146 168 169
f 146 169 170
f 146 170 148
f 146 148 147
f 150 171 151
f 151 172 173
f 151 173 152
f 151 171 174
f 151 174 175
f 151 175 172
f 152 173 176
f 152 176 153
f 153 176 154
f 154 176 155
f 155 176 177
f 155 177 178
f 155 178 159
f 156 160 179
f 156 179 157
f 157 179 180
f 157 180 181
f 157 181 158
f 158 181 182
f 159 178 160
f 160 178 183
f 160 183 179
f 161 163 162
f 164 184 185
f 164 185 165
f 165 185 166
f 166 185 167
f 167 185 186
f 167 186 187
f 167 187 188
f 167 188 169
f 167 169 168
f 169 188 176
f 169 176 172
f 169 172 175
f 172 176 173
f 176 178 177
f 176 188 178
f 178 188 187
f 178 187 183
f 179 183 182
f 179 182 180
f 180 182 181
f 182 183 187
f 182 187 189
f 184 186 185
f 186 190 187
f 187 190 189

