v 0.00687582 0.01610959 -0.07508994
v 0.00687582 0.17626255 -0.07508994
v 0.17772695 0.01610959 -0.07508994
v 0.00687582 0.01610959 0.16398977
v 0.00687582 0.17634638 -0.07469461
v 0.00716013 0.17640924 -0.07508994
v 0.08226706 0.19755480 -0.07508994
v 0.13146871 0.10215879 -0.02366843
v 0.13944599 0.08669258 -0.02366843
v 0.16998379 0.02604318 -0.00405920
v 0.17480027 0.01610959 -0.00798632
v 0.14871103 0.01610959 0.19398346
v 0.11339019 0.08763563 0.18599744
v 0.07806937 0.15044359 0.17716802
v 0.04861862 0.20742552 0.16673085
v 0.00687582 0.01646585 0.16396341
v 0.00687582 0.17798100 -0.06639231
v 0.04082529 0.19556388 -0.06072565
v 0.03656071 0.19179164 -0.06934424
v 0.03214560 0.18827086 -0.07508994
v 0.08062812 0.20046780 -0.07508994
v 0.08061140 0.20046780 -0.07472096
v 0.08036054 0.20011154 -0.06686673
v 0.12991339 0.10333239 -0.01188708
v 0.16127065 0.01610959 0.18046258
v 0.16988345 0.02572883 -0.00013209
v 0.07935711 0.19826733 -0.03544978
v 0.07922332 0.19803680 -0.03152267
v 0.07229963 0.20761414 -0.00867159
v 0.05075928 0.22502935 0.15689988
v 0.14978135 0.01610959 0.19416795
v 0.14892843 0.01690595 0.19400981
v 0.15264114 0.01610959 0.19403617
v 0.11339019 0.09155458 0.18502225
v 0.07806937 0.15436254 0.17674632
v 0.05057531 0.20822188 0.16702076
v 0.05054187 0.20579088 0.16723163
v 0.04450454 0.21947575 0.16285645
v 0.04246423 0.21719144 0.16193397
v 0.00687582 0.13866579 0.15004719
v 0.00687582 0.17865162 -0.06270240
v 0.02405124 0.22358332 0.13816042
v 0.04592607 0.19895890 -0.05508537
v 0.04691278 0.19870742 -0.05893341
v 0.04328370 0.19625547 -0.06293960
v 0.03152681 0.22764895 0.14119142
v 0.03866791 0.19242034 -0.07071477
v 0.03726311 0.19145633 -0.07197988
v 0.03528969 0.18975881 -0.07508994
v 0.03487159 0.18965403 -0.07472096
v 0.07895573 0.20224915 -0.07508994
v 0.07878850 0.20243777 -0.07472096
v 0.07270100 0.20807517 -0.02366843
v 0.07261739 0.20801231 -0.01974132
v 0.07238324 0.20776083 -0.01188708
v 0.07589526 0.20304551 -0.02366843
v 0.07214912 0.18378609 0.16630914
v 0.16113686 0.01610959 0.18170134
v 0.04930430 0.22756513 0.15689988
v 0.04905344 0.22735557 0.15953553
v 0.15581868 0.01610959 0.19229664
v 0.11163419 0.10173965 0.18262381
v 0.10922595 0.10316473 0.18296645
v 0.05316752 0.20845241 0.16712620
v 0.08051105 0.15729651 0.17513857
v 0.05057531 0.21019183 0.16649365
v 0.04666192 0.22203250 0.16259288
v 0.04666192 0.22502935 0.16151226
v 0.04328370 0.22502935 0.16011537
v 0.04264820 0.22125710 0.16109057
v 0.02053923 0.21962245 0.14751697
v 0.00687582 0.20541365 0.14187668
v 0.00687582 0.20488972 0.14198211
v 0.00687582 0.20147374 0.14250924
v 0.00687582 0.20604236 0.09414508
v 0.01662584 0.21951767 0.13726429
v 0.01916787 0.22085891 0.13726429
v 0.03127596 0.22811002 0.14511853
v 0.02957013 0.22672685 0.14119142
v 0.04788277 0.19983911 -0.05508537
v 0.04838449 0.19960858 -0.05758923
v 0.04903672 0.19935709 -0.06019854
v 0.06442268 0.20340177 -0.07258608
v 0.03487159 0.22961892 0.14511853
v 0.06236565 0.20505738 -0.05901249
v 0.06211479 0.20426101 -0.06299232
v 0.06517526 0.20312934 -0.07508994
v 0.04023996 0.19204312 -0.07508994
v 0.03813275 0.19107910 -0.07508994
v 0.07872160 0.20245872 -0.07508994
v 0.07853764 0.20258446 -0.07508994
v 0.07679835 0.20375805 -0.07508994
v 0.06867055 0.21155404 -0.00798632
v 0.07236652 0.17645115 0.17078975
v 0.15887913 0.01610959 0.18831682
v 0.15931397 0.01610959 0.18739433
v 0.16021706 0.01610959 0.18544396
v 0.16066859 0.01610959 0.18444241
v 0.05350199 0.22385576 0.10587371
v 0.05345182 0.22375098 0.10194660
v 0.04666192 0.22819385 0.13726429
v 0.04666192 0.22855011 0.15297276
v 0.04666192 0.22838245 0.15689988
v 0.04666192 0.22750226 0.15977273
v 0.04947154 0.22004158 0.16296188
v 0.15623677 0.01610959 0.19184858
v 0.15660469 0.01610959 0.19145324
v 0.04410317 0.22733461 0.15940375
v 0.03679484 0.22704121 0.15497585
v 0.03269749 0.22720887 0.15125959
v 0.03191147 0.22781661 0.14904565
v 0.01712756 0.21922427 0.14329993
v 0.00687582 0.21178456 0.13968909
v 0.00687582 0.20931164 0.14084878
v 0.00687582 0.20882962 0.14103327
v 0.00687582 0.20614714 0.09483035
v 0.00687582 0.21201507 0.13381159
v 0.01466915 0.21811355 0.13726429
v 0.01665929 0.21949672 0.14119142
v 0.03487159 0.22930456 0.14904565
v 0.06318511 0.20398857 -0.06686673
v 0.06385407 0.20367422 -0.06997679
v 0.06594455 0.20421910 -0.07108377
v 0.06726574 0.20392570 -0.07508994
v 0.03880170 0.23014283 0.14904565
v 0.03880170 0.23020571 0.14511853
v 0.06428889 0.21130255 -0.02569788
v 0.07442356 0.20463824 -0.07508994
v 0.06833607 0.21132350 -0.01829171
v 0.05057531 0.22523891 0.10587371
v 0.04273181 0.22993328 0.14511853
v 0.04273181 0.22984945 0.14904565
v 0.04273181 0.22934649 0.15297276
v 0.03880170 0.22886447 0.15297276
v 0.03523952 0.22764895 0.15273556
v 0.00687582 0.21226656 0.13776507
v 0.00687582 0.21228752 0.13726429
v 0.07019242 0.20484781 -0.07508994
v 0.06627903 0.20503643 -0.06686673
v 0.04273181 0.22959797 0.14119142
v 0.06443941 0.21130255 -0.02569788
v 0.07020914 0.20547651 -0.07079384
v 0.07020914 0.20491067 -0.07472096
v 0.07417271 0.20472207 -0.07508994
v 0.07413926 0.20476398 -0.07472096
v 0.06798487 0.21123968 -0.02090100
v 0.05057531 0.22494552 0.10194660
v 0.07057707 0.20484781 -0.07508994
v 0.06519198 0.21144925 -0.02366843
v 0.06716540 0.21115585 -0.02366843
v 0.06651317 0.21163786 -0.01966225
f 1 2 6
f 1 6 20
f 1 20 49
f 1 49 89
f 1 89 88
f 1 88 87
f 1 87 124
f 1 124 138
f 1 138 148
f 1 148 144
f 1 144 128
f 1 128 92
f 1 92 91
f 1 91 90
f 1 90 51
f 1 51 21
f 1 21 7
f 1 7 3
f 1 3 11
f 1 11 25
f 1 25 58
f 1 58 98
f 1 98 97
f 1 97 96
f 1 96 95
f 1 95 107
f 1 107 106
f 1 106 61
f 1 61 33
f 1 33 31
f 1 31 12
f 1 12 4
f 1 4 16
f 1 16 40
f 1 40 74
f 1 74 73
f 1 73 72
f 1 72 115
f 1 115 114
f 1 114 113
f 1 113 136
f 1 136 137
f 1 137 117
f 1 117 116
f 1 116 75
f 1 75 41
f 1 41 17
f 1 17 5
f 1 5 2
f 2 5 6
f 3 7 8
f 3 8 9
f 3 9 10
f 3 10 11
f 4 12 13
f 4 13 14
f 4 14 15
f 4 15 16
f 5 17 6
f 6 17 18
f 6 18 19
f 6 19 20
f 7 21 22
f 7 22 23
f 7 23 8
f 8 24 25
f 8 25 26
f 8 26 10
f 8 10 9
f 8 23 27
f 8 27 28
f 8 28 29
f 8 29 30
f 8 30 24
f 10 26 11
f 11 26 25
f 12 31 32
f 12 32 13
f 13 32 31
f 13 31 33
f 13 33 34
f 13 34 35
f 13 35 14
f 14 35 36
f 14 36 37
f 14 37 15
f 15 37 36
f 15 36 38
f 15 38 39
f 15 39 40
f 15 40 16
f 17 41 42
f 17 42 18
f 18 43 44
f 18 44 45
f 18 45 19
f 18 42 46
f 18 46 43
f 19 47 48
f 19 48 49
f 19 49 50
f 19 50 20
f 19 45 47
f 20 50 49
f 21 51 52
f 21 52 53
f 21 53 54
f 21 54 22
f 22 54 55
f 22 55 29
f 22 29 23
f 23 29 56
f 23 56 27
f 24 30 25
f 25 30 57
f 25 57 58
f 27 56 28
f 28 56 29
f 29 55 59
f 29 59 30
f 30 59 60
f 30 60 57
f 33 61 62
f 33 62 34
f 34 62 63
f 34 63 35
f 35 64 36
f 35 63 65
f 35 65 64
f 36 64 66
f 36 66 67
f 36 67 38
f 38 67 68
f 38 68 69
f 38 69 70
f 38 70 71
f 38 71 72
f 38 72 73
f 38 73 74
f 38 74 39
f 39 74 40
f 41 75 76
f 41 76 77
f 41 77 42
f 42 77 76
f 42 76 78
f 42 78 79
f 42 79 46
f 43 80 44
f 43 46 80
f 44 81 82
f 44 82 83
f 44 83 45
f 44 80 81
f 45 83 47
f 46 79 78
f 46 78 84
f 46 84 85
f 46 85 86
f 46 86 81
f 46 81 80
f 47 83 87
f 47 87 88
f 47 88 89
f 47 89 48
f 48 89 49
f 51 90 52
f 52 90 91
f 52 91 92
f 52 92 93
f 52 93 53
f 53 93 59
f 53 59 54
f 54 59 55
f 57 60 94
f 57 94 62
f 57 62 95
f 57 95 96
f 57 96 97
f 57 97 98
f 57 98 58
f 59 99 100
f 59 100 101
f 59 101 102
f 59 102 103
f 59 103 60
f 59 93 99
f 60 103 104
f 60 104 68
f 60 68 105
f 60 105 64
f 60 64 94
f 61 106 62
f 62 94 65
f 62 65 63
f 62 106 107
f 62 107 95
f 64 67 66
f 64 65 94
f 64 105 68
f 64 68 67
f 68 104 108
f 68 108 69
f 69 108 109
f 69 109 71
f 69 71 70
f 71 110 111
f 71 111 112
f 71 112 113
f 71 113 114
f 71 114 115
f 71 115 72
f 71 109 110
f 75 116 76
f 76 116 117
f 76 117 118
f 76 118 119
f 76 119 78
f 78 111 120
f 78 120 84
f 78 119 111
f 81 86 121
f 81 121 122
f 81 122 83
f 81 83 82
f 83 122 123
f 83 123 124
f 83 124 87
f 84 120 125
f 84 125 126
f 84 126 127
f 84 127 85
f 85 127 123
f 85 123 121
f 85 121 86
f 92 128 129
f 92 129 93
f 93 129 100
f 93 100 99
f 100 130 101
f 100 129 130
f 101 130 131
f 101 131 102
f 102 131 132
f 102 132 103
f 103 133 104
f 103 132 133
f 104 133 108
f 108 133 134
f 108 134 109
f 109 134 135
f 109 135 110
f 110 135 120
f 110 120 111
f 111 119 112
f 112 119 113
f 113 119 136
f 117 137 118
f 118 137 119
f 119 137 136
f 120 135 134
f 120 134 125
f 121 123 122
f 123 138 124
f 123 127 139
f 123 139 138
f 125 132 131
f 125 131 126
f 125 134 133
f 125 133 132
f 126 131 140
f 126 140 141
f 126 141 127
f 127 141 142
f 127 142 143
f 127 143 138
f 127 138 139
f 128 144 145
f 128 145 146
f 128 146 129
f 129 146 130
f 130 146 147
f 130 147 131
f 131 147 140
f 138 143 148
f 140 147 149
f 140 149 141
f 141 149 144
f 141 144 142
f 142 144 148
f 142 148 143
f 144 149 150
f 144 150 146
f 144 146 145
f 146 150 151
f 146 151 147
f 147 151 149
f 149 151 150

