v 0.22613393 -0.07729483 -0.07508993
v 0.22581199 -0.07964939 -0.07508993
v 0.22579054 -0.07315899 -0.07508993
v 0.22141224 -0.07119344 -0.02915522
v 0.22141224 -0.07160294 -0.02915522
v 0.22572614 -0.07999746 -0.07508993
v 0.22544714 -0.07950607 -0.07188063
v 0.22540421 -0.07105012 -0.07508993
v 0.22151955 -0.07080443 -0.03152730
v 0.21381460 -0.06253276 0.03129106
v 0.21364291 -0.06302414 0.03430500
v 0.21763489 -0.07166436 -0.00470880
v 0.22126201 -0.07487884 -0.03409473
v 0.21364291 -0.06412976 0.03430500
v 0.20580920 -0.05995298 0.09285361
v 0.22418088 -0.08192206 -0.07508993
v 0.22143371 -0.07932180 -0.04874584
v 0.22145517 -0.07551355 -0.03671799
v 0.22493204 -0.06963739 -0.07508993
v 0.20958654 -0.05565334 0.05693747
v 0.21072404 -0.05765984 0.05090959
v 0.21156109 -0.06159093 0.05090959
v 0.20572335 -0.05553050 0.09642569
v 0.21055235 -0.06578819 0.05102121
v 0.20568043 -0.06357695 0.08439783
v 0.20572335 -0.05616520 0.09642569
v 0.19782525 -0.05184510 0.15503012
v 0.19799695 -0.05591951 0.14403480
v 0.22222782 -0.08409235 -0.07508993
v 0.22197027 -0.08431757 -0.07508993
v 0.20980118 -0.06769232 0.04976541
v 0.20241817 -0.06412976 0.09408152
v 0.22463158 -0.06894126 -0.07508993
v 0.22312922 -0.06550155 -0.07508993
v 0.22173417 -0.06281940 -0.07508993
v 0.17479628 0.01610958 -0.00797390
v 0.16653333 0.00736700 0.18357884
v 0.19795403 -0.04750451 0.14905805
v 0.19784671 -0.04772973 0.15159758
v 0.19771795 -0.04873298 0.15422081
v 0.19782525 -0.05135371 0.15503012
v 0.19379035 -0.05557145 0.16248125
v 0.20203186 -0.06380217 0.09695592
v 0.19767502 -0.05546907 0.14665806
v 0.19115050 -0.04588703 0.18832301
v 0.19035640 -0.04854871 0.19111370
v 0.19076418 -0.04924484 0.18832301
v 0.21941626 -0.08618074 -0.07508993
v 0.19752479 -0.06339268 0.11481632
v 0.20076558 -0.06691429 0.08623968
v 0.21353560 -0.04779116 -0.07508993
v 0.17771514 0.01610958 -0.07508993
v 0.16127509 0.01610958 0.18045328
v 0.16114631 0.01610958 0.18170908
v 0.16327107 0.01232181 0.18438814
v 0.16636163 0.00705988 0.18617419
v 0.18975547 -0.04037941 0.18438814
v 0.19067833 -0.04234496 0.18438814
v 0.19033493 -0.04304109 0.18832301
v 0.19400498 -0.05972775 0.14364411
v 0.18951937 -0.05118991 0.18832301
v 0.18709414 -0.05290977 0.19222997
v 0.18604249 -0.05571477 0.18648116
v 0.19005593 -0.04361437 0.19061138
v 0.19033493 -0.04588703 0.19116952
v 0.18951937 -0.04588703 0.19312300
v 0.18215783 -0.03650974 0.21000665
v 0.18623566 -0.04822112 0.19836949
v 0.18709414 -0.04963386 0.19616485
v 0.18657906 -0.05229553 0.19485322
v 0.14678809 -0.12244098 -0.06088533
v 0.20428538 -0.09422720 -0.07508993
v 0.16981704 -0.07506312 0.13334648
v 0.16786398 -0.07610731 0.13334648
v 0.19743894 -0.06728283 0.09408152
v 0.18080570 -0.06675049 0.14512319
v 0.16913026 -0.07469458 0.13728135
v 0.00687582 0.01610958 -0.07508993
v 0.16067414 0.01610958 0.18444396
v 0.16198334 0.01428736 0.18438814
v 0.16286329 0.01162568 0.18706720
v 0.18215783 -0.03597740 0.21000665
v 0.18247976 -0.03556791 0.20794154
v 0.18554886 -0.03802485 0.20046250
v 0.18711561 -0.03773821 0.19239742
v 0.18951937 -0.04107554 0.18832301
v 0.18915452 -0.04216069 0.19206253
v 0.18550594 -0.05538718 0.18910441
v 0.18415381 -0.05634947 0.18798813
v 0.11538884 -0.09887489 0.15497430
v 0.11081739 -0.10249888 0.14905805
v 0.16621140 -0.07522691 0.14266737
v 0.16668356 -0.07549308 0.14004413
v 0.16814300 -0.07444888 0.14129994
v 0.17883119 -0.06783564 0.14512319
v 0.18630004 -0.03931474 0.19940204
v 0.18265146 -0.04033846 0.20693690
v 0.18136373 -0.03650974 0.21000665
v 0.00687582 -0.13273963 0.19273229
v 0.01131851 -0.13222777 0.19259276
v 0.00687582 -0.13634313 0.19147649
v 0.00687582 -0.13671167 0.19130905
v 0.00687582 -0.13722354 0.19102999
v 0.00687582 -0.13824724 0.19038812
v 0.18488353 -0.05084185 0.19747646
v 0.18226515 -0.05186557 0.19820204
v 0.18376750 -0.05278692 0.19616485
v 0.03743804 -0.13056933 0.18296489
v 0.18142811 -0.05544860 0.19368113
v 0.18415381 -0.05489579 0.19231370
v 0.13906167 -0.12641302 -0.06063417
v 0.14133668 -0.12557356 -0.06295044
v 0.16443003 -0.07721293 0.13728135
v 0.14225955 -0.12604449 -0.07079226
v 0.14264588 -0.12624923 -0.07508993
v 0.14183030 -0.12581926 -0.06685740
v 0.00687582 0.01610958 0.16398822
v 0.00687582 -0.19305733 -0.07508993
v 0.16022343 0.01610958 0.18544861
v 0.15932203 0.01610958 0.18740209
v 0.15887131 0.01610958 0.18832301
v 0.15912886 0.01576152 0.18832301
v 0.16116777 0.01297699 0.18835092
v 0.15854938 0.01500396 0.19030441
v 0.15659632 0.01610958 0.19144858
v 0.15582367 0.01610958 0.19228579
v 0.15475057 0.01512681 0.19429508
v 0.15264726 0.01301794 0.19532764
v 0.15661778 0.00501244 0.19778344
v 0.15264726 0.00908685 0.19658345
v 0.18136373 -0.03597740 0.21000665
v 0.16211211 0.01047911 0.18966254
v 0.18288755 -0.05606283 0.19105789
v 0.04102222 -0.13040554 0.17886258
v 0.00973030 -0.15010196 0.16345799
v 0.11476644 -0.09856778 0.15759755
v 0.11131102 -0.10272409 0.14654643
v 0.16470904 -0.07629159 0.14129994
v 0.08403253 -0.13030316 0.07262113
v 0.18011892 -0.05237743 0.19862065
v 0.00687582 -0.13222777 0.19278811
v 0.00739092 -0.13222777 0.19281602
v 0.03576398 -0.12592164 0.18982999
v 0.00687582 -0.13945525 0.18913231
v 0.03295243 -0.13028269 0.18636953
v 0.03557082 -0.12975036 0.18556024
v 0.00687582 -0.14371393 0.18408116
v 0.01043855 -0.14262878 0.18324396
v 0.00687582 -0.14555663 0.18115095
v 0.00771285 -0.14541331 0.18070444
v 0.00687582 -0.14625276 0.17983932
v 0.00923666 -0.14592517 0.17833235
v 0.03876869 -0.13101978 0.18028583
v 0.03949841 -0.16891797 -0.01581574
v 0.00687582 -0.18699691 -0.02829011
v 0.00687582 -0.18748829 -0.03152730
v 0.00687582 -0.18914672 -0.04330401
v 0.00687582 -0.18931053 -0.04447609
v 0.00687582 -0.18972000 -0.04749003
v 0.13936215 -0.12657682 -0.06295044
v 0.03548497 -0.16889749 -0.00403904
v 0.13987725 -0.12682251 -0.06685740
v 0.14028502 -0.12702725 -0.07079226
v 0.01131851 -0.19092799 -0.07508993
v 0.00687582 -0.12880853 0.19259276
v 0.15449302 0.00357922 0.19817414
v 0.14869822 0.01610958 0.19398811
v 0.00807771 -0.19250453 -0.07508993
v 0.00739092 -0.19041614 -0.05508071
v 0.00687582 -0.19072325 -0.05566674
v 0.15264726 0.01610958 0.19401602
v 0.15264726 0.01551582 0.19432300
v 0.14977133 0.01610958 0.19415555
v 0.01138289 -0.14537236 0.17682539
v 0.01011662 -0.14633467 0.17570911
v 0.01273501 -0.14572042 0.17353238
v 0.00756262 -0.15079809 0.16474170
v 0.00687582 -0.15112568 0.16474170
v 0.00687582 -0.15198561 0.16083474
v 0.00953714 -0.18140739 -0.00169486
v 0.00732653 -0.14004901 0.18829511
v 0.00687582 -0.14076561 0.18773696
v 0.00687582 -0.14205549 0.18631372
v 0.00854987 -0.14168696 0.18586721
v 0.00730507 -0.14324301 0.18449977
v 0.00687582 -0.14295637 0.18511372
v 0.00687582 -0.14645750 0.17942072
v 0.00687582 -0.14750171 0.17676956
v 0.00687582 -0.14780883 0.17590446
v 0.01189798 -0.18062935 -0.00403904
v 0.00994492 -0.18159165 -0.00403904
v 0.00739092 -0.18277917 -0.00403904
v 0.00687582 -0.18310676 -0.00468089
v 0.00760554 -0.18986333 -0.05142491
v 0.00968738 -0.18933100 -0.05508071
v 0.00940836 -0.18918766 -0.05293187
v 0.00687582 -0.14887348 0.17244400
v 0.00687582 -0.15016339 0.16806263
v 0.00687582 -0.15055239 0.16672310
f 1 2 6
f 1 6 16
f 1 16 29
f 1 29 30
f 1 30 48
f 1 48 72
f 1 72 115
f 1 115 164
f 1 164 168
f 1 168 118
f 1 118 78
f 1 78 52
f 1 52 51
f 1 51 35
f 1 35 34
f 1 34 33
f 1 33 19
f 1 19 8
f 1 8 3
f 1 3 4
f 1 4 5
f 1 5 2
f 2 5 7
f 2 7 6
f 3 8 4
f 4 8 9
f 4 9 10
f 4 10 11
f 4 11 14
f 4 14 5
f 5 12 13
f 5 13 7
f 5 14 15
f 5 15 12
f 6 7 17
f 6 17 16
f 7 13 18
f 7 18 17
f 8 19 20
f 8 20 21
f 8 21 10
f 8 10 9
f 10 21 11
f 11 22 14
f 11 21 23
f 11 23 22
f 12 18 13
f 12 15 24
f 12 24 25
f 12 25 18
f 14 22 26
f 14 26 15
f 15 26 27
f 15 27 28
f 15 28 25
f 15 25 24
f 16 17 29
f 17 30 29
f 17 18 31
f 17 31 32
f 17 32 30
f 18 25 31
f 19 33 20
f 20 33 34
f 20 34 35
f 20 35 36
f 20 36 37
f 20 37 38
f 20 38 39
f 20 39 23
f 20 23 21
f 22 23 26
f 23 39 40
f 23 40 41
f 23 41 27
f 23 27 26
f 25 28 42
f 25 42 43
f 25 43 32
f 25 32 31
f 27 42 44
f 27 44 28
f 27 41 45
f 27 45 46
f 27 46 47
f 27 47 42
f 28 44 42
f 30 32 48
f 32 43 49
f 32 49 50
f 32 50 48
f 35 51 36
f 36 51 52
f 36 52 78
f 36 78 117
f 36 117 167
f 36 167 173
f 36 173 171
f 36 171 126
f 36 126 125
f 36 125 121
f 36 121 120
f 36 120 119
f 36 119 79
f 36 79 54
f 36 54 53
f 36 53 37
f 37 53 54
f 37 54 55
f 37 55 56
f 37 56 39
f 37 39 38
f 39 56 57
f 39 57 58
f 39 58 59
f 39 59 40
f 40 59 45
f 40 45 41
f 42 60 43
f 42 47 61
f 42 61 62
f 42 62 63
f 42 63 60
f 43 60 49
f 45 59 64
f 45 64 65
f 45 65 46
f 46 65 66
f 46 66 67
f 46 67 68
f 46 68 69
f 46 69 70
f 46 70 62
f 46 62 61
f 46 61 47
f 48 71 72
f 48 50 73
f 48 73 74
f 48 74 71
f 49 75 50
f 49 60 76
f 49 76 77
f 49 77 73
f 49 73 75
f 50 75 73
f 54 79 80
f 54 80 55
f 55 80 56
f 56 80 81
f 56 81 82
f 56 82 83
f 56 83 84
f 56 84 85
f 56 85 86
f 56 86 57
f 57 86 58
f 58 86 59
f 59 86 87
f 59 87 64
f 60 63 76
f 62 70 88
f 62 88 63
f 63 88 89
f 63 89 90
f 63 90 91
f 63 91 92
f 63 92 93
f 63 93 94
f 63 94 95
f 63 95 76
f 64 87 96
f 64 96 82
f 64 82 65
f 65 82 66
f 66 82 67
f 67 97 68
f 67 82 131
f 67 131 98
f 67 98 99
f 67 99 100
f 67 100 101
f 67 101 102
f 67 102 103
f 67 103 104
f 67 104 97
f 68 97 105
f 68 105 70
f 68 70 69
f 70 105 106
f 70 106 107
f 70 107 108
f 70 108 109
f 70 109 110
f 70 110 88
f 71 111 112
f 71 112 72
f 71 74 113
f 71 113 111
f 72 114 115
f 72 112 116
f 72 116 114
f 73 77 93
f 73 93 113
f 73 113 74
f 76 95 77
f 77 94 93
f 77 95 94
f 78 118 170
f 78 170 159
f 78 159 158
f 78 158 157
f 78 157 156
f 78 156 155
f 78 155 193
f 78 193 179
f 78 179 178
f 78 178 199
f 78 199 198
f 78 198 197
f 78 197 189
f 78 189 188
f 78 188 187
f 78 187 151
f 78 151 149
f 78 149 147
f 78 147 186
f 78 186 183
f 78 183 182
f 78 182 144
f 78 144 104
f 78 104 103
f 78 103 102
f 78 102 101
f 78 101 99
f 78 99 141
f 78 141 165
f 78 165 117
f 79 119 81
f 79 81 80
f 81 119 120
f 81 120 121
f 81 121 122
f 81 122 123
f 81 123 82
f 82 124 125
f 82 125 126
f 82 126 127
f 82 127 128
f 82 128 129
f 82 129 130
f 82 130 131
f 82 96 84
f 82 84 83
f 82 123 132
f 82 132 124
f 84 96 87
f 84 87 86
f 84 86 85
f 88 110 133
f 88 133 134
f 88 134 135
f 88 135 89
f 89 135 136
f 89 136 90
f 90 136 135
f 90 135 91
f 91 137 113
f 91 113 138
f 91 138 92
f 91 135 139
f 91 139 137
f 92 138 93
f 93 138 113
f 97 104 140
f 97 140 106
f 97 106 105
f 98 131 141
f 98 141 142
f 98 142 99
f 99 142 141
f 99 101 100
f 104 143 106
f 104 106 140
f 104 144 143
f 106 143 145
f 106 145 146
f 106 146 107
f 107 146 108
f 108 133 110
f 108 110 109
f 108 146 147
f 108 147 148
f 108 148 149
f 108 149 150
f 108 150 151
f 108 151 152
f 108 152 153
f 108 153 133
f 111 154 155
f 111 155 156
f 111 156 157
f 111 157 158
f 111 158 159
f 111 159 160
f 111 160 112
f 111 113 139
f 111 139 161
f 111 161 154
f 112 160 162
f 112 162 116
f 113 137 139
f 114 163 115
f 114 116 162
f 114 162 163
f 115 163 164
f 117 165 166
f 117 166 130
f 117 130 167
f 118 168 169
f 118 169 170
f 121 125 124
f 121 124 122
f 122 124 123
f 123 124 132
f 126 171 127
f 127 171 172
f 127 172 128
f 128 172 173
f 128 173 130
f 128 130 129
f 130 166 131
f 130 173 167
f 131 166 165
f 131 165 141
f 133 153 134
f 134 153 152
f 134 152 174
f 134 174 175
f 134 175 176
f 134 176 177
f 134 177 135
f 135 177 178
f 135 178 179
f 135 179 180
f 135 180 139
f 139 180 161
f 143 144 181
f 143 181 182
f 143 182 183
f 143 183 145
f 144 182 181
f 145 183 184
f 145 184 146
f 146 184 185
f 146 185 147
f 147 185 186
f 147 149 148
f 149 151 150
f 151 187 152
f 152 187 188
f 152 188 189
f 152 189 175
f 152 175 174
f 154 161 180
f 154 180 190
f 154 190 155
f 155 190 191
f 155 191 180
f 155 180 192
f 155 192 193
f 159 170 169
f 159 169 194
f 159 194 195
f 159 195 196
f 159 196 160
f 160 196 195
f 160 195 162
f 162 195 164
f 162 164 163
f 164 195 168
f 168 195 169
f 169 195 194
f 171 173 172
f 175 189 197
f 175 197 176
f 176 197 198
f 176 198 177
f 177 198 199
f 177 199 178
f 179 193 192
f 179 192 180
f 180 191 190
f 183 186 185
f 183 185 184

