v -0.06827581 -0.21037923 0.00772064
v -0.06827581 -0.21031466 0.01554649
v -0.07026876 -0.20956127 0.02734038
v -0.06827581 -0.21028236 0.00382608
v -0.06827581 -0.21027161 0.01947778
v -0.06827581 -0.21011016 0.02734038
v -0.07000881 -0.20927069 0.03909752
v -0.07704748 -0.20489030 0.08046799
v -0.07704748 -0.20489030 0.08006383
v -0.07222839 -0.20790383 0.02734038
v -0.07012878 -0.20955051 0.02340908
v -0.06827581 -0.20974424 -0.00286080
v -0.06960222 -0.20946440 0.00772064
v -0.06950223 -0.20933526 0.00382608
v -0.06827581 -0.20939983 0.03909752
v -0.06928894 -0.20886170 0.04618855
v -0.07507452 -0.20330821 0.10192478
v -0.08504597 -0.19710894 0.14748373
v -0.08516595 -0.19715200 0.14513230
v -0.08713224 -0.19590353 0.14513230
v -0.08957845 -0.19393397 0.14513230
v -0.08502598 -0.19723810 0.10291679
v -0.07636761 -0.20390014 0.03909752
v -0.06930894 -0.20903390 -0.00010522
v -0.06827581 -0.20935677 -0.00583683
v -0.06827581 -0.18891860 -0.14537948
v -0.06827581 -0.20891551 0.04497610
v -0.06879571 -0.20886170 0.04618855
v -0.07507452 -0.20255482 0.10978737
v -0.08292637 -0.19717351 0.14785114
v -0.08292637 -0.19608650 0.15295816
v -0.08292637 -0.19494566 0.15688945
v -0.08535924 -0.19339584 0.15953481
v -0.08603912 -0.19390169 0.15688945
v -0.08664567 -0.19448286 0.15295816
v -0.08935182 -0.19360033 0.14832878
v -0.07507452 -0.20207051 0.11371867
v -0.09282450 -0.18935987 0.14748373
v -0.09282450 -0.18935987 0.14616105
v -0.09175803 -0.19085586 0.14494860
v -0.08890524 -0.19321288 0.12154452
v -0.08883859 -0.19313753 0.11934006
v -0.09025832 -0.19113570 0.12154452
v -0.09942993 -0.17543306 0.11764997
v -0.07752072 -0.20193058 0.03909752
v -0.06920896 -0.20885094 -0.00227294
v -0.11425379 -0.10476580 -0.16110466
v -0.11630007 -0.10042847 -0.16503595
v -0.11560687 -0.10164465 -0.16503595
v -0.06839578 -0.18769165 -0.14931077
v -0.06827581 -0.18788539 -0.14931077
v -0.06827581 -0.20874332 0.04659271
v -0.07114860 -0.20139246 0.11342474
v -0.08012690 -0.19714123 0.14770418
v -0.07900044 -0.19608650 0.15295816
v -0.07900044 -0.19509634 0.15688945
v -0.08292637 -0.19365415 0.16012266
v -0.07114860 -0.18171842 0.19491647
v -0.07372144 -0.18165384 0.19469602
v -0.08800541 -0.19237340 0.15688945
v -0.08150664 -0.18158927 0.19061777
v -0.08972509 -0.19040384 0.15688945
v -0.07245502 -0.20117720 0.11665796
v -0.07507452 -0.19967044 0.12940711
v -0.10481557 -0.16624179 0.14755721
v -0.10502220 -0.16665078 0.14513230
v -0.09674376 -0.16571442 0.18646602
v -0.12237226 -0.12439679 0.08230505
v -0.12083255 -0.12757177 0.08230505
v -0.12071924 -0.12736727 0.07837374
v -0.12059260 -0.12709820 0.07444245
v -0.12833114 -0.10721968 0.04302882
v -0.11642671 -0.10042847 -0.16367654
v -0.11608678 -0.10042847 -0.16624840
v -0.06924895 -0.18537770 -0.15140500
v -0.06827581 -0.18779930 -0.14945773
v -0.06827581 -0.20060679 0.11107331
v -0.06912231 -0.20098347 0.11191836
v -0.07276163 -0.19715200 0.13969462
v -0.07507452 -0.19522548 0.15295816
v -0.07507452 -0.19434295 0.15688945
v -0.07750740 -0.19695827 0.14674891
v -0.07507452 -0.19289000 0.16181275
v -0.06894234 -0.18152469 0.19465929
v -0.06827581 -0.17809142 0.19833340
v -0.06827581 -0.17798379 0.19844361
v -0.07026209 -0.17798379 0.19844361
v -0.07504785 -0.17942598 0.19572477
v -0.08120003 -0.17753177 0.19432861
v -0.08926517 -0.18975808 0.15975525
v -0.08266642 -0.17903853 0.19201393
v -0.08523260 -0.17792998 0.19080147
v -0.07507452 -0.19896010 0.13333840
v -0.13568309 -0.10042847 0.15295816
v -0.13636296 -0.10042847 0.14906360
v -0.10846155 -0.14210127 0.18639254
v -0.13623631 -0.10042847 0.14513230
v -0.12381199 -0.12170615 0.08623634
v -0.08955845 -0.17434603 0.18830307
v -0.08903189 -0.17371103 0.19054429
v -0.09257788 -0.16927684 0.18980946
v -0.09755028 -0.15895551 0.19109540
v -0.12215230 -0.12439679 0.07837374
v -0.12621821 -0.11655085 0.08623634
v -0.13144389 -0.10042847 0.03909752
v -0.13139723 -0.10042847 0.03836270
v -0.11512696 -0.10042847 -0.16852635
v -0.10880815 -0.11134176 -0.16753435
v -0.06827581 -0.18607728 -0.15213984
v -0.10452896 -0.11853117 -0.16701997
v -0.06827581 -0.20035924 0.11272666
v -0.06827581 -0.19579590 0.13726971
v -0.07019544 -0.19663538 0.13726971
v -0.07215507 -0.19738876 0.13726971
v -0.07260832 -0.19339584 0.15688945
v -0.07640760 -0.19721656 0.14414030
v -0.07308822 -0.19310525 0.15891020
v -0.06827581 -0.18062063 0.19524714
v -0.07114860 -0.19079129 0.16475204
v -0.06827581 -0.18975808 0.16456833
v -0.06827581 -0.18970426 0.16475204
v -0.06827581 -0.17668153 0.19877429
v -0.06827581 -0.17257021 0.19969281
v -0.07140188 -0.17569136 0.19884777
v -0.07713413 -0.17364646 0.19818643
v -0.07287493 -0.17716583 0.19803947
v -0.07900044 -0.17808066 0.19491647
v -0.07507452 -0.17638017 0.19770879
v -0.08482601 -0.17331283 0.19418165
v -0.08403950 -0.17543306 0.19359379
v -0.13450998 -0.10042847 0.15652204
v -0.10889480 -0.14009943 0.18690691
v -0.12025265 -0.11077134 0.18642928
v -0.12761128 -0.11354809 0.08623634
v -0.08983840 -0.17150471 0.19109540
v -0.09321776 -0.16666153 0.19083821
v -0.09169138 -0.16364800 0.19359379
v -0.09259121 -0.16061295 0.19414491
v -0.09817016 -0.15580207 0.19164652
v -0.11478703 -0.10042847 -0.16907747
v -0.11232749 -0.10275320 -0.17087778
v -0.06925562 -0.18143859 -0.15533631
v -0.06827581 -0.18401085 -0.15405037
v -0.06906232 -0.17727346 -0.15901041
v -0.07716745 -0.16583282 -0.15926761
v -0.06827581 -0.19060832 0.16082075
v -0.07152185 -0.19210433 0.16045334
v -0.06827581 -0.17150471 0.19987652
v -0.07114860 -0.17150471 0.19950911
v -0.07507452 -0.17150471 0.19873754
v -0.07725411 -0.17150471 0.19822317
v -0.09276451 -0.15798688 0.19421839
v -0.13426335 -0.10042847 0.15710989
v -0.12025265 -0.11040541 0.18642928
v -0.11464039 -0.10042847 -0.16929792
v -0.11298070 -0.10042847 -0.17146565
v -0.11242747 -0.10042847 -0.17183306
v -0.11077445 -0.10120338 -0.17256787
v -0.10960800 -0.10476580 -0.17172283
v -0.10872150 -0.10715510 -0.17117172
v -0.06827581 -0.17916768 -0.15823886
v -0.06827581 -0.18196596 -0.15588743
v -0.06827581 -0.17784388 -0.15919411
v -0.10514884 -0.11137405 -0.17135542
v -0.06827581 -0.16864186 0.19972956
v -0.07114860 -0.16757635 0.19928866
v -0.11801975 -0.10894170 0.18701714
v -0.07722744 -0.16887863 0.19818643
v -0.09276451 -0.15771781 0.19421839
v -0.13411672 -0.10042847 0.15740382
v -0.11916619 -0.10779010 0.18595164
v -0.12058593 -0.10596045 0.18334303
v -0.12764460 -0.10042847 0.16941815
v -0.13231039 -0.10042847 0.16082075
v -0.11138766 -0.10042847 -0.17249440
v -0.11072113 -0.10042847 -0.17289855
v -0.10646193 -0.10855424 -0.17183306
v -0.10019644 -0.11820830 -0.17076756
v -0.06888902 -0.16923379 -0.16294172
v -0.06827581 -0.17024548 -0.16275801
v -0.10647526 -0.10476580 -0.17330269
v -0.10257600 -0.11265479 -0.17194328
v -0.06827581 -0.16757635 0.19965608
v -0.11432711 -0.10869416 0.18716411
v -0.11655335 -0.10668155 0.18639254
v -0.12015268 -0.10042847 0.17878714
v -0.12075923 -0.10179533 0.17937499
v -0.12195900 -0.10042847 0.17672964
v -0.12562498 -0.10042847 0.17235744
v -0.10713514 -0.10042847 -0.17458864
v -0.10254933 -0.10869416 -0.17337617
v -0.06827581 -0.16951363 -0.16305193
v -0.06827581 -0.16368030 0.19866406
v -0.11227417 -0.10663850 0.18642928
v -0.11432711 -0.10662773 0.18642928
v -0.11424713 -0.10042847 0.18033026
v -0.11816638 -0.10042847 0.17974241
v -0.11845967 -0.10042847 0.17963218
v -0.10521550 -0.10042847 -0.17491930
v -0.10402905 -0.10234422 -0.17477235
v -0.10264932 -0.10472275 -0.17444167
v -0.08908521 -0.12653855 -0.17098801
v -0.06827581 -0.16681221 -0.16375002
v -0.06827581 -0.16188293 0.19803947
v -0.11226750 -0.10272091 0.18249798
v -0.06827581 -0.10042847 0.17018972
v -0.10323587 -0.10042847 -0.17517649
v -0.10141621 -0.10338819 -0.17495605
v -0.09863007 -0.10570215 -0.17462537
v -0.09863007 -0.10374336 -0.17499278
v -0.06827581 -0.16259328 -0.16477877
v -0.06827581 -0.10042847 -0.16801199
v -0.10263598 -0.10042847 -0.17524998
v -0.09863007 -0.10042847 -0.17547042
v -0.09583727 -0.10346353 -0.17495605
v -0.06827581 -0.15866492 -0.16536663
v -0.06827581 -0.10083746 -0.16801199
v -0.08292637 -0.10042847 -0.17242092
v -0.09497076 -0.10042847 -0.17513976
v -0.09459750 -0.10079441 -0.17510301
v -0.07507452 -0.13618184 -0.16874681
v -0.07114860 -0.13618184 -0.16775479
v -0.06827581 -0.13618184 -0.16690974
v -0.06827581 -0.10371107 -0.16797524
v -0.08292637 -0.10083746 -0.17242092
v -0.08685230 -0.10042847 -0.17348640
v -0.09460417 -0.10042847 -0.17510301
v -0.09403761 -0.10042847 -0.17502953
v -0.09321776 -0.10206439 -0.17477235
v -0.09142477 -0.10042847 -0.17455189
v -0.07507452 -0.13225349 -0.16900399
v -0.07114860 -0.13225349 -0.16797524
v -0.06827581 -0.13225349 -0.16713020
v -0.06827581 -0.10869416 -0.16790176
v -0.06827581 -0.11262251 -0.16782828
v -0.09094486 -0.10042847 -0.17444167
v -0.09103151 -0.10079441 -0.17444167
f 1 2 3
f 1 3 4
f 1 4 12
f 1 12 25
f 1 25 26
f 1 26 51
f 1 51 76
f 1 76 109
f 1 109 143
f 1 143 162
f 1 162 161
f 1 161 163
f 1 163 180
f 1 180 192
f 1 192 203
f 1 203 211
f 1 211 216
f 1 216 223
f 1 223 233
f 1 233 235
f 1 235 234
f 1 234 224
f 1 224 217
f 1 217 212
f 1 212 206
f 1 206 204
f 1 204 193
f 1 193 183
f 1 183 165
f 1 165 148
f 1 148 123
f 1 123 122
f 1 122 86
f 1 86 85
f 1 85 118
f 1 118 121
f 1 121 120
f 1 120 146
f 1 146 112
f 1 112 111
f 1 111 77
f 1 77 52
f 1 52 27
f 1 27 15
f 1 15 6
f 1 6 5
f 1 5 2
f 2 5 3
f 3 6 7
f 3 7 8
f 3 8 9
f 3 9 10
f 3 10 11
f 3 11 4
f 3 5 6
f 4 11 13
f 4 13 14
f 4 14 12
f 6 15 7
f 7 15 16
f 7 16 8
f 8 16 17
f 8 17 18
f 8 18 19
f 8 19 20
f 8 20 21
f 8 21 9
f 9 21 22
f 9 22 10
f 10 14 13
f 10 13 11
f 10 22 23
f 10 23 14
f 12 14 24
f 12 24 25
f 14 26 24
f 14 23 26
f 15 27 28
f 15 28 16
f 16 28 29
f 16 29 17
f 17 29 18
f 18 30 31
f 18 31 32
f 18 32 33
f 18 33 34
f 18 34 35
f 18 35 36
f 18 36 20
f 18 20 19
f 18 29 37
f 18 37 30
f 20 36 21
f 21 36 38
f 21 38 39
f 21 39 40
f 21 40 41
f 21 41 22
f 22 41 42
f 22 42 23
f 23 42 43
f 23 43 44
f 23 44 45
f 23 45 26
f 24 46 25
f 24 26 46
f 25 46 26
f 26 47 48
f 26 48 49
f 26 49 50
f 26 50 51
f 26 45 47
f 27 52 28
f 28 52 29
f 29 52 53
f 29 53 37
f 30 54 55
f 30 55 31
f 30 37 54
f 31 55 56
f 31 56 32
f 32 57 33
f 32 56 58
f 32 58 59
f 32 59 57
f 33 60 34
f 33 57 59
f 33 59 61
f 33 61 60
f 34 60 35
f 35 60 36
f 36 60 62
f 36 62 38
f 37 53 63
f 37 63 64
f 37 64 54
f 38 65 66
f 38 66 39
f 38 62 67
f 38 67 65
f 39 66 44
f 39 44 43
f 39 43 42
f 39 42 40
f 40 42 41
f 44 66 68
f 44 68 69
f 44 69 70
f 44 70 71
f 44 71 72
f 44 72 73
f 44 73 47
f 44 47 45
f 47 73 48
f 48 73 106
f 48 106 105
f 48 105 97
f 48 97 95
f 48 95 94
f 48 94 131
f 48 131 153
f 48 153 170
f 48 170 174
f 48 174 173
f 48 173 189
f 48 189 188
f 48 188 186
f 48 186 198
f 48 198 197
f 48 197 196
f 48 196 206
f 48 206 212
f 48 212 218
f 48 218 226
f 48 226 236
f 48 236 230
f 48 230 228
f 48 228 227
f 48 227 219
f 48 219 214
f 48 214 213
f 48 213 207
f 48 207 199
f 48 199 190
f 48 190 176
f 48 176 175
f 48 175 157
f 48 157 156
f 48 156 155
f 48 155 140
f 48 140 107
f 48 107 74
f 48 74 49
f 49 74 50
f 50 75 51
f 50 74 75
f 51 75 76
f 52 77 78
f 52 78 53
f 53 78 79
f 53 79 64
f 53 64 63
f 54 64 55
f 55 80 81
f 55 81 56
f 55 64 82
f 55 82 80
f 56 81 83
f 56 83 84
f 56 84 58
f 58 84 85
f 58 85 86
f 58 86 87
f 58 87 59
f 59 87 88
f 59 88 89
f 59 89 61
f 60 90 62
f 60 61 90
f 61 89 91
f 61 91 92
f 61 92 90
f 62 90 67
f 64 79 93
f 64 93 82
f 65 94 95
f 65 95 66
f 65 67 96
f 65 96 94
f 66 95 97
f 66 97 98
f 66 98 68
f 67 99 100
f 67 100 101
f 67 101 102
f 67 102 96
f 67 90 99
f 68 103 70
f 68 70 69
f 68 98 104
f 68 104 105
f 68 105 103
f 70 103 105
f 70 105 106
f 70 106 71
f 71 106 72
f 72 106 73
f 74 107 108
f 74 108 75
f 75 109 76
f 75 108 110
f 75 110 109
f 77 111 78
f 78 111 112
f 78 112 113
f 78 113 114
f 78 114 79
f 79 114 113
f 79 113 115
f 79 115 80
f 79 80 93
f 80 115 81
f 80 82 116
f 80 116 93
f 81 115 117
f 81 117 84
f 81 84 83
f 82 93 116
f 84 118 85
f 84 117 119
f 84 119 120
f 84 120 121
f 84 121 118
f 86 122 87
f 87 122 123
f 87 123 124
f 87 124 125
f 87 125 126
f 87 126 88
f 88 127 89
f 88 126 128
f 88 128 127
f 89 127 128
f 89 128 125
f 89 125 129
f 89 129 130
f 89 130 92
f 89 92 91
f 90 92 99
f 92 130 100
f 92 100 99
f 94 96 131
f 96 102 132
f 96 132 133
f 96 133 131
f 97 105 134
f 97 134 104
f 97 104 98
f 100 130 129
f 100 129 135
f 100 135 136
f 100 136 101
f 101 136 102
f 102 136 137
f 102 137 138
f 102 138 139
f 102 139 132
f 104 134 105
f 107 140 141
f 107 141 108
f 108 141 110
f 109 110 142
f 109 142 143
f 110 141 144
f 110 144 145
f 110 145 142
f 112 146 115
f 112 115 113
f 115 146 120
f 115 120 147
f 115 147 117
f 117 147 119
f 119 147 120
f 123 148 124
f 124 148 149
f 124 149 125
f 125 128 126
f 125 149 150
f 125 150 151
f 125 151 152
f 125 152 138
f 125 138 129
f 129 138 137
f 129 137 135
f 131 133 153
f 132 139 133
f 133 139 138
f 133 138 152
f 133 152 169
f 133 169 154
f 133 154 153
f 135 137 136
f 140 155 141
f 141 155 156
f 141 156 157
f 141 157 158
f 141 158 159
f 141 159 160
f 141 160 144
f 142 145 144
f 142 144 161
f 142 161 162
f 142 162 143
f 144 163 161
f 144 160 164
f 144 164 163
f 148 165 149
f 149 165 166
f 149 166 167
f 149 167 168
f 149 168 150
f 150 168 151
f 151 168 169
f 151 169 152
f 153 154 170
f 154 169 167
f 154 167 171
f 154 171 172
f 154 172 173
f 154 173 174
f 154 174 170
f 157 175 158
f 158 175 176
f 158 176 177
f 158 177 159
f 159 177 164
f 159 164 160
f 163 164 178
f 163 178 179
f 163 179 180
f 164 177 181
f 164 181 182
f 164 182 178
f 165 183 166
f 166 183 167
f 167 184 185
f 167 185 171
f 167 169 168
f 167 183 184
f 171 185 186
f 171 186 172
f 172 186 187
f 172 187 188
f 172 188 189
f 172 189 173
f 176 190 181
f 176 181 177
f 178 182 191
f 178 191 192
f 178 192 179
f 179 192 180
f 181 190 191
f 181 191 182
f 183 193 184
f 184 194 195
f 184 195 185
f 184 193 194
f 185 195 196
f 185 196 197
f 185 197 198
f 185 198 186
f 186 188 187
f 190 199 200
f 190 200 201
f 190 201 191
f 191 201 202
f 191 202 192
f 192 202 203
f 193 204 194
f 194 205 196
f 194 196 195
f 194 204 206
f 194 206 205
f 196 205 206
f 199 207 208
f 199 208 200
f 200 208 201
f 201 208 202
f 202 208 209
f 202 209 210
f 202 210 211
f 202 211 203
f 207 213 208
f 208 213 214
f 208 214 210
f 208 210 209
f 210 214 215
f 210 215 211
f 211 215 216
f 212 217 225
f 212 225 218
f 214 219 220
f 214 220 215
f 215 220 221
f 215 221 216
f 216 222 223
f 216 221 222
f 217 224 225
f 218 225 226
f 219 227 220
f 220 227 228
f 220 228 229
f 220 229 221
f 221 229 230
f 221 230 231
f 221 231 222
f 222 231 232
f 222 232 233
f 222 233 223
f 224 234 225
f 225 234 235
f 225 235 232
f 225 232 226
f 226 232 231
f 226 231 236
f 228 230 229
f 230 236 237
f 230 237 231
f 231 237 236
f 232 235 233

