v 0.00687582 -0.20611218 -0.13358777
v 0.00687582 -0.20538806 -0.12995940
v 0.00687582 -0.20587081 -0.13739368
v 0.00959055 -0.20498577 -0.13601778
v 0.00959055 -0.20498577 -0.13478613
v 0.22059297 -0.11032856 -0.12185935
v 0.00687582 -0.19661828 -0.09042454
v 0.21814972 -0.11085153 -0.11912976
v 0.00687582 -0.20566965 -0.13813712
v 0.00748664 -0.20558919 -0.13741588
v 0.20950783 -0.11451230 -0.13151283
v 0.21826282 -0.11105267 -0.12845036
v 0.21871528 -0.11125381 -0.12577622
v 0.22068345 -0.11028833 -0.12577622
v 0.22330769 -0.10884011 -0.12185935
v 0.22579621 -0.10698961 -0.11894112
v 0.22360179 -0.10795509 -0.11775386
v 0.21943920 -0.11000673 -0.11786481
v 0.00687582 -0.19585394 -0.08702918
v 0.00687582 -0.20542830 -0.13901368
v 0.01108365 -0.20393985 -0.13741588
v 0.21939396 -0.10771372 -0.13291092
v 0.22185984 -0.10711030 -0.13223406
v 0.21950708 -0.10972513 -0.12973748
v 0.00687582 -0.20474440 -0.14132164
v 0.00687582 -0.20446281 -0.14226481
v 0.01318757 -0.20088248 -0.14334110
v 0.01058595 -0.20156636 -0.14399577
v 0.22321721 -0.10771372 -0.12950447
v 0.22554735 -0.10690915 -0.12806200
v 0.22330769 -0.10875965 -0.12577622
v 0.22615817 -0.10723098 -0.12185935
v 0.23063746 -0.10377134 -0.11793139
v 0.22715357 -0.10586322 -0.11775386
v 0.22244804 -0.10735166 -0.11400343
v 0.22932534 -0.10284609 -0.11189519
v 0.00705680 -0.19295752 -0.07508994
v 0.00687582 -0.19303798 -0.07508994
v 0.21939396 -0.10473682 -0.13418695
v 0.22321721 -0.10477705 -0.13315503
v 0.01748589 -0.19323911 -0.14745770
v 0.22618079 -0.10348975 -0.13257803
v 0.22448409 -0.10610459 -0.13068064
v 0.00687582 -0.20249164 -0.14467263
v 0.00739615 -0.20237094 -0.14459495
v 0.22717618 -0.10453569 -0.12939351
v 0.22934797 -0.10296678 -0.12811747
v 0.22989092 -0.10352998 -0.12577622
v 0.22794537 -0.10550116 -0.12577622
v 0.22597717 -0.10715053 -0.12577622
v 0.22812634 -0.10598390 -0.12185935
v 0.23258302 -0.10236335 -0.11793139
v 0.23174598 -0.10188062 -0.11400343
v 0.22170149 -0.10690915 -0.11172875
v 0.23384990 -0.09942669 -0.11094094
v 0.23292238 -0.09874281 -0.10832230
v 0.22864666 -0.09471997 -0.09667156
v 0.00807483 -0.19247478 -0.07508994
v 0.00687582 0.17625794 -0.07508994
v 0.01524624 -0.19110702 -0.14865607
v 0.01524624 -0.18720486 -0.14956593
v 0.01133250 -0.18720486 -0.15013183
v 0.00940957 -0.18133153 -0.15129690
v 0.10555627 0.10722615 -0.17610744
v 0.08198336 0.18575182 -0.18843504
v 0.00771286 -0.19891131 -0.14670318
v 0.00687582 -0.19915268 -0.14678085
v 0.01524624 -0.19368161 -0.14770181
v 0.22618079 -0.10175993 -0.13257803
v 0.23412138 -0.08904778 -0.12498841
v 0.22970994 -0.10083468 -0.12853911
v 0.23439284 -0.09705321 -0.12219223
v 0.23387252 -0.10011057 -0.12110483
v 0.23072796 -0.10405295 -0.12185935
v 0.23427974 -0.10039217 -0.11793139
v 0.23425710 -0.09990943 -0.11400343
v 0.14265759 -0.12625896 -0.07508994
v 0.01110628 -0.19102656 -0.07508994
v 0.23710758 -0.09496135 -0.10801161
v 0.23504890 -0.09588660 -0.10648037
v 0.23371416 -0.09528317 -0.10347337
v 0.22943846 -0.09138103 -0.09195578
v 0.22710833 -0.09194422 -0.09055769
v 0.00793909 0.17678091 -0.07508994
v 0.07021953 0.19753872 -0.13754903
v 0.00687582 0.17601657 -0.07657680
v 0.01133250 -0.19452641 -0.14800140
v 0.01133250 -0.19110702 -0.14923305
v 0.00739615 -0.18720486 -0.15043142
v 0.00739615 -0.18201541 -0.15144115
v 0.00687582 0.13470210 -0.18622694
v 0.00687582 0.13868469 -0.18636010
v 0.00687582 0.14258685 -0.18619365
v 0.07782077 0.18603340 -0.18776928
v 0.07895191 0.18824598 -0.18731435
v 0.08198336 0.18820574 -0.18772490
v 0.08426826 0.18784369 -0.18740312
v 0.08438137 0.18575182 -0.18742532
v 0.19568531 -0.03015353 -0.14426207
v 0.00687582 -0.17936033 -0.15181841
v 0.00687582 -0.19786536 -0.14734675
v 0.00687582 -0.19702057 -0.14770181
v 0.19548171 -0.02621116 -0.14426207
v 0.19763088 -0.03015353 -0.14336330
v 0.19744989 -0.02621116 -0.14321905
v 0.23161026 -0.08904778 -0.12695240
v 0.23382728 -0.08510541 -0.12462225
v 0.23624791 -0.08928915 -0.12148210
v 0.23708495 -0.09113965 -0.11991757
v 0.23588595 -0.09266833 -0.12148210
v 0.23690398 -0.09375450 -0.11893003
v 0.23631578 -0.09657047 -0.11774277
v 0.23731118 -0.09536363 -0.11400343
v 0.23622529 -0.09733482 -0.11400343
v 0.23728855 -0.09532340 -0.11007546
v 0.22570571 -0.09122011 -0.08818316
v 0.20231378 -0.09524294 -0.07508994
v 0.23798987 -0.09294993 -0.11007546
v 0.23735643 -0.09294993 -0.10710175
v 0.23649676 -0.09294993 -0.10513776
v 0.22572833 -0.07995618 -0.07508994
v 0.22556997 -0.08015733 -0.07508994
v 0.22418999 -0.08188714 -0.07508994
v 0.22224443 -0.08405947 -0.07508994
v 0.22195033 -0.08430084 -0.07508994
v 0.21941658 -0.08615135 -0.07508994
v 0.03486017 0.18953327 -0.07508994
v 0.07021953 0.19810192 -0.13362106
v 0.07413326 0.19858464 -0.14147700
v 0.07849946 0.19621118 -0.16896165
v 0.07413326 0.19432044 -0.16896165
v 0.07055887 0.19255040 -0.16896165
v 0.00687582 0.17541315 -0.08017188
v 0.00739615 -0.19110702 -0.14948827
v 0.00687582 -0.18720486 -0.15044252
v 0.00687582 -0.18684282 -0.15052018
v 0.00687582 -0.18209587 -0.15145225
v 0.00687582 -0.19062428 -0.14962141
v 0.00687582 -0.18165336 -0.15152992
v 0.00687582 0.14648898 -0.18539475
v 0.06935987 0.18720003 -0.18194391
v 0.06759529 0.18808506 -0.17932527
v 0.07049100 0.18852757 -0.18067897
v 0.07605620 0.19166539 -0.17880376
v 0.07806963 0.19198722 -0.17949170
v 0.07806963 0.19331473 -0.17680649
v 0.08198336 0.19520547 -0.17407689
v 0.00687582 0.15067272 -0.18366378
v 0.00687582 0.15107501 -0.18345296
v 0.00687582 0.15377030 -0.18173309
v 0.00687582 0.15421283 -0.18137801
v 0.00739615 0.15690813 -0.17930307
v 0.01300659 0.16036775 -0.17890362
v 0.08591972 0.19512502 -0.17399921
v 0.08847609 0.19584914 -0.17160249
v 0.08981083 0.19456181 -0.17290071
v 0.09241245 0.19194698 -0.17520867
v 0.09503669 0.19126310 -0.17419893
v 0.09632619 0.18864827 -0.17607415
v 0.09508193 0.18575182 -0.17830444
v 0.18222478 0.01140231 -0.14749100
v 0.19383025 -0.01261399 -0.14338549
v 0.19412434 -0.01522883 -0.14367399
v 0.19708793 -0.02230901 -0.14278631
v 0.00687582 -0.19110702 -0.14949936
v 0.23093157 -0.08482381 -0.12680815
v 0.23337482 -0.08273194 -0.12407855
v 0.23536562 -0.08510541 -0.12185935
v 0.23699446 -0.08812253 -0.11899660
v 0.23708495 -0.09073737 -0.11991757
v 0.23789938 -0.09294993 -0.11400343
v 0.23710758 -0.09504180 -0.11631138
v 0.20753963 -0.09246719 -0.07508994
v 0.23785411 -0.08904778 -0.11400343
v 0.23774102 -0.08872596 -0.10979806
v 0.23742430 -0.08981212 -0.10686873
v 0.22611293 -0.07726088 -0.07508994
v 0.22579621 -0.07963436 -0.07508994
v 0.03529000 0.18973443 -0.07508994
v 0.03814047 0.19106197 -0.07508994
v 0.04024438 0.19202744 -0.07508994
v 0.06517465 0.20309022 -0.07508994
v 0.06696185 0.20381434 -0.07508994
v 0.06727857 0.20393501 -0.07508994
v 0.07413326 0.19902717 -0.13754903
v 0.07730045 0.19930876 -0.14147700
v 0.07972109 0.19959035 -0.14382933
v 0.08198336 0.19693530 -0.16896165
v 0.07924601 0.19592959 -0.17170236
v 0.07413326 0.19343543 -0.17288962
v 0.07132804 0.19210789 -0.17288962
v 0.05576359 0.18418290 -0.17288962
v 0.00757713 0.17529245 -0.08286820
v 0.00687582 0.15867817 -0.17288962
v 0.06497105 0.18736094 -0.17761649
v 0.06628317 0.18840689 -0.17650689
v 0.07053625 0.19049877 -0.17652909
v 0.07345458 0.19126310 -0.17764977
v 0.07451785 0.19214811 -0.17652909
v 0.07797913 0.19496410 -0.17295619
v 0.08198336 0.19613072 -0.17211290
v 0.08591972 0.19609051 -0.17203522
v 0.00687582 0.15674721 -0.17916993
v 0.00687582 0.15783338 -0.17680649
v 0.00739615 0.15811496 -0.17680649
v 0.01047284 0.15972409 -0.17680649
v 0.08591972 0.19685484 -0.16896165
v 0.08904166 0.19613072 -0.16896165
v 0.09098722 0.19516526 -0.16896165
v 0.09600947 0.19194698 -0.17158029
v 0.09374719 0.19259064 -0.17288962
v 0.23473218 -0.08120326 -0.11793139
v 0.23380466 -0.08132394 -0.12151538
v 0.23651938 -0.08542723 -0.11778714
v 0.23708495 -0.08695591 -0.11637796
v 0.23724331 -0.08655363 -0.11400343
v 0.23728855 -0.08647317 -0.11091876
v 0.23611218 -0.08510541 -0.10614750
v 0.22541161 -0.07102550 -0.07508994
v 0.22577357 -0.07311737 -0.07508994
v 0.22609029 -0.07689883 -0.07508994
v 0.07019691 0.20482005 -0.07508994
v 0.07058150 0.20486026 -0.07508994
v 0.08033190 0.19959035 -0.14382933
v 0.00687582 0.15799429 -0.17620730
v 0.08591972 0.19721689 -0.16503369
v 0.08933576 0.19633185 -0.16503369
v 0.09130393 0.19528593 -0.16503369
v 0.09376982 0.19359635 -0.16896165
v 0.09609996 0.19202744 -0.16896165
v 0.23513939 -0.08120326 -0.11400343
v 0.23658726 -0.08458244 -0.11400343
v 0.23513939 -0.08120326 -0.11007546
v 0.23484530 -0.08120326 -0.10614750
v 0.23394038 -0.08080098 -0.10187556
v 0.22516277 -0.07026116 -0.07508994
v 0.07417851 0.20469935 -0.07508994
v 0.08591972 0.19806168 -0.14932182
v 0.08931313 0.19645255 -0.16110572
v 0.08591972 0.19826281 -0.14540495
v 0.08922264 0.19665369 -0.14932182
v 0.08920002 0.19669393 -0.14540495
v 0.23369154 -0.07830682 -0.11007546
v 0.07872569 0.20244656 -0.07508994
v 0.07897453 0.20224543 -0.07508994
v 0.08062599 0.20047539 -0.07508994
v 0.09589635 0.19182631 -0.16503369
v 0.23066010 -0.07331851 -0.10221953
v 0.23360106 -0.07838728 -0.10614750
v 0.23337482 -0.07870910 -0.10294077
v 0.23312598 -0.07927230 -0.10032212
v 0.22493653 -0.06961751 -0.07508994
v 0.07442736 0.20461889 -0.07508994
v 0.07680275 0.20373388 -0.07508994
v 0.08225483 0.19753872 -0.07508994
v 0.09576062 0.19166539 -0.16302532
v 0.22145264 -0.05939952 -0.08393341
v 0.22930273 -0.07118641 -0.09966747
v 0.22443885 -0.06579582 -0.08270176
v 0.22516277 -0.06768655 -0.08147011
v 0.22495917 -0.06824974 -0.07866284
v 0.22482341 -0.06933591 -0.07508994
v 0.22174673 -0.06277870 -0.07508994
v 0.22102280 -0.06024431 -0.07866284
v 0.22124903 -0.05980180 -0.08131477
v 0.22204083 -0.06217527 -0.07866284
v 0.22219919 -0.06129025 -0.08261299
v 0.22369229 -0.06547399 -0.07866284
v 0.22312672 -0.06547399 -0.07508994
v 0.22299097 -0.06519239 -0.07508994
f 1 2 7
f 1 7 19
f 1 19 38
f 1 38 59
f 1 59 86
f 1 86 133
f 1 133 194
f 1 194 225
f 1 225 204
f 1 204 203
f 1 203 151
f 1 151 150
f 1 150 149
f 1 149 148
f 1 148 140
f 1 140 93
f 1 93 92
f 1 92 91
f 1 91 100
f 1 100 139
f 1 139 137
f 1 137 136
f 1 136 135
f 1 135 138
f 1 138 165
f 1 165 102
f 1 102 101
f 1 101 67
f 1 67 44
f 1 44 26
f 1 26 25
f 1 25 20
f 1 20 9
f 1 9 3
f 1 3 4
f 1 4 5
f 1 5 6
f 1 6 2
f 2 6 8
f 2 8 7
f 3 9 10
f 3 10 4
f 4 10 11
f 4 11 12
f 4 12 13
f 4 13 5
f 5 13 6
f 6 13 14
f 6 14 15
f 6 15 16
f 6 16 17
f 6 17 18
f 6 18 8
f 7 8 18
f 7 18 19
f 9 20 10
f 10 20 21
f 10 21 11
f 11 22 23
f 11 23 24
f 11 24 12
f 11 21 20
f 11 20 25
f 11 25 26
f 11 26 27
f 11 27 28
f 11 28 22
f 12 24 29
f 12 29 30
f 12 30 14
f 12 14 13
f 14 30 31
f 14 31 32
f 14 32 15
f 15 32 16
f 16 32 33
f 16 33 34
f 16 34 17
f 17 35 18
f 17 34 36
f 17 36 35
f 18 35 37
f 18 37 38
f 18 38 19
f 22 39 40
f 22 40 23
f 22 28 41
f 22 41 39
f 23 40 42
f 23 42 43
f 23 43 30
f 23 30 29
f 23 29 24
f 26 44 45
f 26 45 28
f 26 28 27
f 28 45 41
f 30 43 42
f 30 42 46
f 30 46 47
f 30 47 48
f 30 48 49
f 30 49 50
f 30 50 31
f 31 50 32
f 32 50 51
f 32 51 33
f 33 52 53
f 33 53 36
f 33 36 34
f 33 51 52
f 35 54 37
f 35 36 54
f 36 53 55
f 36 55 56
f 36 56 57
f 36 57 54
f 37 58 78
f 37 78 77
f 37 77 117
f 37 117 173
f 37 173 126
f 37 126 125
f 37 125 124
f 37 124 123
f 37 123 122
f 37 122 121
f 37 121 178
f 37 178 177
f 37 177 221
f 37 221 220
f 37 220 219
f 37 219 236
f 37 236 252
f 37 252 262
f 37 262 269
f 37 269 270
f 37 270 263
f 37 263 255
f 37 255 246
f 37 246 245
f 37 245 244
f 37 244 254
f 37 254 253
f 37 253 237
f 37 237 223
f 37 223 222
f 37 222 184
f 37 184 183
f 37 183 182
f 37 182 181
f 37 181 180
f 37 180 179
f 37 179 127
f 37 127 84
f 37 84 59
f 37 59 38
f 37 54 58
f 39 42 40
f 39 41 60
f 39 60 61
f 39 61 62
f 39 62 63
f 39 63 64
f 39 64 65
f 39 65 42
f 41 45 44
f 41 44 66
f 41 66 67
f 41 67 68
f 41 68 60
f 42 69 70
f 42 70 71
f 42 71 47
f 42 47 46
f 42 65 69
f 44 67 66
f 47 71 72
f 47 72 73
f 47 73 48
f 48 74 49
f 48 73 74
f 49 74 50
f 50 74 51
f 51 74 52
f 52 74 75
f 52 75 76
f 52 76 55
f 52 55 53
f 54 77 78
f 54 78 58
f 54 57 77
f 55 76 79
f 55 79 80
f 55 80 56
f 56 80 81
f 56 81 82
f 56 82 57
f 57 82 83
f 57 83 77
f 59 84 85
f 59 85 86
f 60 68 87
f 60 87 88
f 60 88 61
f 61 88 62
f 62 88 89
f 62 89 90
f 62 90 63
f 63 90 64
f 64 90 65
f 65 91 92
f 65 92 93
f 65 93 94
f 65 94 95
f 65 95 96
f 65 96 97
f 65 97 98
f 65 98 99
f 65 99 69
f 65 90 100
f 65 100 91
f 67 101 68
f 68 101 102
f 68 102 87
f 69 99 103
f 69 103 104
f 69 104 105
f 69 105 106
f 69 106 70
f 70 106 107
f 70 107 108
f 70 108 109
f 70 109 110
f 70 110 71
f 71 110 72
f 72 110 109
f 72 109 111
f 72 111 73
f 73 111 112
f 73 112 75
f 73 75 74
f 75 112 113
f 75 113 114
f 75 114 76
f 76 114 115
f 76 115 79
f 77 83 116
f 77 116 117
f 79 81 80
f 79 115 118
f 79 118 119
f 79 119 120
f 79 120 121
f 79 121 82
f 79 82 81
f 82 121 122
f 82 122 123
f 82 123 124
f 82 124 125
f 82 125 126
f 82 126 116
f 82 116 83
f 84 127 128
f 84 128 85
f 85 128 129
f 85 129 130
f 85 130 131
f 85 131 132
f 85 132 86
f 86 132 133
f 87 102 88
f 88 134 89
f 88 102 134
f 89 135 136
f 89 136 137
f 89 137 90
f 89 134 138
f 89 138 135
f 90 137 139
f 90 139 100
f 93 140 94
f 94 140 95
f 95 141 142
f 95 142 143
f 95 143 144
f 95 144 145
f 95 145 146
f 95 146 147
f 95 147 96
f 95 140 148
f 95 148 149
f 95 149 150
f 95 150 151
f 95 151 152
f 95 152 153
f 95 153 141
f 96 147 154
f 96 154 97
f 97 154 155
f 97 155 156
f 97 156 157
f 97 157 158
f 97 158 159
f 97 159 160
f 97 160 161
f 97 161 162
f 97 162 163
f 97 163 164
f 97 164 105
f 97 105 103
f 97 103 98
f 98 103 99
f 102 165 134
f 103 105 104
f 105 164 107
f 105 107 166
f 105 166 106
f 106 166 107
f 107 167 168
f 107 168 108
f 107 164 162
f 107 162 161
f 107 161 167
f 108 169 170
f 108 170 109
f 108 168 169
f 109 170 171
f 109 171 111
f 111 171 172
f 111 172 112
f 112 172 113
f 113 115 114
f 113 172 171
f 113 171 118
f 113 118 115
f 116 126 173
f 116 173 117
f 118 171 174
f 118 174 175
f 118 175 176
f 118 176 119
f 119 176 177
f 119 177 178
f 119 178 120
f 120 178 121
f 127 179 128
f 128 179 180
f 128 180 181
f 128 181 182
f 128 182 183
f 128 183 184
f 128 184 129
f 129 184 185
f 129 185 186
f 129 186 187
f 129 187 130
f 130 188 189
f 130 189 131
f 130 187 188
f 131 189 190
f 131 190 191
f 131 191 132
f 132 191 192
f 132 192 133
f 133 192 193
f 133 193 194
f 134 165 138
f 141 153 142
f 142 195 196
f 142 196 197
f 142 197 198
f 142 198 143
f 142 153 195
f 143 198 144
f 144 198 146
f 144 146 145
f 146 198 199
f 146 199 200
f 146 200 189
f 146 189 147
f 147 189 201
f 147 201 202
f 147 202 154
f 151 203 152
f 152 203 153
f 153 203 204
f 153 204 205
f 153 205 206
f 153 206 192
f 153 192 196
f 153 196 195
f 154 202 155
f 155 202 207
f 155 207 208
f 155 208 209
f 155 209 210
f 155 210 211
f 155 211 156
f 156 211 158
f 156 158 157
f 158 211 210
f 158 210 159
f 159 161 160
f 159 210 212
f 159 212 213
f 159 213 168
f 159 168 167
f 159 167 161
f 162 164 163
f 168 213 212
f 168 212 214
f 168 214 169
f 169 214 215
f 169 215 174
f 169 174 170
f 170 174 171
f 174 215 216
f 174 216 217
f 174 217 175
f 175 217 218
f 175 218 176
f 176 218 219
f 176 219 220
f 176 220 221
f 176 221 177
f 184 222 185
f 185 222 186
f 186 222 187
f 187 222 223
f 187 223 224
f 187 224 188
f 188 207 202
f 188 202 201
f 188 201 189
f 188 224 207
f 189 200 190
f 190 199 198
f 190 198 197
f 190 197 191
f 190 200 199
f 191 197 196
f 191 196 192
f 192 206 225
f 192 225 194
f 192 194 193
f 204 225 205
f 205 225 206
f 207 226 208
f 207 224 226
f 208 226 227
f 208 227 209
f 209 228 229
f 209 229 210
f 209 227 228
f 210 229 230
f 210 230 231
f 210 231 212
f 212 231 232
f 212 232 214
f 214 216 215
f 214 232 216
f 216 232 217
f 217 232 233
f 217 233 234
f 217 234 218
f 218 234 235
f 218 235 219
f 219 235 236
f 223 237 224
f 224 237 226
f 226 237 238
f 226 238 227
f 227 239 228
f 227 238 240
f 227 240 239
f 228 239 241
f 228 241 242
f 228 242 230
f 228 230 229
f 230 243 231
f 230 242 244
f 230 244 245
f 230 245 246
f 230 246 247
f 230 247 248
f 230 248 249
f 230 249 243
f 231 243 233
f 231 233 232
f 233 243 249
f 233 249 234
f 234 249 250
f 234 250 251
f 234 251 235
f 235 251 236
f 236 251 252
f 237 253 240
f 237 240 238
f 239 240 254
f 239 254 241
f 240 253 254
f 241 254 242
f 242 254 244
f 246 255 256
f 246 256 247
f 247 256 257
f 247 257 258
f 247 258 248
f 248 258 250
f 248 250 249
f 250 258 259
f 250 259 260
f 250 260 261
f 250 261 262
f 250 262 252
f 250 252 251
f 255 263 264
f 255 264 265
f 255 265 257
f 255 257 256
f 257 265 266
f 257 266 267
f 257 267 259
f 257 259 258
f 259 267 268
f 259 268 260
f 260 268 269
f 260 269 261
f 261 269 262
f 263 270 266
f 263 266 265
f 263 265 264
f 266 270 268
f 266 268 267
f 268 270 269

