v -0.03972613 -0.23099370 -0.13753717
v -0.04394863 -0.22930667 -0.13757348
v -0.04302909 -0.22915331 -0.14145818
v -0.03972613 -0.23029078 -0.14145818
v -0.03580524 -0.23031634 -0.13753717
v -0.03580524 -0.23007350 -0.13361616
v -0.03972613 -0.23069975 -0.13361616
v -0.04365438 -0.22956228 -0.13361616
v -0.04545666 -0.22833536 -0.13891678
v -0.04592746 -0.22860375 -0.13361616
v -0.04582447 -0.22855263 -0.13630278
v -0.04498586 -0.22810531 -0.14145818
v -0.04232289 -0.22871878 -0.14381804
v -0.03972613 -0.22901273 -0.14418109
v -0.03676156 -0.22892325 -0.14403588
v -0.03559191 -0.22940892 -0.14142187
v -0.02516808 -0.22505078 -0.13753717
v -0.02795611 -0.22632884 -0.13361616
v -0.02555061 -0.22480795 -0.14026009
v -0.06827580 -0.20035893 0.11271741
v -0.06827580 -0.20060175 0.11108366
v -0.06827580 -0.20874291 0.04660489
v -0.06827580 -0.20892184 0.04497114
v -0.06827580 -0.20940749 0.03912593
v -0.04577298 -0.22852706 -0.12969516
v -0.04781066 -0.22584317 -0.14113142
v -0.04789159 -0.22687839 -0.13361616
v -0.06116229 -0.21657733 -0.03544579
v -0.06117700 -0.21655177 -0.03936680
v -0.04969387 -0.22473128 -0.13753717
v -0.04731044 -0.22699342 -0.13757348
v -0.04927456 -0.22418171 -0.14225690
v -0.04665573 -0.22547253 -0.14436262
v -0.04355139 -0.22643107 -0.14537918
v -0.04215370 -0.22478239 -0.14755752
v -0.03972613 -0.22707009 -0.14614161
v -0.02904483 -0.22499967 -0.14399957
v -0.02642600 -0.22424561 -0.14291041
v -0.03414272 -0.22827146 -0.14269257
v -0.03672477 -0.22502522 -0.14773905
v -0.03543007 -0.22664834 -0.14563332
v -0.03187700 -0.22378551 -0.14672249
v -0.03187700 -0.22572814 -0.14476199
v 0.00687581 -0.20589287 -0.13739195
v 0.00687581 -0.20611013 -0.13357987
v -0.02528578 -0.22497410 -0.13361616
v -0.02569773 -0.22470571 -0.13096586
v -0.06401652 -0.19375143 0.13726001
v -0.06720914 -0.19533621 0.13726001
v 0.00687581 -0.20447424 -0.14225690
v 0.00687581 -0.20476818 -0.14131295
v 0.00687581 -0.20544555 -0.13898939
v -0.06827580 -0.19579630 0.13726001
v -0.06827580 -0.21011042 0.02732661
v -0.04956881 -0.22453956 -0.13960659
v -0.04980421 -0.22491020 -0.13361616
v -0.06112551 -0.21647509 -0.04724511
v -0.06827580 -0.21037881 0.00772158
v -0.06827580 -0.21026378 0.01948460
v -0.06827580 -0.21030213 0.01559990
v -0.05112834 -0.22254581 -0.13753717
v -0.05274672 -0.21938904 -0.14145818
v -0.06501697 -0.21216808 -0.03544579
v -0.05055455 -0.22273751 -0.14113142
v -0.05373982 -0.21711411 -0.14392696
v -0.05028973 -0.22156172 -0.14465307
v -0.04942169 -0.22046260 -0.14726708
v -0.04477253 -0.22395167 -0.14697663
v -0.04680286 -0.22133167 -0.14784797
v -0.04353668 -0.22259693 -0.14835625
v -0.04381621 -0.21857108 -0.15053459
v -0.03972613 -0.22254581 -0.14933650
v -0.03972613 -0.22510190 -0.14781166
v 0.00536778 -0.20484488 -0.14334607
v -0.02644807 -0.22033479 -0.14712186
v -0.01414104 -0.21278154 -0.14737600
v -0.03580524 -0.21954240 -0.15078872
v -0.03187700 -0.21708855 -0.15147853
v -0.02981724 -0.21670514 -0.15129700
v -0.02719841 -0.21601500 -0.15089764
v -0.03187700 -0.22183011 -0.14831993
v -0.03410594 -0.22437342 -0.14723076
v -0.02906690 -0.22106328 -0.14777535
v 0.00687581 -0.18299028 -0.00404144
v 0.00687581 -0.15199765 0.16082235
v -0.04516241 -0.17373722 0.19113753
v -0.04731780 -0.17449126 0.19237193
v -0.06534800 -0.18912490 0.16238349
v 0.00687581 -0.20251882 -0.14465307
v -0.06827580 -0.19060744 0.16082235
v -0.06827580 -0.21028935 0.00380057
v -0.05293798 -0.21958075 -0.13753717
v -0.05766071 -0.21708855 -0.09433350
v -0.05388694 -0.21742084 -0.14145818
v -0.06827580 -0.20973978 -0.00287966
v -0.06827580 -0.20935638 -0.00585672
v -0.06827580 -0.18892041 -0.14537918
v -0.06487720 -0.21189969 -0.03936680
v -0.05535084 -0.21468583 -0.14145818
v -0.05689566 -0.21177188 -0.14145818
v -0.06827580 -0.18788520 -0.14930019
v -0.06827580 -0.18779573 -0.14944542
v -0.06827580 -0.18607037 -0.15213203
v -0.06587766 -0.19013457 -0.15213203
v -0.06154481 -0.19741942 -0.15158745
v -0.04789894 -0.21894172 -0.14871930
v -0.06146390 -0.19327855 -0.15532692
v -0.06025747 -0.18837086 -0.15873965
v -0.05372510 -0.20120243 -0.15536323
v -0.04523597 -0.21639841 -0.15118808
v -0.04261714 -0.21722914 -0.15151484
v -0.03972613 -0.21958075 -0.15082502
v -0.02240213 -0.21246202 -0.15111547
v 0.00687581 -0.19917035 -0.14675880
v -0.03580524 -0.21468583 -0.15307597
v -0.03187700 -0.21468583 -0.15271291
v -0.02828714 -0.21469861 -0.15195050
v -0.02501360 -0.21340777 -0.15162374
v 0.00687581 -0.15132029 0.16394463
v -0.03376020 -0.16569832 0.19821712
v -0.04583183 -0.17330269 0.19378785
v 0.00687581 -0.15114136 0.16474335
v -0.04845066 -0.17410786 0.19498592
v -0.05150351 -0.17616552 0.19222670
v -0.06827580 -0.18976393 0.16456182
v -0.05791082 -0.20980369 -0.14145818
v -0.06827580 -0.18401271 -0.15405622
v -0.06827580 -0.18195506 -0.15590782
v -0.06827580 -0.17916892 -0.15823137
v -0.06827580 -0.17785253 -0.15917531
v -0.06537007 -0.18143106 -0.15921162
v -0.06161838 -0.18576365 -0.15932054
v -0.05763864 -0.18936773 -0.15921162
v -0.05543176 -0.19216665 -0.15877596
v -0.03972613 -0.21468583 -0.15293075
v -0.03972613 -0.21762533 -0.15169637
v -0.01803250 -0.20889627 -0.15133331
v 0.00687581 -0.19789229 -0.14733968
v -0.03580524 -0.21076223 -0.15427406
v -0.03187700 -0.21076223 -0.15412884
v -0.02795611 -0.21076223 -0.15354795
v -0.02383660 -0.21100505 -0.15227725
v -0.02543291 -0.15832399 0.19868910
v -0.02760301 -0.15598516 0.20141202
v -0.02867702 -0.15479657 0.20264641
v -0.03580524 -0.16366622 0.19988719
v -0.03580524 -0.16609451 0.19854388
v -0.05308511 -0.17378835 0.19828974
v -0.05166535 -0.17465742 0.19622032
v 0.00687581 -0.15056624 0.16674016
v 0.00687581 -0.14891757 0.17236753
v 0.00687581 -0.14781844 0.17588917
v 0.00687581 -0.14752450 0.17676050
v 0.00687581 -0.14669376 0.17886624
v 0.00687581 -0.14647650 0.17941082
v 0.00687581 -0.14625923 0.17984649
v 0.00687581 -0.14556908 0.18115350
v 0.00687581 -0.14372869 0.18405794
v 0.00687581 -0.14296187 0.18511080
v 0.00687581 -0.14206723 0.18630889
v -0.06827580 -0.18061312 0.19524007
v -0.06827580 -0.17024815 -0.16276957
v -0.05910989 -0.18711837 -0.15957468
v -0.06827580 -0.16951966 -0.16306002
v -0.06626018 -0.17043986 -0.16335046
v -0.06452410 -0.17305986 -0.16291480
v -0.05543176 -0.19021125 -0.15946576
v 0.00687581 -0.19702324 -0.14770274
v -0.02010697 -0.20683863 -0.15271291
v -0.05543176 -0.18720783 -0.16033709
v -0.05543176 -0.18328423 -0.16128104
v -0.02795611 -0.20683863 -0.15456451
v -0.02402786 -0.20683863 -0.15383839
v 0.00687581 -0.13947280 0.18914073
v 0.00687581 -0.13827144 0.19041142
v -0.01769412 -0.15043845 0.19890694
v 0.00687581 -0.14077641 0.18776111
v -0.02010697 -0.14795903 0.20075852
v -0.02867702 -0.15266224 0.20264641
v -0.03187700 -0.15553785 0.20282794
v -0.05543176 -0.17426122 0.19858018
v -0.06799626 -0.17798034 0.19843496
v -0.06827580 -0.17809536 0.19832604
v -0.06827580 -0.16681022 -0.16374982
v -0.06827580 -0.16260544 -0.16476638
v -0.06720914 -0.16366622 -0.16469377
v -0.06324411 -0.17165401 -0.16349568
v -0.06190527 -0.17377557 -0.16316894
v 0.00687581 -0.19534898 -0.14821102
v 0.00687581 -0.19113143 -0.14948171
v -0.06091217 -0.17377557 -0.16316894
v -0.05543176 -0.17936063 -0.16182563
v -0.05150351 -0.18328423 -0.16084538
v -0.02402786 -0.20291502 -0.15452820
v 0.00687581 -0.18209564 -0.15144221
v 0.00687581 -0.18380823 -0.15111547
v 0.00687581 -0.18686276 -0.15049828
v 0.00687581 -0.18720783 -0.15042567
v 0.00687581 -0.13723622 0.19102861
v 0.00687581 -0.13672501 0.19131906
v 0.00687581 -0.13635437 0.19146429
v 0.00687581 -0.13276306 0.19273497
v -0.02010697 -0.14403543 0.19988719
v 0.00687581 -0.13225184 0.19277128
v 0.00687581 -0.12883946 0.19258976
v -0.03187700 -0.15220214 0.20282794
v -0.06720914 -0.17150064 0.19999611
v -0.06328825 -0.17150064 0.20006872
v -0.05936001 -0.17150064 0.19988719
v -0.05936001 -0.17481078 0.19883433
v -0.06689282 -0.17578210 0.19901584
v -0.06827580 -0.17668952 0.19879802
v -0.06827580 -0.17798034 0.19843496
v -0.06827580 -0.15974262 -0.16520205
v -0.06720914 -0.15974262 -0.16523836
v -0.06328825 -0.16757704 -0.16418548
v -0.06011770 -0.17150064 -0.16335046
v -0.00963165 -0.14691103 -0.15928423
v 0.00687581 -0.18167389 -0.15151484
v -0.02402786 -0.14403543 0.20014133
v 0.00687581 -0.12828989 0.19244454
v -0.03187700 -0.14795903 0.20097636
v -0.03481950 -0.15284117 0.20250119
v -0.06827580 -0.16757704 0.19966935
v -0.06720914 -0.16757704 0.19981458
v -0.06827580 -0.17150064 0.19985088
v -0.06827580 -0.17256142 0.19970566
v -0.06827580 -0.15868184 -0.16534728
v -0.06328825 -0.16366622 -0.16458485
v -0.06827580 -0.13617545 -0.16690841
v -0.00899901 -0.14403543 -0.15939315
v -0.00703489 -0.14403543 -0.15899378
v 0.00687581 -0.17884941 -0.15187789
v -0.02402786 -0.14150490 0.19879802
v -0.02722048 -0.14167104 0.19858018
v 0.00687581 -0.12541429 0.19124645
v 0.00687581 -0.10042849 0.17908408
v -0.06827580 -0.10042849 0.17018920
v -0.06827580 -0.16188973 0.19803559
v -0.06827580 -0.16369179 0.19865280
v -0.06827580 -0.13225184 -0.16712625
v -0.06827580 -0.11262105 -0.16781605
v -0.06827580 -0.11156027 -0.16785236
v -0.01265507 -0.10042849 -0.16088168
v -0.00832223 -0.10083747 -0.16011927
v -0.00440134 -0.14403543 -0.15830398
v -0.00440134 -0.14795903 -0.15794092
v 0.00687581 -0.10042849 -0.15703328
v 0.00687581 -0.17492581 -0.15220464
v -0.00047310 -0.14403543 -0.15714220
v -0.06827580 -0.10042849 -0.16799758
v -0.06827580 -0.10371306 -0.16796127
v -0.06827580 -0.10083747 -0.16799758
v -0.00873418 -0.10042849 -0.16019187
v -0.00832223 -0.10042849 -0.16011927
v -0.00047310 -0.14009905 -0.15736004
v 0.00687581 -0.15188263 -0.15401992
v 0.00687581 -0.15514166 -0.15380208
f 1 2 3
f 1 3 4
f 1 4 5
f 1 5 6
f 1 6 7
f 1 7 8
f 1 8 2
f 2 9 3
f 2 8 10
f 2 10 11
f 2 11 9
f 3 9 12
f 3 12 13
f 3 13 4
f 4 13 14
f 4 14 15
f 4 15 16
f 4 16 5
f 5 17 18
f 5 18 6
f 5 16 19
f 5 19 17
f 6 18 20
f 6 20 21
f 6 21 7
f 7 21 22
f 7 22 23
f 7 23 24
f 7 24 8
f 8 25 10
f 8 24 25
f 9 26 12
f 9 11 26
f 10 27 11
f 10 25 28
f 10 28 29
f 10 29 27
f 11 27 30
f 11 30 31
f 11 31 26
f 12 32 33
f 12 33 13
f 12 26 32
f 13 33 34
f 13 34 35
f 13 35 36
f 13 36 14
f 14 36 15
f 15 37 38
f 15 38 39
f 15 39 16
f 15 36 40
f 15 40 41
f 15 41 42
f 15 42 43
f 15 43 37
f 16 39 19
f 17 19 44
f 17 44 45
f 17 45 46
f 17 46 18
f 18 46 47
f 18 47 48
f 18 48 49
f 18 49 20
f 19 39 38
f 19 38 50
f 19 50 51
f 19 51 52
f 19 52 44
f 20 49 53
f 20 53 90
f 20 90 125
f 20 125 161
f 20 161 183
f 20 183 213
f 20 213 212
f 20 212 227
f 20 227 226
f 20 226 224
f 20 224 240
f 20 240 239
f 20 239 238
f 20 238 251
f 20 251 253
f 20 253 252
f 20 252 243
f 20 243 242
f 20 242 241
f 20 241 230
f 20 230 228
f 20 228 214
f 20 214 185
f 20 185 184
f 20 184 164
f 20 164 162
f 20 162 130
f 20 130 129
f 20 129 128
f 20 128 127
f 20 127 103
f 20 103 102
f 20 102 101
f 20 101 97
f 20 97 96
f 20 96 95
f 20 95 91
f 20 91 58
f 20 58 60
f 20 60 59
f 20 59 54
f 20 54 24
f 20 24 23
f 20 23 22
f 20 22 21
f 24 54 25
f 25 54 28
f 26 31 55
f 26 55 32
f 27 56 30
f 27 29 57
f 27 57 56
f 28 58 29
f 28 54 59
f 28 59 60
f 28 60 58
f 29 58 57
f 30 61 62
f 30 62 55
f 30 55 31
f 30 56 63
f 30 63 61
f 32 55 64
f 32 64 65
f 32 65 66
f 32 66 33
f 33 66 67
f 33 67 68
f 33 68 34
f 34 68 35
f 35 69 70
f 35 70 71
f 35 71 72
f 35 72 73
f 35 73 36
f 35 68 69
f 36 73 40
f 37 74 38
f 37 43 42
f 37 42 75
f 37 75 76
f 37 76 74
f 38 74 50
f 40 73 72
f 40 72 77
f 40 77 78
f 40 78 79
f 40 79 80
f 40 80 81
f 40 81 82
f 40 82 41
f 41 82 42
f 42 82 83
f 42 83 75
f 44 52 51
f 44 51 50
f 44 50 89
f 44 89 114
f 44 114 138
f 44 138 168
f 44 168 189
f 44 189 190
f 44 190 198
f 44 198 197
f 44 197 196
f 44 196 195
f 44 195 219
f 44 219 233
f 44 233 249
f 44 249 258
f 44 258 257
f 44 257 248
f 44 248 237
f 44 237 236
f 44 236 221
f 44 221 205
f 44 205 204
f 44 204 202
f 44 202 201
f 44 201 200
f 44 200 199
f 44 199 175
f 44 175 174
f 44 174 177
f 44 177 160
f 44 160 159
f 44 159 158
f 44 158 157
f 44 157 156
f 44 156 155
f 44 155 154
f 44 154 153
f 44 153 152
f 44 152 151
f 44 151 150
f 44 150 122
f 44 122 119
f 44 119 85
f 44 85 84
f 44 84 45
f 45 84 46
f 46 84 47
f 47 84 85
f 47 85 86
f 47 86 48
f 48 86 49
f 49 86 87
f 49 87 88
f 49 88 53
f 50 74 89
f 53 88 90
f 55 62 64
f 56 57 63
f 57 58 91
f 57 91 63
f 61 92 62
f 61 63 93
f 61 93 92
f 62 94 65
f 62 65 64
f 62 92 94
f 63 91 95
f 63 95 96
f 63 96 97
f 63 97 98
f 63 98 92
f 63 92 93
f 65 94 99
f 65 99 100
f 65 100 101
f 65 101 102
f 65 102 103
f 65 103 104
f 65 104 105
f 65 105 67
f 65 67 66
f 67 106 69
f 67 69 68
f 67 105 107
f 67 107 108
f 67 108 109
f 67 109 106
f 69 106 110
f 69 110 71
f 69 71 70
f 71 110 111
f 71 111 72
f 72 111 112
f 72 112 77
f 74 76 89
f 75 83 76
f 76 83 80
f 76 80 113
f 76 113 114
f 76 114 89
f 77 112 115
f 77 115 116
f 77 116 78
f 78 116 79
f 79 116 117
f 79 117 80
f 80 117 118
f 80 118 113
f 80 83 81
f 81 83 82
f 85 119 86
f 86 120 121
f 86 121 87
f 86 119 122
f 86 122 120
f 87 121 123
f 87 123 124
f 87 124 125
f 87 125 88
f 88 125 90
f 92 98 94
f 94 98 99
f 97 101 100
f 97 100 126
f 97 126 98
f 98 126 100
f 98 100 99
f 103 127 104
f 104 127 128
f 104 128 107
f 104 107 105
f 106 109 110
f 107 128 129
f 107 129 130
f 107 130 131
f 107 131 132
f 107 132 108
f 108 132 133
f 108 133 134
f 108 134 109
f 109 134 110
f 110 134 111
f 111 135 136
f 111 136 112
f 111 134 135
f 112 136 115
f 113 137 114
f 113 118 137
f 114 137 138
f 115 136 135
f 115 135 139
f 115 139 140
f 115 140 116
f 116 140 141
f 116 141 117
f 117 141 118
f 118 141 142
f 118 142 137
f 120 143 144
f 120 144 145
f 120 145 146
f 120 146 147
f 120 147 148
f 120 148 149
f 120 149 123
f 120 123 121
f 120 122 150
f 120 150 151
f 120 151 152
f 120 152 153
f 120 153 154
f 120 154 155
f 120 155 156
f 120 156 157
f 120 157 158
f 120 158 159
f 120 159 160
f 120 160 143
f 123 149 161
f 123 161 124
f 124 161 125
f 130 162 131
f 131 162 132
f 132 163 133
f 132 162 164
f 132 164 165
f 132 165 163
f 133 163 165
f 133 165 166
f 133 166 167
f 133 167 134
f 134 167 135
f 135 167 139
f 137 168 138
f 137 142 169
f 137 169 168
f 139 167 170
f 139 170 171
f 139 171 140
f 140 172 141
f 140 171 172
f 141 172 173
f 141 173 169
f 141 169 142
f 143 174 175
f 143 175 176
f 143 176 144
f 143 160 177
f 143 177 174
f 144 176 145
f 145 176 178
f 145 178 179
f 145 179 206
f 145 206 180
f 145 180 181
f 145 181 146
f 146 181 147
f 147 181 148
f 148 181 161
f 148 161 149
f 161 181 182
f 161 182 183
f 164 184 165
f 165 184 185
f 165 185 186
f 165 186 187
f 165 187 188
f 165 188 166
f 166 188 167
f 167 188 170
f 168 169 189
f 169 173 190
f 169 190 189
f 170 188 171
f 171 188 191
f 171 191 192
f 171 192 193
f 171 193 172
f 172 194 173
f 172 193 194
f 173 194 195
f 173 195 196
f 173 196 197
f 173 197 198
f 173 198 190
f 175 199 176
f 176 199 200
f 176 200 201
f 176 201 202
f 176 202 178
f 178 203 179
f 178 202 204
f 178 204 205
f 178 205 203
f 179 203 206
f 180 206 207
f 180 207 208
f 180 208 209
f 180 209 210
f 180 210 181
f 181 210 182
f 182 210 209
f 182 209 211
f 182 211 212
f 182 212 213
f 182 213 183
f 185 214 186
f 186 214 215
f 186 215 216
f 186 216 187
f 187 216 188
f 188 216 191
f 191 216 217
f 191 217 192
f 192 217 218
f 192 218 193
f 193 218 194
f 194 219 195
f 194 218 219
f 203 220 206
f 203 205 221
f 203 221 220
f 206 220 222
f 206 222 223
f 206 223 224
f 206 224 225
f 206 225 207
f 207 225 224
f 207 224 226
f 207 226 227
f 207 227 212
f 207 212 208
f 208 212 211
f 208 211 209
f 214 228 215
f 215 229 216
f 215 228 230
f 215 230 229
f 216 229 218
f 216 218 217
f 218 229 231
f 218 231 232
f 218 232 233
f 218 233 219
f 220 234 235
f 220 235 222
f 220 221 236
f 220 236 237
f 220 237 234
f 222 235 238
f 222 238 223
f 223 238 239
f 223 239 240
f 223 240 224
f 229 230 231
f 230 241 231
f 231 241 242
f 231 242 243
f 231 243 244
f 231 244 245
f 231 245 232
f 232 246 247
f 232 247 233
f 232 245 248
f 232 248 246
f 233 247 246
f 233 246 250
f 233 250 249
f 234 237 235
f 235 237 238
f 237 248 255
f 237 255 254
f 237 254 244
f 237 244 251
f 237 251 238
f 243 252 244
f 244 252 253
f 244 253 251
f 244 254 245
f 245 254 255
f 245 255 248
f 246 248 256
f 246 256 250
f 248 257 250
f 248 250 256
f 249 250 258
f 250 257 258

