v -0.03191530 0.23005911 0.11009256
v -0.03323388 0.22841981 0.14480472
v -0.01026498 0.22775628 0.14021256
v -0.02864010 0.22979891 0.11009256
v -0.07912914 0.22965579 0.11009256
v -0.07912914 0.22966879 0.11265956
v -0.04242144 0.22830272 0.15398905
v -0.03782766 0.22728790 0.16316451
v -0.01026498 0.22715781 0.14480472
v 0.03363114 0.22295547 0.11009256
v 0.03105777 0.22326772 0.11009256
v -0.08117082 0.22951267 0.11009256
v -0.10209805 0.22874507 0.11265956
v -0.08831670 0.22918741 0.11725172
v -0.04699395 0.22819863 0.15398905
v -0.04699395 0.22783434 0.15857234
v -0.04242144 0.22788638 0.15857234
v -0.03782766 0.22653331 0.16775668
v -0.03323388 0.22614299 0.16765898
v -0.04242144 0.22739199 0.16316451
v -0.01485876 0.22614299 0.15364265
v -0.01026498 0.22618202 0.14939689
v -0.00601148 0.22614299 0.14480472
v 0.03565155 0.22237000 0.11009256
v -0.10209805 0.22778231 0.11009256
v -0.10696830 0.22639020 0.11009256
v -0.10964801 0.22544043 0.11009256
v -0.10669183 0.22670245 0.11265956
v -0.10209805 0.22848485 0.11725172
v -0.09750426 0.22879710 0.11725172
v -0.04699395 0.22700168 0.16316451
v -0.04242144 0.22642923 0.16775668
v -0.03782766 0.22614299 0.16899132
v -0.03348909 0.22614299 0.16775668
v -0.03323388 0.22611698 0.16775668
v -0.01485876 0.22605193 0.15398905
v -0.01026498 0.22497207 0.15398905
v 0.03786336 0.22155036 0.11009256
v -0.11383770 0.22351491 0.11009256
v -0.11764458 0.22155036 0.11009256
v -0.10669183 0.22614299 0.11697637
v -0.10650042 0.22614299 0.11725172
v -0.10669183 0.22413941 0.12184389
v -0.06994159 0.22579171 0.14939689
v -0.06994159 0.22614299 0.14871294
v -0.05024788 0.22614299 0.16316451
v -0.04242144 0.22614299 0.16860050
v -0.03782766 0.22460779 0.17234884
v -0.03323388 0.22432155 0.17234884
v -0.02864010 0.22493304 0.16775668
v -0.01026498 0.22335879 0.15857234
v -0.00567120 0.22165443 0.15857234
v 0.01268265 0.21859701 0.14480472
v 0.04024533 0.22011923 0.11009256
v -0.00541599 0.22155036 0.15857234
v -0.00107742 0.21942967 0.15857234
v 0.00351636 0.21918248 0.15398905
v -0.13287212 0.21360104 0.11009256
v -0.11098786 0.21695771 0.13102822
v -0.10709590 0.22155036 0.12643605
v -0.10669183 0.22175852 0.12643605
v -0.04969493 0.22155036 0.17234884
v -0.10669183 0.22155036 0.12682688
v -0.10669183 0.21929957 0.13102822
v -0.04242144 0.22417844 0.17234884
v -0.03782766 0.21976795 0.18153317
v -0.03323388 0.22006717 0.18153317
v -0.02864010 0.21949473 0.18153317
v -0.02404632 0.22009320 0.17694101
v -0.00567120 0.22155036 0.15882105
v -0.01945254 0.21695771 0.18047618
v 0.02646399 0.21695771 0.13204081
v 0.00351636 0.21695771 0.15846576
v 0.04281869 0.21855798 0.11009256
v -0.00567120 0.21954676 0.16316451
v -0.00107742 0.21715285 0.16316451
v -0.13478619 0.21236506 0.11009256
v -0.11128561 0.21674955 0.13102822
v -0.11128561 0.21331482 0.13562039
v -0.10669183 0.21695771 0.13462557
v -0.05158773 0.22048350 0.17234884
v -0.04157074 0.21236506 0.19071752
v -0.04699395 0.21961182 0.17694101
v -0.04699395 0.22155036 0.17416972
v -0.04242144 0.22132918 0.17694101
v -0.03782766 0.21687965 0.18612534
v -0.03735978 0.21695771 0.18612534
v -0.03323388 0.21695771 0.18692476
v -0.03323388 0.21743909 0.18612534
v -0.02891658 0.21695771 0.18612534
v -0.02864010 0.21695771 0.18600100
v -0.02404632 0.21695771 0.18360276
v -0.02404632 0.21806359 0.18153317
v -0.01517778 0.21695771 0.17694101
v -0.02087747 0.21695771 0.18153317
v -0.01945254 0.21643730 0.18153317
v 0.00351636 0.21689266 0.15857234
v 0.01268265 0.21306763 0.15398905
v 0.04505178 0.21695771 0.11009256
v -0.00075841 0.21695771 0.16316451
v -0.01026498 0.21695771 0.17243766
v -0.00567120 0.21710082 0.16775668
v -0.01485876 0.21695771 0.17666566
v -0.01485876 0.21682760 0.17694101
v -0.01026498 0.21451177 0.17694101
v -0.13882703 0.20925559 0.11009256
v -0.10669183 0.21619009 0.13562039
v -0.14037953 0.20794155 0.11009256
v -0.11230645 0.21236506 0.13562039
v -0.05158773 0.20777242 0.18767975
v -0.04699395 0.20840992 0.19071752
v -0.04242144 0.21180562 0.19071752
v -0.04242144 0.21844088 0.18153317
v -0.04242144 0.20777242 0.19363092
v -0.03782766 0.21236506 0.19224528
v -0.03782766 0.21388727 0.19071752
v -0.03323388 0.21413446 0.19071752
v -0.02864010 0.21319773 0.19071752
v -0.02864010 0.21687965 0.18612534
v -0.02404632 0.21535743 0.18612534
v -0.01485876 0.21434264 0.18153317
v 0.00351636 0.21386124 0.16316451
v 0.01268265 0.21236506 0.15476182
v 0.01334194 0.21236506 0.15398905
v 0.01727643 0.21230001 0.14939689
v 0.01721262 0.21236506 0.14939689
v -0.00297023 0.21236506 0.17234884
v -0.00107742 0.21069974 0.17234884
v 0.04483910 0.21509724 0.11265956
v 0.04943288 0.21261226 0.11009256
v -0.00567120 0.21438167 0.17234884
v -0.00567120 0.21236506 0.17524449
v -0.01220033 0.21236506 0.18153317
v -0.14342080 0.20359611 0.11009256
v -0.11539023 0.20777242 0.13562039
v -0.11128561 0.20777242 0.13945755
v -0.05616025 0.20484509 0.18612534
v -0.05354434 0.20777242 0.18612534
v -0.04756818 0.20777242 0.19071752
v -0.04699395 0.20777242 0.19107281
v -0.04699395 0.20317977 0.19335556
v -0.04286806 0.20317977 0.19530967
v -0.04242144 0.20354405 0.19530967
v -0.03782766 0.20695276 0.19530967
v -0.03782766 0.20777242 0.19494550
v -0.03427599 0.20777242 0.19530967
v -0.03323388 0.20786348 0.19530967
v -0.03323388 0.21236506 0.19239627
v -0.02864010 0.21236506 0.19150804
v -0.02404632 0.21236506 0.18956280
v -0.01945254 0.21310666 0.18612534
v -0.01485876 0.21236506 0.18395805
v 0.01727643 0.20777242 0.15302976
v 0.04962429 0.21236506 0.11009256
v -0.01026498 0.20999718 0.18153317
v -0.00107742 0.20777242 0.17451614
v 0.00083665 0.20777242 0.17234884
v -0.14380360 0.20298461 0.11009256
v -0.11587938 0.20317977 0.13713927
v -0.11128561 0.20610709 0.14021256
v -0.14580275 0.19971903 0.11009256
v -0.14635571 0.19858712 0.11009256
v -0.05616025 0.20317977 0.18680929
v -0.05158773 0.20317977 0.19041552
v -0.05114112 0.20317977 0.19071752
v -0.05158773 0.20234711 0.19071752
v -0.04699395 0.19858712 0.19450139
v -0.04548396 0.19858712 0.19530967
v -0.04242144 0.19858712 0.19662427
v -0.04242144 0.20317977 0.19545180
v -0.03782766 0.20317977 0.19670420
v -0.03323388 0.20317977 0.19726380
v -0.03323388 0.20777242 0.19536298
v -0.03129854 0.20777242 0.19530967
v -0.02864010 0.20777242 0.19482115
v -0.02404632 0.20777242 0.19322233
v -0.02404632 0.21107703 0.19071752
v -0.01945254 0.21236506 0.18685369
v -0.01485876 0.20935968 0.18612534
v -0.01981409 0.20777242 0.19071752
v 0.01727643 0.20533948 0.15398905
v 0.05213386 0.20777242 0.11009256
v 0.05207006 0.20796757 0.11009256
v 0.00283579 0.20317977 0.17234884
v 0.01042830 0.20317977 0.16316451
v -0.01371032 0.20777242 0.18612534
v -0.01103061 0.20317977 0.18612534
v -0.01026498 0.20159251 0.18612534
v -0.00107742 0.20317977 0.17652353
v -0.11249785 0.20317977 0.14021256
v -0.14652584 0.19819682 0.11009256
v -0.14805712 0.19415060 0.11009256
v -0.09695131 0.15727934 0.16775668
v -0.05158773 0.19858712 0.19155244
v -0.04699395 0.19399447 0.19485668
v -0.09750426 0.14809405 0.16885808
v -0.09750426 0.13431610 0.17029702
v -0.04610072 0.19399447 0.19530967
v -0.04242144 0.19399447 0.19704173
v -0.03323388 0.19399447 0.19882708
v -0.02864010 0.20317977 0.19678415
v -0.02864010 0.20693976 0.19530967
v -0.02406759 0.20317977 0.19530967
v -0.02404632 0.20317977 0.19530080
v -0.01945254 0.20317977 0.19269827
v -0.01945254 0.20731705 0.19071752
v 0.01785065 0.20317977 0.15398905
v 0.05785481 0.17562389 0.11265956
v 0.05260174 0.20582087 0.11009256
v -0.00107742 0.20221701 0.17694101
v 0.00002849 0.19858712 0.17694101
v 0.00351636 0.20074684 0.17234884
v -0.01485876 0.20317977 0.18932299
v -0.01485876 0.19949784 0.19071752
v -0.01485876 0.19858712 0.19102839
v -0.01449722 0.19858712 0.19071752
v -0.01026498 0.19858712 0.18705799
v -0.14878021 0.19102813 0.11009256
v -0.10209805 0.14809405 0.16530515
v -0.09916312 0.14809405 0.16775668
v -0.04676001 0.18480919 0.19530967
v -0.09750426 0.12972347 0.17050132
v -0.10109847 0.13431610 0.16775668
v -0.10139622 0.12972347 0.16775668
v -0.04242144 0.18480919 0.19744144
v -0.03782766 0.18480919 0.19866720
v -0.03323388 0.18480919 0.19904915
v -0.03023516 0.12972347 0.19990185
v -0.02864010 0.15727934 0.19885372
v -0.02404632 0.19399447 0.19685521
v -0.02404632 0.19858712 0.19634003
v -0.02404632 0.20314074 0.19530967
v -0.02164309 0.19858712 0.19530967
v -0.01945254 0.19858712 0.19424379
v -0.01675157 0.20317977 0.19071752
v 0.05402667 0.17511649 0.11725172
v 0.05455835 0.17104427 0.11725172
v 0.06404366 0.13890875 0.11009256
v 0.06006664 0.17104427 0.11009256
v 0.05959875 0.17407567 0.11009256
v 0.00351636 0.19858712 0.17284625
v 0.00021989 0.19399447 0.17694101
v -0.01026498 0.19399447 0.18747545
v -0.01485876 0.19399447 0.19171234
v -0.01375285 0.19399447 0.19071752
v -0.14914176 0.18940184 0.11009256
v -0.14801457 0.18940184 0.11120286
v -0.10424606 0.14809405 0.16316451
v -0.10484155 0.14350140 0.16316451
v -0.10209805 0.13431610 0.16680626
v -0.04242144 0.16645162 0.19762798
v -0.09529244 0.09715862 0.17234884
v -0.09750426 0.09715862 0.17097209
v -0.09669610 0.09715862 0.17148725
v -0.09652596 0.09715862 0.17159385
v -0.10209805 0.12972347 0.16709938
v -0.10209805 0.09715862 0.16715268
v -0.10141749 0.09715862 0.16775668
v -0.03782766 0.12972347 0.19962649
v -0.03636020 0.12972347 0.19990185
v -0.03323388 0.09757495 0.20083449
v -0.02864010 0.09757495 0.20017720
v -0.02404632 0.18940184 0.19695291
v -0.02055845 0.19399447 0.19530967
v -0.01945254 0.19399447 0.19481226
v 0.04943288 0.12053817 0.12597417
v 0.06404366 0.12972347 0.11009256
v -0.01347638 0.09715862 0.19086851
v -0.01332750 0.09715862 0.19071752
v 0.04898627 0.12053817 0.12643605
v -0.01485876 0.09715862 0.19222751
v -0.01870818 0.09715862 0.19530967
v -0.14975851 0.18480919 0.11009256
v -0.10669183 0.14350140 0.16125480
v -0.10535197 0.13890875 0.16316451
v -0.10569225 0.13431610 0.16316451
v -0.04242144 0.12972347 0.19799215
v -0.03825301 0.09715862 0.19962649
v -0.10594746 0.12972347 0.16316451
v -0.10603253 0.09715862 0.16312898
v -0.03763626 0.09715862 0.19990185
v -0.03323388 0.09715862 0.20081672
v -0.02864010 0.09715862 0.20017720
v -0.02778940 0.09715862 0.19990185
v -0.02781067 0.09757495 0.19990185
v -0.02404632 0.12972347 0.19792109
v -0.01945254 0.09715862 0.19578044
v -0.02404632 0.09715862 0.19835633
v 0.04892247 0.11594553 0.12643605
v 0.04943288 0.11594553 0.12590312
v 0.06153409 0.11135288 0.11265956
v 0.06159790 0.11594553 0.11265956
v 0.06393732 0.11594553 0.11009256
v 0.03499226 0.09715862 0.14016815
v -0.15007752 0.18021654 0.11009256
v -0.10669183 0.13890875 0.16174334
v -0.10669183 0.13431610 0.16204534
v -0.03782766 0.09715862 0.19982190
v -0.13423324 0.11135288 0.13263593
v -0.13155353 0.11135288 0.13562039
v -0.13168114 0.10676024 0.13562039
v -0.13174494 0.09757495 0.13562039
v -0.13174494 0.09715862 0.13562039
v -0.02436533 0.09715862 0.19848955
v 0.06346943 0.09715862 0.11009256
v 0.06387352 0.11135288 0.11009256
v 0.06389479 0.11254983 0.11009256
v -0.15035401 0.17562389 0.11009256
v -0.13912477 0.12053817 0.12643605
v -0.15139610 0.11135288 0.11265956
v -0.15133231 0.10676024 0.11265956
v -0.15260835 0.10216759 0.11085644
v -0.15243822 0.09715862 0.11060773
v -0.15279976 0.09715862 0.11009256
v -0.15309750 0.11135288 0.11009256
v -0.15260835 0.11135288 0.11090086
v -0.15260835 0.10676024 0.11103409
v -0.15309750 0.10216759 0.11009256
v -0.15260835 0.09715862 0.11036791
v -0.15314005 0.11003884 0.11009256
v -0.15318257 0.10676024 0.11009256
f 1 2 3
f 1 3 4
f 1 4 11
f 1 11 10
f 1 10 24
f 1 24 38
f 1 38 54
f 1 54 74
f 1 74 99
f 1 99 130
f 1 130 154
f 1 154 183
f 1 183 182
f 1 182 209
f 1 209 240
f 1 240 239
f 1 239 238
f 1 238 267
f 1 267 293
f 1 293 307
f 1 307 306
f 1 306 305
f 1 305 314
f 1 314 318
f 1 318 321
f 1 321 320
f 1 320 315
f 1 315 308
f 1 308 295
f 1 295 273
f 1 273 246
f 1 246 218
f 1 218 192
f 1 192 191
f 1 191 162
f 1 162 161
f 1 161 158
f 1 158 134
f 1 134 108
f 1 108 106
f 1 106 77
f 1 77 58
f 1 58 40
f 1 40 39
f 1 39 27
f 1 27 26
f 1 26 25
f 1 25 12
f 1 12 5
f 1 5 6
f 1 6 7
f 1 7 2
f 2 7 3
f 3 8 9
f 3 9 10
f 3 10 11
f 3 11 4
f 3 7 8
f 5 12 13
f 5 13 6
f 6 13 14
f 6 14 15
f 6 15 7
f 7 15 16
f 7 16 17
f 7 17 8
f 8 18 19
f 8 19 9
f 8 17 20
f 8 20 18
f 9 19 21
f 9 21 22
f 9 22 23
f 9 23 10
f 10 23 24
f 12 25 13
f 13 25 26
f 13 26 27
f 13 27 28
f 13 28 29
f 13 29 30
f 13 30 14
f 14 30 15
f 15 30 16
f 16 31 20
f 16 20 17
f 16 30 29
f 16 29 31
f 18 20 32
f 18 32 33
f 18 33 34
f 18 34 19
f 19 34 35
f 19 35 36
f 19 36 21
f 20 31 32
f 21 36 22
f 22 37 23
f 22 36 37
f 23 37 24
f 24 37 38
f 27 39 28
f 28 39 29
f 29 39 40
f 29 40 41
f 29 41 42
f 29 42 43
f 29 43 44
f 29 44 45
f 29 45 31
f 31 45 46
f 31 46 47
f 31 47 32
f 32 47 33
f 33 47 48
f 33 48 49
f 33 49 35
f 33 35 34
f 35 49 50
f 35 50 37
f 35 37 36
f 37 50 51
f 37 51 52
f 37 52 38
f 38 53 54
f 38 52 55
f 38 55 56
f 38 56 57
f 38 57 53
f 40 58 41
f 41 58 42
f 42 58 43
f 43 59 60
f 43 60 61
f 43 61 44
f 43 58 59
f 44 62 46
f 44 46 45
f 44 61 63
f 44 63 64
f 44 64 62
f 46 62 47
f 47 62 65
f 47 65 48
f 48 65 66
f 48 66 67
f 48 67 49
f 49 67 68
f 49 68 50
f 50 68 69
f 50 69 51
f 51 70 52
f 51 69 71
f 51 71 70
f 52 70 55
f 53 72 54
f 53 57 73
f 53 73 72
f 54 72 74
f 55 70 75
f 55 75 56
f 56 76 57
f 56 75 76
f 57 76 73
f 58 77 59
f 59 78 79
f 59 79 80
f 59 80 64
f 59 64 60
f 59 77 78
f 60 64 63
f 60 63 61
f 62 81 82
f 62 82 83
f 62 83 84
f 62 84 65
f 62 64 80
f 62 80 81
f 65 84 85
f 65 85 66
f 66 85 113
f 66 113 86
f 66 86 87
f 66 87 88
f 66 88 89
f 66 89 67
f 67 89 90
f 67 90 68
f 68 90 91
f 68 91 92
f 68 92 93
f 68 93 69
f 69 93 71
f 70 71 94
f 70 94 75
f 71 93 95
f 71 95 96
f 71 96 94
f 72 73 97
f 72 97 98
f 72 98 99
f 72 99 74
f 73 76 100
f 73 100 97
f 75 101 102
f 75 102 76
f 75 94 103
f 75 103 104
f 75 104 101
f 76 102 105
f 76 105 100
f 77 106 78
f 78 106 79
f 79 107 80
f 79 106 108
f 79 108 109
f 79 109 110
f 79 110 111
f 79 111 112
f 79 112 82
f 79 82 107
f 80 107 82
f 80 82 81
f 82 113 83
f 82 112 114
f 82 114 115
f 82 115 116
f 82 116 113
f 83 113 84
f 84 113 85
f 86 113 116
f 86 116 87
f 87 116 88
f 88 117 90
f 88 90 89
f 88 116 117
f 90 118 119
f 90 119 91
f 90 117 118
f 91 119 92
f 92 119 120
f 92 120 96
f 92 96 95
f 92 95 93
f 94 96 104
f 94 104 103
f 96 120 121
f 96 121 104
f 97 100 122
f 97 122 98
f 98 123 124
f 98 124 125
f 98 125 126
f 98 126 99
f 98 122 127
f 98 127 128
f 98 128 123
f 99 129 130
f 99 126 129
f 100 105 131
f 100 131 122
f 101 105 102
f 101 104 121
f 101 121 105
f 105 132 131
f 105 121 133
f 105 133 132
f 108 134 109
f 109 134 135
f 109 135 136
f 109 136 137
f 109 137 138
f 109 138 110
f 110 139 111
f 110 138 137
f 110 137 139
f 111 139 140
f 111 140 114
f 111 114 112
f 114 140 141
f 114 141 142
f 114 142 143
f 114 143 144
f 114 144 145
f 114 145 115
f 115 145 146
f 115 146 147
f 115 147 148
f 115 148 117
f 115 117 116
f 117 148 149
f 117 149 118
f 118 149 150
f 118 150 120
f 118 120 119
f 120 150 151
f 120 151 121
f 121 152 133
f 121 151 152
f 122 131 127
f 123 128 124
f 124 128 125
f 125 128 153
f 125 153 154
f 125 154 130
f 125 130 126
f 126 130 129
f 127 131 132
f 127 132 128
f 128 132 133
f 128 133 155
f 128 155 156
f 128 156 157
f 128 157 153
f 133 152 155
f 134 158 135
f 135 159 160
f 135 160 136
f 135 158 161
f 135 161 162
f 135 162 159
f 136 160 137
f 137 163 164
f 137 164 139
f 137 160 163
f 139 165 141
f 139 141 140
f 139 164 165
f 141 165 166
f 141 166 167
f 141 167 168
f 141 168 142
f 142 168 169
f 142 169 170
f 142 170 143
f 143 170 144
f 144 170 171
f 144 171 172
f 144 172 146
f 144 146 145
f 146 172 173
f 146 173 147
f 147 173 174
f 147 174 148
f 148 174 175
f 148 175 149
f 149 175 176
f 149 176 177
f 149 177 150
f 150 177 178
f 150 178 151
f 151 178 152
f 152 179 155
f 152 178 180
f 152 180 179
f 153 181 182
f 153 182 183
f 153 183 154
f 153 157 184
f 153 184 185
f 153 185 181
f 155 179 186
f 155 186 156
f 156 187 188
f 156 188 189
f 156 189 184
f 156 184 157
f 156 186 187
f 159 190 160
f 159 162 191
f 159 191 192
f 159 192 193
f 159 193 190
f 160 190 163
f 163 193 166
f 163 166 164
f 163 190 193
f 164 166 165
f 166 194 167
f 166 193 194
f 167 195 168
f 167 194 196
f 167 196 197
f 167 197 195
f 168 198 199
f 168 199 169
f 168 195 198
f 169 199 200
f 169 200 171
f 169 171 170
f 171 200 172
f 172 200 201
f 172 201 174
f 172 174 173
f 174 201 202
f 174 202 175
f 175 202 176
f 176 202 203
f 176 203 204
f 176 204 205
f 176 205 180
f 176 180 177
f 177 180 178
f 179 180 206
f 179 206 186
f 180 205 206
f 181 207 182
f 181 185 207
f 182 208 209
f 182 207 208
f 184 189 210
f 184 210 211
f 184 211 212
f 184 212 185
f 185 212 208
f 185 208 207
f 186 206 213
f 186 213 187
f 187 213 188
f 188 213 214
f 188 214 215
f 188 215 216
f 188 216 217
f 188 217 210
f 188 210 189
f 192 218 219
f 192 219 193
f 193 219 220
f 193 220 194
f 194 220 196
f 195 221 198
f 195 197 222
f 195 222 221
f 196 220 197
f 197 220 223
f 197 223 224
f 197 224 222
f 198 221 225
f 198 225 199
f 199 225 226
f 199 226 200
f 200 226 227
f 200 227 228
f 200 228 229
f 200 229 230
f 200 230 231
f 200 231 201
f 201 203 202
f 201 231 203
f 203 231 232
f 203 232 204
f 204 232 233
f 204 233 234
f 204 234 205
f 205 234 215
f 205 215 214
f 205 214 235
f 205 235 206
f 206 235 213
f 208 236 237
f 208 237 238
f 208 238 239
f 208 239 240
f 208 240 209
f 208 212 241
f 208 241 236
f 210 217 211
f 211 242 238
f 211 238 237
f 211 237 236
f 211 236 241
f 211 241 212
f 211 217 243
f 211 243 242
f 213 235 214
f 215 244 216
f 215 234 244
f 216 244 217
f 217 244 245
f 217 245 243
f 218 246 247
f 218 247 219
f 219 247 246
f 219 246 248
f 219 248 249
f 219 249 250
f 219 250 223
f 219 223 220
f 221 251 225
f 221 222 252
f 221 252 251
f 222 253 254
f 222 254 255
f 222 255 252
f 222 224 253
f 223 250 256
f 223 256 224
f 224 256 257
f 224 257 258
f 224 258 253
f 225 251 259
f 225 259 226
f 226 259 260
f 226 260 261
f 226 261 227
f 227 261 228
f 228 262 230
f 228 230 229
f 228 261 262
f 230 263 264
f 230 264 233
f 230 233 231
f 230 262 263
f 231 233 232
f 233 264 265
f 233 265 234
f 234 265 244
f 238 266 267
f 238 242 266
f 242 243 268
f 242 268 269
f 242 269 270
f 242 270 266
f 243 245 271
f 243 271 268
f 244 271 245
f 244 265 272
f 244 272 271
f 246 273 274
f 246 274 248
f 248 274 249
f 249 274 275
f 249 275 250
f 250 275 276
f 250 276 256
f 251 252 277
f 251 277 259
f 252 255 254
f 252 254 253
f 252 253 258
f 252 258 257
f 252 257 280
f 252 280 303
f 252 303 313
f 252 313 319
f 252 319 314
f 252 314 305
f 252 305 294
f 252 294 269
f 252 269 268
f 252 268 271
f 252 271 272
f 252 272 287
f 252 287 288
f 252 288 304
f 252 304 284
f 252 284 283
f 252 283 282
f 252 282 281
f 252 281 298
f 252 298 278
f 252 278 277
f 256 276 279
f 256 279 257
f 257 279 280
f 259 281 261
f 259 261 260
f 259 277 281
f 261 282 283
f 261 283 262
f 261 281 282
f 262 283 284
f 262 284 285
f 262 285 263
f 263 285 284
f 263 284 286
f 263 286 264
f 264 286 265
f 265 287 272
f 265 286 288
f 265 288 287
f 266 270 269
f 266 269 289
f 266 289 290
f 266 290 291
f 266 291 292
f 266 292 267
f 267 292 293
f 269 294 290
f 269 290 289
f 273 295 296
f 273 296 274
f 274 296 275
f 275 296 276
f 276 296 297
f 276 297 279
f 277 278 298
f 277 298 281
f 279 297 299
f 279 299 300
f 279 300 301
f 279 301 302
f 279 302 280
f 280 302 303
f 284 304 286
f 286 304 288
f 290 305 291
f 290 294 305
f 291 305 306
f 291 306 307
f 291 307 292
f 292 307 293
f 295 308 299
f 295 299 296
f 296 299 297
f 299 302 301
f 299 301 300
f 299 308 309
f 299 309 310
f 299 310 302
f 302 310 303
f 303 310 311
f 303 311 312
f 303 312 313
f 308 315 316
f 308 316 310
f 308 310 309
f 310 316 317
f 310 317 311
f 311 317 312
f 312 317 318
f 312 318 314
f 312 314 319
f 312 319 313
f 315 320 316
f 316 320 317
f 317 320 321
f 317 321 318

