v -0.01693370 -0.26522004 -0.14068901
v -0.01693370 -0.26522004 -0.13990226
v -0.01693370 -0.26401562 -0.14566369
v -0.01484190 -0.26522004 -0.14542161
v 0.01271288 -0.26817827 -0.16747478
v 0.03108273 -0.27016449 -0.18124896
v -0.01693370 -0.26350850 -0.08292954
v -0.01693370 -0.26302249 -0.14910118
v -0.01023992 -0.26344510 -0.15828798
v -0.00552385 -0.26522004 -0.15828798
v 0.01731485 -0.26809375 -0.17664950
v 0.03072142 -0.26980529 -0.18583630
v 0.03108273 -0.26986869 -0.18583630
v 0.04026766 -0.27071388 -0.18583630
v 0.06782244 -0.27096745 -0.15368852
v 0.06782244 -0.27073501 -0.14910118
v 0.15046776 -0.26883330 -0.08292954
v -0.01693370 -0.05510132 -0.08292954
v -0.01693370 -0.26061366 -0.15301072
v -0.01484190 -0.26238860 -0.15368852
v -0.01484190 -0.26061366 -0.15556462
v 0.02189781 -0.26061366 -0.19239657
v 0.02189781 -0.26329718 -0.19043576
v 0.02648076 -0.26522004 -0.19288072
v 0.03108273 -0.26832618 -0.19043576
v 0.03108273 -0.26980529 -0.18622362
v 0.12749593 -0.26707949 -0.12155286
v 0.07700736 -0.27090406 -0.14910118
v 0.03566569 -0.26522004 -0.19555568
v 0.03897454 -0.26522004 -0.19502312
v 0.04026766 -0.26522004 -0.19404269
v 0.13816414 -0.26522004 -0.11696550
v 0.13668086 -0.26576943 -0.11696550
v 0.15235038 -0.26874879 -0.08292954
v 0.17471367 -0.05510132 -0.08292954
v -0.01693370 -0.05510132 -0.16075717
v -0.01693370 -0.25974731 -0.15368852
v -0.01693370 -0.25630308 -0.15561304
v -0.01693370 -0.25602841 -0.15569776
v 0.01731485 -0.24225151 -0.19267497
v 0.02102305 -0.24683676 -0.19502312
v 0.02237322 -0.25144314 -0.19502312
v 0.02398961 -0.25602841 -0.19502312
v 0.02562502 -0.26061366 -0.19502312
v 0.02648076 -0.26249424 -0.19502312
v 0.03108273 -0.26522004 -0.19456317
v 0.15505071 -0.26813601 -0.08481773
v 0.15505071 -0.26849521 -0.08292954
v 0.03108273 -0.26450161 -0.19502312
v 0.03108273 -0.26061366 -0.19683869
v 0.03566569 -0.26061366 -0.19749228
v 0.04026766 -0.26061366 -0.19689920
v 0.04026766 -0.26393109 -0.19502312
v 0.12291298 -0.26302249 -0.13073966
v 0.12749593 -0.26429031 -0.12615231
v 0.12513790 -0.26061366 -0.13073966
v 0.14128282 -0.26122644 -0.11696550
v 0.14586578 -0.26061366 -0.11316490
v 0.14586578 -0.26143772 -0.11237815
v 0.15942447 -0.26522004 -0.08481773
v 0.15965267 -0.26598072 -0.08292954
v 0.15695236 -0.26784017 -0.08292954
v 0.11589592 -0.05510132 -0.15828798
v 0.17477072 -0.05736225 -0.08292954
v 0.11610510 -0.05858780 -0.15828798
v 0.01640207 -0.05510132 -0.19502312
v -0.01693370 -0.09072684 -0.16260904
v -0.01693370 -0.25222495 -0.15660555
v 0.01986305 -0.24225151 -0.19502312
v -0.01693370 -0.25144314 -0.15677500
v -0.01693370 -0.24387853 -0.15828798
v -0.01693370 -0.23766624 -0.15935312
v -0.01693370 -0.23396848 -0.15989780
v -0.01693370 -0.21011248 -0.16293585
v -0.01693370 -0.20550609 -0.16349263
v 0.00297648 -0.21928298 -0.18124896
v 0.02189781 -0.24683676 -0.19561619
v 0.03108273 -0.25144314 -0.19915051
v 0.03108273 -0.25602841 -0.19835167
v 0.03566569 -0.25602841 -0.19853322
v 0.04026766 -0.25602841 -0.19786750
v 0.04483160 -0.25602841 -0.19502312
v 0.04485061 -0.25602841 -0.19501100
v 0.12711560 -0.25602841 -0.13073966
v 0.14166316 -0.26061366 -0.11696550
v 0.16423564 -0.25602841 -0.08469669
v 0.16423564 -0.25835273 -0.08292954
v 0.14337462 -0.25602841 -0.11696550
v 0.14586578 -0.25602841 -0.11470209
v 0.14765333 -0.25602841 -0.11237815
v 0.17347762 -0.22847461 -0.08292954
v 0.15965267 -0.26522004 -0.08436989
v 0.16299957 -0.26061366 -0.08292954
v 0.16037530 -0.26522004 -0.08292954
v 0.11372804 -0.05510132 -0.16079347
v 0.17507498 -0.07268164 -0.08292954
v 0.11372804 -0.05858780 -0.16099924
v 0.12291298 -0.11828061 -0.15091675
v 0.12291298 -0.12286587 -0.15098938
v 0.12057395 -0.12286587 -0.15368852
v 0.01731485 -0.05510132 -0.19590669
v -0.00877566 -0.12286587 -0.17206214
v -0.00358418 -0.10450373 -0.17664950
v -0.01267402 -0.10450373 -0.16747478
v -0.01693370 -0.09531209 -0.16277850
v 0.02189781 -0.23766624 -0.19635452
v 0.00811091 -0.21928298 -0.18583630
v 0.01216140 -0.20092083 -0.19043576
v 0.01271288 -0.20092083 -0.19091991
v 0.01731485 -0.20092083 -0.19469631
v 0.01777125 -0.20092083 -0.19502312
v 0.02189781 -0.15041966 -0.19936838
v 0.02189781 -0.21011248 -0.19738335
v -0.01693370 -0.20092083 -0.16363787
v 0.00162631 -0.19172920 -0.18124896
v 0.00183550 -0.19633558 -0.18124896
v 0.03108273 -0.24683676 -0.19969519
v 0.03108273 -0.24763970 -0.19961046
v 0.03108273 -0.23766624 -0.20055456
v 0.03566569 -0.25144314 -0.19929577
v 0.03724405 -0.24683676 -0.19961046
v 0.04026766 -0.25144314 -0.19842428
v 0.06322046 -0.14124914 -0.20641281
v 0.06744211 -0.14124914 -0.20420992
v 0.12859888 -0.25144314 -0.13073966
v 0.12749593 -0.25495076 -0.13073966
v 0.16516743 -0.25602841 -0.08292954
v 0.17345859 -0.22853800 -0.08292954
v 0.13209790 -0.25144314 -0.12781054
v 0.13209790 -0.24683676 -0.12873043
v 0.14586578 -0.25144314 -0.11514993
v 0.17733794 -0.20092083 -0.08292954
v 0.17682450 -0.20550609 -0.08292954
v 0.17456154 -0.22388936 -0.08292954
v 0.13209790 -0.24225151 -0.12946876
v 0.06782244 -0.14124914 -0.20387101
v 0.13396151 -0.21928298 -0.13073966
v 0.11123690 -0.05510132 -0.16287534
v 0.06782244 -0.13366340 -0.20420992
v 0.11831100 -0.12747226 -0.15589143
v 0.06782244 -0.13683294 -0.20420992
v 0.12051691 -0.12747226 -0.15368852
v 0.02056666 -0.05510132 -0.19869056
v 0.01585059 -0.14583440 -0.19502312
v 0.01271288 -0.14124914 -0.19225133
v 0.00812992 -0.12286587 -0.18802708
v -0.01023992 -0.12286587 -0.17058548
v 0.01271288 -0.14583440 -0.19226343
v -0.01311141 -0.11828061 -0.16747478
v -0.01693370 -0.09664329 -0.16281481
v -0.01484190 -0.11828061 -0.16565921
v 0.02648076 -0.15041966 -0.20194650
v 0.01586960 -0.15041966 -0.19502312
v 0.01731485 -0.15041966 -0.19619717
v 0.02189781 -0.14583440 -0.19941679
v 0.02220207 -0.14583440 -0.19961046
v 0.02229715 -0.15041966 -0.19961046
v -0.00105500 -0.19172920 -0.17874345
v -0.01693370 -0.11828061 -0.16339580
v 0.03566569 -0.24683676 -0.19980412
v 0.03108273 -0.22847461 -0.20085714
v 0.05863751 -0.13664276 -0.20637650
v 0.06322046 -0.13664276 -0.20657017
v 0.05863751 -0.05510132 -0.19633031
v 0.06782244 -0.13205751 -0.20410098
v 0.06768932 -0.13205751 -0.20420992
v 0.06704276 -0.12747226 -0.20420992
v 0.02165059 -0.05510132 -0.19961046
v 0.01731485 -0.14583440 -0.19619717
v 0.02189781 -0.05510132 -0.19981623
v 0.02648076 -0.06775830 -0.20245486
v 0.03108273 -0.08153520 -0.20356840
v 0.03108273 -0.15041966 -0.20299952
v 0.03108273 -0.07236469 -0.20358052
v 0.03108273 -0.06775830 -0.20358052
v 0.05863751 -0.13205751 -0.20632807
v 0.03545650 -0.05510132 -0.20365314
v 0.04026766 -0.05510132 -0.20332633
v 0.06322046 -0.12747226 -0.20596498
v 0.05420669 -0.05510132 -0.19887213
v 0.06571162 -0.12286587 -0.20420992
v 0.02648076 -0.05510132 -0.20237013
v 0.02762175 -0.05510132 -0.20263642
v 0.03108273 -0.05510132 -0.20343526
v 0.04833062 -0.05510132 -0.20129289
v 0.04945258 -0.05510132 -0.20099030
v 0.05350308 -0.05510132 -0.19921104
f 1 2 7
f 1 7 18
f 1 18 36
f 1 36 67
f 1 67 105
f 1 105 150
f 1 150 159
f 1 159 114
f 1 114 75
f 1 75 74
f 1 74 73
f 1 73 72
f 1 72 71
f 1 71 70
f 1 70 68
f 1 68 39
f 1 39 38
f 1 38 37
f 1 37 19
f 1 19 8
f 1 8 3
f 1 3 4
f 1 4 5
f 1 5 6
f 1 6 2
f 2 6 7
f 3 8 4
f 4 8 9
f 4 9 10
f 4 10 11
f 4 11 12
f 4 12 13
f 4 13 5
f 5 13 6
f 6 13 14
f 6 14 15
f 6 15 7
f 7 15 16
f 7 16 17
f 7 17 34
f 7 34 48
f 7 48 62
f 7 62 61
f 7 61 94
f 7 94 93
f 7 93 87
f 7 87 127
f 7 127 128
f 7 128 91
f 7 91 134
f 7 134 133
f 7 133 132
f 7 132 96
f 7 96 64
f 7 64 35
f 7 35 18
f 8 19 20
f 8 20 9
f 9 20 19
f 9 19 21
f 9 21 22
f 9 22 23
f 9 23 24
f 9 24 11
f 9 11 10
f 11 25 26
f 11 26 12
f 11 24 25
f 12 26 13
f 13 26 14
f 14 27 28
f 14 28 15
f 14 26 25
f 14 25 29
f 14 29 30
f 14 30 31
f 14 31 32
f 14 32 33
f 14 33 27
f 15 28 16
f 16 28 17
f 17 28 34
f 18 35 63
f 18 63 95
f 18 95 138
f 18 138 164
f 18 164 180
f 18 180 187
f 18 187 186
f 18 186 185
f 18 185 178
f 18 178 177
f 18 177 184
f 18 184 183
f 18 183 182
f 18 182 170
f 18 170 168
f 18 168 143
f 18 143 101
f 18 101 66
f 18 66 36
f 19 37 21
f 21 37 38
f 21 38 22
f 22 38 39
f 22 39 40
f 22 40 41
f 22 41 42
f 22 42 43
f 22 43 44
f 22 44 45
f 22 45 23
f 23 45 24
f 24 46 25
f 24 45 46
f 25 46 29
f 27 47 48
f 27 48 28
f 27 33 47
f 28 48 34
f 29 46 49
f 29 49 50
f 29 50 51
f 29 51 52
f 29 52 30
f 30 52 53
f 30 53 31
f 31 53 54
f 31 54 55
f 31 55 32
f 32 55 54
f 32 54 56
f 32 56 57
f 32 57 58
f 32 58 59
f 32 59 60
f 32 60 61
f 32 61 62
f 32 62 47
f 32 47 33
f 35 64 65
f 35 65 63
f 36 66 67
f 39 68 40
f 40 69 41
f 40 68 70
f 40 70 71
f 40 71 72
f 40 72 73
f 40 73 74
f 40 74 75
f 40 75 76
f 40 76 69
f 41 69 77
f 41 77 42
f 42 77 43
f 43 77 44
f 44 77 78
f 44 78 79
f 44 79 45
f 45 79 50
f 45 50 49
f 45 49 46
f 47 62 48
f 50 79 51
f 51 79 80
f 51 80 52
f 52 80 81
f 52 81 82
f 52 82 83
f 52 83 56
f 52 56 53
f 53 56 54
f 56 83 84
f 56 84 85
f 56 85 57
f 57 85 58
f 58 86 87
f 58 87 59
f 58 85 88
f 58 88 89
f 58 89 90
f 58 90 91
f 58 91 86
f 59 87 60
f 60 92 61
f 60 87 93
f 60 93 92
f 61 92 94
f 63 65 95
f 64 96 65
f 65 97 95
f 65 96 98
f 65 98 99
f 65 99 100
f 65 100 97
f 66 101 102
f 66 102 103
f 66 103 104
f 66 104 67
f 67 104 105
f 69 106 77
f 69 76 107
f 69 107 108
f 69 108 109
f 69 109 110
f 69 110 111
f 69 111 112
f 69 112 113
f 69 113 106
f 75 114 115
f 75 115 116
f 75 116 76
f 76 116 108
f 76 108 107
f 77 117 118
f 77 118 78
f 77 106 119
f 77 119 117
f 78 118 120
f 78 120 80
f 78 80 79
f 80 120 81
f 81 120 121
f 81 121 122
f 81 122 123
f 81 123 124
f 81 124 82
f 82 124 83
f 83 125 126
f 83 126 84
f 83 124 125
f 84 126 88
f 84 88 85
f 86 127 87
f 86 91 128
f 86 128 127
f 88 126 129
f 88 129 130
f 88 130 89
f 89 131 132
f 89 132 133
f 89 133 134
f 89 134 90
f 89 130 135
f 89 135 136
f 89 136 137
f 89 137 131
f 90 134 91
f 92 93 94
f 95 97 139
f 95 139 138
f 96 132 98
f 97 100 140
f 97 140 141
f 97 141 139
f 98 132 99
f 99 142 100
f 99 132 142
f 100 142 140
f 101 143 144
f 101 144 145
f 101 145 146
f 101 146 102
f 102 147 103
f 102 146 148
f 102 148 114
f 102 114 147
f 103 147 104
f 104 147 149
f 104 149 105
f 105 149 151
f 105 151 150
f 106 113 152
f 106 152 119
f 108 116 115
f 108 115 153
f 108 153 109
f 109 153 110
f 110 153 154
f 110 154 111
f 111 154 112
f 112 154 155
f 112 155 156
f 112 156 157
f 112 157 113
f 113 157 152
f 114 158 115
f 114 159 151
f 114 151 147
f 114 148 158
f 115 158 148
f 115 148 153
f 117 160 118
f 117 119 160
f 118 160 120
f 119 161 162
f 119 162 123
f 119 123 160
f 119 152 161
f 120 160 121
f 121 160 123
f 121 123 122
f 123 162 163
f 123 163 141
f 123 141 124
f 124 141 136
f 124 136 130
f 124 130 129
f 124 129 125
f 125 129 126
f 130 136 135
f 131 137 142
f 131 142 132
f 136 141 140
f 136 140 137
f 137 140 142
f 138 139 165
f 138 165 166
f 138 166 167
f 138 167 164
f 139 141 163
f 139 163 166
f 139 166 165
f 143 168 144
f 144 169 154
f 144 154 153
f 144 153 148
f 144 148 145
f 144 168 170
f 144 170 169
f 145 148 146
f 147 151 149
f 150 151 159
f 152 157 156
f 152 156 171
f 152 171 172
f 152 172 173
f 152 173 161
f 154 169 170
f 154 170 155
f 155 170 156
f 156 170 171
f 161 173 162
f 162 173 172
f 162 172 174
f 162 174 175
f 162 175 176
f 162 176 163
f 163 176 177
f 163 177 178
f 163 178 179
f 163 179 167
f 163 167 166
f 164 167 181
f 164 181 180
f 167 179 181
f 170 182 171
f 171 182 175
f 171 175 174
f 171 174 172
f 175 182 183
f 175 183 184
f 175 184 176
f 176 184 177
f 178 185 179
f 179 185 186
f 179 186 181
f 180 181 187
f 181 186 187

