v -0.04241287 0.23470842 0.00243652
v -0.03782457 0.23462763 -0.00215292
v -0.04241287 0.23451991 -0.00215292
v -0.04700117 0.23439872 0.00243652
v -0.04700117 0.23425059 0.00503621
v -0.04241287 0.23443911 0.00503621
v 0.00350887 0.23166523 0.00243652
v 0.01493122 0.23198840 -0.02051813
v -0.02862861 0.23439872 -0.01133925
v -0.07590553 0.22689846 -0.03295500
v -0.07915800 0.22656183 -0.03295500
v -0.07915800 0.22699273 -0.02970446
v -0.08374630 0.22645410 -0.02970446
v -0.02862861 0.23402168 -0.01592869
v -0.04961476 0.23392741 0.00503621
v -0.09751121 0.22513450 -0.02511130
v -0.10668781 0.22425925 -0.02051813
v -0.10668781 0.22458241 -0.01592869
v -0.15061547 0.21965407 0.00503621
v -0.03782457 0.23412941 0.00503621
v 0.00350887 0.23114008 0.00503621
v 0.01268547 0.23073612 -0.00316453
v 0.01268547 0.23144978 -0.00674609
v 0.01493122 0.23155750 -0.01262608
v 0.01493122 0.23219038 -0.03295500
v -0.00107944 0.23262127 -0.03295500
v -0.09751121 0.22400340 -0.03295500
v -0.09751121 0.22451509 -0.02970446
v -0.10668781 0.22306083 -0.02970446
v -0.15260955 0.21935783 0.00503621
v 0.00482534 0.23073612 0.00503621
v 0.01268547 0.22662916 0.00503621
v 0.01493122 0.23073612 -0.00594275
v 0.01493122 0.23089771 -0.00674609
v 0.01493122 0.09715907 -0.03295500
v -0.10343535 0.22306083 -0.03295500
v -0.10661037 0.22253568 -0.03295500
v -0.10668781 0.22252221 -0.03295500
v -0.11429626 0.22155269 -0.02970446
v -0.15260955 0.21815941 -0.00215292
v -0.15979209 0.21756693 0.00503621
v 0.01330498 0.22614440 0.00503621
v 0.01493122 0.22895868 -0.00267361
v 0.01493122 0.09715907 0.00503621
v -0.14474941 0.09715907 -0.03295500
v -0.11154715 0.22155269 -0.03295500
v -0.13810897 0.21696099 -0.02051813
v -0.14802124 0.21661088 -0.01133925
v -0.17020772 0.21236928 0.00503621
v -0.11586442 0.22031388 -0.03295500
v 0.01493122 0.22361290 0.00503621
v 0.01493122 0.22614440 0.00219478
v -0.18193984 0.09715907 0.00503621
v -0.18195920 0.09732065 0.00503621
v -0.17098211 0.19400242 -0.00778373
v -0.15260955 0.18941071 -0.02643160
v -0.14802124 0.19400242 -0.03115865
v -0.14616270 0.19400242 -0.03295500
v -0.12513782 0.21696099 -0.03295500
v -0.13882528 0.21666474 -0.02051813
v -0.15260955 0.21422751 -0.01133925
v -0.14343293 0.21460453 -0.02051813
v -0.17063364 0.21204610 0.00503621
v -0.15719784 0.21236928 -0.00944619
v -0.18283038 0.19140360 0.00503621
v -0.17626737 0.19400242 -0.00215292
v -0.17098211 0.19859414 -0.00696923
v -0.14802124 0.19859414 -0.02996480
v -0.14492366 0.19859414 -0.03295500
v -0.12964868 0.21453721 -0.03295500
v -0.14198095 0.21236928 -0.02511130
v -0.14343293 0.21236928 -0.02370917
v -0.14658860 0.21236928 -0.02051813
v -0.17529937 0.20823539 0.00503621
v -0.15719784 0.21094195 -0.01133925
v -0.18284975 0.19400242 0.00503621
v -0.18188175 0.19722066 0.00503621
v -0.17098211 0.19924048 -0.00674609
v -0.16639381 0.19929434 -0.01133925
v -0.14802124 0.19922702 -0.02970446
v -0.14476877 0.19898464 -0.03295500
v -0.14484622 0.19879612 -0.03295500
v -0.13303667 0.21236928 -0.03295500
v -0.13882528 0.21092848 -0.02970446
v -0.14343293 0.21126511 -0.02511130
v -0.17601569 0.20761597 0.00503621
v -0.14715006 0.20777756 -0.02511130
v -0.16043095 0.20777756 -0.01133925
v -0.18060400 0.20136802 0.00503621
v -0.16639381 0.20318585 -0.00949454
v -0.14802124 0.20318585 -0.02798992
v -0.18015872 0.20276842 0.00503621
v -0.18002319 0.20318585 0.00503621
v -0.14267791 0.20318585 -0.03295500
v -0.13423698 0.21150749 -0.03295500
v -0.13890271 0.20777756 -0.03295500
v -0.14252302 0.20777756 -0.02970446
v -0.14343293 0.20777756 -0.02887880
v -0.13491457 0.21100927 -0.03295500
v -0.16639381 0.20610784 -0.00674609
v -0.17098211 0.20578468 -0.00215292
v -0.14802124 0.20687538 -0.02511130
v -0.14343293 0.20684845 -0.02970446
v -0.14174863 0.20431695 -0.03295500
f 1 2 3
f 1 3 4
f 1 4 5
f 1 5 6
f 1 6 7
f 1 7 2
f 2 7 8
f 2 8 9
f 2 9 3
f 3 10 11
f 3 11 12
f 3 12 13
f 3 13 4
f 3 9 14
f 3 14 10
f 4 15 5
f 4 13 16
f 4 16 17
f 4 17 18
f 4 18 19
f 4 19 15
f 5 15 19
f 5 19 30
f 5 30 41
f 5 41 49
f 5 49 63
f 5 63 74
f 5 74 86
f 5 86 93
f 5 93 92
f 5 92 89
f 5 89 77
f 5 77 76
f 5 76 65
f 5 65 54
f 5 54 53
f 5 53 44
f 5 44 51
f 5 51 42
f 5 42 32
f 5 32 31
f 5 31 21
f 5 21 20
f 5 20 6
f 6 20 7
f 7 21 22
f 7 22 23
f 7 23 8
f 7 20 21
f 8 23 24
f 8 24 34
f 8 34 33
f 8 33 43
f 8 43 52
f 8 52 51
f 8 51 44
f 8 44 35
f 8 35 25
f 8 25 9
f 9 25 26
f 9 26 14
f 10 14 26
f 10 26 25
f 10 25 35
f 10 35 45
f 10 45 58
f 10 58 69
f 10 69 82
f 10 82 81
f 10 81 94
f 10 94 104
f 10 104 96
f 10 96 99
f 10 99 95
f 10 95 83
f 10 83 70
f 10 70 59
f 10 59 50
f 10 50 46
f 10 46 38
f 10 38 37
f 10 37 36
f 10 36 27
f 10 27 11
f 11 13 12
f 11 27 13
f 13 27 28
f 13 28 16
f 16 28 29
f 16 29 17
f 17 29 30
f 17 30 19
f 17 19 18
f 21 31 22
f 22 32 33
f 22 33 34
f 22 34 23
f 22 31 32
f 23 34 24
f 27 36 29
f 27 29 28
f 29 36 37
f 29 37 38
f 29 38 39
f 29 39 30
f 30 40 41
f 30 39 40
f 32 42 33
f 33 42 43
f 35 44 53
f 35 53 45
f 38 46 39
f 39 46 40
f 40 47 48
f 40 48 49
f 40 49 41
f 40 46 50
f 40 50 47
f 42 51 52
f 42 52 43
f 45 53 54
f 45 54 55
f 45 55 56
f 45 56 57
f 45 57 58
f 47 59 60
f 47 60 48
f 47 50 59
f 48 61 49
f 48 60 62
f 48 62 61
f 49 61 64
f 49 64 63
f 54 65 66
f 54 66 55
f 55 66 67
f 55 67 57
f 55 57 56
f 57 68 58
f 57 67 68
f 58 68 69
f 59 70 62
f 59 62 60
f 61 62 64
f 62 70 71
f 62 71 72
f 62 72 73
f 62 73 64
f 63 64 74
f 64 73 75
f 64 75 74
f 65 76 66
f 66 76 67
f 67 76 77
f 67 77 78
f 67 78 79
f 67 79 68
f 68 80 81
f 68 81 82
f 68 82 69
f 68 79 80
f 70 83 71
f 71 83 84
f 71 84 85
f 71 85 72
f 72 85 73
f 73 85 75
f 74 75 86
f 75 85 87
f 75 87 88
f 75 88 86
f 77 89 78
f 78 90 91
f 78 91 79
f 78 89 92
f 78 92 93
f 78 93 90
f 79 91 80
f 80 91 81
f 81 91 94
f 83 95 84
f 84 96 97
f 84 97 98
f 84 98 85
f 84 95 99
f 84 99 96
f 85 98 87
f 86 88 100
f 86 100 101
f 86 101 93
f 87 98 102
f 87 102 88
f 88 102 100
f 90 93 100
f 90 100 102
f 90 102 91
f 91 102 103
f 91 103 94
f 93 101 100
f 94 103 104
f 96 104 103
f 96 103 97
f 97 103 98
f 98 103 102

