v -0.01695217 -0.05510131 0.05144332
v -0.01695217 -0.05510131 -0.16073919
v -0.19926774 -0.05510131 0.05144332
v -0.01695217 -0.26218338 0.05144332
v -0.09751537 -0.05510131 -0.09336629
v -0.01695217 -0.09073145 -0.16259193
v -0.20111509 -0.05510131 0.04834838
v -0.20122592 -0.05857308 0.04834838
v -0.19936009 -0.05857308 0.05144332
v -0.16638480 -0.26857055 0.05144332
v -0.18016607 -0.27302154 0.03457904
v -0.14342216 -0.28134488 -0.01133979
v -0.13424079 -0.28245762 -0.02054041
v -0.06997129 -0.27738350 -0.08479730
v -0.06078993 -0.27651556 -0.09399791
v -0.01695217 -0.26521006 -0.13987463
v -0.09912256 -0.05510131 -0.09195567
v -0.01695217 -0.09531596 -0.16278142
v -0.09751537 -0.05857308 -0.09347156
v -0.10211528 -0.06317985 -0.08966078
v -0.10242933 -0.06317985 -0.08938707
v -0.20312870 -0.05510131 0.04468498
v -0.20312870 -0.05857308 0.04479025
v -0.20312870 -0.06317985 0.04489551
v -0.20124439 -0.06317985 0.04834838
v -0.19937858 -0.06175553 0.05144332
v -0.17098470 -0.26803644 0.05144332
v -0.18016607 -0.26975006 0.04375859
v -0.18934744 -0.26850378 0.04375859
v -0.18934744 -0.27119664 0.03457904
v -0.13424079 -0.28225733 -0.02513018
v -0.11587808 -0.27898585 -0.04715270
v -0.06537137 -0.27440135 -0.09614542
v -0.06171361 -0.27440135 -0.09858769
v -0.06078993 -0.27440135 -0.09913509
v -0.05619001 -0.27440135 -0.10178790
v -0.01695217 -0.26302907 -0.14909630
v -0.01695217 -0.26400828 -0.14566448
v -0.01695217 -0.26521006 -0.14067470
v -0.10211528 -0.05857308 -0.08947130
v -0.10211528 -0.05510131 -0.08932392
v -0.01695217 -0.11828304 -0.16339198
v -0.08683765 -0.10909176 -0.10317747
v -0.10669672 -0.06317985 -0.08526049
v -0.10669672 -0.05857308 -0.08519732
v -0.08833400 -0.10909176 -0.10180895
v -0.20357207 -0.05510131 0.04375859
v -0.20366444 -0.06317985 0.04375859
v -0.20093035 -0.20552235 0.04834838
v -0.19937858 -0.06317985 0.05144332
v -0.17286901 -0.26781388 0.05144332
v -0.18016607 -0.26645634 0.05144332
v -0.18173632 -0.26612251 0.05144332
v -0.18934744 -0.26521006 0.04912738
v -0.19636739 -0.26521006 0.04375859
v -0.14342216 -0.27891908 -0.02054041
v -0.20312870 -0.26222790 0.03457904
v -0.13424079 -0.27969800 -0.02971996
v -0.13424079 -0.27898585 -0.03054107
v -0.13424079 -0.27533604 -0.03430974
v -0.06997129 -0.26923820 -0.09858769
v -0.05159009 -0.26745780 -0.11694680
v -0.07412784 -0.27440135 -0.08938707
v -0.01695217 -0.26062554 -0.15301235
v -0.10688146 -0.05510131 -0.08479730
v -0.01695217 -0.20091558 -0.16364464
v -0.01944610 -0.20552235 -0.16174977
v -0.01944610 -0.20091558 -0.16172872
v -0.08657902 -0.11828304 -0.10317747
v -0.12964088 -0.06317985 -0.06229054
v -0.12566907 -0.05857308 -0.06643818
v -0.08833400 -0.11828304 -0.10145103
v -0.12561365 -0.05510131 -0.06643818
v -0.11026212 -0.05510131 -0.08149182
v -0.20506844 -0.05510131 0.03916882
v -0.20538248 -0.06317985 0.03916882
v -0.20551179 -0.06776436 0.03916882
v -0.20279619 -0.21010687 0.04375859
v -0.20089340 -0.21010687 0.04834838
v -0.19895368 -0.21929815 0.05144332
v -0.19902756 -0.21010687 0.05144332
v -0.18465514 -0.26521006 0.05144332
v -0.18657640 -0.26456465 0.05144332
v -0.18919965 -0.26245044 0.05144332
v -0.18934744 -0.26231690 0.05144332
v -0.19852879 -0.26316260 0.04375859
v -0.15260353 -0.27440135 -0.01637171
v -0.13514600 -0.27898585 -0.02971996
v -0.20312870 -0.26062554 0.03074721
v -0.20414474 -0.26062554 0.03457904
v -0.13518296 -0.27440135 -0.03430974
v -0.04240874 -0.26142673 -0.13071613
v -0.03322738 -0.25977984 -0.13991675
v -0.01695217 -0.25975760 -0.15368608
v -0.01695217 -0.20552235 -0.16349726
v -0.01695217 -0.20995108 -0.16294985
v -0.01695217 -0.23396414 -0.15989702
v -0.01833769 -0.23765845 -0.15827585
v -0.04240874 -0.25601878 -0.13379002
v -0.02321470 -0.20552235 -0.15827585
v -0.13002883 -0.06317985 -0.06184841
v -0.12964088 -0.05857308 -0.06229054
v -0.15657534 -0.15502592 -0.02971996
v -0.15720343 -0.15502592 -0.02906729
v -0.16080579 -0.15502592 -0.02513018
v -0.18016607 -0.14583464 -0.00376035
v -0.18158853 -0.14583464 -0.00216024
v -0.17774604 -0.13205884 -0.00675002
v -0.12659275 -0.05510131 -0.06542759
v -0.15627975 -0.15961044 -0.02971996
v -0.08619107 -0.12286756 -0.10317747
v -0.11802101 -0.18255526 -0.06643818
v -0.20529011 -0.05510131 0.03457904
v -0.20545638 -0.05857308 0.03457904
v -0.20560417 -0.06317985 0.03457904
v -0.20564111 -0.06776436 0.03457904
v -0.20534552 -0.10909176 0.03457904
v -0.20312870 -0.21929815 0.04194795
v -0.20264839 -0.21929815 0.04375859
v -0.20078256 -0.21929815 0.04834838
v -0.19863963 -0.22368235 0.05144332
v -0.20059783 -0.22388266 0.04834838
v -0.19960027 -0.24224297 0.04834838
v -0.19852879 -0.24224297 0.04986427
v -0.19108395 -0.26031397 0.05144332
v -0.19817778 -0.25601878 0.04834838
v -0.19852879 -0.25601878 0.04799046
v -0.20129984 -0.25601878 0.04375859
v -0.15260353 -0.26979457 -0.01984562
v -0.20157692 -0.20091558 0.02539949
v -0.19852879 -0.20091558 0.02030441
v -0.19852879 -0.21010687 0.02078865
v -0.19828863 -0.21469137 0.02078865
v -0.19435377 -0.21469137 0.01619887
v -0.15581792 -0.26062554 -0.02054041
v -0.15395209 -0.26521006 -0.02054041
v -0.20451422 -0.09992273 0.02998926
v -0.20312870 -0.09992273 0.02641008
v -0.20257450 -0.22388266 0.04375859
v -0.13884071 -0.26979457 -0.03344652
v -0.07915265 -0.26062554 -0.09667177
v -0.07455273 -0.26414180 -0.09858769
v -0.07455273 -0.26521006 -0.09782975
v -0.06078993 -0.26062554 -0.11397818
v -0.01944610 -0.25661964 -0.15368608
v -0.01695217 -0.25628582 -0.15560199
v -0.01695217 -0.23765845 -0.15934962
v -0.01695217 -0.24386758 -0.15827585
v -0.01944610 -0.25601878 -0.15387557
v -0.01966778 -0.25601878 -0.15368608
v -0.13424079 -0.26062554 -0.04212079
v -0.06537137 -0.22846717 -0.11397818
v -0.11129664 -0.23307394 -0.06786986
v -0.13304002 -0.05510131 -0.05837449
v -0.13002883 -0.05857308 -0.06184841
v -0.12964088 -0.05510131 -0.06220633
v -0.16058410 -0.15961044 -0.02513018
v -0.16178488 -0.15961044 -0.02384589
v -0.18016607 -0.15041915 -0.00363402
v -0.18147770 -0.15041915 -0.00216024
v -0.19559149 -0.19172430 0.01619887
v -0.18474752 -0.15041915 0.00181897
v -0.18474752 -0.14583464 0.00175581
v -0.18160701 -0.14125013 -0.00216024
v -0.18016607 -0.13205884 -0.00392878
v -0.13420385 -0.05510131 -0.05702704
v -0.16017768 -0.16419496 -0.02513018
v -0.20462506 -0.05510131 0.02998926
v -0.20460659 -0.06317985 0.02998926
v -0.19721717 -0.24224297 0.05144332
v -0.19409514 -0.25601878 0.05144332
v -0.19694006 -0.24402336 0.05144332
v -0.13424079 -0.26521006 -0.04037330
v -0.19852879 -0.19172430 0.01992544
v -0.20261144 -0.09992273 0.02539949
v -0.20312870 -0.05510131 0.02594689
v -0.20301787 -0.05510131 0.02571529
v -0.01695217 -0.25601878 -0.15568621
v -0.01695217 -0.24684973 -0.15768635
v -0.01695217 -0.25221317 -0.15661258
v -0.01695217 -0.24780670 -0.15749687
v -0.19577622 -0.18255526 0.01619887
v -0.19605333 -0.16419496 0.01619887
v -0.18474752 -0.14125013 0.00173476
v -0.18162548 -0.13205884 -0.00216024
v -0.19928621 -0.05510131 0.02078865
v -0.18016607 -0.12747433 -0.00382351
v -0.14342216 -0.05510131 -0.04610000
v -0.14175953 -0.05510131 -0.04807908
v -0.14042945 -0.05510131 -0.04965813
v -0.13566326 -0.05510131 -0.05530061
v -0.19852879 -0.16419496 0.01954647
v -0.20283313 -0.05510131 0.02539949
v -0.19969262 -0.08612468 0.02078865
f 1 2 5
f 1 5 17
f 1 17 41
f 1 41 65
f 1 65 74
f 1 74 73
f 1 73 109
f 1 109 156
f 1 156 154
f 1 154 166
f 1 166 191
f 1 191 190
f 1 190 189
f 1 189 188
f 1 188 186
f 1 186 193
f 1 193 177
f 1 177 176
f 1 176 168
f 1 168 113
f 1 113 75
f 1 75 47
f 1 47 22
f 1 22 7
f 1 7 3
f 1 3 9
f 1 9 26
f 1 26 50
f 1 50 81
f 1 81 80
f 1 80 121
f 1 121 170
f 1 170 172
f 1 172 171
f 1 171 125
f 1 125 85
f 1 85 84
f 1 84 83
f 1 83 82
f 1 82 53
f 1 53 52
f 1 52 51
f 1 51 27
f 1 27 10
f 1 10 4
f 1 4 16
f 1 16 39
f 1 39 38
f 1 38 37
f 1 37 64
f 1 64 94
f 1 94 146
f 1 146 178
f 1 178 180
f 1 180 181
f 1 181 179
f 1 179 148
f 1 148 147
f 1 147 97
f 1 97 96
f 1 96 95
f 1 95 66
f 1 66 42
f 1 42 18
f 1 18 6
f 1 6 2
f 2 6 5
f 3 7 8
f 3 8 9
f 4 10 11
f 4 11 12
f 4 12 13
f 4 13 14
f 4 14 15
f 4 15 16
f 5 6 18
f 5 18 19
f 5 19 20
f 5 20 21
f 5 21 17
f 7 22 8
f 8 23 24
f 8 24 25
f 8 25 26
f 8 26 9
f 8 22 23
f 10 27 28
f 10 28 11
f 11 28 29
f 11 29 30
f 11 30 12
f 12 30 31
f 12 31 13
f 13 31 14
f 14 31 15
f 15 31 32
f 15 32 33
f 15 33 34
f 15 34 35
f 15 35 36
f 15 36 37
f 15 37 38
f 15 38 39
f 15 39 16
f 17 21 40
f 17 40 41
f 18 42 19
f 19 42 20
f 20 42 43
f 20 43 21
f 21 44 45
f 21 45 41
f 21 41 40
f 21 43 46
f 21 46 44
f 22 47 23
f 23 48 24
f 23 47 48
f 24 48 49
f 24 49 25
f 25 50 26
f 25 49 50
f 27 51 28
f 28 51 29
f 29 51 52
f 29 52 53
f 29 53 54
f 29 54 55
f 29 55 30
f 30 56 31
f 30 55 57
f 30 57 56
f 31 56 58
f 31 58 32
f 32 58 59
f 32 59 60
f 32 60 61
f 32 61 62
f 32 62 63
f 32 63 33
f 33 63 62
f 33 62 64
f 33 64 37
f 33 37 34
f 34 37 35
f 35 37 36
f 41 45 65
f 42 66 67
f 42 67 68
f 42 68 43
f 43 69 46
f 43 68 67
f 43 67 69
f 44 70 71
f 44 71 45
f 44 46 72
f 44 72 70
f 45 71 73
f 45 73 74
f 45 74 65
f 46 69 72
f 47 75 76
f 47 76 77
f 47 77 48
f 48 77 78
f 48 78 49
f 49 78 79
f 49 79 80
f 49 80 81
f 49 81 50
f 53 82 54
f 54 82 83
f 54 83 84
f 54 84 85
f 54 85 86
f 54 86 55
f 55 86 57
f 56 87 88
f 56 88 58
f 56 57 89
f 56 89 87
f 57 90 89
f 57 86 90
f 58 88 59
f 59 88 60
f 60 88 91
f 60 91 61
f 61 91 92
f 61 92 62
f 62 92 64
f 64 92 93
f 64 93 94
f 66 95 67
f 67 95 96
f 67 96 97
f 67 97 98
f 67 98 99
f 67 99 100
f 67 100 69
f 69 100 72
f 70 101 155
f 70 155 102
f 70 102 71
f 70 72 103
f 70 103 104
f 70 104 105
f 70 105 106
f 70 106 107
f 70 107 108
f 70 108 101
f 71 102 109
f 71 109 73
f 72 110 103
f 72 100 111
f 72 111 112
f 72 112 110
f 75 113 114
f 75 114 76
f 76 114 115
f 76 115 77
f 77 115 116
f 77 116 117
f 77 117 90
f 77 90 118
f 77 118 78
f 78 118 119
f 78 119 120
f 78 120 79
f 79 120 80
f 80 120 122
f 80 122 123
f 80 123 124
f 80 124 121
f 85 125 86
f 86 125 126
f 86 126 127
f 86 127 128
f 86 128 90
f 87 129 91
f 87 91 88
f 87 89 129
f 89 130 131
f 89 131 132
f 89 132 133
f 89 133 134
f 89 134 135
f 89 135 136
f 89 136 129
f 89 90 137
f 89 137 138
f 89 138 130
f 90 128 139
f 90 139 118
f 90 117 137
f 91 129 140
f 91 140 141
f 91 141 142
f 91 142 143
f 91 143 92
f 92 144 99
f 92 99 93
f 92 143 142
f 92 142 144
f 93 145 94
f 93 99 145
f 94 145 146
f 97 147 98
f 98 147 148
f 98 148 149
f 98 149 150
f 98 150 99
f 99 150 145
f 99 144 141
f 99 141 151
f 99 151 152
f 99 152 100
f 100 152 153
f 100 153 112
f 100 112 111
f 101 154 155
f 101 108 154
f 102 155 154
f 102 154 156
f 102 156 109
f 103 110 104
f 104 110 157
f 104 157 158
f 104 158 105
f 105 158 159
f 105 159 106
f 106 159 160
f 106 160 107
f 107 160 161
f 107 161 162
f 107 162 163
f 107 163 164
f 107 164 165
f 107 165 108
f 108 165 166
f 108 166 154
f 110 167 157
f 110 112 135
f 110 135 167
f 112 153 151
f 112 151 135
f 113 168 114
f 114 168 115
f 115 168 116
f 116 168 169
f 116 169 137
f 116 137 117
f 118 139 119
f 119 139 120
f 120 139 128
f 120 128 122
f 121 124 170
f 122 128 123
f 123 128 127
f 123 127 124
f 124 127 170
f 125 171 126
f 126 171 172
f 126 172 170
f 126 170 127
f 129 136 173
f 129 173 140
f 130 174 131
f 130 138 175
f 130 175 174
f 131 174 161
f 131 161 132
f 132 161 133
f 133 161 134
f 134 161 158
f 134 158 157
f 134 157 167
f 134 167 135
f 135 151 173
f 135 173 136
f 137 169 176
f 137 176 138
f 138 176 177
f 138 177 175
f 140 173 141
f 141 144 142
f 141 173 151
f 145 150 149
f 145 149 178
f 145 178 146
f 148 179 149
f 149 180 178
f 149 179 181
f 149 181 180
f 151 153 152
f 158 160 159
f 158 161 160
f 161 174 182
f 161 182 162
f 162 183 163
f 162 182 183
f 163 184 164
f 163 183 184
f 164 184 185
f 164 185 165
f 165 185 186
f 165 186 187
f 165 187 188
f 165 188 189
f 165 189 190
f 165 190 191
f 165 191 166
f 168 176 169
f 174 175 192
f 174 192 183
f 174 183 182
f 175 177 193
f 175 193 192
f 183 192 194
f 183 194 184
f 184 194 185
f 185 194 186
f 186 188 187
f 186 194 193
f 192 193 194

