v -0.00109710 0.24312614 0.06807010
v -0.00568649 0.24286892 0.06807010
v -0.00568649 0.24259738 0.07132804
v -0.01486525 0.24128263 0.08050951
v -0.00109710 0.24216867 0.07132804
v 0.03362255 0.22294753 0.11009013
v 0.03564644 0.22307616 0.10805803
v 0.06321123 0.22346200 0.08050951
v 0.06780061 0.22347629 0.07591878
v 0.07563961 0.22329051 0.06807010
v -0.11127073 0.22766350 0.06807010
v -0.11127073 0.22774925 0.07132804
v -0.12503887 0.22579140 0.08050951
v -0.11586011 0.22709188 0.08050951
v -0.01517880 0.23992501 0.08510436
v -0.10206347 0.22776353 0.11009013
v -0.01945463 0.24031085 0.08510436
v -0.01945463 0.24026799 0.08529769
v -0.01948313 0.23991072 0.08656879
v -0.01948313 0.23898181 0.08969509
v -0.03325127 0.23532336 0.10139406
v 0.03102856 0.22326194 0.11009013
v 0.03564644 0.22236162 0.11009013
v 0.06780061 0.22203293 0.08050951
v 0.07697936 0.22281892 0.06807010
v -0.11261049 0.22744915 0.06807010
v -0.11586011 0.22704900 0.07132804
v -0.15585329 0.21984644 0.06807010
v -0.13424615 0.22274747 0.08969509
v -0.10696641 0.22637732 0.11009013
v -0.08114045 0.22950701 0.11009013
v -0.03784065 0.23532336 0.10195350
v -0.03784065 0.23606649 0.09887245
v -0.02404400 0.23918190 0.08969509
v -0.03325127 0.23426585 0.10346729
v -0.02866189 0.22979283 0.11009013
v 0.03784136 0.22154703 0.11009013
v 0.06780061 0.22153275 0.08187110
v 0.07697936 0.22153275 0.07191628
v 0.07697936 0.22174710 0.07132804
v 0.08034301 0.22153275 0.06807010
v -0.15719304 0.21944629 0.06807010
v -0.13835092 0.22154703 0.08969509
v -0.10964592 0.22543413 0.11009013
v -0.13880700 0.22140412 0.08969509
v -0.13880700 0.22024657 0.09428583
v -0.07911656 0.22964991 0.11009013
v -0.03784065 0.23140770 0.10805803
v -0.03325127 0.23072173 0.10905351
v -0.03191151 0.23003577 0.11009013
v 0.04023582 0.22010367 0.11009013
v 0.06780061 0.21934625 0.08510436
v 0.07238999 0.21926051 0.08050951
v 0.08481837 0.21886037 0.06807010
v 0.04277281 0.21854597 0.11009013
v -0.16329321 0.21655954 0.06807010
v -0.11380772 0.22350487 0.11009013
v -0.13880700 0.21826016 0.09887245
v -0.13706818 0.21695969 0.10346729
v -0.17096118 0.21270103 0.06807010
v -0.14342490 0.21777426 0.09428583
v -0.14342490 0.21695969 0.09634261
v -0.14134400 0.21695969 0.09887245
v 0.04502474 0.21695969 0.11009013
v 0.06771509 0.21926051 0.08529769
v 0.07073667 0.21694540 0.08510436
v 0.07238999 0.21694540 0.08341780
v 0.08698478 0.21694540 0.06807010
v -0.11762745 0.22154703 0.11009013
v -0.13880700 0.21695969 0.10163265
v -0.13880700 0.21601650 0.10346729
v -0.13880700 0.21235806 0.10789760
v -0.17158829 0.21235806 0.06807010
v -0.14342490 0.21574497 0.09887245
v -0.17267151 0.21172926 0.06807010
v 0.04941458 0.21260099 0.11009013
v 0.04941458 0.21490181 0.10805803
v 0.04713414 0.21695969 0.10805803
v 0.07238999 0.21470174 0.08510436
v 0.04961412 0.21235806 0.11009013
v 0.08943626 0.21421585 0.06807010
v -0.13284937 0.21358707 0.11009013
v -0.14342490 0.21321550 0.10346729
v -0.14342490 0.21235806 0.10479598
v -0.13475922 0.21235806 0.11009013
v -0.13880700 0.21215798 0.10805803
v -0.14470764 0.21235806 0.10346729
v -0.17557906 0.20911404 0.06807010
v 0.05198008 0.20809940 0.11009013
v 0.05400396 0.20809940 0.10805803
v 0.09060498 0.21235806 0.06807010
v 0.08977832 0.21370139 0.06807010
v -0.14342490 0.20824230 0.10805803
v -0.14798577 0.20928553 0.10346729
v -0.14798577 0.20777071 0.10481655
v -0.13880700 0.20924266 0.11009013
v -0.17723238 0.20715620 0.06807010
v 0.05212260 0.20777071 0.11009013
v 0.05414649 0.20777071 0.10805803
v 0.09069049 0.21215798 0.06807010
v -0.14034630 0.20792791 0.11009013
v -0.14373847 0.20777071 0.10805803
v -0.14342490 0.20358350 0.11009013
v -0.17777398 0.20642738 0.06807010
v -0.15160597 0.20318336 0.10346729
v -0.14798577 0.20318336 0.10708723
v -0.17740341 0.20316908 0.07132804
v 0.05260719 0.20581287 0.11009013
v 0.05959103 0.17407301 0.11009013
v 0.09231531 0.20775642 0.06807010
v -0.14368144 0.20318336 0.11009013
v -0.17937029 0.20382644 0.06807010
v -0.15257514 0.20046811 0.10346729
v -0.14904047 0.19858172 0.10805803
v -0.14798577 0.20076821 0.10805803
v -0.14576236 0.19971069 0.11009013
v -0.17971235 0.20316908 0.06807010
v -0.18130867 0.19858172 0.06807010
v -0.17877167 0.19858172 0.07132804
v 0.06007563 0.17102906 0.11009013
v 0.09345553 0.13890335 0.08050951
v 0.10103798 0.14349069 0.07132804
v 0.10485771 0.13890335 0.06807010
v -0.15257514 0.19858172 0.10415838
v -0.15018069 0.19399438 0.10805803
v -0.14807128 0.19399438 0.11009013
v -0.14798577 0.19423732 0.11009013
v -0.14798577 0.19858172 0.10886840
v -0.14636097 0.19858172 0.11009013
v -0.18207832 0.19398009 0.06807010
v -0.15117838 0.18939275 0.10805803
v 0.06403788 0.13891764 0.11009013
v 0.09074750 0.13890335 0.08327794
v 0.09074750 0.13431601 0.08383327
v 0.09379759 0.13431601 0.08050951
v 0.10488622 0.13431601 0.06807010
v -0.14912598 0.18939275 0.11009013
v -0.14875542 0.19102189 0.11009013
v -0.18267692 0.18939275 0.06807010
v -0.15174849 0.18480539 0.10805803
v -0.14975311 0.18480539 0.11009013
v 0.06403788 0.12972865 0.11009013
v 0.08615813 0.09714563 0.08789336
v 0.08863810 0.09715992 0.08529769
v 0.09034843 0.09715992 0.08350007
v 0.09317047 0.09715992 0.08050951
v 0.06389536 0.11255111 0.11009013
v 0.10454416 0.11593803 0.06838685
v 0.10454416 0.12053966 0.06844032
v 0.10485771 0.12053966 0.06807010
v -0.18586954 0.11593803 0.06807010
v -0.15226159 0.17563071 0.10805803
v -0.15006667 0.18021805 0.11009013
v 0.08433378 0.09714563 0.08969509
v 0.08860959 0.09714563 0.08529769
v 0.09436770 0.09715992 0.07915615
v 0.10482921 0.11593803 0.06807010
v 0.06386685 0.11136498 0.11009013
v -0.18604057 0.11135068 0.06807010
v -0.15311676 0.11005023 0.11009013
v -0.15032321 0.17563071 0.11009013
v 0.06346778 0.09714563 0.11009013
v 0.10405956 0.09715992 0.06807010
v -0.16916533 0.09714563 0.08529769
v -0.18632562 0.09715992 0.06807010
v -0.15317376 0.10676333 0.11009013
v -0.15277469 0.09714563 0.11009013
v -0.15414295 0.09714563 0.10805803
v -0.15308825 0.10216170 0.11009013
f 1 2 3
f 1 3 4
f 1 4 5
f 1 5 6
f 1 6 7
f 1 7 8
f 1 8 9
f 1 9 10
f 1 10 25
f 1 25 41
f 1 41 54
f 1 54 68
f 1 68 81
f 1 81 92
f 1 92 91
f 1 91 100
f 1 100 110
f 1 110 123
f 1 123 136
f 1 136 150
f 1 150 157
f 1 157 163
f 1 163 165
f 1 165 159
f 1 159 151
f 1 151 139
f 1 139 130
f 1 130 118
f 1 118 117
f 1 117 112
f 1 112 104
f 1 104 97
f 1 97 88
f 1 88 75
f 1 75 73
f 1 73 60
f 1 60 56
f 1 56 42
f 1 42 28
f 1 28 26
f 1 26 11
f 1 11 2
f 2 11 12
f 2 12 13
f 2 13 14
f 2 14 4
f 2 4 3
f 4 15 5
f 4 14 16
f 4 16 17
f 4 17 18
f 4 18 19
f 4 19 20
f 4 20 15
f 5 15 6
f 6 15 20
f 6 20 21
f 6 21 22
f 6 22 36
f 6 36 50
f 6 50 47
f 6 47 31
f 6 31 16
f 6 16 30
f 6 30 44
f 6 44 57
f 6 57 69
f 6 69 82
f 6 82 85
f 6 85 96
f 6 96 101
f 6 101 103
f 6 103 111
f 6 111 116
f 6 116 129
f 6 129 127
f 6 127 126
f 6 126 138
f 6 138 137
f 6 137 141
f 6 141 153
f 6 153 161
f 6 161 160
f 6 160 166
f 6 166 169
f 6 169 167
f 6 167 162
f 6 162 158
f 6 158 147
f 6 147 142
f 6 142 132
f 6 132 120
f 6 120 109
f 6 109 108
f 6 108 98
f 6 98 89
f 6 89 80
f 6 80 76
f 6 76 64
f 6 64 55
f 6 55 51
f 6 51 37
f 6 37 23
f 6 23 7
f 7 23 24
f 7 24 8
f 8 24 9
f 9 24 10
f 10 24 25
f 11 26 27
f 11 27 12
f 12 27 13
f 13 16 14
f 13 27 28
f 13 28 29
f 13 29 16
f 16 31 32
f 16 32 33
f 16 33 34
f 16 34 17
f 16 29 30
f 17 34 18
f 18 34 19
f 19 34 20
f 20 34 32
f 20 32 21
f 21 32 35
f 21 35 22
f 22 35 36
f 23 37 38
f 23 38 24
f 24 38 39
f 24 39 40
f 24 40 25
f 25 40 41
f 26 28 27
f 28 42 43
f 28 43 29
f 29 43 30
f 30 43 45
f 30 45 46
f 30 46 44
f 31 47 32
f 32 47 48
f 32 48 49
f 32 49 50
f 32 50 35
f 32 34 33
f 35 50 36
f 37 51 38
f 38 52 53
f 38 53 54
f 38 54 39
f 38 51 55
f 38 55 52
f 39 54 41
f 39 41 40
f 42 56 46
f 42 46 45
f 42 45 43
f 44 46 58
f 44 58 59
f 44 59 57
f 46 56 60
f 46 60 61
f 46 61 62
f 46 62 63
f 46 63 58
f 47 50 48
f 48 50 49
f 52 55 64
f 52 64 65
f 52 65 66
f 52 66 67
f 52 67 53
f 53 67 54
f 54 67 68
f 57 59 69
f 58 63 70
f 58 70 59
f 59 70 71
f 59 71 72
f 59 72 69
f 60 73 61
f 61 73 62
f 62 74 63
f 62 73 75
f 62 75 74
f 63 74 71
f 63 71 70
f 64 76 77
f 64 77 78
f 64 78 65
f 65 78 66
f 66 79 67
f 66 78 77
f 66 77 76
f 66 76 80
f 66 80 79
f 67 79 81
f 67 81 68
f 69 72 82
f 71 74 83
f 71 83 84
f 71 84 72
f 72 85 82
f 72 84 86
f 72 86 85
f 74 87 83
f 74 75 87
f 75 88 87
f 79 80 81
f 80 89 90
f 80 90 91
f 80 91 92
f 80 92 81
f 83 87 84
f 84 93 86
f 84 87 94
f 84 94 95
f 84 95 93
f 85 86 96
f 86 93 96
f 87 88 94
f 88 97 94
f 89 98 99
f 89 99 90
f 90 99 91
f 91 99 100
f 93 101 96
f 93 95 102
f 93 102 103
f 93 103 101
f 94 97 104
f 94 104 95
f 95 105 106
f 95 106 102
f 95 104 107
f 95 107 105
f 98 108 99
f 99 108 109
f 99 109 110
f 99 110 100
f 102 106 111
f 102 111 103
f 104 112 107
f 105 113 114
f 105 114 106
f 105 107 113
f 106 114 115
f 106 115 116
f 106 116 111
f 107 112 117
f 107 117 118
f 107 118 119
f 107 119 113
f 109 120 121
f 109 121 110
f 110 121 122
f 110 122 123
f 113 119 124
f 113 124 114
f 114 124 125
f 114 125 126
f 114 126 127
f 114 127 128
f 114 128 115
f 115 129 116
f 115 128 129
f 118 130 119
f 119 130 131
f 119 131 124
f 120 132 133
f 120 133 121
f 121 133 134
f 121 134 135
f 121 135 123
f 121 123 122
f 123 135 136
f 124 131 125
f 125 131 137
f 125 137 138
f 125 138 126
f 127 129 128
f 130 139 131
f 131 140 141
f 131 141 137
f 131 139 140
f 132 134 133
f 132 142 134
f 134 143 144
f 134 144 145
f 134 145 146
f 134 146 135
f 134 142 147
f 134 147 143
f 135 146 148
f 135 148 149
f 135 149 136
f 136 149 150
f 139 151 152
f 139 152 140
f 140 152 161
f 140 161 153
f 140 153 141
f 143 154 162
f 143 162 167
f 143 167 168
f 143 168 164
f 143 164 155
f 143 155 145
f 143 145 144
f 143 147 154
f 145 155 146
f 146 156 157
f 146 157 148
f 146 155 156
f 147 158 154
f 148 157 149
f 149 157 150
f 151 159 160
f 151 160 152
f 152 160 161
f 154 158 162
f 155 163 156
f 155 164 165
f 155 165 163
f 156 163 157
f 159 165 160
f 160 165 166
f 164 168 165
f 165 168 167
f 165 167 169
f 165 169 166

