v -0.10197654 0.22530503 0.00503993
v -0.04957745 0.23392879 0.00503993
v 0.08253432 0.22530503 0.00503993
v -0.12069619 0.22530503 0.06806599
v -0.11824931 0.22615158 0.06806599
v -0.11261949 0.22746562 0.06806599
v -0.11128663 0.22762609 0.06672724
v 0.01728412 0.24869248 0.04376493
v 0.04682575 0.24746916 0.00503993
v 0.06779335 0.24016406 0.00503993
v 0.06321787 0.24350845 0.00703263
v 0.07933149 0.22530503 0.00938315
v 0.02183969 0.22530503 0.06806599
v -0.11128663 0.22767028 0.06806599
v 0.01268875 0.24762265 0.04836109
v 0.01728412 0.24823199 0.04836109
v 0.02187948 0.24906228 0.04376493
v 0.05142112 0.24768544 0.00503993
v 0.06321787 0.24444804 0.00503993
v 0.02681304 0.24452013 0.04836109
v 0.02187948 0.24780870 0.04836109
v 0.02647485 0.24452013 0.04871275
v 0.02187948 0.23992683 0.05664653
v 0.02090471 0.23992683 0.05754108
v 0.01728412 0.24368520 0.05754108
v 0.00628309 0.23992683 0.06806599
v -0.00567281 0.24289213 0.06806599
v -0.00107745 0.24353171 0.06672724
v -0.00107745 0.24313865 0.06806599
v 0.05862251 0.24633652 0.00503993
v 0.05601648 0.24714819 0.00503993
v 0.05402714 0.24744822 0.00503993
v 0.06307862 0.24452013 0.00503993
v 0.02178001 0.24452013 0.05295109
v 0.02187948 0.24445501 0.05295109
v 0.05862251 0.24574579 0.00703263
v 0.00216517 0.24222929 0.06806599
f 1 2 9
f 1 9 18
f 1 18 32
f 1 32 31
f 1 31 30
f 1 30 33
f 1 33 19
f 1 19 10
f 1 10 3
f 1 3 12
f 1 12 13
f 1 13 4
f 1 4 5
f 1 5 6
f 1 6 7
f 1 7 8
f 1 8 2
f 2 8 9
f 3 10 11
f 3 11 12
f 4 13 26
f 4 26 37
f 4 37 29
f 4 29 27
f 4 27 14
f 4 14 6
f 4 6 5
f 6 14 8
f 6 8 7
f 8 15 16
f 8 16 17
f 8 17 9
f 8 14 15
f 9 17 18
f 10 19 11
f 11 20 12
f 11 19 21
f 11 21 20
f 12 20 22
f 12 22 13
f 13 22 23
f 13 23 24
f 13 24 25
f 13 25 26
f 14 27 15
f 15 27 16
f 16 21 17
f 16 27 28
f 16 28 29
f 16 29 21
f 17 21 30
f 17 30 31
f 17 31 32
f 17 32 18
f 19 33 21
f 20 21 22
f 21 25 34
f 21 34 35
f 21 35 22
f 21 33 36
f 21 36 30
f 21 29 37
f 21 37 25
f 22 35 24
f 22 24 23
f 24 35 25
f 25 35 34
f 25 37 26
f 27 29 28
f 30 36 33

