v 0.08155687 0.24043013 -0.03295501
v 0.08617038 0.24024781 -0.03295501
v 0.08617038 0.24027585 -0.03429953
v 0.08155687 0.24030392 -0.03429953
v 0.01272749 0.23643286 -0.05266456
v -0.00104517 0.23466565 -0.03889232
v -0.07587890 0.22689552 -0.03295501
v 0.09536345 0.23909772 -0.03889232
v 0.15045410 0.22891519 -0.03295501
v 0.09536345 0.23852267 -0.04348510
v 0.08617038 0.23992522 -0.03657912
v 0.01730707 0.23532485 -0.06103730
v 0.01730707 0.23597002 -0.05725735
v 0.01272749 0.23567548 -0.05725735
v -0.06074932 0.22611009 -0.05725735
v -0.06994240 0.22620827 -0.04807789
v -0.07913549 0.22655890 -0.03295501
v 0.15045410 0.22926584 -0.03889232
v 0.15964719 0.22756874 -0.04807789
v 0.15503368 0.22838222 -0.04807789
v 0.16290376 0.22540881 -0.03295501
v 0.16884027 0.22486182 -0.03889232
v 0.15964719 0.22728824 -0.03889232
v 0.06551138 0.23445527 -0.06416944
v 0.15503368 0.22766692 -0.05266456
v 0.15503368 0.22644671 -0.05725735
v 0.15045410 0.22613815 -0.06079896
v 0.14814735 0.22542285 -0.06416944
v 0.01964774 0.23435709 -0.06416944
v 0.01730707 0.23503031 -0.06185013
v -0.06994240 0.22376784 -0.06416944
v -0.06994240 0.22481975 -0.05725735
v -0.07221523 0.22341721 -0.06416944
v -0.07913549 0.22337512 -0.05725735
v -0.10342422 0.22306656 -0.03295501
v -0.09748773 0.22399225 -0.03295501
v -0.08408821 0.22587166 -0.03295501
v 0.16422675 0.22623633 -0.04807789
v 0.16422675 0.22613815 -0.04968827
v 0.15964719 0.22693761 -0.05266456
v 0.16884027 0.22351539 -0.03295501
v 0.17677819 0.22155182 -0.03889232
v 0.16884027 0.22465144 -0.04807789
v 0.15503368 0.22613815 -0.05823518
v 0.15045410 0.22493195 -0.06416944
v -0.07913549 0.22230919 -0.06416944
v -0.10661296 0.22253359 -0.03295501
v 0.16422675 0.22561921 -0.05266456
v 0.16263238 0.22613815 -0.05266456
v 0.15964719 0.22613815 -0.05519166
v 0.17331807 0.22155182 -0.03295501
v 0.17799942 0.22080845 -0.03889232
v 0.17799942 0.22065418 -0.04807789
v 0.17620152 0.22155182 -0.04807789
v 0.16884027 0.22375382 -0.05266456
v 0.15272693 0.22439899 -0.06416944
v 0.15964719 0.22539479 -0.05725735
v -0.08307053 0.22155182 -0.06416944
v -0.09843756 0.22155182 -0.04807789
v -0.10668080 0.22155182 -0.03868758
v -0.11153176 0.22155182 -0.03295501
v 0.16422675 0.22418861 -0.05725735
v 0.17759235 0.21883086 -0.03295501
v 0.17799942 0.21856438 -0.03295501
v 0.18719250 0.21236510 -0.03503597
v 0.18719250 0.21372558 -0.03889232
v 0.19055086 0.21236510 -0.04807789
v 0.18719250 0.21486164 -0.04807789
v 0.17799942 0.21828387 -0.05725735
v 0.18719250 0.21281392 -0.05725735
v 0.15964719 0.22347330 -0.06185013
v 0.15964719 0.22240737 -0.06416944
v -0.08490237 0.22107494 -0.06416944
v -0.08829465 0.22089261 -0.06185013
v -0.10210123 0.22069625 -0.04807789
v -0.10668080 0.22150973 -0.03889232
v -0.11587389 0.22031757 -0.03295501
v 0.16422675 0.22205672 -0.06185013
v 0.16884027 0.21920955 -0.06416944
v 0.18359668 0.21430063 -0.03295501
v 0.18871903 0.21236510 -0.03889232
v 0.18610697 0.21236510 -0.03295501
v 0.18719250 0.21120099 -0.03295501
v 0.19530005 0.20317841 -0.03889232
v 0.19638559 0.20317841 -0.04267839
v 0.19638559 0.20417421 -0.04807789
v 0.19638559 0.20317841 -0.05097779
v 0.18773528 0.21236510 -0.05725735
v 0.18719250 0.21236510 -0.05817101
v 0.17799942 0.21481957 -0.06416944
v 0.17026502 0.21855034 -0.06416944
v 0.16422675 0.22093468 -0.06416944
v -0.08829465 0.22019133 -0.06416944
v -0.10210123 0.21926566 -0.05266456
v -0.11587389 0.21871866 -0.03889232
v -0.12513481 0.21696548 -0.03295501
v 0.16483738 0.22071027 -0.06416944
v 0.19217915 0.20317841 -0.03295501
v 0.19258624 0.20204233 -0.03295501
v 0.19638559 0.19996657 -0.03889232
v 0.19733542 0.19399170 -0.03889232
v 0.19845488 0.19399170 -0.04807789
v 0.19672482 0.20317841 -0.04807789
v 0.19638559 0.19399170 -0.05552168
v 0.19404492 0.20317841 -0.05725735
v 0.18719250 0.20528223 -0.06416944
v 0.18196840 0.21236510 -0.06416944
v -0.09056747 0.21939189 -0.06416944
v -0.09799657 0.21696548 -0.06185013
v -0.11119254 0.21696548 -0.04807789
v -0.11587389 0.21696548 -0.04308785
v -0.12503305 0.21643250 -0.03429953
v -0.12964655 0.21453906 -0.03295501
v 0.19435021 0.19399170 -0.03295501
v 0.19638559 0.19399170 -0.03641411
v 0.19764073 0.18481901 -0.03889232
v 0.20035456 0.12054014 -0.04348510
v 0.19869234 0.18481901 -0.04807789
v 0.19865841 0.12512648 -0.06416944
v 0.19543576 0.19399170 -0.05725735
v 0.19224700 0.19399170 -0.06185013
v 0.18858333 0.20317841 -0.06416944
v -0.09290815 0.21828387 -0.06416944
v -0.09568982 0.21696548 -0.06416944
v -0.10210123 0.21449699 -0.06185013
v -0.11587389 0.21430063 -0.04807789
v -0.11587389 0.21678313 -0.04348510
v -0.12964655 0.21379571 -0.03429953
v -0.13303882 0.21236510 -0.03295501
v 0.19462160 0.18897056 -0.03295501
v 0.19638559 0.18481901 -0.03564406
v 0.19964218 0.12054014 -0.03889232
v 0.19987963 0.09758040 -0.03889232
v 0.20038848 0.11593978 -0.04348510
v 0.20011709 0.09758040 -0.04807789
v 0.20011709 0.09715963 -0.04807789
v 0.19828526 0.12054014 -0.06416944
v 0.19811565 0.12972684 -0.06416944
v 0.19682658 0.14033013 -0.06416944
v 0.19177208 0.19399170 -0.06241544
v 0.18932965 0.19939152 -0.06416944
v -0.09976055 0.21448295 -0.06416944
v -0.10210123 0.21282794 -0.06416944
v -0.11587389 0.21236510 -0.05098084
v -0.11872341 0.21236510 -0.04807789
v -0.13422613 0.21150955 -0.03295501
v 0.19543576 0.16645963 -0.03295501
v 0.19709797 0.11833814 -0.03295501
v 0.19770858 0.12054014 -0.03429953
v 0.19784427 0.11593978 -0.03429953
v 0.19825134 0.09758040 -0.03429953
v 0.19974394 0.09715963 -0.03847063
v 0.19987963 0.09715963 -0.03889232
v 0.20035456 0.11135344 -0.04348510
v 0.20008318 0.09715963 -0.04512298
v 0.19998140 0.09715963 -0.04849958
v 0.19689442 0.11588368 -0.06416944
v 0.19862450 0.09715963 -0.05266456
v 0.19638559 0.09715963 -0.05675009
v 0.19635166 0.09715963 -0.05681121
v 0.19319685 0.09715963 -0.06142844
v 0.19017771 0.19399170 -0.06416944
v -0.10267791 0.21236510 -0.06416944
v -0.12045347 0.21103268 -0.04807789
v -0.13490458 0.21100463 -0.03295501
v 0.19757289 0.09758040 -0.03295501
v 0.19825134 0.09715963 -0.03429953
v 0.20004925 0.09715963 -0.04328037
v 0.19289153 0.09715963 -0.06185013
v 0.19177208 0.09715963 -0.06326188
v 0.19099187 0.09715963 -0.06416944
v -0.10668080 0.20880263 -0.06416944
v -0.11587389 0.21099061 -0.05266456
v -0.12045347 0.20777877 -0.05169283
v -0.13883964 0.20783488 -0.03295501
v 0.19757289 0.09715963 -0.03295501
v -0.11553467 0.09715963 -0.06416944
v -0.10766457 0.20777877 -0.06416944
v -0.11946971 0.20777877 -0.05266456
v -0.12045347 0.20667075 -0.05266456
v -0.13883964 0.20777877 -0.03301306
v -0.14175700 0.20431446 -0.03295501
v -0.14474221 0.09715963 -0.03295501
v -0.11587389 0.09715963 -0.06387914
v -0.11553467 0.09758040 -0.06416944
v -0.10817341 0.20713360 -0.06416944
v -0.10993739 0.20446875 -0.06416944
v -0.12272630 0.20317841 -0.05266456
v -0.14134993 0.20317841 -0.03429953
v -0.13883964 0.20630608 -0.03429953
v -0.14267290 0.20317841 -0.03295501
v -0.14616696 0.19399170 -0.03295501
v -0.13982340 0.09715963 -0.03889232
v -0.11797709 0.09715963 -0.06206098
v -0.11394029 0.18940536 -0.06416944
v -0.11068370 0.20317841 -0.06416944
v -0.11254946 0.19859206 -0.06416944
v -0.12452420 0.19859206 -0.05266456
v -0.14477612 0.19898478 -0.03295501
v -0.12964655 0.09715963 -0.05047665
v -0.13195330 0.09715963 -0.04807789
v -0.13422613 0.09715963 -0.04554468
v -0.14545457 0.19662849 -0.03295501
v -0.11299044 0.19690900 -0.06416944
v -0.11353322 0.19463687 -0.06416944
v -0.11366891 0.19392157 -0.06416944
v -0.12964655 0.18940536 -0.04903128
v -0.12045347 0.09715963 -0.05984556
v -0.12276023 0.09715963 -0.05753236
v -0.12303161 0.09715963 -0.05725735
v -0.11821456 0.09715963 -0.06185013
v -0.14341922 0.19859206 -0.03440343
v -0.14491181 0.19859206 -0.03295501
f 1 2 3
f 1 3 4
f 1 4 5
f 1 5 6
f 1 6 7
f 1 7 17
f 1 17 37
f 1 37 36
f 1 36 35
f 1 35 47
f 1 47 61
f 1 61 77
f 1 77 96
f 1 96 113
f 1 113 129
f 1 129 146
f 1 146 165
f 1 165 175
f 1 175 182
f 1 182 191
f 1 191 199
f 1 199 213
f 1 213 203
f 1 203 192
f 1 192 183
f 1 183 176
f 1 176 166
f 1 166 148
f 1 148 147
f 1 147 130
f 1 130 114
f 1 114 99
f 1 99 98
f 1 98 83
f 1 83 82
f 1 82 80
f 1 80 64
f 1 64 63
f 1 63 51
f 1 51 41
f 1 41 21
f 1 21 9
f 1 9 2
f 2 8 3
f 2 9 8
f 3 8 10
f 3 10 11
f 3 11 4
f 4 11 12
f 4 12 13
f 4 13 5
f 5 13 14
f 5 14 15
f 5 15 16
f 5 16 17
f 5 17 7
f 5 7 6
f 8 9 18
f 8 18 19
f 8 19 20
f 8 20 10
f 9 21 22
f 9 22 23
f 9 23 18
f 10 24 12
f 10 12 11
f 10 20 25
f 10 25 26
f 10 26 27
f 10 27 28
f 10 28 24
f 12 29 30
f 12 30 31
f 12 31 14
f 12 14 13
f 12 24 29
f 14 31 15
f 15 31 32
f 15 32 16
f 16 32 33
f 16 33 34
f 16 34 35
f 16 35 36
f 16 36 37
f 16 37 17
f 18 23 19
f 19 38 39
f 19 39 40
f 19 40 20
f 19 23 22
f 19 22 38
f 20 40 25
f 21 41 22
f 22 41 42
f 22 42 43
f 22 43 38
f 24 28 45
f 24 45 56
f 24 56 72
f 24 72 92
f 24 92 97
f 24 97 79
f 24 79 91
f 24 91 90
f 24 90 107
f 24 107 106
f 24 106 122
f 24 122 141
f 24 141 162
f 24 162 139
f 24 139 138
f 24 138 119
f 24 119 137
f 24 137 157
f 24 157 171
f 24 171 177
f 24 177 185
f 24 185 195
f 24 195 206
f 24 206 205
f 24 205 204
f 24 204 197
f 24 197 196
f 24 196 187
f 24 187 186
f 24 186 178
f 24 178 172
f 24 172 163
f 24 163 143
f 24 143 142
f 24 142 124
f 24 124 123
f 24 123 108
f 24 108 93
f 24 93 73
f 24 73 58
f 24 58 46
f 24 46 33
f 24 33 31
f 24 31 29
f 25 40 26
f 26 44 27
f 26 40 44
f 27 44 28
f 28 44 45
f 29 31 30
f 31 33 32
f 33 46 34
f 34 46 35
f 35 46 47
f 38 43 39
f 39 48 49
f 39 49 40
f 39 43 48
f 40 49 50
f 40 50 44
f 41 51 42
f 42 52 53
f 42 53 54
f 42 54 43
f 42 51 52
f 43 54 55
f 43 55 48
f 44 56 45
f 44 50 57
f 44 57 56
f 46 58 59
f 46 59 47
f 47 59 60
f 47 60 61
f 48 62 49
f 48 55 62
f 49 62 50
f 50 62 57
f 51 63 52
f 52 63 64
f 52 64 65
f 52 65 66
f 52 66 67
f 52 67 68
f 52 68 53
f 53 69 54
f 53 68 70
f 53 70 69
f 54 69 55
f 55 69 62
f 56 57 62
f 56 62 71
f 56 71 72
f 58 73 74
f 58 74 59
f 59 75 60
f 59 74 75
f 60 75 76
f 60 76 61
f 61 76 75
f 61 75 77
f 62 78 72
f 62 72 71
f 62 69 79
f 62 79 78
f 64 80 65
f 65 81 66
f 65 80 82
f 65 82 83
f 65 83 84
f 65 84 81
f 66 81 67
f 67 85 86
f 67 86 87
f 67 87 88
f 67 88 70
f 67 70 68
f 67 81 85
f 69 70 89
f 69 89 90
f 69 90 91
f 69 91 79
f 70 88 89
f 72 78 92
f 73 93 74
f 74 93 75
f 75 93 94
f 75 94 95
f 75 95 77
f 77 95 96
f 78 97 92
f 78 79 97
f 81 84 85
f 83 98 84
f 84 98 99
f 84 99 100
f 84 100 85
f 85 101 102
f 85 102 103
f 85 103 86
f 85 100 101
f 86 103 87
f 87 103 102
f 87 102 104
f 87 104 105
f 87 105 88
f 88 105 89
f 89 106 107
f 89 107 90
f 89 105 106
f 93 108 94
f 94 108 109
f 94 109 110
f 94 110 111
f 94 111 96
f 94 96 95
f 96 111 112
f 96 112 113
f 99 114 115
f 99 115 100
f 100 115 101
f 101 116 117
f 101 117 102
f 101 115 116
f 102 117 118
f 102 118 119
f 102 119 104
f 104 120 105
f 104 119 120
f 105 120 121
f 105 121 122
f 105 122 106
f 108 123 109
f 109 123 124
f 109 124 125
f 109 125 126
f 109 126 110
f 110 126 127
f 110 127 111
f 111 127 112
f 112 127 113
f 113 128 129
f 113 127 126
f 113 126 128
f 114 130 115
f 115 131 116
f 115 130 131
f 116 132 117
f 116 131 132
f 117 132 133
f 117 133 134
f 117 134 119
f 117 119 118
f 119 134 135
f 119 135 136
f 119 136 137
f 119 138 121
f 119 121 120
f 121 138 139
f 121 139 140
f 121 140 141
f 121 141 122
f 124 142 125
f 125 142 143
f 125 143 144
f 125 144 145
f 125 145 126
f 126 145 129
f 126 129 128
f 129 145 146
f 130 147 131
f 131 147 148
f 131 148 149
f 131 149 150
f 131 150 132
f 132 150 151
f 132 151 152
f 132 152 133
f 133 153 134
f 133 152 153
f 134 154 136
f 134 136 135
f 134 153 154
f 136 154 155
f 136 155 168
f 136 168 153
f 136 153 152
f 136 152 167
f 136 167 176
f 136 176 183
f 136 183 193
f 136 193 202
f 136 202 201
f 136 201 200
f 136 200 210
f 136 210 209
f 136 209 208
f 136 208 211
f 136 211 194
f 136 194 184
f 136 184 177
f 136 177 171
f 136 171 170
f 136 170 169
f 136 169 161
f 136 161 160
f 136 160 159
f 136 159 158
f 136 158 156
f 136 156 137
f 137 156 158
f 137 158 159
f 137 159 160
f 137 160 161
f 137 161 157
f 139 162 140
f 140 162 141
f 143 163 164
f 143 164 144
f 144 164 145
f 145 164 165
f 145 165 146
f 148 166 150
f 148 150 149
f 150 166 151
f 151 167 152
f 151 166 176
f 151 176 167
f 153 168 154
f 154 168 155
f 157 161 169
f 157 169 170
f 157 170 171
f 163 172 173
f 163 173 164
f 164 173 174
f 164 174 175
f 164 175 165
f 172 178 179
f 172 179 174
f 172 174 173
f 174 179 180
f 174 180 181
f 174 181 175
f 175 181 182
f 177 184 185
f 178 186 180
f 178 180 179
f 180 186 187
f 180 187 188
f 180 188 189
f 180 189 190
f 180 190 181
f 181 190 182
f 182 190 191
f 183 192 193
f 184 194 185
f 185 194 195
f 187 196 188
f 188 196 197
f 188 197 198
f 188 198 199
f 188 199 189
f 189 199 191
f 189 191 190
f 192 200 201
f 192 201 202
f 192 202 193
f 192 203 198
f 192 198 204
f 192 204 205
f 192 205 206
f 192 206 195
f 192 195 207
f 192 207 208
f 192 208 209
f 192 209 210
f 192 210 200
f 194 211 195
f 195 211 208
f 195 208 207
f 197 204 198
f 198 203 212
f 198 212 199
f 199 212 213
f 203 213 212

