v 0.06780295 0.23512314 -0.07103926
v 0.06780295 0.23479899 -0.06644737
v 0.07239100 0.23485301 -0.07103926
v 0.14127370 0.23103082 -0.08481190
v 0.07239100 0.23483951 -0.07563114
v 0.07239100 0.23455589 -0.08022002
v 0.01962847 0.23436680 -0.06417250
v 0.06550894 0.23446133 -0.06417250
v 0.14812477 0.22542581 -0.06417250
v 0.14127370 0.23073368 -0.08295228
v 0.14307172 0.23073368 -0.08481190
v 0.14127370 0.23073368 -0.08675879
v 0.09536223 0.23311073 -0.09491344
v 0.09074319 0.23350241 -0.09399567
v 0.09074319 0.23361047 -0.08940378
v 0.07697905 0.23451537 -0.08022002
v -0.03338207 0.22267058 -0.09491344
v -0.04395317 0.22154959 -0.09491344
v -0.04699121 0.22138752 -0.09399567
v -0.05281927 0.22154959 -0.08940378
v -0.05616730 0.22154959 -0.08719510
v -0.06993144 0.22194126 -0.07563114
v -0.06993144 0.22342693 -0.06644737
v -0.06993144 0.22376458 -0.06417250
v 0.05859586 0.23200325 -0.09399567
v 0.05859586 0.23186820 -0.09491344
v 0.15044979 0.22492609 -0.06417250
v 0.14586175 0.22688446 -0.08940378
v 0.14127370 0.22988280 -0.08940378
v 0.15274383 0.22439936 -0.06417250
v 0.15965689 0.22241397 -0.06417250
v 0.16424492 0.22092830 -0.06417250
v 0.16483394 0.22071220 -0.06417250
v 0.16883298 0.21921305 -0.06417250
v 0.17029000 0.21855125 -0.06417250
v 0.17800907 0.21481008 -0.06417250
v 0.18194613 0.21236549 -0.06417250
v 0.09626124 0.23302971 -0.09491344
v 0.09074319 0.23335385 -0.09491344
v -0.04699121 0.22118492 -0.09491344
v -0.05157926 0.22082027 -0.09399567
v -0.06993144 0.22154959 -0.07743359
v -0.07228746 0.22154959 -0.07563114
v -0.07913853 0.22195477 -0.06644737
v -0.07222546 0.22341342 -0.06417250
v 0.14127370 0.22773535 -0.09399567
v 0.13668564 0.22869428 -0.09399567
v 0.18718515 0.20528834 -0.06417250
v 0.17996209 0.21236549 -0.06644737
v 0.13668564 0.22776236 -0.09491344
v -0.05064925 0.22072572 -0.09491344
v -0.05157926 0.22060417 -0.09491344
v -0.05616730 0.22002341 -0.09399567
v -0.07913853 0.21956420 -0.07563114
v -0.08831462 0.22019898 -0.06417250
v -0.07913853 0.22154959 -0.06859286
v -0.05616730 0.21976679 -0.09491344
v -0.05985634 0.21891591 -0.09491344
v -0.06075535 0.21895643 -0.09399567
v -0.07913853 0.22230593 -0.06417250
v -0.08109155 0.22154959 -0.06644737
v -0.08307557 0.22154959 -0.06417250
v 0.14279272 0.22614163 -0.09399567
v 0.14245172 0.22516921 -0.09491344
v 0.14127370 0.22631721 -0.09491344
v 0.18861118 0.20318140 -0.06417250
v 0.18718515 0.20318140 -0.06595689
v 0.17342103 0.20983987 -0.07563114
v -0.05523729 0.21995588 -0.09491344
v -0.06075535 0.21861877 -0.09491344
v -0.06515739 0.21695754 -0.09491344
v -0.07451948 0.21744375 -0.08481190
v -0.07560450 0.21695754 -0.08481190
v -0.08831462 0.21951017 -0.06644737
v -0.09057764 0.21938863 -0.06417250
v 0.15503783 0.21066374 -0.09399567
v 0.15280583 0.21205486 -0.09491344
v 0.18932420 0.19938620 -0.06417250
v 0.19930628 0.13431419 -0.07563114
v 0.19843828 0.13890623 -0.07563114
v 0.19639224 0.13890623 -0.07947677
v 0.18672016 0.20318140 -0.06644737
v 0.17490904 0.20777345 -0.07563114
v -0.06534340 0.21686300 -0.09491344
v -0.06903243 0.21495865 -0.09491344
v -0.07451948 0.21502617 -0.08940378
v -0.09290267 0.21695754 -0.06713646
v -0.09290267 0.21732221 -0.06644737
v -0.09569269 0.21695754 -0.06417250
v 0.15689787 0.20777345 -0.09399567
v 0.15503783 0.20919158 -0.09491344
v 0.19019220 0.19399731 -0.06417250
v 0.20098031 0.12754767 -0.07103926
v 0.20098031 0.12513009 -0.07500525
v 0.20005028 0.12972214 -0.07563114
v 0.20076330 0.12513009 -0.07563114
v 0.19639224 0.13427368 -0.08022002
v 0.19561726 0.13890623 -0.08022002
v 0.15801387 0.20292478 -0.09491344
v 0.15792087 0.20318140 -0.09491344
v -0.07312447 0.21236549 -0.09491344
v -0.07402348 0.21236549 -0.09399567
v -0.07851853 0.21236549 -0.08940378
v -0.09290267 0.21470203 -0.07103926
v -0.09975373 0.21447243 -0.06417250
v 0.15593685 0.20777345 -0.09491344
v 0.19682627 0.14032438 -0.06417250
v 0.19902729 0.12972214 -0.06644737
v 0.19958529 0.12513009 -0.06644737
v 0.20098031 0.12513009 -0.07035920
v 0.20113530 0.12513009 -0.07103926
v 0.20098031 0.12237488 -0.07103926
v 0.20067031 0.12053805 -0.07563114
v 0.19698126 0.12513009 -0.08022002
v 0.19639224 0.12972214 -0.08044269
v 0.15909888 0.19858935 -0.09491344
v 0.15885088 0.19993995 -0.09491344
v 0.15872688 0.20060174 -0.09491344
v -0.07451948 0.21116346 -0.09491344
v -0.07451948 0.21201434 -0.09399567
v -0.07913853 0.21187927 -0.08940378
v -0.10269877 0.21236549 -0.06417250
v -0.10207877 0.21282470 -0.06417250
v 0.19865529 0.12513009 -0.06417250
v 0.20082530 0.12053805 -0.07103926
v 0.19831428 0.12053805 -0.06417250
v 0.20001930 0.11594600 -0.07563114
v 0.19639224 0.12053805 -0.08022002
v 0.19639224 0.12513009 -0.08058712
v 0.19177322 0.12972214 -0.08259720
v 0.16129990 0.15727443 -0.09491344
v -0.07808452 0.20777345 -0.09491344
v -0.07913853 0.20777345 -0.09384821
v -0.10567480 0.20777345 -0.06644737
v -0.10207877 0.21109592 -0.06644737
v -0.10666681 0.20879990 -0.06417250
v 0.19958529 0.11594600 -0.07103926
v 0.19688827 0.11587847 -0.06417250
v 0.19099820 0.09714562 -0.06417250
v 0.19695027 0.11135395 -0.07563114
v 0.19639224 0.11135395 -0.07728915
v 0.19639224 0.11594600 -0.07949783
v 0.16170290 0.09714562 -0.09491344
v 0.16216791 0.10216986 -0.09491344
v 0.16247791 0.10565441 -0.09491344
v 0.16257092 0.10676191 -0.09491344
v 0.16278791 0.11135395 -0.09491344
v 0.16278791 0.11594600 -0.09491344
v 0.16275692 0.11694545 -0.09491344
v 0.16263292 0.12053805 -0.09491344
v -0.07820852 0.20762488 -0.09491344
v -0.07913853 0.20759787 -0.09399567
v -0.10666681 0.20650389 -0.06644737
v -0.10666681 0.20777345 -0.06531294
v -0.10765882 0.20777345 -0.06417250
v 0.18932420 0.09714562 -0.06613142
v -0.11556390 0.09714562 -0.06417250
v 0.18234911 0.09714562 -0.07403331
v 0.18089209 0.09714562 -0.07563114
v -0.08394358 0.09714562 -0.09491344
v -0.07913853 0.20615273 -0.09491344
v -0.10666681 0.20318140 -0.06853569
v -0.10865083 0.20318140 -0.06644737
v -0.10995284 0.20446447 -0.06417250
v -0.10815482 0.20713867 -0.06417250
v -0.08186655 0.20318140 -0.09399567
v -0.11395188 0.18940526 -0.06417250
v -0.10756582 0.18940526 -0.07103926
v -0.08372657 0.19399731 -0.09457642
v -0.08338557 0.19399731 -0.09491344
v -0.08341657 0.18975642 -0.09491344
v -0.08394358 0.09719965 -0.09491344
v -0.08096755 0.20318140 -0.09491344
v -0.11044884 0.19858935 -0.06644737
v -0.11252586 0.19858935 -0.06417250
v -0.11069684 0.20318140 -0.06417250
v -0.11367288 0.19391627 -0.06417250
v -0.11128586 0.19399731 -0.06672722
v -0.10719381 0.19399731 -0.07103926
v -0.08329257 0.19451053 -0.09491344
v -0.08149455 0.20131756 -0.09491344
v -0.11128586 0.19526687 -0.06644737
v -0.11299088 0.19691461 -0.06417250
v -0.11351788 0.19463209 -0.06417250
v -0.08313757 0.19511830 -0.09491344
f 1 2 3
f 1 3 4
f 1 4 5
f 1 5 6
f 1 6 7
f 1 7 2
f 2 8 9
f 2 9 10
f 2 10 4
f 2 4 3
f 2 7 8
f 4 10 11
f 4 11 12
f 4 12 13
f 4 13 14
f 4 14 15
f 4 15 16
f 4 16 5
f 5 16 6
f 6 16 14
f 6 14 7
f 7 17 18
f 7 18 19
f 7 19 20
f 7 20 21
f 7 21 22
f 7 22 23
f 7 23 24
f 7 24 45
f 7 45 60
f 7 60 62
f 7 62 55
f 7 55 75
f 7 75 89
f 7 89 105
f 7 105 123
f 7 123 122
f 7 122 136
f 7 136 155
f 7 155 165
f 7 165 164
f 7 164 176
f 7 176 175
f 7 175 183
f 7 183 184
f 7 184 177
f 7 177 167
f 7 167 157
f 7 157 139
f 7 139 138
f 7 138 126
f 7 126 124
f 7 124 107
f 7 107 92
f 7 92 78
f 7 78 66
f 7 66 48
f 7 48 37
f 7 37 36
f 7 36 35
f 7 35 34
f 7 34 33
f 7 33 32
f 7 32 31
f 7 31 30
f 7 30 27
f 7 27 9
f 7 9 8
f 7 14 25
f 7 25 26
f 7 26 17
f 9 27 11
f 9 11 10
f 11 28 29
f 11 29 12
f 11 27 30
f 11 30 31
f 11 31 32
f 11 32 33
f 11 33 34
f 11 34 35
f 11 35 36
f 11 36 37
f 11 37 28
f 12 29 38
f 12 38 13
f 13 38 50
f 13 50 65
f 13 65 64
f 13 64 77
f 13 77 91
f 13 91 106
f 13 106 100
f 13 100 99
f 13 99 118
f 13 118 117
f 13 117 116
f 13 116 131
f 13 131 150
f 13 150 149
f 13 149 148
f 13 148 147
f 13 147 146
f 13 146 145
f 13 145 144
f 13 144 143
f 13 143 160
f 13 160 172
f 13 172 171
f 13 171 170
f 13 170 180
f 13 180 185
f 13 185 181
f 13 181 173
f 13 173 161
f 13 161 151
f 13 151 132
f 13 132 119
f 13 119 101
f 13 101 85
f 13 85 84
f 13 84 71
f 13 71 70
f 13 70 58
f 13 58 57
f 13 57 69
f 13 69 52
f 13 52 51
f 13 51 40
f 13 40 18
f 13 18 17
f 13 17 26
f 13 26 39
f 13 39 14
f 14 39 26
f 14 26 25
f 14 16 15
f 18 40 19
f 19 40 41
f 19 41 20
f 20 41 21
f 21 41 22
f 22 41 42
f 22 42 43
f 22 43 44
f 22 44 23
f 23 44 45
f 23 45 24
f 28 46 29
f 28 37 46
f 29 46 47
f 29 47 38
f 37 48 49
f 37 49 46
f 38 47 50
f 40 51 41
f 41 51 52
f 41 52 42
f 42 53 43
f 42 52 53
f 43 54 55
f 43 55 56
f 43 56 44
f 43 53 57
f 43 57 58
f 43 58 59
f 43 59 54
f 44 60 45
f 44 56 61
f 44 61 62
f 44 62 60
f 46 49 63
f 46 63 64
f 46 64 65
f 46 65 50
f 46 50 47
f 48 66 67
f 48 67 49
f 49 67 68
f 49 68 63
f 52 69 53
f 53 69 57
f 54 59 70
f 54 70 71
f 54 71 72
f 54 72 73
f 54 73 74
f 54 74 55
f 55 62 61
f 55 61 56
f 55 74 75
f 58 70 59
f 63 76 64
f 63 68 76
f 64 76 77
f 66 78 79
f 66 79 80
f 66 80 81
f 66 81 67
f 67 81 82
f 67 82 83
f 67 83 68
f 68 83 76
f 71 84 73
f 71 73 72
f 73 84 85
f 73 85 86
f 73 86 87
f 73 87 88
f 73 88 74
f 74 88 89
f 74 89 75
f 76 90 91
f 76 91 77
f 76 83 90
f 78 92 93
f 78 93 94
f 78 94 79
f 79 94 95
f 79 95 81
f 79 81 80
f 81 95 96
f 81 96 97
f 81 97 98
f 81 98 99
f 81 99 82
f 82 99 100
f 82 100 90
f 82 90 83
f 85 101 86
f 86 101 102
f 86 102 103
f 86 103 104
f 86 104 87
f 87 104 105
f 87 105 89
f 87 89 88
f 90 100 106
f 90 106 91
f 92 107 108
f 92 108 93
f 93 108 109
f 93 109 110
f 93 110 111
f 93 111 94
f 94 111 112
f 94 112 113
f 94 113 96
f 94 96 95
f 96 113 114
f 96 114 97
f 97 114 115
f 97 115 116
f 97 116 98
f 98 116 117
f 98 117 118
f 98 118 99
f 101 119 120
f 101 120 102
f 102 120 103
f 103 120 121
f 103 121 122
f 103 122 123
f 103 123 104
f 104 123 105
f 107 124 109
f 107 109 108
f 109 125 110
f 109 124 126
f 109 126 125
f 110 125 112
f 110 112 111
f 112 125 113
f 113 127 128
f 113 128 114
f 113 125 127
f 114 128 129
f 114 129 115
f 115 129 130
f 115 130 116
f 116 130 131
f 119 132 133
f 119 133 120
f 120 133 121
f 121 133 134
f 121 134 135
f 121 135 122
f 122 135 136
f 125 126 137
f 125 137 127
f 126 138 137
f 127 137 139
f 127 139 140
f 127 140 141
f 127 141 142
f 127 142 128
f 128 142 143
f 128 143 129
f 129 143 144
f 129 144 145
f 129 145 146
f 129 146 147
f 129 147 130
f 130 147 148
f 130 148 149
f 130 149 150
f 130 150 131
f 132 151 133
f 133 151 152
f 133 152 134
f 134 153 154
f 134 154 136
f 134 136 135
f 134 152 153
f 136 154 155
f 137 138 139
f 139 156 141
f 139 141 140
f 139 157 160
f 139 160 143
f 139 143 159
f 139 159 158
f 139 158 156
f 141 156 158
f 141 158 159
f 141 159 143
f 141 143 142
f 151 161 152
f 152 161 153
f 153 162 163
f 153 163 164
f 153 164 165
f 153 165 154
f 153 161 166
f 153 166 162
f 154 165 155
f 157 167 168
f 157 168 169
f 157 169 170
f 157 170 171
f 157 171 172
f 157 172 160
f 161 173 166
f 162 174 163
f 162 166 174
f 163 174 175
f 163 175 176
f 163 176 164
f 166 173 174
f 167 177 168
f 168 177 178
f 168 178 179
f 168 179 169
f 169 180 170
f 169 179 180
f 173 181 174
f 174 179 182
f 174 182 183
f 174 183 175
f 174 181 179
f 177 184 182
f 177 182 178
f 178 182 179
f 179 185 180
f 179 181 185
f 182 184 183

