v -0.19938322 -0.06316656 0.05144332
v -0.19845455 -0.06316656 0.05296433
v -0.19845455 -0.05857918 0.05296433
v -0.19936535 -0.05857918 0.05144332
v -0.19902604 -0.21011197 0.05144332
v -0.19852599 -0.21011197 0.05226347
v -0.19529346 -0.06316656 0.05755716
v -0.19531133 -0.05510131 0.05755716
v -0.19836524 -0.05510131 0.05296433
v -0.19925820 -0.05510131 0.05144332
v -0.19895460 -0.21928672 0.05144332
v -0.19852599 -0.21928672 0.05215908
v -0.19797234 -0.21928672 0.05296433
v -0.19802592 -0.21011197 0.05296433
v -0.19393618 -0.05510131 0.05945096
v -0.19498986 -0.05510131 0.05800452
v -0.01693370 -0.05510131 0.05144332
v -0.19863313 -0.22387409 0.05144332
v -0.19722226 -0.24224494 0.05144332
v -0.15260999 -0.25602841 0.10660213
v -0.19427548 -0.21928672 0.05755716
v -0.15260999 -0.10910434 0.11152303
v -0.15260999 -0.08153740 0.11197038
v -0.19184664 -0.05510131 0.06215000
v -0.19341825 -0.05510131 0.06012199
v -0.01693370 -0.26219469 0.05144332
v -0.01693370 -0.05510131 0.19777297
v -0.19695438 -0.24401588 0.05144332
v -0.15260999 -0.24685366 0.10698984
v -0.15260999 -0.26061578 0.10523024
v -0.14802018 -0.26061578 0.11012132
v -0.14085865 -0.26061578 0.11724916
v -0.15105625 -0.25602841 0.10806349
v -0.12964307 -0.08153740 0.13770817
v -0.15452092 -0.15960816 0.10806349
v -0.15168132 -0.10910434 0.11265633
v -0.15205636 -0.08153740 0.11265633
v -0.15260999 -0.07695002 0.11197038
v -0.15260999 -0.07236265 0.11194055
v -0.15260999 -0.06777527 0.11180635
v -0.15260999 -0.05857918 0.11152303
v -0.15260999 -0.05510131 0.11138882
v -0.01693370 -0.26637667 0.18153399
v -0.02404166 -0.27273499 0.19071967
v -0.06995764 -0.27220158 0.14479129
v -0.12046344 -0.27307638 0.11724916
v -0.16637943 -0.26857435 0.05144332
v -0.02066627 -0.05510131 0.19990535
v -0.01693370 -0.06619636 0.19875716
v -0.19409689 -0.25602841 0.05144332
v -0.15260999 -0.15960816 0.11034499
v -0.14802018 -0.26345356 0.10806349
v -0.15518171 -0.26520316 0.09887780
v -0.13884055 -0.26257875 0.11724916
v -0.10671186 -0.26176796 0.14479129
v -0.09751438 -0.25888751 0.15397696
v -0.09878238 -0.25602841 0.15397696
v -0.10671186 -0.25144104 0.14808680
v -0.12505326 -0.12286646 0.13946777
v -0.12655343 -0.07236265 0.14019845
v -0.12964307 -0.07695002 0.13772309
v -0.13169687 -0.05857918 0.13560561
v -0.15141343 -0.12286646 0.11265633
v -0.05159840 -0.21011197 0.19526779
v -0.05159840 -0.20091587 0.19556601
v -0.04700858 -0.19632850 0.19915976
v -0.13157186 -0.05510131 0.13560561
v -0.01693370 -0.26637667 0.19071967
v -0.02404166 -0.26520316 0.19986061
v -0.03322129 -0.26520316 0.19871241
v -0.03322129 -0.27085736 0.19071967
v -0.12505326 -0.27218024 0.11724916
v -0.18016674 -0.26646202 0.05144332
v -0.17286232 -0.26782756 0.05144332
v -0.16637943 -0.26872370 0.05296433
v -0.02121991 -0.05510131 0.20014394
v -0.02404166 -0.06316656 0.20191845
v -0.01954114 -0.06316656 0.19990535
v -0.01945185 -0.06316656 0.19986061
v -0.01693370 -0.07044235 0.19902556
v -0.19109656 -0.26031706 0.05144332
v -0.15260999 -0.26520316 0.10165140
v -0.14568062 -0.26520316 0.10806349
v -0.15260999 -0.26733682 0.09887780
v -0.18934636 -0.26232270 0.05144332
v -0.18920348 -0.26245073 0.05144332
v -0.10297930 -0.26520316 0.14479129
v -0.09751438 -0.26520316 0.14944377
v -0.03322129 -0.26264276 0.19990535
v -0.03438213 -0.26061578 0.19990535
v -0.04700858 -0.21928672 0.19735544
v -0.12646413 -0.05857918 0.14019845
v -0.12964307 -0.05857918 0.13778273
v -0.04499049 -0.21011197 0.19990535
v -0.04700858 -0.20091587 0.19905537
v -0.04565128 -0.19632850 0.19990535
v -0.04574058 -0.17795765 0.19990535
v -0.04700858 -0.17795765 0.19907029
v -0.12964307 -0.05510131 0.13764853
v -0.01693370 -0.26520316 0.19212139
v -0.02404166 -0.26486177 0.19990535
v -0.03322129 -0.25602841 0.20093427
v -0.01945185 -0.25602841 0.19766859
v -0.01693370 -0.22848282 0.19974133
v -0.01716587 -0.22848282 0.19990535
v -0.03531081 -0.26981188 0.19071967
v -0.18173835 -0.26612064 0.05144332
v -0.02404166 -0.05510131 0.20127724
v -0.03209615 -0.05510131 0.20248510
v -0.02404166 -0.07236265 0.20242546
v -0.01841602 -0.07236265 0.19990535
v -0.01796953 -0.07695002 0.19990535
v -0.01693370 -0.07543513 0.19927906
v -0.18657819 -0.26456307 0.05144332
v -0.18475655 -0.26518182 0.05144332
v -0.03782895 -0.23307019 0.20126233
v -0.03536439 -0.25602841 0.19990535
v -0.05159840 -0.05510131 0.19411957
v -0.12624982 -0.05510131 0.14019845
v -0.12887512 -0.05510131 0.13823008
v -0.05111620 -0.09990824 0.19531253
v -0.04241877 -0.21011197 0.20111322
v -0.04241877 -0.19632850 0.20141144
v -0.04241877 -0.18254504 0.20165003
v -0.04241877 -0.11827909 0.20074042
v -0.04391894 -0.11369171 0.19990535
v -0.04700858 -0.09990824 0.19799665
v -0.01693370 -0.25602841 0.19456692
v -0.01743376 -0.25602841 0.19531253
v -0.02404166 -0.23307019 0.20220177
v -0.03322129 -0.23307019 0.20267896
v -0.01945185 -0.22848282 0.20094918
v -0.01693370 -0.23307019 0.19893609
v -0.01693370 -0.19174112 0.20008430
v -0.01945185 -0.19174112 0.20130707
v -0.03322129 -0.05510131 0.20257457
v -0.03322129 -0.09073349 0.20337981
v -0.02404166 -0.08153740 0.20255966
v -0.01757663 -0.08153740 0.19990535
v -0.01693370 -0.08153740 0.19951765
v -0.04977676 -0.05510131 0.19531253
v -0.03322129 -0.21928672 0.20311139
v -0.03322129 -0.21011197 0.20336490
v -0.03322129 -0.19174112 0.20361840
v -0.03322129 -0.18254504 0.20367804
v -0.03322129 -0.11827909 0.20378243
v -0.03775752 -0.05510131 0.20154566
v -0.04202587 -0.05510131 0.19990535
v -0.04241877 -0.10449562 0.20051673
v -0.04241877 -0.05510131 0.19971151
v -0.04700858 -0.05510131 0.19705721
v -0.01693370 -0.25513227 0.19480552
v -0.02404166 -0.22848282 0.20247019
v -0.01693370 -0.08879186 0.19956238
v -0.01748734 -0.09073349 0.19990535
v -0.02404166 -0.19174112 0.20279825
v -0.02404166 -0.09073349 0.20261932
f 1 2 3
f 1 3 4
f 1 4 10
f 1 10 17
f 1 17 26
f 1 26 47
f 1 47 74
f 1 74 73
f 1 73 107
f 1 107 115
f 1 115 114
f 1 114 86
f 1 86 85
f 1 85 81
f 1 81 50
f 1 50 28
f 1 28 19
f 1 19 18
f 1 18 11
f 1 11 5
f 1 5 6
f 1 6 2
f 2 7 8
f 2 8 3
f 2 6 7
f 3 8 9
f 3 9 4
f 4 9 10
f 5 11 12
f 5 12 6
f 6 12 13
f 6 13 14
f 6 14 7
f 7 15 16
f 7 16 8
f 7 14 15
f 8 16 15
f 8 15 25
f 8 25 24
f 8 24 42
f 8 42 67
f 8 67 99
f 8 99 120
f 8 120 119
f 8 119 118
f 8 118 141
f 8 141 151
f 8 151 150
f 8 150 148
f 8 148 147
f 8 147 136
f 8 136 109
f 8 109 108
f 8 108 76
f 8 76 48
f 8 48 27
f 8 27 17
f 8 17 10
f 8 10 9
f 11 18 12
f 12 18 19
f 12 19 13
f 13 19 20
f 13 20 21
f 13 21 22
f 13 22 23
f 13 23 24
f 13 24 25
f 13 25 15
f 13 15 14
f 17 27 49
f 17 49 80
f 17 80 113
f 17 113 140
f 17 140 154
f 17 154 134
f 17 134 104
f 17 104 133
f 17 133 152
f 17 152 128
f 17 128 100
f 17 100 68
f 17 68 43
f 17 43 26
f 19 28 20
f 20 29 21
f 20 28 30
f 20 30 31
f 20 31 32
f 20 32 33
f 20 33 34
f 20 34 29
f 21 29 35
f 21 35 22
f 22 35 36
f 22 36 37
f 22 37 23
f 23 37 38
f 23 38 24
f 24 38 39
f 24 39 40
f 24 40 41
f 24 41 42
f 26 43 44
f 26 44 45
f 26 45 46
f 26 46 47
f 27 48 49
f 28 50 30
f 29 34 51
f 29 51 35
f 30 52 31
f 30 50 53
f 30 53 52
f 31 52 32
f 32 52 54
f 32 54 55
f 32 55 56
f 32 56 57
f 32 57 58
f 32 58 59
f 32 59 34
f 32 34 33
f 34 60 61
f 34 61 62
f 34 62 37
f 34 37 36
f 34 36 63
f 34 63 51
f 34 59 64
f 34 64 65
f 34 65 66
f 34 66 60
f 35 51 63
f 35 63 36
f 37 62 39
f 37 39 38
f 39 62 40
f 40 62 41
f 41 62 42
f 42 62 67
f 43 68 44
f 44 68 69
f 44 69 70
f 44 70 71
f 44 71 72
f 44 72 46
f 44 46 45
f 46 72 73
f 46 73 74
f 46 74 75
f 46 75 47
f 47 75 74
f 48 76 77
f 48 77 78
f 48 78 79
f 48 79 49
f 49 79 80
f 50 81 53
f 52 53 82
f 52 82 83
f 52 83 54
f 53 84 82
f 53 81 85
f 53 85 86
f 53 86 84
f 54 83 72
f 54 72 87
f 54 87 88
f 54 88 55
f 55 88 56
f 56 89 90
f 56 90 57
f 56 88 70
f 56 70 89
f 57 90 91
f 57 91 64
f 57 64 58
f 58 64 59
f 60 92 93
f 60 93 61
f 60 66 92
f 61 93 62
f 62 93 67
f 64 91 94
f 64 94 95
f 64 95 65
f 65 95 66
f 66 95 96
f 66 96 97
f 66 97 98
f 66 98 92
f 67 93 99
f 68 100 69
f 69 101 102
f 69 102 89
f 69 89 70
f 69 100 103
f 69 103 104
f 69 104 105
f 69 105 101
f 70 88 106
f 70 106 71
f 71 106 72
f 72 84 107
f 72 107 73
f 72 106 88
f 72 88 87
f 72 83 84
f 76 108 77
f 77 108 109
f 77 109 110
f 77 110 78
f 78 110 111
f 78 111 79
f 79 111 80
f 80 111 112
f 80 112 113
f 82 84 83
f 84 86 114
f 84 114 115
f 84 115 107
f 89 102 90
f 90 102 116
f 90 116 117
f 90 117 91
f 91 117 94
f 92 118 119
f 92 119 120
f 92 120 99
f 92 99 93
f 92 98 121
f 92 121 118
f 94 122 96
f 94 96 95
f 94 117 116
f 94 116 122
f 96 122 123
f 96 123 124
f 96 124 97
f 97 124 125
f 97 125 126
f 97 126 127
f 97 127 121
f 97 121 98
f 100 128 129
f 100 129 103
f 101 130 131
f 101 131 102
f 101 105 132
f 101 132 130
f 102 131 116
f 103 129 133
f 103 133 104
f 104 134 105
f 105 134 135
f 105 135 132
f 109 136 110
f 110 137 138
f 110 138 139
f 110 139 112
f 110 112 111
f 110 136 137
f 112 139 113
f 113 139 140
f 116 131 122
f 118 121 141
f 121 127 141
f 122 142 143
f 122 143 123
f 122 131 142
f 123 143 124
f 124 143 144
f 124 144 145
f 124 145 146
f 124 146 147
f 124 147 125
f 125 147 148
f 125 148 149
f 125 149 126
f 126 149 150
f 126 150 127
f 127 150 151
f 127 151 141
f 128 152 129
f 129 152 133
f 130 132 153
f 130 153 131
f 131 153 142
f 132 135 153
f 134 154 155
f 134 155 135
f 135 156 153
f 135 155 139
f 135 139 157
f 135 157 156
f 136 147 137
f 137 147 146
f 137 146 138
f 138 146 157
f 138 157 139
f 139 155 154
f 139 154 140
f 142 153 143
f 143 153 144
f 144 156 145
f 144 153 156
f 145 156 146
f 146 156 157
f 148 150 149

