v 0.08250886 0.22530501 0.00505108
v -0.10193599 0.22530501 0.00505108
v 0.07931641 0.22530501 0.00938779
v 0.06776618 0.22466522 0.06672735
v 0.07235758 0.22462759 0.06213155
v 0.11368011 0.22435160 0.01622289
v 0.10908871 0.22427632 0.00505108
v -0.15057604 0.21965979 0.00505108
v -0.15850338 0.22155407 0.02540215
v -0.15254891 0.22236949 0.03458759
v -0.12066025 0.22530501 0.06806599
v 0.02181639 0.22530501 0.06806599
v 0.06776618 0.22458995 0.06806599
v 0.07106624 0.22433905 0.06806599
v 0.07235758 0.22432651 0.06672735
v 0.11368011 0.22381216 0.02081252
v 0.13348049 0.22193041 0.00505108
v 0.12454879 0.22336055 0.00505108
v 0.12286289 0.22352362 0.00505108
v -0.15254891 0.21934616 0.00505108
v -0.16176757 0.21986050 0.01622289
v -0.15957947 0.22101463 0.02246578
v -0.18472454 0.21817947 0.03917722
v -0.18013314 0.21909526 0.04377302
v -0.16108603 0.22155407 0.03458759
v -0.16126539 0.22155407 0.03856033
v -0.16144474 0.22155407 0.04377302
v -0.15717617 0.22058811 0.06213155
v -0.15717617 0.21998594 0.06672735
v -0.15584898 0.21986050 0.06806599
v 0.07235758 0.22405051 0.06806599
v 0.07694897 0.22327273 0.06672735
v 0.13545334 0.22155407 0.00505108
v -0.15975884 0.21756477 0.00505108
v -0.18472454 0.21696261 0.03217556
v -0.18472454 0.21807912 0.03856033
v -0.18490388 0.21802893 0.03856033
v -0.18752241 0.21696261 0.03917722
v -0.18472454 0.21806657 0.04377302
v -0.18013314 0.21855582 0.04836265
v -0.16176757 0.22150389 0.03917722
v -0.15717617 0.21944651 0.06806599
v -0.17095035 0.21859346 0.05754192
v -0.17095035 0.21696261 0.06204519
v 0.07562177 0.22329782 0.06806599
v 0.07694897 0.22283366 0.06806599
v 0.08613175 0.22155407 0.06185395
v 0.14323719 0.21888198 0.00505108
v 0.13746209 0.22087664 0.00505108
v -0.17019708 0.21234606 0.00505108
v -0.17098622 0.21307368 0.00703746
v -0.17098622 0.21545721 0.01162709
v -0.17557762 0.21534430 0.01622289
v -0.17098622 0.21696261 0.01603782
v -0.18931592 0.21356293 0.02999795
v -0.18931592 0.21529413 0.03458759
v -0.18594412 0.21696261 0.03458759
v -0.18734305 0.21696261 0.03856033
v -0.18888548 0.21620991 0.03856033
v -0.18931592 0.21608447 0.03917722
v -0.18354082 0.21696261 0.04836265
v -0.18931592 0.21506833 0.04377302
v -0.16327412 0.21657372 0.06806599
v -0.17095035 0.21371346 0.06672735
v -0.17554174 0.21429052 0.06213155
v -0.17335367 0.21235860 0.06672735
v 0.08032077 0.22155407 0.06806599
v 0.08613175 0.22144116 0.06213155
v 0.14786445 0.21696261 0.00505108
v -0.17062751 0.21204499 0.00505108
v -0.17557762 0.21016324 0.00703746
v -0.17224169 0.21234606 0.00703746
v -0.17557762 0.21308621 0.01162709
v -0.18016900 0.21234606 0.01586509
v -0.18016900 0.21001270 0.01162709
v -0.18931592 0.21234606 0.02780801
v -0.19261599 0.20775460 0.02540215
v -0.19301056 0.21234606 0.03458759
v -0.18931592 0.21598410 0.03856033
v -0.18981811 0.21559522 0.03856033
v -0.19365622 0.21235860 0.03917722
v -0.18472454 0.21599665 0.04836265
v -0.19214967 0.21235860 0.04377302
v -0.18877786 0.21235860 0.04836265
v -0.17095035 0.21272241 0.06806599
v -0.17159601 0.21235860 0.06806599
v -0.17554174 0.21235860 0.06462993
v -0.17263626 0.21174391 0.06806599
v -0.17554174 0.21051450 0.06672735
v 0.08480455 0.21886944 0.06806599
v 0.08613175 0.21886944 0.06672735
v 0.09075901 0.21878163 0.06213155
v 0.15041124 0.21554503 0.00505108
v -0.17529065 0.20820621 0.00505108
v -0.17597218 0.20761661 0.00505108
v -0.17830376 0.20775460 0.00703746
v -0.17557762 0.21234606 0.01036247
v -0.17676133 0.21234606 0.01162709
v -0.18260818 0.20775460 0.01162709
v -0.18476040 0.20775460 0.01402677
v -0.18476040 0.20913455 0.01622289
v -0.18633869 0.20775460 0.01622289
v -0.18935180 0.20415419 0.01622289
v -0.19390731 0.20612376 0.02540215
v -0.19849871 0.20316314 0.03269374
v -0.19849871 0.20384057 0.03458759
v -0.19358448 0.21235860 0.03856033
v -0.19853457 0.20345169 0.03856033
v -0.19853457 0.20317568 0.04119443
v -0.19778131 0.20317568 0.04377302
v -0.19555735 0.20317568 0.04836265
v -0.17787330 0.20776714 0.06672735
v -0.19390731 0.20317568 0.05058961
v -0.17554174 0.20912200 0.06806599
v 0.08699264 0.21696261 0.06806599
v 0.08842745 0.21696261 0.06672735
v 0.15245585 0.21421526 0.00505108
v -0.18002552 0.20316314 0.00505108
v -0.18016900 0.20570977 0.00703746
v -0.18476040 0.20568467 0.01162709
v -0.18935180 0.20316314 0.01531607
v -0.19304643 0.20316314 0.02081252
v -0.18666152 0.20316314 0.01162709
v -0.19394318 0.20340151 0.02246578
v -0.19584430 0.20316314 0.02540215
v -0.19849871 0.19676521 0.02540215
v -0.20187051 0.19400532 0.03458759
v -0.19874980 0.20316314 0.03458759
v -0.19864218 0.20316314 0.03856033
v -0.19853457 0.20143193 0.04377302
v -0.20140419 0.19400532 0.03856033
v -0.20075853 0.19400532 0.04377302
v -0.19853457 0.19858422 0.04641946
v -0.19756608 0.19858422 0.04836265
v -0.19437363 0.19858422 0.05295228
v -0.17776570 0.20643739 0.06806599
v -0.17719178 0.20716499 0.06806599
v -0.17668960 0.20776714 0.06806599
v -0.19390731 0.19953765 0.05295228
v -0.17934399 0.20382803 0.06806599
v 0.08939594 0.21422781 0.06806599
v 0.09075901 0.21425290 0.06672735
v 0.15453632 0.21234606 0.00505108
v 0.15428523 0.21262205 0.00505108
v -0.18016900 0.20277425 0.00505108
v -0.18016900 0.20316314 0.00518063
v -0.18476040 0.20316314 0.00967156
v -0.19326165 0.19400532 0.01622289
v -0.19394318 0.20316314 0.02221902
v -0.18935180 0.19400532 0.01170728
v -0.19849871 0.19400532 0.02421156
v -0.19907263 0.19400532 0.02540215
v -0.20366403 0.18480986 0.03458759
v -0.20269552 0.18480986 0.04377302
v -0.19853457 0.19502147 0.04836265
v -0.19577256 0.19400532 0.05295228
v -0.19390731 0.19400532 0.05537664
v -0.19390731 0.19858422 0.05351365
v -0.17966682 0.20317568 0.06806599
v 0.08975465 0.21371346 0.06806599
v 0.15500263 0.21158081 0.00505108
v 0.09197860 0.21235860 0.06672735
v -0.18153207 0.19834588 0.00505108
v -0.18278753 0.19400532 0.00505108
v -0.19362035 0.18940132 0.01622289
v -0.19853457 0.18480986 0.02218201
v -0.19853457 0.18610199 0.02246578
v -0.18935180 0.18940132 0.01165176
v -0.19376383 0.18480986 0.01622289
v -0.20036396 0.18480986 0.02540215
v -0.20434555 0.17560184 0.03458759
v -0.20352054 0.17561439 0.04377302
v -0.19853457 0.18480986 0.05121266
v -0.19853457 0.18940132 0.05023798
v -0.19853457 0.19400532 0.04876363
v -0.19648996 0.18940132 0.05295228
v -0.19390731 0.18940132 0.05618477
v -0.19272359 0.18940132 0.05754192
v -0.19200619 0.19400532 0.05754192
v -0.18128098 0.19858422 0.06806599
v 0.09057966 0.21235860 0.06806599
v 0.09075901 0.21235860 0.06791794
v 0.15697550 0.20774205 0.00505108
v 0.15909185 0.20316314 0.00505108
v 0.15866140 0.20414166 0.00505108
v -0.18278753 0.19139596 0.00505108
v -0.19853457 0.17560184 0.02175636
v -0.20075853 0.17560184 0.02540215
v -0.18935180 0.09714562 0.01197254
v -0.19376383 0.18021840 0.01622289
v -0.20459664 0.13431636 0.03458759
v -0.20434555 0.13035215 0.03856033
v -0.20334120 0.12513344 0.02999795
v -0.20427381 0.12972490 0.03917722
v -0.20427381 0.12513344 0.03917722
v -0.20265966 0.09714562 0.04377302
v -0.20039984 0.09714562 0.04836265
v -0.19770956 0.09714562 0.05295228
v -0.19853457 0.17561439 0.05197760
v -0.19709976 0.18480986 0.05295228
v -0.19293882 0.18480986 0.05754192
v -0.18834742 0.18940132 0.06213155
v -0.18203426 0.19400532 0.06806599
v 0.09075901 0.21196972 0.06806599
v 0.09535041 0.20776714 0.06522831
v 0.15704724 0.20316314 0.00703746
v 0.15941468 0.20222227 0.00505108
v -0.18192664 0.09714562 0.00505108
v -0.18476040 0.09757214 0.00759265
v -0.18902896 0.09714562 0.01165793
v -0.19853457 0.09714562 0.02178720
v -0.20111724 0.09714562 0.02540215
v -0.19344100 0.09714562 0.01622289
v -0.19548561 0.09714562 0.01841900
v -0.20459664 0.12513344 0.03458759
v -0.20323358 0.11137162 0.02999795
v -0.20434555 0.09714562 0.03458759
v -0.20352054 0.09714562 0.03946716
v -0.19469646 0.09714562 0.05767146
v -0.19179096 0.09714562 0.06184161
v -0.19136053 0.09714562 0.06239681
v -0.18931592 0.09714562 0.06487669
v -0.18931592 0.10675507 0.06462993
v -0.18737893 0.11135907 0.06672735
v -0.18264405 0.18940132 0.06806599
v 0.09226556 0.20776714 0.06806599
v 0.10485603 0.13890782 0.06806599
v 0.10629084 0.13890782 0.06672735
v 0.15851791 0.19857169 0.00703746
v 0.16052666 0.19857169 0.00505108
v -0.18476040 0.09714562 0.00759882
v 0.16185385 0.09714562 0.00505108
v -0.20251617 0.09714562 0.02902327
v -0.20312597 0.09714562 0.03068270
v -0.18734305 0.09714562 0.06700495
v -0.18759416 0.09757214 0.06672735
v -0.18630281 0.09714562 0.06806599
v -0.18605172 0.11135907 0.06806599
v 0.10485603 0.12052943 0.06806599
v 0.11827149 0.11595053 0.05436495
v 0.10908871 0.13890782 0.06386499
v 0.15912771 0.19400532 0.00703746
v 0.16099298 0.19400532 0.00505108
v 0.16181799 0.11137162 0.00505108
v 0.13656532 0.14811583 0.03458759
v 0.12802820 0.11135907 0.04377302
v 0.12092590 0.09714562 0.05010227
v 0.10403101 0.09714562 0.06806599
v 0.10482015 0.11595053 0.06806599
v 0.11949109 0.11135907 0.05295228
v 0.12286289 0.11135907 0.04941136
v 0.11959869 0.11595053 0.05295228
v 0.13208154 0.14810328 0.03936228
v 0.13283483 0.14810328 0.03856033
v 0.14585572 0.16185257 0.02350831
v 0.11830737 0.09714562 0.05295228
v 0.11873781 0.10216360 0.05295228
f 1 2 11
f 1 11 12
f 1 12 3
f 1 3 4
f 1 4 5
f 1 5 6
f 1 6 7
f 1 7 19
f 1 19 18
f 1 18 17
f 1 17 33
f 1 33 49
f 1 49 48
f 1 48 69
f 1 69 93
f 1 93 117
f 1 117 144
f 1 144 143
f 1 143 161
f 1 161 183
f 1 183 185
f 1 185 184
f 1 184 207
f 1 207 230
f 1 230 243
f 1 243 244
f 1 244 232
f 1 232 208
f 1 208 186
f 1 186 164
f 1 164 163
f 1 163 145
f 1 145 118
f 1 118 95
f 1 95 94
f 1 94 70
f 1 70 50
f 1 50 34
f 1 34 20
f 1 20 8
f 1 8 2
f 2 8 9
f 2 9 10
f 2 10 11
f 3 12 4
f 4 12 13
f 4 13 5
f 5 13 14
f 5 14 15
f 5 15 6
f 6 16 17
f 6 17 18
f 6 18 19
f 6 19 7
f 6 15 16
f 8 20 21
f 8 21 22
f 8 22 9
f 9 22 23
f 9 23 24
f 9 24 25
f 9 25 10
f 10 25 26
f 10 26 27
f 10 27 11
f 11 27 24
f 11 24 28
f 11 28 29
f 11 29 30
f 11 30 42
f 11 42 63
f 11 63 85
f 11 85 86
f 11 86 88
f 11 88 114
f 11 114 138
f 11 138 137
f 11 137 136
f 11 136 140
f 11 140 159
f 11 159 180
f 11 180 203
f 11 203 225
f 11 225 238
f 11 238 237
f 11 237 248
f 11 248 249
f 11 249 239
f 11 239 227
f 11 227 226
f 11 226 204
f 11 204 181
f 11 181 160
f 11 160 141
f 11 141 115
f 11 115 90
f 11 90 67
f 11 67 46
f 11 46 45
f 11 45 31
f 11 31 14
f 11 14 13
f 11 13 12
f 14 31 15
f 15 31 32
f 15 32 16
f 16 33 17
f 16 32 33
f 20 34 21
f 21 34 35
f 21 35 36
f 21 36 23
f 21 23 22
f 23 36 37
f 23 37 38
f 23 38 39
f 23 39 24
f 24 39 40
f 24 40 28
f 24 27 41
f 24 41 25
f 25 41 26
f 26 41 27
f 28 40 29
f 29 42 30
f 29 40 43
f 29 43 44
f 29 44 42
f 31 45 32
f 32 45 46
f 32 46 47
f 32 47 48
f 32 48 49
f 32 49 33
f 34 50 51
f 34 51 52
f 34 52 53
f 34 53 54
f 34 54 35
f 35 55 56
f 35 56 57
f 35 57 37
f 35 37 36
f 35 54 53
f 35 53 55
f 37 57 58
f 37 58 38
f 38 58 59
f 38 59 60
f 38 60 39
f 39 61 40
f 39 60 62
f 39 62 61
f 40 61 44
f 40 44 43
f 42 44 63
f 44 64 63
f 44 61 65
f 44 65 66
f 44 66 64
f 46 67 47
f 47 67 68
f 47 68 69
f 47 69 48
f 50 70 71
f 50 71 72
f 50 72 51
f 51 72 73
f 51 73 52
f 52 73 53
f 53 73 74
f 53 74 55
f 55 74 75
f 55 75 76
f 55 76 77
f 55 77 78
f 55 78 56
f 56 79 59
f 56 59 57
f 56 78 80
f 56 80 79
f 57 59 58
f 59 79 60
f 60 79 80
f 60 80 81
f 60 81 62
f 61 62 82
f 61 82 65
f 62 81 83
f 62 83 84
f 62 84 82
f 63 64 85
f 64 66 86
f 64 86 85
f 65 87 66
f 65 82 84
f 65 84 87
f 66 88 86
f 66 87 89
f 66 89 88
f 67 90 91
f 67 91 92
f 67 92 93
f 67 93 68
f 68 93 69
f 70 94 71
f 71 95 96
f 71 96 75
f 71 75 97
f 71 97 72
f 71 94 95
f 72 97 73
f 73 97 98
f 73 98 74
f 74 98 75
f 75 98 97
f 75 96 99
f 75 99 100
f 75 100 101
f 75 101 76
f 76 101 102
f 76 102 77
f 77 102 103
f 77 103 104
f 77 104 78
f 78 104 105
f 78 105 106
f 78 106 107
f 78 107 80
f 80 107 81
f 81 107 106
f 81 106 108
f 81 108 109
f 81 109 110
f 81 110 83
f 83 110 111
f 83 111 84
f 84 112 89
f 84 89 87
f 84 111 113
f 84 113 112
f 88 89 114
f 89 112 114
f 90 115 116
f 90 116 91
f 91 116 117
f 91 117 92
f 92 117 93
f 95 118 119
f 95 119 96
f 96 119 120
f 96 120 99
f 99 120 100
f 100 120 103
f 100 103 102
f 100 102 101
f 103 121 122
f 103 122 104
f 103 120 123
f 103 123 121
f 104 124 125
f 104 125 105
f 104 122 124
f 105 125 126
f 105 126 127
f 105 127 128
f 105 128 106
f 106 128 129
f 106 129 108
f 108 129 109
f 109 130 110
f 109 129 127
f 109 127 131
f 109 131 132
f 109 132 130
f 110 130 133
f 110 133 111
f 111 133 134
f 111 134 135
f 111 135 113
f 112 113 136
f 112 136 137
f 112 137 138
f 112 138 114
f 113 135 139
f 113 139 140
f 113 140 136
f 115 141 116
f 116 141 142
f 116 142 143
f 116 143 144
f 116 144 117
f 118 145 146
f 118 146 119
f 119 146 147
f 119 147 120
f 120 147 123
f 121 148 126
f 121 126 122
f 121 123 148
f 122 126 149
f 122 149 124
f 123 150 148
f 123 147 150
f 124 149 125
f 125 149 126
f 126 148 151
f 126 151 152
f 126 152 127
f 127 129 128
f 127 152 153
f 127 153 154
f 127 154 131
f 130 132 133
f 131 154 132
f 132 154 155
f 132 155 133
f 133 155 134
f 134 155 156
f 134 156 135
f 135 156 157
f 135 157 158
f 135 158 159
f 135 159 139
f 139 159 140
f 141 160 142
f 142 160 143
f 143 160 162
f 143 162 161
f 145 163 147
f 145 147 146
f 147 163 164
f 147 164 150
f 148 150 165
f 148 165 166
f 148 166 167
f 148 167 151
f 150 168 169
f 150 169 165
f 150 164 168
f 151 167 170
f 151 170 152
f 152 170 153
f 153 171 172
f 153 172 154
f 153 170 171
f 154 172 173
f 154 173 174
f 154 174 175
f 154 175 155
f 155 175 156
f 156 176 157
f 156 175 174
f 156 174 173
f 156 173 176
f 157 176 173
f 157 173 177
f 157 177 178
f 157 178 179
f 157 179 180
f 157 180 159
f 157 159 158
f 160 181 182
f 160 182 162
f 161 162 183
f 162 182 184
f 162 184 185
f 162 185 183
f 164 186 168
f 165 169 187
f 165 187 166
f 166 187 188
f 166 188 170
f 166 170 167
f 168 186 189
f 168 189 190
f 168 190 169
f 169 190 187
f 170 188 171
f 171 191 192
f 171 192 172
f 171 188 193
f 171 193 191
f 172 192 194
f 172 194 195
f 172 195 196
f 172 196 197
f 172 197 198
f 172 198 199
f 172 199 173
f 173 199 200
f 173 200 177
f 177 200 178
f 178 201 202
f 178 202 203
f 178 203 179
f 178 200 199
f 178 199 201
f 179 203 180
f 181 204 182
f 182 204 205
f 182 205 184
f 184 205 206
f 184 206 207
f 186 208 209
f 186 209 210
f 186 210 189
f 187 190 211
f 187 211 212
f 187 212 188
f 188 212 193
f 189 213 190
f 189 210 231
f 189 231 208
f 189 208 232
f 189 232 247
f 189 247 256
f 189 256 248
f 189 248 237
f 189 237 235
f 189 235 222
f 189 222 221
f 189 221 220
f 189 220 219
f 189 219 198
f 189 198 197
f 189 197 196
f 189 196 218
f 189 218 217
f 189 217 234
f 189 234 233
f 189 233 212
f 189 212 211
f 189 211 214
f 189 214 213
f 190 214 211
f 190 213 214
f 191 215 192
f 191 193 215
f 192 215 195
f 192 195 194
f 193 216 215
f 193 212 216
f 195 215 217
f 195 217 218
f 195 218 196
f 198 219 199
f 199 219 220
f 199 220 221
f 199 221 222
f 199 222 223
f 199 223 224
f 199 224 201
f 201 224 202
f 202 224 225
f 202 225 203
f 204 226 205
f 205 226 227
f 205 227 228
f 205 228 229
f 205 229 207
f 205 207 206
f 207 229 230
f 208 231 209
f 209 231 210
f 212 233 216
f 215 216 217
f 216 233 234
f 216 234 217
f 222 235 236
f 222 236 224
f 222 224 223
f 224 236 235
f 224 235 237
f 224 237 238
f 224 238 225
f 227 239 228
f 228 239 240
f 228 240 241
f 228 241 242
f 228 242 230
f 228 230 229
f 230 242 243
f 232 244 245
f 232 245 246
f 232 246 247
f 239 249 240
f 240 250 251
f 240 251 252
f 240 252 253
f 240 253 241
f 240 249 250
f 241 253 242
f 242 253 254
f 242 254 245
f 242 245 243
f 243 245 255
f 243 255 244
f 244 255 245
f 245 254 252
f 245 252 251
f 245 251 246
f 246 251 247
f 247 251 256
f 248 256 257
f 248 257 251
f 248 251 250
f 248 250 249
f 251 257 256
f 252 254 253

