v 0.09075767 0.23336665 -0.09492423
v 0.06321872 0.23073984 -0.11086222
v 0.05860474 0.23187323 -0.09492423
v 0.09534749 0.23311330 -0.09492423
v 0.10452714 0.23273995 -0.10778476
v 0.01729632 0.22195268 -0.16746583
v -0.03336084 0.22267272 -0.09492423
v 0.09626546 0.23301997 -0.09492423
v 0.13668007 0.22776634 -0.09492423
v 0.14126988 0.22631293 -0.09492423
v 0.04942509 0.21523229 -0.18124420
v 0.04024545 0.21557898 -0.18583338
v 0.03567978 0.21651237 -0.18583338
v 0.03237027 0.21696573 -0.18583338
v 0.03108995 0.21711240 -0.18583338
v 0.02191030 0.22116597 -0.17206581
v 0.01729632 0.22155264 -0.17011137
v 0.01425254 0.22155264 -0.16746583
v -0.05157520 0.22060593 -0.09492423
v -0.05065723 0.22072594 -0.09492423
v -0.04396575 0.22155264 -0.09492423
v 0.14247773 0.22517952 -0.09492423
v 0.13834690 0.21236546 -0.11237395
v 0.09993731 0.20884527 -0.14910907
v 0.09993731 0.21236546 -0.14526495
v 0.09993731 0.21300550 -0.14451987
v 0.05860474 0.21063204 -0.18124420
v 0.05860474 0.21236546 -0.17885782
v 0.04942509 0.21236546 -0.18583338
v 0.04483527 0.21429892 -0.18583338
v 0.04024545 0.21236546 -0.19146999
v 0.03108995 0.21236546 -0.19392116
v 0.02778045 0.21696573 -0.18583338
v 0.01729632 0.22084595 -0.17206581
v 0.01270650 0.21969921 -0.17206581
v -0.06075484 0.21861915 -0.09492423
v -0.05983688 0.21891251 -0.09492423
v -0.05616502 0.21976589 -0.09492423
v -0.05524706 0.21996589 -0.09492423
v 0.15506352 0.20919196 -0.09492423
v 0.15595733 0.20777855 -0.09492423
v 0.14126988 0.20769854 -0.11237395
v 0.13610030 0.20317828 -0.12155233
v 0.13209024 0.20809856 -0.12155233
v 0.10109685 0.20777855 -0.14910907
v 0.05860474 0.20777855 -0.18426767
v 0.04024545 0.20891194 -0.19502258
v 0.03108995 0.21143209 -0.19502258
v 0.02650013 0.21660570 -0.18583338
v 0.02191030 0.20816523 -0.19502258
v 0.02191030 0.21236546 -0.18994747
v 0.02650013 0.21696573 -0.18516391
v 0.01729632 0.21893917 -0.17665501
v 0.01270650 0.21743242 -0.17665501
v -0.05616502 0.21552564 -0.10778476
v -0.06515142 0.21696573 -0.09492423
v 0.15791404 0.20317828 -0.09492423
v 0.10452714 0.19859135 -0.15255367
v 0.10452714 0.20317828 -0.14950860
v 0.15801067 0.20292492 -0.09492423
v 0.13904745 0.19400442 -0.12155233
v 0.10720856 0.18940417 -0.15368746
v 0.10452714 0.19400442 -0.15450811
v 0.06099628 0.20317828 -0.18583338
v 0.05860474 0.20596510 -0.18583338
v 0.04024545 0.20317828 -0.19888828
v 0.03108995 0.20317828 -0.20113429
v 0.04773410 0.20317828 -0.19502258
v 0.02191030 0.21503229 -0.18583338
v 0.01729632 0.21696573 -0.18023997
v 0.01270650 0.21696573 -0.17744327
v 0.02191030 0.20317828 -0.19860754
v 0.01683734 0.20317828 -0.19502258
v 0.00352685 0.20777855 -0.18017519
v 0.00811667 0.21057869 -0.18124420
v 0.00811667 0.21236546 -0.17941932
v 0.01193348 0.21696573 -0.17665501
v -0.05616502 0.21309883 -0.11237395
v -0.06904069 0.21495228 -0.09492423
v 0.15873537 0.20059146 -0.09492423
v 0.13870925 0.11134641 -0.14451987
v 0.10452714 0.18940417 -0.15599825
v 0.05860474 0.19859135 -0.18928879
v 0.05401492 0.19859135 -0.19277657
v 0.05860474 0.20317828 -0.18761507
v 0.04942509 0.20317828 -0.19394276
v 0.04483527 0.19400442 -0.20068077
v 0.04024545 0.19400442 -0.20293757
v 0.03108995 0.19400442 -0.20414695
v 0.02650013 0.19400442 -0.20345589
v 0.04942509 0.20103150 -0.19502258
v 0.00495211 0.21236546 -0.17665501
v 0.02191030 0.19400442 -0.20180378
v 0.01729632 0.19400442 -0.19943900
v 0.01270650 0.19756463 -0.19502258
v 0.00352685 0.20317828 -0.18330663
v -0.00401012 0.20317828 -0.17665501
v -0.00106297 0.20687182 -0.17665501
v -0.00014501 0.20777855 -0.17665501
v 0.00352685 0.21128540 -0.17665501
v -0.05616502 0.21236546 -0.11352935
v -0.05727624 0.21236546 -0.11237395
v -0.07312321 0.21236546 -0.09492423
v 0.15912189 0.19859135 -0.09492423
v 0.04942509 0.18940417 -0.19854275
v 0.10452714 0.18481724 -0.15689450
v 0.16129601 0.15726902 -0.09492423
v 0.16281791 0.11594667 -0.09492423
v 0.16279375 0.11134641 -0.09492423
v 0.16257634 0.10675948 -0.09492423
v 0.16250387 0.10565275 -0.09492423
v 0.16170669 0.09715893 -0.09492423
v 0.13781544 0.10675948 -0.14451987
v 0.13668007 0.10675948 -0.14534054
v 0.05836317 0.09715893 -0.19628594
v 0.04483527 0.18481724 -0.20198734
v 0.04483527 0.18940417 -0.20171738
v 0.05283122 0.19400442 -0.19502258
v 0.04942509 0.19400442 -0.19756011
v 0.05089867 0.19859135 -0.19502258
v 0.04024545 0.18940417 -0.20382301
v 0.03108995 0.19360440 -0.20421174
v 0.02799786 0.18940417 -0.20421174
v 0.02650013 0.18940417 -0.20377983
v -0.05616502 0.20988533 -0.11696314
v 0.02524397 0.17563006 -0.20421174
v 0.02191030 0.18940417 -0.20209532
v 0.01729632 0.18940417 -0.19993570
v 0.01729632 0.19299103 -0.19961176
v 0.01270650 0.18940417 -0.19729017
v 0.01270650 0.19400442 -0.19644791
v 0.01106382 0.19400442 -0.19502258
v -0.00565280 0.20027145 -0.17665501
v -0.03321590 0.20317828 -0.14647433
v -0.05616502 0.20777855 -0.11916595
v -0.07454848 0.21116539 -0.09492423
v 0.13535142 0.09715893 -0.13974712
v -0.08396969 0.09715893 -0.09492423
v 0.13503740 0.10217255 -0.14451987
v 0.10452714 0.09715893 -0.16537101
v 0.05401492 0.09715893 -0.19895307
v 0.04483527 0.16644286 -0.20251645
v 0.04024545 0.18481724 -0.20406057
v 0.03976230 0.18481724 -0.20421174
v 0.03108995 0.18940417 -0.20467606
v 0.03108995 0.18481724 -0.20491362
v 0.02650013 0.17563006 -0.20448169
v -0.05821837 0.20777855 -0.11696314
v -0.07809955 0.20777855 -0.09492423
v 0.02492993 0.17104313 -0.20421174
v 0.02191030 0.17563006 -0.20289437
v 0.02191030 0.18021697 -0.20266763
v 0.02650013 0.17104313 -0.20456809
v 0.01729632 0.18481724 -0.20013006
v 0.01666824 0.18940417 -0.19961176
v 0.01642667 0.18481724 -0.19961176
v 0.01729632 0.18021697 -0.20020565
v 0.01635420 0.18021697 -0.19961176
v 0.01729632 0.16644286 -0.20014086
v 0.01654746 0.16644286 -0.19961176
v 0.01270650 0.18481724 -0.19718219
v 0.01004923 0.18940417 -0.19502258
v -0.00770614 0.19400442 -0.17665501
v -0.03321590 0.19859135 -0.14853678
v -0.03705686 0.19859135 -0.14451987
v -0.04812075 0.20317828 -0.13074152
v 0.13209024 0.09715893 -0.14369922
v -0.08343824 0.18976418 -0.09492423
v -0.08092592 0.09715893 -0.09859558
v 0.13209024 0.09830567 -0.14451987
v 0.05266212 0.09715893 -0.19961176
v 0.04024545 0.17104313 -0.20415775
v 0.04942509 0.09715893 -0.20089673
v 0.04002803 0.16644286 -0.20421174
v 0.03108995 0.17104313 -0.20522677
v 0.03108995 0.17563006 -0.20515118
v 0.03108995 0.18021697 -0.20505400
v -0.08097423 0.20317828 -0.09492423
v -0.07913830 0.20615178 -0.09492423
v -0.07822033 0.20763186 -0.09492423
v 0.02650013 0.14809516 -0.20443851
v 0.02575126 0.14809516 -0.20421174
v 0.02191030 0.17104313 -0.20299157
v 0.03108995 0.10675948 -0.20491362
v 0.02191030 0.09757230 -0.20104791
v 0.01270650 0.17104313 -0.19683664
v 0.01270650 0.17563006 -0.19695543
v 0.01048406 0.17563006 -0.19502258
v 0.00811667 0.18481724 -0.19304653
v 0.00543525 0.18481724 -0.19043338
v 0.00086958 0.18481724 -0.18583338
v -0.00565280 0.18481724 -0.17909538
v -0.03780572 0.18940417 -0.14511377
v -0.04239555 0.19400442 -0.13996309
v -0.04239555 0.19424444 -0.13993069
v -0.04138095 0.19859135 -0.13993069
v -0.07706080 0.09715893 -0.10301200
v -0.07913830 0.09715893 -0.10069042
v -0.08338992 0.19400442 -0.09492423
v -0.04239555 0.18940417 -0.14023304
v 0.04024545 0.16644286 -0.20414695
v 0.04609143 0.09715893 -0.20208452
v 0.04024545 0.09715893 -0.20387701
v 0.03862693 0.09715893 -0.20421174
v -0.07913830 0.19859135 -0.09860638
v -0.08150568 0.20132483 -0.09492423
v 0.02770798 0.10217255 -0.20421174
v 0.02650013 0.10217255 -0.20368265
v 0.02232097 0.09715893 -0.20127467
v 0.03108995 0.10217255 -0.20485963
v 0.02191030 0.09715893 -0.20102631
v 0.02176536 0.09715893 -0.20091832
v 0.02007437 0.09757230 -0.19961176
v 0.01067731 0.17104313 -0.19502258
v 0.00811667 0.17563006 -0.19273337
v -0.07689170 0.09715893 -0.10318477
v -0.05080217 0.19400442 -0.13074152
v -0.08312420 0.19512449 -0.09492423
v 0.03381969 0.09715893 -0.20456809
v 0.02828774 0.09715893 -0.20421174
v 0.02664507 0.09715893 -0.20358546
v 0.02650013 0.09715893 -0.20352068
v 0.03108995 0.09715893 -0.20473006
v 0.02009853 0.09715893 -0.19961176
v 0.00811667 0.15268209 -0.19141601
v 0.00811667 0.17104313 -0.19247422
v 0.01980865 0.09715893 -0.19934180
v 0.01729632 0.09715893 -0.19684745
f 1 2 3
f 1 3 7
f 1 7 21
f 1 21 20
f 1 20 19
f 1 19 39
f 1 39 38
f 1 38 37
f 1 37 36
f 1 36 56
f 1 56 79
f 1 79 103
f 1 103 136
f 1 136 149
f 1 149 180
f 1 180 179
f 1 179 178
f 1 178 206
f 1 206 218
f 1 218 199
f 1 199 168
f 1 168 138
f 1 138 112
f 1 112 111
f 1 111 110
f 1 110 109
f 1 109 108
f 1 108 107
f 1 107 104
f 1 104 80
f 1 80 60
f 1 60 57
f 1 57 41
f 1 41 40
f 1 40 22
f 1 22 10
f 1 10 9
f 1 9 8
f 1 8 4
f 1 4 5
f 1 5 2
f 2 5 6
f 2 6 3
f 3 6 7
f 4 8 5
f 5 8 9
f 5 9 10
f 5 10 11
f 5 11 12
f 5 12 13
f 5 13 14
f 5 14 15
f 5 15 16
f 5 16 17
f 5 17 6
f 6 17 18
f 6 18 19
f 6 19 20
f 6 20 21
f 6 21 7
f 10 22 23
f 10 23 24
f 10 24 25
f 10 25 26
f 10 26 27
f 10 27 28
f 10 28 29
f 10 29 11
f 11 29 30
f 11 30 12
f 12 30 31
f 12 31 13
f 13 31 32
f 13 32 14
f 14 32 15
f 15 32 33
f 15 33 16
f 16 33 17
f 17 33 34
f 17 34 35
f 17 35 18
f 18 35 36
f 18 36 37
f 18 37 38
f 18 38 39
f 18 39 19
f 22 40 23
f 23 40 41
f 23 41 42
f 23 42 43
f 23 43 44
f 23 44 45
f 23 45 24
f 24 45 46
f 24 46 27
f 24 27 25
f 25 27 26
f 27 46 29
f 27 29 28
f 29 46 47
f 29 47 31
f 29 31 30
f 31 47 48
f 31 48 32
f 32 49 33
f 32 48 50
f 32 50 51
f 32 51 49
f 33 49 52
f 33 52 53
f 33 53 34
f 34 53 35
f 35 53 54
f 35 54 55
f 35 55 56
f 35 56 36
f 41 57 43
f 41 43 42
f 43 58 59
f 43 59 44
f 43 57 60
f 43 60 61
f 43 61 62
f 43 62 63
f 43 63 58
f 44 59 45
f 45 64 65
f 45 65 46
f 45 59 64
f 46 65 47
f 47 66 67
f 47 67 48
f 47 65 68
f 47 68 66
f 48 67 50
f 49 51 69
f 49 69 70
f 49 70 53
f 49 53 52
f 50 71 51
f 50 67 72
f 50 72 73
f 50 73 74
f 50 74 75
f 50 75 76
f 50 76 71
f 51 71 70
f 51 70 69
f 53 70 54
f 54 70 71
f 54 71 77
f 54 77 78
f 54 78 55
f 55 78 79
f 55 79 56
f 58 63 64
f 58 64 59
f 60 80 61
f 61 81 62
f 61 80 81
f 62 81 82
f 62 82 63
f 63 82 83
f 63 83 64
f 64 83 84
f 64 84 85
f 64 85 65
f 65 85 86
f 65 86 68
f 66 68 87
f 66 87 88
f 66 88 67
f 67 88 89
f 67 89 90
f 67 90 72
f 68 86 91
f 68 91 87
f 71 76 92
f 71 92 77
f 72 93 94
f 72 94 95
f 72 95 73
f 72 90 93
f 73 95 96
f 73 96 74
f 74 96 97
f 74 97 98
f 74 98 99
f 74 99 100
f 74 100 75
f 75 100 76
f 76 100 92
f 77 92 101
f 77 101 78
f 78 101 102
f 78 102 103
f 78 103 79
f 80 104 81
f 81 105 106
f 81 106 82
f 81 104 107
f 81 107 108
f 81 108 109
f 81 109 110
f 81 110 111
f 81 111 112
f 81 112 113
f 81 113 114
f 81 114 115
f 81 115 116
f 81 116 117
f 81 117 105
f 82 106 118
f 82 118 83
f 83 118 84
f 84 118 119
f 84 119 120
f 84 120 85
f 85 120 91
f 85 91 86
f 87 117 88
f 87 91 120
f 87 120 119
f 87 119 117
f 88 117 121
f 88 121 89
f 89 122 90
f 89 121 122
f 90 122 123
f 90 123 124
f 90 124 93
f 92 100 125
f 92 125 101
f 93 126 127
f 93 127 128
f 93 128 129
f 93 129 94
f 93 124 126
f 94 129 130
f 94 130 131
f 94 131 95
f 95 131 132
f 95 132 133
f 95 133 97
f 95 97 96
f 97 133 134
f 97 134 135
f 97 135 98
f 98 135 99
f 99 135 125
f 99 125 100
f 101 125 102
f 102 125 103
f 103 125 136
f 105 119 118
f 105 118 106
f 105 117 119
f 112 137 113
f 112 138 169
f 112 169 198
f 112 198 197
f 112 197 216
f 112 216 228
f 112 228 227
f 112 227 224
f 112 224 212
f 112 212 211
f 112 211 209
f 112 209 222
f 112 222 221
f 112 221 220
f 112 220 223
f 112 223 219
f 112 219 204
f 112 204 203
f 112 203 202
f 112 202 173
f 112 173 171
f 112 171 141
f 112 141 115
f 112 115 140
f 112 140 167
f 112 167 137
f 113 137 139
f 113 139 140
f 113 140 114
f 114 140 115
f 115 141 116
f 116 141 142
f 116 142 143
f 116 143 121
f 116 121 117
f 121 143 144
f 121 144 145
f 121 145 122
f 122 145 123
f 123 145 146
f 123 146 147
f 123 147 126
f 123 126 124
f 125 135 148
f 125 148 149
f 125 149 136
f 126 150 151
f 126 151 152
f 126 152 127
f 126 147 153
f 126 153 150
f 127 152 128
f 128 152 151
f 128 151 154
f 128 154 155
f 128 155 129
f 129 155 130
f 130 155 154
f 130 154 156
f 130 156 157
f 130 157 158
f 130 158 159
f 130 159 160
f 130 160 161
f 130 161 162
f 130 162 131
f 131 162 132
f 132 162 163
f 132 163 133
f 133 163 164
f 133 164 165
f 133 165 134
f 134 165 166
f 134 166 135
f 135 166 148
f 137 167 139
f 138 168 169
f 139 167 170
f 139 170 140
f 140 170 167
f 141 171 142
f 142 172 143
f 142 171 173
f 142 173 172
f 143 172 144
f 144 172 174
f 144 174 175
f 144 175 176
f 144 176 177
f 144 177 146
f 144 146 145
f 146 177 147
f 147 177 176
f 147 176 153
f 148 178 179
f 148 179 180
f 148 180 149
f 148 166 178
f 150 153 181
f 150 181 182
f 150 182 183
f 150 183 151
f 151 183 154
f 153 176 175
f 153 175 184
f 153 184 181
f 154 183 157
f 154 157 156
f 157 183 159
f 157 159 158
f 159 183 185
f 159 185 160
f 160 186 187
f 160 187 161
f 160 185 186
f 161 187 162
f 162 187 186
f 162 186 188
f 162 188 189
f 162 189 190
f 162 190 191
f 162 191 163
f 163 191 192
f 163 192 193
f 163 193 194
f 163 194 195
f 163 195 165
f 163 165 164
f 165 195 196
f 165 196 166
f 166 196 178
f 168 197 198
f 168 198 169
f 168 199 200
f 168 200 197
f 172 201 174
f 172 173 202
f 172 202 201
f 174 201 203
f 174 203 204
f 174 204 175
f 175 204 184
f 178 205 206
f 178 196 205
f 181 184 207
f 181 207 182
f 182 207 183
f 183 207 208
f 183 208 209
f 183 209 185
f 184 210 207
f 184 204 210
f 185 209 211
f 185 211 212
f 185 212 186
f 186 212 213
f 186 213 214
f 186 214 188
f 188 214 215
f 188 215 189
f 189 215 190
f 190 215 191
f 191 215 216
f 191 216 197
f 191 197 192
f 192 197 193
f 193 197 200
f 193 200 194
f 194 200 217
f 194 217 195
f 195 217 199
f 195 199 205
f 195 205 196
f 199 218 205
f 199 217 200
f 201 202 203
f 204 219 210
f 205 218 206
f 207 210 220
f 207 220 221
f 207 221 208
f 208 222 209
f 208 221 222
f 210 219 223
f 210 223 220
f 212 224 213
f 213 224 214
f 214 225 226
f 214 226 215
f 214 224 227
f 214 227 225
f 215 226 216
f 216 226 225
f 216 225 228
f 225 227 228

