v 0.20421767 -0.26981233 -0.03887012
v 0.20367648 -0.06317930 -0.04346877
v 0.20384966 -0.15502335 -0.03887012
v 0.20352495 -0.26981233 -0.03427147
v 0.20142513 -0.27438842 -0.03887012
v 0.20097054 -0.27438842 -0.04067080
v 0.20322188 -0.26521475 -0.04346877
v 0.20229103 -0.19173949 -0.07103298
v 0.20255081 -0.18254436 -0.07103298
v 0.20263740 -0.17796826 -0.07103298
v 0.20304870 -0.05510132 -0.04460458
v 0.20328683 -0.05510132 -0.04346877
v 0.20296211 -0.05510132 -0.03887012
v 0.20274564 -0.15502335 -0.03427147
v 0.20097054 -0.27284155 -0.03427147
v 0.20097054 -0.27438842 -0.03767891
v 0.20172821 -0.19633707 -0.02970052
v 0.20172821 -0.20091316 -0.02970052
v 0.20097054 -0.19633707 -0.02795525
v 0.20097054 -0.20091316 -0.02803836
v 0.20097054 -0.23307469 -0.02867552
v 0.19891402 -0.22847711 -0.02510187
v 0.19592666 -0.22847711 -0.02050322
v 0.19551535 -0.23307469 -0.02050322
v 0.19179197 -0.23187159 -0.01590457
v 0.15505608 -0.25144351 0.02426438
v 0.15737237 -0.25601960 0.02082924
v 0.03566985 -0.26061718 0.14679352
v 0.02649129 -0.26981233 0.14864961
v 0.19638125 -0.27456029 -0.03887012
v 0.20097054 -0.26521475 -0.04676540
v 0.19638125 -0.27438842 -0.04061539
v 0.15046681 -0.26923224 -0.08020258
v 0.15046681 -0.26884554 -0.08291745
v 0.15235014 -0.26873811 -0.08291745
v 0.15505608 -0.26850180 -0.08291745
v 0.15693942 -0.26783580 -0.08291745
v 0.15964537 -0.26596669 -0.08291745
v 0.16035973 -0.26521475 -0.08291745
v 0.20097054 -0.19173949 -0.07405258
v 0.20097054 -0.18254436 -0.07491136
v 0.20097054 -0.17796826 -0.07455122
v 0.20218280 -0.05510132 -0.04806742
v 0.20237763 -0.05858172 -0.04806742
v 0.20261576 -0.05510132 -0.03776202
v 0.20248587 -0.12745940 -0.03427147
v 0.02649129 -0.27273414 0.14479892
v 0.20146842 -0.05510132 -0.03427147
v 0.20097054 -0.05510132 -0.03321877
v 0.19954180 -0.05510132 -0.03053160
v 0.19908720 -0.05510132 -0.02970052
v 0.19934697 -0.19633707 -0.02510187
v 0.19926037 -0.20551074 -0.02510187
v 0.19638125 -0.19633707 -0.02125119
v 0.19638125 -0.19173949 -0.02127889
v 0.19573183 -0.19173949 -0.02050322
v 0.19179197 -0.18714192 -0.01604308
v 0.19179197 -0.22836970 -0.01590457
v 0.15505608 -0.24684593 0.02445830
v 0.14130990 -0.24224836 0.03919615
v 0.14126659 -0.24325810 0.03919615
v 0.15395205 -0.25144351 0.02542790
v 0.05404862 -0.25601960 0.12862053
v 0.06688561 -0.22847711 0.11723472
v 0.06712373 -0.22387954 0.11723472
v 0.00228932 -0.22847711 0.18153273
v -0.00106604 -0.22847711 0.18482936
v -0.01483389 -0.22847711 0.19829287
v -0.01483389 -0.23307469 0.19737868
v -0.01693370 -0.25513875 0.19480233
v -0.01693370 -0.26521475 0.19211516
v -0.01693370 -0.26637488 0.19070234
v -0.01693370 -0.26349601 -0.08291745
v 0.16300074 -0.26061718 -0.08291745
v 0.16423464 -0.25833987 -0.08291745
v 0.19638125 -0.20052644 -0.07560393
v 0.19988817 -0.19173949 -0.07560393
v 0.19995310 -0.18254436 -0.07560393
v 0.17471206 -0.05510132 -0.08291745
v 0.18183410 -0.05510132 -0.07560393
v 0.18655327 -0.05510132 -0.07061744
v 0.18720270 -0.05510132 -0.06992487
v 0.19003852 -0.05510132 -0.06643433
v 0.19638125 -0.05510132 -0.05806811
v 0.19685751 -0.05510132 -0.05734784
v 0.19772341 -0.05510132 -0.05590729
v 0.02190201 -0.27230446 0.14479892
v 0.19638125 -0.05510132 -0.02576673
v 0.19609984 -0.06317930 -0.02510187
v 0.19562359 -0.18714192 -0.02050322
v 0.19179197 -0.18254436 -0.01609849
v 0.19161881 -0.18254436 -0.01590457
v 0.14133153 -0.23765078 0.03919615
v 0.07634559 -0.13665455 0.10803741
v 0.14105011 -0.24684593 0.03919615
v 0.07240574 -0.13665455 0.11208201
v 0.07186455 -0.13665455 0.11263607
v -0.01024461 -0.20091316 0.19455300
v 0.00239756 -0.22387954 0.18153273
v -0.01147852 -0.22387954 0.19530099
v -0.01104556 -0.20091316 0.19530099
v -0.01483389 -0.19633707 0.19870843
v -0.01693370 -0.22847711 0.19973341
v -0.01693370 -0.23307469 0.19893004
v -0.01693370 -0.26637488 0.18153273
v -0.01693370 -0.05510132 -0.08291745
v 0.16516548 -0.25601960 -0.08291745
v 0.19638125 -0.19173949 -0.07779245
v 0.19638125 -0.18254436 -0.07743231
v 0.17477700 -0.05735714 -0.08291745
v 0.19586171 -0.05510132 -0.02510187
v 0.19250635 -0.07235296 -0.02050322
v 0.07701667 -0.13665455 0.10731714
v 0.19218162 -0.06317930 -0.02050322
v 0.19174868 -0.05510132 -0.02050322
v 0.07573946 -0.12745940 0.10803741
v -0.01024461 -0.06775539 0.19441449
v -0.01121875 -0.06775539 0.19530099
v -0.01483389 -0.19173949 0.19873612
v -0.01654405 -0.19173949 0.19989965
v -0.01660899 -0.19633707 0.19989965
v -0.01693370 -0.19173949 0.20009357
v -0.01693370 -0.05510132 0.19776652
v 0.17347815 -0.22847711 -0.08291745
v 0.17440900 -0.22452406 -0.08291745
v 0.17456053 -0.22387954 -0.08291745
v 0.17627069 -0.21010831 -0.08291745
v 0.17683351 -0.20551074 -0.08291745
v 0.17702835 -0.20374906 -0.08291745
v 0.17733141 -0.20091316 -0.08291745
v 0.17501514 -0.07005418 -0.08291745
v 0.19391344 -0.05510132 -0.02291335
v -0.00812315 -0.05510132 0.19070234
v -0.01024461 -0.06317930 0.19394355
v -0.01188982 -0.06317930 0.19530099
v -0.01483389 -0.05510132 0.19657531
v -0.01483389 -0.06775539 0.19779424
v -0.01483389 -0.07235296 0.19798816
v -0.01483389 -0.08154811 0.19826518
v -0.01693370 -0.08154811 0.19951180
v -0.01693370 -0.06618706 0.19873612
v -0.01024461 -0.05510132 0.19286316
v -0.01024461 -0.05858172 0.19333410
v -0.01312373 -0.05510132 0.19530099
v -0.01693370 -0.06775539 0.19884694
v -0.01693370 -0.07046237 0.19901314
v -0.01693370 -0.07544666 0.19926247
f 1 2 3
f 1 3 4
f 1 4 5
f 1 5 6
f 1 6 7
f 1 7 8
f 1 8 9
f 1 9 10
f 1 10 2
f 2 11 12
f 2 12 13
f 2 13 3
f 2 10 11
f 3 13 14
f 3 14 4
f 4 15 16
f 4 16 5
f 4 14 17
f 4 17 18
f 4 18 19
f 4 19 20
f 4 20 21
f 4 21 22
f 4 22 23
f 4 23 24
f 4 24 25
f 4 25 26
f 4 26 27
f 4 27 28
f 4 28 29
f 4 29 15
f 5 16 30
f 5 30 6
f 6 31 7
f 6 30 32
f 6 32 33
f 6 33 34
f 6 34 35
f 6 35 36
f 6 36 37
f 6 37 38
f 6 38 39
f 6 39 31
f 7 31 40
f 7 40 8
f 8 40 41
f 8 41 9
f 9 41 10
f 10 41 42
f 10 42 43
f 10 43 44
f 10 44 11
f 11 44 43
f 11 43 86
f 11 86 85
f 11 85 84
f 11 84 83
f 11 83 82
f 11 82 81
f 11 81 80
f 11 80 79
f 11 79 106
f 11 106 123
f 11 123 136
f 11 136 144
f 11 144 142
f 11 142 133
f 11 133 115
f 11 115 132
f 11 132 111
f 11 111 88
f 11 88 51
f 11 51 50
f 11 50 49
f 11 49 48
f 11 48 45
f 11 45 13
f 11 13 12
f 13 45 46
f 13 46 14
f 14 46 17
f 15 29 47
f 15 47 16
f 16 47 30
f 17 19 18
f 17 46 48
f 17 48 19
f 19 48 49
f 19 49 50
f 19 50 51
f 19 51 52
f 19 52 53
f 19 53 20
f 20 53 21
f 21 53 22
f 22 53 23
f 23 53 52
f 23 52 54
f 23 54 55
f 23 55 56
f 23 56 57
f 23 57 58
f 23 58 25
f 23 25 24
f 25 58 59
f 25 59 26
f 26 59 60
f 26 60 61
f 26 61 62
f 26 62 27
f 27 62 28
f 28 63 64
f 28 64 65
f 28 65 66
f 28 66 67
f 28 67 68
f 28 68 69
f 28 69 70
f 28 70 71
f 28 71 29
f 28 62 63
f 29 71 72
f 29 72 47
f 30 73 33
f 30 33 32
f 30 47 73
f 31 39 74
f 31 74 75
f 31 75 76
f 31 76 77
f 31 77 40
f 33 73 34
f 34 73 106
f 34 106 79
f 34 79 110
f 34 110 131
f 34 131 130
f 34 130 129
f 34 129 128
f 34 128 127
f 34 127 126
f 34 126 125
f 34 125 124
f 34 124 107
f 34 107 75
f 34 75 74
f 34 74 39
f 34 39 38
f 34 38 37
f 34 37 36
f 34 36 35
f 40 77 41
f 41 77 78
f 41 78 79
f 41 79 42
f 42 80 81
f 42 81 82
f 42 82 83
f 42 83 84
f 42 84 85
f 42 85 86
f 42 86 43
f 42 79 80
f 45 48 46
f 47 72 87
f 47 87 73
f 51 88 52
f 52 55 54
f 52 88 89
f 52 89 55
f 55 90 56
f 55 89 90
f 56 90 91
f 56 91 57
f 57 91 92
f 57 92 59
f 57 59 58
f 59 92 93
f 59 93 60
f 60 93 94
f 60 94 65
f 60 65 61
f 61 95 62
f 61 65 64
f 61 64 95
f 62 95 63
f 63 95 64
f 65 94 96
f 65 96 97
f 65 97 98
f 65 98 99
f 65 99 66
f 66 99 100
f 66 100 67
f 67 100 68
f 68 100 101
f 68 101 102
f 68 102 103
f 68 103 104
f 68 104 70
f 68 70 69
f 70 104 103
f 70 103 122
f 70 122 140
f 70 140 147
f 70 147 146
f 70 146 145
f 70 145 141
f 70 141 123
f 70 123 106
f 70 106 73
f 70 73 105
f 70 105 72
f 70 72 71
f 72 105 87
f 73 87 105
f 75 107 76
f 76 107 77
f 77 107 108
f 77 108 78
f 78 108 109
f 78 109 79
f 79 109 108
f 79 108 110
f 88 111 89
f 89 111 112
f 89 112 90
f 90 112 91
f 91 112 92
f 92 112 113
f 92 113 93
f 93 113 94
f 94 113 114
f 94 114 115
f 94 115 116
f 94 116 117
f 94 117 96
f 96 117 97
f 97 117 98
f 98 117 101
f 98 101 100
f 98 100 99
f 101 117 118
f 101 118 119
f 101 119 102
f 102 119 120
f 102 120 121
f 102 121 103
f 103 121 122
f 107 124 108
f 108 124 125
f 108 125 126
f 108 126 127
f 108 127 128
f 108 128 129
f 108 129 130
f 108 130 131
f 108 131 110
f 111 132 114
f 111 114 112
f 112 114 113
f 114 132 115
f 115 133 134
f 115 134 117
f 115 117 116
f 117 134 118
f 118 134 135
f 118 135 136
f 118 136 137
f 118 137 138
f 118 138 139
f 118 139 119
f 119 139 120
f 120 140 122
f 120 122 121
f 120 139 140
f 123 141 137
f 123 137 136
f 133 142 143
f 133 143 134
f 134 143 144
f 134 144 135
f 135 144 136
f 137 141 145
f 137 145 146
f 137 146 147
f 137 147 138
f 138 147 140
f 138 140 139
f 142 144 143

