v 0.05403558 0.24778803 0.00243306
v 0.05144292 0.24765532 0.00503621
v 0.05403558 0.24741939 0.00503621
v 0.05863083 0.24708022 0.00243306
v 0.05863083 0.24702125 -0.00215594
v 0.05863083 0.24632819 -0.00674865
v 0.04945820 0.24747836 0.00243306
v 0.04684767 0.24744887 0.00503621
v 0.05603818 0.24710972 0.00503621
v 0.15046440 0.22752738 -0.02051563
v 0.15046440 0.22816145 -0.02510834
v 0.15046440 0.22870705 -0.02970106
v 0.15046440 0.22889873 -0.03295500
v 0.08618448 0.24023821 -0.03295500
v 0.08158922 0.24040042 -0.03295500
v 0.01493121 0.23215754 -0.03295500
v 0.04486295 0.24684429 0.00503621
v 0.05863083 0.24629870 0.00503621
v 0.15046440 0.22614128 -0.01628736
v 0.16882753 0.22276451 -0.02970106
v 0.16882753 0.22350180 -0.03295500
v 0.16289125 0.22540400 -0.03295500
v 0.01493121 0.09716036 -0.03295500
v 0.01493121 0.23198060 -0.02051563
v 0.04026769 0.24497159 0.00503621
v 0.04033921 0.24500108 0.00503621
v 0.13548065 0.22154062 0.00503621
v 0.14586914 0.22159959 -0.00215594
v 0.14586914 0.22363451 -0.00674865
v 0.14603006 0.22154062 -0.00215594
v 0.15046440 0.21977113 -0.00215594
v 0.15963702 0.21971214 -0.01134136
v 0.16412499 0.22154062 -0.02051563
v 0.17142018 0.22154062 -0.02970106
v 0.17333339 0.22154062 -0.03295500
v 0.01493121 0.09716036 0.00503621
v 0.19759705 0.09716036 -0.03295500
v 0.01493121 0.23153822 -0.01262806
v 0.03107718 0.23963364 0.00503621
v 0.14327649 0.21890113 0.00503621
v 0.14127389 0.22090655 0.00243306
v 0.14586914 0.21934350 0.00243306
v 0.15046440 0.21693996 0.00335160
v 0.16423228 0.21693996 -0.01002491
v 0.16882753 0.21898960 -0.02051563
v 0.17801804 0.21733808 -0.02970106
v 0.17801804 0.21854724 -0.03295500
v 0.16183631 0.09716036 0.00503621
v 0.01493121 0.22359028 0.00503621
v 0.19707852 0.11834999 -0.03295500
v 0.19638119 0.09716036 -0.03054894
v 0.01493121 0.23087466 -0.00674865
v 0.02848454 0.23804109 0.00503621
v 0.14788962 0.21693996 0.00503621
v 0.15046440 0.21553911 0.00503621
v 0.15504176 0.21466911 0.00243306
v 0.16423228 0.21484605 -0.00674865
v 0.16882753 0.21391706 -0.01134136
v 0.17757103 0.21236877 -0.02051563
v 0.16521570 0.21693996 -0.01134136
v 0.18440132 0.21236877 -0.02970106
v 0.18609997 0.21236877 -0.03295500
v 0.18361460 0.21430047 -0.03295500
v 0.18797740 0.09716036 -0.01963056
v 0.16183631 0.11134575 0.00503621
v 0.01493121 0.22612654 0.00219134
v 0.02517666 0.23529838 0.00503621
v 0.19700698 0.12054709 -0.03295500
v 0.19638119 0.12054709 -0.03172036
v 0.19595205 0.09716036 -0.02975312
v 0.01493121 0.23071247 -0.00594539
v 0.02649981 0.23653702 0.00503621
v 0.15244911 0.21421198 0.00503621
v 0.15504176 0.21236877 0.00463458
v 0.16423228 0.21236877 -0.00442440
v 0.16655673 0.21236877 -0.00674865
v 0.16882753 0.21236877 -0.00951543
v 0.17029372 0.21236877 -0.01134136
v 0.17801804 0.21198538 -0.02051563
v 0.18719066 0.20937539 -0.02970106
v 0.18719066 0.21120385 -0.03295500
v 0.18890718 0.09716036 -0.02051563
v 0.18890718 0.09758799 -0.02051563
v 0.16099592 0.19398085 0.00503621
v 0.01493121 0.22894298 -0.00267657
v 0.19543352 0.16646531 -0.03295500
v 0.19337727 0.17103647 -0.02970106
v 0.19512956 0.12054709 -0.02970106
v 0.19282298 0.10217391 -0.02510834
v 0.19293026 0.09716036 -0.02510834
v 0.15427292 0.21261945 0.00503621
v 0.15454112 0.21236877 0.00503621
v 0.15504176 0.21155775 0.00503621
v 0.16473293 0.20776809 -0.00215594
v 0.16882753 0.20776809 -0.00601605
v 0.16882753 0.20897725 -0.00674865
v 0.18402584 0.20318218 -0.02051563
v 0.18719066 0.20318218 -0.02454680
v 0.19049853 0.20318218 -0.02970106
v 0.19219718 0.20318218 -0.03295500
v 0.18917539 0.09716036 -0.02079454
v 0.18879991 0.10217391 -0.02051563
v 0.19178592 0.09758799 -0.02359107
v 0.19178592 0.10217391 -0.02369520
v 0.16768319 0.19858151 -0.00215594
v 0.16423228 0.19858151 0.00133601
v 0.16314158 0.19858151 0.00243306
v 0.16054892 0.19858151 0.00503621
v 0.19461103 0.18896728 -0.03295500
v 0.19246537 0.19398085 -0.02970106
v 0.19178592 0.09716036 -0.02358736
v 0.15697285 0.20775336 0.00503621
v 0.16686070 0.20318218 -0.00215594
v 0.15867149 0.20415539 0.00503621
v 0.16882753 0.20318218 -0.00413805
v 0.17589028 0.20318218 -0.01134136
v 0.17801804 0.20318218 -0.01370280
v 0.18719066 0.19398085 -0.02289194
v 0.19436069 0.19398085 -0.03295500
v 0.19257266 0.20204675 -0.03295500
v 0.16882753 0.19858151 -0.00336455
v 0.17801804 0.19398085 -0.01298507
v 0.15942246 0.20223846 0.00503621
v 0.15911850 0.20318218 0.00503621
f 1 2 3
f 1 3 4
f 1 4 5
f 1 5 6
f 1 6 7
f 1 7 8
f 1 8 2
f 2 8 17
f 2 17 26
f 2 26 25
f 2 25 39
f 2 39 53
f 2 53 72
f 2 72 67
f 2 67 49
f 2 49 36
f 2 36 48
f 2 48 65
f 2 65 84
f 2 84 108
f 2 108 123
f 2 123 124
f 2 124 114
f 2 114 112
f 2 112 93
f 2 93 92
f 2 92 91
f 2 91 73
f 2 73 55
f 2 55 54
f 2 54 40
f 2 40 27
f 2 27 18
f 2 18 9
f 2 9 3
f 3 9 4
f 4 9 10
f 4 10 11
f 4 11 12
f 4 12 13
f 4 13 5
f 5 14 6
f 5 13 14
f 6 14 15
f 6 15 16
f 6 16 7
f 7 16 8
f 8 16 17
f 9 18 19
f 9 19 10
f 10 19 20
f 10 20 21
f 10 21 22
f 10 22 11
f 11 22 12
f 12 22 13
f 13 22 21
f 13 21 35
f 13 35 47
f 13 47 63
f 13 63 62
f 13 62 81
f 13 81 100
f 13 100 120
f 13 120 119
f 13 119 109
f 13 109 86
f 13 86 68
f 13 68 50
f 13 50 37
f 13 37 23
f 13 23 16
f 13 16 15
f 13 15 14
f 16 23 36
f 16 36 49
f 16 49 66
f 16 66 85
f 16 85 71
f 16 71 52
f 16 52 38
f 16 38 24
f 16 24 25
f 16 25 26
f 16 26 17
f 18 27 28
f 18 28 29
f 18 29 19
f 19 29 30
f 19 30 31
f 19 31 32
f 19 32 33
f 19 33 20
f 20 33 34
f 20 34 35
f 20 35 21
f 23 37 51
f 23 51 70
f 23 70 90
f 23 90 111
f 23 111 101
f 23 101 82
f 23 82 64
f 23 64 48
f 23 48 36
f 24 38 25
f 25 38 39
f 27 40 41
f 27 41 28
f 28 30 29
f 28 41 42
f 28 42 30
f 30 42 31
f 31 42 43
f 31 43 44
f 31 44 32
f 32 44 33
f 33 44 45
f 33 45 34
f 34 45 46
f 34 46 35
f 35 46 47
f 37 50 51
f 38 52 53
f 38 53 39
f 40 42 41
f 40 54 43
f 40 43 42
f 43 54 55
f 43 55 56
f 43 56 57
f 43 57 44
f 44 57 58
f 44 58 59
f 44 59 60
f 44 60 45
f 45 60 46
f 46 61 62
f 46 62 63
f 46 63 47
f 46 60 61
f 48 64 65
f 49 67 66
f 50 68 69
f 50 69 51
f 51 69 70
f 52 71 53
f 53 71 72
f 55 73 56
f 56 74 57
f 56 73 74
f 57 74 75
f 57 75 76
f 57 76 77
f 57 77 58
f 58 77 78
f 58 78 79
f 58 79 59
f 59 79 61
f 59 61 60
f 61 79 80
f 61 80 81
f 61 81 62
f 64 82 83
f 64 83 65
f 65 83 84
f 66 67 85
f 67 71 85
f 67 72 71
f 68 86 69
f 69 86 87
f 69 87 88
f 69 88 70
f 70 88 89
f 70 89 90
f 73 91 74
f 74 91 92
f 74 92 93
f 74 93 94
f 74 94 95
f 74 95 96
f 74 96 75
f 75 96 76
f 76 96 97
f 76 97 77
f 77 97 79
f 77 79 78
f 79 97 80
f 80 97 98
f 80 98 99
f 80 99 100
f 80 100 81
f 82 101 83
f 83 102 84
f 83 101 103
f 83 103 104
f 83 104 102
f 84 105 106
f 84 106 107
f 84 107 108
f 84 102 105
f 86 109 87
f 87 89 88
f 87 109 110
f 87 110 89
f 89 110 104
f 89 104 90
f 90 104 103
f 90 103 111
f 93 112 94
f 94 113 95
f 94 112 114
f 94 114 113
f 95 115 116
f 95 116 117
f 95 117 97
f 95 97 96
f 95 113 115
f 97 117 118
f 97 118 98
f 98 118 110
f 98 110 99
f 99 110 119
f 99 119 120
f 99 120 100
f 101 111 103
f 102 104 121
f 102 121 105
f 104 110 118
f 104 118 122
f 104 122 121
f 105 121 116
f 105 116 115
f 105 115 106
f 106 115 113
f 106 113 107
f 107 113 108
f 108 113 123
f 109 119 110
f 113 114 124
f 113 124 123
f 116 121 118
f 116 118 117
f 118 121 122

