v 0.20329069 -0.05510131 -0.04344852
v 0.20216970 -0.05510131 -0.04805568
v 0.20305049 0.01032195 -0.04344852
v 0.20297041 -0.05396870 -0.03888177
v 0.20297041 -0.05510131 -0.03888177
v 0.20188945 0.01032195 -0.04805568
v 0.19772577 -0.05510131 -0.05589595
v 0.19700511 -0.04478858 -0.05722960
v 0.19668483 0.03786230 -0.05722960
v 0.20204960 0.04704242 -0.04344852
v 0.20096864 0.08377781 -0.04118535
v 0.20144907 0.04704242 -0.03888177
v 0.20204960 0.01950207 -0.03888177
v 0.20220975 0.01032195 -0.03888177
v 0.20148910 0.03786230 -0.04805568
v 0.20128892 0.04704242 -0.04805568
v 0.20012790 0.09714561 -0.04805568
v 0.20096864 -0.04478858 -0.03302178
v 0.20261010 -0.05510131 -0.03775018
v 0.19860654 0.09714561 -0.05266285
v 0.19692506 -0.05510131 -0.05722960
v 0.19636455 -0.04478858 -0.05819953
v 0.19636455 0.04245237 -0.05767415
v 0.19636455 0.09714561 -0.05674464
v 0.20096864 0.08377781 -0.04397390
v 0.20096864 0.08529788 -0.04344852
v 0.19988768 0.09714561 -0.03888177
v 0.20132896 0.05163248 -0.03888177
v 0.20064836 0.09297283 -0.04344852
v 0.20096864 0.05163248 -0.03770977
v 0.20096864 0.00573189 -0.03536577
v 0.20008785 0.09714561 -0.04510548
v 0.20096864 -0.04937863 -0.03306219
v 0.20144907 -0.05510131 -0.03427460
v 0.20144907 -0.05396870 -0.03427460
v 0.19932719 -0.04478858 -0.02966744
v 0.19684498 -0.05510131 -0.05735084
v 0.19636455 -0.05396870 -0.05807829
v 0.19560387 -0.05510131 -0.05908863
v 0.14127563 0.07000762 -0.13324784
v 0.19280138 0.09714561 -0.06195801
v 0.19604427 0.09714561 -0.05722960
v 0.20000778 0.09714561 -0.04183197
v 0.19824623 0.09714561 -0.03427460
v 0.20004782 0.09714561 -0.04324645
v 0.19928714 0.05622254 -0.03427460
v 0.20096864 -0.05510131 -0.03322384
v 0.19636455 0.01950207 -0.02744468
v 0.19636455 0.00573189 -0.02700013
v 0.19596420 -0.03560846 -0.02510068
v 0.19636455 -0.04019851 -0.02554523
v 0.19604427 -0.04019851 -0.02510068
v 0.19596420 -0.05510131 -0.02522192
v 0.19924711 -0.04937863 -0.02966744
v 0.19636455 0.09297283 -0.03027364
v 0.19604427 0.09297283 -0.02966744
v 0.19636455 -0.05510131 -0.05803788
v 0.19003893 -0.05510131 -0.06644393
v 0.11589310 -0.05510131 -0.15826393
v 0.11373118 -0.01264325 -0.16246697
v 0.11373118 -0.00805319 -0.16254780
v 0.13206746 0.09714561 -0.14367459
v 0.13519023 0.09714561 -0.13991610
v 0.13535038 0.09714561 -0.13971404
v 0.19636455 0.09714561 -0.03051612
v 0.19908697 -0.05510131 -0.02966744
v 0.19304161 0.09297283 -0.02510068
v 0.19504338 0.00573189 -0.02510068
v 0.19180050 0.09714561 -0.02356496
v 0.19180050 -0.00805319 -0.02081683
v 0.19180050 -0.05510131 -0.02053393
v 0.19392238 -0.05510131 -0.02291834
v 0.19168039 -0.02182338 -0.02049352
v 0.19636455 -0.05510131 -0.02578772
v 0.19592417 0.09714561 -0.02966744
v 0.11429168 -0.05510131 -0.16012297
v 0.11373118 -0.05510131 -0.16076958
v 0.06781041 0.06082751 -0.20817490
v 0.07221432 0.06541756 -0.20417394
v 0.11373118 0.02407722 -0.16246697
v 0.07221432 0.07000762 -0.20417394
v 0.10452300 0.09714561 -0.16537676
v 0.07201414 0.07459769 -0.20417394
v 0.06781041 0.07918774 -0.20708373
v 0.06849101 0.08377781 -0.20417394
v 0.19292149 0.09714561 -0.02510068
v 0.18891794 0.09714561 -0.02049352
v 0.09035042 0.09714561 0.08349102
v -0.01021888 -0.02641343 0.19228480
v -0.00813703 -0.05510131 0.19070866
v 0.11317068 -0.05510131 -0.16125456
v 0.05860223 -0.05510131 -0.19633367
v 0.05419832 -0.05510131 -0.19883934
v 0.05347768 -0.05510131 -0.19920305
v 0.05291718 -0.05396870 -0.19960719
v 0.04943409 -0.05510131 -0.20098125
v 0.04022591 -0.05510131 -0.20332525
v 0.06524813 0.06082751 -0.20878110
v 0.06612891 0.06541756 -0.20878110
v 0.06781041 0.06541756 -0.20825573
v 0.11124897 -0.05510131 -0.16287111
v 0.06781041 0.07000762 -0.20813449
v 0.06781041 0.08443353 -0.20417394
v 0.05836201 0.09714561 -0.19629326
v 0.06781041 0.07459769 -0.20773035
v 0.06492785 0.07459769 -0.20878110
v 0.06320632 0.07835319 -0.20878110
v 0.06320632 0.07918774 -0.20861945
v 0.06320632 0.08377781 -0.20728580
v 0.06781041 0.08377781 -0.20465890
v 0.08906928 0.09714561 0.08482468
v -0.01021888 0.02407722 0.19087032
v -0.00917795 -0.00805319 0.19070866
v -0.01346176 -0.02641343 0.19531582
v -0.01021888 -0.05510131 0.19285060
v -0.00961834 -0.05510131 0.19224439
v 0.03542165 -0.05510131 -0.20364856
v 0.03566186 -0.05396870 -0.20372939
v 0.06320632 0.06541756 -0.20938732
v 0.06320632 0.07000762 -0.20938732
v 0.06604884 0.07000762 -0.20878110
v 0.06320632 0.08707132 -0.20417394
v 0.05399814 0.09714561 -0.19892016
v 0.06320632 0.07459769 -0.20918524
v 0.05860223 0.07459769 -0.20918524
v 0.05860223 0.07775708 -0.20878110
v 0.03105777 0.09714561 -0.20469933
v 0.03450083 0.09714561 -0.20449725
v 0.03858446 0.09714561 -0.20417394
v 0.04022591 0.09714561 -0.20385064
v 0.04607110 0.09714561 -0.20207243
v 0.04943409 0.09714561 -0.20090044
v 0.05263693 0.09714561 -0.19960719
v 0.08614669 0.09714561 0.08785571
v -0.01021888 0.02774331 0.19070866
v -0.01346176 0.09714561 0.19087032
v -0.01482297 0.09714561 0.19220397
v -0.01482297 0.02407722 0.19491169
v -0.01482297 -0.00805319 0.19580080
v -0.01482297 -0.02641343 0.19628576
v -0.01482297 -0.05510131 0.19656865
v -0.01314147 -0.05510131 0.19531582
v 0.03105777 -0.05510131 -0.20340609
v 0.05860223 0.06541756 -0.20938732
v 0.03105777 -0.05396870 -0.20344650
v 0.05860223 0.07000762 -0.20946814
v 0.03077752 0.09714561 -0.20465890
v -0.01330162 0.09714561 0.19070866
v -0.01866638 0.09714561 0.19531582
v -0.01942705 -0.01723331 0.19923596
v -0.01942705 -0.02641343 0.19943803
v -0.02062812 -0.05510131 0.19988258
v 0.02645368 -0.05510131 -0.20235533
v 0.03105777 -0.04478858 -0.20368898
v 0.02645368 -0.05396870 -0.20239574
v 0.03105777 0.06541756 -0.20473974
v 0.03105777 0.09297283 -0.20473974
v 0.03105777 -0.03560846 -0.20385064
v 0.02825528 0.09714561 -0.20417394
v -0.01942705 0.09714561 0.19576039
v -0.02403114 0.07459769 0.19911471
v -0.02066816 -0.01723331 0.19988258
v -0.02042794 -0.02182338 0.19988258
v -0.02403114 -0.03100349 0.20198409
v -0.02118862 -0.05510131 0.20012506
v 0.02184960 -0.05510131 -0.19980926
v 0.02184960 0.04704242 -0.20098125
v 0.02645368 0.02868218 -0.20328484
v 0.02813518 0.06541756 -0.20417394
v 0.02813518 0.09297283 -0.20417394
v 0.02661383 0.09714561 -0.20356774
v -0.02359075 0.09714561 0.19810438
v -0.02403114 0.09297283 0.19850851
v -0.02403114 0.08838276 0.19867016
v -0.02783452 0.09714561 0.19992299
v -0.02595285 0.07459769 0.19988258
v -0.02859520 0.09714561 0.20016548
v -0.02859520 -0.03100349 0.20331774
v -0.02403114 -0.05510131 0.20125665
v 0.02160938 -0.05510131 -0.19960719
v 0.02156935 -0.05396870 -0.19960719
v 0.01728554 -0.05396870 -0.19592955
v 0.02020814 0.05163248 -0.19960719
v 0.02184960 0.05163248 -0.20102166
v 0.02645368 0.06541756 -0.20364856
v 0.02645368 0.09714561 -0.20348690
v -0.02403114 0.09714561 0.19834685
v -0.03319928 0.09714561 0.20081210
v -0.03319928 -0.03100349 0.20323693
v -0.03319928 -0.03560846 0.20323693
v -0.03319928 -0.04019851 0.20315609
v -0.03319928 -0.05510131 0.20254989
v -0.02859520 -0.03560846 0.20311568
v -0.03207829 -0.05510131 0.20246905
v 0.01728554 -0.05510131 -0.19588912
v -0.10202039 -0.05510131 -0.08939894
v 0.02004800 0.09714561 -0.19960719
v 0.02184960 0.09714561 -0.20102166
v 0.02228999 0.09714561 -0.20126415
v -0.03780337 -0.03560846 0.20250948
v -0.03760319 0.09714561 0.19988258
v -0.03780337 -0.04019851 0.20238823
v -0.03780337 -0.05396870 0.20162038
v -0.03772330 -0.05510131 0.20153954
v -0.10678462 -0.05510131 -0.08487260
v -0.11126860 -0.02641343 -0.07994212
v -0.11126860 -0.02182338 -0.07978047
v -0.11126860 -0.01723331 -0.07957839
v -0.11515205 -0.01264325 -0.07561785
v -0.11587269 -0.00805319 -0.07456710
v -0.07912006 0.08377781 -0.10273547
v -0.07815921 0.08838276 -0.10318002
v -0.07687807 0.09714561 -0.10318002
v -0.04236742 -0.03560846 0.20020589
v -0.04236742 -0.04019851 0.20016548
v -0.03884430 0.07459769 0.19988258
v -0.09561470 0.09297283 0.17232041
v -0.03780337 0.09714561 0.19980175
v -0.04236742 -0.05510131 0.19972093
v -0.04200710 -0.05510131 0.19988258
v -0.12560133 -0.05396870 -0.06644393
v -0.11571255 -0.02641343 -0.07561785
v -0.12560133 -0.05510131 -0.06644393
v -0.11559244 -0.02182338 -0.07561785
v -0.11587269 -0.02182338 -0.07533495
v -0.12964492 -0.02182338 -0.06110932
v -0.12359955 0.09297283 -0.05722960
v -0.13300790 -0.01723331 -0.05722960
v -0.12964492 -0.00805319 -0.06001815
v -0.19346159 0.09714561 0.01620215
v -0.12275881 0.09714561 -0.05751250
v -0.04697151 -0.05510131 0.19705361
v -0.09749638 0.09297283 0.17122924
v -0.04236742 0.08377781 0.19798314
v -0.04236742 0.09297283 0.19774065
v -0.09529442 0.09714561 0.17232041
v -0.12964492 -0.05396870 -0.06220049
v -0.12988514 -0.04937863 -0.06183677
v -0.12936467 -0.03100349 -0.06183677
v -0.12964492 -0.05510131 -0.06220049
v -0.13324812 -0.02182338 -0.05722960
v -0.13196698 0.09714561 -0.04805568
v -0.12988514 0.09714561 -0.05019761
v -0.12764315 0.09714561 -0.05250120
v -0.12303905 0.09714561 -0.05722960
v -0.19786550 0.09297283 0.02076891
v -0.19642421 0.09714561 0.01943525
v -0.19546337 0.09714561 0.01838450
v -0.04973396 -0.05510131 0.19531582
v -0.05157560 -0.05510131 0.19410341
v -0.09669567 0.09714561 0.17147173
v -0.09749638 0.09714561 0.17094635
v -0.10210046 0.09297283 0.16763241
v -0.10166007 0.08838276 0.16775366
v -0.12964492 -0.05510131 0.13764542
v -0.12624189 -0.05510131 0.14019150
v -0.13424901 -0.04937863 -0.05702753
v -0.12964492 -0.03560846 -0.06167511
v -0.13304794 -0.05510131 -0.05836119
v -0.19870624 0.07459769 0.02076891
v -0.19850606 0.09714561 0.02177925
v -0.10141985 0.09714561 0.16775366
v -0.10210046 0.09714561 0.16714745
v -0.10602395 0.09714561 0.16310607
v -0.10638427 0.09297283 0.16314650
v -0.10666452 0.08838276 0.16298485
v -0.10650437 0.08838276 0.16314650
v -0.12964492 -0.02641343 0.13825164
v -0.12964492 -0.03100349 0.13817081
v -0.13156662 -0.05510131 0.13558432
v -0.19610393 0.01032195 0.01620215
v -0.18833703 0.00573189 0.00702824
v -0.18829700 0.01032195 0.00702824
v -0.19882634 0.07000762 0.02076891
v -0.13424901 -0.05396870 -0.05698712
v -0.14177569 -0.05396870 -0.04805568
v -0.13424901 -0.05510131 -0.05694670
v -0.20222936 0.07459769 0.02537607
v -0.20158880 0.08838276 0.02537607
v -0.20002741 0.09714561 0.02384035
v -0.13172677 0.09714561 0.13558432
v -0.12964492 0.05622254 0.13930239
v -0.12964492 0.05163248 0.13934280
v -0.13228727 -0.01264325 0.13558432
v -0.15258528 -0.02641343 0.11258892
v -0.15258528 -0.03560846 0.11238685
v -0.15258528 -0.04019851 0.11226560
v -0.15234507 -0.05510131 0.11165940
v -0.19926674 -0.05510131 0.02076891
v -0.19850606 0.00114183 0.01927360
v -0.19970713 0.00114183 0.02076891
v -0.19958702 0.02407722 0.02076891
v -0.19602386 0.01491201 0.01620215
v -0.14321698 -0.05510131 -0.04631789
v -0.13565026 -0.05510131 -0.05528974
v -0.20258969 0.02407722 0.02537607
v -0.20311015 0.07459769 0.02719469
v -0.20311015 0.08377781 0.02800297
v -0.20110837 0.09714561 0.02537607
v -0.20311015 0.09297283 0.02893248
v -0.15238510 0.03327225 0.11262933
v -0.15242515 0.09714561 0.11056823
v -0.15638867 -0.01723331 0.10802216
v -0.19394200 -0.05510131 0.05944485
v -0.19182013 -0.05510131 0.06211216
v -0.15258528 -0.05510131 0.11137650
v -0.20282991 -0.05510131 0.02537607
v -0.20286994 -0.05396870 0.02537607
v -0.20295001 -0.04937863 0.02537607
v -0.20311015 -0.04937863 0.02565897
v -0.20311015 0.02407722 0.02650766
v -0.20463151 0.00114183 0.02998324
v -0.20407100 0.07459769 0.02998324
v -0.20387083 0.08377781 0.02998324
v -0.20254966 0.09714561 0.02901331
v -0.20367065 0.08838276 0.02998324
v -0.20347047 0.09297283 0.02998324
v -0.20315019 0.09714561 0.03067027
v -0.19137974 0.09714561 0.06239505
v -0.19165998 0.09297283 0.06211216
v -0.19170002 0.08838276 0.06211216
v -0.19202030 0.02868218 0.06211216
v -0.19530322 -0.05510131 0.05754541
v -0.19546337 -0.02182338 0.05754541
v -0.19850606 -0.02182338 0.05334238
v -0.20311015 -0.05510131 0.02594186
v -0.20311015 -0.05396870 0.02582062
v -0.20471157 -0.04937863 0.02998324
v -0.20571245 -0.00344823 0.03454999
v -0.20479164 0.07918774 0.03454999
v -0.20435126 0.09714561 0.03454999
v -0.19394200 0.09714561 0.05879823
v -0.19394200 0.09297283 0.05895988
v -0.19394200 0.08838276 0.05904072
v -0.19394200 0.03327225 0.05960651
v -0.19394200 0.02868218 0.05960651
v -0.19838596 -0.05510131 0.05289783
v -0.19534325 0.03327225 0.05754541
v -0.19498294 0.08838276 0.05754541
v -0.19798560 0.08838276 0.05293824
v -0.19846603 0.01950207 0.05293824
v -0.19874628 -0.02182338 0.05293824
v -0.20110837 -0.05510131 0.04833107
v -0.20459146 -0.05510131 0.02998324
v -0.20463151 -0.05396870 0.02998324
v -0.20527207 -0.05510131 0.03454999
v -0.20519200 -0.04937863 0.03915716
v -0.20531210 0.00114183 0.03915716
v -0.20443133 0.07918774 0.03915716
v -0.20411103 0.09297283 0.03915716
v -0.20351050 0.09714561 0.03944005
v -0.19470269 0.09714561 0.05766665
v -0.19490286 0.09297283 0.05754541
v -0.19790553 0.09297283 0.05293824
v -0.19850606 0.09297283 0.05188748
v -0.20050784 0.09297283 0.04833107
v -0.20130855 0.00114183 0.04833107
v -0.20130855 -0.02641343 0.04833107
v -0.20311015 -0.05510131 0.04465342
v -0.20507189 -0.05510131 0.03915716
v -0.20355055 -0.05510131 0.04376432
v -0.20359058 -0.04937863 0.04376432
v -0.20367065 0.00114183 0.04376432
v -0.20311015 0.08838276 0.04303687
v -0.20311015 0.09297283 0.04267315
v -0.20262973 0.09714561 0.04376432
v -0.20286994 0.09714561 0.04263274
v -0.19478276 0.09714561 0.05754541
v -0.19774540 0.09714561 0.05293824
v -0.20038773 0.09714561 0.04833107
v -0.20270979 0.09297283 0.04376432
v -0.20278986 0.08838276 0.04376432
v -0.20311015 -0.00344823 0.04489591
v -0.20311015 0.08377781 0.04315812
f 1 2 3
f 1 3 4
f 1 4 5
f 1 5 19
f 1 19 34
f 1 34 47
f 1 47 66
f 1 66 74
f 1 74 53
f 1 53 72
f 1 72 71
f 1 71 90
f 1 90 116
f 1 116 115
f 1 115 142
f 1 142 141
f 1 141 152
f 1 152 165
f 1 165 179
f 1 179 194
f 1 194 192
f 1 192 204
f 1 204 220
f 1 220 219
f 1 219 232
f 1 232 249
f 1 249 250
f 1 250 256
f 1 256 255
f 1 255 270
f 1 270 288
f 1 288 306
f 1 306 305
f 1 305 304
f 1 304 323
f 1 323 337
f 1 337 343
f 1 343 359
f 1 359 361
f 1 361 360
f 1 360 346
f 1 346 344
f 1 344 326
f 1 326 307
f 1 307 289
f 1 289 294
f 1 294 295
f 1 295 277
f 1 277 259
f 1 259 240
f 1 240 223
f 1 223 205
f 1 205 196
f 1 196 195
f 1 195 180
f 1 180 166
f 1 166 153
f 1 153 143
f 1 143 117
f 1 117 97
f 1 97 96
f 1 96 94
f 1 94 93
f 1 93 92
f 1 92 101
f 1 101 91
f 1 91 77
f 1 77 76
f 1 76 59
f 1 59 58
f 1 58 39
f 1 39 57
f 1 57 37
f 1 37 21
f 1 21 7
f 1 7 2
f 2 6 3
f 2 7 8
f 2 8 9
f 2 9 6
f 3 10 11
f 3 11 12
f 3 12 13
f 3 13 14
f 3 14 4
f 3 6 15
f 3 15 16
f 3 16 17
f 3 17 10
f 4 18 19
f 4 19 5
f 4 14 18
f 6 9 20
f 6 20 15
f 7 21 8
f 8 21 37
f 8 37 22
f 8 22 9
f 9 22 23
f 9 23 24
f 9 24 20
f 10 25 26
f 10 26 11
f 10 17 25
f 11 27 28
f 11 28 12
f 11 26 29
f 11 29 27
f 12 28 30
f 12 30 13
f 13 30 31
f 13 31 14
f 14 31 18
f 15 20 16
f 16 20 17
f 17 20 24
f 17 24 42
f 17 42 41
f 17 41 64
f 17 64 63
f 17 63 62
f 17 62 82
f 17 82 104
f 17 104 123
f 17 123 133
f 17 133 132
f 17 132 131
f 17 131 130
f 17 130 129
f 17 129 128
f 17 128 127
f 17 127 147
f 17 147 159
f 17 159 171
f 17 171 186
f 17 186 199
f 17 199 198
f 17 198 197
f 17 197 213
f 17 213 231
f 17 231 245
f 17 245 244
f 17 244 243
f 17 243 242
f 17 242 230
f 17 230 248
f 17 248 247
f 17 247 261
f 17 261 280
f 17 280 299
f 17 299 315
f 17 315 318
f 17 318 331
f 17 331 351
f 17 351 367
f 17 367 366
f 17 366 370
f 17 370 369
f 17 369 368
f 17 368 352
f 17 352 332
f 17 332 319
f 17 319 302
f 17 302 281
f 17 281 264
f 17 264 263
f 17 263 262
f 17 262 252
f 17 252 251
f 17 251 236
f 17 236 218
f 17 218 201
f 17 201 188
f 17 188 177
f 17 177 175
f 17 175 187
f 17 187 172
f 17 172 160
f 17 160 149
f 17 149 137
f 17 137 136
f 17 136 148
f 17 148 134
f 17 134 111
f 17 111 88
f 17 88 87
f 17 87 69
f 17 69 86
f 17 86 75
f 17 75 65
f 17 65 44
f 17 44 27
f 17 27 43
f 17 43 45
f 17 45 32
f 17 32 29
f 17 29 26
f 17 26 25
f 18 33 34
f 18 34 35
f 18 35 19
f 18 31 36
f 18 36 33
f 19 35 34
f 22 37 38
f 22 38 39
f 22 39 40
f 22 40 23
f 23 41 42
f 23 42 24
f 23 40 41
f 27 29 43
f 27 44 30
f 27 30 28
f 29 32 45
f 29 45 43
f 30 44 46
f 30 46 31
f 31 46 36
f 33 47 34
f 33 36 47
f 36 48 49
f 36 49 50
f 36 50 51
f 36 51 52
f 36 52 53
f 36 53 54
f 36 54 47
f 36 46 55
f 36 55 56
f 36 56 48
f 37 57 38
f 38 57 39
f 39 58 40
f 40 59 60
f 40 60 61
f 40 61 62
f 40 62 63
f 40 63 64
f 40 64 41
f 40 58 59
f 44 65 55
f 44 55 46
f 47 54 66
f 48 67 68
f 48 68 49
f 48 56 67
f 49 68 50
f 50 52 51
f 50 68 69
f 50 69 70
f 50 70 52
f 52 71 72
f 52 72 53
f 52 70 73
f 52 73 71
f 53 74 54
f 54 74 66
f 55 65 75
f 55 75 56
f 56 75 86
f 56 86 67
f 59 76 60
f 60 76 77
f 60 77 78
f 60 78 79
f 60 79 61
f 61 80 62
f 61 79 81
f 61 81 80
f 62 80 81
f 62 81 83
f 62 83 84
f 62 84 85
f 62 85 82
f 67 86 69
f 67 69 68
f 69 87 70
f 70 87 88
f 70 88 89
f 70 89 90
f 70 90 73
f 71 73 90
f 77 91 78
f 78 92 93
f 78 93 94
f 78 94 95
f 78 95 96
f 78 96 97
f 78 97 98
f 78 98 99
f 78 99 100
f 78 100 79
f 78 91 101
f 78 101 92
f 79 100 81
f 81 100 102
f 81 102 83
f 82 85 103
f 82 103 104
f 83 102 105
f 83 105 84
f 84 105 106
f 84 106 107
f 84 107 108
f 84 108 109
f 84 109 110
f 84 110 85
f 85 110 103
f 88 111 112
f 88 112 113
f 88 113 89
f 89 113 112
f 89 112 114
f 89 114 115
f 89 115 116
f 89 116 90
f 94 96 95
f 97 117 118
f 97 118 119
f 97 119 98
f 98 119 99
f 99 119 120
f 99 120 121
f 99 121 100
f 100 121 102
f 102 121 105
f 103 110 109
f 103 109 122
f 103 122 104
f 104 122 123
f 105 121 106
f 106 121 124
f 106 124 107
f 107 124 125
f 107 125 126
f 107 126 127
f 107 127 108
f 108 127 109
f 109 127 128
f 109 128 129
f 109 129 130
f 109 130 131
f 109 131 132
f 109 132 133
f 109 133 122
f 111 134 112
f 112 135 136
f 112 136 137
f 112 137 138
f 112 138 114
f 112 134 135
f 114 138 139
f 114 139 140
f 114 140 141
f 114 141 142
f 114 142 115
f 117 143 118
f 118 144 119
f 118 143 145
f 118 145 144
f 119 144 146
f 119 146 120
f 120 124 121
f 120 146 124
f 122 133 123
f 124 146 125
f 125 146 127
f 125 127 126
f 127 146 147
f 134 148 135
f 135 148 136
f 137 149 138
f 138 149 150
f 138 150 139
f 139 150 140
f 140 150 151
f 140 151 141
f 141 151 152
f 143 153 155
f 143 155 145
f 144 145 154
f 144 154 158
f 144 158 146
f 145 155 154
f 146 156 157
f 146 157 147
f 146 158 156
f 147 157 159
f 149 160 150
f 150 160 161
f 150 161 162
f 150 162 163
f 150 163 151
f 151 163 164
f 151 164 152
f 152 164 165
f 153 166 155
f 154 155 158
f 155 166 167
f 155 167 168
f 155 168 169
f 155 169 158
f 156 169 170
f 156 170 157
f 156 158 169
f 157 170 159
f 159 170 171
f 160 172 173
f 160 173 174
f 160 174 161
f 161 174 175
f 161 175 176
f 161 176 164
f 161 164 162
f 162 164 163
f 164 176 175
f 164 175 177
f 164 177 178
f 164 178 179
f 164 179 165
f 166 180 181
f 166 181 167
f 167 181 182
f 167 182 183
f 167 183 184
f 167 184 185
f 167 185 168
f 168 185 169
f 169 185 170
f 170 185 171
f 171 185 186
f 172 187 173
f 173 187 175
f 173 175 174
f 177 188 178
f 178 189 190
f 178 190 191
f 178 191 192
f 178 192 193
f 178 193 179
f 178 188 189
f 179 193 194
f 180 195 182
f 180 182 181
f 182 195 196
f 182 196 183
f 183 197 184
f 183 196 197
f 184 197 198
f 184 198 185
f 185 198 199
f 185 199 186
f 188 200 189
f 188 201 200
f 189 200 190
f 190 200 191
f 191 200 202
f 191 202 192
f 192 194 193
f 192 202 203
f 192 203 204
f 196 205 206
f 196 206 197
f 197 206 207
f 197 207 208
f 197 208 209
f 197 209 210
f 197 210 211
f 197 211 212
f 197 212 213
f 200 214 215
f 200 215 202
f 200 201 216
f 200 216 217
f 200 217 214
f 201 218 216
f 202 215 219
f 202 219 220
f 202 220 203
f 203 220 204
f 205 221 222
f 205 222 206
f 205 223 221
f 206 222 224
f 206 224 207
f 207 224 208
f 208 224 209
f 209 224 225
f 209 225 226
f 209 226 210
f 210 227 211
f 210 226 228
f 210 228 229
f 210 229 230
f 210 230 227
f 211 227 212
f 212 227 231
f 212 231 213
f 214 217 215
f 215 232 219
f 215 217 233
f 215 233 232
f 216 218 234
f 216 234 217
f 217 234 235
f 217 235 218
f 217 218 236
f 217 236 233
f 218 235 234
f 221 237 238
f 221 238 239
f 221 239 225
f 221 225 224
f 221 224 222
f 221 223 240
f 221 240 237
f 225 239 226
f 226 239 241
f 226 241 228
f 227 242 243
f 227 243 244
f 227 244 245
f 227 245 231
f 227 230 242
f 228 241 246
f 228 246 247
f 228 247 248
f 228 248 230
f 228 230 229
f 232 233 249
f 233 250 249
f 233 236 251
f 233 251 252
f 233 252 253
f 233 253 254
f 233 254 255
f 233 255 256
f 233 256 250
f 237 240 257
f 237 257 238
f 238 257 258
f 238 258 239
f 239 258 257
f 239 257 241
f 240 259 257
f 241 257 260
f 241 260 246
f 246 260 261
f 246 261 247
f 252 262 253
f 253 262 263
f 253 263 264
f 253 264 265
f 253 265 266
f 253 266 267
f 253 267 268
f 253 268 269
f 253 269 255
f 253 255 254
f 255 269 270
f 257 271 272
f 257 272 273
f 257 273 274
f 257 274 260
f 257 259 275
f 257 275 276
f 257 276 271
f 259 277 275
f 260 274 278
f 260 278 261
f 261 278 279
f 261 279 280
f 264 281 265
f 265 281 282
f 265 282 266
f 266 282 283
f 266 283 267
f 267 283 268
f 268 283 284
f 268 284 269
f 269 284 270
f 270 284 285
f 270 285 286
f 270 286 287
f 270 287 288
f 271 289 290
f 271 290 291
f 271 291 292
f 271 292 274
f 271 274 293
f 271 293 273
f 271 273 272
f 271 276 294
f 271 294 289
f 273 293 274
f 274 292 278
f 275 277 295
f 275 295 294
f 275 294 276
f 278 292 296
f 278 296 297
f 278 297 298
f 278 298 279
f 279 299 280
f 279 298 300
f 279 300 299
f 281 301 282
f 281 302 301
f 282 301 283
f 283 301 285
f 283 285 284
f 285 301 303
f 285 303 286
f 286 303 304
f 286 304 287
f 287 304 305
f 287 305 306
f 287 306 288
f 289 307 308
f 289 308 309
f 289 309 291
f 289 291 290
f 291 309 296
f 291 296 292
f 296 309 310
f 296 310 311
f 296 311 297
f 297 311 312
f 297 312 313
f 297 313 314
f 297 314 298
f 298 314 300
f 299 300 315
f 300 314 316
f 300 316 317
f 300 317 318
f 300 318 315
f 301 302 319
f 301 319 320
f 301 320 321
f 301 321 303
f 303 321 322
f 303 322 304
f 304 322 324
f 304 324 325
f 304 325 323
f 307 326 327
f 307 327 308
f 308 327 310
f 308 310 309
f 310 328 312
f 310 312 311
f 310 327 328
f 312 328 329
f 312 329 313
f 313 329 330
f 313 330 314
f 314 330 331
f 314 331 316
f 316 331 317
f 317 331 318
f 319 332 333
f 319 333 320
f 320 333 334
f 320 334 321
f 321 334 335
f 321 335 322
f 322 335 336
f 322 336 324
f 323 325 337
f 324 335 325
f 324 336 335
f 325 335 338
f 325 338 339
f 325 339 340
f 325 340 341
f 325 341 342
f 325 342 343
f 325 343 337
f 326 344 327
f 327 344 345
f 327 345 328
f 328 345 346
f 328 346 329
f 329 346 347
f 329 347 348
f 329 348 330
f 330 348 349
f 330 349 350
f 330 350 331
f 331 350 351
f 332 352 353
f 332 353 333
f 333 353 339
f 333 339 334
f 334 339 335
f 335 339 338
f 339 353 354
f 339 354 340
f 340 354 355
f 340 355 356
f 340 356 357
f 340 357 341
f 341 357 342
f 342 357 358
f 342 358 343
f 343 358 359
f 344 346 345
f 346 360 347
f 347 360 361
f 347 361 362
f 347 362 348
f 348 362 363
f 348 363 364
f 348 364 349
f 349 364 365
f 349 365 350
f 350 365 366
f 350 366 367
f 350 367 351
f 352 368 353
f 353 368 354
f 354 369 370
f 354 370 355
f 354 368 369
f 355 370 356
f 356 370 366
f 356 366 371
f 356 371 372
f 356 372 363
f 356 363 357
f 357 373 358
f 357 363 373
f 358 373 362
f 358 362 359
f 359 362 361
f 362 373 363
f 363 372 374
f 363 374 364
f 364 374 372
f 364 372 371
f 364 371 366
f 364 366 365

