v -0.85794545 0.16000183 -0.15333363
v -0.87223772 0.16542789 -0.15333363
v -0.85794545 0.16036661 -0.16760136
v -0.84366033 0.16075418 -0.16760136
v -0.84366033 0.16193971 -0.15333363
v -0.85794545 0.16130135 -0.13904215
v -0.87223772 0.16624864 -0.13904215
v -0.88068378 0.17053477 -0.15333363
v -0.88012359 0.17108193 -0.16465761
v -0.87358073 0.16754816 -0.16869340
v -0.88061202 0.17076275 -0.13904215
v -0.87062172 0.16830051 -0.18189284
v -0.85794545 0.16264647 -0.18189284
v -0.84366033 0.16152934 -0.18189284
v -0.83347616 0.16750257 -0.16760136
v -0.83193923 0.16809532 -0.19618432
v -0.83244197 0.16718339 -0.18189284
v -0.83462531 0.16880208 -0.15333363
v -0.84223830 0.16611184 -0.13761775
v -0.84471609 0.16745696 -0.12475068
v -0.85794545 0.16449315 -0.12475068
v -0.87267580 0.16928085 -0.12489312
v -0.88002300 0.17140111 -0.12975982
v -0.88327647 0.17912983 -0.13904215
v -0.88042525 0.17912983 -0.16700787
v -0.87924738 0.17912983 -0.17415361
v -0.87707841 0.17912983 -0.18189284
v -0.87248188 0.17912983 -0.19618432
v -0.86778481 0.17949460 -0.20931254
v -0.86538604 0.17176588 -0.20375738
v -0.86738261 0.17039798 -0.19618432
v -0.88222071 0.17912983 -0.15333363
v -0.88257982 0.17824068 -0.12489312
v -0.85794545 0.16679581 -0.19618432
v -0.84366033 0.16449315 -0.19618432
v -0.83344744 0.16991921 -0.20803058
v -0.82622234 0.17912983 -0.18189284
v -0.82079984 0.18339316 -0.21047580
v -0.82130263 0.18539943 -0.23312374
v -0.82053411 0.18394032 -0.22476728
v -0.83565950 0.17044357 -0.14143989
v -0.83652135 0.17199387 -0.13192016
v -0.84786182 0.17003320 -0.11045920
v -0.85023907 0.17167470 -0.10274370
v -0.85224286 0.17167470 -0.10274370
v -0.85738521 0.16966843 -0.11007936
v -0.86820137 0.17071715 -0.11456622
v -0.87773197 0.17290582 -0.12021634
v -0.88095671 0.18455588 -0.10044092
v -0.88246492 0.18209365 -0.11045920
v -0.88531624 0.19342453 -0.11045920
v -0.88454772 0.19342453 -0.12475068
v -0.88003742 0.18822646 -0.16498996
v -0.87306363 0.19342453 -0.19618432
v -0.86993227 0.19342453 -0.21047580
v -0.86659979 0.19342453 -0.22198969
v -0.86636999 0.18451029 -0.21985309
v -0.85719850 0.18259521 -0.22467231
v -0.85794545 0.17491209 -0.21311094
v -0.85794545 0.17062597 -0.20596519
v -0.84366033 0.16925805 -0.20917010
v -0.84366033 0.17270063 -0.21631583
v -0.82937521 0.17933502 -0.22476728
v -0.82166169 0.18466988 -0.19993523
v -0.81712266 0.19342453 -0.21047580
v -0.82846312 0.17912983 -0.16760136
v -0.81571499 0.19342453 -0.22476728
v -0.81195874 0.20356988 -0.22505215
v -0.81195874 0.20457302 -0.22130124
v -0.82937521 0.18455588 -0.23409709
v -0.82937521 0.19075709 -0.24124284
v -0.81960766 0.19871379 -0.24791376
v -0.81195874 0.21414842 -0.25776586
v -0.81195874 0.21027267 -0.25187835
v -0.81195874 0.20299993 -0.23891631
v -0.81195874 0.20190559 -0.23495173
v -0.81195874 0.25206244 -0.12622256
v -0.83660037 0.18656216 -0.10388322
v -0.83756996 0.17415974 -0.12475068
v -0.83992565 0.17942620 -0.10936716
v -0.84582210 0.17919822 -0.09725976
v -0.84774692 0.18400873 -0.08603074
v -0.85794545 0.18368954 -0.08565091
v -0.85738521 0.17609762 -0.09725976
v -0.86177346 0.17274623 -0.10504648
v -0.87267580 0.17482090 -0.11007936
v -0.87228796 0.18213924 -0.09588284
v -0.87708556 0.18772488 -0.09092119
v -0.88145945 0.19725469 -0.08524732
v -0.88296050 0.19285456 -0.09588284
v -0.88258708 0.20701247 -0.08104534
v -0.88456929 0.20769644 -0.09616772
v -0.88031035 0.23197689 -0.08187625
v -0.88216326 0.20910993 -0.11183611
v -0.82324175 0.33233618 -0.23905873
v -0.87558451 0.19342453 -0.18189284
v -0.87279069 0.26487523 -0.06758477
v -0.86595343 0.28911009 -0.06475971
v -0.85701894 0.22199113 -0.23905873
v -0.86582411 0.20288593 -0.22120627
v -0.85324117 0.22199113 -0.25147477
v -0.85898680 0.20769644 -0.23905873
v -0.85319809 0.20769644 -0.24926695
v -0.85170424 0.19973972 -0.24691668
v -0.85193404 0.18574142 -0.23255400
v -0.84366033 0.17837747 -0.22476728
v -0.84366033 0.18480666 -0.23366977
v -0.84366033 0.19153225 -0.24081550
v -0.82937521 0.19791585 -0.24857850
v -0.82052695 0.21439920 -0.26078084
v -0.81195874 0.21686146 -0.25999742
v -0.81195874 0.28917850 -0.06271807
v -0.81659120 0.27914714 -0.05329330
v -0.82079984 0.26480682 -0.05445656
v -0.82734991 0.23628583 -0.06758477
v -0.83785726 0.18888761 -0.09616772
v -0.83426620 0.20683008 -0.08149641
v -0.83703129 0.20147242 -0.07648727
v -0.83667218 0.21499197 -0.06065269
v -0.84655468 0.19727749 -0.07152561
v -0.85794545 0.18952597 -0.07850517
v -0.86756217 0.18510306 -0.08750263
v -0.87280511 0.19319655 -0.08161511
v -0.87804800 0.20179160 -0.07572759
v -0.88093514 0.21132141 -0.07223781
v -0.88102858 0.22326785 -0.06751355
v -0.88275227 0.22199113 -0.08187625
v -0.87946998 0.24378656 -0.06115123
v -0.87890984 0.24200828 -0.07069471
v -0.82014627 0.34989106 -0.22460109
v -0.82249481 0.33003352 -0.24743896
v -0.85263790 0.23674180 -0.23863144
v -0.85952546 0.22199113 -0.22476728
v -0.82157551 0.38418011 -0.15333363
v -0.87730105 0.24937220 -0.06658769
v -0.86621195 0.28977125 -0.05329330
v -0.85515163 0.32200841 -0.06758477
v -0.85964036 0.30773653 -0.06758477
v -0.84865185 0.33555077 -0.08142519
v -0.82217883 0.38618640 -0.14592676
v -0.84582931 0.25058053 -0.25335024
v -0.85176885 0.23227328 -0.24986043
v -0.84939159 0.23674180 -0.25413365
v -0.83653571 0.25783048 -0.27481119
v -0.83653571 0.25753408 -0.27481119
v -0.84730163 0.22199113 -0.25862050
v -0.84015550 0.22199113 -0.26263256
v -0.83708874 0.21462719 -0.26063841
v -0.84366033 0.19869100 -0.24781880
v -0.82937521 0.20719485 -0.25572423
v -0.82937521 0.21435361 -0.26082832
v -0.82937521 0.22199113 -0.26486413
v -0.81548514 0.22107920 -0.26362963
v -0.81195874 0.22253829 -0.26332101
v -0.81195874 0.29426256 -0.05421915
v -0.81238971 0.29344184 -0.05329330
v -0.82143904 0.26952612 -0.04493681
v -0.82308377 0.25999634 -0.05046824
v -0.83523579 0.21100221 -0.07019617
v -0.83451041 0.22452178 -0.05687803
v -0.83474021 0.24018438 -0.04460446
v -0.84232447 0.22066882 -0.05419541
v -0.84620278 0.21195977 -0.05830243
v -0.85794545 0.19668472 -0.07095585
v -0.86851740 0.19866819 -0.07292627
v -0.87597956 0.21934649 -0.06271807
v -0.86644895 0.21389764 -0.05977432
v -0.87947723 0.22887629 -0.06032033
v -0.87951311 0.23628583 -0.06022537
v -0.87946998 0.24378656 -0.06027285
v -0.81780495 0.36489254 -0.21047580
v -0.82074239 0.32688731 -0.25698244
v -0.82307656 0.31735753 -0.26218150
v -0.82391689 0.32207683 -0.25266176
v -0.83701693 0.27367547 -0.26227647
v -0.82087170 0.33947212 -0.23905873
v -0.81792705 0.37918721 -0.18189284
v -0.86367671 0.29693001 -0.05329330
v -0.85189816 0.33142424 -0.05799381
v -0.85184787 0.33169782 -0.06758477
v -0.86925714 0.27914714 -0.05329330
v -0.86572358 0.28810697 -0.04536414
v -0.84367469 0.35059781 -0.08187625
v -0.83796495 0.36151834 -0.09616772
v -0.83471148 0.36455055 -0.11067286
v -0.81320126 0.39138446 -0.16760136
v -0.81195874 0.39010774 -0.17918648
v -0.81195874 0.38930979 -0.18189284
v -0.82295446 0.38732629 -0.13640702
v -0.83801524 0.26350730 -0.26728560
v -0.82839847 0.29344184 -0.26764169
v -0.82434781 0.30673339 -0.26723811
v -0.82257383 0.30130734 -0.27507232
v -0.82379478 0.29344184 -0.27590321
v -0.82571239 0.27914714 -0.27661543
v -0.82968408 0.26350730 -0.27599818
v -0.82937521 0.25520862 -0.27538093
v -0.82937521 0.24804989 -0.27412271
v -0.82937521 0.23628583 -0.27101277
v -0.84228854 0.23628583 -0.26571877
v -0.81508294 0.23628583 -0.27041928
v -0.81195874 0.23270645 -0.26795030
v -0.81195874 0.29537971 -0.05319833
v -0.82000265 0.27914714 -0.04322753
v -0.82845592 0.26480682 -0.04109093
v -0.83225526 0.25058053 -0.04256281
v -0.84366033 0.25058053 -0.03914425
v -0.84366033 0.23751694 -0.04372607
v -0.84366033 0.23038100 -0.04709715
v -0.85794545 0.21195977 -0.05832617
v -0.85794545 0.20482380 -0.06381011
v -0.87162724 0.22326785 -0.05801755
v -0.85794545 0.22199113 -0.05234369
v -0.85794545 0.23197689 -0.04731081
v -0.86586720 0.24230465 -0.04572024
v -0.86708100 0.25058053 -0.04472315
v -0.86777766 0.26487523 -0.04374982
v -0.86684400 0.27914714 -0.04427210
v -0.81195874 0.37512909 -0.21315841
v -0.81302886 0.36575888 -0.22540825
v -0.81195874 0.37670218 -0.21047580
v -0.81195874 0.36377539 -0.23063105
v -0.81195874 0.35828093 -0.23775303
v -0.81195874 0.34879674 -0.24800873
v -0.81195874 0.34644848 -0.25045394
v -0.81195874 0.33297454 -0.26099451
v -0.81195874 0.33069467 -0.26277501
v -0.81195874 0.38331377 -0.19611310
v -0.81320126 0.38057793 -0.19753750
v -0.81195874 0.37770533 -0.20843416
v -0.85223570 0.31733473 -0.04496055
v -0.83948757 0.34644848 -0.05815999
v -0.83810862 0.35978566 -0.07214285
v -0.83877655 0.36167791 -0.08187625
v -0.85859180 0.29309985 -0.04211176
v -0.85447649 0.30773653 -0.04332250
v -0.83507059 0.36867708 -0.09616772
v -0.81442938 0.39206841 -0.15333363
v -0.81195874 0.39272957 -0.15594503
v -0.81195874 0.39181763 -0.16760136
v -0.82356493 0.38787349 -0.12475068
v -0.81508294 0.30171769 -0.27514354
v -0.81508294 0.29344184 -0.27652046
v -0.81508294 0.27914714 -0.27768372
v -0.81508294 0.26487523 -0.27701901
v -0.81508294 0.25457026 -0.27552338
v -0.81508294 0.24743433 -0.27388532
v -0.81195874 0.25539102 -0.27533345
v -0.81195874 0.30283484 -0.04942367
v -0.81802759 0.29344184 -0.04185062
v -0.82937521 0.27914714 -0.03724506
v -0.84366033 0.26487523 -0.03610553
v -0.85794545 0.25058053 -0.04128085
v -0.85794545 0.23911285 -0.04455697
v -0.85794545 0.26487523 -0.03909678
v -0.85794545 0.27914714 -0.03926296
v -0.81195874 0.36865428 -0.22393636
v -0.81195874 0.30158092 -0.27509606
v -0.83764177 0.32978274 -0.04583893
v -0.84716516 0.32686451 -0.04847407
v -0.84366033 0.30773653 -0.03921548
v -0.84290623 0.32207683 -0.04398722
v -0.82937521 0.34827238 -0.05683055
v -0.82937521 0.35543112 -0.06288425
v -0.82937521 0.36211109 -0.07002999
v -0.82590631 0.37455912 -0.08543725
v -0.82225065 0.38634597 -0.10326598
v -0.82304068 0.38714393 -0.11045920
v -0.84366033 0.29344184 -0.03617676
v -0.81195874 0.39291196 -0.15333363
v -0.81647625 0.39127046 -0.14032412
v -0.81508294 0.39193161 -0.12475068
v -0.81195874 0.29344184 -0.27621185
v -0.81195874 0.27914714 -0.27723266
v -0.81195874 0.27506617 -0.27706649
v -0.81195874 0.26487523 -0.27659166
v -0.81195874 0.26170623 -0.27625933
v -0.81195874 0.31975137 -0.04714463
v -0.81671325 0.30773653 -0.04227794
v -0.82937521 0.29344184 -0.03634293
v -0.84366033 0.27914714 -0.03515594
v -0.82937521 0.33021591 -0.04560153
v -0.82937521 0.33735185 -0.04968481
v -0.82937521 0.32200841 -0.04242037
v -0.82937521 0.30773653 -0.03817092
v -0.81508294 0.34799878 -0.05721039
v -0.81508294 0.35515754 -0.06248067
v -0.81508294 0.36300025 -0.06962641
v -0.81508294 0.37013619 -0.07700955
v -0.81508294 0.37556226 -0.08415529
v -0.81508294 0.38269820 -0.09600154
v -0.81508294 0.38641436 -0.10314728
v -0.81508294 0.38876263 -0.11045920
v -0.81195874 0.39277516 -0.12788435
v -0.81195874 0.38967457 -0.11359287
v -0.81195874 0.39213683 -0.12475068
v -0.81195874 0.32200841 -0.04757195
v -0.81820715 0.32200841 -0.04424836
v -0.82079268 0.32994233 -0.04574398
v -0.81195874 0.34736042 -0.05770894
v -0.81565033 0.33534558 -0.05008839
v -0.81195874 0.33933534 -0.05326956
v -0.81195874 0.35629746 -0.06459353
v -0.81195874 0.36243028 -0.07017243
v -0.81195874 0.36398057 -0.07166805
v -0.81195874 0.36956624 -0.07746061
v -0.81195874 0.37102533 -0.07900371
v -0.81195874 0.37526587 -0.08460634
v -0.81195874 0.37702135 -0.08733644
v -0.81195874 0.38424850 -0.09896904
v -0.81195874 0.38641436 -0.10314728
f 1 2 3
f 1 3 4
f 1 4 5
f 1 5 6
f 1 6 7
f 1 7 2
f 2 8 9
f 2 9 10
f 2 10 3
f 2 7 11
f 2 11 8
f 3 10 12
f 3 12 13
f 3 13 14
f 3 14 4
f 4 15 5
f 4 14 16
f 4 16 17
f 4 17 15
f 5 15 18
f 5 18 19
f 5 19 20
f 5 20 6
f 6 20 21
f 6 21 22
f 6 22 7
f 7 22 23
f 7 23 11
f 8 11 24
f 8 24 9
f 9 25 26
f 9 26 27
f 9 27 28
f 9 28 29
f 9 29 30
f 9 30 31
f 9 31 12
f 9 12 10
f 9 24 32
f 9 32 25
f 11 23 33
f 11 33 24
f 12 31 13
f 13 31 30
f 13 30 34
f 13 34 35
f 13 35 14
f 14 35 36
f 14 36 16
f 15 37 18
f 15 17 38
f 15 38 37
f 16 36 39
f 16 39 40
f 16 40 17
f 17 40 38
f 18 37 41
f 18 41 19
f 19 41 42
f 19 42 20
f 20 42 43
f 20 43 21
f 21 43 44
f 21 44 45
f 21 45 46
f 21 46 47
f 21 47 22
f 22 47 48
f 22 48 23
f 23 48 49
f 23 49 50
f 23 50 33
f 24 33 51
f 24 51 52
f 24 52 32
f 25 32 53
f 25 53 26
f 26 53 54
f 26 54 55
f 26 55 27
f 27 55 56
f 27 56 57
f 27 57 28
f 28 57 29
f 29 57 30
f 30 57 58
f 30 58 59
f 30 59 60
f 30 60 34
f 32 52 53
f 33 50 51
f 34 60 61
f 34 61 35
f 35 61 36
f 36 61 62
f 36 62 63
f 36 63 39
f 37 64 65
f 37 65 66
f 37 66 42
f 37 42 41
f 37 38 64
f 38 40 67
f 38 67 68
f 38 68 69
f 38 69 65
f 38 65 64
f 39 63 70
f 39 70 71
f 39 71 72
f 39 72 73
f 39 73 74
f 39 74 75
f 39 75 40
f 40 75 76
f 40 76 67
f 42 77 78
f 42 78 79
f 42 79 43
f 42 66 77
f 43 80 81
f 43 81 44
f 43 79 80
f 44 81 82
f 44 82 83
f 44 83 45
f 45 83 84
f 45 84 85
f 45 85 46
f 46 85 47
f 47 85 86
f 47 86 48
f 48 86 49
f 49 87 88
f 49 88 89
f 49 89 90
f 49 90 50
f 49 86 87
f 50 90 51
f 51 90 91
f 51 91 92
f 51 92 52
f 52 92 93
f 52 93 94
f 52 94 53
f 53 95 96
f 53 96 54
f 53 94 93
f 53 93 97
f 53 97 98
f 53 98 95
f 54 96 99
f 54 99 100
f 54 100 55
f 55 100 56
f 56 100 101
f 56 101 102
f 56 102 103
f 56 103 57
f 57 103 104
f 57 104 105
f 57 105 58
f 58 105 59
f 59 105 62
f 59 62 60
f 60 62 61
f 62 105 106
f 62 106 70
f 62 70 63
f 65 69 77
f 65 77 66
f 67 76 68
f 68 76 75
f 68 75 74
f 68 74 73
f 68 73 111
f 68 111 154
f 68 154 202
f 68 202 248
f 68 248 277
f 68 277 276
f 68 276 275
f 68 275 274
f 68 274 273
f 68 273 258
f 68 258 227
f 68 227 226
f 68 226 225
f 68 225 224
f 68 224 223
f 68 223 222
f 68 222 257
f 68 257 219
f 68 219 221
f 68 221 230
f 68 230 228
f 68 228 188
f 68 188 187
f 68 187 240
f 68 240 239
f 68 239 270
f 68 270 294
f 68 294 296
f 68 296 295
f 68 295 311
f 68 311 310
f 68 310 309
f 68 309 308
f 68 308 307
f 68 307 306
f 68 306 305
f 68 305 304
f 68 304 303
f 68 303 300
f 68 300 302
f 68 302 297
f 68 297 278
f 68 278 249
f 68 249 203
f 68 203 155
f 68 155 112
f 68 112 77
f 68 77 69
f 70 106 107
f 70 107 71
f 71 107 108
f 71 108 109
f 71 109 72
f 72 109 110
f 72 110 111
f 72 111 73
f 77 112 113
f 77 113 114
f 77 114 115
f 77 115 78
f 78 116 79
f 78 115 117
f 78 117 118
f 78 118 116
f 79 116 80
f 80 116 81
f 81 116 118
f 81 118 82
f 82 118 119
f 82 119 120
f 82 120 121
f 82 121 83
f 83 122 84
f 83 121 122
f 84 122 85
f 85 122 87
f 85 87 86
f 87 122 88
f 88 122 123
f 88 123 124
f 88 124 89
f 89 124 125
f 89 125 91
f 89 91 90
f 91 125 126
f 91 126 92
f 92 126 127
f 92 127 93
f 93 127 128
f 93 128 129
f 93 129 97
f 95 130 131
f 95 131 132
f 95 132 133
f 95 133 96
f 95 98 134
f 95 134 130
f 96 133 99
f 97 129 135
f 97 135 128
f 97 128 98
f 98 128 136
f 98 136 137
f 98 137 138
f 98 138 139
f 98 139 140
f 98 140 134
f 99 133 132
f 99 132 141
f 99 141 142
f 99 142 101
f 99 101 100
f 101 103 102
f 101 142 143
f 101 143 144
f 101 144 145
f 101 145 146
f 101 146 103
f 103 146 104
f 104 108 105
f 104 146 147
f 104 147 148
f 104 148 149
f 104 149 108
f 105 108 107
f 105 107 106
f 108 149 109
f 109 149 150
f 109 150 110
f 110 150 151
f 110 151 152
f 110 152 153
f 110 153 111
f 111 153 154
f 112 155 113
f 113 155 156
f 113 156 157
f 113 157 158
f 113 158 114
f 114 158 115
f 115 158 118
f 115 118 117
f 118 158 159
f 118 159 119
f 119 158 157
f 119 157 160
f 119 160 161
f 119 161 162
f 119 162 163
f 119 163 120
f 119 159 158
f 120 164 121
f 120 163 164
f 121 164 165
f 121 165 122
f 122 165 123
f 123 165 124
f 124 166 125
f 124 165 167
f 124 167 166
f 125 166 168
f 125 168 126
f 126 168 169
f 126 169 170
f 126 170 127
f 127 170 128
f 128 170 136
f 128 135 129
f 130 134 171
f 130 171 131
f 131 172 173
f 131 173 174
f 131 174 175
f 131 175 141
f 131 141 132
f 131 171 176
f 131 176 172
f 134 140 177
f 134 177 171
f 136 178 179
f 136 179 180
f 136 180 137
f 136 170 181
f 136 181 182
f 136 182 178
f 137 180 183
f 137 183 184
f 137 184 139
f 137 139 138
f 139 184 185
f 139 185 140
f 140 186 187
f 140 187 188
f 140 188 177
f 140 185 184
f 140 184 189
f 140 189 186
f 141 143 142
f 141 175 143
f 143 175 190
f 143 190 144
f 144 190 175
f 144 175 191
f 144 191 192
f 144 192 193
f 144 193 194
f 144 194 195
f 144 195 196
f 144 196 145
f 145 196 197
f 145 197 198
f 145 198 199
f 145 199 147
f 145 147 200
f 145 200 146
f 146 200 147
f 147 199 148
f 148 199 152
f 148 152 151
f 148 151 150
f 148 150 149
f 152 199 201
f 152 201 153
f 153 201 202
f 153 202 154
f 155 203 156
f 156 203 157
f 157 204 205
f 157 205 206
f 157 206 161
f 157 161 160
f 157 203 204
f 161 206 207
f 161 207 208
f 161 208 209
f 161 209 162
f 162 209 163
f 163 210 211
f 163 211 164
f 163 209 210
f 164 211 165
f 165 211 167
f 166 167 212
f 166 212 168
f 167 210 213
f 167 213 214
f 167 214 215
f 167 215 212
f 167 211 210
f 168 212 215
f 168 215 216
f 168 216 217
f 168 217 169
f 169 217 170
f 170 217 218
f 170 218 182
f 170 182 181
f 171 219 220
f 171 220 176
f 171 177 221
f 171 221 219
f 172 176 220
f 172 220 222
f 172 222 223
f 172 223 224
f 172 224 225
f 172 225 173
f 173 175 174
f 173 225 226
f 173 226 227
f 173 227 193
f 173 193 192
f 173 192 175
f 175 192 191
f 177 188 228
f 177 228 229
f 177 229 230
f 177 230 221
f 178 182 179
f 179 182 231
f 179 231 232
f 179 232 233
f 179 233 234
f 179 234 183
f 179 183 180
f 182 218 235
f 182 235 236
f 182 236 231
f 183 234 237
f 183 237 184
f 184 237 189
f 186 189 238
f 186 238 239
f 186 239 240
f 186 240 187
f 189 237 241
f 189 241 238
f 193 242 243
f 193 243 194
f 193 227 242
f 194 243 244
f 194 244 195
f 195 244 196
f 196 244 245
f 196 245 197
f 197 245 246
f 197 246 198
f 198 247 199
f 198 246 247
f 199 247 201
f 201 247 248
f 201 248 202
f 203 249 204
f 204 250 251
f 204 251 205
f 204 249 250
f 205 251 206
f 206 251 207
f 207 251 252
f 207 252 253
f 207 253 254
f 207 254 208
f 208 254 214
f 208 214 209
f 209 214 213
f 209 213 210
f 214 254 215
f 215 254 253
f 215 253 216
f 216 253 255
f 216 255 217
f 217 255 256
f 217 256 218
f 218 256 235
f 219 257 220
f 220 257 222
f 227 258 242
f 228 230 229
f 231 259 260
f 231 260 232
f 231 236 261
f 231 261 262
f 231 262 259
f 232 260 259
f 232 259 263
f 232 263 264
f 232 264 265
f 232 265 233
f 233 265 266
f 233 266 267
f 233 267 234
f 234 267 268
f 234 268 237
f 235 256 269
f 235 269 236
f 236 269 261
f 237 268 241
f 238 270 239
f 238 241 271
f 238 271 272
f 238 272 270
f 241 272 271
f 241 268 272
f 242 258 243
f 243 273 244
f 243 258 273
f 244 274 275
f 244 275 245
f 244 273 274
f 245 275 276
f 245 276 277
f 245 277 246
f 246 277 248
f 246 248 247
f 249 278 250
f 250 278 279
f 250 279 280
f 250 280 251
f 251 280 281
f 251 281 252
f 252 281 255
f 252 255 253
f 255 281 256
f 256 281 269
f 259 282 283
f 259 283 263
f 259 262 261
f 259 261 284
f 259 284 282
f 261 269 285
f 261 285 284
f 263 286 287
f 263 287 264
f 263 283 286
f 264 288 289
f 264 289 265
f 264 287 288
f 265 289 266
f 266 289 290
f 266 290 267
f 267 291 292
f 267 292 293
f 267 293 272
f 267 272 268
f 267 290 291
f 269 281 280
f 269 280 285
f 270 272 294
f 272 293 295
f 272 295 296
f 272 296 294
f 278 297 279
f 279 285 280
f 279 297 298
f 279 298 285
f 282 299 283
f 282 284 299
f 283 299 286
f 284 285 299
f 285 298 299
f 286 300 287
f 286 299 301
f 286 301 302
f 286 302 300
f 287 300 303
f 287 303 304
f 287 304 288
f 288 304 305
f 288 305 289
f 289 305 306
f 289 306 307
f 289 307 290
f 290 307 308
f 290 308 309
f 290 309 310
f 290 310 291
f 291 310 292
f 292 311 293
f 292 310 311
f 293 311 295
f 297 302 298
f 298 302 301
f 298 301 299

