v -0.81195158 0.22630663 -0.18144199
v -0.81195158 0.30883756 -0.18144199
v -0.80433573 0.25057473 -0.18144199
v -0.79474395 0.25315989 -0.16509941
v -0.79474395 0.25064744 -0.16095530
v -0.79474395 0.24953259 -0.14727585
v -0.79474395 0.25115638 -0.13902661
v -0.81195158 0.24668084 -0.13697404
v -0.79474395 0.30883756 -0.18144199
v -0.81195158 0.30883756 -0.04873965
v -0.79519373 0.28034435 -0.18144199
v -0.79474395 0.28180658 -0.18137705
v -0.79474395 0.25573694 -0.12998492
v -0.81195158 0.25206119 -0.12620457
v -0.79474395 0.29013560 -0.18144199
v -0.79474395 0.30883756 -0.13327163
v -0.81195158 0.30284325 -0.04941518
v -0.80880652 0.30883756 -0.05293572
v -0.79474395 0.26513235 -0.12378825
v -0.80800131 0.30883756 -0.05470249
v -0.81195158 0.29539479 -0.05319554
v -0.81195158 0.29427184 -0.05422182
v -0.81195158 0.28918234 -0.06271789
v -0.79596189 0.30883756 -0.12543809
v -0.79474395 0.30881333 -0.13127103
v -0.80939610 0.30679368 -0.05258496
v -0.79474395 0.27914872 -0.12258009
v -0.80502472 0.30883756 -0.06725173
v -0.80692321 0.30883756 -0.05805415
v -0.79808778 0.30883756 -0.11177164
v -0.79474395 0.29229259 -0.12641241
f 1 2 9
f 1 9 15
f 1 15 11
f 1 11 3
f 1 3 4
f 1 4 5
f 1 5 6
f 1 6 7
f 1 7 8
f 1 8 14
f 1 14 23
f 1 23 22
f 1 22 21
f 1 21 17
f 1 17 10
f 1 10 2
f 2 10 18
f 2 18 20
f 2 20 29
f 2 29 28
f 2 28 30
f 2 30 24
f 2 24 16
f 2 16 9
f 3 11 4
f 4 11 12
f 4 12 15
f 4 15 9
f 4 9 16
f 4 16 25
f 4 25 31
f 4 31 27
f 4 27 19
f 4 19 13
f 4 13 7
f 4 7 6
f 4 6 5
f 7 13 14
f 7 14 8
f 10 17 18
f 11 15 12
f 13 19 20
f 13 20 21
f 13 21 22
f 13 22 23
f 13 23 14
f 16 24 25
f 17 21 26
f 17 26 18
f 18 26 20
f 19 27 28
f 19 28 29
f 19 29 20
f 20 26 21
f 24 30 25
f 25 30 28
f 25 28 31
f 27 31 28

