v 0.77537795 -0.38122117 0.08964634
v 0.77537795 -0.37837657 0.07579102
v 0.78036267 -0.37313404 0.06418113
v 0.78102948 -0.37470915 0.07535725
v 0.78014902 -0.37470915 0.08964634
v 0.77537795 -0.37971657 0.10689532
v 0.77537795 -0.37398035 0.06336461
v 0.77905498 -0.35707729 0.03937935
v 0.78218179 -0.36029805 0.04677905
v 0.79455303 -0.34522867 0.03649601
v 0.79501267 -0.34732098 0.04677905
v 0.78598184 -0.36396547 0.07535725
v 0.79167222 -0.35350389 0.06106815
v 0.77919094 -0.37313404 0.10095003
v 0.77537795 -0.37818848 0.11363160
v 0.77655613 -0.37804744 0.10500711
v 0.77537795 -0.35905204 0.04295162
v 0.77798685 -0.35707729 0.03937935
v 0.78561931 -0.33939841 0.02733568
v 0.79580894 -0.33156988 0.02307447
v 0.80779178 -0.31577173 0.02394202
v 0.79957015 -0.33537837 0.04677905
v 0.80768818 -0.31558366 0.03248996
v 0.79399632 -0.34635712 0.06106815
v 0.78390379 -0.36396547 0.08964634
v 0.77537795 -0.37696602 0.11689768
v 0.78489429 -0.27822766 0.24682636
v 0.77537795 -0.35007156 0.03680220
v 0.77766959 -0.33025337 0.02455441
v 0.78561931 -0.33225163 0.02304895
v 0.79742735 -0.30187785 0.01046945
v 0.80695667 -0.29959745 0.01105632
v 0.82049315 -0.26818924 0.01286798
v 0.82188503 -0.27279704 0.02241105
v 0.82188503 -0.27279704 0.02853494
v 0.81056899 -0.30679124 0.03248996
v 0.80715733 -0.31429066 0.04024690
v 0.83054034 -0.23537050 0.04677905
v 0.79320005 -0.34393567 0.07073880
v 0.80680129 -0.21273119 0.23723228
v 0.77537795 -0.31603033 0.23253728
v 0.78928990 -0.26393408 0.24682636
v 0.79352374 -0.24498574 0.25545085
v 0.77794800 -0.29828094 0.25047518
v 0.77537795 -0.34997751 0.03675117
v 0.77537795 -0.33328606 0.02894321
v 0.77745600 -0.32108479 0.02406960
v 0.79189235 -0.30187785 0.01046945
v 0.80127923 -0.29390825 0.00972948
v 0.80909299 -0.29007625 0.00985706
v 0.82160662 -0.25869155 0.01080116
v 0.82302441 -0.26362849 0.01786916
v 0.83201634 -0.23537050 0.03248996
v 0.82834575 -0.24966404 0.03248996
v 0.83417208 -0.22340434 0.04677905
v 0.83574520 -0.21428279 0.05453599
v 0.83679391 -0.16070548 0.14677720
v 0.83601067 -0.15807246 0.15593752
v 0.82402783 -0.17953629 0.19092030
v 0.82259067 -0.17521062 0.20395909
v 0.82152249 -0.17196637 0.21148638
v 0.80779822 -0.20321000 0.24088110
v 0.83835415 -0.19385336 0.07665857
v 0.83813406 -0.17932472 0.10480298
v 0.83707237 -0.17553974 0.11822453
v 0.77537795 -0.30688529 0.24626500
v 0.79482494 -0.23537050 0.25708390
v 0.77869893 -0.27171561 0.26846415
v 0.78084818 -0.27716975 0.26108996
v 0.77959232 -0.28875974 0.25629289
v 0.77537795 -0.30070238 0.25274612
v 0.77537795 -0.32108479 0.02940250
v 0.77791560 -0.31205729 0.02442683
v 0.79171755 -0.29249770 0.01029084
v 0.79933064 -0.27853328 0.00916811
v 0.81152059 -0.27822766 0.00904054
v 0.81511354 -0.26362849 0.00929570
v 0.82160662 -0.25436586 0.01080116
v 0.82679855 -0.23537050 0.01932358
v 0.83636672 -0.21668072 0.03772079
v 0.83626306 -0.21625757 0.04677905
v 0.83711765 -0.20680690 0.06002198
v 0.84078819 -0.17819627 0.08964634
v 0.84007610 -0.16390272 0.11822453
v 0.83601067 -0.15560399 0.15593752
v 0.82152249 -0.17057932 0.21148638
v 0.80779822 -0.19505233 0.24088110
v 0.79597725 -0.22107695 0.25744114
v 0.77950169 -0.26393408 0.26905102
v 0.77537795 -0.27018753 0.26910203
v 0.77537795 -0.27399601 0.26874481
v 0.77537795 -0.28067259 0.26598907
v 0.77537795 -0.29094610 0.25932931
v 0.77537795 -0.31593631 0.03248996
v 0.77695751 -0.30909513 0.03248996
v 0.77537795 -0.23790947 0.13248810
v 0.79165279 -0.26781311 0.02233450
v 0.79033217 -0.27853328 0.01781812
v 0.79224191 -0.28349370 0.01059703
v 0.80305301 -0.26393408 0.00904054
v 0.81416838 -0.24961702 0.01006119
v 0.81892003 -0.24482116 0.01131149
v 0.82609290 -0.22107695 0.02174762
v 0.83626306 -0.19822607 0.03874144
v 0.83665805 -0.20678338 0.03751666
v 0.83792041 -0.20678338 0.04677905
v 0.84026388 -0.19248983 0.06106815
v 0.84150682 -0.17819627 0.07535725
v 0.84127375 -0.16390272 0.10393544
v 0.83786214 -0.15181903 0.13251362
v 0.83679391 -0.15360573 0.14677720
v 0.83218465 -0.14645894 0.14677720
v 0.83105176 -0.15036146 0.16086216
v 0.82420908 -0.15346467 0.18967000
v 0.82224107 -0.15579207 0.19832000
v 0.82287547 -0.16505468 0.20342325
v 0.80852979 -0.16989755 0.22664303
v 0.80693725 -0.18550763 0.23963080
v 0.79505796 -0.20934588 0.25596120
v 0.77974120 -0.23962565 0.26884688
v 0.78028498 -0.24966404 0.26933170
v 0.77537795 -0.25746909 0.26968892
v 0.77537795 -0.26393408 0.26951031
v 0.77537795 -0.20480862 0.23253728
v 0.77829755 -0.19909590 0.22447415
v 0.79235195 -0.17001510 0.19467118
v 0.79767335 -0.16390272 0.17538090
v 0.80586906 -0.15409942 0.14677720
v 0.80667826 -0.15583909 0.13718310
v 0.80739684 -0.15795492 0.12766553
v 0.80814134 -0.16054093 0.11822453
v 0.80931307 -0.16477257 0.10444576
v 0.80964325 -0.17937174 0.07632686
v 0.80870454 -0.19042102 0.06106815
v 0.80810249 -0.20210506 0.04420192
v 0.80633520 -0.21164977 0.03700634
v 0.79969318 -0.23537050 0.03248996
v 0.79328418 -0.25831542 0.02830529
v 0.80454844 -0.22053624 0.03233687
v 0.80575253 -0.22493243 0.02330411
v 0.79418405 -0.27397250 0.01279143
v 0.80676893 -0.24200007 0.01082668
v 0.80535120 -0.24966404 0.00998464
v 0.80939076 -0.24200007 0.01082668
v 0.82376885 -0.21157925 0.02406960
v 0.82848820 -0.18837574 0.04187994
v 0.83717592 -0.18287459 0.05147404
v 0.83788157 -0.19307756 0.04672802
v 0.82848820 -0.19552251 0.03649601
v 0.83869721 -0.16620661 0.07535725
v 0.83955180 -0.16249217 0.08826846
v 0.83881374 -0.17814926 0.06106815
v 0.83861952 -0.15297097 0.10393544
v 0.83863894 -0.15172500 0.11822453
v 0.83211995 -0.14467225 0.13251362
v 0.82503770 -0.14105184 0.14677720
v 0.82315387 -0.14166309 0.16109181
v 0.82169080 -0.14227432 0.16892530
v 0.82584690 -0.14899793 0.17436025
v 0.81419424 -0.15454608 0.20133091
v 0.80433479 -0.15478118 0.20133091
v 0.79990678 -0.17010914 0.22641338
v 0.79102489 -0.18393252 0.24105971
v 0.79740792 -0.18393252 0.24105971
v 0.78561931 -0.20849955 0.25682872
v 0.78561931 -0.22107695 0.26205955
v 0.77651728 -0.23962565 0.26884688
v 0.77537795 -0.24204709 0.26897445
v 0.77537795 -0.24992264 0.26935720
v 0.77537795 -0.20478511 0.23465512
v 0.77777969 -0.19822607 0.23253728
v 0.79167222 -0.16912176 0.20395909
v 0.80461964 -0.15228922 0.16109181
v 0.81103508 -0.14695264 0.14677720
v 0.81135228 -0.15047901 0.13246258
v 0.81662839 -0.15179552 0.10393544
v 0.81324908 -0.16390272 0.08964634
v 0.81555371 -0.17737345 0.06043024
v 0.81814968 -0.18158159 0.04984100
v 0.80861392 -0.21538772 0.02746327
v 0.81814324 -0.21157925 0.02406960
v 0.81762532 -0.19556953 0.03634291
v 0.82848820 -0.18066474 0.04902448
v 0.83712409 -0.16933333 0.06583969
v 0.83524676 -0.15680297 0.08257834
v 0.83741543 -0.15489873 0.09209590
v 0.82824220 -0.14455471 0.11835210
v 0.82497299 -0.14138098 0.13251362
v 0.81818203 -0.14105184 0.14677720
v 0.81896537 -0.14166309 0.16109181
v 0.82049964 -0.14227432 0.16892530
v 0.81419424 -0.14965618 0.18967000
v 0.81511998 -0.14511893 0.17436025
v 0.80291705 -0.15294747 0.18967000
v 0.79267564 -0.17095547 0.22552031
v 0.77772142 -0.19829659 0.24149346
v 0.77656262 -0.21127364 0.25580807
v 0.77537795 -0.24035443 0.26856622
v 0.77537795 -0.20636022 0.24634157
v 0.78736723 -0.17819627 0.21824818
v 0.79191178 -0.16985054 0.21824818
v 0.80342848 -0.15191306 0.17538090
v 0.81931497 -0.14138098 0.13251362
v 0.82052556 -0.14201572 0.12317467
v 0.81600687 -0.14857476 0.11835210
v 0.81181842 -0.14514243 0.16109181
v 0.81906248 -0.15464013 0.08964634
v 0.81758648 -0.16390272 0.07642892
v 0.81901071 -0.16867508 0.06476801
v 0.82848820 -0.17351797 0.05670488
v 0.82848820 -0.16796981 0.06384942
v 0.82968585 -0.15393485 0.08826846
v 0.82848820 -0.14801055 0.10393544
v 0.82968585 -0.16004723 0.07642892
v 0.82571743 -0.15642682 0.08188940
v 0.82331569 -0.14201572 0.12317467
v 0.77537795 -0.20690093 0.24703050
v 0.77537795 -0.21277822 0.25443020
v 0.77537795 -0.21543475 0.25698183
v 0.82092688 -0.15642682 0.08188940
f 1 2 3
f 1 3 4
f 1 4 5
f 1 5 6
f 1 6 15
f 1 15 26
f 1 26 41
f 1 41 66
f 1 66 71
f 1 71 93
f 1 93 92
f 1 92 91
f 1 91 90
f 1 90 123
f 1 123 122
f 1 122 169
f 1 169 168
f 1 168 198
f 1 198 219
f 1 219 218
f 1 218 217
f 1 217 199
f 1 199 170
f 1 170 124
f 1 124 96
f 1 96 94
f 1 94 72
f 1 72 46
f 1 46 45
f 1 45 28
f 1 28 17
f 1 17 7
f 1 7 2
f 2 7 3
f 3 7 8
f 3 8 9
f 3 9 10
f 3 10 11
f 3 11 4
f 4 12 5
f 4 11 13
f 4 13 12
f 5 12 14
f 5 14 15
f 5 15 16
f 5 16 6
f 6 16 15
f 7 17 18
f 7 18 8
f 8 18 19
f 8 19 20
f 8 20 10
f 8 10 9
f 10 20 21
f 10 21 11
f 11 22 13
f 11 21 23
f 11 23 22
f 12 13 14
f 13 22 24
f 13 24 25
f 13 25 14
f 14 26 15
f 14 25 27
f 14 27 26
f 17 28 18
f 18 28 29
f 18 29 30
f 18 30 19
f 19 30 20
f 20 30 31
f 20 31 32
f 20 32 21
f 21 32 33
f 21 33 34
f 21 34 35
f 21 35 23
f 22 23 36
f 22 36 37
f 22 37 24
f 23 35 36
f 24 37 35
f 24 35 38
f 24 38 39
f 24 39 25
f 25 39 40
f 25 40 27
f 26 27 41
f 27 40 42
f 27 42 43
f 27 43 44
f 27 44 41
f 28 45 29
f 29 45 46
f 29 46 47
f 29 47 48
f 29 48 30
f 30 48 31
f 31 48 49
f 31 49 50
f 31 50 32
f 32 50 33
f 33 50 51
f 33 51 52
f 33 52 34
f 34 52 53
f 34 53 54
f 34 54 35
f 35 54 38
f 35 37 36
f 38 55 56
f 38 56 40
f 38 40 39
f 38 54 55
f 40 57 58
f 40 58 59
f 40 59 60
f 40 60 61
f 40 61 62
f 40 62 43
f 40 43 42
f 40 56 63
f 40 63 64
f 40 64 65
f 40 65 57
f 41 44 66
f 43 67 68
f 43 68 69
f 43 69 70
f 43 70 44
f 43 62 67
f 44 70 71
f 44 71 66
f 46 72 47
f 47 72 73
f 47 73 74
f 47 74 48
f 48 74 75
f 48 75 49
f 49 75 76
f 49 76 50
f 50 76 51
f 51 76 77
f 51 77 78
f 51 78 79
f 51 79 80
f 51 80 53
f 51 53 52
f 53 80 81
f 53 81 54
f 54 81 55
f 55 81 56
f 56 81 82
f 56 82 63
f 57 65 64
f 57 64 83
f 57 83 84
f 57 84 58
f 58 84 85
f 58 85 86
f 58 86 61
f 58 61 60
f 58 60 59
f 61 86 87
f 61 87 62
f 62 87 88
f 62 88 67
f 63 82 83
f 63 83 64
f 67 88 89
f 67 89 68
f 68 89 90
f 68 90 91
f 68 91 92
f 68 92 93
f 68 93 70
f 68 70 69
f 70 93 71
f 72 94 73
f 73 94 95
f 73 95 96
f 73 96 97
f 73 97 98
f 73 98 99
f 73 99 74
f 74 99 75
f 75 99 100
f 75 100 76
f 76 100 77
f 77 100 101
f 77 101 78
f 78 101 102
f 78 102 103
f 78 103 79
f 79 103 104
f 79 104 105
f 79 105 80
f 80 105 106
f 80 106 107
f 80 107 81
f 81 107 83
f 81 83 82
f 83 107 108
f 83 108 109
f 83 109 84
f 84 109 110
f 84 110 111
f 84 111 85
f 85 111 112
f 85 112 113
f 85 113 114
f 85 114 115
f 85 115 116
f 85 116 86
f 86 116 115
f 86 115 117
f 86 117 118
f 86 118 87
f 87 118 119
f 87 119 88
f 88 119 120
f 88 120 121
f 88 121 89
f 89 121 122
f 89 122 123
f 89 123 90
f 94 96 95
f 96 124 125
f 96 125 126
f 96 126 127
f 96 127 128
f 96 128 129
f 96 129 130
f 96 130 131
f 96 131 132
f 96 132 133
f 96 133 134
f 96 134 135
f 96 135 136
f 96 136 137
f 96 137 138
f 96 138 97
f 97 138 137
f 97 137 139
f 97 139 140
f 97 140 141
f 97 141 98
f 98 141 99
f 99 141 142
f 99 142 143
f 99 143 100
f 100 143 101
f 101 143 144
f 101 144 102
f 102 144 145
f 102 145 103
f 103 145 104
f 104 146 147
f 104 147 148
f 104 148 105
f 104 145 149
f 104 149 146
f 105 148 107
f 105 107 106
f 107 148 108
f 108 150 151
f 108 151 109
f 108 148 152
f 108 152 150
f 109 153 154
f 109 154 110
f 109 151 153
f 110 155 112
f 110 112 111
f 110 154 155
f 112 155 156
f 112 156 157
f 112 157 158
f 112 158 159
f 112 159 113
f 113 159 114
f 114 159 158
f 114 158 115
f 115 160 117
f 115 158 160
f 117 160 161
f 117 161 162
f 117 162 163
f 117 163 164
f 117 164 118
f 118 164 119
f 119 165 166
f 119 166 120
f 119 164 165
f 120 166 167
f 120 167 168
f 120 168 169
f 120 169 121
f 121 169 122
f 124 170 171
f 124 171 125
f 125 171 172
f 125 172 126
f 126 172 173
f 126 173 128
f 126 128 127
f 128 174 175
f 128 175 129
f 128 173 174
f 129 175 176
f 129 176 130
f 130 176 131
f 131 176 177
f 131 177 132
f 132 177 133
f 133 177 134
f 134 177 178
f 134 178 135
f 135 178 179
f 135 179 180
f 135 180 136
f 136 180 140
f 136 140 139
f 136 139 137
f 140 142 141
f 140 180 142
f 142 144 143
f 142 180 181
f 142 181 145
f 142 145 144
f 145 181 182
f 145 182 146
f 145 146 149
f 146 182 183
f 146 183 147
f 147 184 152
f 147 152 148
f 147 183 184
f 150 185 186
f 150 186 151
f 150 152 184
f 150 184 185
f 151 186 153
f 153 187 155
f 153 155 154
f 153 186 187
f 155 188 156
f 155 187 188
f 156 188 203
f 156 203 189
f 156 189 190
f 156 190 157
f 157 190 191
f 157 191 158
f 158 191 192
f 158 192 160
f 160 192 161
f 161 192 191
f 161 191 193
f 161 193 194
f 161 194 195
f 161 195 162
f 162 195 163
f 163 196 197
f 163 197 165
f 163 165 164
f 163 195 196
f 165 197 167
f 165 167 166
f 167 198 168
f 167 197 198
f 170 199 196
f 170 196 171
f 171 196 172
f 172 196 200
f 172 200 201
f 172 201 194
f 172 194 202
f 172 202 173
f 173 202 174
f 174 189 203
f 174 203 204
f 174 204 205
f 174 205 175
f 174 202 206
f 174 206 189
f 175 205 176
f 176 205 204
f 176 204 207
f 176 207 177
f 177 207 208
f 177 208 178
f 178 208 209
f 178 209 179
f 179 209 210
f 179 210 183
f 179 183 182
f 179 182 180
f 180 182 181
f 183 210 184
f 184 210 211
f 184 211 185
f 185 212 213
f 185 213 186
f 185 211 214
f 185 214 215
f 185 215 212
f 186 213 187
f 187 213 216
f 187 216 188
f 188 216 204
f 188 204 203
f 189 206 190
f 190 206 193
f 190 193 191
f 193 206 194
f 194 201 195
f 194 206 202
f 195 201 196
f 196 199 197
f 196 201 200
f 197 217 218
f 197 218 219
f 197 219 198
f 197 199 217
f 204 216 213
f 204 213 220
f 204 220 207
f 207 220 208
f 208 220 209
f 209 211 210
f 209 220 211
f 211 220 215
f 211 215 214
f 212 215 220
f 212 220 213

