v -0.80078254 0.39303639 -0.18144201
v -0.80078254 0.39294286 -0.18192028
v -0.81165570 0.38981840 -0.18192028
v -0.81170640 0.38987452 -0.18144201
v -0.78684867 0.39004288 -0.18144201
v -0.78535636 0.38942550 -0.18292372
v -0.78936403 0.38785389 -0.19349265
v -0.80078254 0.38871454 -0.19584650
v -0.80982518 0.38798487 -0.19368020
v -0.81194739 0.38933194 -0.18192028
v -0.81194739 0.38946292 -0.18144201
v -0.78546625 0.38972484 -0.18144201
v -0.78268879 0.38867712 -0.18144201
v -0.77983522 0.38615134 -0.18836292
v -0.78535636 0.38497265 -0.19744075
v -0.78649354 0.37935984 -0.21050421
v -0.80078254 0.38618875 -0.20299248
v -0.81194739 0.37771343 -0.20845981
v -0.81194739 0.38330753 -0.19611846
v -0.80989704 0.37419605 -0.22109189
v -0.81171488 0.37717085 -0.21050421
v -0.81194739 0.22631718 -0.18144201
v -0.77538788 0.38297076 -0.18144201
v -0.77405198 0.37756375 -0.19621224
v -0.77676606 0.37432702 -0.21050421
v -0.77901508 0.37226898 -0.21798779
v -0.80078254 0.38222238 -0.21050421
v -0.78649354 0.37378444 -0.22021974
v -0.81194739 0.37670313 -0.21050421
v -0.81194739 0.36865809 -0.22394277
v -0.80078254 0.37522508 -0.22254545
v -0.80078254 0.37034192 -0.22968206
v -0.81075521 0.36156723 -0.23642479
v -0.81194739 0.37513152 -0.21316754
v -0.81194739 0.22444626 -0.18484619
v -0.80433363 0.25058324 -0.18144201
v -0.77374336 0.38037014 -0.18144201
v -0.77393360 0.38050111 -0.18292372
v -0.76876339 0.36489749 -0.19621224
v -0.77086869 0.36489749 -0.21050421
v -0.77594168 0.36422397 -0.22356766
v -0.78649354 0.36841485 -0.22736572
v -0.77794976 0.35900406 -0.23327381
v -0.81194739 0.36377493 -0.23062923
v -0.80078254 0.36319496 -0.23805656
v -0.81194739 0.35827438 -0.23776584
v -0.80078254 0.35662797 -0.24520254
v -0.81134284 0.34798424 -0.25001341
v -0.81194739 0.34880744 -0.24800653
v -0.81194739 0.20932908 -0.21237979
v -0.81194739 0.20796329 -0.21491184
v -0.79172718 0.29131354 -0.18144201
v -0.76962156 0.36489749 -0.18144201
v -0.76955813 0.36489749 -0.18192028
v -0.76923260 0.35060354 -0.21050421
v -0.77022187 0.35060354 -0.22479616
v -0.77592476 0.34966806 -0.23845043
v -0.78649354 0.36126790 -0.23569333
v -0.78649354 0.35384026 -0.24283932
v -0.77864304 0.34426105 -0.24682493
v -0.80078254 0.34948097 -0.25103562
v -0.81194739 0.34645007 -0.25046355
v -0.81120755 0.33243674 -0.26235477
v -0.79128752 0.29273545 -0.18144201
v -0.81194739 0.20457691 -0.22131696
v -0.77972952 0.30184693 -0.23445543
v -0.77348551 0.35060354 -0.18192028
v -0.77105892 0.35060354 -0.19621224
v -0.77357853 0.35056612 -0.18144201
v -0.77105892 0.33630958 -0.22479616
v -0.77228489 0.33630958 -0.23907874
v -0.77686328 0.33630958 -0.24918816
v -0.78649354 0.34669328 -0.24864423
v -0.77886287 0.31621572 -0.26101373
v -0.78258309 0.32573880 -0.25909126
v -0.78700507 0.33554249 -0.25588400
v -0.80078254 0.33958372 -0.25818160
v -0.81194739 0.33297932 -0.26099497
v -0.81194739 0.33069677 -0.26277678
v -0.80078254 0.33243674 -0.26231726
v -0.80078254 0.32201562 -0.26710001
v -0.81194739 0.30158498 -0.27509000
v -0.81194739 0.20358531 -0.22505874
v -0.80695894 0.21247226 -0.23907874
v -0.80377560 0.22199533 -0.23907874
v -0.81009571 0.20858071 -0.22519943
v -0.77744242 0.30706684 -0.23916316
v -0.80764802 0.21395029 -0.23021661
v -0.79934094 0.23628928 -0.23907874
v -0.78826487 0.26487720 -0.25337071
v -0.77901508 0.29950826 -0.24398340
v -0.77338405 0.32201562 -0.23907874
v -0.77854158 0.30772166 -0.26151076
v -0.77640669 0.32139821 -0.25394278
v -0.77876141 0.29793665 -0.26134197
v -0.79210766 0.33026646 -0.26107938
v -0.79493587 0.27917116 -0.27449920
v -0.78649354 0.30772166 -0.26634977
v -0.78700507 0.32139821 -0.26271112
v -0.80170833 0.30676748 -0.27237040
v -0.80708999 0.30137918 -0.27499621
v -0.81194739 0.29346512 -0.27620597
v -0.81194739 0.20190146 -0.23497123
v -0.80691667 0.21260321 -0.24947888
v -0.79780636 0.23628928 -0.25337071
v -0.79443283 0.24588720 -0.25337071
v -0.79204847 0.25303418 -0.25337071
v -0.79219225 0.25368900 -0.26337695
v -0.78390632 0.27917116 -0.25337071
v -0.78054966 0.29065872 -0.25337071
v -0.77865576 0.29778700 -0.25337071
v -0.79038708 0.26487720 -0.26607780
v -0.78825644 0.27917116 -0.26735322
v -0.80451963 0.29346512 -0.27543697
v -0.79737513 0.29346512 -0.27397403
v -0.79702006 0.26487720 -0.27322378
v -0.80416456 0.26487720 -0.27554014
v -0.80208462 0.27917116 -0.27585898
v -0.81194739 0.27917116 -0.27723754
v -0.81194739 0.20300532 -0.23892871
v -0.81194739 0.21028325 -0.25187025
v -0.81194739 0.21415610 -0.25776895
v -0.81099196 0.21570899 -0.25900685
v -0.80541587 0.22523205 -0.26274864
v -0.80430404 0.22107856 -0.25389588
v -0.80700121 0.25670121 -0.27502435
v -0.81194739 0.26487720 -0.27660922
v -0.81194739 0.27507381 -0.27706874
v -0.81194739 0.21685024 -0.25999154
v -0.81194739 0.22253790 -0.26333009
v -0.81194739 0.23271581 -0.26795340
v -0.81194739 0.25539155 -0.27533383
v -0.81194739 0.26171533 -0.27625287
f 1 2 3
f 1 3 4
f 1 4 11
f 1 11 22
f 1 22 36
f 1 36 52
f 1 52 64
f 1 64 69
f 1 69 53
f 1 53 37
f 1 37 23
f 1 23 13
f 1 13 12
f 1 12 5
f 1 5 2
f 2 5 6
f 2 6 7
f 2 7 8
f 2 8 9
f 2 9 3
f 3 10 4
f 3 9 10
f 4 10 11
f 5 12 6
f 6 12 13
f 6 13 14
f 6 14 7
f 7 14 15
f 7 15 16
f 7 16 17
f 7 17 8
f 8 17 9
f 9 18 19
f 9 19 10
f 9 17 20
f 9 20 21
f 9 21 18
f 10 19 18
f 10 18 29
f 10 29 34
f 10 34 30
f 10 30 44
f 10 44 46
f 10 46 49
f 10 49 62
f 10 62 78
f 10 78 79
f 10 79 82
f 10 82 102
f 10 102 119
f 10 119 128
f 10 128 127
f 10 127 133
f 10 133 132
f 10 132 131
f 10 131 130
f 10 130 129
f 10 129 122
f 10 122 121
f 10 121 120
f 10 120 103
f 10 103 83
f 10 83 65
f 10 65 51
f 10 51 50
f 10 50 35
f 10 35 22
f 10 22 11
f 13 23 14
f 14 23 24
f 14 24 25
f 14 25 26
f 14 26 15
f 15 26 16
f 16 27 17
f 16 26 28
f 16 28 27
f 17 27 20
f 18 21 29
f 20 30 21
f 20 27 31
f 20 31 32
f 20 32 33
f 20 33 30
f 21 30 34
f 21 34 29
f 22 35 36
f 23 37 38
f 23 38 24
f 24 39 40
f 24 40 25
f 24 38 39
f 25 40 41
f 25 41 26
f 26 42 28
f 26 41 43
f 26 43 42
f 27 28 31
f 28 42 32
f 28 32 31
f 30 33 44
f 32 42 45
f 32 45 33
f 33 46 44
f 33 45 47
f 33 47 48
f 33 48 49
f 33 49 46
f 35 50 36
f 36 50 51
f 36 51 52
f 37 53 54
f 37 54 39
f 37 39 38
f 39 54 55
f 39 55 56
f 39 56 40
f 40 56 41
f 41 56 57
f 41 57 43
f 42 43 58
f 42 58 45
f 43 59 58
f 43 57 60
f 43 60 59
f 45 58 47
f 47 58 59
f 47 59 61
f 47 61 48
f 48 62 49
f 48 61 63
f 48 63 62
f 51 64 52
f 51 65 66
f 51 66 64
f 53 67 68
f 53 68 54
f 53 69 67
f 54 68 55
f 55 70 56
f 55 68 70
f 56 70 71
f 56 71 57
f 57 71 72
f 57 72 60
f 59 60 73
f 59 73 61
f 60 72 74
f 60 74 75
f 60 75 76
f 60 76 73
f 61 73 77
f 61 77 63
f 62 63 78
f 63 79 78
f 63 77 80
f 63 80 81
f 63 81 82
f 63 82 79
f 64 66 68
f 64 68 67
f 64 67 69
f 65 83 84
f 65 84 85
f 65 85 86
f 65 86 66
f 66 87 68
f 66 86 88
f 66 88 89
f 66 89 90
f 66 90 91
f 66 91 87
f 68 87 70
f 70 87 92
f 70 92 71
f 71 93 94
f 71 94 72
f 71 92 95
f 71 95 93
f 72 94 74
f 73 76 96
f 73 96 77
f 74 93 97
f 74 97 98
f 74 98 99
f 74 99 75
f 74 94 93
f 75 99 96
f 75 96 76
f 77 96 80
f 80 96 81
f 81 96 99
f 81 99 100
f 81 100 101
f 81 101 82
f 82 101 102
f 83 103 84
f 84 103 104
f 84 104 105
f 84 105 106
f 84 106 85
f 85 88 86
f 85 106 107
f 85 107 90
f 85 90 89
f 85 89 88
f 87 91 92
f 90 107 108
f 90 108 109
f 90 109 91
f 91 109 110
f 91 110 92
f 92 110 111
f 92 111 95
f 93 95 97
f 95 111 110
f 95 110 109
f 95 109 108
f 95 108 112
f 95 112 113
f 95 113 97
f 97 114 115
f 97 115 98
f 97 113 116
f 97 116 117
f 97 117 118
f 97 118 114
f 98 100 99
f 98 115 100
f 100 115 101
f 101 115 114
f 101 114 102
f 102 114 119
f 103 120 104
f 104 120 121
f 104 121 122
f 104 122 123
f 104 123 124
f 104 124 125
f 104 125 108
f 104 108 105
f 105 108 106
f 106 108 107
f 108 116 112
f 108 125 124
f 108 124 116
f 112 116 113
f 114 118 119
f 116 124 126
f 116 126 117
f 117 127 128
f 117 128 118
f 117 126 127
f 118 128 119
f 122 129 123
f 123 129 130
f 123 130 124
f 124 130 131
f 124 131 126
f 126 132 133
f 126 133 127
f 126 131 132

