v -0.81195153 0.30883756 -0.18144200
v -0.81195153 0.38946655 -0.18144200
v -0.78658769 0.30883756 -0.18144200
v -0.81195153 0.30883756 -0.04873946
v -0.81195153 0.39011991 -0.17920684
v -0.81170706 0.38987058 -0.18144200
v -0.77357633 0.35057481 -0.18144200
v -0.79005184 0.30883756 -0.15442291
v -0.81184798 0.30883756 -0.04887094
v -0.80499006 0.32203358 -0.05519511
v -0.81195153 0.31976405 -0.04712226
v -0.81195153 0.39183064 -0.16761033
v -0.80078418 0.39572497 -0.16761033
v -0.80078418 0.39303420 -0.18144200
v -0.76962320 0.36490562 -0.18144200
v -0.77150861 0.36490562 -0.16761033
v -0.77382080 0.36490562 -0.15331847
v -0.79245936 0.30883756 -0.13978921
v -0.80880647 0.30883756 -0.05293366
v -0.80432290 0.33633000 -0.05652306
v -0.81105237 0.32203358 -0.04804261
v -0.80656052 0.31094377 -0.05687806
v -0.79344142 0.34284633 -0.07424654
v -0.79333786 0.35061780 -0.07416765
v -0.81195153 0.32203358 -0.04756929
v -0.81195153 0.39274191 -0.15592177
v -0.78649651 0.39249259 -0.16761033
v -0.78546886 0.38973304 -0.18144200
v -0.78684872 0.39004252 -0.18144200
v -0.80078418 0.39666203 -0.15331847
v -0.77374623 0.38037977 -0.18144200
v -0.77197270 0.37919342 -0.16761033
v -0.77318681 0.37919342 -0.15331847
v -0.77880159 0.37014963 -0.11572841
v -0.77787340 0.36728692 -0.12473477
v -0.80093332 0.32203358 -0.06758051
v -0.80502323 0.30883756 -0.06725181
v -0.80799840 0.30883756 -0.05470864
v -0.80567378 0.34609592 -0.05865303
v -0.79343314 0.35808839 -0.07445690
v -0.80692106 0.30883756 -0.05804823
v -0.77880159 0.37345079 -0.11572841
v -0.81195153 0.33934745 -0.05326236
v -0.81195153 0.39290524 -0.15331847
v -0.77699075 0.38815982 -0.16761033
v -0.77796453 0.38734313 -0.17882555
v -0.78649651 0.39285367 -0.15331847
v -0.78268843 0.38867564 -0.18144200
v -0.81195153 0.39277629 -0.12786399
v -0.80078418 0.39575078 -0.13902662
v -0.77539126 0.38297599 -0.18144200
v -0.77709435 0.38827160 -0.15331847
v -0.77823803 0.38736892 -0.13902662
v -0.77911234 0.38656943 -0.13126932
v -0.77551975 0.37919342 -0.13902662
v -0.81195153 0.35630024 -0.06459592
v -0.81195153 0.34738541 -0.05769323
v -0.80078418 0.36039230 -0.07216915
v -0.79278259 0.37280604 -0.08806506
v -0.79019690 0.37541084 -0.09616421
v -0.77802668 0.37860883 -0.12579976
v -0.78649651 0.39135783 -0.13902662
v -0.81195153 0.39214874 -0.12473477
v -0.80078418 0.39289665 -0.12473477
v -0.78674512 0.38846930 -0.12579976
v -0.79167622 0.38731735 -0.11512359
v -0.81195153 0.36242974 -0.07017066
v -0.80078418 0.36753621 -0.07899295
v -0.79798714 0.38530572 -0.10560446
v -0.80196512 0.38175524 -0.09749216
v -0.80078418 0.37424169 -0.08614545
v -0.81195153 0.38967286 -0.11358528
v -0.80751774 0.38643189 -0.10314579
v -0.80196512 0.38822862 -0.11040348
v -0.81195153 0.36399435 -0.07166953
v -0.81195153 0.36957365 -0.07744149
v -0.81195153 0.37527330 -0.08459399
v -0.81195153 0.37103509 -0.07900610
v -0.81195153 0.38642330 -0.10314579
v -0.81195153 0.38424832 -0.09896473
v -0.81195153 0.37703564 -0.08734192
f 1 2 6
f 1 6 14
f 1 14 29
f 1 29 28
f 1 28 48
f 1 48 51
f 1 51 31
f 1 31 15
f 1 15 7
f 1 7 3
f 1 3 8
f 1 8 18
f 1 18 37
f 1 37 41
f 1 41 38
f 1 38 19
f 1 19 9
f 1 9 4
f 1 4 11
f 1 11 25
f 1 25 43
f 1 43 57
f 1 57 56
f 1 56 67
f 1 67 75
f 1 75 76
f 1 76 78
f 1 78 77
f 1 77 81
f 1 81 80
f 1 80 79
f 1 79 72
f 1 72 63
f 1 63 49
f 1 49 44
f 1 44 26
f 1 26 12
f 1 12 5
f 1 5 2
f 2 5 6
f 3 7 8
f 4 9 10
f 4 10 11
f 5 12 13
f 5 13 6
f 6 13 14
f 7 15 16
f 7 16 8
f 8 17 18
f 8 16 17
f 9 19 10
f 10 20 21
f 10 21 11
f 10 19 22
f 10 22 23
f 10 23 24
f 10 24 20
f 11 21 25
f 12 26 13
f 13 27 28
f 13 28 29
f 13 29 14
f 13 26 30
f 13 30 27
f 15 31 32
f 15 32 33
f 15 33 16
f 16 33 34
f 16 34 35
f 16 35 17
f 17 35 18
f 18 35 23
f 18 23 36
f 18 36 37
f 19 38 22
f 20 39 21
f 20 24 40
f 20 40 39
f 21 39 25
f 22 38 41
f 22 41 36
f 22 36 23
f 23 34 24
f 23 35 34
f 24 34 42
f 24 42 40
f 25 39 43
f 26 44 30
f 27 45 46
f 27 46 28
f 27 30 47
f 27 47 45
f 28 46 48
f 30 44 49
f 30 49 50
f 30 50 47
f 31 51 45
f 31 45 32
f 32 45 52
f 32 52 33
f 33 52 53
f 33 53 54
f 33 54 55
f 33 55 42
f 33 42 34
f 36 41 37
f 39 56 57
f 39 57 43
f 39 40 58
f 39 58 56
f 40 42 59
f 40 59 58
f 42 60 59
f 42 55 61
f 42 61 54
f 42 54 60
f 45 51 46
f 45 47 52
f 46 51 48
f 47 50 62
f 47 62 53
f 47 53 52
f 49 63 64
f 49 64 50
f 50 64 62
f 53 62 54
f 54 62 65
f 54 65 66
f 54 66 60
f 54 61 55
f 56 58 67
f 58 59 68
f 58 68 67
f 59 60 66
f 59 66 69
f 59 69 70
f 59 70 71
f 59 71 68
f 62 64 65
f 63 72 64
f 64 72 73
f 64 73 74
f 64 74 66
f 64 66 65
f 66 74 69
f 67 68 75
f 68 76 75
f 68 71 76
f 69 74 73
f 69 73 70
f 70 73 71
f 71 73 77
f 71 77 78
f 71 78 76
f 72 79 73
f 73 79 80
f 73 80 81
f 73 81 77

