v -0.76806971 0.28765565 -0.14046206
v -0.76806971 0.28765565 -0.14235762
v -0.76806971 0.28683357 -0.13521769
v -0.76615792 0.28601149 -0.13341690
v -0.76365795 0.28677878 -0.14295788
v -0.76806971 0.28732685 -0.14959232
v -0.76365795 0.28677878 -0.14725447
v -0.76806971 0.28403848 -0.13107905
v -0.43336123 0.17278275 -0.07323298
v -0.72086352 0.27241966 -0.13082632
v -0.76806971 0.27970880 -0.12646654
v -0.75777560 0.27779063 -0.12586627
v -0.70071630 0.25975954 -0.11537753
v -0.68983380 0.25860860 -0.11645168
v -0.60409785 0.23005478 -0.10198226
v 0.23502640 -0.05674384 0.05354817
v -0.22247720 0.10032951 -0.03301559
v -0.73306952 0.27335137 -0.14794952
v -0.76806971 0.28272317 -0.15635314
v -0.72086352 0.27241966 -0.13401717
v -0.63586277 0.24359182 -0.11831564
v -0.67895139 0.25778652 -0.13209002
v -0.34806643 0.14411933 -0.05892153
v -0.09262324 0.05785504 -0.01677698
v -0.63586277 0.24359182 -0.11702034
v 0.19502608 -0.04156264 0.04129024
v 0.28017381 -0.07033568 0.05544373
v -0.76806971 0.26491129 -0.11986368
v -0.75865789 0.26507567 -0.11863157
v -0.74351072 0.26200656 -0.11581982
v -0.74351072 0.26918612 -0.11935820
v -0.71498107 0.26102005 -0.11484045
v -0.57865648 0.21487360 -0.08893451
v -0.49100875 0.18664861 -0.07433872
v -0.40424334 0.15831403 -0.05974294
v 0.06296622 0.00030897 0.02489367
v 0.14914337 -0.02819003 0.03929991
v 0.69282412 -0.21381720 0.13970123
v 0.32076237 -0.08535246 0.06738574
v -0.70439277 0.25932110 -0.14757039
v -0.34983114 0.14362608 -0.07509695
v -0.64865706 0.24424948 -0.13294302
v -0.76806971 0.28135302 -0.15768004
v -0.09262324 0.05785504 -0.01832502
v 0.45017516 -0.12793655 0.08185516
v 0.32193886 -0.08491401 0.05320065
v -0.13615300 0.07188532 -0.03184666
v 0.19282018 -0.04222031 0.02508323
v 0.36517448 -0.09910871 0.06947085
v 0.45017516 -0.12793655 0.08318204
v 0.65297087 -0.19858119 0.12722215
v -0.76806971 0.25005889 -0.12485531
v -0.75439313 0.25488179 -0.11676760
v -0.75439313 0.26047198 -0.11676760
v -0.72924595 0.26189693 -0.11506160
v -0.52468545 0.18686784 -0.07437032
v -0.59615662 0.21509281 -0.08883973
v -0.58630361 0.21503800 -0.08883973
v -0.12379996 0.05752621 -0.00328694
v 0.42296910 -0.12788174 0.09695642
v -0.03379925 0.02935604 0.01130885
v 0.05340732 0.00113106 0.02593623
v 0.60679408 -0.18531819 0.12532659
v 0.68547108 -0.21304991 0.14052263
v 0.72841261 -0.23102620 0.15082183
v 0.73429505 -0.23119063 0.14908423
v 0.72841261 -0.22581965 0.14368190
v 0.73429505 -0.22669658 0.14241819
v -0.53615615 0.20056929 -0.11762061
v -0.76174616 0.27373502 -0.16143955
v -0.56424460 0.21509281 -0.11793653
v -0.32086035 0.12959581 -0.07519172
v -0.76806971 0.27642048 -0.16194503
v 0.71414783 -0.21929780 0.13249812
v 0.73429505 -0.22631293 0.13249812
v 0.69532420 -0.21288551 0.12314670
v 0.73429505 -0.22784746 0.12491588
v -0.02144621 0.02919162 -0.01769317
v -0.76806971 0.24435911 -0.12978375
v -0.74895198 0.24534562 -0.11847360
v -0.75865789 0.25027811 -0.12043234
v -0.73939306 0.24189282 -0.11654645
v -0.68056908 0.22824619 -0.10293004
v -0.68056908 0.23191821 -0.10293004
v -0.45203789 0.15831403 -0.06018523
v 0.00649519 0.00058300 0.02533597
v -0.06571127 0.02930123 0.01115089
v -0.13644712 0.05763581 -0.00322375
v -0.13335886 0.05763581 -0.00322375
v 0.41399838 -0.12766251 0.09711439
v 0.49973432 -0.15555866 0.11193132
v 0.65694154 -0.21085768 0.14172316
v 0.58547037 -0.18356441 0.12677985
v 0.67120631 -0.21173458 0.14156519
v 0.59738216 -0.18444131 0.12617960
v 0.73429505 -0.23847978 0.15638213
v -0.37762550 0.14411933 -0.08950318
v -0.67806900 0.24408505 -0.14652784
v -0.23659497 0.10016510 -0.06012205
v 0.22164395 -0.05641501 0.02505164
v 0.68002993 -0.21310473 0.11032010
v 0.46443993 -0.14218605 0.06798599
v 0.70694190 -0.22817631 0.11104673
v -0.74865788 0.25981433 -0.16083929
v -0.75733440 0.26469202 -0.16181867
v -0.76806971 0.26480166 -0.16361945
v 0.73429505 -0.22740903 0.12668507
v 0.73429505 -0.23058777 0.12276758
v 0.52091103 -0.15687399 0.08267656
v 0.43664568 -0.12755290 0.06754370
v -0.76806971 0.24233130 -0.13597592
v -0.76689322 0.24266011 -0.13073153
v -0.72130472 0.22961634 -0.11844201
v -0.66498072 0.21476397 -0.10327756
v -0.52292077 0.17141261 -0.07440191
v -0.22203603 0.07177571 -0.01750361
v 0.00649519 0.00036378 0.02533597
v -0.45203789 0.15617660 -0.06018523
v 0.54826419 -0.18444131 0.12564251
v 0.47546943 -0.15588750 0.11145744
v 0.40326302 -0.12771733 0.09701961
v 0.48546955 -0.15533944 0.11186813
v 0.72841261 -0.23820577 0.15622416
v 0.73429505 -0.24960537 0.15913069
v -0.52042069 0.18725147 -0.11803130
v -0.13571182 0.05780023 -0.04625289
v 0.73429505 -0.23535588 0.11948195
v 0.73429505 -0.24116529 0.11714410
v 0.73429505 -0.24960537 0.11550128
v 0.71047136 -0.23771254 0.11044647
v 0.63723541 -0.21250187 0.09638776
v 0.48032249 -0.15544905 0.06767007
v -0.74865788 0.25669038 -0.16083929
v -0.36321363 0.13030828 -0.08937681
v 0.17855536 -0.05630540 0.01089814
v -0.20688885 0.07259779 -0.06053275
v -0.76806971 0.26222578 -0.16346148
v -0.76806971 0.24189282 -0.13900880
v -0.72601058 0.22775296 -0.12795139
v -0.63703926 0.20024045 -0.10293004
v -0.52233247 0.15754675 -0.08877655
v 0.14943750 -0.07099334 0.03964742
v -0.36497833 0.11474344 -0.04609493
v -0.42203761 0.12904775 -0.06037479
v 0.12031961 -0.05696306 0.03986857
v 0.41988083 -0.15725764 0.09724076
v 0.71973608 -0.25755222 0.15448658
v 0.47767542 -0.17139753 0.11126788
v 0.31988001 -0.11450914 0.08277134
v 0.70473602 -0.24396038 0.15442339
v 0.16281995 -0.05740151 0.05411684
v 0.54826419 -0.18674315 0.12564251
v 0.70473602 -0.24023357 0.15442339
v 0.71414783 -0.23858941 0.15530798
v 0.64267666 -0.21069328 0.14121768
v 0.72841261 -0.24960537 0.15815131
v 0.73429505 -0.26177226 0.15663487
v 0.02164237 0.00091184 -0.01772476
v 0.73429505 -0.25574363 0.11736525
v 0.72841261 -0.24960537 0.11455350
v 0.71047136 -0.24390559 0.11044647
v 0.63723541 -0.21529698 0.09638776
v -0.67571612 0.22824619 -0.14659103
v -0.75777560 0.25570387 -0.16140796
v -0.20688885 0.07155648 -0.06053275
v 0.17855536 -0.05712749 0.01089814
v -0.76806971 0.25553950 -0.16178707
v -0.56556819 0.17168664 -0.10239296
v -0.76806971 0.24244089 -0.14769677
v -0.56556819 0.17168664 -0.10403578
v 0.36385094 -0.14246007 0.08248701
v 0.02031882 -0.02829964 0.01143522
v 0.69223593 -0.25689457 0.13985919
v 0.63576482 -0.22773788 0.13951167
v 0.66297098 -0.24291908 0.14011193
v 0.57870563 -0.21359798 0.12501066
v 0.73429505 -0.26878740 0.14981086
v 0.72841261 -0.25985404 0.15584505
v 0.73429505 -0.26325200 0.12096681
v 0.69973596 -0.24483726 0.10981462
v 0.32443887 -0.11456394 0.03920513
v 0.25179123 -0.08622935 0.02492526
v -0.60321546 0.20013084 -0.13215320
v -0.13468240 0.04294787 -0.04631608
v -0.68630443 0.22775296 -0.14700174
v -0.76806971 0.25345685 -0.16039700
v -0.61498026 0.20007603 -0.13221639
v -0.70071630 0.22802697 -0.14703333
v 0.43532209 -0.17101389 0.08251860
v -0.48042044 0.14291361 -0.09013503
v -0.76806971 0.24556484 -0.15180381
v -0.75777560 0.24107074 -0.14949755
v -0.72042233 0.22945191 -0.14551688
v -0.68262786 0.21383228 -0.13338532
v -0.22483017 0.05675892 -0.04751659
v 0.69091234 -0.25733300 0.12428403
v -0.39527269 0.11414058 -0.07604473
v -0.02262269 -0.01405014 -0.00395038
v 0.43532209 -0.17101389 0.08242382
v 0.56341136 -0.21414604 0.11155221
v 0.64811791 -0.24308351 0.12677985
v 0.73297146 -0.27191135 0.14207067
v 0.73429505 -0.27136327 0.14447172
v 0.73429505 -0.26692402 0.12431563
v 0.72841261 -0.26215591 0.12055610
v 0.67120631 -0.24379596 0.10984620
v 0.68547108 -0.24467283 0.10949869
v 0.39605708 -0.14267931 0.05370614
v -0.06453478 0.01472289 -0.03184666
v -0.71086341 0.22862983 -0.14662262
v -0.62350978 0.20029525 -0.13205843
v -0.06527008 0.01472289 -0.03184666
v -0.07482898 0.01488731 -0.03175188
v 0.06252504 -0.04282317 0.00998196
v 0.52046984 -0.19984173 0.09619820
v -0.34938997 0.10071316 -0.07377006
v -0.59718601 0.18522367 -0.11897908
v 0.29061506 -0.11418030 0.03929991
v 0.20399675 -0.08579091 0.02473571
v 0.66150040 -0.24302867 0.11047806
v 0.11767254 -0.05740151 0.01020311
v 0.48958721 -0.18608548 0.08147604
v 0.40385127 -0.15753167 0.06703822
v 0.69973596 -0.25859352 0.12257803
v 0.73429505 -0.26988349 0.12914929
v 0.73297146 -0.27191135 0.13657356
v 0.60561759 -0.22855996 0.11019372
v 0.73429505 -0.27213056 0.14263934
v 0.37826282 -0.14240527 0.05389569
v 0.38782173 -0.14267931 0.05370614
v 0.73429505 -0.27207572 0.13603648
v 0.73429505 -0.27213056 0.13783726
f 1 2 6
f 1 6 19
f 1 19 43
f 1 43 73
f 1 73 106
f 1 106 137
f 1 137 167
f 1 167 186
f 1 186 191
f 1 191 169
f 1 169 138
f 1 138 111
f 1 111 79
f 1 79 52
f 1 52 28
f 1 28 11
f 1 11 8
f 1 8 3
f 1 3 4
f 1 4 5
f 1 5 7
f 1 7 2
f 2 7 6
f 3 8 4
f 4 9 10
f 4 10 5
f 4 8 11
f 4 11 12
f 4 12 13
f 4 13 14
f 4 14 15
f 4 15 16
f 4 16 17
f 4 17 9
f 5 10 20
f 5 20 7
f 6 7 18
f 6 18 19
f 7 20 21
f 7 21 22
f 7 22 18
f 9 17 23
f 9 23 10
f 10 24 25
f 10 25 21
f 10 21 20
f 10 23 26
f 10 26 27
f 10 27 24
f 11 28 29
f 11 29 30
f 11 30 31
f 11 31 32
f 11 32 12
f 12 32 13
f 13 32 33
f 13 33 34
f 13 34 14
f 14 34 35
f 14 35 36
f 14 36 37
f 14 37 15
f 15 37 38
f 15 38 16
f 16 38 39
f 16 39 17
f 17 39 23
f 18 40 19
f 18 22 41
f 18 41 42
f 18 42 40
f 19 40 43
f 21 25 24
f 21 24 44
f 21 44 22
f 22 44 45
f 22 45 46
f 22 46 47
f 22 47 48
f 22 48 41
f 23 39 26
f 24 27 49
f 24 49 50
f 24 50 45
f 24 45 44
f 26 39 51
f 26 51 27
f 27 51 49
f 28 52 53
f 28 53 54
f 28 54 29
f 29 54 30
f 30 55 31
f 30 54 56
f 30 56 57
f 30 57 55
f 31 55 32
f 32 55 58
f 32 58 33
f 33 58 59
f 33 59 60
f 33 60 61
f 33 61 34
f 34 61 62
f 34 62 35
f 35 62 36
f 36 62 63
f 36 63 37
f 37 63 38
f 38 63 64
f 38 64 65
f 38 65 66
f 38 66 67
f 38 67 68
f 38 68 51
f 38 51 39
f 40 69 70
f 40 70 43
f 40 42 71
f 40 71 72
f 40 72 69
f 41 71 42
f 41 48 71
f 43 70 73
f 45 50 74
f 45 74 75
f 45 75 76
f 45 76 46
f 46 76 77
f 46 77 48
f 46 48 47
f 48 77 78
f 48 78 71
f 49 51 50
f 50 51 68
f 50 68 74
f 52 79 80
f 52 80 81
f 52 81 53
f 53 81 80
f 53 80 82
f 53 82 83
f 53 83 84
f 53 84 54
f 54 84 85
f 54 85 56
f 55 57 58
f 56 85 86
f 56 86 87
f 56 87 88
f 56 88 57
f 57 88 89
f 57 89 58
f 58 89 59
f 59 89 90
f 59 90 60
f 60 90 91
f 60 91 92
f 60 92 93
f 60 93 94
f 60 94 95
f 60 95 62
f 60 62 61
f 62 95 63
f 63 95 64
f 64 94 65
f 64 95 94
f 65 96 66
f 65 94 96
f 66 68 67
f 66 96 124
f 66 124 157
f 66 157 177
f 66 177 203
f 66 203 228
f 66 228 232
f 66 232 231
f 66 231 225
f 66 225 204
f 66 204 179
f 66 179 159
f 66 159 129
f 66 129 128
f 66 128 127
f 66 127 108
f 66 108 77
f 66 77 107
f 66 107 75
f 66 75 68
f 68 75 74
f 69 97 98
f 69 98 70
f 69 72 99
f 69 99 100
f 69 100 101
f 69 101 102
f 69 102 103
f 69 103 97
f 70 98 104
f 70 104 105
f 70 105 106
f 70 106 73
f 71 78 72
f 72 78 100
f 72 100 99
f 75 107 76
f 76 107 77
f 77 108 103
f 77 103 101
f 77 101 109
f 77 109 110
f 77 110 78
f 78 110 109
f 78 109 101
f 78 101 100
f 79 111 112
f 79 112 80
f 80 112 82
f 82 112 113
f 82 113 114
f 82 114 115
f 82 115 83
f 83 115 116
f 83 116 117
f 83 117 118
f 83 118 85
f 83 85 84
f 85 118 117
f 85 117 86
f 86 117 152
f 86 152 119
f 86 119 120
f 86 120 87
f 87 120 121
f 87 121 88
f 88 121 90
f 88 90 89
f 90 121 122
f 90 122 92
f 90 92 91
f 92 123 96
f 92 96 94
f 92 94 93
f 92 122 123
f 96 123 124
f 97 103 98
f 98 125 104
f 98 103 126
f 98 126 125
f 101 103 102
f 103 108 127
f 103 127 128
f 103 128 129
f 103 129 130
f 103 130 131
f 103 131 132
f 103 132 126
f 104 133 106
f 104 106 105
f 104 125 134
f 104 134 135
f 104 135 136
f 104 136 165
f 104 165 133
f 106 133 137
f 111 138 139
f 111 139 112
f 112 140 113
f 112 139 141
f 112 141 142
f 112 142 140
f 113 140 114
f 114 143 115
f 114 140 144
f 114 144 145
f 114 145 146
f 114 146 147
f 114 147 143
f 115 143 148
f 115 148 116
f 116 148 149
f 116 149 150
f 116 150 151
f 116 151 117
f 117 151 152
f 119 152 150
f 119 150 153
f 119 153 154
f 119 154 120
f 120 154 155
f 120 155 121
f 121 155 123
f 121 123 122
f 123 155 154
f 123 154 124
f 124 154 153
f 124 153 150
f 124 150 156
f 124 156 157
f 125 126 158
f 125 158 134
f 126 132 158
f 129 159 160
f 129 160 161
f 129 161 130
f 130 161 162
f 130 162 131
f 131 162 166
f 131 166 135
f 131 135 132
f 132 135 158
f 133 163 164
f 133 164 137
f 133 165 163
f 134 158 135
f 135 166 165
f 135 165 136
f 137 164 167
f 138 168 139
f 138 169 170
f 138 170 168
f 139 168 141
f 140 142 171
f 140 171 145
f 140 145 144
f 141 168 172
f 141 172 142
f 142 172 173
f 142 173 171
f 143 147 174
f 143 174 148
f 145 171 175
f 145 175 176
f 145 176 146
f 146 176 147
f 147 176 175
f 147 175 177
f 147 177 157
f 147 157 178
f 147 178 150
f 147 150 174
f 148 174 150
f 148 150 149
f 150 178 156
f 150 152 151
f 156 178 157
f 159 179 180
f 159 180 161
f 159 161 160
f 161 180 181
f 161 181 182
f 161 182 162
f 162 182 165
f 162 165 166
f 163 183 164
f 163 165 184
f 163 184 183
f 164 183 185
f 164 185 167
f 165 182 184
f 167 185 187
f 167 187 188
f 167 188 186
f 168 189 172
f 168 170 199
f 168 199 189
f 169 190 170
f 169 191 192
f 169 192 193
f 169 193 194
f 169 194 195
f 169 195 196
f 169 196 197
f 169 197 190
f 170 190 198
f 170 198 199
f 171 173 175
f 172 189 200
f 172 200 173
f 173 200 201
f 173 201 202
f 173 202 203
f 173 203 177
f 173 177 175
f 179 204 205
f 179 205 206
f 179 206 207
f 179 207 180
f 180 207 208
f 180 208 181
f 181 208 184
f 181 184 182
f 183 187 185
f 183 184 209
f 183 209 187
f 184 208 209
f 186 192 191
f 186 188 210
f 186 210 193
f 186 193 192
f 187 211 188
f 187 209 212
f 187 212 213
f 187 213 211
f 188 211 210
f 189 199 226
f 189 226 202
f 189 202 201
f 189 201 200
f 190 197 214
f 190 214 215
f 190 215 198
f 193 216 217
f 193 217 194
f 193 210 218
f 193 218 219
f 193 219 220
f 193 220 221
f 193 221 222
f 193 222 216
f 194 217 216
f 194 216 223
f 194 223 195
f 195 223 196
f 196 223 222
f 196 222 220
f 196 220 224
f 196 224 225
f 196 225 226
f 196 226 215
f 196 215 227
f 196 227 214
f 196 214 197
f 198 215 199
f 199 215 226
f 202 226 232
f 202 232 228
f 202 228 203
f 204 225 224
f 204 224 220
f 204 220 206
f 204 206 205
f 206 220 229
f 206 229 207
f 207 229 230
f 207 230 208
f 208 230 212
f 208 212 209
f 210 211 218
f 211 213 229
f 211 229 218
f 212 230 213
f 213 230 229
f 214 227 215
f 216 222 223
f 218 229 220
f 218 220 219
f 220 222 221
f 225 231 226
f 226 231 232

