v -0.76807231 0.26493580 -0.11987529
v -0.76807231 0.27975526 -0.12649906
v -0.79474226 0.30881791 -0.13127854
v -0.79474226 0.29229581 -0.12641467
v -0.79474226 0.27915281 -0.12258748
v -0.77220270 0.26486378 -0.12041170
v -0.76807231 0.25008360 -0.12486572
v -0.76807231 0.28405770 -0.13109170
v -0.76807231 0.28686048 -0.13523833
v -0.79249692 0.30883102 -0.13962606
v -0.79430889 0.30883102 -0.13332172
v -0.79474226 0.30883102 -0.13327953
v -0.79474226 0.26512571 -0.12379290
v -0.79474226 0.25573505 -0.12999477
v -0.76807231 0.24440598 -0.12978985
v -0.76807231 0.28770526 -0.14049395
v -0.79246298 0.30883102 -0.13979482
v -0.79474226 0.30883102 -0.18144199
v -0.79474226 0.25115102 -0.13904143
v -0.76807231 0.24235627 -0.13599172
v -0.76807231 0.28770526 -0.14238043
v -0.78658595 0.30883102 -0.18144199
v -0.79004796 0.30883102 -0.15442256
v -0.79474226 0.29014132 -0.18144199
v -0.79474226 0.24953351 -0.14728648
v -0.76875634 0.24216637 -0.13904143
v -0.76807231 0.24194370 -0.13904143
v -0.76807231 0.28733199 -0.14960692
v -0.76807231 0.28276761 -0.15635122
v -0.76807231 0.28139897 -0.15770129
v -0.76807231 0.27642858 -0.16196245
v -0.76807231 0.26481794 -0.16361387
v -0.76807231 0.26223125 -0.16348127
v -0.78688879 0.30719386 -0.18144199
v -0.79172933 0.29130697 -0.18144199
v -0.79474226 0.28180497 -0.18137569
v -0.79474226 0.25064677 -0.16096195
v -0.76807231 0.24246759 -0.14772646
v -0.76807231 0.25554512 -0.16180574
v -0.79143431 0.29224999 -0.18144199
v -0.79128813 0.29272803 -0.18144199
v -0.79474226 0.25315488 -0.16510256
v -0.76815062 0.24250033 -0.14779276
v -0.76807231 0.24561091 -0.15181885
v -0.76807231 0.25348233 -0.16042553
f 1 2 3
f 1 3 4
f 1 4 5
f 1 5 6
f 1 6 7
f 1 7 15
f 1 15 20
f 1 20 27
f 1 27 38
f 1 38 44
f 1 44 45
f 1 45 39
f 1 39 33
f 1 33 32
f 1 32 31
f 1 31 30
f 1 30 29
f 1 29 28
f 1 28 21
f 1 21 16
f 1 16 9
f 1 9 8
f 1 8 2
f 2 8 3
f 3 9 10
f 3 10 11
f 3 11 12
f 3 12 18
f 3 18 24
f 3 24 36
f 3 36 42
f 3 42 37
f 3 37 25
f 3 25 19
f 3 19 14
f 3 14 13
f 3 13 5
f 3 5 4
f 3 8 9
f 5 13 6
f 6 13 7
f 7 14 15
f 7 13 14
f 9 16 17
f 9 17 10
f 10 17 23
f 10 23 22
f 10 22 18
f 10 18 12
f 10 12 11
f 14 19 15
f 15 19 20
f 16 21 22
f 16 22 23
f 16 23 17
f 18 22 34
f 18 34 41
f 18 41 40
f 18 40 35
f 18 35 24
f 19 25 20
f 20 26 27
f 20 25 26
f 21 28 22
f 22 28 29
f 22 29 30
f 22 30 31
f 22 31 32
f 22 32 33
f 22 33 34
f 24 35 36
f 25 37 38
f 25 38 27
f 25 27 26
f 33 39 36
f 33 36 35
f 33 35 40
f 33 40 41
f 33 41 34
f 36 39 42
f 37 43 38
f 37 42 43
f 38 43 44
f 39 45 42
f 42 45 44
f 42 44 43

