v 0.75907290 -0.39350036 0.13253266
v 0.75907290 -0.39316780 0.11823383
v 0.76900498 -0.38919552 0.10393500
v 0.76836501 -0.38973130 0.11823383
v 0.76726371 -0.38925095 0.13253266
v 0.75907290 -0.39207771 0.14680788
v 0.75907290 -0.39085831 0.10393500
v 0.76775530 -0.38740336 0.08963617
v 0.77490072 -0.38186066 0.08963617
v 0.77537631 -0.37971749 0.10688443
v 0.77537631 -0.38121402 0.08963617
v 0.76607311 -0.38797612 0.14680788
v 0.77537631 -0.37818401 0.11363271
v 0.77475229 -0.37825789 0.11823383
v 0.76503569 -0.38659043 0.15827526
v 0.75907290 -0.39156038 0.14973372
v 0.75907290 -0.38694147 0.08836202
v 0.76308374 -0.38590684 0.08142496
v 0.76564694 -0.38590684 0.08142496
v 0.77077340 -0.38134335 0.07613959
v 0.77537631 -0.37836875 0.07578565
v 0.77537631 -0.37696461 0.11688889
v 0.77244122 -0.37825789 0.13253266
v 0.75907290 -0.38928791 0.16183818
v 0.76403498 -0.38518629 0.16780781
v 0.75907290 -0.38906618 0.16294717
v 0.75907290 -0.38376365 0.08352495
v 0.76152923 -0.37382374 0.06490816
v 0.77132080 -0.37467363 0.06271379
v 0.77537631 -0.37397156 0.06337446
v 0.77537631 -0.31603179 0.23253008
v 0.77387925 -0.32109412 0.23253008
v 0.76419618 -0.37114477 0.19687738
v 0.75907290 -0.38402232 0.17816621
v 0.75907290 -0.38670129 0.17191343
v 0.75907290 -0.37598539 0.07241151
v 0.75907290 -0.37131104 0.06835309
v 0.76011353 -0.36421637 0.06051941
v 0.76278208 -0.35961594 0.05176551
v 0.77537631 -0.35906165 0.04294082
v 0.77132080 -0.36935262 0.05556437
v 0.77537631 -0.30688631 0.24626260
v 0.76808246 -0.33642894 0.23347388
v 0.76568686 -0.34603631 0.22934469
v 0.76678014 -0.35034115 0.21841999
v 0.76487924 -0.35834111 0.21377171
v 0.76284116 -0.35555127 0.22328067
v 0.76094026 -0.36787457 0.20640994
v 0.75907290 -0.37293690 0.20067625
v 0.75907290 -0.37744496 0.19182796
v 0.75907290 -0.36436419 0.06292614
v 0.76282199 -0.34967601 0.05105765
v 0.77537631 -0.33328808 0.02894873
v 0.77522630 -0.34967601 0.03664084
v 0.77537631 -0.35008247 0.03680600
v 0.77537631 -0.30071544 0.25272777
v 0.76635719 -0.33236428 0.24321879
v 0.76309171 -0.34189775 0.23887723
v 0.75907290 -0.35678915 0.22488517
v 0.75907290 -0.36065056 0.21964698
v 0.75907290 -0.36866902 0.20754252
v 0.75907290 -0.37038725 0.20478185
v 0.75907290 -0.34967601 0.06545086
v 0.75989646 -0.34967601 0.06106211
v 0.76376526 -0.34123263 0.05226101
v 0.77418572 -0.32109412 0.03248805
v 0.77537631 -0.32109412 0.02942064
v 0.76626938 -0.31728814 0.25588954
v 0.76892678 -0.32166688 0.24753676
v 0.77537631 -0.29096028 0.25931089
v 0.75907290 -0.33774073 0.24371432
v 0.75907290 -0.34285849 0.23975027
v 0.75907290 -0.34843813 0.23413455
v 0.75907290 -0.24203664 0.12344842
v 0.77537631 -0.31593940 0.03248805
v 0.75907290 -0.31893248 0.25633785
v 0.75907290 -0.32449364 0.25348282
v 0.77537631 -0.28068779 0.26598840
v 0.76563738 -0.28735752 0.26877267
v 0.75907290 -0.24114983 0.12425066
v 0.77537631 -0.23789810 0.13248547
v 0.76304382 -0.28735752 0.26877267
v 0.75907290 -0.30679395 0.26060864
v 0.77537631 -0.27401807 0.26874905
v 0.77076859 -0.27719589 0.26915018
v 0.77132080 -0.26394883 0.26997601
v 0.75907290 -0.23642005 0.13250906
v 0.77537631 -0.20480813 0.23253008
v 0.76235913 -0.27823052 0.26922097
v 0.75907290 -0.29107114 0.26542209
v 0.75907290 -0.30487246 0.26119852
v 0.77537631 -0.27019361 0.26910300
v 0.77537631 -0.25748233 0.26966927
v 0.77537631 -0.24992576 0.26936255
v 0.77157779 -0.25012901 0.26938613
v 0.76277093 -0.26394883 0.26919735
v 0.77537631 -0.26394883 0.26950413
v 0.75907290 -0.23525608 0.14680788
v 0.77537631 -0.20477118 0.23465367
v 0.75907290 -0.27013818 0.26539850
v 0.75907290 -0.27808273 0.26565807
v 0.75907290 -0.28831826 0.26570525
v 0.77537631 -0.24523294 0.26915018
v 0.77537631 -0.24205514 0.26898501
v 0.76359286 -0.25520982 0.26872546
v 0.75907290 -0.24938998 0.24708846
v 0.76275177 -0.23872951 0.25695134
v 0.76891400 -0.22106675 0.24682892
v 0.77537631 -0.20636009 0.24633339
v 0.75907290 -0.26167630 0.26308615
v 0.77537631 -0.24035537 0.26856030
v 0.76698760 -0.24567636 0.26648388
v 0.77537631 -0.21543166 0.25699852
v 0.76131057 -0.25012901 0.26148168
v 0.75907290 -0.25474792 0.25657383
v 0.75907290 -0.25823983 0.26126931
v 0.77537631 -0.21278964 0.25442662
v 0.77537631 -0.20689589 0.24704126
f 1 2 3
f 1 3 4
f 1 4 5
f 1 5 6
f 1 6 16
f 1 16 24
f 1 24 26
f 1 26 35
f 1 35 34
f 1 34 50
f 1 50 49
f 1 49 62
f 1 62 61
f 1 61 60
f 1 60 59
f 1 59 73
f 1 73 72
f 1 72 71
f 1 71 77
f 1 77 76
f 1 76 83
f 1 83 91
f 1 91 90
f 1 90 102
f 1 102 101
f 1 101 100
f 1 100 110
f 1 110 116
f 1 116 115
f 1 115 106
f 1 106 98
f 1 98 87
f 1 87 80
f 1 80 74
f 1 74 63
f 1 63 51
f 1 51 37
f 1 37 36
f 1 36 27
f 1 27 17
f 1 17 7
f 1 7 2
f 2 7 8
f 2 8 3
f 3 8 9
f 3 9 4
f 4 10 5
f 4 9 11
f 4 11 10
f 5 12 6
f 5 10 13
f 5 13 14
f 5 14 12
f 6 12 15
f 6 15 16
f 7 17 18
f 7 18 19
f 7 19 8
f 8 19 20
f 8 20 21
f 8 21 9
f 9 21 11
f 10 11 21
f 10 21 30
f 10 30 40
f 10 40 55
f 10 55 53
f 10 53 67
f 10 67 75
f 10 75 81
f 10 81 88
f 10 88 99
f 10 99 109
f 10 109 118
f 10 118 117
f 10 117 113
f 10 113 111
f 10 111 104
f 10 104 103
f 10 103 94
f 10 94 93
f 10 93 97
f 10 97 92
f 10 92 84
f 10 84 78
f 10 78 70
f 10 70 56
f 10 56 42
f 10 42 31
f 10 31 22
f 10 22 13
f 12 14 15
f 13 22 14
f 14 22 23
f 14 23 15
f 15 24 16
f 15 23 25
f 15 25 26
f 15 26 24
f 17 27 28
f 17 28 18
f 18 28 29
f 18 29 19
f 19 29 30
f 19 30 20
f 20 30 21
f 22 31 32
f 22 32 23
f 23 32 33
f 23 33 25
f 25 33 34
f 25 34 35
f 25 35 26
f 27 36 28
f 28 36 37
f 28 37 38
f 28 38 39
f 28 39 40
f 28 40 41
f 28 41 29
f 29 41 40
f 29 40 30
f 31 42 32
f 32 42 43
f 32 43 44
f 32 44 45
f 32 45 33
f 33 45 46
f 33 46 47
f 33 47 48
f 33 48 49
f 33 49 50
f 33 50 34
f 37 51 38
f 38 51 39
f 39 51 52
f 39 52 53
f 39 53 54
f 39 54 55
f 39 55 40
f 42 56 57
f 42 57 43
f 43 57 44
f 44 57 58
f 44 58 47
f 44 47 46
f 44 46 45
f 47 59 60
f 47 60 61
f 47 61 48
f 47 58 59
f 48 61 62
f 48 62 49
f 51 63 64
f 51 64 52
f 52 64 65
f 52 65 66
f 52 66 67
f 52 67 53
f 53 55 54
f 56 68 69
f 56 69 57
f 56 70 68
f 57 69 68
f 57 68 58
f 58 68 71
f 58 71 72
f 58 72 73
f 58 73 59
f 63 74 64
f 64 74 65
f 65 74 66
f 66 75 67
f 66 74 75
f 68 76 77
f 68 77 71
f 68 70 78
f 68 78 79
f 68 79 76
f 74 80 75
f 75 80 81
f 76 79 82
f 76 82 83
f 78 84 79
f 79 84 85
f 79 85 86
f 79 86 82
f 80 87 81
f 81 87 88
f 82 86 89
f 82 89 90
f 82 90 91
f 82 91 83
f 84 92 85
f 85 92 86
f 86 93 94
f 86 94 95
f 86 95 96
f 86 96 89
f 86 92 97
f 86 97 93
f 87 98 88
f 88 98 99
f 89 96 100
f 89 100 101
f 89 101 102
f 89 102 90
f 94 103 95
f 95 103 104
f 95 104 105
f 95 105 96
f 96 105 100
f 98 106 107
f 98 107 108
f 98 108 99
f 99 108 109
f 100 105 110
f 104 111 105
f 105 111 112
f 105 112 113
f 105 113 107
f 105 107 114
f 105 114 110
f 106 115 107
f 107 115 116
f 107 116 114
f 107 113 117
f 107 117 118
f 107 118 109
f 107 109 108
f 110 114 116
f 111 113 112

