v 0.75907285 -0.26393178 0.16469572
v 0.75907285 -0.27723149 0.16279370
v 0.75907285 -0.24964534 0.16274556
v 0.74274025 -0.24964534 0.16052092
v 0.73429741 -0.24964534 0.15912931
v 0.73429741 -0.26179884 0.15664465
v 0.75907285 -0.28061107 0.16135395
v 0.75907285 -0.24793192 0.16181622
v 0.73429741 -0.23849036 0.15640871
v 0.73429741 -0.26881208 0.14982630
v 0.73429741 -0.27217984 0.14267086
v 0.75907285 -0.28669669 0.14679752
v 0.73429741 -0.27137631 0.14448139
v 0.75907285 -0.23967794 0.15695283
v 0.74274025 -0.23889212 0.15663984
v 0.73429741 -0.23121716 0.14909920
v 0.73429741 -0.27217984 0.13785564
v 0.75907285 -0.28542639 0.14278162
v 0.73429741 -0.27211485 0.13604992
v 0.75907285 -0.23524668 0.14679752
v 0.73828959 -0.22734128 0.14155854
v 0.73429741 -0.22673271 0.14243010
v 0.75907285 -0.28129055 0.13412865
v 0.73429741 -0.26991104 0.12916415
v 0.75907285 -0.23641652 0.13250593
v 0.73768570 -0.22753034 0.13251073
v 0.73429741 -0.22633685 0.13251073
v 0.75907285 -0.28072334 0.13325228
v 0.73855399 -0.27044868 0.12705508
v 0.73429741 -0.26696276 0.12432966
v 0.73568713 -0.22816844 0.12531197
v 0.75907285 -0.24114911 0.12423817
v 0.73429741 -0.22742400 0.12669393
v 0.75907285 -0.27323744 0.12358330
v 0.74807851 -0.27141766 0.12502305
v 0.73429741 -0.26329368 0.12099271
v 0.73429741 -0.22787895 0.12494120
v 0.75907285 -0.24202356 0.12344848
v 0.75907285 -0.26628331 0.12063638
v 0.73429741 -0.25577823 0.11738610
v 0.73429741 -0.23060269 0.12279360
v 0.75907285 -0.25142377 0.11959629
v 0.73429741 -0.23535892 0.11950480
v 0.73429741 -0.24964534 0.11550817
v 0.75907285 -0.26377814 0.12016930
v 0.74274025 -0.24964534 0.11685643
v 0.73429741 -0.24120229 0.11715978
f 1 2 7
f 1 7 12
f 1 12 18
f 1 18 23
f 1 23 28
f 1 28 34
f 1 34 39
f 1 39 45
f 1 45 42
f 1 42 38
f 1 38 32
f 1 32 25
f 1 25 20
f 1 20 14
f 1 14 8
f 1 8 3
f 1 3 4
f 1 4 5
f 1 5 2
f 2 6 7
f 2 5 6
f 3 8 9
f 3 9 4
f 4 9 5
f 5 9 16
f 5 16 22
f 5 22 27
f 5 27 33
f 5 33 37
f 5 37 41
f 5 41 43
f 5 43 47
f 5 47 44
f 5 44 40
f 5 40 36
f 5 36 30
f 5 30 24
f 5 24 19
f 5 19 17
f 5 17 11
f 5 11 13
f 5 13 10
f 5 10 6
f 6 10 7
f 7 11 12
f 7 10 13
f 7 13 11
f 8 14 15
f 8 15 9
f 9 15 16
f 11 17 12
f 12 17 19
f 12 19 18
f 14 20 21
f 14 21 22
f 14 22 16
f 14 16 15
f 18 19 24
f 18 24 23
f 20 25 26
f 20 26 21
f 21 26 27
f 21 27 22
f 23 24 29
f 23 29 28
f 24 30 29
f 25 31 26
f 25 32 31
f 26 31 27
f 27 31 33
f 28 29 35
f 28 35 34
f 29 30 35
f 30 36 34
f 30 34 35
f 31 37 33
f 31 32 38
f 31 38 37
f 34 36 40
f 34 40 39
f 37 38 41
f 38 42 43
f 38 43 41
f 39 40 44
f 39 44 45
f 42 46 47
f 42 47 43
f 42 45 46
f 44 47 46
f 44 46 45

