v 0.75702776 -0.39458208 0.13251956
v 0.75702776 -0.39391395 0.11822632
v 0.75906947 -0.39316054 0.11822632
v 0.75906947 -0.39350171 0.13251956
v 0.75702776 -0.39326005 0.14683266
v 0.74358298 -0.38976301 0.16112590
v 0.74355676 -0.39070125 0.14683266
v 0.74447528 -0.39072967 0.13251956
v 0.74596734 -0.38959243 0.11822632
v 0.75702776 -0.39118456 0.10393307
v 0.75906947 -0.39084339 0.10393307
v 0.75906947 -0.39206593 0.14683266
v 0.75906947 -0.39156838 0.14977071
v 0.75837226 -0.38960664 0.16229715
v 0.75490990 -0.38797186 0.17535960
v 0.75196157 -0.38633707 0.18484872
v 0.74791623 -0.38633707 0.18484872
v 0.74544380 -0.38797186 0.17535960
v 0.73525192 -0.37166665 0.19777220
v 0.73829782 -0.38032390 0.17535960
v 0.73663924 -0.37749502 0.16195967
v 0.73796943 -0.37826264 0.14683266
v 0.74265254 -0.37826264 0.11822632
v 0.74808520 -0.38738903 0.10393307
v 0.74006588 -0.37826264 0.13251956
v 0.74948914 -0.38583955 0.09593282
v 0.75780114 -0.38726110 0.09055301
v 0.75906947 -0.38693413 0.08836932
v 0.75906947 -0.38906646 0.16299197
v 0.75906947 -0.38669245 0.17192525
v 0.75906947 -0.38401995 0.17815869
v 0.75906947 -0.37745237 0.19181668
v 0.75906947 -0.37293184 0.20067055
v 0.75651614 -0.37381319 0.20255647
v 0.75140951 -0.37190833 0.21224411
v 0.74823987 -0.37190833 0.21224411
v 0.74318558 -0.37412594 0.20311231
v 0.73484026 -0.37277547 0.18965284
v 0.73871903 -0.36762944 0.20728118
v 0.73511867 -0.35810505 0.21262129
v 0.73487834 -0.36330791 0.20311231
v 0.73497826 -0.37318771 0.17535960
v 0.73543991 -0.37220685 0.16722039
v 0.73543991 -0.37060049 0.16722039
v 0.74594827 -0.37826264 0.10393307
v 0.74981753 -0.37088479 0.08231454
v 0.74981753 -0.37129706 0.08231454
v 0.75906947 -0.37597396 0.07240853
v 0.75906947 -0.38376406 0.08350564
v 0.75906947 -0.37038725 0.20477986
v 0.75906947 -0.36064962 0.21962894
v 0.75906947 -0.35679723 0.22488967
v 0.75331082 -0.35867366 0.22735128
v 0.75906947 -0.36866718 0.20753925
v 0.74713810 -0.35867366 0.22735128
v 0.73476170 -0.36374860 0.18985136
v 0.74428730 -0.34922035 0.23225466
v 0.74573887 -0.33538864 0.24396717
v 0.73929250 -0.33538864 0.23253258
v 0.73511867 -0.35344235 0.21262129
v 0.73495450 -0.35344235 0.20396594
v 0.73497826 -0.36866718 0.17535960
v 0.73521384 -0.35568841 0.19475474
v 0.74801615 -0.36349273 0.10442936
v 0.74907508 -0.36856767 0.08963983
v 0.75906947 -0.34967524 0.06546042
v 0.75906947 -0.36435987 0.06291940
v 0.75906947 -0.37131127 0.06835877
v 0.75906947 -0.34843849 0.23412070
v 0.75906947 -0.34285180 0.23975860
v 0.75356065 -0.34415962 0.24096957
v 0.74804948 -0.34415962 0.24096957
v 0.74832788 -0.31788931 0.25536207
v 0.74490125 -0.32202604 0.24803679
v 0.74019677 -0.32111625 0.23253258
v 0.74753074 -0.30682965 0.25665244
v 0.74386613 -0.30682965 0.24682582
v 0.73784093 -0.33538864 0.21825920
v 0.74383281 -0.30682965 0.23253258
v 0.74958912 -0.28445442 0.23821018
v 0.75721815 -0.34967524 0.07534658
v 0.75906947 -0.34379000 0.07518777
v 0.75906947 -0.33774842 0.24370911
v 0.75780589 -0.33644057 0.24523768
v 0.75702776 -0.32656080 0.25280119
v 0.75702776 -0.31942461 0.25645392
v 0.75702776 -0.30682965 0.26105950
v 0.75906947 -0.29106462 0.26542689
v 0.74649798 -0.29254303 0.24682582
v 0.74797097 -0.28671468 0.24682582
v 0.75906947 -0.28830681 0.26572467
v 0.75906947 -0.27808585 0.26566512
v 0.74808996 -0.29254303 0.25679139
v 0.74865628 -0.28671468 0.25607672
v 0.74907749 -0.28240737 0.25554073
v 0.74797572 -0.28671468 0.25182846
v 0.74905607 -0.28246423 0.24682582
v 0.75116438 -0.27531383 0.24682582
v 0.75462674 -0.26394139 0.24682582
v 0.75906947 -0.24935628 0.24682582
v 0.75906947 -0.32449954 0.25347615
v 0.75906947 -0.31895548 0.25633480
v 0.75906947 -0.30682965 0.26062277
v 0.75906947 -0.27013938 0.26538718
v 0.75906947 -0.24938472 0.24708389
v 0.75906947 -0.26168113 0.26308439
v 0.75906947 -0.25822677 0.26125801
v 0.75906947 -0.25475817 0.25657301
f 1 2 3
f 1 3 4
f 1 4 5
f 1 5 6
f 1 6 7
f 1 7 8
f 1 8 2
f 2 8 9
f 2 9 10
f 2 10 11
f 2 11 3
f 3 11 28
f 3 28 49
f 3 49 48
f 3 48 68
f 3 68 67
f 3 67 66
f 3 66 82
f 3 82 100
f 3 100 105
f 3 105 108
f 3 108 107
f 3 107 106
f 3 106 104
f 3 104 92
f 3 92 91
f 3 91 88
f 3 88 103
f 3 103 102
f 3 102 101
f 3 101 83
f 3 83 70
f 3 70 69
f 3 69 52
f 3 52 51
f 3 51 54
f 3 54 50
f 3 50 33
f 3 33 32
f 3 32 31
f 3 31 30
f 3 30 29
f 3 29 13
f 3 13 12
f 3 12 4
f 4 12 5
f 5 12 13
f 5 13 14
f 5 14 15
f 5 15 16
f 5 16 17
f 5 17 18
f 5 18 6
f 6 18 19
f 6 19 20
f 6 20 7
f 7 20 21
f 7 21 8
f 8 21 22
f 8 22 9
f 9 23 24
f 9 24 10
f 9 22 25
f 9 25 23
f 10 26 27
f 10 27 28
f 10 28 11
f 10 24 26
f 13 29 14
f 14 29 15
f 15 29 30
f 15 30 16
f 16 30 31
f 16 31 32
f 16 32 33
f 16 33 34
f 16 34 35
f 16 35 36
f 16 36 17
f 17 36 37
f 17 37 19
f 17 19 18
f 19 38 20
f 19 37 36
f 19 36 39
f 19 39 40
f 19 40 41
f 19 41 38
f 20 38 21
f 21 38 42
f 21 42 43
f 21 43 22
f 22 43 44
f 22 44 25
f 23 45 26
f 23 26 24
f 23 25 46
f 23 46 47
f 23 47 45
f 25 44 46
f 26 47 48
f 26 48 49
f 26 49 28
f 26 28 27
f 26 45 47
f 33 50 34
f 34 50 35
f 35 51 52
f 35 52 53
f 35 53 55
f 35 55 36
f 35 50 54
f 35 54 51
f 36 55 39
f 38 41 56
f 38 56 42
f 39 55 40
f 40 55 57
f 40 57 58
f 40 58 59
f 40 59 60
f 40 60 41
f 41 61 56
f 41 60 61
f 42 62 44
f 42 44 43
f 42 56 62
f 44 62 63
f 44 63 64
f 44 64 65
f 44 65 46
f 46 65 66
f 46 66 67
f 46 67 47
f 47 67 68
f 47 68 48
f 52 69 53
f 53 69 70
f 53 70 71
f 53 71 72
f 53 72 55
f 55 72 57
f 56 61 62
f 57 72 58
f 58 72 73
f 58 73 74
f 58 74 59
f 59 75 60
f 59 74 76
f 59 76 77
f 59 77 75
f 60 75 78
f 60 78 61
f 61 63 62
f 61 78 63
f 63 78 79
f 63 79 80
f 63 80 64
f 64 81 65
f 64 80 81
f 65 81 66
f 66 81 82
f 70 83 84
f 70 84 71
f 71 84 85
f 71 85 72
f 72 85 73
f 73 85 86
f 73 86 87
f 73 87 88
f 73 88 76
f 73 76 74
f 75 79 78
f 75 77 89
f 75 89 90
f 75 90 79
f 76 88 91
f 76 91 92
f 76 92 93
f 76 93 77
f 77 93 94
f 77 94 95
f 77 95 96
f 77 96 89
f 79 90 97
f 79 97 80
f 80 97 98
f 80 98 99
f 80 99 100
f 80 100 82
f 80 82 81
f 83 101 84
f 84 101 85
f 85 101 102
f 85 102 86
f 86 102 87
f 87 102 103
f 87 103 88
f 89 96 90
f 90 96 95
f 90 95 97
f 92 104 93
f 93 104 94
f 94 104 95
f 95 105 100
f 95 100 99
f 95 99 98
f 95 98 97
f 95 104 106
f 95 106 107
f 95 107 108
f 95 108 105

