v -0.02538761 -0.16502115 0.09847475
v -0.02538761 -0.16811792 0.09821367
v -0.02538761 -0.16136474 0.09843124
v -0.04792743 -0.12144261 0.08790082
v -0.05828756 -0.10692886 0.08307076
v -0.06009074 -0.10692886 0.08220048
v -0.06746741 -0.09603422 0.07865409
v -0.02538761 -0.16864027 0.09806136
v -0.06730348 -0.09965333 0.07841475
v -0.07192620 -0.09603422 0.07556458
v -0.07890944 -0.08715434 0.07169183
v -0.02538761 -0.15778295 0.09836595
v -0.04792743 -0.11782350 0.08770501
v -0.05991042 -0.10327244 0.08222224
v -0.18449417 0.08555552 0.02095441
v -0.06564783 -0.09603422 0.07945909
v -0.14039808 0.01291216 0.04245037
v -0.18431385 0.08189910 0.02086738
v -0.02538761 -0.17173703 0.09488483
v -0.11164546 -0.04006861 0.05367700
v -0.14007023 0.00925574 0.04205874
v -0.18836283 0.08189910 0.01769085
v -0.18069108 0.06876584 0.02097617
v -0.02538761 -0.15390266 0.09810487
v -0.04428827 -0.11782350 0.08887989
v -0.04792743 -0.11416708 0.08733515
v -0.05518935 -0.10692886 0.08424564
v -0.18437942 0.08801801 0.02086738
v -0.18631376 0.08555552 0.01986655
v -0.18413354 0.07999627 0.02075859
v -0.18890378 0.08555552 0.01806072
v -0.03538709 -0.16345413 0.05796314
v -0.02538761 -0.17893795 0.04434323
v -0.11205527 -0.04077751 0.05161008
v -0.11515348 -0.03618833 0.04989127
v -0.10956361 -0.04518014 0.05161008
v -0.11136679 -0.04320269 0.04923856
v -0.11054716 -0.04491897 0.04799841
v -0.10858004 -0.04812766 0.04797665
v -0.19157578 0.08327959 0.01388337
v -0.16629839 0.04309628 0.02515352
v -0.19072335 0.08555552 0.01618962
v -0.18790384 0.07980972 0.01727747
v -0.02538761 -0.15050741 0.09766973
v -0.04428827 -0.11416708 0.08846651
v -0.05518935 -0.10327244 0.08381050
v -0.17865840 0.08917463 0.02262970
v -0.17865840 0.08555552 0.02302132
v -0.18229756 0.08555552 0.02182469
v -0.18247789 0.08921194 0.02136779
v -0.18380568 0.09044318 0.02062805
v -0.18572361 0.08921194 0.01986655
v -0.18878903 0.08917463 0.01793018
v -0.03697717 -0.16140204 0.05524350
v -0.03868200 -0.15931267 0.05161008
v -0.03553463 -0.16364068 0.05524350
v -0.02714162 -0.17655008 0.04434323
v -0.04564886 -0.15528314 0.00076387
v -0.02538761 -0.18169891 0.01162064
v -0.16564269 0.04067110 0.02323890
v -0.16597055 0.04011145 0.02082386
v -0.11157989 -0.04353848 0.04680177
v -0.19183806 0.08555552 0.01436202
v -0.19265769 0.08555552 0.01166415
v -0.19190363 0.08264531 0.01166415
v -0.19096925 0.08081710 0.01166415
v -0.19075614 0.08951043 0.01540636
v -0.19178888 0.08854035 0.01427499
v -0.02538761 -0.14688830 0.09712580
v -0.03914100 -0.11562218 0.08981544
v -0.04046880 -0.11431631 0.08935855
v -0.04428827 -0.11054797 0.08785731
v -0.17503564 0.08917463 0.02352174
v -0.17503564 0.09279374 0.02280376
v -0.17883872 0.09298029 0.02158536
v -0.18137959 0.09186098 0.02108495
v -0.18826447 0.09156250 0.01751680
v -0.18016653 0.09428616 0.02060629
v -0.18247789 0.09298029 0.02006237
v -0.11059634 -0.04555324 0.04434323
v -0.03732142 -0.16140204 0.05161008
v -0.16549514 0.03727586 0.01166415
v -0.03581330 -0.16412571 0.04797665
v -0.03455107 -0.16595392 0.04797665
v -0.07102460 -0.11868164 -0.05369400
v -0.03969835 -0.16449881 -0.03552687
v -0.03838694 -0.16628972 -0.03552687
v -0.02538761 -0.18319133 -0.01374807
v -0.02538761 -0.18304209 -0.01004938
v -0.02538761 -0.18196009 0.00803072
v -0.18251067 0.04921519 -0.11180707
v -0.18106812 0.04675270 -0.11470075
v -0.19124792 0.08029476 0.00868344
v -0.16613447 0.03985028 0.01893100
v -0.11308802 -0.04156103 0.04434323
v -0.16639675 0.03940255 0.01529758
v -0.16528204 0.03757434 0.01529758
v -0.19196920 0.08951043 0.01144658
v -0.19285440 0.08555552 0.00803072
v -0.19198559 0.08167524 0.00770437
v -0.18901852 0.09230870 0.01529758
v -0.19136268 0.09096553 0.01251267
v -0.02538761 -0.14394078 0.09666891
v -0.03779680 -0.11319701 0.08964139
v -0.04066551 -0.11054797 0.08866232
v -0.17139649 0.09645016 0.02252091
v -0.17774042 0.09525623 0.02110671
v -0.17139649 0.09279374 0.02347822
v -0.14500440 0.10969535 0.02454432
v -0.14743050 0.10868796 0.02430499
v -0.18585476 0.09279374 0.01821302
v -0.18459254 0.09499506 0.01747328
v -0.18718255 0.09413692 0.01529758
v -0.17598641 0.09768141 0.02034521
v -0.17883872 0.09645016 0.01973601
v -0.18198610 0.09630092 0.01801721
v -0.19139546 0.07641447 -0.01178994
v -0.19039551 0.07451164 -0.01374807
v -0.06920503 -0.12106951 -0.05369400
v -0.03596084 -0.16744634 -0.03811596
v -0.02538761 -0.18296746 -0.02440903
v -0.02538761 -0.18315401 -0.01731623
v -0.04620621 -0.15241024 -0.04842880
v -0.18393682 0.05160306 -0.11544049
v -0.18215003 0.04891670 -0.11572333
v -0.18019931 0.04753622 -0.11713754
v -0.06871325 -0.12047254 -0.05656593
v -0.19137907 0.08007090 0.00626840
v -0.17344556 0.05063299 0.01166415
v -0.19193641 0.08921194 0.00837884
v -0.19137907 0.09100284 0.01009764
v -0.19137907 0.09100284 0.00983656
v -0.19246097 0.08555552 0.00439730
v -0.19105121 0.07813075 -0.02499647
v -0.19142825 0.07682489 -0.02401740
v -0.19142825 0.07622792 -0.02401740
v -0.19144464 0.07619061 -0.02101493
v -0.19144464 0.07626523 -0.01738150
v -0.19142825 0.07633985 -0.01374807
v -0.19218230 0.08189910 0.00439730
v -0.18762516 0.09454733 0.01166415
v -0.18990374 0.09238333 0.01144658
v -0.02538761 -0.13524746 0.09512417
v -0.02612527 -0.13599366 0.09521119
v -0.03537070 -0.11226424 0.08977193
v -0.03676407 -0.11084645 0.08933679
v -0.17488811 0.09645016 0.02145482
v -0.14611910 0.11092660 0.02380458
v -0.16798683 0.10033045 0.02184645
v -0.17139649 0.09917382 0.02130252
v -0.11931720 0.13499181 0.02104144
v -0.17357670 0.09846492 0.02088914
v -0.11328472 0.13275319 0.02345647
v -0.11692388 0.13275319 0.02289078
v -0.03702635 -0.10692886 0.08844475
v -0.18055994 0.09831568 0.01719044
v -0.18536298 0.09551740 0.01529758
v -0.03338720 -0.16770751 -0.03835529
v -0.02538761 -0.18166159 -0.02695460
v -0.04659963 -0.14916424 -0.05223628
v -0.18433025 0.05343126 -0.11544049
v -0.18423189 0.05402823 -0.11748565
v -0.18149433 0.04992409 -0.11796431
v -0.11574362 -0.04032978 -0.09207343
v -0.11582558 -0.04428469 -0.08904920
v -0.18772351 0.07279536 -0.05908975
v -0.18710059 0.09417422 0.00803072
v -0.18969063 0.09208484 0.00837884
v -0.18124845 0.06253500 -0.11180707
v -0.18773991 0.06921356 -0.06644363
v -0.18414993 0.05839354 -0.11374344
v -0.18431385 0.05630417 -0.11513589
v -0.18423189 0.05496099 -0.11748565
v -0.18287131 0.09734561 0.01529758
v -0.18106812 0.09865148 0.01529758
v -0.18580558 0.09581589 0.01166415
v -0.02538761 -0.13233724 0.09455848
v -0.02612527 -0.13233724 0.09451497
v -0.02538761 -0.10819741 0.08985896
v -0.03338720 -0.10692886 0.08885813
v -0.11692388 0.13573801 0.02147658
v -0.11497316 0.13812588 0.02069332
v -0.11692388 0.13756623 0.02004061
v -0.13695564 0.12734318 0.01714693
v -0.02538761 0.17823457 0.01714693
v -0.03338720 0.17704063 0.01682057
v -0.03338720 0.17998815 0.01584150
v -0.03702635 0.17998815 0.01536285
v -0.10964557 0.13637230 0.02254267
v -0.11356339 0.13670808 0.02182469
v -0.03338720 -0.10327244 0.08800961
v -0.02538761 -0.09965333 0.08798785
v -0.13948010 0.12659697 0.01529758
v -0.04428827 -0.14931348 -0.05234507
v -0.04207527 -0.14905231 -0.05214925
v -0.03056767 -0.16740902 -0.03792015
v -0.02538761 -0.16919993 -0.03513525
v -0.04994372 -0.14177678 -0.05565214
v -0.04792743 -0.14256030 -0.05576092
v -0.04428827 -0.14688830 -0.05371576
v -0.18254345 0.05283430 -0.11833417
v -0.17885511 0.04891670 -0.11826890
v -0.17865840 0.05283430 -0.11955257
v -0.11328472 -0.04047903 -0.09209518
v -0.18316638 0.09764409 0.01166415
v -0.18529741 0.09540547 0.00803072
v -0.17388815 0.06958667 -0.10730335
v -0.17780600 0.06637797 -0.10817363
v -0.18062551 0.06570639 -0.10319128
v -0.17506843 0.06831811 -0.10839121
v -0.18067469 0.06208728 -0.11383047
v -0.18203528 0.05973672 -0.11500535
v -0.18339587 0.05738617 -0.11615847
v -0.18096976 0.05869203 -0.11761619
v -0.18223199 0.05630417 -0.11813836
v -0.13351319 0.13111153 0.01388337
v -0.14431592 0.12379868 0.01377458
v -0.14002104 0.12697007 0.01166415
v -0.02538761 -0.10327244 0.08883638
v -0.11254706 0.13868554 0.02106319
v -0.11226839 0.14226734 0.01762558
v -0.11692388 0.13913327 0.01823478
v -0.02538761 0.19368107 0.01046751
v -0.02538761 0.19420342 0.01009764
v -0.02538761 0.19565853 0.00872695
v -0.11915328 0.13846167 0.01745152
v -0.13262799 0.13055187 0.01629840
v -0.13766052 0.12779091 0.01529758
v -0.02538761 0.17886885 0.01692935
v -0.02538761 0.17987622 0.01658124
v -0.02538761 0.18047319 0.01636367
v -0.02538761 0.18442810 0.01488419
v -0.02538761 0.18726369 0.01373107
v -0.02538761 0.18883072 0.01305660
v -0.03702635 0.18267451 0.01403567
v -0.04087861 0.18028664 0.01447081
v -0.10494089 0.14208079 0.02091089
v -0.10610477 0.14025257 0.02149833
v -0.10964557 0.13931982 0.02134604
v -0.04440302 -0.14356768 -0.05489064
v -0.04161628 -0.14688830 -0.05254088
v -0.02538761 -0.16143936 -0.03850759
v -0.02538761 -0.16434958 -0.03757204
v -0.02538761 -0.16580468 -0.03698460
v -0.02538761 -0.16655089 -0.03665824
v -0.04568165 -0.14259761 -0.05569565
v -0.17865840 0.05649072 -0.11898689
v -0.04792743 0.14002872 -0.12331653
v -0.04066551 0.14364783 -0.12366464
v -0.04428827 0.14002872 -0.12368641
v -0.11328472 -0.03790461 -0.09274790
v -0.11123564 -0.04010592 -0.09194289
v -0.13343123 0.13103690 0.00961899
v -0.03471500 0.19237521 0.00076387
v -0.03917378 0.16748917 -0.07064274
v -0.03137091 0.16349696 -0.09857878
v -0.02538761 0.16629524 -0.10169004
v -0.02673180 0.15924357 -0.11907391
v -0.02871531 0.15693033 -0.12135841
v -0.02538761 0.15816157 -0.12222869
v -0.04792743 0.14297623 -0.12203286
v -0.04458334 0.14398362 -0.12264208
v -0.11469449 0.14163306 0.01658124
v -0.11549773 0.14211810 0.01416621
v -0.03487892 0.19248715 0.00439730
v -0.13357876 0.13114884 0.01166415
v -0.03982949 0.18218947 0.01373107
v -0.04223920 0.18166712 0.01340471
v -0.02538761 0.19700171 0.00713868
v -0.02538761 0.19162900 0.01159888
v -0.02538761 0.19084548 0.01201226
v -0.02538761 0.15092335 -0.12314248
v -0.02538761 -0.14106788 -0.04412091
v -0.02538761 -0.14323188 -0.04353346
v -0.02538761 -0.15852915 -0.03931260
v -0.03338720 0.14726694 -0.12375167
v -0.03702635 0.14726694 -0.12346884
v -0.02538761 0.15454246 -0.12353410
v -0.03702635 0.14364783 -0.12346884
v -0.02820713 0.19647936 0.00206929
v -0.02538761 0.19782253 0.00080739
v -0.02538761 0.16644448 -0.10123314
v -0.02538761 0.16002709 -0.11907391
v -0.02538761 0.15875854 -0.12161950
v -0.02791207 0.19629281 0.00609435
v -0.02955133 0.19554659 0.00470190
v -0.02820713 0.19647936 0.00367932
v -0.02538761 0.19797178 0.00459311
v -0.02538761 0.19793446 0.00341823
v -0.02646952 0.19733750 0.00470190
f 1 2 8
f 1 8 19
f 1 19 33
f 1 33 59
f 1 59 90
f 1 90 89
f 1 89 88
f 1 88 122
f 1 122 121
f 1 121 159
f 1 159 197
f 1 197 245
f 1 245 244
f 1 244 243
f 1 243 242
f 1 242 275
f 1 275 274
f 1 274 273
f 1 273 272
f 1 272 278
f 1 278 260
f 1 260 284
f 1 284 283
f 1 283 257
f 1 257 282
f 1 282 281
f 1 281 289
f 1 289 288
f 1 288 269
f 1 269 225
f 1 225 224
f 1 224 223
f 1 223 270
f 1 270 271
f 1 271 234
f 1 234 233
f 1 233 232
f 1 232 231
f 1 231 230
f 1 230 229
f 1 229 185
f 1 185 192
f 1 192 219
f 1 219 179
f 1 179 177
f 1 177 143
f 1 143 103
f 1 103 69
f 1 69 44
f 1 44 24
f 1 24 12
f 1 12 3
f 1 3 4
f 1 4 5
f 1 5 6
f 1 6 7
f 1 7 2
f 2 7 9
f 2 9 10
f 2 10 11
f 2 11 8
f 3 12 4
f 4 13 5
f 4 12 13
f 5 13 14
f 5 14 15
f 5 15 16
f 5 16 7
f 5 7 6
f 7 17 9
f 7 16 15
f 7 15 18
f 7 18 17
f 8 11 20
f 8 20 19
f 9 17 10
f 10 17 21
f 10 21 11
f 11 21 22
f 11 22 23
f 11 23 20
f 12 24 13
f 13 25 26
f 13 26 27
f 13 27 14
f 13 24 25
f 14 27 28
f 14 28 15
f 15 28 29
f 15 29 18
f 17 18 30
f 17 30 21
f 18 29 31
f 18 31 30
f 19 32 33
f 19 20 34
f 19 34 35
f 19 35 36
f 19 36 37
f 19 37 38
f 19 38 39
f 19 39 32
f 20 35 34
f 20 23 40
f 20 40 41
f 20 41 35
f 21 30 31
f 21 31 22
f 22 31 42
f 22 42 40
f 22 40 43
f 22 43 23
f 23 43 40
f 24 44 45
f 24 45 25
f 25 45 26
f 26 45 27
f 27 45 46
f 27 46 47
f 27 47 48
f 27 48 49
f 27 49 28
f 28 50 51
f 28 51 52
f 28 52 53
f 28 53 29
f 28 49 50
f 29 53 31
f 31 53 42
f 32 54 55
f 32 55 56
f 32 56 33
f 32 39 54
f 33 57 58
f 33 58 59
f 33 56 57
f 35 37 36
f 35 41 60
f 35 60 61
f 35 61 37
f 37 62 38
f 37 61 62
f 38 62 39
f 39 62 54
f 40 42 63
f 40 63 64
f 40 64 65
f 40 65 66
f 40 66 60
f 40 60 41
f 42 53 67
f 42 67 68
f 42 68 63
f 44 69 70
f 44 70 71
f 44 71 45
f 45 71 72
f 45 72 73
f 45 73 47
f 45 47 46
f 47 73 74
f 47 74 75
f 47 75 76
f 47 76 50
f 47 50 49
f 47 49 48
f 50 76 51
f 51 77 52
f 51 76 78
f 51 78 79
f 51 79 77
f 52 77 53
f 53 77 67
f 54 62 80
f 54 80 55
f 55 58 81
f 55 81 56
f 55 80 82
f 55 82 58
f 56 81 58
f 56 58 83
f 56 83 84
f 56 84 57
f 57 84 58
f 58 85 86
f 58 86 87
f 58 87 88
f 58 88 89
f 58 89 90
f 58 90 59
f 58 84 83
f 58 82 91
f 58 91 92
f 58 92 85
f 60 66 61
f 61 66 93
f 61 93 94
f 61 94 62
f 62 95 80
f 62 94 96
f 62 96 97
f 62 97 95
f 63 68 64
f 64 68 98
f 64 98 99
f 64 99 100
f 64 100 65
f 65 100 93
f 65 93 66
f 67 77 101
f 67 101 102
f 67 102 68
f 68 102 98
f 69 103 70
f 70 104 71
f 70 103 104
f 71 104 105
f 71 105 72
f 72 105 73
f 73 105 74
f 74 106 107
f 74 107 75
f 74 105 108
f 74 108 109
f 74 109 110
f 74 110 106
f 75 107 78
f 75 78 76
f 77 79 111
f 77 111 112
f 77 112 113
f 77 113 101
f 78 107 114
f 78 114 115
f 78 115 116
f 78 116 112
f 78 112 111
f 78 111 79
f 80 95 82
f 82 97 96
f 82 96 117
f 82 117 118
f 82 118 91
f 82 95 97
f 85 119 87
f 85 87 86
f 85 92 119
f 87 120 121
f 87 121 122
f 87 122 88
f 87 119 123
f 87 123 120
f 91 118 117
f 91 117 124
f 91 124 92
f 92 124 125
f 92 125 126
f 92 126 123
f 92 123 127
f 92 127 119
f 93 100 128
f 93 128 117
f 93 117 129
f 93 129 96
f 93 96 94
f 96 129 117
f 98 130 99
f 98 102 131
f 98 131 132
f 98 132 130
f 99 130 133
f 99 133 134
f 99 134 135
f 99 135 136
f 99 136 137
f 99 137 138
f 99 138 139
f 99 139 140
f 99 140 100
f 100 140 117
f 100 117 128
f 101 113 102
f 102 113 141
f 102 141 142
f 102 142 131
f 103 143 144
f 103 144 104
f 104 144 145
f 104 145 146
f 104 146 105
f 105 146 109
f 105 109 108
f 106 147 107
f 106 110 148
f 106 148 149
f 106 149 147
f 107 147 149
f 107 149 150
f 107 150 151
f 107 151 152
f 107 152 114
f 109 153 154
f 109 154 148
f 109 148 110
f 109 146 155
f 109 155 153
f 112 116 156
f 112 156 113
f 113 156 157
f 113 157 141
f 114 156 115
f 114 152 151
f 114 151 156
f 115 156 116
f 117 140 139
f 117 139 124
f 119 127 123
f 120 158 159
f 120 159 121
f 120 123 160
f 120 160 158
f 123 126 160
f 124 161 162
f 124 162 163
f 124 163 125
f 124 139 138
f 124 138 137
f 124 137 136
f 124 136 161
f 125 163 126
f 126 163 164
f 126 164 165
f 126 165 160
f 130 132 166
f 130 166 134
f 130 134 133
f 131 142 141
f 131 141 132
f 132 141 167
f 132 167 168
f 132 168 169
f 132 169 166
f 134 166 170
f 134 170 171
f 134 171 135
f 135 171 172
f 135 172 173
f 135 173 162
f 135 162 136
f 136 162 161
f 141 157 174
f 141 174 175
f 141 175 176
f 141 176 167
f 143 177 178
f 143 178 144
f 144 178 145
f 145 178 179
f 145 179 180
f 145 180 146
f 146 180 155
f 148 154 149
f 149 154 150
f 150 154 181
f 150 181 151
f 151 181 182
f 151 182 183
f 151 183 184
f 151 184 156
f 153 185 186
f 153 186 187
f 153 187 188
f 153 188 189
f 153 189 190
f 153 190 154
f 153 155 191
f 153 191 192
f 153 192 185
f 154 190 181
f 155 180 191
f 156 175 174
f 156 174 157
f 156 184 193
f 156 193 175
f 158 194 195
f 158 195 196
f 158 196 159
f 158 160 194
f 159 196 197
f 160 198 199
f 160 199 200
f 160 200 194
f 160 165 164
f 160 164 198
f 162 173 201
f 162 201 163
f 163 202 164
f 163 201 203
f 163 203 202
f 164 204 199
f 164 199 198
f 164 202 203
f 164 203 204
f 166 169 171
f 166 171 170
f 167 176 205
f 167 205 206
f 167 206 207
f 167 207 208
f 167 208 209
f 167 209 168
f 168 209 169
f 169 209 208
f 169 208 207
f 169 207 210
f 169 210 211
f 169 211 171
f 171 211 212
f 171 212 213
f 171 213 173
f 171 173 172
f 173 213 214
f 173 214 215
f 173 215 201
f 175 205 176
f 175 193 216
f 175 216 217
f 175 217 218
f 175 218 205
f 177 179 178
f 179 219 180
f 180 219 191
f 181 190 220
f 181 220 182
f 182 221 222
f 182 222 183
f 182 220 223
f 182 223 224
f 182 224 225
f 182 225 221
f 183 222 226
f 183 226 184
f 184 226 227
f 184 227 228
f 184 228 193
f 185 229 187
f 185 187 186
f 187 229 230
f 187 230 231
f 187 231 232
f 187 232 233
f 187 233 234
f 187 234 188
f 188 234 235
f 188 235 236
f 188 236 237
f 188 237 238
f 188 238 189
f 189 238 190
f 190 238 239
f 190 239 220
f 191 219 192
f 193 228 216
f 194 200 195
f 195 200 240
f 195 240 241
f 195 241 242
f 195 242 243
f 195 243 244
f 195 244 245
f 195 245 196
f 196 245 197
f 199 204 246
f 199 246 200
f 200 246 240
f 201 215 203
f 203 215 247
f 203 247 248
f 203 248 249
f 203 249 250
f 203 250 251
f 203 251 204
f 204 251 252
f 204 252 246
f 205 218 253
f 205 253 206
f 206 253 207
f 207 253 254
f 207 254 255
f 207 255 256
f 207 256 257
f 207 257 258
f 207 258 259
f 207 259 210
f 210 259 211
f 211 214 212
f 211 259 214
f 212 214 213
f 214 259 260
f 214 260 261
f 214 261 262
f 214 262 248
f 214 248 215
f 215 248 247
f 216 228 227
f 216 227 226
f 216 226 263
f 216 263 264
f 216 264 265
f 216 265 266
f 216 266 218
f 216 218 217
f 218 266 253
f 220 239 237
f 220 237 267
f 220 267 268
f 220 268 223
f 221 263 226
f 221 226 222
f 221 225 269
f 221 269 263
f 223 268 267
f 223 267 270
f 234 271 235
f 235 267 236
f 235 271 270
f 235 270 267
f 236 267 237
f 237 239 238
f 240 246 272
f 240 272 241
f 241 273 274
f 241 274 275
f 241 275 242
f 241 272 273
f 246 252 276
f 246 276 272
f 248 262 277
f 248 277 249
f 249 277 278
f 249 278 276
f 249 276 250
f 250 276 279
f 250 279 251
f 251 279 252
f 252 279 276
f 253 266 254
f 254 265 280
f 254 280 281
f 254 281 282
f 254 282 255
f 254 266 265
f 255 282 256
f 256 282 257
f 257 283 258
f 258 283 284
f 258 284 259
f 259 284 260
f 260 278 277
f 260 277 262
f 260 262 261
f 263 269 285
f 263 285 264
f 264 285 265
f 265 285 286
f 265 286 287
f 265 287 280
f 269 288 285
f 272 276 278
f 280 287 288
f 280 288 289
f 280 289 281
f 285 288 290
f 285 290 287
f 285 287 286
f 287 290 288

