v -0.00069740 -0.17590595 0.10759687
v -0.00432640 -0.17590595 0.10741053
v -0.00432640 -0.17955346 0.10743381
v -0.00069740 -0.17955346 0.10745711
v 0.00295321 -0.17590595 0.10743381
v 0.01021122 -0.16504921 0.10722416
v 0.00658222 -0.16504921 0.10715428
v -0.00069740 -0.17230133 0.10736392
v -0.00795541 -0.17590595 0.10666511
v -0.00795541 -0.17955346 0.10687475
v -0.00432640 -0.17230133 0.10710770
v -0.00795541 -0.18320098 0.10685145
v -0.00432640 -0.18320098 0.10710770
v -0.00069740 -0.18320098 0.10671168
v 0.00295321 -0.17955346 0.10694463
v 0.03200686 -0.16140169 0.10545381
v 0.02837785 -0.16140169 0.10594299
v 0.03926487 -0.15050206 0.10575664
v 0.03563586 -0.15050206 0.10612933
v 0.03200686 -0.15050206 0.10629239
v 0.03563586 -0.14685454 0.10610605
v 0.03200686 -0.14685454 0.10615263
v 0.01021122 -0.16140169 0.10701451
v 0.00658222 -0.16140169 0.10671168
v -0.01158441 -0.17955346 0.10587310
v -0.01158441 -0.18320098 0.10617593
v -0.00795541 -0.17230133 0.10636228
v -0.01339891 -0.16693734 0.10426580
v -0.00432640 -0.16865381 0.10645546
v -0.00795541 -0.16865381 0.10587310
v -0.00795541 -0.18680558 0.10610605
v -0.00432640 -0.18680558 0.10582652
v -0.00104301 -0.18676267 0.10503452
v 0.00180835 -0.18551823 0.10470839
v 0.00299641 -0.18328680 0.10543051
v 0.03438299 -0.16363312 0.10449874
v 0.15329774 -0.08647739 0.09695142
v 0.14826464 -0.08879464 0.09746388
v 0.14457084 -0.08875172 0.09816273
v 0.13731282 -0.09239924 0.09876836
v 0.07922713 -0.12509817 0.10307781
v 0.07557653 -0.12509817 0.10347379
v 0.14094183 -0.08875172 0.09867520
v 0.07194752 -0.12509817 0.10373004
v 0.07194752 -0.12145065 0.10363686
v 0.06831851 -0.12145065 0.10370674
v 0.03200686 -0.14324994 0.10540721
v 0.01021122 -0.15775418 0.10633900
v 0.06468951 -0.12145065 0.10349710
v 0.06468951 -0.11780313 0.10279828
v -0.01026674 -0.16286070 0.10435898
v -0.02538760 -0.10329888 0.08884503
v -0.01460858 -0.17955346 0.10477827
v -0.01471659 -0.18320098 0.10498792
v -0.01426297 -0.18607609 0.10477827
v -0.01184363 -0.18710597 0.10531405
v -0.01285888 -0.16504921 0.10417261
v -0.01884243 -0.16865381 0.10219262
v -0.01864801 -0.15775418 0.10123755
v -0.02046252 -0.15775418 0.10056201
v -0.01104438 -0.16504921 0.10459193
v -0.01080677 -0.18903701 0.10468509
v -0.00795541 -0.18920866 0.10487146
v -0.00432640 -0.18890827 0.10456863
v -0.00249029 -0.18865080 0.10428910
v 0.03468541 -0.16732355 0.10126085
v 0.03574387 -0.16513503 0.10261191
v 0.15735875 -0.09063985 0.09343399
v 0.15878445 -0.08862299 0.09406293
v 0.15545785 -0.08875172 0.09534412
v 0.15910846 -0.08514712 0.09571682
v 0.14951752 -0.09003908 0.09688153
v 0.16273747 -0.08149960 0.09587988
v 0.17725349 -0.07059996 0.09506458
v 0.15694835 -0.08257240 0.09697471
v 0.16273747 -0.07785208 0.09660200
v 0.13731282 -0.08875172 0.09909449
v 0.14457084 -0.07785208 0.09862860
v 0.14094183 -0.07785208 0.09888485
v 0.07557653 -0.12145065 0.10345049
v 0.14094183 -0.07424748 0.09862860
v 0.05818754 -0.11166672 0.10081826
v -0.02538760 -0.09965137 0.08798314
v 0.14094183 -0.07059996 0.09785990
v 0.06106050 -0.11123760 0.10095802
v -0.01151961 -0.16157335 0.10384651
v -0.02538760 -0.10819085 0.08986997
v -0.01521342 -0.15775418 0.10230908
v -0.02149938 -0.16865381 0.10107448
v -0.02331387 -0.16865381 0.10002626
v -0.02136976 -0.17230133 0.10114437
v -0.01653109 -0.18320098 0.10366016
v -0.01538623 -0.18697724 0.10270509
v -0.01322611 -0.18852206 0.10414933
v -0.01728713 -0.18543241 0.10128413
v -0.01789197 -0.15414957 0.10093472
v -0.01970647 -0.15414957 0.10035236
v -0.02247143 -0.15414957 0.09930414
v -0.02538760 -0.15389210 0.09809284
v -0.01184363 -0.18989524 0.10275167
v -0.00795541 -0.19079639 0.10247215
v -0.00432640 -0.19019563 0.10247215
v -0.00411039 -0.19178338 0.09890812
v -0.00171265 -0.18916574 0.10247215
v 0.02351758 -0.17453276 0.10114437
v 0.03710475 -0.16663696 0.10011944
v 0.04127378 -0.16333273 0.10079496
v 0.03926487 -0.16406224 0.10142392
v 0.15314652 -0.09390116 0.09292152
v 0.15541465 -0.09304292 0.09166363
v 0.16910983 -0.08390267 0.09066198
v 0.17960803 -0.07647890 0.09035915
v 0.16781375 -0.08300152 0.09308458
v 0.16137659 -0.08729272 0.09366693
v 0.16539442 -0.08394558 0.09382999
v 0.16265107 -0.08514712 0.09434246
v 0.17962963 -0.07291721 0.09369023
v 0.17708068 -0.07416165 0.09403964
v 0.17362448 -0.07424748 0.09499470
v 0.18032087 -0.07059996 0.09406293
v 0.18062329 -0.06695244 0.09422599
v 0.17725349 -0.06695244 0.09520435
v 0.17362448 -0.07059996 0.09557706
v 0.16636646 -0.07424748 0.09629918
v 0.14457084 -0.07424748 0.09851213
v 0.14457084 -0.07059996 0.09788320
v 0.05831715 0.10242113 0.04637967
v 0.04578844 -0.05832713 0.08604972
v -0.02538760 0.17824658 0.01714542
v 0.14457084 -0.06613712 0.09681165
v -0.02538760 -0.13595490 0.09527423
v -0.01722233 -0.15217562 0.10070180
v -0.02538760 -0.15775418 0.09837237
v -0.02538760 -0.16504921 0.09848883
v -0.02538760 -0.16809597 0.09820930
v -0.02530119 -0.16865381 0.09820930
v -0.02538760 -0.16135878 0.09844225
v -0.01780557 -0.18320098 0.10184321
v -0.02480436 -0.17135728 0.09769683
v -0.01406855 -0.18925156 0.10172672
v -0.01901523 -0.18320098 0.09883824
v -0.01758956 -0.18594735 0.09883824
v -0.01644469 -0.18779255 0.09883824
v -0.02538760 -0.14393652 0.09667189
v -0.02538760 -0.15050206 0.09767353
v -0.01164921 -0.19165464 0.09895473
v -0.01046115 -0.19259871 0.09783659
v -0.00795541 -0.19204085 0.10000295
v -0.00516885 -0.19255579 0.09776671
v -0.00274951 -0.19216958 0.09678836
v 0.00096590 -0.18852206 0.10023590
v 0.02472724 -0.17504770 0.09867520
v 0.02675776 -0.17427528 0.09734742
v 0.03783919 -0.16706608 0.09769683
v 0.15416178 -0.09454484 0.09049892
v 0.17152917 -0.08308734 0.08889162
v 0.17554698 -0.07974021 0.08984668
v 0.17792312 -0.07888197 0.08793655
v 0.18025606 -0.07703675 0.08793655
v 0.18207057 -0.07532028 0.08793655
v 0.18299942 -0.07283138 0.09028927
v 0.18083930 -0.07411874 0.09152386
v 0.17818233 -0.07536319 0.09278175
v 0.17574141 -0.07622143 0.09352717
v 0.18213536 -0.07059996 0.09280505
v 0.18243778 -0.06695244 0.09308458
v 0.18001844 -0.06420607 0.09389987
v 0.15526344 -0.05583824 0.09373681
v 0.17718869 -0.06313328 0.09410952
v 0.17362448 -0.06334783 0.09448223
v 0.15390257 -0.05420759 0.09341070
v 0.06106050 0.10233529 0.04635637
v 0.00144113 0.18545579 0.01712213
v -0.00054618 0.18391096 0.01770448
v -0.00069740 0.17996306 0.01900896
v -0.01884243 0.17931938 0.01749483
v -0.02247143 0.17871862 0.01730848
v 0.15342734 -0.05420759 0.09341070
v -0.01884243 0.19026193 0.01386094
v -0.01884243 0.19206423 0.01325529
v -0.02538760 0.17987724 0.01658636
v -0.02538760 -0.16865381 0.09806954
v -0.02538760 -0.17174348 0.09490152
v -0.01463018 -0.18980942 0.09883824
v -0.01298849 -0.19204085 0.09520435
v -0.02059212 -0.18122703 0.09520435
v -0.01959847 -0.18320098 0.09520435
v -0.02504198 -0.17247298 0.09490152
v -0.01784877 -0.18646229 0.09520435
v -0.01679030 -0.18826459 0.09520435
v -0.00795541 -0.19272744 0.09818600
v 0.00081469 -0.22525472 -0.01164623
v 0.00295321 -0.22551219 -0.01125023
v -0.00300873 -0.19586000 0.08597984
v 0.00658222 -0.22529763 -0.01141329
v -0.00162625 -0.19624622 0.08355724
v 0.00841832 -0.22495433 -0.01190247
v 0.00079309 -0.19573127 0.08204312
v 0.00152753 -0.19616039 0.07962052
v 0.18677964 -0.09450193 0.02527510
v 0.18384186 -0.09132644 0.04071917
v 0.18619640 -0.09046820 0.03857610
v 0.17934881 -0.08351646 0.07216637
v 0.13953775 -0.12355334 0.03235655
v 0.18094730 -0.08064136 0.07675533
v 0.18276180 -0.07974021 0.07535768
v 0.18254579 -0.07587813 0.08572360
v 0.18336663 -0.07351797 0.08793655
v 0.18442509 -0.07059996 0.08793655
v 0.18336663 -0.07059996 0.09098810
v 0.18351785 -0.06695244 0.09126763
v 0.18317223 -0.06437772 0.09066198
v 0.18120651 -0.06309036 0.09189657
v 0.17997524 -0.06038691 0.09073186
v 0.13884652 0.00359484 0.07132778
v 0.13487188 0.00707071 0.07132778
v 0.06291821 0.10190618 0.04619331
v 0.15545785 -0.04880068 0.09145398
v 0.15526344 -0.05274858 0.09282834
v 0.15632190 -0.05450797 0.09331752
v 0.00070669 0.20339299 0.00978445
v -0.00171265 0.20377920 0.00997080
v 0.00388206 0.18528414 0.01705224
v -0.00432640 0.20176235 0.01090257
v -0.00432640 0.19811483 0.01230022
v 0.00074989 0.18545579 0.01712213
v -0.00795541 0.19811483 0.01209057
v -0.01601266 0.19249336 0.01341835
v -0.01884243 0.18116460 0.01688918
v -0.01884243 0.19451021 0.01206728
v -0.02264424 0.19081979 0.01290587
v -0.02154258 0.18961825 0.01367458
v -0.00767459 0.20184816 0.01050657
v -0.02538760 0.18442591 0.01488588
v -0.02538760 -0.17890978 0.04449284
v -0.01497581 -0.19023855 0.09520435
v -0.01335571 -0.19225540 0.09324764
v 0.00031786 -0.22551219 -0.01374271
v -0.02430753 -0.17414655 0.09348058
v -0.01696312 -0.18852206 0.09222269
v -0.01391734 -0.19272744 0.08793655
v 0.00295321 -0.22619877 -0.01374271
v 0.00666862 -0.22546927 -0.01341659
v 0.00841832 -0.22495433 -0.01199565
v 0.19116468 -0.10952112 -0.03552281
v 0.19079745 -0.10930656 -0.03188891
v 0.19034383 -0.10896326 -0.02948961
v 0.19023583 -0.09806362 0.00687267
v 0.18610999 -0.09772032 0.01663295
v 0.18740605 -0.09497396 0.02254968
v 0.18837811 -0.09544599 0.01893908
v 0.18973899 -0.09394408 0.02017367
v 0.18295622 -0.07635016 0.08330100
v 0.18472750 -0.07424748 0.08066876
v 0.19001982 -0.08703525 0.03547797
v 0.18634761 -0.07248808 0.07533438
v 0.18507313 -0.07059996 0.08430266
v 0.18459790 -0.06695244 0.08793655
v 0.19012782 -0.08381685 0.03983399
v 0.18353945 -0.06369113 0.08793655
v 0.18243778 -0.06188883 0.08793655
v 0.17898158 -0.05798384 0.08954385
v 0.13539032 0.01097570 0.06774046
v 0.13169651 0.01462322 0.06783364
v 0.06700084 0.10958743 0.03925163
v 0.07030583 0.10203492 0.04262930
v 0.06831851 0.10469545 0.04193047
v 0.06641761 0.10546787 0.04248953
v 0.06399827 0.10636902 0.04307189
v 0.00494052 0.20738380 0.00633690
v 0.00295321 0.20540986 0.00808397
v 0.00295321 0.20781293 0.00666302
v -0.00058939 0.20515239 0.00894586
v -0.00069740 0.20815622 0.00694255
v -0.00432640 0.20377920 0.00997080
v -0.00629211 0.20365047 0.00987762
v -0.02249303 0.19468186 0.01092586
v -0.01158441 0.20068954 0.01029692
v -0.01391734 0.20017460 0.01001739
v -0.01884243 0.19721366 0.01048327
v -0.02538760 0.19163511 0.01160140
v -0.02538760 0.19086269 0.01199740
v -0.02538760 0.18880292 0.01304564
v -0.02538760 0.18845963 0.01320870
v -0.02538760 0.18725809 0.01372117
v -0.02538760 -0.18169906 0.01162469
v -0.02445874 -0.18895119 -0.02827831
v -0.02439394 -0.18890827 -0.02618183
v -0.02070013 -0.19598874 -0.02268769
v -0.01365813 -0.19246997 0.09082504
v -0.00283592 -0.22190757 -0.01514037
v -0.00287912 -0.22190757 -0.01737661
v 0.00036106 -0.22542636 -0.01630508
v -0.00631371 -0.21791676 -0.01819191
v 0.00295321 -0.22564091 -0.01658461
v 0.00550216 -0.22538344 -0.01616531
v 0.00792150 -0.22465394 -0.01441825
v 0.19058144 -0.10913491 -0.04279061
v 0.19114307 -0.10952112 -0.03915671
v 0.19297918 -0.10793338 -0.03552281
v 0.19261196 -0.10759008 -0.03188891
v 0.19068946 -0.09844983 0.00440348
v 0.19014942 -0.09441610 0.01775107
v 0.19310879 -0.09703373 0.00076959
v 0.19382162 -0.09463066 0.00344842
v 0.18634761 -0.07193023 0.07533438
v 0.18615320 -0.07068578 0.07675533
v 0.18561316 -0.07059996 0.08066876
v 0.18993341 -0.08252949 0.04225659
v 0.18999820 -0.08008350 0.04283894
v 0.18632600 -0.06948425 0.07461226
v 0.18498673 -0.06695244 0.08430266
v 0.19084065 -0.08514712 0.03345137
v 0.18369066 -0.06339075 0.08430266
v 0.18265379 -0.06158845 0.08430266
v 0.15742357 -0.02133701 0.07216637
v 0.13884652 0.00707071 0.06613316
v 0.13161010 0.01805618 0.06340774
v 0.10290208 0.06204095 0.04994368
v 0.03019236 0.17455615 0.01348823
v 0.02667135 0.17828949 0.01358140
v 0.03019236 0.17090864 0.01712213
v 0.07071625 0.10606864 0.03934481
v 0.00735986 0.20622518 0.00531196
v 0.00617179 0.20862826 0.00403078
v 0.00496213 0.21094550 0.00274959
v 0.00295321 0.20965814 0.00498584
v -0.00069740 0.21000144 0.00510231
v -0.00432640 0.20781293 0.00675620
v -0.00432640 0.20558150 0.00857315
v -0.00663773 0.20742672 0.00643008
v -0.00767459 0.20528113 0.00799079
v -0.00871145 0.20313552 0.00952821
v -0.02538760 0.19369489 0.01045998
v -0.02130496 0.19661290 0.01011057
v -0.01633668 0.19961674 0.00955151
v -0.02538760 -0.18195653 0.00803738
v -0.02493396 -0.18680558 -0.02827831
v -0.02439394 -0.18877954 -0.03021173
v -0.02070013 -0.19598874 -0.02331664
v -0.00631371 -0.21791676 -0.01940321
v 0.00295321 -0.22401026 -0.01840156
v -0.00266311 -0.22147846 -0.01933333
v -0.00069740 -0.22199341 -0.01963615
v 0.00552376 -0.22177884 -0.01942650
v 0.18816210 -0.10922074 -0.04518991
v 0.19010622 -0.10883453 -0.04472403
v 0.19295758 -0.10780464 -0.03915671
v 0.19408084 -0.10613107 -0.03552281
v 0.19395124 -0.10578778 -0.03188891
v 0.19375683 -0.10540157 -0.02937313
v 0.19364881 -0.10149658 -0.01539660
v 0.19332481 -0.10111037 -0.01297400
v 0.19129429 -0.09896477 0.00076959
v 0.19343280 -0.09754868 -0.00188596
v 0.19403764 -0.09523143 0.00076959
v 0.19442646 -0.09239924 0.00076959
v 0.18999820 -0.07952565 0.04283894
v 0.18941499 -0.07785208 0.04798697
v 0.18863733 -0.07424748 0.05162087
v 0.18636921 -0.06871183 0.07218966
v 0.18546195 -0.06695244 0.07703486
v 0.18371226 -0.06339075 0.08066876
v 0.18572118 -0.06729574 0.07340096
v 0.18267539 -0.06158845 0.08066876
v 0.15748836 -0.02125119 0.06976706
v 0.13191252 0.01844239 0.06098514
v 0.02639054 0.18159371 0.00908562
v 0.00906636 0.20811331 0.00076959
v 0.00861273 0.20751254 0.00288936
v 0.00554536 0.21124589 0.00076959
v 0.00295321 0.21193247 0.00076959
v 0.00295321 0.21120297 0.00316889
v 0.00735986 0.20995853 0.00076959
v -0.00069740 0.21120297 0.00328536
v -0.00287912 0.21098842 0.00291265
v -0.00905707 0.20691178 0.00552161
v -0.01389574 0.20386502 0.00652326
v -0.01158441 0.20446580 0.00710561
v -0.01158441 0.20249184 0.00892256
v -0.02538760 0.19420984 0.01008727
v -0.02372430 0.19596922 0.00952821
v -0.02538760 -0.18302933 -0.01003893
v -0.02460995 -0.18680558 -0.03049126
v -0.02538760 -0.18315807 -0.01371942
v -0.02538760 -0.18315807 -0.01374271
v -0.02538760 -0.18311515 -0.01737661
v -0.02538760 -0.18302933 -0.02101051
v -0.02538760 -0.18294351 -0.02441147
v -0.02538760 -0.18165615 -0.02695054
v -0.02538760 -0.16916876 -0.03512681
v -0.02538760 -0.16655114 -0.03666422
v -0.02057052 -0.19581710 -0.02573924
v -0.02538760 -0.16431971 -0.03757270
v -0.02538760 -0.16144461 -0.03850447
v -0.02247143 -0.18680558 -0.03165597
v -0.02247143 -0.18938030 -0.03063102
v -0.01305330 -0.20298340 -0.02629830
v 0.00295321 -0.22220796 -0.01970603
v -0.00069740 -0.21950451 -0.02094063
v 0.18639081 -0.10514409 -0.04826475
v 0.18781649 -0.10660310 -0.04693698
v 0.19058144 -0.10690349 -0.04521321
v 0.19380003 -0.10553031 -0.04134637
v 0.19399444 -0.10600234 -0.03915671
v 0.19453447 -0.10329888 -0.03915671
v 0.19464247 -0.10329888 -0.03552281
v 0.19451286 -0.10329888 -0.03188891
v 0.19479368 -0.09965137 -0.02101051
v 0.19459927 -0.09965137 -0.01737661
v 0.19421045 -0.09982301 -0.01399895
v 0.19367042 -0.09793488 -0.00430855
v 0.19496650 -0.09600385 -0.01013211
v 0.19412405 -0.09875022 -0.01013211
v 0.19414565 -0.09621841 -0.00300408
v 0.19470727 -0.09239924 -0.00286431
v 0.18971740 -0.07815247 0.04416672
v 0.18876694 -0.07424748 0.04798697
v 0.19490170 -0.09239924 -0.00649821
v 0.18636921 -0.06871183 0.07076871
v 0.18377706 -0.06347657 0.07703486
v 0.18727645 -0.07098617 0.05162087
v 0.01224174 0.20386502 -0.02101051
v 0.01131289 0.20588189 -0.00649821
v 0.18375546 -0.06364822 0.07340096
v 0.18669322 -0.07549192 -0.04574897
v 0.01126968 0.20583897 -0.00286431
v 0.00945518 0.20862826 -0.00286431
v 0.02662815 0.18189409 0.00666302
v 0.02757861 0.18022053 0.00794420
v 0.00783509 0.21043056 -0.00286431
v 0.00602059 0.21146044 -0.00286431
v 0.00295321 0.21218994 -0.00286431
v -0.00069740 0.21184667 0.00076959
v -0.00315993 0.21116006 0.00076959
v -0.01013713 0.20742672 0.00309901
v -0.01143320 0.20618228 0.00435689
v -0.02087294 0.20004586 0.00638349
v -0.02538760 0.19699911 0.00712891
v -0.02538760 0.19566883 0.00873621
v -0.02538760 -0.16582163 -0.03696705
v -0.01884243 -0.18680558 -0.03200538
v -0.02538760 -0.14324994 -0.04353602
v -0.01854001 -0.19058184 -0.03070090
v -0.01063396 -0.20354125 -0.02664771
v 0.00295321 -0.21950451 -0.02089404
v -0.00069740 -0.21589991 -0.02224510
v 0.18639081 -0.10505827 -0.04826475
v 0.19120788 -0.09239924 -0.04563250
v 0.19099187 -0.10329888 -0.04549274
v -0.00886266 -0.20354125 -0.02664771
v 0.04585324 0.11194757 -0.11789117
v 0.04684690 0.11452230 -0.11819400
v 0.04689010 0.11847019 -0.11838034
v 0.19280637 -0.10329888 -0.04346614
v 0.19395124 -0.10329888 -0.04164919
v 0.19403764 -0.09965137 -0.04181225
v 0.19453447 -0.09965137 -0.03915671
v 0.19529051 -0.09600385 -0.01737661
v 0.19522571 -0.09600385 -0.01374271
v 0.19408084 -0.08948123 -0.00286431
v 0.19414565 -0.08939540 -0.00649821
v 0.18792449 -0.07785208 -0.04279061
v 0.19496650 -0.09239924 -0.01013211
v 0.18723325 -0.07111490 0.04798697
v 0.01494189 0.19854394 -0.03552281
v 0.01213373 0.20373629 -0.02464441
v 0.00949838 0.20849952 -0.00649821
v 0.01120488 0.20588189 -0.01013211
v 0.19205034 -0.08875172 -0.04279061
v 0.18736285 -0.07785208 -0.04633133
v 0.13251736 0.00475347 -0.07433098
v 0.13608155 0.00102013 -0.07113967
v 0.14362038 -0.00975078 -0.06459400
v 0.01960776 0.18228030 -0.10090968
v 0.01563313 0.19626961 -0.04712333
v 0.00939038 0.20824205 -0.01013211
v 0.00915276 0.20794166 -0.01374271
v 0.00731666 0.21034474 -0.00649821
v 0.00550216 0.21116006 -0.00649821
v 0.00489732 0.21090259 -0.00857140
v 0.00295321 0.21146044 -0.00649821
v 0.00027466 0.21116006 -0.00649821
v -0.00099981 0.21158919 -0.00314384
v -0.00303033 0.21111714 -0.00211890
v -0.00497444 0.21025891 0.00076959
v -0.00795541 0.20867116 0.00076959
v -0.01015873 0.20742672 0.00076959
v -0.01199484 0.20635392 0.00076959
v -0.02538760 0.19794318 0.00458984
v 0.04289388 0.11460812 -0.11877635
v -0.02538760 0.15091165 -0.12315567
v -0.01884243 0.15515993 -0.12520555
v 0.18617480 -0.07785208 -0.04814828
v 0.12113351 0.01290674 -0.08103972
v 0.19084065 -0.08875172 -0.04542285
v 0.19304398 -0.09235633 -0.04267414
v 0.19289278 -0.09600385 -0.04353602
v 0.19278477 -0.09965137 -0.04362920
v 0.04289388 0.11821272 -0.11952176
v 0.02837785 0.15455917 -0.12678955
v 0.04110097 0.12726716 -0.12089612
v 0.03148843 0.15455917 -0.12555496
v 0.08477865 0.06942181 -0.09918591
v 0.12106871 0.01505234 -0.08101642
v 0.19395124 -0.09600385 -0.04171907
v 0.19377842 -0.09355786 -0.04139295
v 0.19513931 -0.09600385 -0.02101051
v 0.19488008 -0.09239924 -0.01374271
v 0.19412405 -0.08956705 -0.01013211
v 0.01312739 0.20120449 -0.03552281
v 0.01193932 0.20352173 -0.02918678
v 0.13318699 0.00200710 -0.07461051
v 0.03084039 0.15752009 -0.12522885
v 0.02293435 0.17090864 -0.12816391
v 0.01943494 0.18197991 -0.10342546
v 0.01835489 0.18434007 -0.09727578
v 0.01293298 0.20090410 -0.03915671
v 0.01546032 0.19601214 -0.05005840
v 0.00863434 0.20738380 -0.02019521
v 0.00802950 0.20716925 -0.02261781
v 0.00850472 0.20360755 -0.03745623
v 0.00561016 0.20729798 -0.02308370
v 0.00109551 0.21085968 -0.00836175
v 0.00453010 0.20729798 -0.02308370
v -0.00240389 0.21081677 -0.00451820
v 0.00807270 0.18554161 -0.10670994
v -0.00994272 0.20729798 -0.00130360
v -0.01488940 0.20455162 0.00076959
v -0.02538760 0.19794318 0.00342513
v -0.01521342 0.15816377 -0.12627708
v 0.00295321 0.16906342 -0.13023712
v 0.00658222 0.16906342 -0.13037688
v -0.02538760 0.15451625 -0.12352836
v -0.02162898 0.15558905 -0.12485614
v -0.01884243 0.15816377 -0.12599755
v 0.01746923 0.16906342 -0.12951500
v 0.02109824 0.16906342 -0.12909568
v 0.02308555 0.16906342 -0.12832698
v 0.01260896 0.20047497 -0.04279061
v 0.02109824 0.17146648 -0.12851332
v 0.01746923 0.17391246 -0.12744179
v 0.01958616 0.17477071 -0.12504248
v 0.01690760 0.18288108 -0.10817748
v 0.01915413 0.18159371 -0.10584806
v 0.01742603 0.18356766 -0.10438052
v 0.01785806 0.18408260 -0.10090968
v 0.01654038 0.18609947 -0.09727578
v 0.01230654 0.20017460 -0.04530638
v 0.00990881 0.20270640 -0.03885388
v 0.00815911 0.20360755 -0.03745623
v 0.01500669 0.18519832 -0.10533558
v 0.01258736 0.18558453 -0.10687300
v 0.01021122 0.18562743 -0.10701277
v 0.00481092 0.18541288 -0.10263346
v 0.01021122 0.18498375 -0.10882972
v 0.00418448 0.17481363 -0.12853662
v 0.00548056 0.18506958 -0.10454358
v -0.02538760 0.19781444 0.00079288
v -0.01687672 0.17077990 -0.10598782
v -0.00622731 0.16730402 -0.12818722
v 0.00295321 0.17279676 -0.12937521
v 0.00658222 0.17271094 -0.12998087
v -0.02538760 0.15816377 -0.12224718
v -0.02106735 0.16022355 -0.12478626
v -0.02167218 0.15816377 -0.12497260
v 0.01746923 0.17206726 -0.12876957
v 0.00904475 0.17468489 -0.12839686
v 0.01746923 0.17524274 -0.12562484
v 0.01571954 0.17820366 -0.12098929
v 0.01552512 0.18172244 -0.11353515
v 0.01625956 0.18228030 -0.11111255
v 0.01571954 0.18545579 -0.10291298
v 0.01604355 0.18567035 -0.10090968
v 0.01381863 0.18472628 -0.10810760
v 0.01412104 0.18288108 -0.11211420
v 0.01310579 0.18210865 -0.11414080
v -0.01022353 0.17116611 -0.11791446
v 0.01021122 0.18356766 -0.11181138
v 0.00658222 0.17485653 -0.12862981
v -0.01048275 0.16777606 -0.12508909
v -0.01164921 0.16833391 -0.12261990
v -0.01869121 0.16996457 -0.10468334
v -0.02169379 0.16799062 -0.10454358
v -0.02538760 0.16644579 -0.10121250
v -0.02108895 0.16760441 -0.10698948
v -0.02538760 0.15876454 -0.12161825
v -0.02441554 0.16005190 -0.12098929
v 0.01384023 0.17558604 -0.12597427
v 0.01384023 0.17738834 -0.12289942
v -0.01149801 0.16987874 -0.11910247
v -0.01370133 0.16751859 -0.12136200
v -0.02538760 0.16005190 -0.11907918
v -0.01426297 0.16799062 -0.11907918
f 1 2 3
f 1 3 4
f 1 4 5
f 1 5 6
f 1 6 7
f 1 7 8
f 1 8 2
f 2 9 10
f 2 10 3
f 2 8 11
f 2 11 27
f 2 27 9
f 3 10 12
f 3 12 13
f 3 13 4
f 4 13 14
f 4 14 15
f 4 15 16
f 4 16 17
f 4 17 5
f 5 17 18
f 5 18 19
f 5 19 6
f 6 19 20
f 6 20 21
f 6 21 22
f 6 22 23
f 6 23 7
f 7 11 8
f 7 23 24
f 7 24 11
f 9 25 26
f 9 26 10
f 9 27 28
f 9 28 25
f 10 26 12
f 11 24 29
f 11 29 30
f 11 30 27
f 12 26 31
f 12 31 13
f 13 31 32
f 13 32 14
f 14 32 33
f 14 33 34
f 14 34 35
f 14 35 36
f 14 36 15
f 15 36 16
f 16 18 17
f 16 36 37
f 16 37 38
f 16 38 39
f 16 39 40
f 16 40 18
f 18 41 42
f 18 42 19
f 18 40 43
f 18 43 41
f 19 42 44
f 19 44 21
f 19 21 20
f 21 44 45
f 21 45 46
f 21 46 22
f 22 47 48
f 22 48 24
f 22 24 23
f 22 46 49
f 22 49 50
f 22 50 47
f 24 51 29
f 24 48 52
f 24 52 51
f 25 28 26
f 26 28 53
f 26 53 54
f 26 54 55
f 26 55 56
f 26 56 31
f 27 30 57
f 27 57 28
f 28 58 53
f 28 57 59
f 28 59 60
f 28 60 58
f 29 51 30
f 30 51 61
f 30 61 57
f 31 56 62
f 31 62 63
f 31 63 32
f 32 63 64
f 32 64 65
f 32 65 33
f 33 65 34
f 34 66 67
f 34 67 36
f 34 36 35
f 34 65 66
f 36 67 68
f 36 68 69
f 36 69 70
f 36 70 71
f 36 71 72
f 36 72 37
f 37 72 73
f 37 73 74
f 37 74 75
f 37 75 39
f 37 39 38
f 39 75 76
f 39 76 43
f 39 43 40
f 41 43 77
f 41 77 42
f 42 77 78
f 42 78 79
f 42 79 44
f 43 76 77
f 44 79 80
f 44 80 45
f 45 80 79
f 45 79 81
f 45 81 46
f 46 50 49
f 46 81 50
f 47 50 82
f 47 82 83
f 47 83 48
f 48 83 52
f 50 81 84
f 50 84 85
f 50 85 82
f 51 86 61
f 51 52 86
f 52 83 129
f 52 129 181
f 52 181 234
f 52 234 285
f 52 285 284
f 52 284 283
f 52 283 282
f 52 282 281
f 52 281 334
f 52 334 381
f 52 381 440
f 52 440 439
f 52 439 490
f 52 490 530
f 52 530 559
f 52 559 585
f 52 585 593
f 52 593 587
f 52 587 564
f 52 564 534
f 52 534 492
f 52 492 443
f 52 443 395
f 52 395 394
f 52 394 441
f 52 441 392
f 52 392 391
f 52 391 390
f 52 390 389
f 52 389 388
f 52 388 387
f 52 387 386
f 52 386 385
f 52 385 383
f 52 383 337
f 52 337 286
f 52 286 235
f 52 235 183
f 52 183 182
f 52 182 135
f 52 135 134
f 52 134 137
f 52 137 133
f 52 133 99
f 52 99 145
f 52 145 144
f 52 144 131
f 52 131 87
f 52 87 88
f 52 88 86
f 53 58 89
f 53 89 54
f 54 89 90
f 54 90 91
f 54 91 92
f 54 92 55
f 55 93 94
f 55 94 56
f 55 92 95
f 55 95 93
f 56 94 62
f 57 61 88
f 57 88 96
f 57 96 59
f 58 60 89
f 59 96 97
f 59 97 60
f 60 97 98
f 60 98 99
f 60 99 89
f 61 86 88
f 62 100 101
f 62 101 63
f 62 94 100
f 63 101 64
f 64 101 102
f 64 102 65
f 65 102 103
f 65 103 104
f 65 104 105
f 65 105 66
f 66 106 107
f 66 107 108
f 66 108 67
f 66 105 106
f 67 108 68
f 68 109 110
f 68 110 111
f 68 111 112
f 68 112 113
f 68 113 114
f 68 114 69
f 68 108 107
f 68 107 109
f 69 114 115
f 69 115 116
f 69 116 70
f 70 116 71
f 71 73 72
f 71 116 117
f 71 117 118
f 71 118 73
f 73 118 119
f 73 119 74
f 74 119 118
f 74 118 117
f 74 117 120
f 74 120 121
f 74 121 122
f 74 122 123
f 74 123 76
f 74 76 75
f 76 78 77
f 76 123 124
f 76 124 78
f 78 124 123
f 78 123 122
f 78 122 125
f 78 125 79
f 79 125 81
f 81 125 126
f 81 126 84
f 82 85 84
f 82 84 127
f 82 127 128
f 82 128 83
f 83 128 129
f 84 126 130
f 84 130 127
f 87 131 96
f 87 96 132
f 87 132 88
f 88 132 96
f 89 99 133
f 89 133 90
f 90 134 135
f 90 135 136
f 90 136 92
f 90 92 91
f 90 133 137
f 90 137 134
f 92 138 95
f 92 136 139
f 92 139 138
f 93 140 94
f 93 95 140
f 94 140 100
f 95 138 139
f 95 139 141
f 95 141 142
f 95 142 143
f 95 143 140
f 96 131 97
f 97 144 145
f 97 145 98
f 97 131 144
f 98 145 99
f 100 140 146
f 100 146 147
f 100 147 148
f 100 148 101
f 101 148 102
f 102 148 149
f 102 149 103
f 103 149 150
f 103 150 104
f 104 150 151
f 104 151 152
f 104 152 105
f 105 152 106
f 106 152 153
f 106 153 154
f 106 154 155
f 106 155 109
f 106 109 107
f 109 155 110
f 110 155 111
f 111 156 157
f 111 157 112
f 111 155 156
f 112 157 158
f 112 158 159
f 112 159 160
f 112 160 161
f 112 161 162
f 112 162 163
f 112 163 113
f 113 163 114
f 114 163 115
f 115 164 117
f 115 117 116
f 115 163 164
f 117 164 163
f 117 163 162
f 117 162 161
f 117 161 165
f 117 165 120
f 120 165 166
f 120 166 121
f 121 166 167
f 121 167 122
f 122 168 130
f 122 130 126
f 122 126 125
f 122 167 169
f 122 169 170
f 122 170 171
f 122 171 168
f 127 172 173
f 127 173 174
f 127 174 175
f 127 175 176
f 127 176 177
f 127 177 129
f 127 129 128
f 127 130 178
f 127 178 171
f 127 171 172
f 129 177 179
f 129 179 180
f 129 180 181
f 130 168 171
f 130 171 178
f 135 182 136
f 136 182 139
f 139 182 183
f 139 183 141
f 140 184 185
f 140 185 146
f 140 143 184
f 141 186 187
f 141 187 142
f 141 183 188
f 141 188 186
f 142 189 190
f 142 190 143
f 142 187 189
f 143 190 184
f 146 185 147
f 147 191 148
f 147 185 192
f 147 192 193
f 147 193 191
f 148 191 149
f 149 194 150
f 149 191 195
f 149 195 194
f 150 194 196
f 150 196 197
f 150 197 198
f 150 198 152
f 150 152 151
f 152 198 199
f 152 199 197
f 152 197 153
f 153 197 154
f 154 197 155
f 155 200 201
f 155 201 202
f 155 202 203
f 155 203 156
f 155 197 204
f 155 204 200
f 156 203 158
f 156 158 157
f 158 205 206
f 158 206 159
f 158 203 205
f 159 207 160
f 159 206 207
f 160 207 161
f 161 207 208
f 161 208 209
f 161 209 210
f 161 210 165
f 165 210 166
f 166 210 211
f 166 211 212
f 166 212 167
f 167 212 213
f 167 213 214
f 167 214 262
f 167 262 215
f 167 215 216
f 167 216 217
f 167 217 169
f 169 218 219
f 169 219 220
f 169 220 170
f 169 217 172
f 169 172 218
f 170 220 171
f 171 220 219
f 171 219 172
f 172 217 221
f 172 221 222
f 172 222 223
f 172 223 173
f 172 219 218
f 173 223 222
f 173 222 224
f 173 224 225
f 173 225 226
f 173 226 174
f 174 226 225
f 174 225 227
f 174 227 228
f 174 228 175
f 175 228 229
f 175 229 176
f 176 229 177
f 177 229 179
f 179 228 180
f 179 229 228
f 180 230 231
f 180 231 232
f 180 232 181
f 180 228 227
f 180 227 233
f 180 233 230
f 181 232 234
f 183 235 188
f 184 190 236
f 184 236 237
f 184 237 185
f 185 237 238
f 185 238 192
f 186 188 187
f 187 188 239
f 187 239 235
f 187 235 240
f 187 240 189
f 188 235 239
f 189 240 190
f 190 241 236
f 190 240 238
f 190 238 241
f 191 193 195
f 192 238 242
f 192 242 193
f 193 242 195
f 194 195 197
f 194 197 196
f 195 242 243
f 195 243 197
f 197 199 198
f 197 243 244
f 197 244 245
f 197 245 246
f 197 246 247
f 197 247 248
f 197 248 249
f 197 249 250
f 197 250 204
f 200 250 202
f 200 202 201
f 200 204 250
f 202 250 251
f 202 251 252
f 202 252 206
f 202 206 205
f 202 205 203
f 206 252 207
f 207 252 303
f 207 303 253
f 207 253 208
f 208 254 209
f 208 253 255
f 208 255 254
f 209 256 257
f 209 257 258
f 209 258 211
f 209 211 210
f 209 254 255
f 209 255 259
f 209 259 256
f 211 258 212
f 212 260 261
f 212 261 262
f 212 262 214
f 212 214 213
f 212 258 260
f 215 263 264
f 215 264 216
f 215 262 263
f 216 264 265
f 216 265 266
f 216 266 267
f 216 267 268
f 216 268 269
f 216 269 217
f 217 269 270
f 217 270 271
f 217 271 221
f 221 271 272
f 221 272 273
f 221 273 222
f 222 273 274
f 222 274 275
f 222 275 224
f 224 227 225
f 224 275 276
f 224 276 227
f 227 276 233
f 230 277 231
f 230 233 276
f 230 276 278
f 230 278 279
f 230 279 280
f 230 280 277
f 231 281 282
f 231 282 283
f 231 283 284
f 231 284 285
f 231 285 232
f 231 277 281
f 232 285 234
f 235 286 287
f 235 287 288
f 235 288 289
f 235 289 240
f 236 241 290
f 236 290 237
f 237 290 238
f 238 291 292
f 238 292 293
f 238 293 242
f 238 290 241
f 238 240 291
f 240 289 294
f 240 294 291
f 242 295 296
f 242 296 243
f 242 293 295
f 243 296 297
f 243 297 244
f 244 297 298
f 244 298 299
f 244 299 245
f 245 299 300
f 245 300 246
f 246 300 301
f 246 301 302
f 246 302 247
f 247 302 248
f 248 302 303
f 248 303 252
f 248 252 251
f 248 251 250
f 248 250 249
f 253 303 255
f 255 303 304
f 255 304 305
f 255 305 259
f 256 306 307
f 256 307 308
f 256 308 257
f 256 259 309
f 256 309 310
f 256 310 358
f 256 358 306
f 257 308 258
f 258 308 307
f 258 307 311
f 258 311 312
f 258 312 260
f 259 305 313
f 259 313 309
f 260 314 315
f 260 315 261
f 260 312 314
f 261 315 316
f 261 316 317
f 261 317 263
f 261 263 262
f 263 317 318
f 263 318 319
f 263 319 320
f 263 320 321
f 263 321 264
f 264 321 322
f 264 322 323
f 264 323 265
f 265 323 322
f 265 322 270
f 265 270 268
f 265 268 267
f 265 267 266
f 268 270 269
f 270 322 324
f 270 324 325
f 270 325 326
f 270 326 327
f 270 327 272
f 270 272 271
f 272 327 274
f 272 274 273
f 274 327 328
f 274 328 329
f 274 329 330
f 274 330 276
f 274 276 275
f 276 330 329
f 276 329 331
f 276 331 332
f 276 332 333
f 276 333 279
f 276 279 278
f 277 334 281
f 277 280 335
f 277 335 334
f 279 336 335
f 279 335 280
f 279 333 336
f 286 337 338
f 286 338 287
f 287 338 339
f 287 339 340
f 287 340 289
f 287 289 288
f 289 340 341
f 289 341 294
f 291 294 292
f 292 294 341
f 292 341 293
f 293 342 295
f 293 341 343
f 293 343 344
f 293 344 342
f 295 342 296
f 296 342 345
f 296 345 346
f 296 346 347
f 296 347 297
f 297 347 298
f 298 347 348
f 298 348 299
f 299 348 300
f 300 348 349
f 300 349 350
f 300 350 301
f 301 350 351
f 301 351 352
f 301 352 353
f 301 353 354
f 301 354 302
f 302 354 355
f 302 355 304
f 302 304 303
f 304 355 305
f 305 356 357
f 305 357 313
f 305 355 356
f 306 358 359
f 306 359 307
f 307 359 311
f 309 313 357
f 309 357 310
f 310 357 358
f 311 360 361
f 311 361 312
f 311 359 360
f 312 361 362
f 312 362 314
f 314 363 365
f 314 365 315
f 314 362 364
f 314 364 421
f 314 421 363
f 315 365 366
f 315 366 316
f 316 366 367
f 316 367 317
f 317 367 318
f 318 367 368
f 318 368 320
f 318 320 319
f 320 368 369
f 320 369 370
f 320 370 321
f 321 370 324
f 321 324 322
f 324 370 325
f 325 370 326
f 326 371 372
f 326 372 373
f 326 373 327
f 326 370 374
f 326 374 371
f 327 373 328
f 328 373 375
f 328 375 376
f 328 376 331
f 328 331 329
f 331 376 377
f 331 377 378
f 331 378 379
f 331 379 332
f 332 379 380
f 332 380 333
f 333 380 336
f 334 335 381
f 335 336 379
f 335 379 382
f 335 382 381
f 336 380 379
f 337 383 338
f 338 384 339
f 338 383 385
f 338 385 386
f 338 386 387
f 338 387 388
f 338 388 389
f 338 389 390
f 338 390 391
f 338 391 392
f 338 392 384
f 339 393 340
f 339 384 394
f 339 394 395
f 339 395 396
f 339 396 397
f 339 397 398
f 339 398 343
f 339 343 341
f 339 341 393
f 340 393 341
f 342 399 345
f 342 344 399
f 343 398 344
f 344 398 400
f 344 400 399
f 345 399 401
f 345 401 346
f 346 401 402
f 346 402 347
f 347 402 403
f 347 403 404
f 347 404 348
f 348 404 405
f 348 405 349
f 349 405 406
f 349 406 407
f 349 407 408
f 349 408 409
f 349 409 410
f 349 410 350
f 350 410 411
f 350 411 352
f 350 352 351
f 352 411 412
f 352 412 355
f 352 355 353
f 353 355 354
f 355 412 356
f 356 413 357
f 356 412 414
f 356 414 415
f 356 415 413
f 357 413 416
f 357 416 358
f 358 417 359
f 358 416 417
f 359 417 360
f 360 418 361
f 360 417 419
f 360 419 418
f 361 420 364
f 361 364 362
f 361 418 420
f 363 421 365
f 364 420 422
f 364 422 421
f 365 421 366
f 366 423 424
f 366 424 367
f 366 421 425
f 366 425 426
f 366 426 423
f 367 424 427
f 367 427 428
f 367 428 429
f 367 429 430
f 367 430 368
f 368 430 428
f 368 428 369
f 369 428 431
f 369 431 374
f 369 374 370
f 371 432 372
f 371 374 431
f 371 431 432
f 372 433 434
f 372 434 375
f 372 375 373
f 372 432 433
f 375 434 376
f 376 434 435
f 376 435 436
f 376 436 377
f 377 436 437
f 377 437 378
f 378 437 438
f 378 438 439
f 378 439 382
f 378 382 379
f 381 382 440
f 382 439 440
f 384 392 441
f 384 441 394
f 395 442 396
f 395 443 442
f 396 442 444
f 396 444 445
f 396 445 397
f 397 445 398
f 398 445 400
f 399 400 446
f 399 446 401
f 400 447 446
f 400 445 447
f 401 448 449
f 401 449 450
f 401 450 403
f 401 403 402
f 401 446 447
f 401 447 451
f 401 451 442
f 401 442 452
f 401 452 453
f 401 453 454
f 401 454 448
f 403 450 455
f 403 455 404
f 404 455 456
f 404 456 406
f 404 406 405
f 406 456 457
f 406 457 458
f 406 458 459
f 406 459 407
f 407 459 460
f 407 460 408
f 408 460 409
f 409 460 410
f 410 460 413
f 410 413 411
f 411 413 415
f 411 415 414
f 411 414 412
f 413 460 416
f 416 460 419
f 416 419 417
f 418 426 422
f 418 422 420
f 418 419 461
f 418 461 462
f 418 462 463
f 418 463 426
f 419 460 459
f 419 459 464
f 419 464 462
f 419 462 461
f 421 422 465
f 421 465 426
f 421 426 425
f 422 426 465
f 423 466 467
f 423 467 468
f 423 468 469
f 423 469 424
f 423 426 466
f 424 469 468
f 424 468 428
f 424 428 427
f 426 463 470
f 426 470 471
f 426 471 472
f 426 472 473
f 426 473 474
f 426 474 475
f 426 475 476
f 426 476 466
f 428 468 431
f 428 430 429
f 431 468 477
f 431 477 478
f 431 478 479
f 431 479 432
f 432 479 480
f 432 480 433
f 433 480 481
f 433 481 482
f 433 482 483
f 433 483 484
f 433 484 434
f 434 484 485
f 434 485 435
f 435 485 486
f 435 486 436
f 436 486 487
f 436 487 488
f 436 488 489
f 436 489 490
f 436 490 438
f 436 438 437
f 438 490 439
f 442 491 452
f 442 451 445
f 442 445 444
f 442 443 491
f 443 492 493
f 443 493 491
f 445 451 447
f 448 494 449
f 448 454 495
f 448 495 494
f 449 494 496
f 449 496 497
f 449 497 498
f 449 498 499
f 449 499 450
f 450 499 455
f 452 491 500
f 452 500 453
f 453 500 501
f 453 501 502
f 453 502 454
f 454 502 501
f 454 501 503
f 454 503 504
f 454 504 505
f 454 505 495
f 455 499 457
f 455 457 456
f 457 499 498
f 457 498 506
f 457 506 458
f 458 506 507
f 458 507 508
f 458 508 459
f 459 508 509
f 459 509 464
f 462 464 510
f 462 510 463
f 463 510 470
f 464 509 510
f 466 476 511
f 466 511 467
f 467 512 468
f 467 511 512
f 468 512 477
f 470 510 507
f 470 507 497
f 470 497 496
f 470 496 471
f 471 496 494
f 471 494 472
f 472 513 514
f 472 514 515
f 472 515 473
f 472 494 513
f 473 515 475
f 473 475 474
f 475 515 516
f 475 516 517
f 475 517 518
f 475 518 519
f 475 519 476
f 476 519 518
f 476 518 511
f 477 512 478
f 478 520 479
f 478 512 520
f 479 520 480
f 480 520 521
f 480 521 481
f 481 521 522
f 481 522 523
f 481 523 482
f 482 524 483
f 482 523 525
f 482 525 524
f 483 526 484
f 483 524 527
f 483 527 526
f 484 526 485
f 485 487 486
f 485 526 528
f 485 528 488
f 485 488 487
f 488 528 489
f 489 528 529
f 489 529 490
f 490 529 530
f 491 493 531
f 491 531 532
f 491 532 533
f 491 533 500
f 492 534 535
f 492 535 536
f 492 536 493
f 493 536 531
f 494 495 505
f 494 505 504
f 494 504 503
f 494 503 513
f 497 507 506
f 497 506 498
f 500 533 501
f 501 533 537
f 501 537 538
f 501 538 539
f 501 539 503
f 503 539 515
f 503 515 514
f 503 514 513
f 507 510 509
f 507 509 508
f 511 518 512
f 512 518 540
f 512 540 520
f 515 539 538
f 515 538 541
f 515 541 542
f 515 542 543
f 515 543 544
f 515 544 545
f 515 545 516
f 516 545 546
f 516 546 547
f 516 547 517
f 517 547 548
f 517 548 518
f 518 548 540
f 520 540 549
f 520 549 521
f 521 550 522
f 521 549 550
f 522 551 525
f 522 525 523
f 522 550 552
f 522 552 553
f 522 553 554
f 522 554 551
f 524 525 527
f 525 551 554
f 525 554 527
f 526 527 555
f 526 555 528
f 527 554 556
f 527 556 557
f 527 557 558
f 527 558 555
f 528 559 529
f 528 555 560
f 528 560 559
f 529 559 530
f 531 536 532
f 532 536 561
f 532 561 562
f 532 562 563
f 532 563 533
f 533 563 537
f 534 564 565
f 534 565 566
f 534 566 536
f 534 536 535
f 536 566 565
f 536 565 561
f 537 563 538
f 538 563 541
f 540 548 549
f 541 563 567
f 541 567 542
f 542 568 569
f 542 569 543
f 542 567 568
f 543 569 570
f 543 570 571
f 543 571 572
f 543 572 544
f 544 572 552
f 544 552 573
f 544 573 546
f 544 546 545
f 546 573 547
f 547 573 574
f 547 574 548
f 548 574 549
f 549 574 573
f 549 573 550
f 550 573 552
f 552 572 571
f 552 571 575
f 552 575 553
f 553 575 576
f 553 576 577
f 553 577 556
f 553 556 554
f 555 558 578
f 555 578 560
f 556 577 579
f 556 579 557
f 557 579 580
f 557 580 563
f 557 563 562
f 557 562 561
f 557 561 565
f 557 565 581
f 557 581 582
f 557 582 578
f 557 578 558
f 559 560 583
f 559 583 584
f 559 584 585
f 560 578 586
f 560 586 584
f 560 584 583
f 563 580 568
f 563 568 567
f 564 587 565
f 565 587 588
f 565 588 581
f 568 580 589
f 568 589 569
f 569 589 590
f 569 590 570
f 570 590 577
f 570 577 576
f 570 576 571
f 571 576 575
f 577 590 579
f 578 582 591
f 578 591 586
f 579 590 580
f 580 590 589
f 581 588 582
f 582 588 592
f 582 592 591
f 584 586 585
f 585 586 593
f 586 591 594
f 586 594 588
f 586 588 593
f 587 593 588
f 588 594 592
f 591 592 594

