v -0.04536267 -0.19849394 -0.03929504
v -0.04535203 -0.19802436 -0.03929504
v -0.04063540 -0.20518019 -0.04144947
v -0.04063540 -0.21215940 -0.04124044
v -0.04063540 -0.21229726 -0.04123327
v -0.04210625 -0.21229726 -0.03929504
v -0.04063540 -0.20217742 -0.04141868
v -0.04532704 -0.19722304 -0.03929504
v -0.04063540 -0.19730920 -0.04136700
v -0.04063540 -0.21229726 -0.03929504
v -0.04482997 -0.19254438 -0.03929504
v -0.04063540 -0.17205050 -0.03976857
v -0.04063540 -0.16828948 -0.03929504
v -0.04127687 -0.17097346 -0.03929504
f 1 2 3
f 1 3 4
f 1 4 5
f 1 5 6
f 1 6 10
f 1 10 13
f 1 13 14
f 1 14 11
f 1 11 8
f 1 8 2
f 2 7 3
f 2 8 9
f 2 9 7
f 3 7 9
f 3 9 12
f 3 12 13
f 3 13 10
f 3 10 5
f 3 5 4
f 5 10 6
f 8 11 9
f 9 11 12
f 11 14 12
f 12 14 13

