v -0.10795852 -0.16417328 -0.01695666
v -0.10342557 -0.16417328 -0.02005973
v -0.10795852 -0.16417328 -0.03519836
v -0.10795852 -0.16601484 -0.01875605
v -0.10795160 -0.22971884 -0.05024279
v -0.08982670 -0.22971884 -0.05289478
v -0.07258484 -0.22971884 -0.05885803
v -0.10267065 -0.16417328 -0.02074380
v -0.07258484 -0.22139009 -0.05737589
v -0.10746333 -0.16417328 -0.03621950
v -0.10795852 -0.16455185 -0.03585764
v -0.10795852 -0.18471923 -0.03753310
v -0.10795160 -0.22971884 -0.05858044
v -0.07258484 -0.22971884 -0.06759223
v -0.07258484 -0.16417328 -0.05383165
v -0.10454755 -0.16417328 -0.04009090
v -0.10587731 -0.17057063 -0.04528581
v -0.10763301 -0.16802966 -0.04017021
v -0.10795852 -0.16638058 -0.03753310
v -0.10795160 -0.16776016 -0.03937213
v -0.10795160 -0.16878040 -0.04043293
v -0.10795160 -0.17209779 -0.04370454
v -0.07916438 -0.18185743 -0.06270465
v -0.07916438 -0.18954452 -0.06337384
v -0.07916438 -0.19721875 -0.06401825
v -0.10795160 -0.18185743 -0.04809642
v -0.10312429 -0.18185743 -0.05142256
v -0.09859826 -0.17775080 -0.05327647
v -0.08318829 -0.17760963 -0.06093005
v -0.07719745 -0.16647683 -0.06172812
v -0.07258484 -0.16647683 -0.06324496
v -0.07258484 -0.19721875 -0.06558961
v -0.07258484 -0.16417328 -0.06289797
v -0.10277454 -0.16417328 -0.04226701
v -0.10223779 -0.17416392 -0.04932575
v -0.10728325 -0.17569750 -0.04661428
v -0.10080414 -0.16417328 -0.04396726
v -0.09440121 -0.16417328 -0.04933071
v -0.09013144 -0.16417328 -0.05263702
v -0.08666159 -0.16417328 -0.05528405
v -0.08231563 -0.16417328 -0.05824337
v -0.10795160 -0.17519058 -0.04551879
v -0.10795160 -0.17859137 -0.04707032
v -0.08041796 -0.16417328 -0.05942312
v -0.07676112 -0.16417328 -0.06152984
v -0.07412930 -0.16417328 -0.06240228
v -0.07258484 -0.16521919 -0.06306650
v -0.07349559 -0.16417328 -0.06261046
f 1 2 8
f 1 8 15
f 1 15 33
f 1 33 48
f 1 48 46
f 1 46 45
f 1 45 44
f 1 44 41
f 1 41 40
f 1 40 39
f 1 39 38
f 1 38 37
f 1 37 34
f 1 34 16
f 1 16 10
f 1 10 3
f 1 3 11
f 1 11 19
f 1 19 12
f 1 12 4
f 1 4 5
f 1 5 6
f 1 6 7
f 1 7 2
f 2 7 9
f 2 9 8
f 3 10 11
f 4 12 5
f 5 12 13
f 5 13 14
f 5 14 7
f 5 7 6
f 7 14 32
f 7 32 31
f 7 31 47
f 7 47 33
f 7 33 15
f 7 15 9
f 8 9 15
f 10 16 17
f 10 17 18
f 10 18 11
f 11 18 20
f 11 20 21
f 11 21 22
f 11 22 19
f 12 19 13
f 13 23 24
f 13 24 25
f 13 25 14
f 13 19 26
f 13 26 27
f 13 27 28
f 13 28 29
f 13 29 30
f 13 30 31
f 13 31 23
f 14 25 32
f 16 34 17
f 17 35 36
f 17 36 22
f 17 22 18
f 17 34 37
f 17 37 38
f 17 38 39
f 17 39 40
f 17 40 41
f 17 41 35
f 18 22 21
f 18 21 20
f 19 22 42
f 19 42 43
f 19 43 26
f 22 36 42
f 23 31 24
f 24 31 25
f 25 31 32
f 26 43 28
f 26 28 27
f 28 43 36
f 28 36 35
f 28 35 41
f 28 41 44
f 28 44 45
f 28 45 29
f 29 45 30
f 30 45 46
f 30 46 47
f 30 47 31
f 33 47 48
f 36 43 42
f 46 48 47

