v -0.04250606 -0.03152927 0.00152944
v -0.04073368 -0.03152927 0.00045468
v -0.04250606 -0.03152927 -0.05295259
v -0.04250606 -0.03452477 0.00137590
v -0.01326900 -0.11744206 -0.03738410
v -0.01352633 -0.03152927 -0.02264471
v -0.01297119 -0.03152927 -0.06814491
v -0.04250606 -0.09850172 -0.06669401
v -0.04250606 -0.04007894 0.00026278
v -0.02855254 -0.13334530 -0.02972268
v -0.01297119 -0.13777614 -0.04259663
v -0.01297119 -0.11772289 -0.03773723
v -0.01297119 -0.03152927 -0.02312834
v -0.01297119 -0.03575210 -0.06864391
v -0.04250606 -0.10189246 -0.06726976
v -0.04250606 -0.13777614 -0.02139339
v -0.03416460 -0.13777614 -0.02710491
v -0.02946041 -0.13777614 -0.03042127
v -0.02546171 -0.13777614 -0.03326168
v -0.01297119 -0.13777614 -0.07688875
v -0.01297119 -0.08189123 -0.07384108
v -0.01297119 -0.08966082 -0.07447057
v -0.04250606 -0.10323420 -0.06726976
v -0.04250606 -0.13777614 -0.05414249
v -0.01353501 -0.13777614 -0.07664310
v -0.01472623 -0.13777614 -0.07605966
v -0.02249522 -0.13777614 -0.07151502
v -0.02392353 -0.13777614 -0.07047098
v -0.03531535 -0.13777614 -0.06194208
v -0.03811704 -0.13777614 -0.05930895
f 1 2 6
f 1 6 13
f 1 13 7
f 1 7 3
f 1 3 8
f 1 8 15
f 1 15 23
f 1 23 24
f 1 24 16
f 1 16 9
f 1 9 4
f 1 4 2
f 2 4 5
f 2 5 6
f 3 7 8
f 4 9 5
f 5 10 11
f 5 11 12
f 5 12 13
f 5 13 6
f 5 9 10
f 7 13 12
f 7 12 11
f 7 11 20
f 7 20 22
f 7 22 21
f 7 21 14
f 7 14 15
f 7 15 8
f 9 16 10
f 10 16 17
f 10 17 18
f 10 18 19
f 10 19 11
f 11 19 18
f 11 18 17
f 11 17 16
f 11 16 24
f 11 24 30
f 11 30 29
f 11 29 28
f 11 28 27
f 11 27 26
f 11 26 25
f 11 25 20
f 14 21 15
f 15 22 20
f 15 20 23
f 15 21 22
f 20 25 23
f 23 25 26
f 23 26 27
f 23 27 28
f 23 28 29
f 23 29 30
f 23 30 24

