v -0.07257498 -0.03152927 0.02577390
v -0.05940067 -0.03152927 0.01640937
v -0.07257498 -0.03152927 -0.01142804
v -0.07257498 -0.04343848 0.02405659
v -0.04251190 -0.03452477 0.00137110
v -0.04251190 -0.03152927 0.00153238
v -0.06972584 -0.04343848 0.02189336
v -0.05080912 -0.13570634 -0.01355332
v -0.04368040 -0.04157669 0.00153238
v -0.05263398 -0.03152927 -0.04610621
v -0.06809524 -0.07714834 -0.04613467
v -0.06882519 -0.08189123 -0.04732065
v -0.07257498 -0.07743956 -0.03705478
v -0.07257498 -0.13510308 0.00267094
v -0.04251190 -0.04007894 0.00026102
v -0.04251190 -0.03152927 -0.05294696
v -0.05116232 -0.13777614 -0.01382847
v -0.04251190 -0.13777614 -0.02139031
v -0.05192464 -0.03152927 -0.04668496
v -0.06009235 -0.10055073 -0.06877273
v -0.07257498 -0.08189123 -0.03953111
v -0.06782446 -0.09263553 -0.05350674
v -0.07257498 -0.13570634 0.00250964
v -0.04346554 -0.03152927 -0.05257693
v -0.04251190 -0.09850172 -0.06669488
v -0.04395707 -0.10005148 -0.06933251
v -0.04866933 -0.09739921 -0.07050900
v -0.05332566 -0.09291635 -0.06908583
v -0.05597170 -0.09770084 -0.07017693
v -0.07257498 -0.13777614 0.00194986
v -0.04251190 -0.13777614 -0.05414243
v -0.04863401 -0.03152927 -0.04899052
v -0.05654859 -0.10466955 -0.07082211
v -0.06009235 -0.10192368 -0.06877273
v -0.07257498 -0.13777614 -0.05240615
v -0.06813056 -0.09725359 -0.05405704
v -0.06917838 -0.08986884 -0.04963569
v -0.07257498 -0.11331283 -0.04807968
v -0.04251190 -0.10189246 -0.06726415
v -0.04395707 -0.10233972 -0.06933251
v -0.04814541 -0.10491918 -0.07115418
v -0.05053539 -0.11001570 -0.07015795
v -0.04251190 -0.10323420 -0.06726415
v -0.07100324 -0.13777614 -0.05255796
v -0.05428813 -0.11001570 -0.07015795
v -0.07224532 -0.13777614 -0.05247257
v -0.07212759 -0.13777614 -0.05249154
f 1 2 6
f 1 6 16
f 1 16 24
f 1 24 32
f 1 32 19
f 1 19 10
f 1 10 3
f 1 3 13
f 1 13 21
f 1 21 38
f 1 38 35
f 1 35 30
f 1 30 23
f 1 23 14
f 1 14 4
f 1 4 2
f 2 5 6
f 2 4 7
f 2 7 8
f 2 8 9
f 2 9 5
f 3 10 11
f 3 11 12
f 3 12 13
f 4 14 8
f 4 8 7
f 5 9 15
f 5 15 18
f 5 18 31
f 5 31 43
f 5 43 39
f 5 39 25
f 5 25 16
f 5 16 6
f 8 14 17
f 8 17 18
f 8 18 9
f 9 18 15
f 10 19 20
f 10 20 11
f 11 20 12
f 12 21 13
f 12 20 22
f 12 22 21
f 14 23 17
f 16 25 26
f 16 26 27
f 16 27 28
f 16 28 29
f 16 29 24
f 17 23 30
f 17 30 35
f 17 35 46
f 17 46 47
f 17 47 44
f 17 44 31
f 17 31 18
f 19 32 20
f 20 29 33
f 20 33 34
f 20 34 35
f 20 35 36
f 20 36 22
f 20 32 24
f 20 24 29
f 21 22 37
f 21 37 38
f 22 36 37
f 25 39 26
f 26 39 43
f 26 43 40
f 26 40 41
f 26 41 27
f 27 41 33
f 27 33 29
f 27 29 28
f 31 42 41
f 31 41 40
f 31 40 43
f 31 44 45
f 31 45 42
f 33 41 45
f 33 45 35
f 33 35 34
f 35 38 36
f 35 45 46
f 36 38 37
f 41 42 45
f 44 47 45
f 45 47 46

