v -0.07257792 -0.21229000 -0.06506092
v -0.05712234 -0.21229000 -0.07425327
v -0.07257792 -0.21229000 -0.05692452
v -0.07257792 -0.20490894 -0.06561950
v -0.06015217 -0.20900062 -0.07699260
v -0.05609364 -0.21229000 -0.07457719
v -0.04063806 -0.21229000 -0.05982965
v -0.04063493 -0.16048403 -0.05237426
v -0.04071310 -0.16049131 -0.05237426
v -0.07255603 -0.15878463 -0.05237426
v -0.07257792 -0.15835431 -0.05237426
v -0.07257792 -0.19722156 -0.06559400
v -0.06014279 -0.20490894 -0.07688038
v -0.05609364 -0.20490894 -0.07842859
v -0.05609364 -0.20956951 -0.07761750
v -0.04870198 -0.21229000 -0.07309275
v -0.05139099 -0.20959868 -0.07732163
v -0.04063493 -0.21229000 -0.05999034
v -0.04063493 -0.13778655 -0.05237426
v -0.07257792 -0.13778655 -0.05237426
v -0.07257792 -0.16647202 -0.06325510
v -0.05999583 -0.20099232 -0.07633965
v -0.07257792 -0.16521024 -0.06306890
v -0.07257792 -0.15907637 -0.06209203
v -0.05135659 -0.19997123 -0.07721451
v -0.05093761 -0.20490894 -0.07778584
v -0.06947930 -0.15257053 -0.06160487
v -0.06397933 -0.15044083 -0.06209458
v -0.04118837 -0.21229000 -0.06982033
v -0.04063493 -0.21229000 -0.06940969
v -0.04063493 -0.13778655 -0.05629452
v -0.07257792 -0.13778655 -0.05241252
v -0.07181186 -0.15863876 -0.06226547
v -0.07257792 -0.15195788 -0.05987301
v -0.05609364 -0.15878463 -0.06478801
v -0.04063493 -0.16647202 -0.06492319
v -0.04063493 -0.18953418 -0.06824406
v -0.04063493 -0.19722156 -0.06902455
v -0.07181186 -0.15044083 -0.05971488
v -0.06667460 -0.14744319 -0.06074022
v -0.06154984 -0.14711498 -0.06096977
v -0.05955809 -0.14711498 -0.06096977
v -0.07212767 -0.13778655 -0.05249924
v -0.07257792 -0.14220643 -0.05525389
v -0.07257792 -0.15044083 -0.05932463
v -0.07257792 -0.14970418 -0.05904407
f 1 2 6
f 1 6 16
f 1 16 29
f 1 29 30
f 1 30 18
f 1 18 7
f 1 7 3
f 1 3 11
f 1 11 20
f 1 20 32
f 1 32 44
f 1 44 46
f 1 46 45
f 1 45 34
f 1 34 24
f 1 24 23
f 1 23 21
f 1 21 12
f 1 12 4
f 1 4 5
f 1 5 2
f 2 5 6
f 3 7 8
f 3 8 9
f 3 9 10
f 3 10 11
f 4 12 5
f 5 12 13
f 5 13 14
f 5 14 15
f 5 15 6
f 6 15 17
f 6 17 16
f 7 18 8
f 8 19 20
f 8 20 11
f 8 11 10
f 8 10 9
f 8 18 30
f 8 30 38
f 8 38 37
f 8 37 36
f 8 36 31
f 8 31 19
f 12 21 13
f 13 22 14
f 13 21 23
f 13 23 24
f 13 24 22
f 14 25 26
f 14 26 17
f 14 17 15
f 14 22 27
f 14 27 28
f 14 28 25
f 16 17 29
f 17 26 29
f 19 31 43
f 19 43 32
f 19 32 20
f 22 24 33
f 22 33 27
f 24 27 33
f 24 34 27
f 25 28 35
f 25 35 31
f 25 31 36
f 25 36 26
f 26 30 29
f 26 36 37
f 26 37 38
f 26 38 30
f 27 34 39
f 27 39 40
f 27 40 28
f 28 40 41
f 28 41 42
f 28 42 35
f 31 35 42
f 31 42 41
f 31 41 40
f 31 40 43
f 32 43 40
f 32 40 44
f 34 45 39
f 39 46 40
f 39 45 46
f 40 46 44

