v -0.17556452 -0.18827238 0.00462763
v -0.17556452 -0.18663673 0.00995690
v -0.17613461 -0.18648144 0.00965164
v -0.17664608 -0.18739245 0.00451314
v -0.17556452 -0.18787900 -0.00199899
v -0.16863828 -0.17051819 0.03428842
v -0.17556452 -0.18613981 0.01078364
v -0.18334856 -0.17833418 0.01662168
v -0.17625182 -0.18714399 -0.00131217
v -0.22146420 -0.13193517 0.05476607
v -0.22146420 -0.13193517 0.05393933
v -0.18334856 -0.17849981 0.00742580
v -0.17740264 -0.18184361 -0.00239328
v -0.17556452 -0.18595347 -0.00301652
v -0.17143541 -0.16988670 0.03428842
v -0.17556452 -0.17767163 0.02336276
v -0.17556452 -0.18067380 0.01911461
v -0.17556452 -0.18184361 -0.00486078
v -0.17556452 -0.17947293 -0.00487350
v -0.16863828 -0.15863375 0.03428842
v -0.16863828 -0.16815786 0.03684495
v -0.22306257 -0.08251327 0.12506419
v -0.22306257 -0.08473901 0.12254582
v -0.22306257 -0.08803105 0.11871739
v -0.22306257 -0.09187175 0.11410038
v -0.17912887 -0.17958681 0.01828787
v -0.19228341 -0.16356144 0.03269854
v -0.22306257 -0.12294936 0.07145345
v -0.22020150 -0.13130366 0.05990457
v -0.22110723 -0.13107592 0.04883900
v -0.21378672 -0.13964762 0.03901990
v -0.22306257 -0.12958519 0.05678840
v -0.22306257 -0.12958519 0.05650857
v -0.22185313 -0.12594118 0.04624431
v -0.17556452 -0.17074594 0.03192268
v -0.22306257 -0.09503955 0.11027196
v -0.22306257 -0.09888026 0.10531152
v -0.22306257 -0.10718280 0.09452578
v -0.22306257 -0.10966736 0.09095174
v -0.17912887 -0.17698838 0.02211630
v -0.19281087 -0.15875797 0.01396339
v -0.17791945 -0.17415185 -0.00173190
v -0.18638012 -0.15105586 0.01070732
v -0.17556452 -0.17392410 -0.00325818
v -0.16867025 -0.11976085 0.03428842
v -0.19218750 -0.15107657 0.01480285
v -0.16863828 -0.11976085 0.06782852
v -0.16863828 -0.16431716 0.04077512
v -0.21756419 -0.08251327 0.12491156
v -0.22306257 -0.08251327 0.07051223
v -0.22306257 -0.11770074 0.07922477
v -0.22306257 -0.12600329 0.06599697
v -0.22306257 -0.12906757 0.05818748
v -0.22306257 -0.12802198 0.05144640
v -0.22306257 -0.12364296 0.04789778
v -0.22185313 -0.12243175 0.04624431
v -0.21445271 -0.12802198 0.03849842
v -0.21396788 -0.12360156 0.03895631
v -0.21279574 -0.11846681 0.03982120
v -0.18241084 -0.14847814 0.00881219
v -0.17707231 -0.14339516 0.00740037
v -0.17566575 -0.13915072 0.00809992
v -0.17556452 -0.13925424 0.00804904
v -0.17556452 -0.13914036 0.00808720
v -0.17556452 -0.10528833 0.03430114
v -0.17932600 -0.08251327 0.05874713
v -0.16863828 -0.11976085 0.07889408
v -0.16863828 -0.16045574 0.04462900
v -0.16863828 -0.14859201 0.05568183
v -0.20987074 -0.08251327 0.12323265
v -0.16863828 -0.15661505 0.04840655
v -0.16863828 -0.15244307 0.05226042
v -0.21856051 -0.08251327 0.06831185
v -0.20634368 -0.10095072 0.04666403
v -0.20469737 -0.10898410 0.03923612
v -0.21578469 -0.09958421 0.05317619
v -0.22090477 -0.10164432 0.05485510
v -0.22306257 -0.10013288 0.05744979
v -0.22306257 -0.12143792 0.04789778
v -0.22306257 -0.11538183 0.04932232
v -0.21008918 -0.11198627 0.04091504
v -0.20767032 -0.11409814 0.03820588
v -0.22306257 -0.10735879 0.05288366
v -0.22306257 -0.10665484 0.05321434
v -0.20692442 -0.09300015 0.05406652
v -0.20965229 -0.08251327 0.06503033
v -0.17932600 -0.08251327 0.10795709
v -0.17932600 -0.08936650 0.10407777
v -0.18274650 -0.08596058 0.10845313
v -0.18686495 -0.08251327 0.11301926
v -0.19161209 -0.08251327 0.11567755
v -0.19279488 -0.08434563 0.11509246
v -0.16863828 -0.12006107 0.07869058
v -0.16863828 -0.13209044 0.07005435
v -0.20193219 -0.08251327 0.12037087
v -0.21729247 -0.08251327 0.06770132
v -0.21650928 -0.08251327 0.06737064
v -0.22306257 -0.10292801 0.05542746
v -0.22306257 -0.10464649 0.05434634
v -0.18139322 -0.08251327 0.10948337
v -0.19439858 -0.08251327 0.11706392
v -0.19791498 -0.08596058 0.11617359
v -0.16863828 -0.12193484 0.07741868
f 1 2 3
f 1 3 4
f 1 4 5
f 1 5 6
f 1 6 2
f 2 6 7
f 2 7 8
f 2 8 3
f 3 8 4
f 4 9 5
f 4 8 10
f 4 10 11
f 4 11 12
f 4 12 9
f 5 9 13
f 5 13 14
f 5 14 6
f 6 15 16
f 6 16 17
f 6 17 7
f 6 14 18
f 6 18 19
f 6 19 20
f 6 20 47
f 6 47 67
f 6 67 93
f 6 93 103
f 6 103 94
f 6 94 69
f 6 69 72
f 6 72 71
f 6 71 68
f 6 68 48
f 6 48 21
f 6 21 22
f 6 22 23
f 6 23 24
f 6 24 25
f 6 25 15
f 7 17 26
f 7 26 8
f 8 26 27
f 8 27 28
f 8 28 29
f 8 29 10
f 9 12 30
f 9 30 31
f 9 31 13
f 10 29 32
f 10 32 33
f 10 33 11
f 11 30 12
f 11 33 30
f 13 18 14
f 13 31 34
f 13 34 18
f 15 35 16
f 15 25 36
f 15 36 35
f 16 35 36
f 16 36 37
f 16 37 38
f 16 38 17
f 17 38 39
f 17 39 40
f 17 40 26
f 18 34 41
f 18 41 19
f 19 42 43
f 19 43 44
f 19 44 45
f 19 45 20
f 19 41 46
f 19 46 42
f 20 45 47
f 21 48 22
f 22 49 70
f 22 70 95
f 22 95 101
f 22 101 91
f 22 91 90
f 22 90 100
f 22 100 87
f 22 87 66
f 22 66 86
f 22 86 97
f 22 97 96
f 22 96 73
f 22 73 50
f 22 50 78
f 22 78 98
f 22 98 99
f 22 99 84
f 22 84 83
f 22 83 80
f 22 80 79
f 22 79 55
f 22 55 54
f 22 54 33
f 22 33 32
f 22 32 53
f 22 53 52
f 22 52 28
f 22 28 51
f 22 51 39
f 22 39 38
f 22 38 37
f 22 37 36
f 22 36 25
f 22 25 24
f 22 24 23
f 22 48 49
f 26 40 51
f 26 51 28
f 26 28 27
f 28 52 29
f 29 52 53
f 29 53 32
f 30 33 54
f 30 54 34
f 30 34 31
f 34 54 55
f 34 55 79
f 34 79 56
f 34 56 41
f 39 51 40
f 41 56 57
f 41 57 46
f 42 46 43
f 43 46 58
f 43 58 59
f 43 59 60
f 43 60 44
f 44 60 61
f 44 61 62
f 44 62 63
f 44 63 45
f 45 63 64
f 45 64 65
f 45 65 66
f 45 66 47
f 46 57 58
f 47 66 87
f 47 87 67
f 48 68 49
f 49 69 70
f 49 68 71
f 49 71 72
f 49 72 69
f 50 73 74
f 50 74 75
f 50 75 76
f 50 76 77
f 50 77 78
f 56 58 57
f 56 79 80
f 56 80 58
f 58 80 59
f 59 81 82
f 59 82 60
f 59 80 83
f 59 83 84
f 59 84 81
f 60 62 61
f 60 82 62
f 62 64 63
f 62 82 75
f 62 75 65
f 62 65 64
f 65 75 74
f 65 74 85
f 65 85 86
f 65 86 66
f 67 87 88
f 67 88 89
f 67 89 90
f 67 90 91
f 67 91 92
f 67 92 93
f 69 94 70
f 70 94 95
f 73 96 74
f 74 96 97
f 74 97 85
f 75 82 81
f 75 81 98
f 75 98 77
f 75 77 76
f 77 98 78
f 81 84 99
f 81 99 98
f 85 97 86
f 87 100 88
f 88 100 89
f 89 100 90
f 91 101 92
f 92 101 95
f 92 95 102
f 92 102 103
f 92 103 93
f 94 103 102
f 94 102 95

