v 0.01562687 0.23166849 0.06597625
v 0.01417648 0.23166849 0.07368882
v 0.01475164 0.23166849 0.05935432
v -0.00455354 0.24706207 0.02753018
v -0.00875466 0.25089914 0.02753018
v 0.01310119 0.23166849 0.07470161
v -0.01305582 0.25286298 0.03193181
v 0.01237599 0.23166849 0.05144698
v -0.00540376 0.24604993 0.02203788
v -0.22076149 0.38403320 -0.32315881
v -0.01260569 0.25310469 0.02753018
v -0.22076149 0.38403320 -0.31984785
v -0.01765704 0.25286298 0.03189284
v 0.00094794 0.23751473 0.06258738
v 0.00557417 0.23166849 0.07306560
v -0.19748025 0.36845835 -0.26609346
v -0.17514926 0.35258137 -0.22227195
v -0.17537432 0.35258137 -0.22227195
v 0.01085058 0.23166849 0.04743488
v 0.00174815 0.23763558 0.03095799
v -0.00655408 0.24246968 0.01689615
v -0.22076149 0.38081551 -0.32315881
v -0.22523770 0.38388214 -0.32296406
v -0.23218955 0.38483385 -0.31793918
v -0.23293976 0.38599706 -0.31073299
v -0.22451250 0.38486407 -0.31774442
v -0.22556277 0.38527195 -0.31073299
v -0.00610395 0.23734855 0.01600024
v -0.19723018 0.36876049 -0.27228691
v -0.02168313 0.25271192 0.03154228
v -0.02200821 0.24538524 0.03948856
v -0.00055246 0.23166849 0.06885872
v -0.21753562 0.38013572 -0.29534677
v -0.21260931 0.37596630 -0.28299882
v -0.21531003 0.37596630 -0.28299882
v -0.19237889 0.36076911 -0.24416324
v 0.00962527 0.23166849 0.04443554
v -0.22113660 0.36759728 -0.32261347
v -0.22523770 0.36714409 -0.32284719
v -0.22948884 0.36721960 -0.32273034
v -0.22523770 0.38140467 -0.32296406
v -0.00610395 0.23719750 0.01600024
v -0.22948884 0.36845835 -0.32273034
v -0.22911374 0.38335340 -0.32230187
v -0.23716589 0.38397278 -0.31501775
v -0.23734094 0.38401810 -0.31073299
v -0.23714089 0.38359513 -0.30656508
v -0.23293976 0.38410874 -0.30543545
v -0.22688813 0.38409364 -0.30527963
v -0.02966027 0.24559673 0.03197075
v -0.00665409 0.23166849 0.06297692
v 0.00182317 0.23166849 0.03095799
v -0.18245122 0.33682522 -0.25355076
v -0.22323715 0.36064824 -0.31400499
v -0.22556277 0.36292934 -0.31782233
v -0.02135804 0.24466012 -0.00725437
v -0.01338091 0.23671408 0.00782023
v -0.02886005 0.24458460 -0.01516173
v -0.04438921 0.25247021 -0.03798787
v -0.22836353 0.36013463 -0.31486193
v -0.22973890 0.36013463 -0.31486193
v -0.23218955 0.36454575 -0.31739386
v -0.23706587 0.36700813 -0.31478403
v -0.23716589 0.38265851 -0.31501775
v 0.00042279 0.23166849 0.02865978
v -0.00400338 0.23166849 0.02234948
v -0.00490363 0.23166849 0.02114197
v -0.23939149 0.37122284 -0.31084984
v -0.23871631 0.37984870 -0.31084984
v -0.23891637 0.37947102 -0.30508488
v -0.20595753 0.36013463 -0.25312229
v -0.03046048 0.24107988 0.03317829
v -0.02713458 0.24107988 0.03703457
v -0.22133664 0.36758218 -0.27622110
v -0.00817950 0.23166849 0.06126300
v -0.12891187 0.29866605 -0.16096078
v -0.18680239 0.33635693 -0.25456355
v -0.02105796 0.23686513 0.00014660
v -0.03043547 0.23736366 -0.00686486
v -0.01053013 0.23166849 0.01541595
v -0.05911816 0.25244001 -0.04585626
v -0.20670772 0.34439361 -0.27228691
v -0.23043909 0.35972676 -0.31073299
v -0.23429012 0.36223445 -0.31073299
v -0.06044352 0.25244001 -0.04585626
v -0.03713727 0.23713706 -0.00729333
v -0.07554756 0.26017456 -0.06132039
v -0.23819117 0.36608661 -0.31073299
v -0.23984161 0.37178178 -0.30372153
v -0.02795981 0.23339063 0.03707351
v -0.02413378 0.23339063 0.04174780
v -0.02415879 0.23166849 0.04190362
v -0.02535911 0.23607960 -0.00152838
v -0.01768206 0.23166849 0.01043004
v -0.01863231 0.23166849 0.00996260
v -0.02535911 0.23320935 0.00447030
v -0.03556185 0.23713706 -0.00729333
v -0.13698903 0.29866605 -0.15414410
v -0.20715785 0.34395551 -0.26457432
v -0.23058913 0.35922824 -0.30302039
v -0.23834121 0.36638875 -0.30473431
v -0.02538412 0.23166849 0.00918356
v -0.02745967 0.23166849 0.01000156
v -0.03783746 0.23668386 -0.00320333
v -0.05196624 0.24508312 -0.01858954
v -0.03006037 0.23166849 0.03282769
v -0.03033545 0.23339063 0.03321723
v -0.02800982 0.23166849 0.03656713
v -0.13698903 0.29866605 -0.15172905
v -0.03101063 0.23166849 0.02753018
v -0.22988894 0.35945484 -0.29534677
v -0.13668896 0.29893797 -0.14662627
v -0.22928878 0.35996845 -0.29102304
v -0.20603255 0.34486190 -0.25304438
v -0.02973529 0.23166849 0.01615605
v -0.03806251 0.23639684 0.00447030
v -0.03083558 0.23166849 0.02125882
v -0.20645765 0.34442383 -0.25690069
f 1 2 6
f 1 6 15
f 1 15 32
f 1 32 51
f 1 51 75
f 1 75 92
f 1 92 108
f 1 108 106
f 1 106 110
f 1 110 117
f 1 117 115
f 1 115 103
f 1 103 102
f 1 102 95
f 1 95 94
f 1 94 80
f 1 80 67
f 1 67 66
f 1 66 65
f 1 65 52
f 1 52 37
f 1 37 19
f 1 19 8
f 1 8 3
f 1 3 4
f 1 4 5
f 1 5 2
f 2 5 7
f 2 7 6
f 3 8 9
f 3 9 4
f 4 9 10
f 4 10 5
f 5 11 7
f 5 10 12
f 5 12 11
f 6 7 13
f 6 13 14
f 6 14 15
f 7 11 16
f 7 16 17
f 7 17 18
f 7 18 13
f 8 19 9
f 9 19 20
f 9 20 21
f 9 21 10
f 10 22 41
f 10 41 23
f 10 23 24
f 10 24 25
f 10 25 26
f 10 26 27
f 10 27 12
f 10 21 28
f 10 28 42
f 10 42 22
f 11 12 29
f 11 29 16
f 12 27 16
f 12 16 29
f 13 30 14
f 13 18 30
f 14 30 15
f 15 30 31
f 15 31 32
f 16 27 33
f 16 33 34
f 16 34 17
f 17 34 35
f 17 35 18
f 18 35 36
f 18 36 30
f 19 37 20
f 20 37 28
f 20 28 21
f 22 38 39
f 22 39 40
f 22 40 41
f 22 42 38
f 23 41 40
f 23 40 43
f 23 43 44
f 23 44 24
f 24 44 45
f 24 45 25
f 25 46 47
f 25 47 48
f 25 48 49
f 25 49 27
f 25 27 26
f 25 45 46
f 27 49 33
f 28 37 42
f 30 36 48
f 30 48 47
f 30 47 31
f 31 50 51
f 31 51 32
f 31 47 50
f 33 49 34
f 34 49 35
f 35 49 48
f 35 48 36
f 37 52 42
f 38 53 54
f 38 54 55
f 38 55 39
f 38 42 56
f 38 56 57
f 38 57 58
f 38 58 59
f 38 59 53
f 39 55 60
f 39 60 61
f 39 61 40
f 40 62 63
f 40 63 64
f 40 64 45
f 40 45 43
f 40 61 62
f 42 52 65
f 42 65 66
f 42 66 67
f 42 67 56
f 43 45 44
f 45 68 69
f 45 69 46
f 45 64 68
f 46 69 70
f 46 70 47
f 47 70 71
f 47 71 50
f 50 72 73
f 50 73 51
f 50 71 74
f 50 74 72
f 51 73 75
f 53 76 77
f 53 77 54
f 53 59 78
f 53 78 79
f 53 79 76
f 54 60 55
f 54 77 60
f 56 67 57
f 57 67 80
f 57 80 58
f 58 80 59
f 59 80 78
f 60 77 76
f 60 76 81
f 60 81 85
f 60 85 61
f 61 82 83
f 61 83 84
f 61 84 63
f 61 63 62
f 61 85 86
f 61 86 87
f 61 87 82
f 63 84 88
f 63 88 68
f 63 68 64
f 68 89 69
f 68 88 89
f 69 89 70
f 70 89 74
f 70 74 71
f 72 90 91
f 72 91 75
f 72 75 73
f 72 74 89
f 72 89 90
f 75 91 92
f 76 79 81
f 78 93 79
f 78 80 94
f 78 94 93
f 79 93 94
f 79 94 95
f 79 95 96
f 79 96 97
f 79 97 81
f 81 97 86
f 81 86 85
f 82 98 83
f 82 87 98
f 83 98 99
f 83 99 100
f 83 100 84
f 84 100 101
f 84 101 88
f 86 97 96
f 86 96 102
f 86 102 103
f 86 103 104
f 86 104 87
f 87 104 105
f 87 105 98
f 88 101 89
f 89 101 106
f 89 106 107
f 89 107 90
f 90 92 91
f 90 107 108
f 90 108 92
f 95 102 96
f 98 109 99
f 98 105 110
f 98 110 109
f 99 111 100
f 99 109 112
f 99 112 111
f 100 111 101
f 101 111 113
f 101 113 114
f 101 114 106
f 103 115 104
f 104 116 105
f 104 115 117
f 104 117 116
f 105 116 117
f 105 117 110
f 106 108 107
f 106 114 118
f 106 118 112
f 106 112 110
f 109 110 112
f 111 112 118
f 111 118 114
f 111 114 113

