v -0.27621751 -0.06628536 0.11215901
v -0.29244541 -0.04770352 0.10447170
v -0.29244541 -0.04731890 0.10069096
v -0.29244541 -0.04714745 0.09920634
v -0.29244541 -0.04270356 0.09046219
v -0.27621751 -0.06434377 0.10874941
v -0.27621751 -0.06603513 0.11984001
v -0.27731674 -0.06500641 0.11984001
v -0.28116085 -0.06046058 0.11984001
v -0.28398994 -0.05614181 0.12753361
v -0.29244541 -0.04672577 0.11227223
v -0.29244541 -0.04196677 0.08948713
v -0.27621751 -0.06362552 0.10771145
v -0.27621751 -0.06380624 0.12546395
v -0.27637636 -0.06372746 0.12540733
v -0.28326400 -0.05529381 0.13181132
v -0.28723997 -0.05112332 0.12753361
v -0.29046934 -0.04708721 0.12277781
v -0.29244541 -0.04407982 0.11991550
v -0.29244541 -0.03943668 0.08683243
v -0.27621751 -0.06173026 0.10706978
v -0.29244541 -0.03748582 0.08484455
v -0.29244541 -0.03569714 0.08374366
v -0.29244541 -0.03437185 0.08309572
v -0.29001345 -0.03307437 0.08463067
v -0.27621751 -0.06359771 0.12582882
v -0.27621751 -0.06140589 0.12947115
v -0.27855893 -0.05658666 0.13471136
v -0.27621751 -0.05553940 0.13847953
v -0.27621751 -0.05432533 0.13966219
v -0.28077008 -0.05252738 0.13693828
v -0.28301620 -0.04740232 0.13914635
v -0.28433464 -0.05042823 0.13471136
v -0.28981171 -0.04408909 0.12775380
v -0.29128900 -0.04196214 0.12533814
v -0.29244541 -0.04385740 0.12006020
v -0.27621751 -0.05385267 0.10454719
v -0.28310992 -0.03910768 0.09308544
v -0.29244541 -0.02940434 0.08173063
v -0.28239193 -0.03398261 0.09236200
v -0.27621751 -0.05794902 0.13493782
v -0.27621751 -0.05087772 0.14226028
v -0.27855893 -0.05042823 0.14070016
v -0.27621751 -0.04714745 0.14443685
v -0.27621751 -0.04448297 0.14548742
v -0.27836831 -0.04304183 0.14381409
v -0.28330689 -0.04343572 0.13943573
v -0.28625352 -0.04343572 0.13522090
v -0.29244541 -0.03574811 0.12350124
v -0.27621751 -0.03538667 0.09966557
v -0.29244541 -0.02806051 0.08167401
v -0.28239193 -0.03040989 0.09236200
v -0.27621751 -0.03300949 0.09959008
v -0.27621751 -0.04105390 0.14593407
v -0.28334819 -0.03867209 0.13947346
v -0.28918586 -0.03574811 0.12911888
v -0.29244541 -0.03317631 0.12241294
v -0.29244541 -0.02249060 0.08377512
v -0.29032956 -0.02385295 0.08488229
v -0.27621751 -0.03104936 0.09974735
v -0.27621751 -0.04049320 0.14593407
v -0.28198686 -0.03354239 0.13815869
v -0.28510823 -0.03596591 0.13544739
v -0.27621751 -0.03863965 0.14566985
v -0.27865582 -0.03648953 0.14252447
v -0.29092682 -0.03144324 0.12414919
v -0.29244541 -0.02885754 0.11997842
v -0.29244541 -0.02009488 0.08909080
v -0.27621751 -0.02343590 0.10658540
v -0.28339743 -0.02528482 0.09359499
v -0.27621751 -0.02690668 0.10275432
v -0.27621751 -0.03536814 0.14409088
v -0.27686083 -0.03087791 0.14045481
v -0.28413925 -0.03076670 0.13303173
v -0.29244541 -0.02465925 0.11624800
v -0.29244541 -0.01894568 0.09631260
v -0.27621751 -0.02255083 0.11215901
v -0.27621751 -0.03074353 0.14075049
v -0.29132235 -0.02376954 0.11668206
v -0.29244541 -0.02328762 0.11478224
v -0.29244541 -0.01973807 0.10447170
v -0.28677455 -0.02013195 0.10447170
v -0.27908630 -0.02184185 0.11215901
v -0.27621751 -0.02330615 0.12017972
v -0.27621751 -0.02407074 0.12424984
v -0.27750100 -0.02408928 0.12409886
v -0.28262703 -0.02424220 0.12363962
v -0.28677455 -0.02319031 0.11839944
v -0.29244541 -0.02225890 0.11200174
v -0.28677455 -0.02120701 0.11215901
v -0.27967404 -0.02313470 0.12058231
f 1 2 3
f 1 3 4
f 1 4 5
f 1 5 6
f 1 6 13
f 1 13 21
f 1 21 37
f 1 37 50
f 1 50 53
f 1 53 60
f 1 60 71
f 1 71 69
f 1 69 77
f 1 77 84
f 1 84 85
f 1 85 78
f 1 78 72
f 1 72 64
f 1 64 61
f 1 61 54
f 1 54 45
f 1 45 44
f 1 44 42
f 1 42 30
f 1 30 29
f 1 29 41
f 1 41 27
f 1 27 26
f 1 26 14
f 1 14 7
f 1 7 8
f 1 8 2
f 2 8 9
f 2 9 10
f 2 10 11
f 2 11 19
f 2 19 36
f 2 36 49
f 2 49 57
f 2 57 67
f 2 67 75
f 2 75 80
f 2 80 89
f 2 89 81
f 2 81 76
f 2 76 68
f 2 68 58
f 2 58 51
f 2 51 39
f 2 39 24
f 2 24 23
f 2 23 22
f 2 22 20
f 2 20 12
f 2 12 5
f 2 5 4
f 2 4 3
f 5 12 13
f 5 13 6
f 7 14 15
f 7 15 16
f 7 16 10
f 7 10 8
f 8 10 9
f 10 16 17
f 10 17 11
f 11 17 18
f 11 18 19
f 12 20 13
f 13 20 22
f 13 22 23
f 13 23 24
f 13 24 25
f 13 25 21
f 14 26 16
f 14 16 15
f 16 27 28
f 16 28 29
f 16 29 30
f 16 30 31
f 16 31 32
f 16 32 33
f 16 33 17
f 16 26 27
f 17 33 34
f 17 34 18
f 18 34 19
f 19 34 35
f 19 35 36
f 21 25 38
f 21 38 37
f 24 39 25
f 25 39 40
f 25 40 38
f 27 41 28
f 28 41 29
f 30 32 31
f 30 42 43
f 30 43 32
f 32 43 42
f 32 42 44
f 32 44 45
f 32 45 46
f 32 46 47
f 32 47 48
f 32 48 33
f 33 48 34
f 34 48 35
f 35 49 36
f 35 48 49
f 37 38 40
f 37 40 50
f 39 51 40
f 40 52 53
f 40 53 50
f 40 51 52
f 45 54 46
f 46 54 47
f 47 54 55
f 47 55 48
f 48 56 49
f 48 55 56
f 49 56 57
f 51 58 59
f 51 59 52
f 52 59 60
f 52 60 53
f 54 61 55
f 55 62 63
f 55 63 56
f 55 61 64
f 55 64 65
f 55 65 62
f 56 63 66
f 56 66 57
f 57 66 67
f 58 68 69
f 58 69 59
f 59 70 60
f 59 69 70
f 60 70 71
f 62 65 72
f 62 72 73
f 62 73 74
f 62 74 66
f 62 66 63
f 64 72 65
f 66 74 67
f 67 74 75
f 68 76 69
f 69 71 70
f 69 76 77
f 72 78 73
f 73 78 79
f 73 79 74
f 74 79 80
f 74 80 75
f 76 81 82
f 76 82 77
f 77 82 83
f 77 83 84
f 78 85 86
f 78 86 87
f 78 87 79
f 79 87 88
f 79 88 80
f 80 88 89
f 81 89 88
f 81 88 90
f 81 90 82
f 82 90 83
f 83 90 84
f 84 91 85
f 84 90 91
f 85 91 86
f 86 91 87
f 87 91 90
f 87 90 88

