v -0.10223468 -0.26385250 -0.07832344
v -0.10461267 -0.26385250 -0.07829634
v -0.07257792 -0.22972525 -0.06759920
v -0.09831924 -0.26385250 -0.07806600
v -0.10931120 -0.26385250 -0.07685334
v -0.11774556 -0.22972525 -0.05690205
v -0.07257792 -0.22972525 -0.01556325
v -0.07257792 -0.26385250 -0.07400122
v -0.09653035 -0.26385250 -0.07788309
v -0.11249384 -0.26385250 -0.07490902
v -0.12337086 -0.24479121 -0.06207110
v -0.12947032 -0.23145900 -0.05335214
v -0.12661098 -0.22972525 -0.05379250
v -0.12474306 -0.22972525 -0.05459191
v -0.12355765 -0.22972525 -0.05499838
v -0.07257792 -0.23567146 -0.01758209
v -0.07262821 -0.22972525 -0.01551583
v -0.07257792 -0.26385250 -0.03266920
v -0.11748692 -0.26385250 -0.07074263
v -0.12422579 -0.25105144 -0.06318213
v -0.13071320 -0.23567481 -0.05427349
v -0.13212851 -0.22972525 -0.05096747
v -0.13120892 -0.22972525 -0.05154332
v -0.07257792 -0.24358527 -0.02100328
v -0.07470447 -0.22972525 -0.01445899
v -0.07542290 -0.23174296 -0.01483159
v -0.07257792 -0.25752212 -0.02863151
v -0.07916592 -0.25785283 -0.02837408
v -0.07916592 -0.26385250 -0.03239143
v -0.12204895 -0.26385250 -0.06264694
v -0.12222856 -0.26366209 -0.06247757
v -0.12336368 -0.25874143 -0.06348700
v -0.12806939 -0.25105144 -0.05889380
v -0.13141726 -0.24336480 -0.05557422
v -0.13455680 -0.23567481 -0.05125878
v -0.13730838 -0.22972525 -0.04760048
v -0.07257792 -0.24427342 -0.02132846
v -0.08054530 -0.23309253 -0.01400508
v -0.07743450 -0.22972525 -0.01343601
v -0.07894320 -0.22972525 -0.01302276
v -0.07257792 -0.24978871 -0.02430930
v -0.07499184 -0.24729663 -0.02235821
v -0.09454030 -0.22972525 -0.00973029
v -0.09454030 -0.23475948 -0.01282630
v -0.10223468 -0.22972525 -0.00912735
v -0.10223468 -0.23505013 -0.01257564
v -0.08685311 -0.25784950 -0.02817083
v -0.08685311 -0.26169448 -0.03098231
v -0.08709019 -0.26385250 -0.03262177
v -0.12245845 -0.26385250 -0.05747112
v -0.12249438 -0.26385250 -0.05701044
v -0.12934819 -0.25516702 -0.05375862
v -0.13024622 -0.25105144 -0.05504580
v -0.13751673 -0.24068900 -0.04692979
v -0.14503150 -0.22972525 -0.03855635
v -0.13826389 -0.23567481 -0.04741757
v -0.14112324 -0.22972525 -0.04377281
v -0.07257792 -0.24683898 -0.02269016
v -0.08729135 -0.22972525 -0.01086843
v -0.10991468 -0.22972525 -0.00911380
v -0.09454030 -0.25209370 -0.02432285
v -0.09454030 -0.25741523 -0.02817083
v -0.09454030 -0.26126021 -0.03137524
v -0.09454030 -0.26385250 -0.03369894
v -0.12247282 -0.26385250 -0.05688172
v -0.12934819 -0.25516702 -0.05226820
v -0.14470102 -0.23209036 -0.03394960
v -0.14466510 -0.23207367 -0.03813632
v -0.14595109 -0.22972525 -0.03573133
v -0.11760187 -0.22972525 -0.01005547
v -0.10991468 -0.23464591 -0.01263661
v -0.10223468 -0.24802488 -0.02179591
v -0.10673204 -0.24751044 -0.02215496
v -0.10223468 -0.25630281 -0.02887540
v -0.10223468 -0.26014782 -0.03281824
v -0.10164556 -0.26385250 -0.03655106
v -0.12014511 -0.26385250 -0.05110296
v -0.12204895 -0.26321780 -0.05219368
v -0.14460762 -0.23193337 -0.02989837
v -0.14592953 -0.22972525 -0.02982385
v -0.14597264 -0.22972525 -0.03394960
v -0.12426889 -0.22972525 -0.01210819
v -0.11760187 -0.23352013 -0.01325987
v -0.12270990 -0.23248122 -0.01407960
v -0.10679670 -0.25531068 -0.02969513
v -0.10223468 -0.26371219 -0.03665945
v -0.10224904 -0.26385250 -0.03682204
v -0.11806885 -0.26385250 -0.04880637
v -0.11978590 -0.26157423 -0.04707206
v -0.12988701 -0.24787121 -0.03700496
v -0.14232302 -0.23066395 -0.02477675
v -0.14585051 -0.22972525 -0.02819794
v -0.12672592 -0.22972525 -0.01344279
v -0.12783949 -0.23116170 -0.01551583
v -0.10612138 -0.26261314 -0.03776372
v -0.13298344 -0.22972525 -0.01686398
v -0.13354382 -0.22972525 -0.01719594
v -0.13883145 -0.22972525 -0.02038002
v -0.10839880 -0.26385250 -0.04090037
v -0.11582017 -0.26385250 -0.04679430
v -0.12084199 -0.25450892 -0.03823117
v -0.11465631 -0.26315766 -0.04476191
v -0.14166206 -0.22972525 -0.02287308
v -0.14392511 -0.22972525 -0.02554228
v -0.10916752 -0.26385250 -0.04145589
v -0.11125096 -0.26385250 -0.04303438
v -0.10944770 -0.26385250 -0.04166590
f 1 2 3
f 1 3 4
f 1 4 9
f 1 9 8
f 1 8 18
f 1 18 29
f 1 29 49
f 1 49 64
f 1 64 76
f 1 76 87
f 1 87 99
f 1 99 105
f 1 105 107
f 1 107 106
f 1 106 100
f 1 100 88
f 1 88 77
f 1 77 65
f 1 65 51
f 1 51 50
f 1 50 30
f 1 30 19
f 1 19 10
f 1 10 5
f 1 5 2
f 2 5 6
f 2 6 3
f 3 7 16
f 3 16 24
f 3 24 37
f 3 37 58
f 3 58 41
f 3 41 27
f 3 27 18
f 3 18 8
f 3 8 9
f 3 9 4
f 3 6 15
f 3 15 14
f 3 14 13
f 3 13 23
f 3 23 22
f 3 22 36
f 3 36 57
f 3 57 55
f 3 55 69
f 3 69 81
f 3 81 80
f 3 80 92
f 3 92 104
f 3 104 103
f 3 103 98
f 3 98 97
f 3 97 96
f 3 96 93
f 3 93 82
f 3 82 70
f 3 70 60
f 3 60 45
f 3 45 43
f 3 43 59
f 3 59 40
f 3 40 39
f 3 39 25
f 3 25 17
f 3 17 7
f 5 10 11
f 5 11 12
f 5 12 13
f 5 13 14
f 5 14 15
f 5 15 6
f 7 17 16
f 10 19 20
f 10 20 11
f 11 20 21
f 11 21 12
f 12 21 22
f 12 22 23
f 12 23 13
f 16 17 25
f 16 25 26
f 16 26 24
f 18 27 28
f 18 28 29
f 19 30 31
f 19 31 32
f 19 32 33
f 19 33 34
f 19 34 20
f 20 34 35
f 20 35 21
f 21 35 36
f 21 36 22
f 24 26 38
f 24 38 37
f 25 39 26
f 26 39 40
f 26 40 38
f 27 41 42
f 27 42 43
f 27 43 44
f 27 44 45
f 27 45 28
f 28 45 46
f 28 46 47
f 28 47 29
f 29 47 48
f 29 48 49
f 30 50 31
f 31 50 51
f 31 51 52
f 31 52 53
f 31 53 32
f 32 53 33
f 33 53 54
f 33 54 55
f 33 55 56
f 33 56 34
f 34 56 57
f 34 57 36
f 34 36 35
f 37 38 59
f 37 59 42
f 37 42 58
f 38 40 59
f 41 58 42
f 42 59 43
f 43 45 44
f 45 60 46
f 46 61 47
f 46 60 61
f 47 61 62
f 47 62 48
f 48 62 49
f 49 62 63
f 49 63 64
f 51 65 66
f 51 66 52
f 52 66 67
f 52 67 68
f 52 68 53
f 53 68 54
f 54 68 55
f 55 68 69
f 55 57 56
f 60 70 71
f 60 71 72
f 60 72 61
f 61 72 62
f 62 72 73
f 62 73 63
f 63 74 64
f 63 73 74
f 64 74 75
f 64 75 76
f 65 77 78
f 65 78 66
f 66 79 67
f 66 78 79
f 67 79 80
f 67 80 81
f 67 81 68
f 68 81 69
f 70 82 83
f 70 83 73
f 70 73 72
f 70 72 71
f 73 83 82
f 73 82 84
f 73 84 85
f 73 85 74
f 74 85 75
f 75 86 76
f 75 85 86
f 76 86 87
f 77 88 78
f 78 88 89
f 78 89 90
f 78 90 91
f 78 91 79
f 79 91 92
f 79 92 80
f 82 93 94
f 82 94 84
f 84 94 85
f 85 95 87
f 85 87 86
f 85 94 96
f 85 96 97
f 85 97 98
f 85 98 95
f 87 95 99
f 88 100 89
f 89 101 90
f 89 100 102
f 89 102 101
f 90 98 103
f 90 103 91
f 90 101 98
f 91 103 104
f 91 104 92
f 93 96 94
f 95 98 99
f 98 101 99
f 99 101 105
f 100 106 102
f 101 102 106
f 101 106 107
f 101 107 105

