v -0.14786929 -0.22677252 -0.03219806
v -0.16010019 -0.20915022 -0.02276812
v -0.15279363 -0.21789301 -0.03094349
v -0.14786929 -0.22543274 -0.03385244
v -0.14786929 -0.22671783 -0.02673862
v -0.15114315 -0.22264380 -0.02624920
v -0.16065848 -0.20973808 -0.01856325
v -0.16042270 -0.20491213 -0.02303696
v -0.15336005 -0.21260223 -0.03123990
v -0.17555345 -0.18789135 -0.00199880
v -0.17555345 -0.18597055 -0.00303968
v -0.17555345 -0.18184865 -0.00485950
v -0.14786929 -0.22362128 -0.03588595
v -0.14786929 -0.22440054 -0.02174103
v -0.15950938 -0.20848717 -0.00755475
v -0.16070997 -0.20966974 -0.01268332
v -0.17555345 -0.18827414 0.00461870
v -0.16039830 -0.19971702 -0.02288530
v -0.17451276 -0.18184865 -0.00625193
v -0.15315950 -0.20691496 -0.03077117
v -0.14786929 -0.21320376 -0.03538274
v -0.14786929 -0.22034018 -0.03614099
v -0.17555345 -0.17949035 -0.00487329
v -0.14786929 -0.22301290 -0.01894927
v -0.17351813 -0.18491101 0.01476554
v -0.17555345 -0.18616195 0.01076057
v -0.17555345 -0.18664726 0.00993338
v -0.17555345 -0.17393981 -0.00327406
v -0.14786929 -0.18184865 -0.02408473
v -0.14786929 -0.18659941 -0.02592522
v -0.14786929 -0.18927901 -0.02692474
v -0.14786929 -0.20212319 -0.03166039
v -0.14786929 -0.20547947 -0.03286671
v -0.14786929 -0.21288932 -0.03530691
v -0.17555345 -0.16968803 -0.00186094
v -0.16950982 -0.17578543 -0.00811311
v -0.14786929 -0.21833050 -0.01251788
v -0.15438449 -0.20990899 -0.00554882
v -0.17555345 -0.17768574 0.02335451
v -0.17555345 -0.18067976 0.01910828
v -0.14786929 -0.17033742 -0.01868733
v -0.17555345 -0.15694640 0.00376394
v -0.14786929 -0.21092750 -0.00306726
v -0.14789368 -0.21092065 -0.00306726
v -0.15014040 -0.20785146 -0.00043404
v -0.17495180 -0.17780195 0.02356820
v -0.17555345 -0.17076123 0.03190901
v -0.14786929 -0.15694640 -0.01206982
v -0.17555345 -0.15694640 0.03428028
v -0.14786929 -0.20483010 0.00421890
v -0.17143132 -0.17141746 0.03262590
v -0.17555345 -0.16859434 0.03428028
v -0.14786929 -0.19819950 0.01149815
v -0.14786929 -0.15694640 0.00352267
v -0.17532038 -0.15694640 0.03428028
v -0.17143132 -0.16989994 0.03428028
v -0.14786929 -0.19629922 0.01340068
v -0.16374263 -0.17253166 0.03363232
v -0.14786929 -0.15786920 0.03428028
v -0.16374263 -0.17188228 0.03428028
v -0.14786929 -0.19115196 0.01846721
v -0.14786929 -0.17229925 0.03428028
v -0.15605665 -0.17711155 0.03048211
v -0.15605665 -0.17326992 0.03396320
v -0.15605665 -0.17290079 0.03428028
v -0.14786929 -0.18556041 0.02357509
v -0.14836525 -0.18556724 0.02358199
v -0.14836525 -0.17243596 0.03428028
v -0.14786929 -0.17319472 0.03363232
v -0.14836525 -0.17323574 0.03367368
v -0.14786929 -0.17703636 0.03050969
f 1 2 3
f 1 3 4
f 1 4 13
f 1 13 22
f 1 22 21
f 1 21 34
f 1 34 33
f 1 33 32
f 1 32 31
f 1 31 30
f 1 30 29
f 1 29 41
f 1 41 48
f 1 48 54
f 1 54 59
f 1 59 62
f 1 62 69
f 1 69 71
f 1 71 66
f 1 66 61
f 1 61 57
f 1 57 53
f 1 53 50
f 1 50 43
f 1 43 37
f 1 37 24
f 1 24 14
f 1 14 5
f 1 5 6
f 1 6 7
f 1 7 2
f 2 8 9
f 2 9 3
f 2 7 10
f 2 10 11
f 2 11 12
f 2 12 8
f 3 9 13
f 3 13 4
f 5 14 15
f 5 15 16
f 5 16 6
f 6 16 7
f 7 16 17
f 7 17 10
f 8 18 9
f 8 12 19
f 8 19 18
f 9 20 21
f 9 21 22
f 9 22 13
f 9 18 20
f 10 17 27
f 10 27 26
f 10 26 40
f 10 40 39
f 10 39 47
f 10 47 52
f 10 52 49
f 10 49 42
f 10 42 35
f 10 35 28
f 10 28 23
f 10 23 12
f 10 12 11
f 12 23 19
f 14 24 15
f 15 24 25
f 15 25 26
f 15 26 27
f 15 27 16
f 16 27 17
f 18 19 23
f 18 23 28
f 18 28 20
f 20 29 30
f 20 30 31
f 20 31 32
f 20 32 33
f 20 33 34
f 20 34 21
f 20 28 35
f 20 35 36
f 20 36 29
f 24 37 38
f 24 38 25
f 25 39 40
f 25 40 26
f 25 38 39
f 29 36 35
f 29 35 42
f 29 42 41
f 37 43 44
f 37 44 45
f 37 45 46
f 37 46 38
f 38 46 39
f 39 46 47
f 41 42 48
f 42 49 55
f 42 55 54
f 42 54 48
f 43 50 44
f 44 50 45
f 45 50 47
f 45 47 46
f 47 51 52
f 47 50 53
f 47 53 51
f 49 52 56
f 49 56 60
f 49 60 65
f 49 65 68
f 49 68 62
f 49 62 59
f 49 59 55
f 51 56 52
f 51 53 56
f 53 57 58
f 53 58 56
f 54 55 59
f 56 58 60
f 57 61 60
f 57 60 58
f 60 63 64
f 60 64 65
f 60 61 63
f 61 66 67
f 61 67 63
f 62 68 69
f 63 67 64
f 64 67 65
f 65 67 66
f 65 66 70
f 65 70 68
f 66 71 70
f 68 70 69
f 69 70 71

