v -0.07505142 0.06115731 0.01967503
v -0.10117361 0.06115731 0.03727810
v -0.07505142 0.09497453 0.02039884
v -0.07505142 0.06115731 0.06109628
v -0.10483271 0.06115731 0.04041460
v -0.07505142 0.09797279 0.02148937
v -0.15302623 0.06235840 0.09217188
v -0.07505142 0.08267008 0.07796589
v -0.09142155 0.06151319 0.08442229
v -0.09157158 0.06115731 0.08428717
v -0.15322628 0.06115731 0.09199817
v -0.07539316 0.12212795 0.03135250
v -0.07505142 0.12239485 0.03120774
v -0.15901083 0.06115731 0.09981532
v -0.15192600 0.06748302 0.09339753
v -0.11435973 0.10739464 0.06910645
v -0.07505142 0.08275905 0.07803345
v -0.08999625 0.06663782 0.08616908
v -0.10493274 0.06115731 0.09971881
v -0.07540149 0.14516209 0.04668763
v -0.07505142 0.14538451 0.04641742
v -0.07505142 0.12646075 0.03388102
v -0.16000271 0.06115731 0.10445736
v -0.15317627 0.06927131 0.09852212
v -0.14524126 0.07684259 0.09194992
v -0.10749994 0.11604245 0.06798696
v -0.07505142 0.14957497 0.05064447
v -0.11545996 0.10859572 0.07370023
v -0.07505142 0.08564165 0.07960654
v -0.08206123 0.08178039 0.08612082
v -0.07923564 0.07971630 0.08127611
v -0.10590794 0.06115731 0.10074180
v -0.15722712 0.06466270 0.10445736
v -0.16019441 0.06115731 0.10964950
v -0.15338464 0.06936917 0.10445736
v -0.14599141 0.07742979 0.09677532
v -0.12018596 0.10498357 0.08139193
v -0.10860851 0.11715457 0.07370023
v -0.11245099 0.11243920 0.07370023
v -0.07505142 0.15034899 0.05200522
v -0.07505142 0.08728758 0.08046545
v -0.08108603 0.08728758 0.08684464
v -0.07505142 0.09028585 0.08185516
v -0.10544118 0.06421785 0.10106992
v -0.11653519 0.06115731 0.10848175
v -0.16003604 0.06115731 0.11016100
v -0.15280119 0.06859514 0.10904148
v -0.14576636 0.07689597 0.10260441
v -0.11635181 0.10899608 0.08139193
v -0.10518279 0.12099803 0.07370023
v -0.07505142 0.15204831 0.05833615
v -0.07505142 0.09509909 0.08303256
v -0.07644338 0.09497453 0.08419066
v -0.08029420 0.09497453 0.08706660
v -0.09037132 0.08238538 0.09313696
v -0.11884401 0.06115731 0.11001621
v -0.15839404 0.06115731 0.11420466
v -0.12335329 0.10071305 0.08908363
v -0.14372427 0.07539239 0.10773863
v -0.12234475 0.09946748 0.09363880
v -0.10038177 0.12328455 0.07952932
v -0.10822510 0.11624708 0.08139193
v -0.10134031 0.12456571 0.07370023
v -0.07505142 0.15192375 0.05880905
v -0.07505142 0.09714538 0.08333175
v -0.09023796 0.08728758 0.09320451
v -0.07505142 0.10267037 0.08369847
v -0.07615165 0.10267037 0.08448019
v -0.07999413 0.10267037 0.08688324
v -0.11850227 0.06421785 0.11004517
v -0.12148623 0.06115731 0.11165687
v -0.15538507 0.06115731 0.11651123
v -0.15425149 0.06147760 0.11690689
v -0.07614332 0.14552687 0.07038036
v -0.10699150 0.11485026 0.08588920
v -0.07760196 0.14701265 0.06602784
v -0.07505142 0.14866748 0.06616296
v -0.07505142 0.10447644 0.08368882
v -0.07505142 0.11264382 0.08325454
v -0.08041089 0.11034842 0.08648756
v -0.10503276 0.08591746 0.10113748
v -0.11920242 0.07191369 0.10930207
v -0.12799594 0.06115731 0.11459070
v -0.15440986 0.06115731 0.11707096
v -0.14835858 0.06258972 0.11752454
v -0.09616422 0.12134502 0.08465390
v -0.07505142 0.14578487 0.07052512
v -0.07505142 0.14687920 0.06930912
v -0.07505142 0.12232368 0.08186481
v -0.08154446 0.11626487 0.08588920
v -0.10615799 0.09105098 0.10054878
v -0.12046935 0.07671803 0.10864582
v -0.13428060 0.06115731 0.11677179
v -0.15047570 0.06115731 0.11793953
v -0.14835858 0.06115731 0.11822905
v -0.14291576 0.06115731 0.11826766
v -0.14067362 0.06307015 0.11733154
v -0.09103813 0.12196780 0.08529085
v -0.07505142 0.14401438 0.07176043
v -0.07505142 0.12906755 0.07999257
v -0.09778122 0.10678964 0.09306941
v -0.11128408 0.09218979 0.10117608
v -0.13467236 0.06211818 0.11664633
v -0.13569757 0.06115731 0.11716748
v -0.14067362 0.06115731 0.11802638
v -0.09003792 0.12196780 0.08529085
v -0.07505142 0.13883638 0.07531192
v -0.08722066 0.11851579 0.08644895
v -0.07505142 0.13420997 0.07783079
f 1 2 3
f 1 3 6
f 1 6 13
f 1 13 22
f 1 22 21
f 1 21 27
f 1 27 40
f 1 40 51
f 1 51 64
f 1 64 77
f 1 77 88
f 1 88 87
f 1 87 99
f 1 99 107
f 1 107 109
f 1 109 100
f 1 100 89
f 1 89 79
f 1 79 78
f 1 78 67
f 1 67 65
f 1 65 52
f 1 52 43
f 1 43 41
f 1 41 29
f 1 29 17
f 1 17 8
f 1 8 4
f 1 4 10
f 1 10 19
f 1 19 32
f 1 32 45
f 1 45 56
f 1 56 71
f 1 71 83
f 1 83 93
f 1 93 104
f 1 104 105
f 1 105 96
f 1 96 95
f 1 95 94
f 1 94 84
f 1 84 72
f 1 72 57
f 1 57 46
f 1 46 34
f 1 34 23
f 1 23 14
f 1 14 11
f 1 11 5
f 1 5 2
f 2 5 3
f 3 5 7
f 3 7 6
f 4 8 9
f 4 9 10
f 5 11 7
f 6 12 13
f 6 7 12
f 7 11 14
f 7 14 15
f 7 15 16
f 7 16 12
f 8 17 9
f 9 17 18
f 9 18 19
f 9 19 10
f 12 16 20
f 12 20 21
f 12 21 22
f 12 22 13
f 14 23 24
f 14 24 25
f 14 25 15
f 15 25 16
f 16 26 27
f 16 27 20
f 16 25 28
f 16 28 26
f 17 29 30
f 17 30 31
f 17 31 18
f 18 31 30
f 18 30 19
f 19 30 32
f 20 27 21
f 23 33 24
f 23 34 33
f 24 33 35
f 24 35 36
f 24 36 37
f 24 37 38
f 24 38 39
f 24 39 28
f 24 28 25
f 26 40 27
f 26 28 40
f 28 39 40
f 29 41 30
f 30 42 32
f 30 41 43
f 30 43 42
f 32 44 45
f 32 42 44
f 33 34 35
f 34 46 47
f 34 47 35
f 35 47 48
f 35 48 49
f 35 49 50
f 35 50 36
f 36 50 37
f 37 50 38
f 38 50 51
f 38 51 40
f 38 40 39
f 42 43 52
f 42 52 53
f 42 53 54
f 42 54 55
f 42 55 44
f 44 55 45
f 45 55 56
f 46 57 47
f 47 58 48
f 47 57 59
f 47 59 60
f 47 60 61
f 47 61 62
f 47 62 58
f 48 58 49
f 49 63 50
f 49 58 63
f 50 63 51
f 51 63 64
f 52 65 53
f 53 65 54
f 54 66 55
f 54 65 67
f 54 67 68
f 54 68 69
f 54 69 66
f 55 66 70
f 55 70 56
f 56 70 71
f 57 72 59
f 58 62 63
f 59 72 73
f 59 73 74
f 59 74 75
f 59 75 60
f 60 75 61
f 61 75 74
f 61 74 76
f 61 76 62
f 62 76 64
f 62 64 63
f 64 76 77
f 66 69 70
f 67 78 68
f 68 78 79
f 68 79 69
f 69 79 80
f 69 80 70
f 70 81 82
f 70 82 83
f 70 83 71
f 70 80 81
f 72 84 73
f 73 84 85
f 73 85 86
f 73 86 74
f 74 87 88
f 74 88 76
f 74 86 87
f 76 88 77
f 79 89 80
f 80 89 90
f 80 90 81
f 81 91 82
f 81 90 91
f 82 92 93
f 82 93 83
f 82 91 92
f 84 94 85
f 85 94 95
f 85 95 96
f 85 96 97
f 85 97 98
f 85 98 86
f 86 98 87
f 87 98 99
f 89 100 90
f 90 100 91
f 91 101 102
f 91 102 92
f 91 100 101
f 92 97 103
f 92 103 93
f 92 102 97
f 93 103 104
f 96 105 97
f 97 105 103
f 97 102 106
f 97 106 98
f 98 106 107
f 98 107 99
f 100 108 101
f 100 109 108
f 101 108 106
f 101 106 102
f 103 105 104
f 106 108 109
f 106 109 107

