v -0.02535748 0.23166849 0.00922719
v -0.02556834 0.20316875 0.02237804
v -0.02743520 0.23166849 0.01003909
v -0.01859974 0.23166849 0.00997772
v -0.01764316 0.20316875 0.02180688
v -0.02622148 0.20316875 0.02269430
v -0.03093236 0.20316875 0.02657914
v -0.03141064 0.20316875 0.02723999
v -0.02972892 0.23166849 0.01618495
v -0.01766888 0.23166849 0.01044031
v -0.01300943 0.20316875 0.02322298
v -0.03432151 0.20316875 0.03525984
v -0.03080893 0.23166849 0.02127820
v -0.01052028 0.23166849 0.01545331
v -0.00489397 0.23166849 0.02114604
v -0.00966656 0.20316875 0.02753265
v -0.03422894 0.20316875 0.03566579
v -0.03003236 0.23166849 0.03285247
v -0.03099407 0.23166849 0.02757514
v -0.00397854 0.23166849 0.02237332
v 0.01703526 0.22166735 0.05434888
v -0.00912141 0.20316875 0.02823599
v -0.03197122 0.20316875 0.04313809
v -0.02798549 0.23166849 0.03660042
v 0.00043920 0.23166849 0.02870329
v 0.01703526 0.22224483 0.05434888
v 0.01821812 0.21939095 0.05745015
v -0.00701798 0.20316875 0.03525984
v 0.01597069 0.21557740 0.05745015
v 0.01218038 0.21263983 0.05745015
v -0.02885463 0.20316875 0.04666890
v -0.01403800 0.23005603 0.05484452
v -0.02413347 0.23166849 0.04192024
v 0.00182263 0.23166849 0.03098794
v 0.01029809 0.23106869 0.04504983
v 0.01649526 0.22737233 0.05608125
v 0.01785298 0.22441523 0.05745015
v 0.01821812 0.21953043 0.05745015
v -0.00703341 0.20316875 0.03626055
v -0.00965628 0.20316875 0.04296816
v -0.00941456 0.20316875 0.04241588
v 0.01146552 0.21253383 0.05745015
v -0.01603859 0.20316875 0.04804251
v -0.01336429 0.20316875 0.04703237
v -0.02515691 0.20316875 0.04811332
v -0.00873055 0.21857636 0.05745015
v -0.01187286 0.22597467 0.05745015
v -0.01189857 0.22628154 0.05745015
v -0.01174942 0.23166849 0.05651080
v -0.01515915 0.23166849 0.05252212
v 0.00965009 0.23166849 0.04447394
v 0.01086895 0.23166849 0.04746191
v 0.01487525 0.23025409 0.05745015
v 0.01741583 0.22613090 0.05745015
v 0.01237581 0.23166849 0.05148365
v 0.01390839 0.23166849 0.05745015
v 0.00542264 0.21171365 0.05745015
v -0.02484833 0.20316875 0.04816997
v 0.00448149 0.21161881 0.05745015
v -0.00136595 0.21302760 0.05745015
v -0.00516654 0.21484092 0.05745015
v -0.00593283 0.21535702 0.05745015
v -0.01063342 0.23166849 0.05745015
f 1 2 3
f 1 3 9
f 1 9 13
f 1 13 19
f 1 19 18
f 1 18 24
f 1 24 33
f 1 33 50
f 1 50 49
f 1 49 63
f 1 63 56
f 1 56 55
f 1 55 52
f 1 52 51
f 1 51 34
f 1 34 25
f 1 25 20
f 1 20 15
f 1 15 14
f 1 14 10
f 1 10 4
f 1 4 5
f 1 5 2
f 2 6 3
f 2 5 11
f 2 11 16
f 2 16 22
f 2 22 28
f 2 28 39
f 2 39 41
f 2 41 40
f 2 40 44
f 2 44 43
f 2 43 58
f 2 58 45
f 2 45 31
f 2 31 23
f 2 23 17
f 2 17 12
f 2 12 8
f 2 8 7
f 2 7 6
f 3 6 7
f 3 7 8
f 3 8 9
f 4 10 11
f 4 11 5
f 8 12 9
f 9 12 13
f 10 14 11
f 11 14 15
f 11 15 16
f 12 17 18
f 12 18 19
f 12 19 13
f 15 20 21
f 15 21 22
f 15 22 16
f 17 23 18
f 18 23 24
f 20 25 21
f 21 25 26
f 21 26 38
f 21 38 27
f 21 27 22
f 22 27 29
f 22 29 30
f 22 30 28
f 23 31 32
f 23 32 33
f 23 33 24
f 25 34 26
f 26 35 36
f 26 36 37
f 26 37 38
f 26 34 35
f 27 38 37
f 27 37 54
f 27 54 53
f 27 53 56
f 27 56 63
f 27 63 48
f 27 48 47
f 27 47 46
f 27 46 62
f 27 62 61
f 27 61 60
f 27 60 59
f 27 59 57
f 27 57 42
f 27 42 30
f 27 30 29
f 28 30 39
f 30 40 41
f 30 41 39
f 30 42 43
f 30 43 44
f 30 44 40
f 31 45 46
f 31 46 47
f 31 47 48
f 31 48 32
f 32 48 49
f 32 49 50
f 32 50 33
f 34 51 35
f 35 52 36
f 35 51 52
f 36 53 54
f 36 54 37
f 36 52 55
f 36 55 56
f 36 56 53
f 42 57 43
f 43 57 59
f 43 59 58
f 45 58 60
f 45 60 61
f 45 61 62
f 45 62 46
f 48 63 49
f 58 59 60

