v -0.01297703 -0.03152476 -0.06814532
v -0.04345708 -0.03152476 -0.05257721
v -0.03929779 -0.01267263 -0.05426832
v -0.01325120 0.01451689 -0.06477555
v -0.01297703 0.01425380 -0.06492476
v -0.01297703 -0.03152476 -0.02310722
v -0.04862556 -0.03152476 -0.04898361
v -0.04313040 -0.01267263 -0.05229121
v -0.01636046 0.02576648 -0.06233837
v -0.01700798 0.01807321 -0.06267410
v -0.01297703 0.03345067 -0.06318392
v -0.01297703 -0.03107114 -0.02294557
v -0.02887332 -0.02501996 -0.00664382
v -0.01353121 -0.03152476 -0.02262227
v -0.05192149 -0.03152476 -0.04668321
v -0.04822305 -0.01267263 -0.04843649
v -0.04730719 -0.00497937 -0.04786450
v -0.04214454 -0.00497937 -0.05170679
v -0.01529876 0.03459377 -0.06192802
v -0.01545627 0.03345067 -0.06200264
v -0.01328037 0.03459377 -0.06288549
v -0.01297703 0.04054517 -0.06217672
v -0.01297703 -0.02756925 -0.02191350
v -0.06834280 0.06115731 0.05505664
v -0.07257209 0.06115731 0.05887407
v -0.05939421 -0.03152476 0.01638506
v -0.05262151 -0.03152476 -0.04609879
v -0.05206733 -0.01267263 -0.04527810
v -0.02830747 0.06115731 -0.04705624
v -0.02283565 0.06115731 -0.05142079
v -0.05115730 -0.00497937 -0.04433307
v -0.02100976 0.06115731 -0.05275130
v -0.01459874 0.03966516 -0.06150525
v -0.01998890 0.06115731 -0.05342276
v -0.01297703 0.04406520 -0.06133116
v -0.01297703 0.05272012 0.00030713
v -0.01352538 0.05210321 0.00091642
v -0.06764278 0.06115731 0.05441004
v -0.07257209 0.06115731 0.01736739
v -0.07257209 -0.01753535 0.03128170
v -0.07257209 -0.03152476 0.02576074
v -0.07257209 -0.03152476 -0.01141870
v -0.07257209 -0.00613154 -0.02096847
v -0.07257209 -0.00497937 -0.02119229
v -0.07257209 0.00270483 -0.01996126
v -0.02956751 0.06115731 -0.04581279
v -0.01444707 0.06115731 -0.05605889
v -0.01297703 0.06115731 -0.05641950
v -0.01297703 0.05741047 0.00064286
v -0.04411626 0.06115731 0.03199048
v -0.05186315 0.06115731 -0.01701427
v -0.07257209 0.01108758 -0.01682775
v -0.07257209 0.00943643 -0.01749922
v -0.03344679 0.06115731 -0.04167207
v -0.01297703 0.06115731 0.00059312
v -0.04873056 0.06115731 -0.02190106
v -0.04506713 0.06115731 -0.02689977
v -0.03979947 0.06115731 -0.03397505
f 1 2 3
f 1 3 4
f 1 4 5
f 1 5 11
f 1 11 22
f 1 22 35
f 1 35 48
f 1 48 55
f 1 55 49
f 1 49 36
f 1 36 23
f 1 23 12
f 1 12 6
f 1 6 14
f 1 14 26
f 1 26 41
f 1 41 42
f 1 42 27
f 1 27 15
f 1 15 7
f 1 7 2
f 2 7 8
f 2 8 3
f 3 8 9
f 3 9 10
f 3 10 4
f 4 10 9
f 4 9 5
f 5 9 11
f 6 12 13
f 6 13 14
f 7 15 8
f 8 15 16
f 8 16 17
f 8 17 18
f 8 18 19
f 8 19 20
f 8 20 9
f 9 20 11
f 11 20 19
f 11 19 21
f 11 21 22
f 12 23 24
f 12 24 13
f 13 24 25
f 13 25 26
f 13 26 14
f 15 27 28
f 15 28 16
f 16 28 17
f 17 29 30
f 17 30 18
f 17 28 31
f 17 31 29
f 18 30 32
f 18 32 33
f 18 33 19
f 19 22 21
f 19 33 22
f 22 33 34
f 22 34 35
f 23 36 37
f 23 37 38
f 23 38 24
f 24 38 50
f 24 50 55
f 24 55 48
f 24 48 47
f 24 47 34
f 24 34 32
f 24 32 30
f 24 30 29
f 24 29 46
f 24 46 54
f 24 54 58
f 24 58 57
f 24 57 56
f 24 56 51
f 24 51 39
f 24 39 25
f 25 39 52
f 25 52 53
f 25 53 45
f 25 45 44
f 25 44 43
f 25 43 42
f 25 42 41
f 25 41 40
f 25 40 26
f 26 40 41
f 27 42 43
f 27 43 44
f 27 44 28
f 28 44 45
f 28 45 31
f 29 31 46
f 31 45 46
f 32 34 33
f 34 47 35
f 35 47 48
f 36 49 37
f 37 49 50
f 37 50 38
f 39 51 52
f 45 53 54
f 45 54 46
f 49 55 50
f 51 56 52
f 52 56 57
f 52 57 58
f 52 58 54
f 52 54 53

