v 0.13319088 0.17956101 0.24369693
v 0.13350786 0.17756266 0.24369693
v 0.13845016 0.17348272 0.24803501
v 0.13447050 0.17956101 0.24483289
v 0.13929539 0.18417325 0.24732343
v 0.13732317 0.18623402 0.24369693
v 0.13481093 0.17143086 0.24369693
v 0.14692602 0.17478522 0.25486363
v 0.14311071 0.17956101 0.25200443
v 0.13830928 0.17956101 0.24815934
v 0.13530399 0.17068148 0.24369693
v 0.14029324 0.16835604 0.24650897
v 0.17040489 0.16767803 0.27008546
v 0.16900787 0.17187097 0.27114854
v 0.14211286 0.18929994 0.24488863
v 0.14747778 0.18363203 0.25457213
v 0.17161405 0.19031694 0.26896666
v 0.13945974 0.18816398 0.24369693
v 0.16425342 0.17956101 0.26879520
v 0.16809222 0.17956101 0.27181728
v 0.13820362 0.16714276 0.24369693
v 0.17495977 0.16492139 0.27124287
v 0.18147517 0.16492139 0.27561953
v 0.17918596 0.16921841 0.27703411
v 0.17487760 0.17181744 0.27522515
v 0.17762463 0.17434213 0.27793429
v 0.14724298 0.19130719 0.24709196
v 0.14325158 0.19080165 0.24369693
v 0.16917224 0.18519026 0.27097708
v 0.17477195 0.18716480 0.27357050
v 0.17673243 0.19201196 0.27103711
v 0.17360973 0.17956101 0.27566237
v 0.17792985 0.18401563 0.27780999
v 0.13943627 0.16621198 0.24369693
v 0.14115023 0.16492139 0.24369693
v 0.18284867 0.16492139 0.27651970
v 0.18431611 0.16644988 0.27851728
v 0.18196821 0.17181744 0.27959323
v 0.19020930 0.17201370 0.28366124
v 0.19292110 0.17467518 0.28543590
v 0.18228517 0.17956101 0.28095637
v 0.17744852 0.17956101 0.27807148
v 0.14508294 0.19200899 0.24369693
v 0.16871440 0.19213686 0.26384412
v 0.18228517 0.18956459 0.27640395
v 0.17433759 0.19322821 0.26621892
v 0.18674615 0.19100387 0.27735561
v 0.18228517 0.19272863 0.27255886
v 0.18930535 0.17956101 0.28420994
v 0.19381330 0.18340305 0.28516586
v 0.18228517 0.18571957 0.27909169
v 0.20869889 0.16492139 0.24369693
v 0.18799054 0.16492139 0.27919457
v 0.19535116 0.16954849 0.28471574
v 0.19314415 0.17956101 0.28536732
v 0.19781643 0.17201370 0.28601461
v 0.20534142 0.17187097 0.28732632
v 0.19765209 0.17956101 0.28622894
v 0.16644870 0.19340663 0.25876017
v 0.15152788 0.19388837 0.24369693
v 0.18228517 0.19499757 0.26594458
v 0.17459584 0.19530089 0.25825863
v 0.19765209 0.18373908 0.28538019
v 0.19187630 0.19128638 0.27777999
v 0.18957537 0.19257103 0.27432924
v 0.20534142 0.17956101 0.28691907
v 0.23609872 0.16492139 0.24374838
v 0.19200541 0.18591584 0.24369693
v 0.19105453 0.16492139 0.28044627
v 0.20048129 0.16751448 0.28544877
v 0.20534142 0.16652720 0.28590315
v 0.21303073 0.16553397 0.28613464
v 0.21303073 0.17187097 0.28748493
v 0.16690654 0.19526223 0.25056842
v 0.15914675 0.19493512 0.24369693
v 0.19765209 0.19244612 0.27363053
v 0.18997450 0.19454854 0.26594458
v 0.18228517 0.19501839 0.25825863
v 0.20534142 0.18389965 0.28549594
v 0.19765209 0.18758409 0.28166795
v 0.19765209 0.19130124 0.27782286
v 0.21269031 0.17983161 0.28634040
v 0.20989631 0.18361716 0.28532016
v 0.24256714 0.16492139 0.24409559
v 0.19015058 0.18716480 0.24369693
v 0.18378781 0.19042994 0.24369693
v 0.19807471 0.16492139 0.28305253
v 0.20534142 0.16492139 0.28497295
v 0.21303073 0.16492139 0.28586457
v 0.22072006 0.16492139 0.28563739
v 0.22072006 0.16572727 0.28591602
v 0.22595586 0.16679781 0.28557736
v 0.22072006 0.17187097 0.28649899
v 0.22072006 0.17703036 0.28574882
v 0.16690654 0.19459018 0.24369693
v 0.20186653 0.19117635 0.27763424
v 0.20322832 0.19154509 0.27363053
v 0.18997450 0.19370103 0.25825863
v 0.19765209 0.19309737 0.26594458
v 0.17459584 0.19474481 0.25056842
v 0.21502643 0.18257338 0.28459573
v 0.21269031 0.18559468 0.28174940
v 0.24296627 0.16492139 0.24412131
v 0.18601831 0.19105740 0.24680047
v 0.19459984 0.19133991 0.25380054
v 0.24547851 0.16736579 0.24821076
v 0.24829596 0.16492139 0.24635893
v 0.17768332 0.19217850 0.24369693
v 0.22396015 0.16492139 0.28519157
v 0.22562713 0.17187097 0.28548307
v 0.22778721 0.16492139 0.28454857
v 0.23609872 0.16492139 0.28142361
v 0.22459408 0.17573384 0.28517870
v 0.17481889 0.19287136 0.24369693
v 0.22072006 0.18449143 0.27907882
v 0.21303073 0.18891038 0.27363053
v 0.20707885 0.19059349 0.27363053
v 0.20355702 0.19165809 0.26594458
v 0.20228917 0.19132801 0.26131500
v 0.19735861 0.19192870 0.25855442
v 0.18997450 0.19194654 0.25209017
v 0.22072006 0.18087242 0.28292394
v 0.19972997 0.19030505 0.25618821
v 0.22423015 0.18327815 0.26257958
v 0.24829596 0.16846903 0.25333759
v 0.25173563 0.16492139 0.25005830
v 0.22947767 0.17187097 0.28374698
v 0.23680307 0.16492139 0.28107640
v 0.24071231 0.16907271 0.27817007
v 0.23605175 0.17173120 0.27983328
v 0.23345734 0.17664974 0.27853870
v 0.22471147 0.18348632 0.27761708
v 0.20739582 0.19046265 0.26594458
v 0.22072006 0.18597829 0.27363053
v 0.22556845 0.18387290 0.26770209
v 0.21303073 0.18837214 0.26594458
v 0.22128355 0.18508617 0.26546449
v 0.22824505 0.18210651 0.26546449
v 0.23994925 0.17571896 0.26209088
v 0.24885946 0.16898350 0.25825863
v 0.25192345 0.16492139 0.25067130
v 0.24145189 0.16492139 0.27855586
v 0.24585418 0.16492139 0.27398632
v 0.24855424 0.16492139 0.27086991
v 0.24769727 0.16809435 0.26987112
v 0.23858747 0.17419939 0.27524657
v 0.24012533 0.17585277 0.27011975
v 0.23605175 0.17741696 0.27306040
v 0.22927810 0.18157718 0.27363053
v 0.22542757 0.18381640 0.27363053
v 0.23609872 0.17813957 0.26594458
v 0.24009011 0.17582304 0.26594458
v 0.24840162 0.16870396 0.26594458
v 0.25269825 0.16531095 0.25825863
v 0.25310913 0.16492139 0.25746991
v 0.25124256 0.16492139 0.26559737
v 0.25306219 0.16492139 0.25825863
f 1 2 3
f 1 3 4
f 1 4 5
f 1 5 6
f 1 6 18
f 1 18 28
f 1 28 43
f 1 43 60
f 1 60 75
f 1 75 95
f 1 95 114
f 1 114 108
f 1 108 86
f 1 86 85
f 1 85 68
f 1 68 52
f 1 52 35
f 1 35 34
f 1 34 21
f 1 21 11
f 1 11 7
f 1 7 2
f 2 7 3
f 3 8 9
f 3 9 10
f 3 10 4
f 3 7 11
f 3 11 12
f 3 12 13
f 3 13 14
f 3 14 8
f 4 10 5
f 5 15 6
f 5 10 16
f 5 16 17
f 5 17 15
f 6 15 18
f 8 19 9
f 8 14 20
f 8 20 19
f 9 16 10
f 9 19 16
f 11 21 12
f 12 21 22
f 12 22 13
f 13 22 23
f 13 23 24
f 13 24 14
f 14 24 25
f 14 25 26
f 14 26 20
f 15 27 28
f 15 28 18
f 15 17 27
f 16 19 20
f 16 20 29
f 16 29 17
f 17 29 30
f 17 30 31
f 17 31 27
f 20 26 32
f 20 32 33
f 20 33 29
f 21 34 22
f 22 34 35
f 22 35 52
f 22 52 67
f 22 67 84
f 22 84 103
f 22 103 107
f 22 107 126
f 22 126 141
f 22 141 155
f 22 155 157
f 22 157 156
f 22 156 144
f 22 144 143
f 22 143 142
f 22 142 128
f 22 128 112
f 22 112 111
f 22 111 109
f 22 109 90
f 22 90 89
f 22 89 88
f 22 88 87
f 22 87 69
f 22 69 53
f 22 53 36
f 22 36 23
f 23 36 24
f 24 36 37
f 24 37 38
f 24 38 26
f 24 26 25
f 26 38 39
f 26 39 40
f 26 40 41
f 26 41 42
f 26 42 32
f 27 43 28
f 27 31 44
f 27 44 43
f 29 33 30
f 30 33 45
f 30 45 31
f 31 46 44
f 31 45 47
f 31 47 48
f 31 48 46
f 32 42 33
f 33 42 41
f 33 41 49
f 33 49 50
f 33 50 51
f 33 51 45
f 36 53 37
f 37 39 38
f 37 53 54
f 37 54 39
f 39 54 40
f 40 55 49
f 40 49 41
f 40 54 56
f 40 56 57
f 40 57 58
f 40 58 55
f 43 59 60
f 43 44 46
f 43 46 59
f 45 51 47
f 46 48 61
f 46 61 62
f 46 62 59
f 47 51 50
f 47 50 63
f 47 63 64
f 47 64 48
f 48 64 65
f 48 65 61
f 49 55 50
f 50 55 58
f 50 58 66
f 50 66 63
f 52 68 67
f 53 69 54
f 54 70 56
f 54 69 70
f 56 70 57
f 57 66 58
f 57 70 71
f 57 71 72
f 57 72 73
f 57 73 66
f 59 62 60
f 60 62 74
f 60 74 75
f 61 65 76
f 61 76 77
f 61 77 78
f 61 78 62
f 62 78 74
f 63 66 79
f 63 79 80
f 63 80 64
f 64 80 81
f 64 81 65
f 65 81 76
f 66 73 82
f 66 82 83
f 66 83 79
f 67 68 85
f 67 85 86
f 67 86 84
f 69 87 70
f 70 88 71
f 70 87 88
f 71 89 72
f 71 88 89
f 72 89 90
f 72 90 91
f 72 91 73
f 73 91 92
f 73 92 93
f 73 93 94
f 73 94 82
f 74 78 95
f 74 95 75
f 76 81 96
f 76 96 97
f 76 97 77
f 77 98 78
f 77 97 99
f 77 99 98
f 78 98 100
f 78 100 95
f 79 96 81
f 79 81 80
f 79 83 96
f 82 94 83
f 83 94 101
f 83 101 102
f 83 102 96
f 84 86 103
f 86 104 105
f 86 105 106
f 86 106 107
f 86 107 103
f 86 108 104
f 90 109 92
f 90 92 91
f 92 110 93
f 92 109 111
f 92 111 112
f 92 112 110
f 93 110 113
f 93 113 94
f 94 113 101
f 95 100 98
f 95 98 114
f 96 102 115
f 96 115 116
f 96 116 117
f 96 117 97
f 97 118 99
f 97 117 118
f 98 99 119
f 98 119 120
f 98 120 105
f 98 105 121
f 98 121 114
f 99 118 119
f 101 122 115
f 101 115 102
f 101 113 122
f 104 108 105
f 105 108 121
f 105 120 119
f 105 119 123
f 105 123 124
f 105 124 106
f 106 124 125
f 106 125 107
f 107 125 126
f 108 114 121
f 110 112 127
f 110 127 113
f 112 128 127
f 113 127 129
f 113 129 130
f 113 130 131
f 113 131 122
f 115 122 132
f 115 132 116
f 116 133 118
f 116 118 117
f 116 132 134
f 116 134 135
f 116 135 133
f 118 133 119
f 119 133 136
f 119 136 124
f 119 124 123
f 122 131 132
f 124 137 135
f 124 135 138
f 124 138 139
f 124 139 125
f 124 136 137
f 125 139 140
f 125 140 141
f 125 141 126
f 127 128 142
f 127 142 129
f 129 142 143
f 129 143 144
f 129 144 145
f 129 145 146
f 129 146 131
f 129 131 130
f 131 146 147
f 131 147 148
f 131 148 132
f 132 148 147
f 132 147 149
f 132 149 150
f 132 150 134
f 133 135 136
f 134 150 135
f 135 137 136
f 135 150 147
f 135 147 151
f 135 151 139
f 135 139 138
f 139 151 152
f 139 152 140
f 140 153 154
f 140 154 155
f 140 155 141
f 140 152 147
f 140 147 153
f 144 156 145
f 145 156 153
f 145 153 147
f 145 147 146
f 147 152 151
f 147 150 149
f 153 156 157
f 153 157 154
f 154 157 155

