v 0.38902813 -0.03574563 0.09677231
v 0.38852076 -0.02806066 0.09677231
v 0.38762906 -0.02806066 0.10446020
v 0.38699871 -0.03500577 0.10424320
v 0.38659897 -0.04061437 0.10153073
v 0.38719858 -0.04327945 0.09629182
v 0.38805954 -0.04343060 0.08908442
v 0.38882827 -0.03574563 0.08908442
v 0.38684499 -0.02183949 0.09677231
v 0.38599940 -0.01666845 0.10303423
v 0.38604552 -0.01651729 0.10816464
v 0.38604552 -0.01651729 0.10831964
v 0.38722938 -0.02821977 0.08931692
v 0.38630687 -0.02037569 0.10878463
v 0.38632227 -0.02806066 0.10880014
v 0.38606091 -0.03195088 0.10833515
v 0.38433899 -0.04574564 0.09853929
v 0.38624538 -0.04757539 0.09342436
v 0.38409301 -0.03707419 0.10666116
v 0.37897336 -0.04004158 0.10870714
v 0.38164848 -0.04288963 0.10393321
v 0.38649140 -0.04811636 0.08908442
v 0.38644525 -0.04809250 0.08286902
v 0.38684499 -0.04339878 0.08074555
v 0.38607626 -0.04081326 0.07747511
v 0.38607626 -0.03946083 0.07747511
v 0.38684499 -0.03643775 0.08155154
v 0.38644525 -0.03089280 0.08421750
v 0.38504620 -0.01799701 0.09677231
v 0.38636842 -0.02347036 0.09202938
v 0.38014182 -0.00641386 0.10446020
v 0.37818929 -0.00136215 0.10974561
v 0.37846602 -0.00095642 0.11487604
v 0.37846602 -0.00095642 0.11644152
v 0.37931161 -0.00498984 0.11796049
v 0.37780493 -0.00498984 0.12180443
v 0.38043392 -0.01268276 0.11895249
v 0.38420061 -0.02037569 0.11262857
v 0.38035706 -0.02037569 0.11799148
v 0.37941924 -0.02616726 0.11689100
v 0.37755894 -0.03129058 0.11569754
v 0.38180223 -0.03500577 0.10991611
v 0.37921937 -0.04779019 0.10118975
v 0.38194061 -0.04919831 0.09629182
v 0.37968060 -0.05607978 0.08745695
v 0.38058768 -0.05709808 0.08139655
v 0.37451483 -0.04075757 0.10937362
v 0.37243932 -0.03264301 0.11659653
v 0.38473873 -0.05084509 0.08074555
v 0.38333965 -0.05112353 0.07369315
v 0.38601477 -0.04594452 0.07775410
v 0.38453886 -0.04339878 0.07443714
v 0.38035706 -0.04343060 0.06702826
v 0.37944999 -0.03775040 0.06837673
v 0.38516921 -0.03433752 0.07910258
v 0.38493860 -0.02576949 0.08691446
v 0.37917323 -0.00794927 0.09953127
v 0.37183972 0.00812871 0.11345007
v 0.37148613 0.00895608 0.11450405
v 0.37222408 0.00895608 0.11823950
v 0.37251618 0.00895608 0.11982046
v 0.37120937 0.00895608 0.12752387
v 0.37153224 0.00821622 0.12752387
v 0.37073277 0.00676833 0.13147629
v 0.37085578 0.00269513 0.13158481
v 0.37084038 -0.00178379 0.13155379
v 0.37742056 -0.01268276 0.12279642
v 0.37357701 -0.01268276 0.12598939
v 0.37223945 -0.01871300 0.12470290
v 0.37480693 -0.02846638 0.11833248
v 0.37473007 -0.05258733 0.09622982
v 0.37743596 -0.05479099 0.09258738
v 0.37451483 -0.04460006 0.10563817
v 0.37451483 -0.04828343 0.10179424
v 0.37439185 -0.06097239 0.08144304
v 0.37174748 -0.06316013 0.07890107
v 0.37245469 -0.06367724 0.07369315
v 0.37629824 -0.06106785 0.07369315
v 0.38028020 -0.05722536 0.07369315
v 0.36682770 -0.04072575 0.10940462
v 0.36682770 -0.03269869 0.11665852
v 0.36682770 -0.03654118 0.11324855
v 0.36682770 -0.02391586 0.12352492
v 0.36682770 -0.02806066 0.12034746
v 0.37926549 -0.05623889 0.06809775
v 0.38021868 -0.05112353 0.06681126
v 0.37788179 -0.05112353 0.06298281
v 0.37745131 -0.04343060 0.06319981
v 0.37754357 -0.03262709 0.07045370
v 0.38004956 -0.03053481 0.07558413
v 0.37222408 -0.03800498 0.06076635
v 0.37963445 -0.01526829 0.09176589
v 0.37065591 0.00653762 0.10831964
v 0.36884175 0.00895608 0.11017961
v 0.36862649 0.00895608 0.13369277
v 0.36375288 0.00895608 0.13983068
v 0.36355301 0.00540795 0.13956717
v 0.35912523 0.00377708 0.14055917
v 0.36441397 -0.00986653 0.13198779
v 0.36682770 -0.02006542 0.12567938
v 0.37231631 -0.05525241 0.09331586
v 0.37473007 -0.05702647 0.08964242
v 0.36682770 -0.04457619 0.10523519
v 0.36954896 -0.05525241 0.09331586
v 0.36682770 -0.06170428 0.08356651
v 0.36682770 -0.06367724 0.07972257
v 0.36682770 -0.06560246 0.07369315
v 0.36682770 -0.06604797 0.06602078
v 0.37185509 -0.06348631 0.06602078
v 0.37096338 -0.06289761 0.06180484
v 0.36230769 -0.04000180 0.10875364
v 0.36238455 -0.03222137 0.11628653
v 0.35912523 -0.02355787 0.12299791
v 0.35143810 0.00889244 0.14541059
v 0.35143810 0.00284629 0.14156665
v 0.34375097 0.00895608 0.14589109
v 0.35912523 -0.01971539 0.12595837
v 0.37248544 -0.05880850 0.06003786
v 0.37057902 -0.05305671 0.05458194
v 0.37337714 -0.05074166 0.05761989
v 0.37070203 -0.04720944 0.05445795
v 0.37303892 -0.04416250 0.05825538
v 0.36914923 -0.03287371 0.06333931
v 0.36888787 -0.04208613 0.05563592
v 0.34923958 -0.04522058 0.03778020
v 0.34092210 -0.04604794 0.03061930
v 0.29404599 -0.04704238 -0.00723113
v 0.34710255 -0.04008931 0.03950066
v 0.28994108 -0.04596044 -0.00853312
v 0.28176198 -0.04492623 -0.01243906
v 0.25571800 0.00895608 0.04619657
v 0.35872549 0.00895608 0.14288413
v 0.35149959 0.00895608 0.14542610
v 0.36293803 -0.04730491 0.10064725
v 0.36682770 -0.04791748 0.10139124
v 0.36441397 -0.05454438 0.09243237
v 0.35912523 -0.06070190 0.08282252
v 0.36691996 -0.05745607 0.08954942
v 0.36691996 -0.05214979 0.09622982
v 0.35912523 -0.06349427 0.07897858
v 0.35912523 -0.06606388 0.07369315
v 0.35912523 -0.06822776 0.06602078
v 0.34833247 -0.07051893 0.05371396
v 0.35912523 -0.06768679 0.05833289
v 0.36653560 -0.06421026 0.05887538
v 0.36376822 -0.06328742 0.05368295
v 0.36927223 -0.05880850 0.05619392
v 0.34730242 -0.00902325 0.13153830
v 0.33560261 0.00895608 0.14331811
v 0.33501838 0.00895608 0.14302364
v 0.34736391 -0.01672413 0.12386591
v 0.34548826 -0.05642982 0.07910258
v 0.35419007 -0.05566609 0.08596898
v 0.35471279 -0.06291351 0.07792459
v 0.34375097 0.00827191 0.14537959
v 0.34375097 0.00361001 0.14153563
v 0.35143810 0.00895608 0.14544158
v 0.37070203 -0.04792543 0.05445795
v 0.36542865 -0.05880850 0.05214848
v 0.36143135 -0.05880850 0.04830453
v 0.35758777 -0.05880850 0.04484809
v 0.34118346 -0.05751971 0.03038681
v 0.36246144 -0.05112353 0.04723505
v 0.36753494 -0.05074166 0.05174549
v 0.35402095 -0.05112353 0.04018266
v 0.35017740 -0.05112353 0.03702070
v 0.34547289 -0.05112353 0.03317676
v 0.34162931 -0.05112353 0.03004581
v 0.29467634 -0.05112353 -0.00774263
v 0.28864964 -0.05221343 -0.01243906
v 0.28801929 -0.05090873 -0.01243906
v 0.28360688 -0.04662870 -0.01243906
v 0.27456682 -0.04287372 -0.01243906
v 0.25149005 0.00895608 0.04405760
v 0.25242790 0.00895608 0.04452259
v 0.35186858 -0.06437732 0.07367766
v 0.35143810 -0.06790954 0.06602078
v 0.34654906 -0.07051893 0.05523293
v 0.34833247 -0.07051893 0.05523293
v 0.33277374 -0.07049507 0.03853969
v 0.35111522 -0.06860166 0.05093950
v 0.27456682 -0.07230891 -0.00318570
v 0.28254605 -0.07151336 -0.00329419
v 0.35883310 -0.06466372 0.05092400
v 0.35608112 -0.06330334 0.04613457
v 0.31292558 0.00895608 0.12780285
v 0.33789336 -0.00239636 0.13279378
v 0.31882930 0.00007779 0.12228493
v 0.34957780 -0.06155313 0.07621962
v 0.30142564 -0.00119508 0.10833515
v 0.33220488 -0.06267485 0.06219232
v 0.34608784 -0.06354995 0.07108919
v 0.33990739 -0.06264303 0.03142529
v 0.32371831 -0.06052688 0.01680901
v 0.29409213 -0.06295329 -0.00727764
v 0.32467150 -0.05540356 0.01592552
v 0.32467150 -0.05452051 0.01592552
v 0.28889562 -0.05809251 -0.01243906
v 0.26697195 -0.04239640 -0.01243906
v 0.24653956 0.00895608 0.04309661
v 0.33606384 -0.06676395 0.05833289
v 0.32697766 -0.06985863 0.04512708
v 0.34388932 -0.06917446 0.05800739
v 0.33209728 -0.07036778 0.04687856
v 0.27481280 -0.07131448 0.00453319
v 0.28225395 -0.07194296 0.00451768
v 0.28017841 -0.07099626 -0.00850212
v 0.30125652 -0.07027231 0.00860962
v 0.32989876 -0.06959609 0.03340926
v 0.26949332 -0.07082125 0.00199123
v 0.26810964 -0.07115537 -0.00318570
v 0.26338973 -0.06993818 -0.01243906
v 0.26830951 -0.07083714 -0.01087358
v 0.26887834 -0.07066213 -0.01243906
v 0.27238367 -0.07085306 -0.01243906
v 0.27395184 -0.07112355 -0.01098208
v 0.35085387 -0.06444096 0.04332910
v 0.29827393 -0.06913468 0.00403719
v 0.30236347 -0.06347040 -0.00007025
v 0.24111244 0.00895608 0.07364666
v 0.26687969 -0.06411479 0.00994260
v 0.27241442 -0.06971543 0.00710615
v 0.32913003 -0.06404319 0.05789889
v 0.28994108 -0.06448870 -0.00890511
v 0.28246919 -0.06664462 -0.01243906
v 0.28723522 -0.06232481 -0.01243906
v 0.28872650 -0.05904717 -0.01243906
v 0.29470708 -0.05880850 -0.00777363
v 0.29855066 -0.05880850 -0.00468916
v 0.30328592 -0.05880850 -0.00082973
v 0.28889562 -0.05829139 -0.01243906
v 0.25917719 -0.04347038 -0.01243906
v 0.24378755 0.00895608 0.04325161
v 0.28640500 -0.07028027 0.01583252
v 0.32906854 -0.06836301 0.04993202
v 0.27753404 -0.07058258 0.00890413
v 0.27284490 -0.07085306 -0.01243906
v 0.27707281 -0.06992227 -0.01243906
v 0.28529806 -0.06993023 -0.00592915
v 0.29309279 -0.07015298 0.00116973
v 0.26691043 -0.06798114 0.00453319
v 0.26426606 -0.06969952 -0.00318570
v 0.25762439 -0.06799706 -0.01243906
v 0.28294579 -0.06720150 -0.01146258
v 0.23586984 0.00895608 0.06859373
v 0.26302076 -0.06266690 0.00836163
v 0.27988631 -0.06827549 -0.01243906
v 0.25208966 -0.04606386 -0.01243906
v 0.23983639 0.00895608 0.04433660
v 0.26195994 -0.06401932 0.00451768
v 0.25049074 -0.06384430 -0.01243906
v 0.25113646 -0.06425003 -0.01243906
v 0.23471677 0.00895608 0.06650126
v 0.25087511 -0.04660483 -0.01243906
v 0.23863719 0.00895608 0.04511158
v 0.24863047 -0.06110762 -0.01243906
v 0.23196477 0.00895608 0.05833289
v 0.24803087 -0.05112353 -0.01243906
v 0.23471677 0.00895608 0.05004050
v 0.24775411 -0.05880850 -0.01243906
v 0.23245674 0.00895608 0.05647292
f 1 2 3
f 1 3 4
f 1 4 5
f 1 5 6
f 1 6 7
f 1 7 8
f 1 8 2
f 2 9 10
f 2 10 11
f 2 11 12
f 2 12 3
f 2 8 13
f 2 13 9
f 3 12 14
f 3 14 15
f 3 15 4
f 4 15 16
f 4 16 5
f 5 17 18
f 5 18 6
f 5 16 19
f 5 19 20
f 5 20 21
f 5 21 17
f 6 18 7
f 7 22 23
f 7 23 24
f 7 24 8
f 7 18 22
f 8 24 25
f 8 25 26
f 8 26 27
f 8 27 28
f 8 28 13
f 9 29 10
f 9 13 30
f 9 30 29
f 10 29 31
f 10 31 32
f 10 32 33
f 10 33 11
f 11 33 34
f 11 34 12
f 12 34 35
f 12 35 36
f 12 36 37
f 12 37 14
f 13 28 30
f 14 37 38
f 14 38 15
f 15 38 37
f 15 37 39
f 15 39 16
f 16 39 40
f 16 40 41
f 16 41 42
f 16 42 19
f 17 21 43
f 17 43 44
f 17 44 18
f 18 44 45
f 18 45 46
f 18 46 22
f 19 42 20
f 20 47 43
f 20 43 21
f 20 42 41
f 20 41 48
f 20 48 47
f 22 46 49
f 22 49 23
f 23 49 50
f 23 50 51
f 23 51 24
f 24 51 25
f 25 52 26
f 25 51 52
f 26 52 53
f 26 53 54
f 26 54 55
f 26 55 28
f 26 28 27
f 28 55 56
f 28 56 30
f 29 57 31
f 29 30 57
f 30 56 57
f 31 57 58
f 31 58 32
f 32 58 59
f 32 59 60
f 32 60 61
f 32 61 33
f 33 61 34
f 34 61 62
f 34 62 63
f 34 63 64
f 34 64 35
f 35 64 36
f 36 64 37
f 37 64 65
f 37 65 66
f 37 66 67
f 37 67 39
f 39 67 68
f 39 68 40
f 40 68 69
f 40 69 41
f 41 69 70
f 41 70 48
f 43 71 72
f 43 72 44
f 43 47 73
f 43 73 74
f 43 74 71
f 44 72 45
f 45 72 75
f 45 75 46
f 46 75 76
f 46 76 77
f 46 77 78
f 46 78 79
f 46 79 49
f 47 80 73
f 47 48 81
f 47 81 82
f 47 82 80
f 48 70 83
f 48 83 84
f 48 84 81
f 49 79 50
f 50 79 85
f 50 85 86
f 50 86 51
f 51 86 52
f 52 86 53
f 53 86 87
f 53 87 88
f 53 88 54
f 54 89 90
f 54 90 55
f 54 88 91
f 54 91 89
f 55 90 56
f 56 92 57
f 56 90 92
f 57 93 58
f 57 92 89
f 57 89 93
f 58 93 59
f 59 93 94
f 59 94 131
f 59 131 175
f 59 175 174
f 59 174 200
f 59 200 233
f 59 233 249
f 59 249 255
f 59 255 259
f 59 259 261
f 59 261 257
f 59 257 253
f 59 253 245
f 59 245 220
f 59 220 186
f 59 186 150
f 59 150 149
f 59 149 116
f 59 116 157
f 59 157 133
f 59 133 132
f 59 132 96
f 59 96 95
f 59 95 62
f 59 62 61
f 59 61 60
f 62 95 64
f 62 64 63
f 64 95 96
f 64 96 65
f 65 96 66
f 66 96 97
f 66 97 68
f 66 68 67
f 68 97 69
f 69 97 98
f 69 98 99
f 69 99 100
f 69 100 83
f 69 83 70
f 71 74 101
f 71 101 72
f 72 101 102
f 72 102 76
f 72 76 75
f 73 80 74
f 74 80 103
f 74 103 104
f 74 104 101
f 76 102 105
f 76 105 106
f 76 106 107
f 76 107 77
f 77 107 108
f 77 108 109
f 77 109 78
f 78 109 79
f 79 109 110
f 79 110 85
f 80 111 103
f 80 82 112
f 80 112 111
f 81 112 82
f 81 84 113
f 81 113 112
f 83 100 99
f 83 99 114
f 83 114 115
f 83 115 116
f 83 116 117
f 83 117 84
f 84 117 113
f 85 110 118
f 85 118 87
f 85 87 86
f 87 118 119
f 87 119 120
f 87 120 121
f 87 121 88
f 88 121 122
f 88 122 91
f 89 123 93
f 89 92 90
f 89 91 123
f 91 122 121
f 91 121 124
f 91 124 125
f 91 125 126
f 91 126 127
f 91 127 128
f 91 128 123
f 93 123 127
f 93 127 129
f 93 129 94
f 94 129 130
f 94 130 131
f 96 132 97
f 97 132 98
f 98 132 133
f 98 133 99
f 99 133 114
f 101 104 105
f 101 105 102
f 103 111 134
f 103 134 135
f 103 135 104
f 104 136 137
f 104 137 138
f 104 138 105
f 104 135 139
f 104 139 136
f 105 140 106
f 105 138 140
f 106 140 141
f 106 141 107
f 107 141 142
f 107 142 108
f 108 142 143
f 108 143 144
f 108 144 110
f 108 110 109
f 110 144 145
f 110 145 146
f 110 146 147
f 110 147 118
f 111 112 148
f 111 148 149
f 111 149 150
f 111 150 151
f 111 151 152
f 111 152 153
f 111 153 154
f 111 154 134
f 112 113 148
f 113 117 155
f 113 155 156
f 113 156 149
f 113 149 148
f 114 133 157
f 114 157 116
f 114 116 115
f 116 149 155
f 116 155 117
f 118 147 119
f 119 158 120
f 119 147 159
f 119 159 160
f 119 160 161
f 119 161 162
f 119 162 163
f 119 163 164
f 119 164 158
f 120 158 121
f 121 158 163
f 121 163 165
f 121 165 166
f 121 166 167
f 121 167 168
f 121 168 126
f 121 126 125
f 121 125 124
f 123 128 127
f 126 168 169
f 126 169 127
f 127 169 170
f 127 170 171
f 127 171 172
f 127 172 130
f 127 130 129
f 130 172 171
f 130 171 170
f 130 170 198
f 130 198 231
f 130 231 227
f 130 227 226
f 130 226 225
f 130 225 247
f 130 247 238
f 130 238 237
f 130 237 215
f 130 215 214
f 130 214 212
f 130 212 243
f 130 243 252
f 130 252 251
f 130 251 256
f 130 256 260
f 130 260 258
f 130 258 254
f 130 254 248
f 130 248 232
f 130 232 199
f 130 199 173
f 130 173 174
f 130 174 175
f 130 175 131
f 134 154 137
f 134 137 136
f 134 136 135
f 135 136 139
f 137 154 140
f 137 140 138
f 140 154 176
f 140 176 141
f 141 176 177
f 141 177 142
f 142 177 178
f 142 178 179
f 142 179 143
f 143 180 181
f 143 181 144
f 143 179 182
f 143 182 183
f 143 183 180
f 144 181 145
f 145 181 184
f 145 184 146
f 146 184 185
f 146 185 159
f 146 159 147
f 149 156 155
f 150 186 187
f 150 187 151
f 151 187 186
f 151 186 188
f 151 188 152
f 152 189 153
f 152 188 190
f 152 190 191
f 152 191 189
f 153 189 154
f 154 189 192
f 154 192 176
f 158 164 163
f 159 185 160
f 160 185 161
f 161 185 193
f 161 193 162
f 162 193 194
f 162 194 195
f 162 195 196
f 162 196 163
f 163 196 165
f 165 196 197
f 165 197 166
f 166 197 167
f 167 197 168
f 168 197 169
f 169 198 170
f 169 197 198
f 173 199 200
f 173 200 174
f 176 192 201
f 176 201 177
f 177 201 202
f 177 202 203
f 177 203 178
f 178 203 204
f 178 204 205
f 178 205 206
f 178 206 182
f 178 182 179
f 180 183 207
f 180 207 208
f 180 208 209
f 180 209 181
f 181 209 184
f 182 206 205
f 182 205 210
f 182 210 211
f 182 211 212
f 182 212 213
f 182 213 214
f 182 214 215
f 182 215 216
f 182 216 207
f 182 207 183
f 184 209 208
f 184 208 217
f 184 217 185
f 185 217 218
f 185 218 219
f 185 219 193
f 186 190 188
f 186 220 190
f 189 191 192
f 190 220 191
f 191 221 222
f 191 222 223
f 191 223 192
f 191 220 221
f 192 223 222
f 192 222 201
f 193 219 194
f 194 219 195
f 195 219 224
f 195 224 225
f 195 225 226
f 195 226 227
f 195 227 228
f 195 228 229
f 195 229 230
f 195 230 196
f 196 230 229
f 196 229 228
f 196 228 231
f 196 231 198
f 196 198 197
f 199 232 233
f 199 233 200
f 201 222 234
f 201 234 235
f 201 235 202
f 202 204 203
f 202 235 234
f 202 234 236
f 202 236 204
f 204 236 205
f 205 236 210
f 207 216 237
f 207 237 238
f 207 238 239
f 207 239 240
f 207 240 208
f 208 240 218
f 208 218 217
f 210 236 222
f 210 222 241
f 210 241 242
f 210 242 211
f 211 242 243
f 211 243 212
f 212 214 213
f 215 237 216
f 218 240 239
f 218 239 219
f 219 239 244
f 219 244 224
f 220 245 246
f 220 246 221
f 221 246 241
f 221 241 222
f 222 236 234
f 224 244 225
f 225 244 247
f 227 231 228
f 232 248 249
f 232 249 233
f 238 247 239
f 239 247 244
f 241 250 251
f 241 251 242
f 241 246 250
f 242 251 252
f 242 252 243
f 245 253 251
f 245 251 246
f 246 251 250
f 248 254 249
f 249 254 255
f 251 253 256
f 253 257 256
f 254 258 255
f 255 258 259
f 256 257 260
f 257 261 258
f 257 258 260
f 258 261 259

