v -0.00342895 0.15344350 0.01235715
v -0.00379333 0.15344350 0.01989076
v -0.00489332 0.15344350 0.00451280
v -0.00701768 0.20316389 0.03525492
v -0.00703830 0.20316389 0.03625618
v -0.00526457 0.15344350 0.02589142
v -0.00560144 0.15344350 0.00257934
v -0.00912830 0.20316389 0.02823920
v -0.00721705 0.17955705 0.03525492
v -0.00941704 0.20316389 0.04241566
v -0.00916267 0.18724752 0.04294735
v -0.00977454 0.17955705 0.04294735
v -0.00681143 0.15649536 0.03004147
v -0.00719643 0.15344350 0.02973764
v -0.00646081 0.15344350 0.00098422
v -0.01301952 0.20316389 0.02322599
v -0.00966454 0.20316389 0.04296807
v -0.01225639 0.18724752 0.04817462
v -0.01295764 0.17955705 0.04756006
v -0.01130077 0.15344350 0.03486823
v -0.00821392 0.15344350 -0.00012751
v -0.00996704 0.15344350 -0.00117712
v -0.01765323 0.20316389 0.02181042
v -0.01337014 0.20316389 0.04702835
v -0.01765323 0.18724752 0.05081242
v -0.04496743 0.15344350 0.06475410
v -0.04026496 0.15344350 0.06206105
v -0.02788316 0.16418096 0.05539060
v -0.02869441 0.15903613 0.05490032
v -0.02967753 0.15390590 0.05399573
v -0.01374139 0.17559012 0.04684882
v -0.01450450 0.15344350 0.03838299
v -0.01492388 0.15344350 -0.00249601
v -0.01764636 0.15344350 -0.00283436
v -0.02557318 0.20316389 0.02238355
v -0.01604449 0.20316389 0.04804342
v -0.04865928 0.15344350 0.06593489
v -0.03500562 0.15344350 0.05831841
v -0.03011065 0.15344350 0.05423051
v -0.02977378 0.15344350 0.05390597
v -0.02591693 0.15344350 0.05002523
v -0.02210821 0.15344350 0.04617901
v -0.01833386 0.15344350 0.04231207
v -0.01507513 0.15344350 0.03896993
v -0.02199821 0.15344350 -0.00163976
v -0.03237939 0.16398626 0.00717822
v -0.03450375 0.16641509 0.00911859
v -0.03731561 0.16128974 0.00795161
v -0.02622630 0.20316389 0.02269429
v -0.02485819 0.20316389 0.04816082
v -0.06071107 0.15344350 0.06770263
v -0.05609110 0.15344350 0.06732975
v -0.05219988 0.15344350 0.06694996
v -0.02325632 0.15344350 -0.00096995
v -0.04134433 0.15344350 0.01221214
v -0.04787553 0.15344350 0.01973195
v -0.06940102 0.15344350 0.04492916
v -0.04388118 0.16418096 0.01681793
v -0.03965996 0.16398626 0.01188759
v -0.03865622 0.16989041 0.01424228
v -0.02967065 0.20017045 0.02337792
v -0.03745310 0.15344350 0.00782731
v -0.03094252 0.20316389 0.02658195
v -0.02516756 0.20316389 0.04810557
v -0.06361230 0.15344350 0.06729522
v -0.07245350 0.15344350 0.05086077
v -0.06907102 0.15454353 0.04523299
v -0.05310050 0.16940855 0.03036602
v -0.04584742 0.16989041 0.02209354
v -0.03141002 0.20316389 0.02724484
v -0.02885941 0.20316389 0.04666237
v -0.06797790 0.15344350 0.06556201
v -0.07366349 0.15344350 0.05814578
v -0.03431812 0.20316389 0.03525492
v -0.05959733 0.16740317 0.04053743
v -0.03197376 0.20316389 0.04313380
v -0.07021913 0.15344350 0.06447099
v -0.07173163 0.15344350 0.06177104
v -0.03422875 0.20316389 0.03566234
v -0.06973789 0.15420768 0.06396000
f 1 2 6
f 1 6 14
f 1 14 20
f 1 20 32
f 1 32 44
f 1 44 43
f 1 43 42
f 1 42 41
f 1 41 40
f 1 40 39
f 1 39 38
f 1 38 27
f 1 27 26
f 1 26 37
f 1 37 53
f 1 53 52
f 1 52 51
f 1 51 65
f 1 65 72
f 1 72 77
f 1 77 78
f 1 78 73
f 1 73 66
f 1 66 57
f 1 57 56
f 1 56 55
f 1 55 62
f 1 62 54
f 1 54 45
f 1 45 34
f 1 34 33
f 1 33 22
f 1 22 21
f 1 21 15
f 1 15 7
f 1 7 3
f 1 3 4
f 1 4 5
f 1 5 2
f 2 5 6
f 3 7 8
f 3 8 4
f 4 8 16
f 4 16 23
f 4 23 35
f 4 35 49
f 4 49 63
f 4 63 70
f 4 70 74
f 4 74 79
f 4 79 76
f 4 76 71
f 4 71 64
f 4 64 50
f 4 50 36
f 4 36 24
f 4 24 17
f 4 17 10
f 4 10 5
f 5 9 6
f 5 10 11
f 5 11 9
f 6 9 11
f 6 11 12
f 6 12 13
f 6 13 14
f 7 15 8
f 8 15 16
f 10 17 11
f 11 17 18
f 11 18 12
f 12 14 13
f 12 18 19
f 12 19 14
f 14 19 20
f 15 21 16
f 16 21 22
f 16 22 23
f 17 24 18
f 18 24 25
f 18 25 26
f 18 26 27
f 18 27 28
f 18 28 19
f 19 28 29
f 19 29 30
f 19 30 31
f 19 31 20
f 20 31 32
f 22 33 23
f 23 33 34
f 23 34 35
f 24 36 25
f 25 36 26
f 26 36 37
f 27 38 28
f 28 38 29
f 29 39 30
f 29 38 39
f 30 39 40
f 30 40 31
f 31 40 41
f 31 41 42
f 31 42 43
f 31 43 44
f 31 44 32
f 34 45 35
f 35 45 46
f 35 46 47
f 35 47 48
f 35 48 49
f 36 50 51
f 36 51 52
f 36 52 53
f 36 53 37
f 45 54 48
f 45 48 46
f 46 48 47
f 48 55 56
f 48 56 57
f 48 57 58
f 48 58 59
f 48 59 60
f 48 60 61
f 48 61 49
f 48 54 62
f 48 62 55
f 49 61 63
f 50 64 65
f 50 65 51
f 57 66 67
f 57 67 68
f 57 68 58
f 58 68 69
f 58 69 59
f 59 69 60
f 60 69 63
f 60 63 61
f 63 69 68
f 63 68 70
f 64 71 65
f 65 71 72
f 66 73 74
f 66 74 75
f 66 75 67
f 67 75 68
f 68 75 70
f 70 75 74
f 71 76 77
f 71 77 72
f 73 78 76
f 73 76 79
f 73 79 74
f 76 78 80
f 76 80 77
f 77 80 78

