v -0.07257792 -0.26385250 -0.03266865
v -0.07916476 -0.26385250 -0.03239757
v -0.07257792 -0.27137906 -0.03700593
v -0.07257792 -0.26385250 -0.07400528
v -0.08709046 -0.26385250 -0.03262452
v -0.07916476 -0.27136888 -0.03698702
v -0.07257792 -0.27522211 -0.03979239
v -0.07257792 -0.27526966 -0.08129924
v -0.08217476 -0.27721834 -0.09247028
v -0.08766216 -0.27558538 -0.09679496
v -0.09307138 -0.27100223 -0.09679496
v -0.09624753 -0.26955937 -0.09679496
v -0.10222357 -0.26868689 -0.09679496
v -0.09653094 -0.26385250 -0.07788867
v -0.09454218 -0.26385250 -0.03370253
v -0.08529227 -0.27092075 -0.03730853
v -0.07916476 -0.27521194 -0.03993738
v -0.07257792 -0.28022964 -0.04363795
v -0.07257792 -0.28180829 -0.08532762
v -0.08075283 -0.28180829 -0.09372481
v -0.08380681 -0.28180829 -0.09679496
v -0.10946518 -0.26924027 -0.09679496
v -0.10460812 -0.26385250 -0.07829214
v -0.10222357 -0.26385250 -0.07831735
v -0.09831447 -0.26385250 -0.07806519
v -0.10163720 -0.26385250 -0.03655203
v -0.09454218 -0.26554656 -0.03522184
v -0.09041808 -0.27018406 -0.03789483
v -0.08552682 -0.27899051 -0.04449532
v -0.07916476 -0.27986978 -0.04378295
v -0.07257792 -0.28407270 -0.04705483
v -0.07257792 -0.28901913 -0.08682802
v -0.08367977 -0.28343787 -0.09679496
v -0.07257792 -0.28949782 -0.08690367
v -0.11099461 -0.26962727 -0.09679496
v -0.11748861 -0.26385250 -0.07073970
v -0.11249473 -0.26385250 -0.07491308
v -0.10931370 -0.26385250 -0.07685478
v -0.10224311 -0.26385250 -0.03682311
v -0.09454218 -0.26938962 -0.03875850
v -0.09065263 -0.27794148 -0.04550400
v -0.08445670 -0.28624548 -0.05243861
v -0.07916476 -0.28706703 -0.05152451
v -0.07916476 -0.28371284 -0.04767894
v -0.07257792 -0.28771209 -0.05090039
v -0.08414397 -0.28949782 -0.09679496
v -0.07648213 -0.28949782 -0.09048446
v -0.08032771 -0.28949782 -0.09390764
v -0.07257792 -0.29050271 -0.08639303
v -0.11509428 -0.27322250 -0.09679496
v -0.12205249 -0.26385250 -0.06265772
v -0.10839506 -0.26385250 -0.04090193
v -0.10269755 -0.26789248 -0.04158279
v -0.10044981 -0.27149788 -0.04410446
v -0.09454218 -0.27693996 -0.04673961
v -0.09454218 -0.28005312 -0.05058518
v -0.08958251 -0.28513532 -0.05377510
v -0.08331329 -0.29346649 -0.06069712
v -0.07916476 -0.29091012 -0.05618331
v -0.07257792 -0.28826544 -0.05156863
v -0.08469125 -0.29041785 -0.09679496
v -0.08161283 -0.29431862 -0.09272245
v -0.07371644 -0.29448838 -0.08540327
v -0.07257792 -0.29509945 -0.08300768
v -0.11618395 -0.27467553 -0.09679496
v -0.12246294 -0.26385250 -0.05747567
v -0.11746418 -0.28160460 -0.09679496
v -0.10945052 -0.26385250 -0.04166473
v -0.10558051 -0.26992944 -0.04585703
v -0.10259493 -0.27431908 -0.04905956
v -0.09960936 -0.27870193 -0.05226210
v -0.08843910 -0.29232239 -0.06228577
v -0.07916476 -0.29391463 -0.06002887
v -0.09200615 -0.29406059 -0.06740478
v -0.08626466 -0.29478373 -0.06478224
v -0.07916476 -0.29625034 -0.06470028
v -0.07257792 -0.29198970 -0.05612026
v -0.07257792 -0.29155515 -0.05556549
v -0.08872739 -0.29429145 -0.09679496
v -0.07909634 -0.29581579 -0.08788713
v -0.08761330 -0.29482786 -0.09535130
v -0.08945058 -0.29458683 -0.09679496
v -0.07257792 -0.29579882 -0.08153250
v -0.12249715 -0.26385250 -0.05701546
v -0.11523599 -0.28743031 -0.09679496
v -0.11125359 -0.26385250 -0.04303275
v -0.11582236 -0.26385250 -0.04679636
v -0.10851722 -0.27201391 -0.05098234
v -0.10474005 -0.27714027 -0.05429835
v -0.09839265 -0.28566155 -0.06084841
v -0.09454218 -0.28681582 -0.05938584
v -0.09455684 -0.29073357 -0.06478224
v -0.07257792 -0.29424393 -0.05941106
v -0.09713196 -0.29257022 -0.06984451
v -0.09936015 -0.29400290 -0.07496982
v -0.09455684 -0.29515717 -0.07239771
v -0.08685103 -0.29755737 -0.07239140
v -0.07257792 -0.29635217 -0.06470028
v -0.07257792 -0.29458004 -0.06008561
v -0.07916476 -0.29838575 -0.07239140
v -0.08685103 -0.29787992 -0.08776735
v -0.07257792 -0.29622658 -0.08023383
v -0.07916476 -0.29840951 -0.08007622
v -0.09578332 -0.29583955 -0.09679496
v -0.12247272 -0.26385250 -0.05688938
v -0.11492815 -0.28786824 -0.09679496
v -0.11807009 -0.26385250 -0.04880740
v -0.10739824 -0.27895316 -0.05942997
v -0.10598608 -0.28555969 -0.06868454
v -0.10700733 -0.28683620 -0.07380985
v -0.10437846 -0.29172488 -0.08007622
v -0.10664085 -0.29374149 -0.09042142
v -0.10053288 -0.29485162 -0.08007622
v -0.09454218 -0.29726882 -0.08007622
v -0.08685103 -0.29853513 -0.08007622
v -0.07257792 -0.29665772 -0.06580982
v -0.07257792 -0.29772713 -0.07239140
v -0.09454218 -0.29775430 -0.08776735
v -0.07257792 -0.29773054 -0.07349464
v -0.10220402 -0.29552042 -0.09679496
v -0.11390201 -0.27815875 -0.06815498
v -0.12014680 -0.26385250 -0.05110843
v -0.11318860 -0.28965737 -0.09679496
v -0.11252405 -0.27701124 -0.06303597
v -0.10765233 -0.29408776 -0.09545847
v -0.10259005 -0.29526921 -0.08782409
v -0.10789665 -0.29408097 -0.09679496
v -0.10341096 -0.29545593 -0.09679496
v -0.11207939 -0.29059437 -0.09679496
f 1 2 3
f 1 3 7
f 1 7 18
f 1 18 31
f 1 31 45
f 1 45 60
f 1 60 78
f 1 78 77
f 1 77 93
f 1 93 99
f 1 99 98
f 1 98 116
f 1 116 117
f 1 117 119
f 1 119 102
f 1 102 83
f 1 83 64
f 1 64 49
f 1 49 34
f 1 34 32
f 1 32 19
f 1 19 8
f 1 8 4
f 1 4 14
f 1 14 25
f 1 25 24
f 1 24 23
f 1 23 38
f 1 38 37
f 1 37 36
f 1 36 51
f 1 51 66
f 1 66 84
f 1 84 105
f 1 105 122
f 1 122 107
f 1 107 87
f 1 87 86
f 1 86 68
f 1 68 52
f 1 52 39
f 1 39 26
f 1 26 15
f 1 15 5
f 1 5 2
f 2 5 6
f 2 6 3
f 3 6 7
f 4 8 9
f 4 9 10
f 4 10 11
f 4 11 12
f 4 12 13
f 4 13 14
f 5 15 16
f 5 16 6
f 6 16 17
f 6 17 7
f 7 17 18
f 8 19 9
f 9 19 20
f 9 20 21
f 9 21 10
f 10 21 33
f 10 33 46
f 10 46 61
f 10 61 79
f 10 79 82
f 10 82 104
f 10 104 120
f 10 120 128
f 10 128 127
f 10 127 129
f 10 129 123
f 10 123 106
f 10 106 85
f 10 85 67
f 10 67 65
f 10 65 50
f 10 50 35
f 10 35 22
f 10 22 13
f 10 13 12
f 10 12 11
f 13 22 23
f 13 23 24
f 13 24 25
f 13 25 14
f 15 26 27
f 15 27 28
f 15 28 16
f 16 28 29
f 16 29 30
f 16 30 17
f 17 30 18
f 18 30 31
f 19 32 20
f 20 32 21
f 21 32 34
f 21 34 33
f 22 35 36
f 22 36 37
f 22 37 38
f 22 38 23
f 26 39 40
f 26 40 27
f 27 40 28
f 28 40 41
f 28 41 29
f 29 41 42
f 29 42 43
f 29 43 44
f 29 44 30
f 30 44 31
f 31 44 45
f 33 34 47
f 33 47 48
f 33 48 46
f 34 49 47
f 35 50 51
f 35 51 36
f 39 52 53
f 39 53 54
f 39 54 41
f 39 41 40
f 41 55 56
f 41 56 57
f 41 57 58
f 41 58 42
f 41 54 55
f 42 58 43
f 43 58 59
f 43 59 60
f 43 60 45
f 43 45 44
f 46 48 62
f 46 62 61
f 47 49 63
f 47 63 62
f 47 62 48
f 49 64 63
f 50 65 51
f 51 65 67
f 51 67 66
f 52 68 69
f 52 69 54
f 52 54 53
f 54 69 70
f 54 70 71
f 54 71 55
f 55 71 56
f 56 71 57
f 57 72 58
f 57 71 72
f 58 73 59
f 58 72 74
f 58 74 75
f 58 75 76
f 58 76 73
f 59 73 77
f 59 77 78
f 59 78 60
f 61 62 79
f 62 63 80
f 62 80 81
f 62 81 82
f 62 82 79
f 63 64 80
f 64 83 80
f 66 67 84
f 67 85 84
f 68 86 69
f 69 87 88
f 69 88 89
f 69 89 70
f 69 86 87
f 70 89 71
f 71 89 90
f 71 90 91
f 71 91 72
f 72 91 92
f 72 92 74
f 73 93 77
f 73 76 93
f 74 92 94
f 74 94 95
f 74 95 96
f 74 96 97
f 74 97 75
f 75 97 76
f 76 98 99
f 76 99 93
f 76 97 100
f 76 100 98
f 80 101 81
f 80 83 102
f 80 102 103
f 80 103 101
f 81 101 82
f 82 101 104
f 84 85 105
f 85 106 105
f 87 107 89
f 87 89 88
f 89 108 90
f 89 107 108
f 90 108 94
f 90 94 92
f 90 92 91
f 94 108 109
f 94 109 95
f 95 110 111
f 95 111 112
f 95 112 113
f 95 113 114
f 95 114 96
f 95 109 110
f 96 114 97
f 97 114 115
f 97 115 100
f 98 100 116
f 100 115 103
f 100 103 117
f 100 117 116
f 101 118 104
f 101 103 115
f 101 115 118
f 102 119 103
f 103 119 117
f 104 118 120
f 105 121 122
f 105 106 121
f 106 123 121
f 107 122 108
f 108 122 124
f 108 124 109
f 109 124 121
f 109 121 110
f 110 112 111
f 110 121 112
f 112 123 125
f 112 125 126
f 112 126 113
f 112 121 123
f 113 126 114
f 114 126 118
f 114 118 115
f 118 126 127
f 118 127 128
f 118 128 120
f 121 124 122
f 123 129 125
f 125 129 127
f 125 127 126

