v -0.14786929 -0.08251327 0.03427575
v -0.14786929 -0.08251327 0.02882627
v -0.16752058 -0.08251327 0.03427575
v -0.14786929 -0.09470881 0.03427575
v -0.15747677 -0.09977207 0.00684229
v -0.16181301 -0.09977207 0.00684229
v -0.16103519 -0.09309149 0.01541807
v -0.16366132 -0.08251327 0.03165310
v -0.14786929 -0.11477972 -0.00213281
v -0.15137080 -0.10777858 -0.00019078
v -0.15605665 -0.10685336 -0.00097122
v -0.16865071 -0.08373720 0.03427575
v -0.16434699 -0.08251327 0.03190720
v -0.16616008 -0.09533535 0.01741456
v -0.14836254 -0.09722952 0.03427575
v -0.14786929 -0.09672684 0.03426667
v -0.16138480 -0.10723219 -0.00066267
v -0.16325480 -0.10478435 0.00436936
v -0.14786929 -0.11986484 -0.00471917
v -0.15192096 -0.11619307 -0.00722384
v -0.15421917 -0.11619307 -0.00722384
v -0.15649298 -0.11323526 -0.00521375
v -0.16789186 -0.09289478 0.02254188
v -0.17555345 -0.10527974 0.03427575
v -0.16770487 -0.10046417 0.01534547
v -0.17532038 -0.15693229 0.03427575
v -0.14786929 -0.09726594 0.03413509
v -0.16234691 -0.11264514 -0.00220087
v -0.14786929 -0.12033110 -0.00483260
v -0.15120277 -0.12033110 -0.00764582
v -0.14786929 -0.15693229 -0.01207438
v -0.15522463 -0.12033110 -0.00764582
v -0.15906762 -0.12033110 -0.00647062
v -0.17555345 -0.13914166 0.00808555
v -0.17555345 -0.15693229 0.03427575
v -0.14786929 -0.15693229 0.00352993
v -0.17555345 -0.15693229 0.00377042
v -0.17555345 -0.15493611 0.00421963
v -0.17555345 -0.14545798 0.00650198
v -0.17555345 -0.13925094 0.00804017
f 1 2 8
f 1 8 13
f 1 13 3
f 1 3 12
f 1 12 24
f 1 24 35
f 1 35 26
f 1 26 15
f 1 15 4
f 1 4 16
f 1 16 27
f 1 27 36
f 1 36 31
f 1 31 29
f 1 29 19
f 1 19 9
f 1 9 2
f 2 5 6
f 2 6 7
f 2 7 8
f 2 9 10
f 2 10 11
f 2 11 5
f 3 13 6
f 3 6 14
f 3 14 12
f 4 15 16
f 5 11 6
f 6 13 7
f 6 11 17
f 6 17 18
f 6 18 14
f 7 13 8
f 9 19 20
f 9 20 10
f 10 20 11
f 11 20 21
f 11 21 22
f 11 22 17
f 12 14 23
f 12 23 24
f 14 18 25
f 14 25 23
f 15 26 16
f 16 26 27
f 17 22 28
f 17 28 25
f 17 25 18
f 19 29 30
f 19 30 20
f 20 30 31
f 20 31 21
f 21 31 32
f 21 32 33
f 21 33 22
f 22 33 28
f 23 25 24
f 24 25 34
f 24 34 40
f 24 40 39
f 24 39 38
f 24 38 37
f 24 37 35
f 25 28 34
f 26 35 37
f 26 37 31
f 26 31 36
f 26 36 27
f 28 33 37
f 28 37 38
f 28 38 39
f 28 39 40
f 28 40 34
f 29 31 30
f 31 37 33
f 31 33 32

