v -0.20683894 -0.01999060 0.15965920
v -0.20218996 -0.02037581 0.15770573
v -0.19673352 -0.01268386 0.15531815
v -0.20683894 -0.01674049 0.15956053
v -0.20683894 -0.02479356 0.15922509
v -0.19737466 -0.02037581 0.15511097
v -0.20683894 -0.02780293 0.15859367
v -0.20214703 -0.02750199 0.15617647
v -0.19730493 -0.00727903 0.15488404
v -0.20218996 -0.01268386 0.15744922
v -0.19289202 -0.01268386 0.15306871
v -0.18248079 -0.00499191 0.14706029
v -0.18681321 -0.00499191 0.14945775
v -0.17943602 0.00261578 0.14500818
v -0.17943602 0.00288060 0.14498844
v -0.20683894 -0.01268386 0.15861339
v -0.18299585 -0.01636733 0.14672485
v -0.18261760 -0.01123936 0.14702083
v -0.19815799 -0.02457689 0.15459794
v -0.20683894 -0.03508561 0.15615676
v -0.20467943 -0.03406242 0.15544641
v -0.20683894 -0.01001154 0.15788330
v -0.17943602 0.01000679 0.14376506
v -0.17943602 0.01774689 0.14173267
v -0.18856496 0.00802061 0.14749440
v -0.20218996 -0.00591879 0.15560426
v -0.17943602 -0.00499191 0.14511670
v -0.17943602 -0.00624381 0.14509695
v -0.17943602 -0.01343018 0.14341975
v -0.19782266 -0.04034598 0.14717868
v -0.19133878 -0.04617213 0.13847687
v -0.17943602 -0.05882351 0.12115216
v -0.20683894 -0.03870888 0.15460778
v -0.20635875 -0.03919038 0.15415395
v -0.20218996 -0.00207884 0.15388756
v -0.20683894 -0.00426966 0.15528854
v -0.17943602 0.02276652 0.13975945
v -0.20000094 -0.04547395 0.14567907
v -0.17943602 -0.08251327 0.10805998
v -0.18216156 -0.07146287 0.11672234
v -0.18057076 -0.06650342 0.11807398
v -0.17943602 -0.06650342 0.11708737
v -0.17943602 -0.06221809 0.11935657
v -0.20683894 -0.03940706 0.15429208
v -0.20683894 -0.05292515 0.14519562
v -0.19070836 -0.07029523 0.12362854
v -0.18138628 -0.08251327 0.10949055
v -0.19450159 0.00863452 0.14799757
v -0.20683894 -0.00005654 0.15263459
v -0.17943602 0.02295912 0.13965094
v -0.17943602 -0.08251327 0.05887795
v -0.17943602 -0.08221234 0.10823757
v -0.17943602 -0.08187528 0.10843489
v -0.17943602 -0.07399074 0.11298313
v -0.20683894 -0.06196530 0.13891098
v -0.20663237 -0.06218197 0.13864459
v -0.18685882 -0.08251327 0.11302259
v -0.17943602 0.02664258 0.13748041
v -0.18681321 0.02267022 0.13958186
v -0.20650897 0.00682890 0.14702083
v -0.20683894 0.00635944 0.14729709
v -0.19108125 0.02217668 0.13929575
v -0.17943602 -0.06650342 0.06420558
v -0.20223557 -0.08251327 0.06481728
v -0.20683894 -0.08247716 0.06497513
v -0.20683894 -0.07116193 0.13204424
v -0.20540910 -0.07078877 0.13172852
v -0.19160972 -0.08251327 0.11568640
v -0.17943602 0.03226409 0.13361294
v -0.20683894 0.00674463 0.14677419
v -0.20034700 0.01568848 0.14059806
v -0.17943602 0.03240854 0.13350440
v -0.18506951 0.03101219 0.13269538
v -0.17943602 0.03388915 0.11028969
v -0.20683894 -0.08251327 0.07371642
v -0.20683894 -0.02037581 0.10503112
v -0.18093560 0.03412990 0.11200639
v -0.17943602 0.03692259 0.11220370
v -0.20683894 -0.07238975 0.13101818
v -0.20424485 -0.07893814 0.12452635
v -0.19439159 -0.08251327 0.11706763
v -0.20683894 0.00712983 0.14616248
v -0.19019599 0.02921861 0.12905483
v -0.20158905 0.01709687 0.13522109
v -0.20683894 0.01082534 0.13927603
v -0.20683894 0.00910398 0.14294617
v -0.17943602 0.03647720 0.12841354
v -0.17943602 0.03692259 0.12784133
v -0.20683894 -0.08251327 0.12207956
v -0.20683894 -0.01619880 0.10799091
v -0.18443910 0.03202334 0.11448274
v -0.18276514 0.03707908 0.11983998
v -0.17943602 0.04046161 0.11966239
v -0.19069496 0.02963992 0.12360879
v -0.18692588 0.03252891 0.12056020
v -0.20683894 -0.07944371 0.12504923
v -0.20193780 -0.08251327 0.12038261
v -0.19069496 0.02963992 0.12393439
v -0.20543593 0.01365415 0.13522109
v -0.20683894 0.01218557 0.13522109
v -0.20683894 0.00948918 0.12873914
v -0.19926323 0.01600146 0.12275047
f 1 2 3
f 1 3 4
f 1 4 16
f 1 16 22
f 1 22 36
f 1 36 49
f 1 49 61
f 1 61 70
f 1 70 82
f 1 82 86
f 1 86 85
f 1 85 100
f 1 100 101
f 1 101 90
f 1 90 76
f 1 76 65
f 1 65 75
f 1 75 89
f 1 89 96
f 1 96 79
f 1 79 66
f 1 66 55
f 1 55 45
f 1 45 44
f 1 44 33
f 1 33 20
f 1 20 7
f 1 7 5
f 1 5 2
f 2 6 3
f 2 5 7
f 2 7 8
f 2 8 6
f 3 9 10
f 3 10 4
f 3 6 11
f 3 11 12
f 3 12 13
f 3 13 14
f 3 14 15
f 3 15 9
f 4 10 16
f 6 17 18
f 6 18 11
f 6 8 19
f 6 19 17
f 7 20 21
f 7 21 8
f 8 21 19
f 9 22 16
f 9 16 10
f 9 15 23
f 9 23 24
f 9 24 25
f 9 25 26
f 9 26 22
f 11 18 12
f 12 27 14
f 12 14 13
f 12 18 28
f 12 28 27
f 14 27 28
f 14 28 29
f 14 29 32
f 14 32 43
f 14 43 42
f 14 42 54
f 14 54 53
f 14 53 52
f 14 52 39
f 14 39 51
f 14 51 63
f 14 63 74
f 14 74 78
f 14 78 93
f 14 93 88
f 14 88 87
f 14 87 72
f 14 72 69
f 14 69 58
f 14 58 50
f 14 50 37
f 14 37 24
f 14 24 23
f 14 23 15
f 17 29 28
f 17 28 18
f 17 19 21
f 17 21 30
f 17 30 31
f 17 31 32
f 17 32 29
f 20 33 34
f 20 34 21
f 21 34 30
f 22 26 35
f 22 35 36
f 24 37 25
f 25 37 26
f 26 37 35
f 30 34 38
f 30 38 39
f 30 39 40
f 30 40 31
f 31 40 41
f 31 41 42
f 31 42 43
f 31 43 32
f 33 44 34
f 34 44 45
f 34 45 46
f 34 46 47
f 34 47 38
f 35 37 48
f 35 48 36
f 36 48 49
f 37 50 48
f 38 47 39
f 39 47 57
f 39 57 68
f 39 68 81
f 39 81 97
f 39 97 89
f 39 89 75
f 39 75 64
f 39 64 51
f 39 52 40
f 40 52 53
f 40 53 54
f 40 54 41
f 41 54 42
f 45 55 56
f 45 56 57
f 45 57 46
f 46 57 47
f 48 50 58
f 48 58 59
f 48 59 49
f 49 60 61
f 49 59 62
f 49 62 60
f 51 64 65
f 51 65 63
f 55 66 67
f 55 67 56
f 56 67 68
f 56 68 57
f 58 69 59
f 59 69 62
f 60 70 61
f 60 62 71
f 60 71 70
f 62 69 72
f 62 72 73
f 62 73 71
f 63 65 74
f 64 75 65
f 65 76 77
f 65 77 78
f 65 78 74
f 66 79 80
f 66 80 67
f 67 80 81
f 67 81 68
f 70 71 82
f 71 73 83
f 71 83 84
f 71 84 85
f 71 85 86
f 71 86 82
f 72 87 73
f 73 87 88
f 73 88 83
f 76 90 91
f 76 91 77
f 77 91 78
f 78 92 93
f 78 91 94
f 78 94 95
f 78 95 92
f 79 96 80
f 80 96 97
f 80 97 81
f 83 88 93
f 83 93 98
f 83 98 99
f 83 99 84
f 84 99 85
f 85 99 100
f 89 97 96
f 90 101 102
f 90 102 91
f 91 102 101
f 91 101 94
f 92 95 94
f 92 94 93
f 93 94 98
f 94 100 98
f 94 101 100
f 98 100 99

