v -0.12880012 -0.15706561 0.03887866
v -0.12850838 -0.15706561 0.03876589
v -0.12880012 -0.15706561 0.02882181
v -0.12880012 -0.16648207 0.03402935
v -0.12836354 -0.17077780 0.03169424
v -0.12559717 -0.16648207 0.03297457
v -0.10795852 -0.20183651 0.00882750
v -0.10795852 -0.19714250 0.01114270
v -0.12693955 -0.15706561 0.03815557
v -0.10795852 -0.15706561 0.01751780
v -0.12880012 -0.22972319 -0.02889233
v -0.12880012 -0.17085604 0.03175396
v -0.10991905 -0.20217076 0.00905306
v -0.10795852 -0.21194284 0.00267134
v -0.10795852 -0.18631782 0.01629718
v -0.11131040 -0.18772602 0.01705344
v -0.12010524 -0.16392171 0.03206573
v -0.12501574 -0.15706561 0.03725339
v -0.10795852 -0.15706561 0.02800586
v -0.10795852 -0.22972319 -0.01943916
v -0.12880012 -0.22972319 -0.01457657
v -0.12880012 -0.18077746 0.02549827
v -0.10991905 -0.21213487 0.00284382
v -0.10795852 -0.22538478 -0.00618481
v -0.10795852 -0.18379301 0.01735195
v -0.11347697 -0.15706561 0.03157484
v -0.11498256 -0.16109107 0.03069918
v -0.11756940 -0.15863027 0.03309397
v -0.11769793 -0.15706561 0.03374410
v -0.10979869 -0.15706561 0.02929944
v -0.10795852 -0.15869428 0.02760118
v -0.10795852 -0.22972319 -0.00912358
v -0.12673146 -0.22972319 -0.01343556
v -0.12880012 -0.22704191 -0.01160463
v -0.12880012 -0.19404873 0.01651609
v -0.12529524 -0.19388513 0.01638342
v -0.10795852 -0.22922533 -0.00877199
v -0.11026587 -0.15863027 0.02907389
v -0.11189590 -0.15706561 0.03067264
v -0.11493564 -0.15706561 0.03235099
v -0.10795852 -0.22956671 -0.00901081
v -0.10991905 -0.22972319 -0.00911031
v -0.12426907 -0.22972319 -0.01210216
v -0.12880012 -0.22350006 -0.00770394
v -0.12880012 -0.19789637 0.01380950
v -0.11761020 -0.22896219 -0.00940884
v -0.11761020 -0.22972319 -0.01005232
v -0.12880012 -0.20325181 0.00996852
v -0.12529524 -0.21222732 0.00331482
v -0.12529524 -0.21608212 0.00026326
v -0.12277572 -0.22460956 -0.00662927
v -0.12790452 -0.22369209 -0.00748503
v -0.12880012 -0.21568385 -0.00016794
v -0.12880012 -0.20709948 0.00701648
v -0.12880012 -0.21183617 0.00318213
f 1 2 9
f 1 9 18
f 1 18 29
f 1 29 40
f 1 40 26
f 1 26 39
f 1 39 30
f 1 30 19
f 1 19 10
f 1 10 3
f 1 3 11
f 1 11 21
f 1 21 34
f 1 34 44
f 1 44 53
f 1 53 55
f 1 55 54
f 1 54 48
f 1 48 45
f 1 45 35
f 1 35 22
f 1 22 12
f 1 12 4
f 1 4 5
f 1 5 6
f 1 6 7
f 1 7 8
f 1 8 2
f 2 8 9
f 3 10 11
f 4 12 5
f 5 12 7
f 5 7 6
f 7 12 13
f 7 13 14
f 7 14 24
f 7 24 37
f 7 37 41
f 7 41 32
f 7 32 20
f 7 20 10
f 7 10 19
f 7 19 31
f 7 31 25
f 7 25 15
f 7 15 8
f 8 15 16
f 8 16 9
f 9 17 18
f 9 16 17
f 10 20 11
f 11 20 32
f 11 32 42
f 11 42 47
f 11 47 43
f 11 43 33
f 11 33 21
f 12 22 14
f 12 14 13
f 14 23 24
f 14 22 23
f 15 25 26
f 15 26 27
f 15 27 28
f 15 28 17
f 15 17 16
f 17 28 18
f 18 28 29
f 19 30 31
f 21 33 34
f 22 35 36
f 22 36 37
f 22 37 24
f 22 24 23
f 25 31 38
f 25 38 39
f 25 39 26
f 26 40 27
f 27 40 28
f 28 40 29
f 30 39 31
f 31 39 38
f 32 41 42
f 33 43 44
f 33 44 34
f 35 45 41
f 35 41 37
f 35 37 36
f 41 45 42
f 42 46 47
f 42 45 48
f 42 48 49
f 42 49 50
f 42 50 46
f 43 47 51
f 43 51 52
f 43 52 44
f 44 52 53
f 46 50 47
f 47 50 51
f 48 54 49
f 49 54 50
f 50 54 55
f 50 55 53
f 50 53 51
f 51 53 52

