v -0.07257792 0.06115731 0.05890370
v -0.07257792 0.03430074 0.04865881
v -0.07257792 0.06115731 0.01738269
v -0.09156957 0.06115731 0.08428847
v -0.07310741 0.03346207 0.04899454
v -0.07257792 0.03339314 0.04821480
v -0.07257792 0.05652357 0.01584487
v -0.09940729 0.02203472 0.02275421
v -0.10116990 0.06115731 0.03727682
v -0.10493200 0.06115731 0.09972077
v -0.10603973 0.06031482 0.10065212
v -0.07431964 0.02818496 0.04798738
v -0.07257792 0.02203472 0.04254004
v -0.07257792 0.04757776 0.01427456
v -0.09836226 0.02203472 0.02215858
v -0.10580286 0.02203472 0.02795246
v -0.10548935 0.05831196 0.03969184
v -0.10483447 0.06115731 0.04041742
v -0.10590736 0.06115731 0.10073877
v -0.12893979 0.04460221 0.11616022
v -0.14372345 0.02782116 0.12421753
v -0.14375132 0.02346697 0.12247393
v -0.07257792 0.02203472 0.02930617
v -0.14375132 0.02203472 0.12110940
v -0.07257792 0.04114796 0.01425291
v -0.09468376 0.02203472 0.02181203
v -0.07597078 0.03698142 0.01567159
v -0.11423275 0.05373566 0.04635209
v -0.10766301 0.02203472 0.02981516
v -0.12809680 0.04114796 0.05555732
v -0.12303886 0.04883385 0.05308816
v -0.11306929 0.05885959 0.04768414
v -0.10655528 0.06115731 0.04226931
v -0.11653182 0.06115731 0.10848197
v -0.12869595 0.04883385 0.11627935
v -0.14304767 0.03346207 0.12455324
v -0.14375132 0.03227491 0.12481314
v -0.14375132 0.02780967 0.12422836
v -0.14375132 0.02771776 0.12419586
v -0.09034340 0.02203472 0.02287334
v -0.07257792 0.03703503 0.01572574
v -0.14375132 0.02203472 0.07004743
v -0.12688456 0.04883385 0.05692187
v -0.12083733 0.02203472 0.04367715
v -0.13903477 0.04114796 0.06758910
v -0.14372345 0.03346207 0.07077303
v -0.12931600 0.05295061 0.06196850
v -0.14375132 0.06115731 0.08356288
v -0.11249801 0.06115731 0.04877794
v -0.10842936 0.06115731 0.04429445
v -0.11884481 0.06115731 0.11001981
v -0.12874471 0.05426797 0.11620356
v -0.12148525 0.06115731 0.11165508
v -0.14324971 0.04114796 0.12431498
v -0.14375132 0.03346207 0.12488896
v -0.14375132 0.03346207 0.07080552
v -0.14287350 0.02203472 0.06884534
v -0.14288046 0.04114796 0.07182350
v -0.13024259 0.04883385 0.06076641
v -0.12254421 0.02203472 0.04553986
v -0.13713281 0.02203472 0.06183854
v -0.14375132 0.05137284 0.07774734
v -0.14375132 0.05910085 0.08233913
v -0.14375132 0.06115731 0.11826120
v -0.12799229 0.06115731 0.11458993
v -0.13245805 0.05671122 0.11734067
v -0.14375132 0.04431116 0.12403341
v -0.14375132 0.04114796 0.12450993
v -0.14375132 0.04039737 0.12458572
v -0.14375132 0.04114796 0.07298229
v -0.14375132 0.04326953 0.07381617
v -0.14375132 0.04733267 0.07575468
v -0.14375132 0.06044885 0.11860775
v -0.14291530 0.06115731 0.11826120
v -0.13428337 0.06115731 0.11676670
v -0.14375132 0.04608424 0.12373018
v -0.14375132 0.05436371 0.12095779
v -0.14067197 0.06115731 0.11802294
v -0.13570461 0.06115731 0.11716740
v -0.14067197 0.05652357 0.11971236
f 1 2 6
f 1 6 13
f 1 13 23
f 1 23 41
f 1 41 25
f 1 25 14
f 1 14 7
f 1 7 3
f 1 3 9
f 1 9 18
f 1 18 33
f 1 33 50
f 1 50 49
f 1 49 48
f 1 48 64
f 1 64 74
f 1 74 78
f 1 78 79
f 1 79 75
f 1 75 65
f 1 65 53
f 1 53 51
f 1 51 34
f 1 34 19
f 1 19 10
f 1 10 4
f 1 4 2
f 2 5 6
f 2 4 5
f 3 7 8
f 3 8 9
f 4 10 11
f 4 11 12
f 4 12 5
f 5 12 13
f 5 13 6
f 7 14 15
f 7 15 8
f 8 15 26
f 8 26 40
f 8 40 23
f 8 23 13
f 8 13 24
f 8 24 42
f 8 42 57
f 8 57 61
f 8 61 60
f 8 60 44
f 8 44 29
f 8 29 16
f 8 16 17
f 8 17 9
f 9 17 18
f 10 19 11
f 11 19 20
f 11 20 21
f 11 21 22
f 11 22 12
f 12 22 13
f 13 22 24
f 14 25 15
f 15 25 27
f 15 27 26
f 16 28 17
f 16 29 30
f 16 30 31
f 16 31 28
f 17 28 18
f 18 28 32
f 18 32 33
f 19 34 20
f 20 34 35
f 20 35 36
f 20 36 21
f 21 36 37
f 21 37 38
f 21 38 39
f 21 39 22
f 22 39 38
f 22 38 37
f 22 37 55
f 22 55 69
f 22 69 68
f 22 68 67
f 22 67 76
f 22 76 77
f 22 77 73
f 22 73 64
f 22 64 48
f 22 48 63
f 22 63 62
f 22 62 72
f 22 72 71
f 22 71 70
f 22 70 56
f 22 56 42
f 22 42 24
f 23 40 41
f 25 41 27
f 26 27 41
f 26 41 40
f 28 31 43
f 28 43 32
f 29 44 30
f 30 45 43
f 30 43 31
f 30 44 46
f 30 46 45
f 32 43 47
f 32 47 48
f 32 48 49
f 32 49 50
f 32 50 33
f 34 51 35
f 35 52 36
f 35 51 53
f 35 53 52
f 36 54 55
f 36 55 37
f 36 52 54
f 42 56 57
f 43 45 58
f 43 58 59
f 43 59 47
f 44 60 46
f 45 46 58
f 46 56 58
f 46 60 61
f 46 61 56
f 47 59 62
f 47 62 63
f 47 63 48
f 52 65 66
f 52 66 67
f 52 67 54
f 52 53 65
f 54 67 68
f 54 68 69
f 54 69 55
f 56 70 58
f 56 61 57
f 58 70 71
f 58 71 59
f 59 71 72
f 59 72 62
f 64 73 74
f 65 75 66
f 66 75 76
f 66 76 67
f 73 77 74
f 74 77 78
f 75 79 76
f 76 80 77
f 76 79 80
f 77 80 78
f 78 80 79

