v -0.04063493 -0.25925455 -0.04776866
v -0.04063493 -0.21238927 -0.05983595
v -0.04063806 -0.21230564 -0.05982828
v -0.07257792 -0.21230564 -0.05692447
v -0.07257792 -0.27165661 -0.04776866
v -0.04063493 -0.27744368 -0.04776866
v -0.04063493 -0.21230564 -0.05999301
v -0.07257792 -0.21230564 -0.06506127
v -0.07257792 -0.28471097 -0.04776866
v -0.04271110 -0.27889046 -0.04776866
v -0.04063493 -0.27940058 -0.05001356
v -0.04063493 -0.21230564 -0.06940933
v -0.05712234 -0.21230564 -0.07425156
v -0.07257792 -0.28180909 -0.08532665
v -0.07257792 -0.28770486 -0.05089849
v -0.07146792 -0.28781360 -0.05079123
v -0.07169930 -0.28487825 -0.04776866
v -0.04661330 -0.28072192 -0.04776866
v -0.05084381 -0.28626646 -0.05237338
v -0.04139161 -0.27955112 -0.04961515
v -0.04571904 -0.28507894 -0.05461445
v -0.04063493 -0.28260356 -0.05659119
v -0.04118837 -0.21230564 -0.06981923
v -0.04063493 -0.22798592 -0.07346240
v -0.05609364 -0.21230564 -0.07457719
v -0.07257792 -0.28901784 -0.08682836
v -0.07257792 -0.28826520 -0.05156890
v -0.07146792 -0.29166050 -0.05546108
v -0.06377921 -0.28786376 -0.05077590
v -0.07146792 -0.28492005 -0.04776866
v -0.05609364 -0.28362382 -0.04776866
v -0.05609364 -0.28713620 -0.05146164
v -0.05946428 -0.29352540 -0.06046804
v -0.04832989 -0.28722818 -0.05711219
v -0.04406499 -0.28599886 -0.05974400
v -0.04063493 -0.28271226 -0.05710453
v -0.04870198 -0.21230564 -0.07309080
v -0.04063493 -0.22808630 -0.07348155
v -0.04063493 -0.23511943 -0.07471127
v -0.07257792 -0.28949452 -0.08690498
v -0.07257792 -0.29155177 -0.05556451
v -0.07257792 -0.29198665 -0.05611999
v -0.07257792 -0.29424459 -0.05941072
v -0.07146792 -0.29429478 -0.05930728
v -0.06377921 -0.29171066 -0.05587865
v -0.05646885 -0.28369073 -0.04776866
v -0.06377921 -0.28486150 -0.04776866
v -0.06377921 -0.29395192 -0.05972485
v -0.07146792 -0.29636875 -0.06470500
v -0.06377921 -0.29520634 -0.06470500
v -0.05898902 -0.29382646 -0.06470500
v -0.04406499 -0.28599886 -0.06205786
v -0.04063493 -0.28212688 -0.06511107
v -0.04063493 -0.23565465 -0.07474958
v -0.07257792 -0.29049806 -0.08639164
v -0.04063493 -0.25105897 -0.07510968
v -0.04063493 -0.25227157 -0.07507520
v -0.04063493 -0.25886985 -0.07482236
v -0.04063493 -0.26480745 -0.07422475
v -0.04063493 -0.26642985 -0.07403320
v -0.04063493 -0.27482612 -0.07190323
v -0.04063493 -0.27640669 -0.07126731
v -0.07257792 -0.29457913 -0.06008495
v -0.07257792 -0.29635203 -0.06470500
v -0.07257792 -0.29665310 -0.06581213
v -0.07257792 -0.29772353 -0.07238975
v -0.07146792 -0.29761482 -0.07238975
v -0.05914223 -0.29380974 -0.07010272
v -0.04514685 -0.28512077 -0.06718358
v -0.04063493 -0.28207669 -0.06527197
v -0.05797282 -0.28767978 -0.07748483
v -0.07257792 -0.29509761 -0.08300513
v -0.04208575 -0.27999436 -0.07030192
v -0.04063493 -0.28183417 -0.06561675
v -0.07257792 -0.29773192 -0.07349688
v -0.06336961 -0.29496379 -0.07255448
v -0.06565840 -0.29437005 -0.07782961
v -0.06053051 -0.29280620 -0.07522844
v -0.07257792 -0.29580009 -0.08153407
v -0.07257792 -0.29622658 -0.08023540
v -0.07127719 -0.29579173 -0.08026605
f 1 2 3
f 1 3 4
f 1 4 5
f 1 5 9
f 1 9 17
f 1 17 30
f 1 30 47
f 1 47 46
f 1 46 31
f 1 31 18
f 1 18 10
f 1 10 6
f 1 6 11
f 1 11 22
f 1 22 36
f 1 36 53
f 1 53 70
f 1 70 74
f 1 74 62
f 1 62 61
f 1 61 60
f 1 60 59
f 1 59 58
f 1 58 57
f 1 57 56
f 1 56 54
f 1 54 39
f 1 39 38
f 1 38 24
f 1 24 12
f 1 12 7
f 1 7 2
f 2 7 3
f 3 7 12
f 3 12 23
f 3 23 37
f 3 37 25
f 3 25 13
f 3 13 8
f 3 8 4
f 4 8 14
f 4 14 26
f 4 26 40
f 4 40 55
f 4 55 72
f 4 72 79
f 4 79 80
f 4 80 75
f 4 75 66
f 4 66 65
f 4 65 64
f 4 64 63
f 4 63 43
f 4 43 42
f 4 42 41
f 4 41 27
f 4 27 15
f 4 15 9
f 4 9 5
f 6 10 11
f 8 13 14
f 9 15 16
f 9 16 17
f 10 18 19
f 10 19 20
f 10 20 11
f 11 20 21
f 11 21 22
f 12 24 23
f 13 25 14
f 14 25 26
f 15 27 16
f 16 27 28
f 16 28 29
f 16 29 30
f 16 30 17
f 18 31 32
f 18 32 19
f 19 32 33
f 19 33 21
f 19 21 20
f 21 33 34
f 21 34 35
f 21 35 22
f 22 35 36
f 23 24 37
f 24 38 37
f 25 37 39
f 25 39 40
f 25 40 26
f 27 41 28
f 28 42 43
f 28 43 44
f 28 44 45
f 28 45 29
f 28 41 42
f 29 32 31
f 29 31 46
f 29 46 47
f 29 47 30
f 29 45 32
f 32 45 33
f 33 45 48
f 33 48 49
f 33 49 50
f 33 50 51
f 33 51 35
f 33 35 34
f 35 52 36
f 35 51 52
f 36 52 53
f 37 38 39
f 39 54 40
f 40 54 56
f 40 56 57
f 40 57 58
f 40 58 59
f 40 59 60
f 40 60 61
f 40 61 62
f 40 62 55
f 43 63 44
f 44 48 45
f 44 63 49
f 44 49 48
f 49 64 65
f 49 65 66
f 49 66 67
f 49 67 50
f 49 63 64
f 50 67 51
f 51 67 68
f 51 68 52
f 52 69 70
f 52 70 53
f 52 68 69
f 55 62 71
f 55 71 72
f 62 73 71
f 62 74 73
f 66 75 67
f 67 75 76
f 67 76 68
f 68 76 77
f 68 77 78
f 68 78 69
f 69 78 73
f 69 73 70
f 70 73 74
f 71 78 72
f 71 73 78
f 72 78 77
f 72 77 79
f 75 80 76
f 76 80 81
f 76 81 77
f 77 81 79
f 79 81 80

