v -0.07257792 -0.13778655 0.00194690
v -0.05116274 -0.13778655 -0.01382710
v -0.07257792 -0.13778655 -0.01122299
v -0.07257792 -0.18184679 -0.00277278
v -0.06734998 -0.18693769 -0.00681015
v -0.04168865 -0.21229000 -0.02806286
v -0.04063493 -0.21229000 -0.02885419
v -0.04063493 -0.15108995 -0.02330280
v -0.04063493 -0.14340257 -0.02270124
v -0.04063493 -0.13778655 -0.02295559
v -0.05718488 -0.13778655 -0.03929079
v -0.07257792 -0.16647202 -0.01561969
v -0.07257792 -0.18951958 -0.00391535
v -0.07091136 -0.18951229 -0.00494084
v -0.04756071 -0.21229000 -0.02421928
v -0.04063493 -0.21229000 -0.03929079
v -0.04063493 -0.13778655 -0.03929079
v -0.04536572 -0.19849064 -0.03929079
v -0.04626310 -0.19722156 -0.03888302
v -0.07257792 -0.21229000 -0.01944712
v -0.07257792 -0.19662350 -0.00538092
v -0.05140662 -0.21229000 -0.02186146
v -0.07257792 -0.19722156 -0.00551011
v -0.04210764 -0.21229000 -0.03929079
v -0.07257792 -0.21229000 -0.00957171
v -0.06543327 -0.21229000 -0.01345162
v -0.07257792 -0.20490894 -0.00745613
v -0.07047048 -0.20490894 -0.00867138
v -0.07257792 -0.21207850 -0.00948289
v -0.07214643 -0.21229000 -0.00976954
v -0.06849437 -0.21229000 -0.01175189
v -0.07257792 -0.20666669 -0.00792850
v -0.07257792 -0.21153147 -0.00928910
v -0.07219020 -0.21191072 -0.00962016
f 1 2 10
f 1 10 17
f 1 17 11
f 1 11 3
f 1 3 12
f 1 12 20
f 1 20 25
f 1 25 29
f 1 29 33
f 1 33 32
f 1 32 27
f 1 27 23
f 1 23 21
f 1 21 13
f 1 13 4
f 1 4 5
f 1 5 6
f 1 6 2
f 2 6 7
f 2 7 8
f 2 8 9
f 2 9 10
f 3 11 12
f 4 13 14
f 4 14 5
f 5 14 15
f 5 15 6
f 6 15 22
f 6 22 26
f 6 26 31
f 6 31 30
f 6 30 25
f 6 25 20
f 6 20 24
f 6 24 16
f 6 16 7
f 7 16 17
f 7 17 10
f 7 10 9
f 7 9 8
f 11 17 16
f 11 16 24
f 11 24 18
f 11 18 19
f 11 19 20
f 11 20 12
f 13 21 14
f 14 21 15
f 15 21 23
f 15 23 22
f 18 24 20
f 18 20 19
f 22 23 26
f 23 27 28
f 23 28 26
f 25 30 29
f 26 28 27
f 26 27 32
f 26 32 31
f 29 30 33
f 30 31 34
f 30 34 33
f 31 32 33
f 31 33 34

