v 0.16127630 0.01235496 -0.17313216
v 0.16127630 -0.01465909 -0.17313216
v 0.16127630 0.01342368 -0.17832131
v 0.15963578 0.01330859 -0.17313216
v 0.15954465 -0.01516879 -0.17313216
v 0.15774463 -0.00951278 -0.18529860
v 0.16127630 -0.01002248 -0.18221316
v 0.16127630 0.01375252 -0.18007439
v 0.15797246 0.01549536 -0.18007439
v 0.15924845 0.01350590 -0.17313216
v 0.15918008 -0.01521811 -0.17313216
v -0.06377171 0.11986858 -0.53132365
v 0.06974873 0.04517301 -0.32975327
v 0.10160224 0.02956964 -0.28392748
v 0.13988113 0.00660029 -0.22232388
v 0.16127630 -0.00693139 -0.18666601
v 0.16127630 0.01383473 -0.18116131
v 0.14799263 0.02213789 -0.19781567
v 0.15694714 0.01473904 -0.17492031
v 0.15863323 0.01375252 -0.17313216
v -0.05973876 0.15275239 -0.52199720
v 0.15088631 -0.01354104 -0.17313216
v -0.06908063 0.12014809 -0.53090290
v -0.06377171 0.12481759 -0.53132365
v -0.05591087 0.12578767 -0.53090290
v -0.04891585 0.12639602 -0.53044709
v -0.05607036 0.12098664 -0.53072759
v -0.05183234 0.12162787 -0.53013156
v 0.13245320 0.01406492 -0.23796145
v 0.15537498 -0.00116028 -0.19932333
v 0.16127630 -0.00377455 -0.18950602
v 0.16127630 0.01266736 -0.18775294
v 0.15785856 0.01605439 -0.18775294
v 0.15291419 0.01473904 -0.17492031
v 0.15145594 0.01329215 -0.17313216
v -0.05973876 0.15275239 -0.52234782
v -0.06010332 0.15275239 -0.52199720
v 0.14940529 -0.01266962 -0.17313216
v -0.06910342 0.12026319 -0.52602932
v -0.07149584 0.13340027 -0.51835077
v -0.07037938 0.13267683 -0.52680069
v -0.06908063 0.12442299 -0.53090290
v -0.06828315 0.13836573 -0.53023672
v -0.06377171 0.13876034 -0.53051722
v -0.04766267 0.13359758 -0.53030684
v -0.04444998 0.12942133 -0.52999131
v -0.04670570 0.12429145 -0.52778240
v -0.04415378 0.12154566 -0.52266338
v 0.14767363 0.00653453 -0.21471547
v 0.16127630 0.00165128 -0.19381863
v 0.16127630 0.01253582 -0.18848923
v 0.15683320 0.01565979 -0.19546654
v 0.14781033 0.02207213 -0.20749274
v -0.03672585 0.13741209 -0.51473943
v -0.04069044 0.14078268 -0.51067222
v 0.14778756 0.01419645 -0.17628772
v 0.15020278 0.01296331 -0.17313216
v -0.05071588 0.14599477 -0.52336460
v -0.04454112 0.13726412 -0.52988610
v -0.06377171 0.14260774 -0.52848364
v -0.06010332 0.15275239 -0.52234782
v -0.04604493 0.14392309 -0.51835077
v -0.06864771 0.14571526 -0.52112068
v -0.06101472 0.14573170 -0.51305644
v -0.05809823 0.14400530 -0.50793743
v 0.14318496 -0.00569825 -0.17313216
v -0.06716668 0.12249928 -0.51568608
v -0.06955911 0.12532730 -0.51828065
v -0.06855657 0.13340027 -0.51316163
v -0.06796416 0.13795468 -0.51393297
v -0.06971861 0.14074980 -0.51849102
v -0.06990089 0.14099643 -0.52623969
v -0.06851100 0.12762916 -0.51326682
v -0.06864771 0.14571526 -0.52378534
v -0.05844001 0.13815198 -0.53037697
v -0.04447277 0.13340027 -0.52995622
v -0.04203477 0.13340027 -0.52602932
v 0.16127630 0.00313105 -0.19409912
v 0.16127630 0.00898437 -0.19392382
v 0.15587624 0.01488702 -0.20037518
v -0.03606508 0.13340027 -0.51596657
v -0.04356137 0.13851370 -0.52602932
v -0.04069044 0.13961532 -0.51771968
v 0.13202030 0.02217078 -0.19897271
v 0.14630652 0.00988867 -0.17313216
v -0.03827523 0.13340027 -0.51978832
v -0.06101472 0.13887543 -0.50541296
v -0.05372350 0.13862880 -0.49755912
v 0.14277483 0.00270356 -0.17313216
v 0.15439522 0.01039837 -0.20531890
v 0.14562298 0.00911590 -0.17313216
f 1 2 7
f 1 7 16
f 1 16 31
f 1 31 50
f 1 50 78
f 1 78 79
f 1 79 51
f 1 51 32
f 1 32 17
f 1 17 8
f 1 8 3
f 1 3 4
f 1 4 10
f 1 10 20
f 1 20 35
f 1 35 57
f 1 57 85
f 1 85 91
f 1 91 89
f 1 89 66
f 1 66 38
f 1 38 22
f 1 22 11
f 1 11 5
f 1 5 2
f 2 5 6
f 2 6 7
f 3 8 9
f 3 9 4
f 4 9 10
f 5 11 12
f 5 12 13
f 5 13 6
f 6 13 7
f 7 13 14
f 7 14 15
f 7 15 16
f 8 17 18
f 8 18 9
f 9 19 20
f 9 20 10
f 9 18 21
f 9 21 19
f 11 22 23
f 11 23 12
f 12 23 42
f 12 42 24
f 12 24 25
f 12 25 26
f 12 26 27
f 12 27 13
f 13 27 28
f 13 28 14
f 14 29 30
f 14 30 15
f 14 28 29
f 15 30 16
f 16 30 31
f 17 32 33
f 17 33 18
f 18 33 21
f 19 34 20
f 19 21 37
f 19 37 34
f 20 34 35
f 21 36 61
f 21 61 37
f 21 33 36
f 22 38 23
f 23 39 40
f 23 40 41
f 23 41 42
f 23 38 39
f 24 42 43
f 24 43 44
f 24 44 45
f 24 45 25
f 25 45 26
f 26 45 46
f 26 46 28
f 26 28 27
f 28 46 47
f 28 47 48
f 28 48 29
f 29 49 30
f 29 48 46
f 29 46 49
f 30 50 31
f 30 49 50
f 32 51 33
f 33 51 52
f 33 52 53
f 33 53 54
f 33 54 55
f 33 55 36
f 34 56 57
f 34 57 35
f 34 37 56
f 36 58 59
f 36 59 60
f 36 60 61
f 36 55 62
f 36 62 58
f 37 61 74
f 37 74 63
f 37 63 64
f 37 64 65
f 37 65 56
f 38 66 39
f 39 67 68
f 39 68 40
f 39 66 67
f 40 69 70
f 40 70 71
f 40 71 63
f 40 63 72
f 40 72 41
f 40 68 73
f 40 73 69
f 41 72 43
f 41 43 42
f 43 72 74
f 43 74 61
f 43 61 60
f 43 60 44
f 44 60 59
f 44 59 75
f 44 75 45
f 45 75 59
f 45 59 76
f 45 76 46
f 46 48 47
f 46 76 77
f 46 77 78
f 46 78 50
f 46 50 49
f 51 79 80
f 51 80 52
f 52 80 54
f 52 54 53
f 54 81 59
f 54 59 82
f 54 82 83
f 54 83 58
f 54 58 62
f 54 62 55
f 54 80 79
f 54 79 81
f 56 84 85
f 56 85 57
f 56 65 84
f 58 82 59
f 58 83 82
f 59 81 86
f 59 86 77
f 59 77 76
f 63 71 87
f 63 87 65
f 63 65 64
f 63 74 72
f 65 87 88
f 65 88 84
f 66 89 73
f 66 73 67
f 67 73 68
f 69 89 70
f 69 73 89
f 70 87 71
f 70 89 87
f 77 86 90
f 77 90 78
f 78 90 79
f 79 90 86
f 79 86 81
f 84 91 85
f 84 88 87
f 84 87 91
f 87 89 91

