v -0.07257792 0.02203053 0.04253736
v -0.07257792 0.00561224 0.03878960
v -0.07257792 0.02203053 0.02931572
v -0.14375132 0.02203053 0.12111484
v -0.07443807 0.00269790 0.03990417
v -0.07257792 -0.01754756 0.03130802
v -0.07257792 0.01786420 -0.00533362
v -0.07514173 0.02201378 0.00000241
v -0.09034340 0.02203053 0.02287904
v -0.14375132 0.02203053 0.07005342
v -0.14375132 -0.02074245 0.09710970
v -0.13718157 -0.02074245 0.09263747
v -0.07460528 -0.02074245 0.03180957
v -0.07413153 -0.02074245 0.03133588
v -0.07257792 -0.02074245 0.02976155
v -0.07257792 0.01675876 -0.00909530
v -0.07257792 0.01639447 -0.01015415
v -0.07558064 0.02201378 0.00000241
v -0.09468376 0.02203053 0.02180627
v -0.14287350 0.02203053 0.06882737
v -0.14375132 -0.02074245 0.05517385
v -0.07257792 -0.02074245 -0.01323316
v -0.07675107 0.01633584 -0.00892811
v -0.07257792 0.01108501 -0.01684159
v -0.09940729 0.02203053 0.02276759
v -0.09836226 0.02203053 0.02215458
v -0.10580286 0.02203053 0.02795036
v -0.13713281 0.02203053 0.06181949
v -0.07572694 0.00763051 -0.01512794
v -0.07639576 0.00269790 -0.01597779
v -0.10725893 -0.02074245 0.01467299
v -0.09161137 -0.02074245 0.00000241
v -0.07257792 -0.01373714 -0.01776112
v -0.07471675 0.01275573 -0.01404122
v -0.12083733 0.02203053 0.04367979
v -0.10766301 0.02203053 0.02981727
v -0.07257792 0.00943522 -0.01751034
v -0.12254421 0.02203053 0.04554671
v -0.07273120 0.00269790 -0.01982308
v -0.07345575 -0.00498574 -0.02035250
v -0.10353166 -0.02074245 0.01061874
v -0.09526897 -0.02074245 0.00294210
v -0.07257792 -0.00613724 -0.02097945
v -0.07257792 -0.01269451 -0.01840200
v -0.07257792 0.00351861 -0.01966982
v -0.07257792 0.00269790 -0.01996240
v -0.07257792 0.00232942 -0.02003206
v -0.07257792 -0.00498574 -0.02120237
v -0.09987406 -0.02074245 0.00694064
v -0.09545011 -0.02074245 0.00309536
v -0.09968596 -0.02074245 0.00675951
f 1 2 6
f 1 6 15
f 1 15 22
f 1 22 33
f 1 33 44
f 1 44 43
f 1 43 48
f 1 48 47
f 1 47 46
f 1 46 45
f 1 45 37
f 1 37 24
f 1 24 17
f 1 17 16
f 1 16 7
f 1 7 3
f 1 3 9
f 1 9 19
f 1 19 26
f 1 26 25
f 1 25 27
f 1 27 36
f 1 36 35
f 1 35 38
f 1 38 28
f 1 28 20
f 1 20 10
f 1 10 4
f 1 4 2
f 2 4 5
f 2 5 6
f 3 7 8
f 3 8 9
f 4 10 21
f 4 21 11
f 4 11 12
f 4 12 13
f 4 13 6
f 4 6 5
f 6 13 14
f 6 14 15
f 7 16 8
f 8 16 17
f 8 17 18
f 8 18 19
f 8 19 9
f 10 20 21
f 11 21 31
f 11 31 41
f 11 41 49
f 11 49 51
f 11 51 50
f 11 50 42
f 11 42 32
f 11 32 22
f 11 22 15
f 11 15 14
f 11 14 13
f 11 13 12
f 17 23 18
f 17 24 23
f 18 25 26
f 18 26 19
f 18 23 27
f 18 27 25
f 20 28 21
f 21 28 29
f 21 29 30
f 21 30 31
f 22 32 33
f 23 24 34
f 23 34 35
f 23 35 36
f 23 36 27
f 24 37 29
f 24 29 34
f 28 38 34
f 28 34 29
f 29 37 39
f 29 39 30
f 30 39 40
f 30 40 31
f 31 40 41
f 32 42 43
f 32 43 44
f 32 44 33
f 34 38 35
f 37 45 39
f 39 45 46
f 39 46 47
f 39 47 40
f 40 47 48
f 40 48 49
f 40 49 41
f 42 50 43
f 43 50 51
f 43 51 48
f 48 51 49

