v 0.24652633 0.00895608 0.04310396
v 0.24379223 0.00895608 0.04324453
v 0.23964860 0.01443374 0.04666045
v 0.24121094 0.01443374 0.04666045
v 0.24633952 0.01404028 0.04699783
v 0.25150210 0.00895608 0.04405985
v 0.23983540 0.00895608 0.04434100
v 0.23864665 0.01039192 0.04557804
v 0.23193875 0.02239473 0.05418107
v 0.21665488 0.06041640 0.08520540
v 0.21707942 0.06041640 0.08520540
v 0.23611634 0.04351334 0.07128873
v 0.24380922 0.04673248 0.07509824
v 0.25150210 0.04600690 0.07619470
v 0.25559477 0.04530175 0.07716465
v 0.25243610 0.00895608 0.04450968
v 0.23862968 0.00895608 0.04511415
v 0.22450058 0.02973745 0.06209529
v 0.20950543 0.06115732 0.08763729
v 0.21152630 0.05927693 0.08561305
v 0.21612843 0.06115732 0.08596447
v 0.21645108 0.06115732 0.08596447
v 0.21799646 0.06115732 0.08625968
v 0.22125701 0.06115732 0.08708906
v 0.22842347 0.06115732 0.08925388
v 0.23395960 0.06115732 0.09158738
v 0.25571362 0.00895608 0.04619655
v 0.33242166 0.06115732 0.14691666
v 0.33284620 0.06065656 0.14643872
v 0.33841633 0.05239409 0.13939604
v 0.35529650 0.02961992 0.12368004
v 0.36460267 0.01556810 0.11452877
v 0.36883122 0.00895608 0.11018509
v 0.23470682 0.00895608 0.05003418
v 0.23159910 0.01176645 0.05342198
v 0.23151419 0.01808210 0.05345008
v 0.22450058 0.02812787 0.06209529
v 0.20395230 0.06115732 0.09132029
v 0.20867329 0.05415185 0.08464310
v 0.33379720 0.06115732 0.14802718
v 0.33649734 0.06115732 0.15031851
v 0.33797479 0.05942511 0.14889873
v 0.34159196 0.05430003 0.14452694
v 0.34818100 0.04552658 0.13829958
v 0.36327807 0.02228232 0.12318805
v 0.37041056 0.00895608 0.11277162
v 0.23244821 0.00895608 0.05647240
v 0.23073300 0.01109196 0.05834201
v 0.19906145 0.06115732 0.10048561
v 0.22465342 0.02300279 0.06261540
v 0.20867329 0.05100424 0.08464310
v 0.20004641 0.06115732 0.09766010
v 0.33839933 0.06115732 0.15290505
v 0.34008058 0.06055947 0.15401555
v 0.35550027 0.03760136 0.13835581
v 0.35431154 0.03658451 0.13323897
v 0.37148041 0.00895608 0.11452877
v 0.23197272 0.00895608 0.05834201
v 0.19904448 0.06115732 0.10460438
v 0.20055587 0.05911852 0.09806777
v 0.33952016 0.06115732 0.15450757
v 0.33955413 0.06115732 0.15820463
v 0.34008058 0.06059013 0.15828897
v 0.35550027 0.03760136 0.14084393
v 0.37234651 0.00923712 0.11984243
v 0.36969730 0.01307965 0.11984243
v 0.37222763 0.00895608 0.11823989
v 0.23049527 0.01218033 0.06603131
v 0.20048794 0.05914407 0.10447786
v 0.23470682 0.00895608 0.06649520
v 0.19951995 0.06115732 0.10703627
v 0.33952016 0.06115732 0.15963847
v 0.33996170 0.06047261 0.16226716
v 0.35519461 0.03697797 0.14596077
v 0.37249932 0.00895608 0.11981430
v 0.23127645 0.01321762 0.07149958
v 0.20109929 0.05998718 0.10890588
v 0.20028417 0.06115732 0.10958064
v 0.23587858 0.00895608 0.06860380
v 0.33933336 0.06115732 0.16295598
v 0.33434062 0.06115732 0.17303500
v 0.33890882 0.05652277 0.16766514
v 0.34072589 0.05652277 0.16382753
v 0.34811308 0.04604778 0.15546346
v 0.36300637 0.02199106 0.13911489
v 0.37120871 0.00895608 0.12753174
v 0.36988410 0.01206281 0.12753174
v 0.23582762 0.01136277 0.07393148
v 0.25727599 0.03051924 0.14420360
v 0.20267863 0.06115732 0.11237802
v 0.25437205 0.03564432 0.14771792
v 0.24110905 0.00895608 0.07366440
v 0.26240458 0.02945641 0.14694477
v 0.33157256 0.06115732 0.17687264
v 0.33505388 0.05652277 0.17324587
v 0.34194858 0.04883259 0.16520512
v 0.35594181 0.03185799 0.14774603
v 0.36341392 0.01808210 0.13959283
v 0.36862742 0.00895608 0.13368881
v 0.22168158 0.06115732 0.13423704
v 0.27787525 0.05999229 0.17778635
v 0.27712803 0.06115732 0.17815185
v 0.27186360 0.06115732 0.17500302
v 0.24143171 0.06069233 0.15400150
v 0.31292624 0.00895608 0.12779881
v 0.33501992 0.00895608 0.14302281
v 0.33559730 0.00895608 0.14331800
v 0.34374871 0.00895608 0.14590454
v 0.33605581 0.01288548 0.14794284
v 0.30008778 0.06007405 0.18550376
v 0.29495920 0.06069744 0.18481497
v 0.32734401 0.06115732 0.18063997
v 0.33111403 0.05652277 0.17708348
v 0.33890882 0.04883259 0.16905681
v 0.35655318 0.02577228 0.14823802
v 0.36382152 0.01039192 0.13993020
v 0.36375357 0.00895608 0.13981775
v 0.24071847 0.06115732 0.15359384
v 0.29536677 0.06115732 0.18533507
v 0.24182231 0.06115732 0.15436699
v 0.35144159 0.00895608 0.14544064
v 0.34374871 0.01212413 0.14832239
v 0.30530129 0.06115732 0.18669865
v 0.30144635 0.06115732 0.18645967
v 0.29932359 0.06115732 0.18630504
v 0.32068704 0.06115732 0.18423861
v 0.32727608 0.05652277 0.17923424
v 0.35565311 0.01372859 0.14701506
v 0.35872687 0.00895608 0.14288224
v 0.35149252 0.00895608 0.14542659
v 0.32567978 0.05211816 0.17787069
v 0.31598300 0.06115732 0.18584115
v 0.31229790 0.06115732 0.18626286
v 0.31161860 0.06001273 0.18550376
v 0.31861524 0.06115732 0.18496960
v 0.35144159 0.01274241 0.14766169
f 1 2 3
f 1 3 4
f 1 4 5
f 1 5 6
f 1 6 16
f 1 16 27
f 1 27 33
f 1 33 46
f 1 46 57
f 1 57 67
f 1 67 75
f 1 75 86
f 1 86 99
f 1 99 117
f 1 117 129
f 1 129 130
f 1 130 121
f 1 121 108
f 1 108 107
f 1 107 106
f 1 106 105
f 1 105 92
f 1 92 79
f 1 79 70
f 1 70 58
f 1 58 47
f 1 47 34
f 1 34 17
f 1 17 7
f 1 7 2
f 2 7 3
f 3 7 8
f 3 8 9
f 3 9 10
f 3 10 11
f 3 11 4
f 4 11 12
f 4 12 13
f 4 13 5
f 5 13 14
f 5 14 6
f 6 14 15
f 6 15 16
f 7 17 8
f 8 17 9
f 9 17 18
f 9 18 19
f 9 19 20
f 9 20 10
f 10 20 19
f 10 19 21
f 10 21 22
f 10 22 11
f 11 22 23
f 11 23 13
f 11 13 12
f 13 23 24
f 13 24 14
f 14 24 25
f 14 25 26
f 14 26 15
f 15 27 16
f 15 26 28
f 15 28 29
f 15 29 30
f 15 30 31
f 15 31 32
f 15 32 33
f 15 33 27
f 17 34 35
f 17 35 36
f 17 36 18
f 18 37 38
f 18 38 39
f 18 39 19
f 18 36 37
f 19 39 38
f 19 38 52
f 19 52 49
f 19 49 59
f 19 59 71
f 19 71 78
f 19 78 90
f 19 90 100
f 19 100 118
f 19 118 120
f 19 120 103
f 19 103 102
f 19 102 119
f 19 119 125
f 19 125 124
f 19 124 123
f 19 123 133
f 19 133 132
f 19 132 135
f 19 135 126
f 19 126 112
f 19 112 94
f 19 94 81
f 19 81 80
f 19 80 72
f 19 72 62
f 19 62 61
f 19 61 53
f 19 53 41
f 19 41 40
f 19 40 28
f 19 28 26
f 19 26 25
f 19 25 24
f 19 24 23
f 19 23 22
f 19 22 21
f 28 40 29
f 29 40 41
f 29 41 42
f 29 42 43
f 29 43 30
f 30 43 44
f 30 44 31
f 31 44 32
f 32 44 45
f 32 45 33
f 33 45 46
f 34 47 35
f 35 47 48
f 35 48 49
f 35 49 50
f 35 50 37
f 35 37 36
f 37 50 51
f 37 51 38
f 38 51 52
f 41 53 42
f 42 53 54
f 42 54 43
f 43 54 44
f 44 54 55
f 44 55 56
f 44 56 45
f 45 56 55
f 45 55 57
f 45 57 46
f 47 58 48
f 48 58 49
f 49 52 60
f 49 60 50
f 49 58 59
f 50 60 52
f 50 52 51
f 53 61 54
f 54 61 62
f 54 62 63
f 54 63 55
f 55 64 65
f 55 65 66
f 55 66 57
f 55 63 64
f 57 66 67
f 58 68 69
f 58 69 59
f 58 70 68
f 59 69 71
f 62 72 63
f 63 72 73
f 63 73 64
f 64 74 75
f 64 75 65
f 64 73 74
f 65 75 67
f 65 67 66
f 68 70 76
f 68 76 77
f 68 77 69
f 69 77 78
f 69 78 71
f 70 79 76
f 72 80 73
f 73 80 81
f 73 81 82
f 73 82 83
f 73 83 84
f 73 84 74
f 74 85 86
f 74 86 87
f 74 87 75
f 74 84 85
f 75 87 86
f 76 79 88
f 76 88 89
f 76 89 77
f 77 89 78
f 78 89 91
f 78 91 90
f 79 92 93
f 79 93 89
f 79 89 88
f 81 94 95
f 81 95 82
f 82 96 97
f 82 97 84
f 82 84 83
f 82 95 96
f 84 97 85
f 85 98 99
f 85 99 86
f 85 97 98
f 89 93 91
f 90 91 100
f 91 93 101
f 91 101 102
f 91 102 103
f 91 103 104
f 91 104 100
f 92 105 93
f 93 105 106
f 93 106 107
f 93 107 108
f 93 108 109
f 93 109 110
f 93 110 111
f 93 111 101
f 94 112 113
f 94 113 95
f 95 113 114
f 95 114 96
f 96 114 115
f 96 115 98
f 96 98 97
f 98 115 99
f 99 116 117
f 99 115 116
f 100 104 118
f 101 111 119
f 101 119 102
f 103 120 104
f 104 120 118
f 108 121 122
f 108 122 123
f 108 123 110
f 108 110 109
f 110 123 124
f 110 124 125
f 110 125 119
f 110 119 111
f 112 126 127
f 112 127 113
f 113 127 128
f 113 128 117
f 113 117 114
f 114 117 116
f 114 116 115
f 117 128 129
f 121 130 131
f 121 131 132
f 121 132 133
f 121 133 134
f 121 134 122
f 122 134 123
f 123 134 133
f 126 135 131
f 126 131 127
f 127 131 128
f 128 136 130
f 128 130 129
f 128 131 136
f 130 136 131
f 131 135 132

