v -0.12424663 -0.08251327 0.01702422
v -0.10795852 -0.08251327 0.00274208
v -0.12880012 -0.08251327 0.01702422
v -0.12695179 -0.10368362 0.01702422
v -0.10795852 -0.08251327 -0.00773290
v -0.12714356 -0.10498259 0.01702422
v -0.10795852 -0.15706561 -0.01390398
v -0.12880012 -0.08251327 0.00875900
v -0.12880012 -0.10990848 0.01702422
v -0.10795852 -0.08344737 -0.00831104
v -0.11402372 -0.08540312 -0.00721900
v -0.10991905 -0.08251327 -0.00696633
v -0.12834722 -0.10934656 0.01702422
v -0.11760817 -0.15706561 -0.01302607
v -0.10795852 -0.15706561 -0.02672578
v -0.12840434 -0.10971144 0.01696427
v -0.12859611 -0.10977713 0.01702422
v -0.12506675 -0.08251327 0.00474201
v -0.12880012 -0.15706561 -0.02450316
v -0.12880012 -0.15706561 -0.01310315
v -0.10795852 -0.08550529 -0.00920608
v -0.12179036 -0.08479012 0.00024967
v -0.11741027 -0.08251327 -0.00275664
v -0.11732459 -0.08251327 -0.00280803
v -0.10795852 -0.11463733 -0.02065320
v -0.11463779 -0.13058259 -0.02295290
v -0.10795852 -0.13755182 -0.02640459
v -0.10795852 -0.12208089 -0.02319700
v -0.10991905 -0.13570551 -0.02582217
v -0.10795852 -0.13570551 -0.02623758
v -0.10795852 -0.12032946 -0.02264456
v -0.10795852 -0.12801385 -0.02453742
f 1 2 5
f 1 5 12
f 1 12 24
f 1 24 23
f 1 23 18
f 1 18 8
f 1 8 3
f 1 3 9
f 1 9 17
f 1 17 13
f 1 13 6
f 1 6 4
f 1 4 2
f 2 4 6
f 2 6 7
f 2 7 15
f 2 15 27
f 2 27 30
f 2 30 32
f 2 32 28
f 2 28 31
f 2 31 25
f 2 25 21
f 2 21 10
f 2 10 5
f 3 8 19
f 3 19 20
f 3 20 9
f 5 10 11
f 5 11 12
f 6 13 7
f 7 14 20
f 7 20 19
f 7 19 15
f 7 13 16
f 7 16 17
f 7 17 9
f 7 9 14
f 8 18 19
f 9 20 14
f 10 21 11
f 11 22 23
f 11 23 24
f 11 24 12
f 11 21 25
f 11 25 26
f 11 26 19
f 11 19 22
f 13 17 16
f 15 19 27
f 18 23 22
f 18 22 19
f 19 26 28
f 19 28 29
f 19 29 30
f 19 30 27
f 25 31 26
f 26 31 28
f 28 32 29
f 29 32 30

