v -0.12880012 -0.14458869 0.03427793
v -0.14786742 -0.15786908 0.03427793
v -0.12880012 -0.16597470 0.03427793
v -0.12880012 -0.18827659 0.01014786
v -0.14786742 -0.18721761 0.01014786
v -0.14786742 -0.17230006 0.03427793
v -0.12955049 -0.16647272 0.03427793
v -0.12880012 -0.16647272 0.03403226
v -0.12880012 -0.20299952 0.01014786
v -0.14786742 -0.19943328 0.01014786
v -0.14786742 -0.17319306 0.03363777
v -0.12880012 -0.19789918 0.01381166
v -0.12880012 -0.19405244 0.01651876
v -0.14067542 -0.17262062 0.03310390
v -0.14048502 -0.17082891 0.03427793
v -0.13298690 -0.16835601 0.03427793
v -0.12880012 -0.17084608 0.03175743
v -0.13298690 -0.20306822 0.01014786
v -0.14679040 -0.19992558 0.01014786
v -0.14786742 -0.19820256 0.01150141
v -0.14786742 -0.17703407 0.03051491
v -0.12880012 -0.18076631 0.02550228
v -0.13298690 -0.17162460 0.03231492
v -0.14611469 -0.19384636 0.01646207
v -0.14067542 -0.20175736 0.01014786
v -0.14786742 -0.18555184 0.02357707
v -0.14786742 -0.19630208 0.01340535
v -0.14786742 -0.19114448 0.01847468
f 1 2 6
f 1 6 15
f 1 15 16
f 1 16 7
f 1 7 3
f 1 3 8
f 1 8 17
f 1 17 22
f 1 22 13
f 1 13 12
f 1 12 9
f 1 9 4
f 1 4 5
f 1 5 2
f 2 5 10
f 2 10 20
f 2 20 27
f 2 27 28
f 2 28 26
f 2 26 21
f 2 21 11
f 2 11 6
f 3 7 8
f 4 9 18
f 4 18 25
f 4 25 19
f 4 19 10
f 4 10 5
f 6 11 12
f 6 12 13
f 6 13 14
f 6 14 15
f 7 16 17
f 7 17 8
f 9 12 11
f 9 11 18
f 10 19 20
f 11 21 18
f 13 22 14
f 14 22 15
f 15 23 16
f 15 22 23
f 16 23 17
f 17 23 22
f 18 24 25
f 18 21 26
f 18 26 24
f 19 25 24
f 19 24 27
f 19 27 20
f 24 28 27
f 24 26 28

