v 0.08505046 -0.01267772 -0.14553258
v 0.08532937 -0.00744063 -0.14553258
v 0.08572785 -0.01676472 -0.14553258
v 0.05950902 -0.02776561 -0.11385517
v 0.08847722 -0.00263690 -0.14377555
v 0.09360743 -0.00103011 -0.14553258
v 0.05950902 0.00629049 -0.11037015
v 0.08580754 -0.01704807 -0.14553258
v 0.05950902 -0.02776561 -0.07612254
v 0.09056915 -0.02776561 -0.13952817
v 0.09062893 0.00038001 -0.14136507
v 0.09010096 0.00629049 -0.13142550
v 0.09640663 0.00629049 -0.13536067
v 0.09770163 0.00591379 -0.13673290
v 0.09770163 0.00230350 -0.14159015
v 0.13238778 0.00194680 -0.14553258
v 0.05950902 0.00629049 -0.07135967
v 0.08618607 -0.01736810 -0.14553258
v 0.05950902 -0.02501538 -0.07557074
v 0.12150976 -0.02776561 -0.11699895
v 0.09070862 -0.02776561 -0.13961530
v 0.09770163 0.00629049 -0.13602137
v 0.10539196 0.00605714 -0.13682728
v 0.10444562 0.00629049 -0.13634083
v 0.10539196 0.00629049 -0.13630453
v 0.14007811 0.00135342 -0.14553258
v 0.05950902 0.00260352 -0.07159201
v 0.06237794 0.00629049 -0.07308040
v 0.09001131 -0.01985497 -0.14553258
v 0.09791083 -0.02776561 -0.14352143
v 0.05950902 -0.00496043 -0.07258669
v 0.12711812 -0.02776561 -0.12070179
v 0.14145281 -0.02036501 -0.12897872
v 0.11251447 0.00629049 -0.13290663
v 0.16126635 -0.00127013 -0.14553258
v 0.08798912 0.00629049 -0.09036757
v 0.09382659 -0.02226183 -0.14553258
v 0.10161653 -0.02776561 -0.14511873
v 0.12726754 -0.02776561 -0.12080344
v 0.13113262 -0.02776561 -0.12359146
v 0.14040685 -0.02485204 -0.12975559
v 0.16126635 -0.01198766 -0.14318745
v 0.14170185 -0.01267772 -0.12874639
v 0.11467613 0.00629049 -0.12621248
v 0.16126635 -0.00142347 -0.14539463
v 0.16126635 -0.01560796 -0.14553258
v 0.11249455 0.00629049 -0.11852365
v 0.11025320 0.00629049 -0.11325255
v 0.10940647 0.00629049 -0.11194567
v 0.10764327 0.00629049 -0.10931738
v 0.10429618 0.00629049 -0.10498288
v 0.10040122 0.00629049 -0.10082990
v 0.09655606 0.00629049 -0.09697459
v 0.09183428 0.00629049 -0.09313381
v 0.10263260 -0.02776561 -0.14553258
v 0.13502760 -0.02776561 -0.12670619
v 0.13960992 -0.02776561 -0.13092453
v 0.16126635 -0.01433785 -0.14417487
v 0.13629271 -0.02776561 -0.12772266
v 0.16126635 -0.00922077 -0.14305676
v 0.16126635 -0.00529045 -0.14328184
v 0.14185127 -0.02776561 -0.13409735
v 0.14194092 -0.02776561 -0.13424982
v 0.14502901 -0.02776561 -0.14103109
v 0.14504893 -0.02776561 -0.14114726
v 0.14496924 -0.02776561 -0.14511873
v 0.14495927 -0.02776561 -0.14553258
f 1 2 6
f 1 6 16
f 1 16 26
f 1 26 35
f 1 35 46
f 1 46 67
f 1 67 55
f 1 55 37
f 1 37 29
f 1 29 18
f 1 18 8
f 1 8 3
f 1 3 4
f 1 4 2
f 2 5 6
f 2 4 7
f 2 7 5
f 3 8 4
f 4 9 19
f 4 19 31
f 4 31 27
f 4 27 17
f 4 17 7
f 4 8 10
f 4 10 21
f 4 21 30
f 4 30 38
f 4 38 55
f 4 55 67
f 4 67 66
f 4 66 65
f 4 65 64
f 4 64 63
f 4 63 62
f 4 62 57
f 4 57 59
f 4 59 56
f 4 56 40
f 4 40 39
f 4 39 32
f 4 32 20
f 4 20 9
f 5 7 6
f 6 7 11
f 6 11 12
f 6 12 13
f 6 13 14
f 6 14 15
f 6 15 16
f 7 17 28
f 7 28 36
f 7 36 54
f 7 54 53
f 7 53 52
f 7 52 51
f 7 51 50
f 7 50 49
f 7 49 48
f 7 48 47
f 7 47 44
f 7 44 34
f 7 34 25
f 7 25 24
f 7 24 22
f 7 22 13
f 7 13 12
f 7 12 11
f 8 18 10
f 9 20 19
f 10 18 21
f 13 22 14
f 14 22 23
f 14 23 16
f 14 16 15
f 16 23 24
f 16 24 25
f 16 25 26
f 17 27 28
f 18 29 30
f 18 30 21
f 19 20 32
f 19 32 33
f 19 33 31
f 22 24 23
f 25 34 26
f 26 34 35
f 27 31 33
f 27 33 28
f 28 33 36
f 29 37 30
f 30 37 38
f 32 39 33
f 33 39 40
f 33 40 41
f 33 41 42
f 33 42 43
f 33 43 36
f 34 44 35
f 35 45 61
f 35 61 60
f 35 60 42
f 35 42 58
f 35 58 46
f 35 44 47
f 35 47 48
f 35 48 49
f 35 49 50
f 35 50 51
f 35 51 52
f 35 52 53
f 35 53 45
f 36 43 54
f 37 55 38
f 40 56 41
f 41 57 58
f 41 58 42
f 41 56 59
f 41 59 57
f 42 60 43
f 43 60 54
f 45 53 54
f 45 54 61
f 46 58 57
f 46 57 62
f 46 62 63
f 46 63 64
f 46 64 65
f 46 65 66
f 46 66 67
f 54 60 61

