v -0.22526150 -0.02808041 0.16433919
v -0.22306775 -0.02806821 0.16397440
v -0.22306775 -0.02593260 0.16391742
v -0.22306775 -0.02113663 0.16310811
v -0.22526150 -0.02135629 0.16319929
v -0.23246760 -0.02765329 0.16388321
v -0.23246760 -0.02806821 0.16395163
v -0.23246760 -0.02808041 0.16395163
v -0.23246760 -0.03528046 0.16388321
v -0.22507134 -0.03609810 0.16324489
v -0.22306775 -0.03521945 0.16303971
v -0.22306775 -0.03401130 0.16319929
v -0.22306775 -0.02002611 0.16286872
v -0.22306775 -0.01729253 0.16161484
v -0.22526150 -0.01751220 0.16143247
v -0.23246760 -0.02301596 0.16270914
v -0.23295322 -0.02312580 0.16267493
v -0.23295322 -0.02806821 0.16391742
v -0.23295322 -0.03575640 0.16384903
v -0.23246760 -0.03578080 0.16381485
v -0.22750619 -0.04024728 0.16248117
v -0.22306775 -0.03817269 0.16210500
v -0.22306775 -0.01613321 0.16091951
v -0.22306775 -0.00903078 0.15560762
v -0.23697057 -0.02410208 0.16219619
v -0.23997595 -0.02862957 0.16268634
v -0.24487962 -0.03155840 0.16227596
v -0.24063815 -0.03575640 0.16300550
v -0.24476077 -0.03973473 0.16217339
v -0.24063815 -0.04014966 0.16237857
v -0.23295322 -0.04052796 0.16259515
v -0.23246760 -0.04051576 0.16259515
v -0.22306775 -0.03908795 0.16180863
v -0.23246760 -0.04400595 0.16064592
v -0.23246760 -0.05037617 0.15659931
v -0.22526150 -0.04966836 0.15612057
v -0.22507134 -0.04307848 0.16012158
v -0.22306775 -0.00833518 0.15467290
v -0.24596632 -0.02339428 0.15556202
v -0.25776028 -0.03091162 0.15529984
v -0.25776028 -0.03575640 0.15702107
v -0.25601479 -0.03575640 0.15787598
v -0.24882906 -0.03575640 0.16081691
v -0.24498829 -0.03575640 0.16227596
v -0.25601479 -0.04345680 0.15765942
v -0.25776028 -0.04515308 0.15656510
v -0.25776028 -0.04858226 0.15527704
v -0.25601479 -0.04899718 0.15556202
v -0.24772199 -0.04276120 0.16016718
v -0.24832647 -0.05014430 0.15640552
v -0.24063815 -0.04399375 0.16055473
v -0.23295322 -0.04437206 0.16046354
v -0.22306775 -0.03997881 0.16128427
v -0.23295322 -0.05042498 0.15662211
v -0.23246760 -0.05422027 0.15366979
v -0.22526150 -0.05352467 0.15327083
v -0.22306775 -0.05158432 0.15405735
v -0.22306775 -0.04922904 0.15578999
v -0.22306775 -0.00761518 0.15324803
v -0.25776028 -0.02751905 0.15022730
v -0.25776028 -0.03819709 0.15712367
v -0.25776028 -0.04345680 0.15696407
v -0.25776028 -0.05379314 0.15134439
v -0.25601479 -0.05284127 0.15280347
v -0.24832647 -0.05398840 0.15356719
v -0.24063815 -0.05055922 0.15671330
v -0.23295322 -0.05426908 0.15369259
v -0.23008708 -0.06254304 0.14660245
v -0.22526150 -0.05827182 0.14942939
v -0.22306775 -0.05789351 0.14909882
v -0.22306775 -0.00639483 0.15063768
v -0.22306775 -0.00585788 0.14891644
v -0.25776028 -0.02531022 0.14290919
v -0.25776028 -0.05690503 0.14862005
v -0.25601479 -0.05725893 0.14896204
v -0.24832647 -0.05830843 0.14971435
v -0.24368087 -0.06256744 0.14664805
v -0.23855645 -0.06281151 0.14689882
v -0.24063815 -0.05440332 0.15378378
v -0.23521829 -0.06281151 0.14689882
v -0.23246760 -0.06267728 0.14673924
v -0.22526150 -0.06211591 0.14621487
v -0.22306775 -0.07740688 0.13080354
v -0.22306775 -0.06172540 0.14595272
v -0.22306775 -0.00490600 0.14289780
v -0.25776028 -0.02374818 0.13371026
v -0.25776028 -0.06065150 0.14455064
v -0.25601479 -0.06110303 0.14493820
v -0.24832647 -0.06215253 0.14620349
v -0.24832647 -0.06534984 0.14235064
v -0.24063815 -0.07287938 0.13455379
v -0.23295322 -0.08048216 0.12666571
v -0.23246760 -0.08050656 0.12669992
v -0.22526150 -0.08472896 0.12255071
v -0.22526150 -0.08087267 0.12705330
v -0.22526150 -0.07751671 0.13089473
v -0.22306775 -0.08087267 0.12696211
v -0.22306775 -0.00695619 0.13740352
v -0.25776028 -0.02349190 0.12265329
v -0.25776028 -0.02300377 0.12748644
v -0.25776028 -0.06185964 0.14317137
v -0.25601479 -0.06433695 0.14108538
v -0.24832647 -0.06916953 0.13757449
v -0.23295322 -0.08432624 0.12190098
v -0.22526150 -0.09489446 0.11017147
v -0.22526150 -0.09179478 0.11400152
v -0.22526150 -0.08793848 0.11870928
v -0.22306775 -0.09185580 0.11411551
v -0.22306775 -0.08801170 0.11870928
v -0.22306775 -0.08470456 0.12255071
v -0.22306775 -0.01955018 0.11215489
v -0.22306775 -0.02262545 0.10718495
v -0.22306775 -0.02290614 0.10695698
v -0.25776028 -0.02836110 0.11883465
v -0.25776028 -0.06397084 0.14065220
v -0.25658530 -0.06846172 0.13518072
v -0.25440512 -0.07121970 0.13259317
v -0.24832647 -0.07212277 0.13373306
v -0.23295322 -0.09419886 0.10932795
v -0.24063815 -0.07977435 0.12592479
v -0.23295322 -0.08735271 0.11805952
v -0.23246760 -0.09124562 0.11322639
v -0.22306775 -0.10715896 0.09456634
v -0.22306775 -0.09886059 0.10536113
v -0.22306775 -0.09500430 0.11027407
v -0.25776028 -0.02987432 0.11783154
v -0.22306775 -0.10289994 0.05541100
v -0.25776028 -0.06894986 0.09194458
v -0.25776028 -0.06910851 0.13357348
v -0.25776028 -0.07202514 0.12935587
v -0.25223515 -0.07805366 0.12372479
v -0.24488642 -0.08587609 0.11621291
v -0.23736109 -0.09362530 0.10860982
v -0.22306775 -0.10962406 0.09098707
v -0.22306775 -0.10460843 0.05433951
v -0.22306775 -0.10663421 0.05321101
v -0.25776028 -0.07241565 0.09020054
v -0.25776028 -0.07902994 0.11825331
v -0.25528467 -0.07942045 0.11952998
v -0.25001084 -0.08489980 0.11451447
v -0.22306775 -0.12293806 0.07147210
v -0.22306775 -0.11766615 0.07924617
v -0.22306775 -0.10731761 0.05286905
v -0.25776028 -0.07461227 0.08984718
v -0.22856232 -0.11028305 0.05485246
v -0.22929243 -0.11539631 0.05427111
v -0.25776028 -0.08261776 0.11206370
v -0.25607591 -0.08364285 0.11202949
v -0.22915999 -0.11650683 0.07760472
v -0.22306775 -0.12598893 0.06601202
v -0.22306775 -0.11269934 0.05047527
v -0.25776028 -0.08050656 0.08901505
v -0.22306775 -0.11537190 0.04931259
v -0.22306775 -0.12141262 0.04788772
v -0.22929243 -0.11705598 0.05427111
v -0.25776028 -0.08459472 0.10811966
v -0.22332923 -0.12583029 0.06602342
v -0.22306775 -0.12903980 0.05818095
v -0.25336258 -0.08956154 0.08372595
v -0.25776028 -0.08187335 0.08919745
v -0.22306775 -0.12362145 0.04788772
v -0.22306775 -0.12800250 0.05143279
v -0.23033837 -0.11849599 0.05834053
v -0.25243212 -0.09380835 0.08459228
v -0.25776028 -0.08764560 0.09099847
v -0.25776028 -0.08587609 0.10524713
v -0.23809800 -0.10992914 0.07983891
v -0.22306775 -0.12957675 0.05676748
v -0.25776028 -0.08654728 0.09062230
v -0.22306775 -0.12957675 0.05651671
v -0.22823970 -0.12234008 0.05834053
v -0.25266643 -0.09401581 0.08909484
v -0.25776028 -0.08781644 0.09470312
v -0.25776028 -0.08662050 0.10255698
v -0.25256795 -0.09380835 0.09399639
v -0.25776028 -0.08785305 0.09672073
f 1 2 3
f 1 3 4
f 1 4 5
f 1 5 6
f 1 6 7
f 1 7 8
f 1 8 9
f 1 9 10
f 1 10 11
f 1 11 12
f 1 12 2
f 2 12 11
f 2 11 22
f 2 22 33
f 2 33 53
f 2 53 58
f 2 58 57
f 2 57 70
f 2 70 84
f 2 84 83
f 2 83 97
f 2 97 110
f 2 110 109
f 2 109 108
f 2 108 125
f 2 125 124
f 2 124 123
f 2 123 134
f 2 134 142
f 2 142 141
f 2 141 150
f 2 150 158
f 2 158 168
f 2 168 170
f 2 170 162
f 2 162 161
f 2 161 154
f 2 154 153
f 2 153 151
f 2 151 143
f 2 143 136
f 2 136 135
f 2 135 127
f 2 127 113
f 2 113 112
f 2 112 111
f 2 111 98
f 2 98 85
f 2 85 72
f 2 72 71
f 2 71 59
f 2 59 38
f 2 38 24
f 2 24 23
f 2 23 14
f 2 14 13
f 2 13 4
f 2 4 3
f 4 13 5
f 5 13 14
f 5 14 15
f 5 15 16
f 5 16 6
f 6 16 17
f 6 17 18
f 6 18 7
f 7 18 8
f 8 18 19
f 8 19 9
f 9 19 20
f 9 20 10
f 10 20 21
f 10 21 22
f 10 22 11
f 14 23 15
f 15 23 24
f 15 24 25
f 15 25 17
f 15 17 16
f 17 25 18
f 18 25 26
f 18 26 27
f 18 27 28
f 18 28 19
f 19 28 29
f 19 29 30
f 19 30 31
f 19 31 32
f 19 32 21
f 19 21 20
f 21 33 22
f 21 32 34
f 21 34 35
f 21 35 36
f 21 36 37
f 21 37 33
f 24 38 39
f 24 39 25
f 25 39 40
f 25 40 27
f 25 27 26
f 27 40 41
f 27 41 42
f 27 42 43
f 27 43 44
f 27 44 28
f 28 44 29
f 29 44 43
f 29 43 45
f 29 45 46
f 29 46 47
f 29 47 48
f 29 48 49
f 29 49 50
f 29 50 51
f 29 51 30
f 30 51 31
f 31 51 52
f 31 52 32
f 32 52 34
f 33 37 53
f 34 52 54
f 34 54 35
f 35 54 67
f 35 67 55
f 35 55 56
f 35 56 36
f 36 56 57
f 36 57 58
f 36 58 37
f 37 58 53
f 38 59 60
f 38 60 39
f 39 60 40
f 40 60 73
f 40 73 86
f 40 86 100
f 40 100 99
f 40 99 114
f 40 114 126
f 40 126 128
f 40 128 137
f 40 137 144
f 40 144 152
f 40 152 160
f 40 160 169
f 40 169 165
f 40 165 173
f 40 173 176
f 40 176 174
f 40 174 166
f 40 166 156
f 40 156 147
f 40 147 138
f 40 138 130
f 40 130 129
f 40 129 115
f 40 115 101
f 40 101 87
f 40 87 74
f 40 74 63
f 40 63 47
f 40 47 46
f 40 46 62
f 40 62 61
f 40 61 41
f 41 61 42
f 42 61 43
f 43 61 62
f 43 62 45
f 45 62 46
f 47 63 64
f 47 64 48
f 48 50 49
f 48 64 50
f 50 64 65
f 50 65 66
f 50 66 51
f 51 66 52
f 52 66 54
f 54 66 79
f 54 79 67
f 55 67 68
f 55 68 69
f 55 69 56
f 56 69 70
f 56 70 57
f 59 71 60
f 60 71 72
f 60 72 73
f 63 74 75
f 63 75 64
f 64 75 65
f 65 75 76
f 65 76 77
f 65 77 78
f 65 78 79
f 65 79 66
f 67 79 80
f 67 80 81
f 67 81 68
f 68 82 69
f 68 81 83
f 68 83 82
f 69 82 84
f 69 84 70
f 72 85 86
f 72 86 73
f 74 87 88
f 74 88 75
f 75 88 89
f 75 89 76
f 76 89 77
f 77 90 91
f 77 91 92
f 77 92 93
f 77 93 94
f 77 94 78
f 77 89 90
f 78 80 79
f 78 94 95
f 78 95 96
f 78 96 80
f 80 96 83
f 80 83 81
f 82 83 84
f 83 96 97
f 85 98 99
f 85 99 100
f 85 100 86
f 87 101 88
f 88 101 102
f 88 102 89
f 89 102 90
f 90 102 103
f 90 103 104
f 90 104 92
f 90 92 91
f 92 104 105
f 92 105 106
f 92 106 107
f 92 107 93
f 93 107 94
f 94 107 108
f 94 108 109
f 94 109 95
f 95 109 110
f 95 110 97
f 95 97 96
f 98 111 99
f 99 111 112
f 99 112 113
f 99 113 114
f 101 115 102
f 102 115 116
f 102 116 117
f 102 117 118
f 102 118 103
f 103 118 119
f 103 119 120
f 103 120 104
f 104 120 121
f 104 121 122
f 104 122 105
f 105 122 119
f 105 119 123
f 105 123 124
f 105 124 125
f 105 125 106
f 106 125 107
f 107 125 108
f 113 126 114
f 113 127 128
f 113 128 126
f 115 129 116
f 116 129 117
f 117 129 130
f 117 130 131
f 117 131 132
f 117 132 133
f 117 133 118
f 118 133 119
f 119 122 120
f 119 133 123
f 120 122 121
f 123 133 134
f 127 135 128
f 128 135 136
f 128 136 137
f 130 138 139
f 130 139 131
f 131 139 140
f 131 140 132
f 132 140 141
f 132 141 133
f 133 141 142
f 133 142 134
f 136 143 137
f 137 143 145
f 137 145 146
f 137 146 144
f 138 147 148
f 138 148 139
f 139 148 140
f 140 148 149
f 140 149 141
f 141 149 150
f 143 151 145
f 144 146 152
f 145 151 153
f 145 153 154
f 145 154 146
f 146 154 161
f 146 161 155
f 146 155 152
f 147 156 148
f 148 156 157
f 148 157 150
f 148 150 149
f 150 157 158
f 152 159 160
f 152 155 159
f 155 161 162
f 155 162 163
f 155 163 164
f 155 164 165
f 155 165 159
f 156 166 157
f 157 167 158
f 157 166 167
f 158 167 168
f 159 165 169
f 159 169 160
f 162 170 171
f 162 171 164
f 162 164 163
f 164 171 170
f 164 170 165
f 165 170 172
f 165 172 173
f 166 174 175
f 166 175 167
f 167 175 168
f 168 175 176
f 168 176 172
f 168 172 170
f 172 176 173
f 174 176 175

