v 0.11467918 0.00629049 -0.12620493
v 0.11249253 0.00629049 -0.11852046
v 0.11251751 0.00629049 -0.13289698
v 0.05806369 0.06115731 -0.08007131
v 0.05936319 0.06115731 -0.07238684
v 0.05791375 0.06115731 -0.06483649
v 0.11024339 0.00629049 -0.11324997
v 0.05608946 0.06115731 -0.05976715
v 0.11084316 0.00629049 -0.13370164
v 0.05603948 0.06084582 -0.08449692
v 0.05573959 0.06115731 -0.08420188
v 0.05635186 0.06115731 -0.08324970
v 0.10939374 0.00629049 -0.11193569
v 0.04974192 0.06115731 -0.05106345
v 0.10763191 0.00629049 -0.10930715
v 0.10538279 0.00629049 -0.13630337
v 0.05452757 0.06115731 -0.08476514
v 0.04564352 0.06115731 -0.04721452
v 0.09654873 0.00629049 -0.09696909
v 0.10039723 0.00629049 -0.10081803
v 0.10428322 0.00629049 -0.10497542
v 0.10443316 0.00629049 -0.13634360
v 0.04613084 0.06115731 -0.08666949
v 0.05155373 0.06115731 -0.08593189
v 0.05250336 0.06115731 -0.08558320
v 0.04180751 0.06115731 -0.04399589
v 0.09182556 0.00629049 -0.09312015
v -0.01297119 0.05272535 0.00030044
v 0.09768579 0.00629049 -0.13602174
v 0.04380674 0.06115731 -0.08650856
v -0.01112191 0.06115731 -0.00077244
v -0.01297119 0.05740858 0.00066253
v -0.01070956 0.00629049 -0.01521603
v -0.01297119 0.00629049 -0.01384811
v -0.01260883 0.00629049 -0.01406269
v -0.01122187 0.00629049 -0.01489416
v 0.09638629 0.00629049 -0.13535119
v 0.03218625 0.06052358 -0.08400072
v 0.03459782 0.06115731 -0.08444327
v 0.03677197 0.06115731 -0.08512723
v 0.04586844 0.05362226 -0.09230208
v -0.01297119 0.06115731 0.00059547
v -0.01297119 0.00629049 -0.06517176
v 0.09008875 0.00629049 -0.13142178
v -0.01297119 0.04054466 -0.06219453
v 0.04324446 0.03346074 -0.09763963
v 0.04460642 0.04046410 -0.09688862
v 0.03929599 0.04674242 -0.09220821
v 0.03154900 0.06115731 -0.08331676
v 0.03108668 0.05652242 -0.08463103
v 0.02723818 0.05652242 -0.08233776
v -0.01297119 0.06115731 -0.05644124
v -0.01297119 0.01426057 -0.06494378
v -0.01297119 0.03346074 -0.06320035
v -0.01297119 0.04406245 -0.06134964
v 0.03843382 0.04114618 -0.09301286
v -0.01297119 0.05968575 -0.05687039
f 1 2 7
f 1 7 13
f 1 13 15
f 1 15 21
f 1 21 20
f 1 20 19
f 1 19 27
f 1 27 33
f 1 33 36
f 1 36 35
f 1 35 34
f 1 34 43
f 1 43 44
f 1 44 37
f 1 37 29
f 1 29 22
f 1 22 16
f 1 16 9
f 1 9 3
f 1 3 4
f 1 4 5
f 1 5 6
f 1 6 2
f 2 6 8
f 2 8 7
f 3 9 10
f 3 10 11
f 3 11 12
f 3 12 4
f 4 12 11
f 4 11 17
f 4 17 25
f 4 25 24
f 4 24 23
f 4 23 30
f 4 30 40
f 4 40 39
f 4 39 49
f 4 49 52
f 4 52 42
f 4 42 31
f 4 31 26
f 4 26 18
f 4 18 14
f 4 14 8
f 4 8 6
f 4 6 5
f 7 8 13
f 8 14 15
f 8 15 13
f 9 16 10
f 10 17 11
f 10 16 17
f 14 18 19
f 14 19 20
f 14 20 21
f 14 21 15
f 16 22 23
f 16 23 24
f 16 24 25
f 16 25 17
f 18 26 19
f 19 26 28
f 19 28 27
f 22 29 23
f 23 29 30
f 26 31 32
f 26 32 28
f 27 28 33
f 28 32 42
f 28 42 52
f 28 52 57
f 28 57 55
f 28 55 45
f 28 45 54
f 28 54 53
f 28 53 43
f 28 43 34
f 28 34 35
f 28 35 36
f 28 36 33
f 29 37 38
f 29 38 39
f 29 39 40
f 29 40 41
f 29 41 30
f 30 41 40
f 31 42 32
f 37 44 45
f 37 45 46
f 37 46 47
f 37 47 48
f 37 48 38
f 38 49 39
f 38 48 50
f 38 50 51
f 38 51 52
f 38 52 49
f 43 53 44
f 44 53 54
f 44 54 45
f 45 55 48
f 45 48 56
f 45 56 47
f 45 47 46
f 47 56 48
f 48 51 50
f 48 55 51
f 51 55 57
f 51 57 52

