v 0.15129567 0.13547898 0.15143773
v 0.15153189 0.13816211 0.15363547
v 0.15619711 0.13547898 0.15147721
v 0.14724067 0.13547898 0.15171410
v 0.08578564 0.16492139 0.17713945
v 0.15153189 0.14200669 0.15760981
v 0.15922854 0.13781339 0.15391182
v 0.15922854 0.13547898 0.15171410
v 0.14178806 0.13547898 0.15308276
v 0.08232117 0.16492139 0.17756058
v 0.12846165 0.16492139 0.18023206
v 0.15153189 0.14556018 0.16145257
v 0.15668922 0.14531233 0.16174211
v 0.12895375 0.16492139 0.18027155
v 0.13615829 0.16105664 0.17675781
v 0.16355911 0.13744161 0.15425400
v 0.16491735 0.13547898 0.15259582
v 0.16287016 0.13547898 0.15226681
v 0.13974087 0.13547898 0.15420136
v 0.07995903 0.16492139 0.17900819
v 0.15924823 0.14754011 0.16547957
v 0.16182688 0.14461201 0.16258435
v 0.14147311 0.16065029 0.17716576
v 0.14661077 0.16010847 0.17785009
v 0.13615829 0.16492139 0.18139016
v 0.17161009 0.15303895 0.17700783
v 0.16995659 0.13547898 0.15466196
v 0.13336308 0.13547898 0.16063665
v 0.08076609 0.16492139 0.18124540
v 0.13094190 0.13547898 0.16599282
v 0.13037105 0.13547898 0.17367833
v 0.13667009 0.16492139 0.18148228
v 0.14172900 0.16492139 0.18279828
v 0.18052717 0.13547898 0.16017603
v 0.17460214 0.13547898 0.15692551
v 0.14714224 0.16492139 0.18485127
v 0.15922854 0.16112869 0.18418011
v 0.16318511 0.16045431 0.18508815
v 0.24828122 0.16492139 0.24634851
v 0.27190265 0.13778169 0.21531696
v 0.08531320 0.16492139 0.19219463
v 0.09824593 0.15831587 0.19674803
v 0.13432764 0.13547898 0.18112696
v 0.13100094 0.13653091 0.17952142
v 0.27359553 0.13547898 0.21348768
v 0.15574438 0.16492139 0.18911516
v 0.15922854 0.16401644 0.18906252
v 0.25172603 0.16492139 0.25004650
v 0.25603694 0.16085490 0.24570367
v 0.26891060 0.14439010 0.22491067
v 0.17233842 0.16492139 0.19927476
v 0.27702062 0.13668077 0.21747522
v 0.27802452 0.13547898 0.21644871
v 0.08763598 0.16492139 0.19674803
v 0.09942700 0.15914300 0.20261743
v 0.10848187 0.15219452 0.19423445
v 0.13519374 0.13547898 0.18231137
v 0.25192287 0.16492139 0.25066503
v 0.25660778 0.16153794 0.25055976
v 0.26373358 0.15319745 0.23778128
v 0.27887096 0.13770388 0.22258134
v 0.27139085 0.14554577 0.23004313
v 0.28068193 0.13547898 0.22093633
v 0.09251774 0.16492139 0.20419665
v 0.13647325 0.15469032 0.22710842
v 0.12891439 0.15836198 0.22730581
v 0.12357989 0.15949173 0.22462115
v 0.10220251 0.16071080 0.20774989
v 0.09720265 0.16198464 0.20488099
v 0.15509478 0.13709290 0.20859213
v 0.15932696 0.13547898 0.20830261
v 0.25310396 0.16492139 0.25745564
v 0.25306458 0.16492139 0.25824527
v 0.25625347 0.16146300 0.25824527
v 0.27170580 0.14601842 0.23517557
v 0.27906781 0.13802090 0.22749006
v 0.28103626 0.13547898 0.22729267
v 0.09757666 0.16492139 0.20873688
v 0.19353863 0.15255189 0.26991829
v 0.18227910 0.15898737 0.27126060
v 0.17828314 0.16020646 0.26991829
v 0.13176865 0.15993267 0.23179341
v 0.21479788 0.13547898 0.24912529
v 0.25123392 0.16492139 0.26558860
v 0.25558418 0.16075403 0.26260125
v 0.26308399 0.15277092 0.25456042
v 0.27135147 0.14578498 0.24083443
v 0.27881189 0.13783357 0.23253037
v 0.27940245 0.13547898 0.23388589
v 0.13615829 0.16492139 0.23999217
v 0.21973870 0.13547898 0.25216527
v 0.22103787 0.13547898 0.25278380
v 0.22072294 0.14559188 0.26874702
v 0.21686476 0.15263835 0.27747218
v 0.19765270 0.15911706 0.27869608
v 0.19288903 0.15990385 0.27785382
v 0.19064500 0.15672213 0.27333991
v 0.18775137 0.16132179 0.27674839
v 0.18194445 0.16400203 0.27531392
v 0.17527140 0.16473695 0.27131326
v 0.17497614 0.16492139 0.27123429
v 0.24855683 0.16492139 0.27086582
v 0.25217876 0.16366196 0.26547015
v 0.25648967 0.15648869 0.26377251
v 0.24875367 0.16417784 0.27110270
v 0.26369420 0.14880242 0.25554743
v 0.27788675 0.13583059 0.23764966
v 0.27818199 0.13547898 0.23729434
v 0.23609652 0.13547898 0.25785045
v 0.22629364 0.14506160 0.26962877
v 0.22072294 0.15259800 0.27751167
v 0.22072294 0.15648869 0.28076222
v 0.21302630 0.16168492 0.28444704
v 0.21379398 0.15613708 0.27998576
v 0.20534934 0.15803920 0.27982786
v 0.23141161 0.14490597 0.26983933
v 0.20534934 0.16267920 0.28367061
v 0.19017258 0.16400203 0.27959098
v 0.19781016 0.16463896 0.28278886
v 0.18796790 0.16492139 0.27918299
v 0.18283024 0.16492139 0.27651151
v 0.18147203 0.16492139 0.27561661
v 0.17542889 0.16492139 0.27155015
v 0.24586004 0.16492139 0.27398475
v 0.26113522 0.14880242 0.25939019
v 0.25385195 0.15648869 0.26761527
v 0.24542697 0.16417784 0.27494545
v 0.25001349 0.15648869 0.27205023
v 0.27121367 0.13894601 0.24736184
v 0.27753241 0.13547898 0.23832085
v 0.24379316 0.13547898 0.25827158
v 0.23609652 0.13799496 0.26114049
v 0.22519132 0.15258935 0.27752484
v 0.22802588 0.15582583 0.27980154
v 0.22072294 0.16188089 0.28456551
v 0.20534934 0.16492139 0.28497347
v 0.21302630 0.16492139 0.28586834
v 0.23273047 0.14490597 0.26983933
v 0.19806607 0.16492139 0.28305209
v 0.19103869 0.16492139 0.28044638
v 0.24145071 0.16492139 0.27855132
v 0.25729673 0.14880242 0.26408835
v 0.24156882 0.16417784 0.27861713
v 0.24135229 0.15869918 0.27831444
v 0.24936389 0.15101291 0.27114219
v 0.27119401 0.13547898 0.24730921
v 0.27465848 0.13547898 0.24258471
v 0.25147012 0.13547898 0.25754776
v 0.23032898 0.15282280 0.27732742
v 0.23609652 0.15347413 0.27695895
v 0.23609652 0.15731870 0.27943305
v 0.22395119 0.16492139 0.28518403
v 0.22072294 0.16492139 0.28563145
v 0.22847863 0.16420953 0.28415752
v 0.23784844 0.14521146 0.26953665
v 0.23680516 0.16492139 0.28107805
v 0.25666682 0.14381370 0.26300923
v 0.26359578 0.13658855 0.25487628
v 0.26408789 0.14111327 0.25578432
v 0.23609652 0.16417784 0.28159131
v 0.24379316 0.14969007 0.27231343
v 0.26471780 0.13547898 0.25331022
v 0.25916676 0.13547898 0.25570537
v 0.24379316 0.14584550 0.26897076
v 0.23560441 0.14818567 0.27247136
v 0.22778965 0.16492139 0.28453917
v 0.23609652 0.16492139 0.28142023
v 0.25916676 0.13558850 0.25579746
v 0.26259188 0.13547898 0.25436302
f 1 2 3
f 1 3 8
f 1 8 18
f 1 18 17
f 1 17 27
f 1 27 35
f 1 35 34
f 1 34 45
f 1 45 53
f 1 53 63
f 1 63 77
f 1 77 89
f 1 89 108
f 1 108 130
f 1 130 147
f 1 147 146
f 1 146 162
f 1 162 169
f 1 169 163
f 1 163 148
f 1 148 131
f 1 131 109
f 1 109 92
f 1 92 91
f 1 91 83
f 1 83 71
f 1 71 57
f 1 57 43
f 1 43 31
f 1 31 30
f 1 30 28
f 1 28 19
f 1 19 9
f 1 9 4
f 1 4 5
f 1 5 2
f 2 6 7
f 2 7 8
f 2 8 3
f 2 5 6
f 4 9 10
f 4 10 5
f 5 10 20
f 5 20 29
f 5 29 41
f 5 41 54
f 5 54 64
f 5 64 78
f 5 78 90
f 5 90 101
f 5 101 123
f 5 123 122
f 5 122 121
f 5 121 120
f 5 120 140
f 5 140 139
f 5 139 136
f 5 136 137
f 5 137 153
f 5 153 152
f 5 152 166
f 5 166 167
f 5 167 156
f 5 156 141
f 5 141 124
f 5 124 102
f 5 102 84
f 5 84 73
f 5 73 72
f 5 72 58
f 5 58 48
f 5 48 39
f 5 39 51
f 5 51 46
f 5 46 36
f 5 36 33
f 5 33 32
f 5 32 25
f 5 25 14
f 5 14 11
f 5 11 6
f 6 12 13
f 6 13 7
f 6 11 14
f 6 14 15
f 6 15 12
f 7 13 16
f 7 16 17
f 7 17 18
f 7 18 8
f 9 19 10
f 10 19 20
f 12 15 13
f 13 21 22
f 13 22 16
f 13 15 23
f 13 23 24
f 13 24 21
f 14 25 15
f 15 25 23
f 16 22 26
f 16 26 27
f 16 27 17
f 19 28 20
f 20 28 30
f 20 30 31
f 20 31 29
f 21 26 22
f 21 24 26
f 23 25 32
f 23 32 33
f 23 33 24
f 24 33 26
f 26 34 35
f 26 35 27
f 26 33 36
f 26 36 37
f 26 37 38
f 26 38 39
f 26 39 40
f 26 40 34
f 29 31 42
f 29 42 41
f 31 43 44
f 31 44 42
f 34 40 45
f 36 46 47
f 36 47 37
f 37 47 38
f 38 47 39
f 39 48 49
f 39 49 50
f 39 50 40
f 39 47 51
f 40 50 52
f 40 52 53
f 40 53 45
f 41 42 55
f 41 55 54
f 42 56 55
f 42 44 56
f 43 57 55
f 43 55 44
f 44 55 56
f 46 51 47
f 48 58 49
f 49 58 59
f 49 59 60
f 49 60 50
f 50 60 52
f 52 61 53
f 52 60 62
f 52 62 61
f 53 61 63
f 54 55 64
f 55 65 66
f 55 66 67
f 55 67 68
f 55 68 69
f 55 69 64
f 55 57 70
f 55 70 65
f 57 71 70
f 58 72 59
f 59 72 73
f 59 73 74
f 59 74 75
f 59 75 62
f 59 62 60
f 61 75 76
f 61 76 63
f 61 62 75
f 63 76 77
f 64 69 78
f 65 70 79
f 65 79 66
f 66 79 80
f 66 80 81
f 66 81 67
f 67 82 78
f 67 78 68
f 67 81 82
f 68 78 69
f 70 71 79
f 71 83 79
f 73 84 74
f 74 85 86
f 74 86 87
f 74 87 75
f 74 84 85
f 75 87 88
f 75 88 76
f 76 88 77
f 77 88 89
f 78 82 81
f 78 81 90
f 79 83 91
f 79 91 92
f 79 92 93
f 79 93 94
f 79 94 95
f 79 95 96
f 79 96 97
f 79 97 80
f 80 97 98
f 80 98 81
f 81 98 99
f 81 99 100
f 81 100 101
f 81 101 90
f 84 102 103
f 84 103 85
f 85 104 86
f 85 103 102
f 85 102 105
f 85 105 104
f 86 104 106
f 86 106 107
f 86 107 88
f 86 88 87
f 88 107 108
f 88 108 89
f 92 109 93
f 93 109 110
f 93 110 94
f 94 111 112
f 94 112 113
f 94 113 114
f 94 114 115
f 94 115 95
f 94 110 116
f 94 116 111
f 95 115 117
f 95 117 96
f 96 118 98
f 96 98 97
f 96 117 119
f 96 119 118
f 98 118 120
f 98 120 121
f 98 121 99
f 99 121 122
f 99 122 123
f 99 123 100
f 100 123 101
f 102 124 105
f 104 125 106
f 104 105 126
f 104 126 125
f 105 124 127
f 105 127 128
f 105 128 126
f 106 129 107
f 106 125 129
f 107 129 108
f 108 129 130
f 109 131 132
f 109 132 116
f 109 116 110
f 111 133 112
f 111 116 133
f 112 133 134
f 112 134 135
f 112 135 113
f 113 136 117
f 113 117 115
f 113 115 114
f 113 135 137
f 113 137 136
f 116 132 131
f 116 131 138
f 116 138 133
f 117 136 139
f 117 139 119
f 118 140 120
f 118 119 139
f 118 139 140
f 124 141 127
f 125 126 142
f 125 142 129
f 126 128 142
f 127 141 143
f 127 143 128
f 128 143 144
f 128 144 145
f 128 145 142
f 129 142 146
f 129 146 147
f 129 147 130
f 131 148 138
f 133 138 149
f 133 149 134
f 134 149 150
f 134 150 151
f 134 151 135
f 135 152 153
f 135 153 137
f 135 151 154
f 135 154 152
f 138 148 155
f 138 155 149
f 141 156 143
f 142 145 157
f 142 157 158
f 142 158 159
f 142 159 146
f 143 156 160
f 143 160 144
f 144 160 154
f 144 154 151
f 144 151 145
f 145 151 161
f 145 161 157
f 146 159 158
f 146 158 162
f 148 163 164
f 148 164 155
f 149 155 165
f 149 165 150
f 150 155 161
f 150 161 151
f 150 165 155
f 152 154 166
f 154 160 166
f 155 164 161
f 156 167 160
f 157 168 158
f 157 161 168
f 158 168 169
f 158 169 162
f 160 167 166
f 161 164 163
f 161 163 168
f 163 169 168

