v -0.12880012 -0.22972525 -0.05272721
v -0.13121177 -0.22972525 -0.05154553
v -0.13028593 -0.18717726 -0.03844246
v -0.12930970 -0.18717726 -0.03883020
v -0.12880012 -0.18717726 -0.03902714
v -0.12880012 -0.22972525 -0.01458120
v -0.13213200 -0.22972525 -0.05096700
v -0.13732301 -0.22346904 -0.04574793
v -0.13596226 -0.18717726 -0.03498359
v -0.12880012 -0.18717726 -0.02837974
v -0.12880012 -0.22704700 -0.01160854
v -0.14576563 -0.20156819 0.00886154
v -0.14786742 -0.20459214 0.00449180
v -0.14786742 -0.20483373 0.00422100
v -0.13298690 -0.22972525 -0.01686454
v -0.13731555 -0.22972525 -0.04760045
v -0.14520192 -0.21542595 -0.03822089
v -0.14048689 -0.18717726 -0.03201709
v -0.14610535 -0.18717726 -0.01585519
v -0.14786742 -0.18722308 0.01014785
v -0.12880012 -0.18828523 0.01014785
v -0.12880012 -0.22350237 -0.00771270
v -0.13298690 -0.21521770 -0.00069035
v -0.14067542 -0.20241790 0.00956316
v -0.14679040 -0.19993124 0.01014785
v -0.14786742 -0.19943974 0.01014785
v -0.14786742 -0.21093165 -0.00307215
v -0.14330919 -0.22353567 -0.01546746
v -0.13354875 -0.22972525 -0.01719074
v -0.14112714 -0.22972525 -0.04377231
v -0.14571150 -0.22029095 -0.03892251
v -0.14786742 -0.21288932 -0.03530978
v -0.14786742 -0.20548767 -0.03286642
v -0.14392144 -0.18717726 -0.02953064
v -0.14657947 -0.18717726 -0.01552901
v -0.14786742 -0.18717726 -0.01464890
v -0.12880012 -0.20300104 0.01014785
v -0.12880012 -0.21568836 -0.00017336
v -0.13298690 -0.21137316 0.00300855
v -0.14067542 -0.20175978 0.01014785
v -0.13298690 -0.20707465 0.00685516
v -0.14786742 -0.21833330 -0.01252558
v -0.14618562 -0.22553501 -0.02059421
v -0.13883122 -0.22972525 -0.02037881
v -0.14503766 -0.22972525 -0.03854709
v -0.14531018 -0.22798001 -0.03886097
v -0.14786742 -0.22034510 -0.03614065
v -0.14786742 -0.21320587 -0.03538364
v -0.14786742 -0.20212632 -0.03166012
v -0.14786742 -0.18717726 -0.02614563
v -0.13298690 -0.20307185 0.01014785
v -0.12880012 -0.20326344 0.00996322
v -0.12880012 -0.21184384 0.00317472
v -0.13298690 -0.20323011 0.01002476
v -0.14786742 -0.22301087 -0.01895710
v -0.14585523 -0.22972525 -0.02818895
v -0.14393077 -0.22972525 -0.02553018
v -0.14166471 -0.22972525 -0.02287140
v -0.14595416 -0.22972525 -0.03572829
v -0.14786742 -0.22362733 -0.03588831
v -0.12880012 -0.20710795 0.00701518
v -0.14786742 -0.22439790 -0.02173896
v -0.14679599 -0.22805082 -0.02689649
v -0.14786742 -0.22671794 -0.02674262
v -0.14592803 -0.22972525 -0.02981991
v -0.14597096 -0.22972525 -0.03394347
v -0.14786742 -0.22677208 -0.03219557
v -0.14786742 -0.22543087 -0.03385731
f 1 2 3
f 1 3 4
f 1 4 5
f 1 5 10
f 1 10 21
f 1 21 37
f 1 37 52
f 1 52 61
f 1 61 53
f 1 53 38
f 1 38 22
f 1 22 11
f 1 11 6
f 1 6 15
f 1 15 29
f 1 29 44
f 1 44 58
f 1 58 57
f 1 57 56
f 1 56 65
f 1 65 66
f 1 66 59
f 1 59 45
f 1 45 30
f 1 30 16
f 1 16 7
f 1 7 2
f 2 7 8
f 2 8 9
f 2 9 3
f 3 9 18
f 3 18 34
f 3 34 50
f 3 50 36
f 3 36 35
f 3 35 19
f 3 19 10
f 3 10 5
f 3 5 4
f 6 11 12
f 6 12 13
f 6 13 14
f 6 14 15
f 7 16 8
f 8 16 17
f 8 17 9
f 9 17 18
f 10 19 20
f 10 20 21
f 11 22 12
f 12 23 24
f 12 24 25
f 12 25 13
f 12 22 23
f 13 25 26
f 13 26 20
f 13 20 36
f 13 36 50
f 13 50 49
f 13 49 33
f 13 33 32
f 13 32 48
f 13 48 47
f 13 47 60
f 13 60 68
f 13 68 67
f 13 67 64
f 13 64 62
f 13 62 55
f 13 55 42
f 13 42 27
f 13 27 14
f 14 27 28
f 14 28 29
f 14 29 15
f 16 30 31
f 16 31 17
f 17 31 32
f 17 32 33
f 17 33 34
f 17 34 18
f 19 35 20
f 20 35 36
f 20 26 25
f 20 25 40
f 20 40 51
f 20 51 37
f 20 37 21
f 22 38 23
f 23 38 39
f 23 39 24
f 24 40 25
f 24 39 41
f 24 41 40
f 27 42 28
f 28 42 43
f 28 43 44
f 28 44 29
f 30 45 46
f 30 46 31
f 31 46 47
f 31 47 48
f 31 48 32
f 33 49 34
f 34 49 50
f 37 51 52
f 38 53 41
f 38 41 39
f 40 41 54
f 40 54 51
f 41 53 54
f 42 55 43
f 43 55 56
f 43 56 57
f 43 57 58
f 43 58 44
f 45 59 60
f 45 60 46
f 46 60 47
f 51 54 61
f 51 61 52
f 53 61 54
f 55 62 56
f 56 62 63
f 56 63 64
f 56 64 65
f 59 66 67
f 59 67 68
f 59 68 60
f 62 64 63
f 64 67 66
f 64 66 65

