v 0.05937162 0.06115732 -0.07237037
v 0.05791115 0.06115732 -0.06479925
v 0.05805588 0.06115732 -0.08005822
v 0.05780591 0.06326212 -0.07237037
v -0.00342805 0.15344349 0.01232941
v -0.00379645 0.15344349 0.01986718
v 0.05599020 0.06166320 -0.05981299
v 0.05606914 0.06115732 -0.05974628
v -0.00527007 0.15344349 0.02587071
v 0.04783269 0.07589095 -0.06873490
v 0.05634544 0.06115732 -0.08324342
v -0.00488851 0.15344349 0.00449147
v 0.04968786 0.06421967 -0.05085772
v 0.04972733 0.06115732 -0.05104117
v -0.00720418 0.15344349 0.02970630
v 0.05574021 0.06115732 -0.08417731
v -0.00645422 0.15344349 0.00097274
v -0.00561216 0.15344349 0.00255701
v 0.04562227 0.06115732 -0.04718890
v -0.01128294 0.15344349 0.03484265
v -0.01448016 0.15344349 0.03837806
v -0.02208506 0.15344349 0.04616597
v -0.06738555 0.09830304 0.07776788
v -0.07504309 0.09029034 0.08185362
v -0.07504309 0.08730025 0.08045279
v -0.07504309 0.08563809 0.07960229
v -0.07504309 0.08276543 0.07803471
v 0.05451659 0.06115732 -0.08476099
v 0.03271498 0.08358748 -0.06866820
v 0.03785948 0.08263897 -0.06721734
v -0.00819098 0.15344349 -0.00016126
v -0.07299055 0.06115732 0.05932370
v -0.02974259 0.15344349 0.05390386
v -0.03008468 0.15344349 0.05422071
v -0.03497919 0.15344349 0.05830645
v -0.06706978 0.10266622 0.07803471
v -0.07504309 0.09713772 0.08332114
v -0.07504309 0.09510519 0.08302097
v -0.07504309 0.06115732 0.06107473
v 0.05249035 0.06115732 -0.08556146
v 0.05152988 0.06178063 -0.08531131
v 0.02847834 0.08367782 -0.06873490
v 0.02079449 0.09200670 -0.06161405
v 0.02079449 0.09529489 -0.05821205
v 0.02145235 0.09529489 -0.05811199
v -0.01490119 0.15344349 -0.00249597
v -0.00994090 0.15344349 -0.00119520
v 0.02476799 0.09890829 -0.05324246
v 0.05152988 0.06115732 -0.08592834
v 0.04610909 0.06115732 -0.08667878
v -0.04024210 0.15344349 0.06204197
v -0.04255778 0.14879124 0.06360956
v -0.05209680 0.13693026 0.06996330
v -0.07504309 0.10266622 0.08368802
v -0.07504309 0.06115732 0.01966706
v 0.02397855 0.08361458 -0.06866820
v 0.04385918 0.06250331 -0.08562816
v 0.01309749 0.09185313 -0.06143061
v 0.01309749 0.09569236 -0.05792855
v -0.01762474 0.15344349 -0.00282950
v 0.04379340 0.06115732 -0.08649534
v -0.04496556 0.15344349 0.06474355
v -0.05214943 0.14514170 0.06991326
v -0.05205733 0.14110374 0.06997996
v -0.07504309 0.10448195 0.08368802
v -0.07504309 0.09498775 0.02040082
v -0.04471557 0.08368685 -0.03084596
v -0.04471557 0.08303644 -0.03084596
v -0.03903163 0.07959468 -0.03993464
v -0.05185997 0.06115732 -0.01702117
v 0.00891348 0.09134725 -0.06099702
v -0.00049398 0.10712876 -0.04597152
v -0.01762474 0.15067020 -0.00528093
v -0.02196664 0.15344349 -0.00164547
v 0.03675426 0.06115732 -0.08511119
v -0.04629444 0.15344349 0.06517714
v -0.04866275 0.15344349 0.06592758
v -0.05220206 0.15344349 0.06696153
v -0.05608345 0.14647866 0.07044691
v -0.07146431 0.13195280 0.07838492
v -0.06713557 0.13040808 0.07776788
v -0.07504309 0.11263016 0.08323776
v -0.07504309 0.09797784 0.02148479
v -0.06763554 0.09885409 0.00832706
v -0.03868954 0.08476184 -0.03915085
v -0.03297928 0.08020896 -0.04405373
v -0.03095306 0.07190718 -0.04675532
v -0.03479499 0.07190718 -0.04347005
v -0.03808430 0.07190718 -0.03961778
v -0.04872854 0.06115732 -0.02189070
v 0.03458331 0.06115732 -0.08442746
v 0.03154398 0.06115732 -0.08329346
v -0.02876895 0.08318097 -0.04533782
v -0.02242715 0.10714683 -0.03813358
v -0.00562531 0.10627962 -0.04527111
v -0.01762474 0.14683097 -0.00859955
v -0.02324290 0.15344349 -0.00099509
v -0.02226926 0.14594569 -0.00779908
v -0.05608345 0.15344349 0.06732841
v -0.06376730 0.14757172 0.07118068
v -0.05608345 0.15032693 0.06886265
v -0.07504309 0.12906209 0.07998584
v -0.07504309 0.12231407 0.08185362
v -0.07504309 0.12239537 0.03119050
v -0.04464978 0.12201596 -0.01483655
v -0.04489977 0.11803219 -0.01622070
v -0.03915004 0.11558412 -0.02390855
v -0.03038730 0.07805899 -0.04617163
v -0.03013731 0.06421967 -0.04630505
v -0.02149298 0.06811311 -0.05314240
v -0.02149298 0.06795051 -0.05314240
v -0.02111142 0.06282852 -0.05284222
v -0.02282187 0.06115732 -0.05140805
v -0.03742644 0.06606251 -0.03871725
v -0.04505766 0.06115732 -0.02689364
v -0.01996674 0.06115732 -0.05340923
v -0.02875580 0.11405746 -0.02994543
v -0.03742644 0.15344349 0.00779342
v -0.06071481 0.15344349 0.06769529
v -0.07504309 0.13882729 0.07529975
v -0.07504309 0.13420214 0.07781790
v -0.06376730 0.15141998 0.06892935
v -0.07504309 0.12645141 0.03385874
v -0.07418786 0.12724635 0.03295821
v -0.07504309 0.14538561 0.04639945
v -0.06939861 0.15344349 0.04491523
v -0.04787332 0.15344349 0.01971710
v -0.04133415 0.15344349 0.01219600
v -0.02828214 0.06115732 -0.04705549
v -0.02954523 0.06115732 -0.04580475
v -0.03342663 0.06115732 -0.04166899
v -0.02097985 0.06115732 -0.05274217
v -0.03978159 0.06115732 -0.03396446
v -0.06360941 0.15344349 0.06729506
v -0.07146431 0.14661416 0.07101391
v -0.07504309 0.14400349 0.07174767
v -0.07504309 0.14957715 0.05061859
v -0.07437207 0.15076957 0.05061859
v -0.07245110 0.15344349 0.05085206
v -0.06797763 0.15344349 0.06556071
v -0.07504309 0.14577405 0.07051362
v -0.07504309 0.15034500 0.05198605
v -0.07504309 0.15203426 0.05832311
v -0.07487204 0.15224203 0.05832311
v -0.07366157 0.15344349 0.05813968
v -0.07021436 0.15344349 0.06446006
v -0.07504309 0.14687614 0.06929624
v -0.07504309 0.15191683 0.05879006
v -0.07504309 0.14867380 0.06614439
v -0.07172745 0.15344349 0.06175847
f 1 2 8
f 1 8 14
f 1 14 19
f 1 19 32
f 1 32 39
f 1 39 55
f 1 55 70
f 1 70 90
f 1 90 115
f 1 115 133
f 1 133 131
f 1 131 130
f 1 130 129
f 1 129 113
f 1 113 132
f 1 132 116
f 1 116 92
f 1 92 91
f 1 91 75
f 1 75 61
f 1 61 50
f 1 50 49
f 1 49 40
f 1 40 28
f 1 28 16
f 1 16 11
f 1 11 3
f 1 3 4
f 1 4 5
f 1 5 6
f 1 6 2
f 2 7 8
f 2 6 9
f 2 9 7
f 3 10 4
f 3 11 10
f 4 10 5
f 5 12 18
f 5 18 17
f 5 17 31
f 5 31 47
f 5 47 46
f 5 46 60
f 5 60 74
f 5 74 97
f 5 97 118
f 5 118 128
f 5 128 127
f 5 127 126
f 5 126 139
f 5 139 145
f 5 145 150
f 5 150 146
f 5 146 140
f 5 140 134
f 5 134 119
f 5 119 99
f 5 99 78
f 5 78 77
f 5 77 76
f 5 76 62
f 5 62 51
f 5 51 35
f 5 35 34
f 5 34 33
f 5 33 22
f 5 22 21
f 5 21 20
f 5 20 15
f 5 15 9
f 5 9 6
f 5 10 12
f 7 9 8
f 8 13 14
f 8 9 15
f 8 15 13
f 10 11 16
f 10 16 17
f 10 17 18
f 10 18 12
f 13 15 14
f 14 15 20
f 14 20 21
f 14 21 22
f 14 22 23
f 14 23 24
f 14 24 25
f 14 25 26
f 14 26 27
f 14 27 19
f 16 28 29
f 16 29 30
f 16 30 17
f 17 30 31
f 19 27 32
f 22 33 23
f 23 33 34
f 23 34 35
f 23 35 36
f 23 36 37
f 23 37 38
f 23 38 24
f 24 38 37
f 24 37 54
f 24 54 65
f 24 65 82
f 24 82 103
f 24 103 102
f 24 102 121
f 24 121 120
f 24 120 136
f 24 136 141
f 24 141 147
f 24 147 149
f 24 149 148
f 24 148 143
f 24 143 142
f 24 142 137
f 24 137 125
f 24 125 123
f 24 123 104
f 24 104 83
f 24 83 66
f 24 66 55
f 24 55 39
f 24 39 27
f 24 27 26
f 24 26 25
f 27 39 32
f 28 40 41
f 28 41 29
f 29 42 43
f 29 43 44
f 29 44 45
f 29 45 46
f 29 46 47
f 29 47 48
f 29 48 30
f 29 41 49
f 29 49 50
f 29 50 42
f 30 48 47
f 30 47 31
f 35 51 52
f 35 52 53
f 35 53 36
f 36 53 37
f 37 53 54
f 40 49 41
f 42 56 43
f 42 50 57
f 42 57 56
f 43 56 58
f 43 58 59
f 43 59 60
f 43 60 46
f 43 46 44
f 44 46 45
f 50 61 57
f 51 62 63
f 51 63 64
f 51 64 52
f 52 64 53
f 53 64 54
f 54 64 65
f 55 66 67
f 55 67 68
f 55 68 69
f 55 69 70
f 56 71 58
f 56 57 61
f 56 61 71
f 58 71 72
f 58 72 73
f 58 73 60
f 58 60 59
f 60 73 74
f 61 75 71
f 62 76 63
f 63 76 77
f 63 77 78
f 63 78 79
f 63 79 80
f 63 80 81
f 63 81 82
f 63 82 65
f 63 65 64
f 66 83 84
f 66 84 67
f 67 84 85
f 67 85 69
f 67 69 68
f 69 85 86
f 69 86 87
f 69 87 88
f 69 88 89
f 69 89 90
f 69 90 70
f 71 75 91
f 71 91 92
f 71 92 93
f 71 93 94
f 71 94 95
f 71 95 72
f 72 95 96
f 72 96 73
f 73 96 74
f 74 96 98
f 74 98 97
f 78 99 100
f 78 100 101
f 78 101 79
f 79 100 80
f 79 101 100
f 80 102 103
f 80 103 81
f 80 100 102
f 81 103 82
f 83 104 84
f 84 105 106
f 84 106 85
f 84 104 105
f 85 106 105
f 85 105 107
f 85 107 94
f 85 94 93
f 85 93 86
f 86 93 108
f 86 108 87
f 87 109 88
f 87 108 110
f 87 110 111
f 87 111 112
f 87 112 113
f 87 113 109
f 88 114 89
f 88 109 114
f 89 114 115
f 89 115 90
f 92 110 108
f 92 108 93
f 92 116 111
f 92 111 110
f 94 107 117
f 94 117 98
f 94 98 95
f 95 98 96
f 97 98 107
f 97 107 118
f 98 117 107
f 99 119 100
f 100 120 121
f 100 121 102
f 100 119 122
f 100 122 120
f 104 123 124
f 104 124 105
f 105 124 125
f 105 125 126
f 105 126 127
f 105 127 128
f 105 128 118
f 105 118 107
f 109 113 129
f 109 129 130
f 109 130 131
f 109 131 114
f 111 116 112
f 112 132 113
f 112 116 132
f 114 131 133
f 114 133 115
f 119 134 122
f 120 122 135
f 120 135 136
f 122 134 135
f 123 125 124
f 125 137 138
f 125 138 126
f 126 138 139
f 134 140 141
f 134 141 135
f 135 141 136
f 137 142 138
f 138 142 139
f 139 142 143
f 139 143 144
f 139 144 145
f 140 146 141
f 141 146 147
f 143 148 144
f 144 148 145
f 145 148 149
f 145 149 150
f 146 150 149
f 146 149 147

