v -0.08367722 -0.28343683 -0.09681219
v -0.08383672 -0.28179905 -0.09681219
v -0.08415570 -0.28948539 -0.09681219
v -0.32826311 -0.22503559 -0.41560304
v -0.32826311 -0.22275575 -0.41560304
v -0.09813812 -0.27736965 -0.11506811
v -0.10635212 -0.27072553 -0.12197660
v -0.08957854 -0.27651355 -0.10100104
v -0.08766460 -0.27557370 -0.09681219
v -0.08471393 -0.29041595 -0.09681219
v -0.32097948 -0.23217292 -0.39959782
v -0.33461631 -0.23301039 -0.40803809
v -0.33288845 -0.22571491 -0.41616571
v -0.08872790 -0.29428703 -0.09681219
v -0.33326060 -0.22023397 -0.41600943
v -0.33610492 -0.21579525 -0.41485279
v -0.33421759 -0.20621061 -0.40869456
v -0.32906057 -0.20878821 -0.40678768
v -0.32759852 -0.21391556 -0.40863203
v -0.09821787 -0.27011137 -0.10740937
v -0.09308743 -0.27099538 -0.09681219
v -0.32520610 -0.23307554 -0.40119209
v -0.33238339 -0.23410846 -0.40363038
v -0.34057082 -0.23549496 -0.40300520
v -0.34057082 -0.23322442 -0.40844448
v -0.08947221 -0.29458479 -0.09681219
v -0.10457109 -0.29367285 -0.10800332
v -0.32520610 -0.23565317 -0.39531521
v -0.34057082 -0.22953946 -0.41228946
v -0.34057082 -0.22568697 -0.41569681
v -0.34009233 -0.22057827 -0.41563428
v -0.33722141 -0.21579525 -0.41485279
v -0.34057082 -0.20646185 -0.40844448
v -0.35247979 -0.20077620 -0.40016052
v -0.35154939 -0.20077620 -0.40016052
v -0.33214414 -0.20631296 -0.40372418
v -0.09744697 -0.26976708 -0.10315800
v -0.09627734 -0.26954373 -0.09681219
v -0.34057082 -0.23534608 -0.39531521
v -0.34676453 -0.23363387 -0.40300520
v -0.34575441 -0.23251721 -0.40781925
v -0.10853188 -0.29367285 -0.10800332
v -0.10342804 -0.29545021 -0.09681219
v -0.10909012 -0.29403576 -0.10315800
v -0.09579886 -0.29584104 -0.09681219
v -0.34673796 -0.22500768 -0.41500910
v -0.34673796 -0.22333270 -0.41500910
v -0.35370259 -0.20492645 -0.40103581
v -0.35247979 -0.20077620 -0.39884760
v -0.34886457 -0.22057827 -0.41235197
v -0.35351650 -0.22029912 -0.40881958
v -0.35154939 -0.20077620 -0.39884760
v -0.10225840 -0.26867831 -0.09681219
v -0.34586072 -0.23317789 -0.39531521
v -0.11291801 -0.29286328 -0.10315800
v -0.35061899 -0.23033041 -0.40300520
v -0.35375575 -0.22599406 -0.40931974
v -0.34881138 -0.22805987 -0.41113285
v -0.10223183 -0.29551533 -0.09681219
v -0.10792049 -0.29407300 -0.09681219
v -0.35457980 -0.21261279 -0.39622174
v -0.35370259 -0.20492645 -0.39753469
v -0.35423422 -0.21322694 -0.40316151
v -0.35521777 -0.22029912 -0.40300520
v -0.11621424 -0.27467105 -0.09681219
v -0.11512435 -0.27321010 -0.09681219
v -0.11435346 -0.26993455 -0.09875032
v -0.11103065 -0.26961817 -0.09681219
v -0.10948886 -0.26923666 -0.09681219
v -0.33828472 -0.23311277 -0.38156077
v -0.34341514 -0.22995820 -0.38615597
v -0.34984812 -0.22798543 -0.39519017
v -0.35285194 -0.22541712 -0.39765970
v -0.35391522 -0.22648724 -0.40300520
v -0.13702836 -0.28578181 -0.12976037
v -0.11209395 -0.29059274 -0.09681219
v -0.12902702 -0.28543751 -0.11491180
v -0.35383550 -0.22029912 -0.39647182
v -0.34471767 -0.22483088 -0.38331131
v -0.34471767 -0.22298840 -0.38331131
v -0.11749020 -0.28160364 -0.09681219
v -0.13689545 -0.27022302 -0.12235172
v -0.33645051 -0.23132612 -0.37643408
v -0.11321042 -0.28965289 -0.09681219
v -0.11493828 -0.28785694 -0.09681219
v -0.11533702 -0.28760567 -0.09706227
v -0.11525727 -0.28742888 -0.09681219
v -0.13014348 -0.28031949 -0.11341132
v -0.12044086 -0.28179905 -0.10084475
f 1 2 9
f 1 9 21
f 1 21 38
f 1 38 53
f 1 53 69
f 1 69 68
f 1 68 66
f 1 66 65
f 1 65 81
f 1 81 87
f 1 87 85
f 1 85 84
f 1 84 76
f 1 76 60
f 1 60 43
f 1 43 59
f 1 59 45
f 1 45 26
f 1 26 14
f 1 14 10
f 1 10 3
f 1 3 4
f 1 4 5
f 1 5 2
f 2 5 6
f 2 6 7
f 2 7 8
f 2 8 9
f 3 10 4
f 4 11 12
f 4 12 13
f 4 13 5
f 4 10 14
f 4 14 11
f 5 13 15
f 5 15 16
f 5 16 17
f 5 17 18
f 5 18 19
f 5 19 6
f 6 19 18
f 6 18 7
f 7 20 9
f 7 9 8
f 7 18 20
f 9 20 21
f 11 22 12
f 11 14 22
f 12 23 24
f 12 24 25
f 12 25 13
f 12 22 26
f 12 26 27
f 12 27 28
f 12 28 23
f 13 25 29
f 13 29 30
f 13 30 31
f 13 31 15
f 14 26 22
f 15 31 32
f 15 32 16
f 16 32 17
f 17 32 33
f 17 33 34
f 17 34 35
f 17 35 36
f 17 36 20
f 17 20 18
f 20 37 21
f 20 36 37
f 21 37 38
f 23 28 27
f 23 27 24
f 24 39 40
f 24 40 41
f 24 41 25
f 24 27 42
f 24 42 43
f 24 43 44
f 24 44 39
f 25 41 29
f 26 45 27
f 27 45 42
f 29 46 30
f 29 41 46
f 30 46 47
f 30 47 31
f 31 47 32
f 32 47 33
f 33 47 34
f 34 48 62
f 34 62 49
f 34 49 52
f 34 52 35
f 34 47 50
f 34 50 51
f 34 51 48
f 35 52 38
f 35 38 36
f 36 38 37
f 38 52 53
f 39 54 40
f 39 44 55
f 39 55 54
f 40 56 57
f 40 57 41
f 40 54 56
f 41 57 58
f 41 58 46
f 42 45 59
f 42 59 43
f 43 60 55
f 43 55 44
f 46 58 57
f 46 57 47
f 47 57 51
f 47 51 50
f 48 61 62
f 48 51 63
f 48 63 64
f 48 64 61
f 49 62 65
f 49 65 66
f 49 66 67
f 49 67 68
f 49 68 69
f 49 69 53
f 49 53 52
f 51 57 64
f 51 64 63
f 54 70 71
f 54 71 72
f 54 72 73
f 54 73 74
f 54 74 56
f 54 55 75
f 54 75 70
f 55 60 75
f 56 74 57
f 57 74 64
f 60 76 77
f 60 77 75
f 61 64 78
f 61 78 79
f 61 79 80
f 61 80 81
f 61 81 82
f 61 82 62
f 62 82 65
f 64 74 78
f 65 82 81
f 66 68 67
f 70 83 71
f 70 75 77
f 70 77 83
f 71 83 79
f 71 79 73
f 71 73 72
f 73 78 74
f 73 79 78
f 76 84 77
f 77 84 85
f 77 85 86
f 77 86 87
f 77 87 88
f 77 88 79
f 77 79 83
f 79 88 89
f 79 89 81
f 79 81 80
f 81 89 87
f 85 87 86
f 87 89 88

