v -0.07258138 -0.16415888 -0.06290225
v -0.07349222 -0.16415888 -0.06261167
v -0.07617970 -0.16110567 -0.06127294
v -0.07258138 -0.15906753 -0.06208240
v -0.07258138 -0.16415888 -0.00188085
v -0.07412599 -0.16415888 -0.06240412
v -0.07675807 -0.16415888 -0.06153238
v -0.08041526 -0.16415888 -0.05942570
v -0.08231313 -0.16415888 -0.05824262
v -0.08529845 -0.15877180 -0.05491136
v -0.08405861 -0.15258544 -0.05389434
v -0.07258138 -0.08251327 -0.03962487
v -0.07258138 -0.10382986 0.00978378
v -0.07392166 -0.16415888 -0.00028268
v -0.08665951 -0.16415888 -0.05528495
v -0.09012969 -0.16415888 -0.05263862
v -0.09440335 -0.16415888 -0.04932811
v -0.08914266 -0.15877180 -0.05191217
v -0.08671492 -0.15044338 -0.05112346
v -0.09207950 -0.15108280 -0.04684781
v -0.10080690 -0.16415888 -0.04396279
v -0.10637928 -0.11625054 -0.02257416
v -0.10795506 -0.11463601 -0.02065427
v -0.10795506 -0.08551055 -0.00921795
v -0.10795506 -0.08370420 -0.00842924
v -0.10795506 -0.08344843 -0.00831508
v -0.10795506 -0.08251327 -0.00774431
v -0.07258138 -0.08251327 0.01314618
v -0.07324286 -0.10495683 0.01023003
v -0.07504722 -0.16415888 0.00090040
v -0.10277750 -0.16415888 -0.04226083
v -0.10795506 -0.12033481 -0.02264681
v -0.10795506 -0.08251327 0.04311723
v -0.07271991 -0.08251327 0.01327071
v -0.09824756 -0.10903311 0.03153562
v -0.08743182 -0.16415888 0.01151687
v -0.10455068 -0.16415888 -0.04008149
v -0.10795506 -0.12208522 -0.02319683
v -0.10795506 -0.08682135 0.04263985
v -0.10082422 -0.08251327 0.03752360
v -0.10795506 -0.08702916 0.04260872
v -0.10795506 -0.08985059 0.04213134
v -0.10795506 -0.13768700 0.03321682
v -0.10608490 -0.13946938 0.03139034
v -0.09125871 -0.16013056 0.01555382
v -0.09199638 -0.16415888 0.01514910
v -0.10672560 -0.16415888 -0.03719647
v -0.10746328 -0.16415888 -0.03621058
v -0.10795506 -0.16415888 -0.03519356
v -0.10795506 -0.15077908 0.03020726
v -0.10662863 -0.14339380 0.03095447
v -0.10183895 -0.15033948 0.02580709
v -0.10795506 -0.15107481 0.03013462
v -0.10414894 -0.15877180 0.02517403
v -0.10543727 -0.16359140 0.02415701
v -0.10483467 -0.16415888 0.02353435
v -0.10795506 -0.16415888 0.02527782
v -0.10795506 -0.15867588 0.02760245
v -0.10638274 -0.16415888 0.02444760
v -0.10564507 -0.16415888 0.02402210
v -0.10738362 -0.16415888 0.02497686
f 1 2 3
f 1 3 4
f 1 4 12
f 1 12 28
f 1 28 13
f 1 13 5
f 1 5 14
f 1 14 30
f 1 30 36
f 1 36 46
f 1 46 56
f 1 56 60
f 1 60 59
f 1 59 61
f 1 61 57
f 1 57 49
f 1 49 48
f 1 48 47
f 1 47 37
f 1 37 31
f 1 31 21
f 1 21 17
f 1 17 16
f 1 16 15
f 1 15 9
f 1 9 8
f 1 8 7
f 1 7 6
f 1 6 2
f 2 6 3
f 3 6 7
f 3 7 8
f 3 8 9
f 3 9 10
f 3 10 11
f 3 11 12
f 3 12 4
f 5 13 14
f 9 15 10
f 10 15 16
f 10 16 17
f 10 17 18
f 10 18 11
f 11 18 19
f 11 19 12
f 12 19 20
f 12 20 21
f 12 21 22
f 12 22 23
f 12 23 24
f 12 24 25
f 12 25 26
f 12 26 27
f 12 27 33
f 12 33 40
f 12 40 34
f 12 34 28
f 13 28 29
f 13 29 30
f 13 30 14
f 17 21 18
f 18 21 20
f 18 20 19
f 21 31 32
f 21 32 22
f 22 32 23
f 23 32 38
f 23 38 49
f 23 49 57
f 23 57 58
f 23 58 53
f 23 53 50
f 23 50 43
f 23 43 42
f 23 42 41
f 23 41 39
f 23 39 33
f 23 33 27
f 23 27 26
f 23 26 25
f 23 25 24
f 28 34 29
f 29 34 35
f 29 35 30
f 30 35 36
f 31 37 38
f 31 38 32
f 33 39 40
f 34 40 35
f 35 40 39
f 35 39 41
f 35 41 42
f 35 42 43
f 35 43 44
f 35 44 45
f 35 45 36
f 36 45 46
f 37 47 38
f 38 47 48
f 38 48 49
f 43 50 51
f 43 51 52
f 43 52 45
f 43 45 44
f 45 52 46
f 46 52 53
f 46 53 54
f 46 54 55
f 46 55 56
f 50 53 52
f 50 52 51
f 53 58 54
f 54 58 55
f 55 58 59
f 55 59 60
f 55 60 56
f 57 61 58
f 58 61 59

