v -0.07257792 -0.02074849 0.02974523
v -0.07460528 -0.02074849 0.03180655
v -0.07257792 -0.07419332 0.01648047
v -0.07257792 -0.02074849 -0.01323472
v -0.13718157 -0.02074849 0.09264239
v -0.07257792 -0.07719237 0.01554351
v -0.07257792 -0.08187838 -0.03952329
v -0.09161137 -0.02074849 0.00000326
v -0.14375132 -0.02074849 0.09709965
v -0.14375132 -0.02401358 0.09640363
v -0.14375132 -0.02956426 0.09469032
v -0.14375132 -0.08249512 0.07817295
v -0.07447987 -0.07915143 0.01664109
v -0.07257792 -0.08086862 0.01407113
v -0.07257792 -0.08251327 -0.03963037
v -0.11740267 -0.08251327 -0.00275409
v -0.12151312 -0.06256593 0.00828872
v -0.09545011 -0.02074849 0.00309525
v -0.09526897 -0.02074849 0.00294801
v -0.14375132 -0.02074849 0.05516375
v -0.14375132 -0.08251327 0.07346136
v -0.14101335 -0.08251327 0.07426447
v -0.07257792 -0.08251327 0.01316094
v -0.12506621 -0.08251327 0.00475502
v -0.12074676 -0.07965932 0.00131501
v -0.12226554 -0.06650219 0.00751237
v -0.10353166 -0.02074849 0.01061775
v -0.09987406 -0.02074849 0.00693680
v -0.09968596 -0.02074849 0.00674942
v -0.13476407 -0.07419332 0.01838118
v -0.14375132 -0.03266610 0.04602166
v -0.14375132 -0.02291313 0.05307567
v -0.10725893 -0.02074849 0.01467346
v -0.14375132 -0.08251327 0.03228841
v -0.13160809 -0.08251327 0.01179564
v -0.12505925 -0.08248908 0.00475502
v -0.13605992 -0.08187838 0.01686864
v -0.14375132 -0.03045913 0.04740034
v -0.13814997 -0.07419332 0.02223611
v -0.14375132 -0.06736079 0.03144515
v -0.14375132 -0.02633543 0.05042539
v -0.14375132 -0.08247095 0.02563596
v -0.14319397 -0.08251327 0.02519426
v -0.13583000 -0.08251327 0.01649386
v -0.14375132 -0.08191467 0.02570289
v -0.14375132 -0.07419332 0.02874133
v -0.13610868 -0.08251327 0.01681510
v -0.14288046 -0.08251327 0.02481946
f 1 2 3
f 1 3 6
f 1 6 14
f 1 14 23
f 1 23 15
f 1 15 7
f 1 7 4
f 1 4 8
f 1 8 19
f 1 19 18
f 1 18 29
f 1 29 28
f 1 28 27
f 1 27 33
f 1 33 20
f 1 20 9
f 1 9 5
f 1 5 2
f 2 5 3
f 3 5 6
f 4 7 8
f 5 9 10
f 5 10 11
f 5 11 12
f 5 12 13
f 5 13 6
f 6 13 14
f 7 15 16
f 7 16 17
f 7 17 18
f 7 18 19
f 7 19 8
f 9 20 32
f 9 32 41
f 9 41 38
f 9 38 31
f 9 31 40
f 9 40 46
f 9 46 45
f 9 45 42
f 9 42 34
f 9 34 21
f 9 21 12
f 9 12 11
f 9 11 10
f 12 21 22
f 12 22 23
f 12 23 14
f 12 14 13
f 15 23 22
f 15 22 21
f 15 21 34
f 15 34 43
f 15 43 48
f 15 48 47
f 15 47 44
f 15 44 35
f 15 35 24
f 15 24 16
f 16 24 25
f 16 25 26
f 16 26 17
f 17 27 28
f 17 28 29
f 17 29 18
f 17 26 30
f 17 30 31
f 17 31 27
f 20 33 32
f 24 35 36
f 24 36 25
f 25 36 26
f 26 36 35
f 26 35 37
f 26 37 30
f 27 31 38
f 27 38 33
f 30 37 39
f 30 39 40
f 30 40 31
f 32 33 41
f 33 38 41
f 34 42 43
f 35 44 37
f 37 44 45
f 37 45 39
f 39 45 46
f 39 46 40
f 42 45 47
f 42 47 48
f 42 48 43
f 44 47 45

