v -0.04063223 -0.14340439 -0.02270336
v -0.01297119 -0.14548980 -0.04263911
v -0.01297119 -0.14357462 -0.04249894
v -0.02546266 -0.13778655 -0.03326695
v -0.02945950 -0.13778655 -0.03041899
v -0.03416309 -0.13778655 -0.02710592
v -0.04063223 -0.13778655 -0.02295821
v -0.04063223 -0.15109346 -0.02330863
v -0.03929995 -0.15109346 -0.02425158
v -0.01637771 -0.22796997 -0.04725192
v -0.01297119 -0.22796997 -0.04971124
v -0.01297119 -0.13778655 -0.04260725
v -0.02058306 -0.13778655 -0.03690495
v -0.04063223 -0.13778655 -0.05629278
v -0.04063223 -0.21259183 -0.02884528
v -0.02022020 -0.22796997 -0.04462058
v -0.02147666 -0.23957449 -0.04547433
v -0.01720091 -0.23567322 -0.04783808
v -0.01297119 -0.23038167 -0.05008077
v -0.01297119 -0.13778655 -0.07688477
v -0.03811660 -0.13778655 -0.05930639
v -0.04063223 -0.16647159 -0.06491950
v -0.04063223 -0.22028089 -0.03013865
v -0.02681119 -0.25105136 -0.04400894
v -0.02210489 -0.24471001 -0.04597129
v -0.01297119 -0.23567322 -0.05089630
v -0.01297119 -0.13974428 -0.07720333
v -0.01353444 -0.13778655 -0.07664266
v -0.03531394 -0.13778655 -0.06193773
v -0.03693596 -0.13917683 -0.06091833
v -0.04063223 -0.18953880 -0.06823894
v -0.02392459 -0.13778655 -0.07047526
v -0.02249482 -0.13778655 -0.07151378
v -0.01667017 -0.20491694 -0.08572811
v -0.04063223 -0.25088113 -0.03593652
v -0.04025854 -0.25088113 -0.03611492
v -0.03656499 -0.24821407 -0.03761217
v -0.02808660 -0.25874044 -0.04476712
v -0.02296870 -0.25105136 -0.04656382
v -0.01297119 -0.23683651 -0.05113203
v -0.01420599 -0.13824052 -0.07642603
v -0.01297119 -0.20491694 -0.08770958
v -0.01472590 -0.13778655 -0.07606287
v -0.04063223 -0.23510576 -0.07470579
v -0.01825969 -0.21323021 -0.08557520
v -0.02123295 -0.21108807 -0.08368293
v -0.04063223 -0.25221465 -0.03622323
v -0.04063223 -0.25874044 -0.03777145
v -0.02893146 -0.26295381 -0.04530868
v -0.01745004 -0.25034203 -0.05093453
v -0.01375919 -0.24730614 -0.05312625
v -0.01312554 -0.24336230 -0.05260380
v -0.01297119 -0.24241180 -0.05249549
v -0.02424682 -0.25874044 -0.04787631
v -0.01297119 -0.21281882 -0.08779241
v -0.01764500 -0.22028089 -0.08595748
v -0.04063223 -0.23564484 -0.07475039
v -0.04063223 -0.25105136 -0.07510718
v -0.04063223 -0.26054211 -0.03833212
v -0.03335073 -0.26587623 -0.04412362
v -0.03613443 -0.27091244 -0.04505383
v -0.03100841 -0.26808932 -0.04702892
v -0.02124920 -0.26289707 -0.05283954
v -0.02010647 -0.25874044 -0.05171819
v -0.04063223 -0.26611740 -0.04035182
v -0.01297119 -0.24879572 -0.05653488
v -0.01297119 -0.24639819 -0.05401823
v -0.01297119 -0.24316367 -0.05272486
v -0.01297119 -0.22028089 -0.08730819
v -0.03754524 -0.25639966 -0.07641966
v -0.03769417 -0.25105136 -0.07650249
v -0.04063223 -0.25225722 -0.07507532
v -0.04063223 -0.27332411 -0.04428927
v -0.04063223 -0.27657282 -0.04675496
v -0.03927558 -0.27603374 -0.04724555
v -0.03359715 -0.27353693 -0.04969850
v -0.02845487 -0.27104009 -0.05215781
v -0.02088092 -0.26336523 -0.05701273
v -0.01797266 -0.25874044 -0.05701273
v -0.01473674 -0.25285305 -0.05701273
v -0.01297119 -0.24922131 -0.05701273
v -0.02787809 -0.27165012 -0.05701273
v -0.02403561 -0.26720974 -0.05701273
v -0.01297119 -0.23309127 -0.08435829
v -0.01589571 -0.23309127 -0.08435829
v -0.04063223 -0.26642949 -0.07403043
v -0.04063223 -0.26481224 -0.07422157
v -0.04063223 -0.25886812 -0.07482047
v -0.04063223 -0.27939594 -0.05001706
v -0.03618588 -0.27851639 -0.05237443
v -0.03173954 -0.27549466 -0.05701273
v -0.02091884 -0.26330847 -0.06284246
v -0.01437659 -0.25425752 -0.06469650
v -0.01297119 -0.25208697 -0.06469650
v -0.03583656 -0.27885686 -0.06325022
v -0.02838988 -0.27109685 -0.06469650
v -0.01297119 -0.24638402 -0.07664903
v -0.01361296 -0.24741963 -0.07640692
v -0.01764500 -0.24912200 -0.07734350
v -0.02202094 -0.25468310 -0.07605013
v -0.04063223 -0.27640259 -0.07126530
v -0.04063223 -0.27482790 -0.07190242
v -0.04063223 -0.28260207 -0.05658586
v -0.03558202 -0.27905546 -0.05701273
v -0.02173120 -0.26235797 -0.06797134
v -0.02408164 -0.26608902 -0.06512338
v -0.01297119 -0.24915038 -0.07243761
v -0.04063223 -0.28270140 -0.05710193
v -0.04063223 -0.28211973 -0.06510426
v -0.04051037 -0.28199207 -0.06521258
v -0.03695763 -0.27786379 -0.06837273
v -0.03317201 -0.27549466 -0.06536549
v -0.02913997 -0.27030242 -0.06857661
v -0.01297119 -0.24835592 -0.07375010
v -0.04063223 -0.28183601 -0.06561396
v -0.04063223 -0.28206299 -0.06526992
f 1 2 3
f 1 3 4
f 1 4 5
f 1 5 6
f 1 6 7
f 1 7 14
f 1 14 22
f 1 22 31
f 1 31 44
f 1 44 57
f 1 57 58
f 1 58 72
f 1 72 88
f 1 88 87
f 1 87 86
f 1 86 102
f 1 102 101
f 1 101 115
f 1 115 116
f 1 116 109
f 1 109 108
f 1 108 103
f 1 103 89
f 1 89 74
f 1 74 73
f 1 73 65
f 1 65 59
f 1 59 48
f 1 48 47
f 1 47 35
f 1 35 23
f 1 23 15
f 1 15 8
f 1 8 9
f 1 9 2
f 2 9 10
f 2 10 11
f 2 11 19
f 2 19 26
f 2 26 40
f 2 40 53
f 2 53 68
f 2 68 67
f 2 67 66
f 2 66 81
f 2 81 94
f 2 94 107
f 2 107 114
f 2 114 97
f 2 97 84
f 2 84 69
f 2 69 55
f 2 55 42
f 2 42 27
f 2 27 20
f 2 20 12
f 2 12 3
f 3 12 13
f 3 13 4
f 4 13 12
f 4 12 20
f 4 20 28
f 4 28 43
f 4 43 33
f 4 33 32
f 4 32 29
f 4 29 21
f 4 21 14
f 4 14 7
f 4 7 6
f 4 6 5
f 8 15 10
f 8 10 9
f 10 16 17
f 10 17 18
f 10 18 19
f 10 19 11
f 10 15 16
f 14 21 22
f 15 23 24
f 15 24 17
f 15 17 16
f 17 24 25
f 17 25 18
f 18 25 26
f 18 26 19
f 20 27 28
f 21 29 30
f 21 30 22
f 22 30 29
f 22 29 32
f 22 32 33
f 22 33 34
f 22 34 31
f 23 35 36
f 23 36 37
f 23 37 24
f 24 37 38
f 24 38 39
f 24 39 25
f 25 39 26
f 26 39 40
f 27 41 28
f 27 42 41
f 28 41 43
f 31 34 44
f 33 43 34
f 34 42 45
f 34 45 46
f 34 46 44
f 34 43 41
f 34 41 42
f 35 47 36
f 36 47 48
f 36 48 38
f 36 38 37
f 38 48 49
f 38 49 39
f 39 50 51
f 39 51 52
f 39 52 53
f 39 53 40
f 39 49 54
f 39 54 50
f 42 55 56
f 42 56 45
f 44 46 45
f 44 45 57
f 45 56 58
f 45 58 57
f 48 59 49
f 49 60 61
f 49 61 62
f 49 62 63
f 49 63 64
f 49 64 54
f 49 59 65
f 49 65 60
f 50 54 51
f 51 66 67
f 51 67 68
f 51 68 52
f 51 54 64
f 51 64 63
f 51 63 66
f 52 68 53
f 55 69 56
f 56 69 70
f 56 70 71
f 56 71 58
f 58 71 72
f 60 65 61
f 61 65 73
f 61 73 74
f 61 74 75
f 61 75 76
f 61 76 62
f 62 76 77
f 62 77 63
f 63 78 79
f 63 79 80
f 63 80 81
f 63 81 66
f 63 77 82
f 63 82 83
f 63 83 78
f 69 84 85
f 69 85 86
f 69 86 70
f 70 86 87
f 70 87 88
f 70 88 72
f 70 72 71
f 74 89 90
f 74 90 75
f 75 90 76
f 76 90 77
f 77 90 91
f 77 91 82
f 78 92 93
f 78 93 94
f 78 94 79
f 78 83 92
f 79 94 80
f 80 94 81
f 82 91 95
f 82 95 96
f 82 96 92
f 82 92 83
f 84 97 98
f 84 98 99
f 84 99 100
f 84 100 101
f 84 101 102
f 84 102 85
f 85 102 86
f 89 103 90
f 90 103 104
f 90 104 91
f 91 104 95
f 92 105 93
f 92 96 106
f 92 106 105
f 93 105 107
f 93 107 94
f 95 104 108
f 95 108 109
f 95 109 110
f 95 110 111
f 95 111 112
f 95 112 96
f 96 113 105
f 96 105 106
f 96 112 113
f 97 114 98
f 98 114 105
f 98 105 113
f 98 113 111
f 98 111 100
f 98 100 99
f 100 111 101
f 101 111 115
f 103 108 104
f 105 114 107
f 109 116 110
f 110 116 111
f 111 113 112
f 111 116 115

