v -0.25776276 -0.08786920 0.09670825
v -0.25993592 -0.08580391 0.09678159
v -0.25989257 -0.08576555 0.09287410
v -0.25776276 -0.08782444 0.09469449
v -0.25776276 -0.08663515 0.10254948
v -0.25993050 -0.08578473 0.10086912
v -0.26719788 -0.07751721 0.10446989
v -0.27621751 -0.06362929 0.10771058
v -0.27591222 -0.06399376 0.10736384
v -0.26830704 -0.07248508 0.09972889
v -0.26047967 -0.08187796 0.09224063
v -0.25776276 -0.08654562 0.09061363
v -0.25776276 -0.08765180 0.09099370
v -0.27429363 -0.06904507 0.11215819
v -0.27621751 -0.06628283 0.11215819
v -0.27621751 -0.06434543 0.10875078
v -0.25776276 -0.08588064 0.10524339
v -0.25868224 -0.08510696 0.10599688
v -0.27321337 -0.06884685 0.11984647
v -0.27621751 -0.06603347 0.11984647
v -0.27044768 -0.07319482 0.11215819
v -0.27621751 -0.06173026 0.10707044
v -0.27621751 -0.05385916 0.10454990
v -0.25776276 -0.08187796 0.08919332
v -0.27621751 -0.03538671 0.09966220
v -0.25776276 -0.08459544 0.10813066
v -0.26936743 -0.07166024 0.11984647
v -0.26068922 -0.07858502 0.11677250
v -0.26797826 -0.07059883 0.12407403
v -0.27621751 -0.06380833 0.12546766
v -0.25776276 -0.08052242 0.08900661
v -0.27621751 -0.03300811 0.09959553
v -0.25776276 -0.08262606 0.11207816
v -0.25776276 -0.07904539 0.11827280
v -0.26370781 -0.07160269 0.12574106
v -0.25953308 -0.07011288 0.13116887
v -0.26370781 -0.06905146 0.12958855
v -0.26618626 -0.06194126 0.13803701
v -0.26933129 -0.06372520 0.13291590
v -0.27169595 -0.06057933 0.13537644
v -0.27445802 -0.06215227 0.13053542
v -0.27621751 -0.06359732 0.12582774
v -0.25776276 -0.07461430 0.08984680
v -0.27621751 -0.03105153 0.09974889
v -0.25776276 -0.07202470 0.12936181
v -0.25776276 -0.06912819 0.13358272
v -0.26106135 -0.06327122 0.13984404
v -0.26407090 -0.05898720 0.14315809
v -0.26707865 -0.05464563 0.14647210
v -0.27139608 -0.05658943 0.14103096
v -0.27564305 -0.05528504 0.13940396
v -0.27621751 -0.05554080 0.13848377
v -0.27621751 -0.05795136 0.13493633
v -0.27621751 -0.06140416 0.12947519
v -0.25776276 -0.07242753 0.09019353
v -0.25776276 -0.06896194 0.09193390
v -0.27621751 -0.02690818 0.10274952
v -0.25776276 -0.02835324 0.11885294
v -0.25776276 -0.06396178 0.14066422
v -0.25776276 -0.06184535 0.14317808
v -0.26195554 -0.05602675 0.14783240
v -0.26057901 -0.04788710 0.15482055
v -0.26980459 -0.04951759 0.14825249
v -0.27197957 -0.05170436 0.14509181
v -0.27621751 -0.05433232 0.13966400
v -0.27621751 -0.02343620 0.10659034
v -0.27447789 -0.02383903 0.10763722
v -0.25776276 -0.02348096 0.12266706
v -0.25776276 -0.06063047 0.14455172
v -0.25776276 -0.05688995 0.14863256
v -0.25776276 -0.05377604 0.15134648
v -0.25776276 -0.04857127 0.15528064
v -0.25776276 -0.04514405 0.15657426
v -0.25776276 -0.04343683 0.15697435
v -0.26152921 -0.04343683 0.15548068
v -0.27493130 -0.04534866 0.14648544
v -0.27621751 -0.04715179 0.14443833
v -0.27621751 -0.05088592 0.14226457
v -0.27621751 -0.02254742 0.11215819
v -0.25776276 -0.02300140 0.12750143
v -0.25776276 -0.03818730 0.15712103
v -0.25776276 -0.03575117 0.15703436
v -0.26121127 -0.03575117 0.15535399
v -0.27532331 -0.03943415 0.14681885
v -0.27532331 -0.04022701 0.14681885
v -0.26537516 -0.04343683 0.15304016
v -0.27197957 -0.04304680 0.14874592
v -0.27621751 -0.04105185 0.14593866
v -0.27621751 -0.04449186 0.14548525
v -0.27621751 -0.02330831 0.12018654
v -0.25776276 -0.02374311 0.13371609
v -0.25776276 -0.03090447 0.15530732
v -0.26015270 -0.03166536 0.15464719
v -0.27621751 -0.04049557 0.14593866
v -0.27389621 -0.03430611 0.14557858
v -0.27621751 -0.03536753 0.14409162
v -0.27621751 -0.03864128 0.14566526
v -0.27621751 -0.02406922 0.12424742
v -0.25776276 -0.02529687 0.14291136
v -0.25776276 -0.02750922 0.15023956
v -0.26311348 -0.03011160 0.15037294
v -0.26877130 -0.03103874 0.14765905
v -0.27621751 -0.03074462 0.14075090
v -0.27135814 -0.02972796 0.14297136
f 1 2 3
f 1 3 4
f 1 4 13
f 1 13 12
f 1 12 24
f 1 24 31
f 1 31 43
f 1 43 55
f 1 55 56
f 1 56 58
f 1 58 68
f 1 68 80
f 1 80 91
f 1 91 99
f 1 99 100
f 1 100 92
f 1 92 82
f 1 82 81
f 1 81 74
f 1 74 73
f 1 73 72
f 1 72 71
f 1 71 70
f 1 70 69
f 1 69 60
f 1 60 59
f 1 59 46
f 1 46 45
f 1 45 34
f 1 34 33
f 1 33 26
f 1 26 17
f 1 17 5
f 1 5 6
f 1 6 2
f 2 6 7
f 2 7 3
f 3 8 9
f 3 9 10
f 3 10 11
f 3 11 12
f 3 12 13
f 3 13 4
f 3 7 14
f 3 14 15
f 3 15 16
f 3 16 8
f 5 17 6
f 6 17 18
f 6 18 19
f 6 19 20
f 6 20 21
f 6 21 14
f 6 14 7
f 8 22 9
f 8 16 15
f 8 15 20
f 8 20 30
f 8 30 42
f 8 42 54
f 8 54 53
f 8 53 52
f 8 52 65
f 8 65 78
f 8 78 77
f 8 77 89
f 8 89 88
f 8 88 94
f 8 94 97
f 8 97 96
f 8 96 103
f 8 103 98
f 8 98 90
f 8 90 79
f 8 79 66
f 8 66 57
f 8 57 44
f 8 44 32
f 8 32 25
f 8 25 23
f 8 23 22
f 9 22 23
f 9 23 10
f 10 23 11
f 11 24 12
f 11 23 25
f 11 25 24
f 14 21 20
f 14 20 15
f 17 26 18
f 18 27 19
f 18 26 28
f 18 28 29
f 18 29 27
f 19 27 29
f 19 29 30
f 19 30 20
f 24 25 31
f 25 32 31
f 26 33 28
f 28 33 34
f 28 34 35
f 28 35 29
f 29 35 36
f 29 36 37
f 29 37 38
f 29 38 39
f 29 39 40
f 29 40 41
f 29 41 30
f 30 41 42
f 31 32 44
f 31 44 43
f 34 45 36
f 34 36 35
f 36 45 46
f 36 46 47
f 36 47 38
f 36 38 37
f 38 47 48
f 38 48 49
f 38 49 50
f 38 50 51
f 38 51 40
f 38 40 39
f 40 51 41
f 41 51 52
f 41 52 53
f 41 53 54
f 41 54 42
f 43 44 55
f 44 56 55
f 44 57 58
f 44 58 56
f 46 59 47
f 47 59 60
f 47 60 61
f 47 61 48
f 48 61 49
f 49 61 62
f 49 62 63
f 49 63 64
f 49 64 51
f 49 51 50
f 51 65 52
f 51 64 65
f 57 66 67
f 57 67 68
f 57 68 58
f 60 69 61
f 61 70 71
f 61 71 62
f 61 69 70
f 62 71 72
f 62 72 73
f 62 73 74
f 62 74 75
f 62 75 76
f 62 76 63
f 63 76 77
f 63 77 78
f 63 78 64
f 64 78 65
f 66 79 68
f 66 68 67
f 68 79 80
f 74 81 75
f 75 81 82
f 75 82 83
f 75 83 84
f 75 84 85
f 75 85 86
f 75 86 76
f 76 86 87
f 76 87 85
f 76 85 88
f 76 88 89
f 76 89 77
f 79 90 80
f 80 90 91
f 82 92 93
f 82 93 83
f 83 93 84
f 84 94 88
f 84 88 85
f 84 93 95
f 84 95 96
f 84 96 97
f 84 97 94
f 85 87 86
f 90 98 99
f 90 99 91
f 92 100 101
f 92 101 102
f 92 102 93
f 93 102 95
f 95 103 96
f 95 102 103
f 98 103 104
f 98 104 100
f 98 100 99
f 100 104 102
f 100 102 101
f 102 104 103

