v -0.10795506 -0.16416688 0.02527986
v -0.10637959 -0.16416688 0.02445391
v -0.10795506 -0.16416688 0.01478835
v -0.10795506 -0.16512305 0.02494555
v -0.07360284 -0.22661289 -0.01386909
v -0.07258484 -0.22392408 -0.01346103
v -0.07524064 -0.20888853 -0.00698619
v -0.10575632 -0.16416688 0.02408518
v -0.07258484 -0.21152600 -0.00928212
v -0.07442347 -0.16416688 -0.01392808
v -0.10795506 -0.22971884 -0.01943440
v -0.10795506 -0.18379717 0.01735470
v -0.07470740 -0.22971884 -0.01444922
v -0.07258484 -0.22968675 -0.01551607
v -0.07258484 -0.22749849 -0.01471470
v -0.10483181 -0.16416688 0.02353455
v -0.07258484 -0.20667458 -0.00792030
v -0.07290340 -0.16416688 -0.01496543
v -0.07258484 -0.22971884 -0.02494072
v -0.10795506 -0.22971884 -0.00912481
v -0.07258484 -0.16416688 -0.01518175
v -0.07258484 -0.16647066 -0.01560948
v -0.10795506 -0.18479184 0.01693680
v -0.07743245 -0.22971884 -0.01342661
v -0.07262986 -0.22971884 -0.01550623
v -0.07258484 -0.22971884 -0.01556031
v -0.09241502 -0.16647066 0.01493093
v -0.09199604 -0.16416688 0.01515216
v -0.07258484 -0.20490985 -0.00744833
v -0.07258484 -0.19722200 -0.00550145
v -0.10222449 -0.22971884 -0.00911989
v -0.10795506 -0.22922470 -0.00877082
v -0.07258484 -0.16416688 -0.00186826
v -0.10795506 -0.18631914 0.01629275
v -0.09055215 -0.22420004 -0.00699111
v -0.07894560 -0.22971884 -0.01301856
v -0.10549317 -0.20141246 0.00853967
v -0.08724193 -0.16647066 0.01108634
v -0.08743237 -0.16416688 0.01151898
v -0.07258484 -0.19663804 -0.00537362
v -0.07258484 -0.18952775 -0.00391347
v -0.09453758 -0.22971884 -0.00972460
v -0.10222449 -0.22911561 -0.00872658
v -0.10795506 -0.21194955 0.00265971
v -0.10795506 -0.22538079 -0.00618482
v -0.07392486 -0.16416688 -0.00027044
v -0.07258484 -0.17322800 -0.00199609
v -0.10795506 -0.19713859 0.01114042
v -0.09453758 -0.22850600 -0.00897240
v -0.08729040 -0.22971884 -0.01086028
v -0.10795506 -0.20183598 0.00882481
v -0.07853355 -0.17413924 0.00309725
v -0.07515061 -0.17155952 0.00082099
v -0.07501903 -0.16647066 0.00093406
v -0.07505020 -0.16416688 0.00090456
v -0.07258484 -0.18185276 -0.00276795
f 1 2 8
f 1 8 16
f 1 16 28
f 1 28 39
f 1 39 55
f 1 55 46
f 1 46 33
f 1 33 21
f 1 21 18
f 1 18 10
f 1 10 3
f 1 3 11
f 1 11 20
f 1 20 32
f 1 32 45
f 1 45 44
f 1 44 51
f 1 51 48
f 1 48 34
f 1 34 23
f 1 23 12
f 1 12 4
f 1 4 5
f 1 5 6
f 1 6 7
f 1 7 2
f 2 7 9
f 2 9 8
f 3 10 11
f 4 12 13
f 4 13 5
f 5 13 14
f 5 14 15
f 5 15 6
f 6 9 7
f 6 15 14
f 6 14 26
f 6 26 19
f 6 19 22
f 6 22 21
f 6 21 33
f 6 33 47
f 6 47 56
f 6 56 41
f 6 41 40
f 6 40 30
f 6 30 29
f 6 29 17
f 6 17 9
f 8 9 16
f 9 17 16
f 10 18 11
f 11 19 26
f 11 26 25
f 11 25 13
f 11 13 24
f 11 24 36
f 11 36 50
f 11 50 42
f 11 42 31
f 11 31 20
f 11 18 21
f 11 21 22
f 11 22 19
f 12 23 13
f 13 25 14
f 13 23 24
f 14 25 26
f 16 27 28
f 16 17 29
f 16 29 30
f 16 30 27
f 20 31 32
f 23 34 24
f 24 35 36
f 24 34 37
f 24 37 35
f 27 30 28
f 28 38 39
f 28 30 40
f 28 40 41
f 28 41 38
f 31 42 43
f 31 43 44
f 31 44 45
f 31 45 32
f 33 46 47
f 34 48 37
f 35 49 50
f 35 50 36
f 35 37 51
f 35 51 49
f 37 48 51
f 38 41 52
f 38 52 53
f 38 53 39
f 39 53 54
f 39 54 55
f 41 56 53
f 41 53 52
f 42 50 49
f 42 49 44
f 42 44 43
f 44 49 51
f 46 55 54
f 46 54 47
f 47 53 56
f 47 54 53

