v 0.08577805 0.16492407 0.17713452
v 0.10262016 0.16492407 0.18098561
v 0.08232015 0.16492407 0.17755879
v 0.08232015 0.16542451 0.17367509
v 0.08232015 0.16740471 0.16857727
v 0.07736935 0.16817419 0.16519616
v 0.07736935 0.17206734 0.15964144
v 0.07736935 0.17289870 0.15857750
v 0.07736935 0.17532014 0.15550317
v 0.07736935 0.17707973 0.15345359
v 0.10262016 0.16691773 0.17973239
v 0.10262016 0.16492407 0.21251232
v 0.07995969 0.16492407 0.17900131
v 0.07736935 0.16581462 0.17367509
v 0.07736935 0.16648995 0.16948457
v 0.07736935 0.16719485 0.16766998
v 0.07736935 0.18027603 0.15165206
v 0.10262016 0.17426278 0.17755227
v 0.10262016 0.16795895 0.21494701
v 0.10206403 0.16916160 0.21555403
v 0.09337604 0.16755806 0.20866778
v 0.10073921 0.16492407 0.21127868
v 0.08076298 0.16492407 0.18124017
v 0.07736935 0.16546217 0.17641653
v 0.07736935 0.18624085 0.15096017
v 0.07907481 0.18149214 0.15296404
v 0.10262016 0.17955767 0.17667762
v 0.10262016 0.16966741 0.21617412
v 0.08853893 0.17187092 0.20575660
v 0.08587938 0.16771143 0.20095906
v 0.09049156 0.16618591 0.20388327
v 0.09250600 0.16492407 0.20418354
v 0.09755814 0.16492407 0.20872652
v 0.10262016 0.17178214 0.21704878
v 0.09237994 0.17187092 0.20954241
v 0.07736935 0.16599490 0.18097909
v 0.08531089 0.16492407 0.19218641
v 0.07736935 0.18689733 0.15096017
v 0.10262016 0.18380327 0.17697789
v 0.08859330 0.17955767 0.20587408
v 0.08500935 0.17955767 0.20202954
v 0.08511316 0.17187092 0.20191203
v 0.07736935 0.17225835 0.19062640
v 0.07736935 0.17142700 0.18996715
v 0.07736935 0.16795895 0.18678183
v 0.07752259 0.16737511 0.18647505
v 0.07736935 0.16734282 0.18615522
v 0.08763676 0.16492407 0.19673593
v 0.10262016 0.17321886 0.21744695
v 0.10089492 0.17428699 0.21645479
v 0.10089492 0.17792992 0.21645479
v 0.09243431 0.17955767 0.20949673
v 0.07736935 0.16651684 0.18368790
v 0.07736935 0.18849011 0.15297710
v 0.10262016 0.18418532 0.17719326
v 0.10240017 0.18404810 0.17682122
v 0.09344771 0.18380596 0.20860901
v 0.08574098 0.18392703 0.20110918
v 0.07736935 0.18093520 0.19129872
v 0.07736935 0.17767970 0.19209502
v 0.07823939 0.17508069 0.19320466
v 0.07736935 0.17384037 0.19137049
v 0.10262016 0.17694520 0.21763623
v 0.10262016 0.17892272 0.21763623
v 0.09807719 0.18011729 0.21381124
v 0.10262016 0.18210825 0.21689211
v 0.10164384 0.18305262 0.21587388
v 0.07736935 0.19045417 0.15572509
v 0.10262016 0.18667941 0.18144252
v 0.09053358 0.18535838 0.20397465
v 0.10262016 0.18353153 0.21629160
v 0.09769654 0.18546330 0.21038445
v 0.09477254 0.19086043 0.19974497
v 0.07736935 0.19137163 0.17845957
v 0.07736935 0.18568661 0.18790451
v 0.07736935 0.19200120 0.16052916
v 0.10262016 0.19149808 0.19122691
v 0.10262016 0.19009902 0.18738234
v 0.09747903 0.18952594 0.20471225
v 0.10224446 0.19087119 0.20746021
v 0.10262016 0.18745427 0.21216637
v 0.10262016 0.19091963 0.20763646
v 0.09989883 0.19143620 0.20233633
v 0.09289900 0.19148193 0.19461455
v 0.07736935 0.19188551 0.17394923
v 0.07736935 0.19240746 0.16598595
v 0.10262016 0.19196623 0.19682731
v 0.10262016 0.19042995 0.20835445
v 0.10262016 0.19167834 0.20358954
v 0.09747903 0.19176175 0.19700353
f 1 2 12
f 1 12 22
f 1 22 33
f 1 33 32
f 1 32 48
f 1 48 37
f 1 37 23
f 1 23 13
f 1 13 3
f 1 3 4
f 1 4 2
f 2 4 5
f 2 5 6
f 2 6 7
f 2 7 8
f 2 8 9
f 2 9 10
f 2 10 11
f 2 11 18
f 2 18 27
f 2 27 39
f 2 39 55
f 2 55 69
f 2 69 78
f 2 78 77
f 2 77 87
f 2 87 89
f 2 89 82
f 2 82 88
f 2 88 81
f 2 81 71
f 2 71 66
f 2 66 64
f 2 64 63
f 2 63 49
f 2 49 34
f 2 34 28
f 2 28 19
f 2 19 12
f 3 13 4
f 4 14 15
f 4 15 5
f 4 13 14
f 5 15 16
f 5 16 6
f 6 16 15
f 6 15 14
f 6 14 24
f 6 24 36
f 6 36 53
f 6 53 47
f 6 47 45
f 6 45 44
f 6 44 43
f 6 43 62
f 6 62 60
f 6 60 59
f 6 59 75
f 6 75 74
f 6 74 85
f 6 85 86
f 6 86 76
f 6 76 68
f 6 68 54
f 6 54 38
f 6 38 25
f 6 25 17
f 6 17 10
f 6 10 9
f 6 9 8
f 6 8 7
f 10 17 11
f 11 17 18
f 12 19 20
f 12 20 21
f 12 21 22
f 13 23 24
f 13 24 14
f 17 25 26
f 17 26 18
f 18 26 27
f 19 28 20
f 20 28 21
f 21 29 30
f 21 30 31
f 21 31 32
f 21 32 33
f 21 33 22
f 21 28 34
f 21 34 35
f 21 35 29
f 23 36 24
f 23 37 36
f 25 38 27
f 25 27 26
f 27 38 39
f 29 40 41
f 29 41 42
f 29 42 30
f 29 35 40
f 30 32 31
f 30 42 43
f 30 43 44
f 30 44 45
f 30 45 46
f 30 46 47
f 30 47 48
f 30 48 32
f 34 49 35
f 35 49 50
f 35 50 51
f 35 51 52
f 35 52 40
f 36 37 53
f 37 48 53
f 38 54 55
f 38 55 56
f 38 56 39
f 39 56 55
f 40 52 57
f 40 57 58
f 40 58 41
f 41 58 59
f 41 59 60
f 41 60 61
f 41 61 42
f 42 61 62
f 42 62 43
f 45 47 46
f 47 53 48
f 49 63 50
f 50 63 64
f 50 64 51
f 51 64 52
f 52 64 65
f 52 65 66
f 52 66 67
f 52 67 57
f 54 68 55
f 55 68 69
f 57 70 58
f 57 67 71
f 57 71 72
f 57 72 70
f 58 70 73
f 58 73 74
f 58 74 75
f 58 75 59
f 60 62 61
f 64 66 65
f 66 71 67
f 68 76 77
f 68 77 78
f 68 78 69
f 70 79 73
f 70 72 80
f 70 80 79
f 71 81 72
f 72 81 80
f 73 79 80
f 73 80 82
f 73 82 83
f 73 83 84
f 73 84 74
f 74 84 85
f 76 86 87
f 76 87 77
f 80 81 88
f 80 88 82
f 82 89 83
f 83 89 84
f 84 89 85
f 85 89 90
f 85 90 86
f 86 90 89
f 86 89 87

