v 0.28888944 -0.05808558 -0.01243906
v 0.28863960 -0.05221756 -0.01243906
v 0.28888944 -0.05829279 -0.01243906
v 0.16327493 0.00705110 -0.19190454
v 0.28800252 -0.05090803 -0.01243906
v 0.16128879 0.00897395 -0.19387806
v 0.28871454 -0.05904701 -0.01243906
v 0.16290019 -0.00023420 -0.19137117
v 0.16327493 0.00489618 -0.19190454
v 0.16128879 0.00312251 -0.19407364
v 0.28360553 -0.04663134 -0.01243906
v 0.16128879 0.01251300 -0.18845534
v 0.28722807 -0.06232083 -0.01243906
v 0.17070736 -0.00873785 -0.17613420
v 0.16290019 -0.00874614 -0.18379713
v 0.16128879 -0.00379811 -0.18945099
v 0.16128879 0.00163893 -0.19377139
v 0.28174430 -0.04492398 -0.01243906
v 0.16128879 0.01264561 -0.18772639
v 0.28245629 -0.06664725 -0.01243906
v 0.16923337 -0.01601486 -0.16776009
v 0.16409937 -0.01676908 -0.16907577
v 0.16128879 -0.01003909 -0.18216142
v 0.16128879 -0.00694761 -0.18664184
v 0.27988306 -0.06827174 -0.01243906
v 0.27609814 -0.06959784 -0.01364807
v 0.24579377 -0.06213849 -0.04479761
v 0.27454919 -0.04286851 -0.01243906
v 0.16128879 0.01381424 -0.18113023
v 0.16128879 0.01373965 -0.18002790
v 0.16128879 -0.01696800 -0.16937802
v 0.16128879 -0.01578279 -0.17160045
v 0.24067225 -0.06278497 -0.04579327
v 0.27704748 -0.06992936 -0.01243906
v 0.27097662 -0.07040179 -0.01483929
v 0.26695435 -0.04239609 -0.01243906
v 0.17098219 0.00661183 -0.15294984
v 0.16128879 0.01238039 -0.17247164
v 0.16128879 -0.01859248 -0.16473759
v 0.23946058 -0.06278497 -0.04579327
v 0.25147738 -0.06761697 -0.02627146
v 0.27282537 -0.07085764 -0.01243906
v 0.26975245 -0.07040179 -0.01483929
v 0.25917215 -0.04346526 -0.01243906
v 0.17012027 0.00661183 -0.15294984
v 0.16498626 0.00627201 -0.15358990
v 0.16128879 0.01037465 -0.16464869
v 0.16128879 -0.01909806 -0.16258628
v 0.24379511 -0.06532943 -0.03395217
v 0.23856118 -0.06324911 -0.04165065
v 0.26887804 -0.07066702 -0.01243906
v 0.26338178 -0.06993765 -0.01243906
v 0.25147738 -0.06694563 -0.01857297
v 0.24334541 -0.06470783 -0.02621812
v 0.23844876 -0.06348118 -0.03395217
v 0.27236316 -0.07085764 -0.01243906
v 0.25207698 -0.04606774 -0.01243906
v 0.16128879 0.00767271 -0.15792807
v 0.16128879 0.00590733 -0.15422995
v 0.20147392 -0.01650386 -0.09157527
v 0.16128879 -0.01995174 -0.15696799
v 0.22398361 -0.05528418 -0.06231035
v 0.23472629 -0.06139256 -0.04165065
v 0.22377126 -0.05547481 -0.05702986
v 0.25761072 -0.06799822 -0.01243906
v 0.24595615 -0.06388729 -0.01857297
v 0.23931068 -0.06308334 -0.02874280
v 0.22409603 -0.05533391 -0.05146490
v 0.25086532 -0.04660648 -0.01243906
v 0.16128879 0.00208649 -0.14919838
v 0.16128879 0.00010562 -0.14672704
v 0.20888138 -0.02398808 -0.07592938
v 0.16128879 -0.01977769 -0.15446109
v 0.25112764 -0.06425198 -0.01243906
v 0.24048486 -0.06174895 -0.02362233
v 0.25047807 -0.06384585 -0.01243906
v 0.24741765 -0.06285956 -0.01446593
v 0.23142852 -0.05611300 -0.03395217
v 0.22483302 -0.05434762 -0.04634443
v 0.16128879 -0.01850131 -0.14937617
v 0.24754258 -0.04720322 -0.01462594
v 0.24801725 -0.05112352 -0.01243906
v 0.23195319 -0.03931289 -0.03745471
v 0.16128879 -0.00142769 -0.14539358
v 0.23967294 -0.04696287 -0.02207551
v 0.23225297 -0.05497752 -0.03009404
v 0.24861683 -0.06110247 -0.01243906
v 0.24660569 -0.05881494 -0.01364807
v 0.23918575 -0.05662686 -0.02150657
v 0.16128879 -0.01732439 -0.14747377
v 0.24772994 -0.05881494 -0.01243906
v 0.24285825 -0.05112352 -0.01763066
v 0.16128879 -0.00528998 -0.14327783
v 0.22438332 -0.03934605 -0.04525988
v 0.23234041 -0.04965652 -0.03020071
v 0.23917327 -0.05112352 -0.02148879
v 0.23225297 -0.05477861 -0.03009404
v 0.16128879 -0.00922685 -0.14304670
v 0.16128879 -0.01199510 -0.14318894
v 0.16128879 -0.01434065 -0.14416680
v 0.16128879 -0.01575792 -0.14567805
v 0.20918118 -0.03187012 -0.06853314
v 0.23476377 -0.05177829 -0.02703598
f 1 2 5
f 1 5 11
f 1 11 18
f 1 18 28
f 1 28 36
f 1 36 44
f 1 44 57
f 1 57 69
f 1 69 82
f 1 82 91
f 1 91 87
f 1 87 76
f 1 76 74
f 1 74 65
f 1 65 52
f 1 52 51
f 1 51 56
f 1 56 42
f 1 42 34
f 1 34 25
f 1 25 20
f 1 20 13
f 1 13 7
f 1 7 3
f 1 3 9
f 1 9 4
f 1 4 2
f 2 4 6
f 2 6 5
f 3 7 8
f 3 8 9
f 4 9 10
f 4 10 6
f 5 6 12
f 5 12 11
f 6 10 17
f 6 17 16
f 6 16 24
f 6 24 23
f 6 23 32
f 6 32 31
f 6 31 39
f 6 39 48
f 6 48 61
f 6 61 73
f 6 73 80
f 6 80 90
f 6 90 101
f 6 101 100
f 6 100 99
f 6 99 98
f 6 98 93
f 6 93 84
f 6 84 71
f 6 71 70
f 6 70 59
f 6 59 58
f 6 58 47
f 6 47 38
f 6 38 30
f 6 30 29
f 6 29 19
f 6 19 12
f 7 13 8
f 8 14 15
f 8 15 16
f 8 16 17
f 8 17 10
f 8 10 9
f 8 13 14
f 11 12 18
f 12 19 18
f 13 20 15
f 13 15 14
f 15 21 22
f 15 22 23
f 15 23 24
f 15 24 16
f 15 20 25
f 15 25 26
f 15 26 27
f 15 27 21
f 18 19 29
f 18 29 30
f 18 30 28
f 21 27 22
f 22 31 32
f 22 32 23
f 22 27 33
f 22 33 31
f 25 34 26
f 26 34 35
f 26 35 27
f 27 35 33
f 28 30 37
f 28 37 36
f 30 38 37
f 31 33 40
f 31 40 39
f 33 35 41
f 33 41 40
f 34 42 35
f 35 42 56
f 35 56 43
f 35 43 41
f 36 37 45
f 36 45 46
f 36 46 44
f 37 38 47
f 37 47 45
f 39 40 48
f 40 41 49
f 40 49 50
f 40 50 48
f 41 43 51
f 41 51 52
f 41 52 53
f 41 53 54
f 41 54 55
f 41 55 49
f 43 56 51
f 44 46 58
f 44 58 59
f 44 59 60
f 44 60 57
f 45 47 58
f 45 58 46
f 48 50 62
f 48 62 61
f 49 55 50
f 50 63 64
f 50 64 62
f 50 55 63
f 52 65 53
f 53 66 54
f 53 65 66
f 54 67 55
f 54 66 67
f 55 67 68
f 55 68 64
f 55 64 63
f 57 60 69
f 59 70 60
f 60 70 71
f 60 71 72
f 60 72 69
f 61 62 64
f 61 64 68
f 61 68 73
f 65 74 66
f 66 75 67
f 66 74 76
f 66 76 77
f 66 77 75
f 67 75 78
f 67 78 79
f 67 79 68
f 68 79 80
f 68 80 73
f 69 81 82
f 69 72 83
f 69 83 81
f 71 84 85
f 71 85 83
f 71 83 72
f 75 86 78
f 75 77 86
f 76 87 77
f 77 87 88
f 77 88 89
f 77 89 86
f 78 86 79
f 79 86 90
f 79 90 80
f 81 83 85
f 81 85 82
f 82 85 92
f 82 92 91
f 84 93 94
f 84 94 85
f 85 94 95
f 85 95 96
f 85 96 92
f 86 89 96
f 86 96 97
f 86 97 98
f 86 98 99
f 86 99 100
f 86 100 101
f 86 101 90
f 87 91 88
f 88 91 89
f 89 91 96
f 91 92 96
f 93 98 95
f 93 95 102
f 93 102 94
f 94 102 95
f 95 97 103
f 95 103 96
f 95 98 97
f 96 103 97

