v 0.10263054 0.17956003 0.17668207
v 0.10263054 0.17948323 0.17668864
v 0.10263054 0.18380244 0.17697728
v 0.13666936 0.16492139 0.18147744
v 0.13615017 0.16492139 0.18139217
v 0.12895403 0.16492139 0.18026385
v 0.10263054 0.17426295 0.17755455
v 0.12846599 0.16492139 0.18023105
v 0.10263054 0.18418650 0.17719376
v 0.14713646 0.16492139 0.18484929
v 0.14171600 0.16492139 0.18280257
v 0.10263054 0.16691852 0.17973248
v 0.11195539 0.16492139 0.17972593
v 0.10263054 0.18667699 0.18144464
v 0.16414549 0.19187363 0.21511066
v 0.15573443 0.16492139 0.18911331
v 0.10263054 0.16492139 0.18098545
v 0.10263054 0.19009809 0.18738801
v 0.15921308 0.19435231 0.21980763
v 0.16678304 0.19283379 0.21994538
v 0.17160121 0.19178796 0.22259564
v 0.18043802 0.18456465 0.22243163
v 0.18316901 0.17251695 0.21148298
v 0.18066649 0.16964535 0.20695655
v 0.17119625 0.16822137 0.20020631
v 0.10539269 0.19140094 0.19180947
v 0.17231771 0.16492139 0.19927478
v 0.10263054 0.16492139 0.21251290
v 0.10263054 0.19149844 0.19123219
v 0.15152890 0.19487817 0.23518431
v 0.15921308 0.19460638 0.22749597
v 0.16689727 0.19459161 0.24369264
v 0.16689727 0.19361078 0.22749597
v 0.10539269 0.19207453 0.19674261
v 0.12077142 0.19353691 0.21211272
v 0.17767586 0.19217793 0.24369264
v 0.18378168 0.19043193 0.24369264
v 0.19013670 0.18716445 0.24369264
v 0.19199543 0.18591773 0.24369264
v 0.18674112 0.18405060 0.22964109
v 0.18556773 0.18196190 0.22451116
v 0.18567157 0.17538854 0.21715738
v 0.18777953 0.17026280 0.21366090
v 0.18462279 0.16492139 0.20879337
v 0.18129991 0.16492139 0.20592663
v 0.10719951 0.16623607 0.21761002
v 0.10263054 0.16795843 0.21495322
v 0.13615017 0.16492139 0.23999280
v 0.10263054 0.19196522 0.19683446
v 0.15921308 0.19510270 0.24287266
v 0.13615017 0.19418096 0.22749597
v 0.15914040 0.19493431 0.24369264
v 0.17480987 0.19287219 0.24369264
v 0.10263054 0.19167569 0.20359782
v 0.11271342 0.19229314 0.21228330
v 0.20870334 0.16492139 0.24369264
v 0.19324152 0.16492139 0.21891546
v 0.18971095 0.16492139 0.21349689
v 0.10263054 0.16966898 0.21617338
v 0.13819581 0.16714304 0.24369264
v 0.13206924 0.16778708 0.23923183
v 0.14114488 0.16492139 0.24369264
v 0.14384472 0.19432571 0.23518431
v 0.15152890 0.19416323 0.24287266
v 0.12058451 0.19253540 0.22006346
v 0.15152890 0.19388848 0.24369264
v 0.10263054 0.19091939 0.20763879
v 0.11502906 0.19182932 0.21766906
v 0.10263054 0.17178132 0.21704587
v 0.13529868 0.17067936 0.24369264
v 0.13481063 0.17142975 0.24369264
v 0.13637862 0.19249700 0.23503342
v 0.14434315 0.19224884 0.24254464
v 0.14508042 0.19200954 0.24369264
v 0.10263054 0.19043193 0.20836039
v 0.10989934 0.19069190 0.21496634
v 0.11789505 0.19046147 0.22279900
v 0.13908884 0.19152502 0.23975664
v 0.10263054 0.17321712 0.21744601
v 0.13350223 0.17756292 0.24369264
v 0.13077124 0.17186995 0.24043888
v 0.14325283 0.19080121 0.24369264
v 0.10263054 0.18745398 0.21217176
v 0.10677376 0.18556616 0.21807578
v 0.13396952 0.18973471 0.23749344
v 0.13946267 0.18816302 0.24369264
v 0.10263054 0.17694546 0.21763626
v 0.13318034 0.17956003 0.24369264
v 0.10263054 0.18353064 0.21629147
v 0.11489406 0.18533277 0.22533117
v 0.13662782 0.18695469 0.24242001
v 0.13732356 0.18623384 0.24369264
v 0.10263054 0.17892782 0.21763626
v 0.13122813 0.18460897 0.23995345
v 0.10263054 0.18210962 0.21689497
f 1 2 7
f 1 7 12
f 1 12 17
f 1 17 28
f 1 28 47
f 1 47 59
f 1 59 69
f 1 69 79
f 1 79 87
f 1 87 93
f 1 93 95
f 1 95 89
f 1 89 83
f 1 83 75
f 1 75 67
f 1 67 54
f 1 54 49
f 1 49 29
f 1 29 18
f 1 18 14
f 1 14 9
f 1 9 3
f 1 3 4
f 1 4 5
f 1 5 6
f 1 6 2
f 2 6 8
f 2 8 7
f 3 9 10
f 3 10 11
f 3 11 4
f 4 11 10
f 4 10 16
f 4 16 27
f 4 27 45
f 4 45 44
f 4 44 58
f 4 58 57
f 4 57 56
f 4 56 62
f 4 62 48
f 4 48 28
f 4 28 17
f 4 17 13
f 4 13 8
f 4 8 6
f 4 6 5
f 7 8 13
f 7 13 12
f 9 14 15
f 9 15 16
f 9 16 10
f 12 13 17
f 14 18 15
f 15 19 20
f 15 20 21
f 15 21 22
f 15 22 23
f 15 23 24
f 15 24 25
f 15 25 16
f 15 18 26
f 15 26 19
f 16 25 27
f 18 29 26
f 19 30 31
f 19 31 32
f 19 32 33
f 19 33 20
f 19 26 29
f 19 29 34
f 19 34 35
f 19 35 30
f 20 33 21
f 21 33 36
f 21 36 37
f 21 37 38
f 21 38 39
f 21 39 40
f 21 40 41
f 21 41 22
f 22 41 42
f 22 42 23
f 23 42 43
f 23 43 24
f 24 43 44
f 24 44 45
f 24 45 27
f 24 27 25
f 28 46 47
f 28 48 46
f 29 49 34
f 30 50 31
f 30 35 51
f 30 51 50
f 31 50 32
f 32 50 52
f 32 52 66
f 32 66 74
f 32 74 82
f 32 82 86
f 32 86 92
f 32 92 88
f 32 88 80
f 32 80 71
f 32 71 70
f 32 70 60
f 32 60 62
f 32 62 56
f 32 56 39
f 32 39 38
f 32 38 37
f 32 37 36
f 32 36 53
f 32 53 33
f 33 53 36
f 34 49 35
f 35 49 54
f 35 54 55
f 35 55 51
f 39 56 40
f 40 56 41
f 41 56 43
f 41 43 42
f 43 56 57
f 43 57 58
f 43 58 44
f 46 59 47
f 46 48 60
f 46 60 61
f 46 61 59
f 48 62 60
f 50 51 63
f 50 63 64
f 50 64 52
f 51 55 65
f 51 65 63
f 52 64 66
f 54 67 68
f 54 68 55
f 55 68 65
f 59 61 70
f 59 70 71
f 59 71 69
f 60 70 61
f 63 65 68
f 63 68 72
f 63 72 64
f 64 72 73
f 64 73 66
f 66 73 74
f 67 75 76
f 67 76 68
f 68 76 77
f 68 77 78
f 68 78 72
f 69 71 79
f 71 80 81
f 71 81 79
f 72 78 73
f 73 78 74
f 74 78 82
f 75 83 76
f 76 83 77
f 77 83 84
f 77 84 85
f 77 85 78
f 78 85 86
f 78 86 82
f 79 81 80
f 79 80 88
f 79 88 87
f 83 89 84
f 84 90 85
f 84 89 90
f 85 91 86
f 85 90 91
f 86 91 92
f 87 88 93
f 88 92 94
f 88 94 95
f 88 95 93
f 89 95 94
f 89 94 90
f 90 94 92
f 90 92 91

