v 0.21611460 0.06116459 0.08597595
v 0.21646272 0.06116459 0.08597595
v 0.20950018 0.06116459 0.08764580
v 0.20773907 0.06855601 0.09248671
v 0.17460563 0.11393035 0.13161871
v 0.20536361 0.08482297 0.10697568
v 0.20536361 0.08866419 0.11068646
v 0.20536361 0.09262180 0.11453218
v 0.21799857 0.06116459 0.08626271
v 0.19766389 0.08898429 0.11016358
v 0.19766389 0.09326928 0.11400930
v 0.20395065 0.06116459 0.09132287
v 0.20233287 0.06422010 0.09319513
v 0.14814803 0.12912061 0.14681610
v 0.14722651 0.13547898 0.15170758
v 0.17460563 0.11008186 0.12856572
v 0.15128116 0.13547898 0.15143773
v 0.15619587 0.13547898 0.15147144
v 0.17100149 0.12192561 0.13904031
v 0.18228490 0.11353750 0.13209099
v 0.21304288 0.09173425 0.11534183
v 0.21304288 0.08798033 0.11149608
v 0.21304288 0.08413912 0.10771783
v 0.22125457 0.06116459 0.08708918
v 0.21752756 0.08365169 0.10817323
v 0.20003934 0.06116459 0.09766495
v 0.13967011 0.12900420 0.15406901
v 0.13962917 0.13342015 0.15406901
v 0.13973155 0.13547898 0.15420395
v 0.14179983 0.13547898 0.15307385
v 0.15922664 0.13547898 0.15172446
v 0.16287173 0.13547898 0.15228109
v 0.16491952 0.13547898 0.15260157
v 0.17614149 0.12151821 0.13951259
v 0.18228490 0.11698586 0.13593672
v 0.21701563 0.09120317 0.11588157
v 0.19766389 0.10800121 0.12972957
v 0.22252420 0.07519084 0.10115646
v 0.22842187 0.06259777 0.09063131
v 0.22842187 0.06116459 0.08924820
v 0.19907688 0.06116459 0.10048179
v 0.13094649 0.13547898 0.16599414
v 0.13336289 0.13547898 0.16063035
v 0.16995711 0.13547898 0.15465937
v 0.18998462 0.12001227 0.14162099
v 0.18998462 0.11617106 0.13704996
v 0.18228490 0.12082708 0.14035595
v 0.22264707 0.08291691 0.10943828
v 0.19410070 0.12209294 0.14631007
v 0.28653851 0.12208565 0.20031898
v 0.29307101 0.11406858 0.19306607
v 0.29919393 0.10604422 0.18589750
v 0.30529639 0.10095898 0.18270959
v 0.33185638 0.06793764 0.15472683
v 0.33242978 0.06116459 0.14693415
v 0.23372568 0.06168112 0.09186262
v 0.23395093 0.06116459 0.09157587
v 0.19903590 0.06116459 0.10459739
v 0.13037310 0.13547898 0.17366874
v 0.17460563 0.13547898 0.15693643
v 0.18998462 0.12278406 0.14546671
v 0.18054425 0.13547898 0.16017496
v 0.27359641 0.13547898 0.21347544
v 0.27801965 0.13547898 0.21642720
v 0.29571266 0.11582913 0.19819372
v 0.30285951 0.10778295 0.19102512
v 0.30994489 0.09956945 0.18407583
v 0.31690743 0.09121044 0.17737955
v 0.33951516 0.06116459 0.15452443
v 0.33838888 0.06116459 0.15292202
v 0.33648442 0.06116459 0.15034134
v 0.33380179 0.06116459 0.14804740
v 0.19952738 0.06116459 0.10704313
v 0.13432535 0.13547898 0.18110719
v 0.20028508 0.06116459 0.10957322
v 0.28068179 0.13547898 0.22093075
v 0.28627229 0.12976808 0.21546576
v 0.30367861 0.10895424 0.19672625
v 0.31707125 0.09143597 0.18136021
v 0.31035444 0.10022420 0.18903480
v 0.33341273 0.06966909 0.16599414
v 0.33955611 0.06116459 0.15821836
v 0.13518544 0.13547898 0.18230477
v 0.20268099 0.06116459 0.11239007
v 0.28105040 0.13547898 0.22728970
v 0.28639516 0.12994269 0.21980065
v 0.30048406 0.11269360 0.20441773
v 0.30752849 0.10368711 0.19672625
v 0.31707125 0.09145780 0.18604930
v 0.33933086 0.06116459 0.16297490
v 0.33951516 0.06116459 0.15966894
v 0.16266694 0.12928066 0.20119608
v 0.15932902 0.13547898 0.20829719
v 0.22168461 0.06116459 0.13425000
v 0.27941216 0.13547898 0.23388479
v 0.28629278 0.12986993 0.22423674
v 0.30308476 0.10885238 0.20441773
v 0.33288028 0.06919622 0.17142539
v 0.32460716 0.07596927 0.18530713
v 0.33386323 0.06422010 0.17289286
v 0.33433424 0.06116459 0.17302777
v 0.24068823 0.06116459 0.15361358
v 0.21312480 0.13547898 0.24788459
v 0.27818347 0.13547898 0.23729197
v 0.30208132 0.10765201 0.20932609
v 0.30926914 0.09906748 0.20080814
v 0.32468908 0.07190980 0.18537462
v 0.33185638 0.06422010 0.17673858
v 0.27875687 0.13069928 0.23946786
v 0.33156970 0.06116459 0.17687352
v 0.24181450 0.06116459 0.15438949
v 0.21939108 0.13053924 0.24486537
v 0.21482448 0.13547898 0.24911591
v 0.27752818 0.13547898 0.23832088
v 0.27873638 0.12573045 0.23941726
v 0.32466859 0.06766846 0.18532402
v 0.27120047 0.13547898 0.24731111
v 0.27466125 0.13547898 0.24258828
v 0.32735121 0.06116459 0.18065179
v 0.27185576 0.06116459 0.17500126
v 0.22451059 0.12954984 0.24673763
v 0.21975968 0.13547898 0.25216888
v 0.27849064 0.12175828 0.23909678
v 0.27118001 0.13342015 0.24727739
v 0.26472943 0.13547898 0.25329900
v 0.32067538 0.06200849 0.18471677
v 0.32067538 0.06116459 0.18424449
v 0.27711863 0.06116459 0.17815542
v 0.22107026 0.13547898 0.25277610
v 0.29536454 0.06116459 0.18534088
v 0.23610114 0.13547898 0.25785315
v 0.26257923 0.13547898 0.25436162
v 0.31860710 0.06116459 0.18496980
v 0.25915939 0.13547898 0.25571100
v 0.29931680 0.06116459 0.18630229
v 0.30144652 0.06116459 0.18645412
v 0.30529639 0.06116459 0.18669026
v 0.24378040 0.13547898 0.25827483
v 0.31596543 0.06116459 0.18584690
v 0.25148013 0.13547898 0.25754952
v 0.31229988 0.06116459 0.18626858
f 1 2 9
f 1 9 24
f 1 24 40
f 1 40 57
f 1 57 55
f 1 55 72
f 1 72 71
f 1 71 70
f 1 70 69
f 1 69 82
f 1 82 91
f 1 91 90
f 1 90 101
f 1 101 110
f 1 110 119
f 1 119 127
f 1 127 133
f 1 133 139
f 1 139 141
f 1 141 137
f 1 137 136
f 1 136 135
f 1 135 130
f 1 130 128
f 1 128 120
f 1 120 111
f 1 111 102
f 1 102 94
f 1 94 84
f 1 84 75
f 1 75 73
f 1 73 58
f 1 58 41
f 1 41 26
f 1 26 12
f 1 12 3
f 1 3 4
f 1 4 5
f 1 5 2
f 2 6 7
f 2 7 8
f 2 8 9
f 2 5 10
f 2 10 11
f 2 11 6
f 3 12 13
f 3 13 14
f 3 14 4
f 4 14 15
f 4 15 16
f 4 16 5
f 5 16 15
f 5 15 17
f 5 17 18
f 5 18 19
f 5 19 20
f 5 20 11
f 5 11 10
f 6 11 7
f 7 11 8
f 8 21 22
f 8 22 23
f 8 23 9
f 8 11 20
f 8 20 21
f 9 23 25
f 9 25 24
f 12 26 27
f 12 27 28
f 12 28 29
f 12 29 13
f 13 29 14
f 14 29 30
f 14 30 15
f 15 30 29
f 15 29 43
f 15 43 42
f 15 42 59
f 15 59 74
f 15 74 83
f 15 83 93
f 15 93 103
f 15 103 113
f 15 113 122
f 15 122 129
f 15 129 131
f 15 131 138
f 15 138 140
f 15 140 134
f 15 134 132
f 15 132 125
f 15 125 117
f 15 117 118
f 15 118 114
f 15 114 104
f 15 104 95
f 15 95 85
f 15 85 76
f 15 76 64
f 15 64 63
f 15 63 62
f 15 62 60
f 15 60 44
f 15 44 33
f 15 33 32
f 15 32 31
f 15 31 18
f 15 18 17
f 18 31 19
f 19 31 32
f 19 32 33
f 19 33 34
f 19 34 20
f 20 34 35
f 20 35 21
f 21 36 25
f 21 25 22
f 21 35 37
f 21 37 36
f 22 25 23
f 24 25 38
f 24 38 39
f 24 39 40
f 25 36 38
f 26 41 42
f 26 42 43
f 26 43 27
f 27 43 28
f 28 43 29
f 33 44 45
f 33 45 46
f 33 46 47
f 33 47 34
f 34 47 46
f 34 46 35
f 35 46 37
f 36 48 38
f 36 37 45
f 36 45 49
f 36 49 50
f 36 50 51
f 36 51 52
f 36 52 53
f 36 53 54
f 36 54 55
f 36 55 48
f 37 46 45
f 38 48 56
f 38 56 39
f 39 56 40
f 40 56 57
f 41 58 59
f 41 59 42
f 44 60 49
f 44 49 61
f 44 61 45
f 45 61 49
f 48 55 56
f 49 60 62
f 49 62 63
f 49 63 50
f 50 63 64
f 50 64 65
f 50 65 66
f 50 66 51
f 51 66 67
f 51 67 53
f 51 53 52
f 53 67 54
f 54 67 68
f 54 68 69
f 54 69 70
f 54 70 71
f 54 71 72
f 54 72 55
f 55 57 56
f 58 73 59
f 59 73 75
f 59 75 74
f 64 76 77
f 64 77 65
f 65 77 66
f 66 77 67
f 67 77 78
f 67 78 68
f 68 79 69
f 68 78 80
f 68 80 79
f 69 81 82
f 69 79 81
f 74 75 83
f 75 84 83
f 76 85 86
f 76 86 77
f 77 86 78
f 78 87 88
f 78 88 89
f 78 89 80
f 78 86 87
f 79 89 81
f 79 80 89
f 81 90 91
f 81 91 82
f 81 89 90
f 83 92 93
f 83 84 94
f 83 94 92
f 85 95 96
f 85 96 86
f 86 96 87
f 87 97 88
f 87 96 97
f 88 97 89
f 89 98 90
f 89 97 98
f 90 98 99
f 90 99 100
f 90 100 101
f 92 94 102
f 92 102 93
f 93 102 103
f 95 104 96
f 96 104 105
f 96 105 106
f 96 106 97
f 97 106 98
f 98 106 99
f 99 107 108
f 99 108 100
f 99 106 105
f 99 105 109
f 99 109 107
f 100 108 101
f 101 108 110
f 102 111 112
f 102 112 103
f 103 112 113
f 104 114 109
f 104 109 105
f 107 109 115
f 107 115 116
f 107 116 108
f 108 116 110
f 109 117 115
f 109 114 118
f 109 118 117
f 110 116 119
f 111 120 112
f 112 121 113
f 112 120 121
f 113 121 122
f 115 123 116
f 115 117 124
f 115 124 123
f 116 123 119
f 117 125 124
f 119 126 127
f 119 123 126
f 120 128 121
f 121 129 122
f 121 128 130
f 121 130 131
f 121 131 129
f 123 127 126
f 123 124 125
f 123 125 132
f 123 132 127
f 127 132 134
f 127 134 133
f 130 135 131
f 131 135 136
f 131 136 137
f 131 137 138
f 133 134 139
f 134 140 139
f 137 141 138
f 138 141 140
f 139 140 141

