v -0.14375132 -0.02097973 0.05496441
v -0.14803345 -0.02097973 0.05849459
v -0.14375132 0.04114566 0.07299481
v -0.14375132 -0.02097973 0.09707065
v -0.14813823 -0.02097973 0.05858285
v -0.14375132 0.04326823 0.07382441
v -0.17661469 -0.02097973 0.08299405
v -0.17699540 -0.02097973 0.08337354
v -0.14375132 0.02345757 0.12247030
v -0.16741826 -0.00144243 0.13920338
v -0.16913320 -0.00657198 0.13750888
v -0.15745691 -0.02097973 0.11317711
v -0.14375132 0.04732845 0.07576600
v -0.17942985 -0.02097973 0.08599471
v -0.16749510 0.04479583 0.10068909
v -0.15323416 0.06115732 0.09200484
v -0.14375132 0.02771075 0.12420009
v -0.14375132 0.02779919 0.12422657
v -0.14375132 0.03226945 0.12481787
v -0.16709343 0.00270623 0.13939753
v -0.17942985 -0.00623429 0.14509877
v -0.17942985 -0.01342209 0.14342195
v -0.17942985 -0.01864008 0.14020066
v -0.17942985 -0.02097973 0.13823259
v -0.14375132 0.05137259 0.07776055
v -0.17942985 -0.02036065 0.08625947
v -0.16096364 0.05652625 0.09943588
v -0.17580437 0.03835576 0.10775828
v -0.14743269 0.06115732 0.08671839
v -0.15902166 0.06115732 0.09982420
v -0.14375132 0.03345134 0.12488849
v -0.16709692 0.00851918 0.13937105
v -0.17143143 0.00270623 0.14155978
v -0.17942985 -0.00498809 0.14512525
v -0.14375132 0.05909907 0.08234097
v -0.17942985 0.03389354 0.11028235
v -0.17942985 0.03691660 0.11220631
v -0.15992279 0.06040155 0.10058318
v -0.14375132 0.06115732 0.08356771
v -0.16001361 0.06115732 0.10445756
v -0.14375132 0.04038989 0.12457959
v -0.17080274 0.01080255 0.14061544
v -0.17942985 0.00288311 0.14499287
v -0.17942985 0.00263387 0.14501052
v -0.14375132 0.04114566 0.12450899
v -0.17942985 0.04045421 0.11966382
v -0.17722941 0.04100898 0.11248871
v -0.17556337 0.04528628 0.11528639
v -0.14375132 0.06115732 0.11826057
v -0.16019523 0.06115732 0.10965574
v -0.17285298 0.01808682 0.13999765
v -0.17942985 0.01001463 0.14376613
v -0.14375132 0.04431343 0.12403242
v -0.14399582 0.04584908 0.12390004
v -0.17836106 0.04154766 0.11961086
v -0.17556337 0.04528628 0.11688379
v -0.17942985 0.03692464 0.12783618
v -0.17456095 0.04437775 0.12201139
v -0.14836526 0.06115732 0.11823408
v -0.16939516 0.03766432 0.13157818
v -0.16613991 0.03766432 0.13157818
v -0.14375132 0.06044175 0.11861358
v -0.16038733 0.06092415 0.10999113
v -0.16004504 0.06115732 0.11015880
v -0.17437234 0.02258121 0.13938870
v -0.17942985 0.01775718 0.14173627
v -0.14375132 0.04608224 0.12373235
v -0.14375132 0.05436348 0.12096115
v -0.14836526 0.04727217 0.12458841
v -0.16770815 0.05279568 0.11620425
v -0.17942985 0.03665128 0.12819803
v -0.16943357 0.04634756 0.12487966
v -0.15938142 0.06003975 0.11511870
v -0.15048536 0.06115732 0.11793403
v -0.16374387 0.04752141 0.12559452
v -0.17451903 0.03716584 0.13122517
v -0.17942985 0.02664947 0.13748239
v -0.17942985 0.02295909 0.13965347
v -0.17942985 0.02277417 0.13975937
v -0.17912249 0.02296713 0.13965347
v -0.15839646 0.06115732 0.11420969
v -0.17942985 0.03648243 0.12841866
v -0.17942985 0.03240613 0.13350214
v -0.15441821 0.06115732 0.11706914
v -0.15538920 0.06115732 0.11651313
v -0.17912249 0.03248653 0.13354625
v -0.17942985 0.03226945 0.13361687
f 1 2 3
f 1 3 6
f 1 6 13
f 1 13 25
f 1 25 35
f 1 35 39
f 1 39 49
f 1 49 62
f 1 62 68
f 1 68 67
f 1 67 53
f 1 53 45
f 1 45 41
f 1 41 31
f 1 31 19
f 1 19 18
f 1 18 17
f 1 17 9
f 1 9 4
f 1 4 12
f 1 12 24
f 1 24 14
f 1 14 8
f 1 8 7
f 1 7 5
f 1 5 2
f 2 5 3
f 3 5 7
f 3 7 8
f 3 8 6
f 4 9 10
f 4 10 11
f 4 11 12
f 6 8 14
f 6 14 15
f 6 15 16
f 6 16 13
f 9 17 10
f 10 17 18
f 10 18 19
f 10 19 20
f 10 20 21
f 10 21 22
f 10 22 23
f 10 23 11
f 11 23 12
f 12 23 24
f 13 16 25
f 14 26 15
f 14 24 23
f 14 23 22
f 14 22 21
f 14 21 34
f 14 34 44
f 14 44 43
f 14 43 52
f 14 52 66
f 14 66 79
f 14 79 78
f 14 78 77
f 14 77 87
f 14 87 83
f 14 83 82
f 14 82 71
f 14 71 57
f 14 57 46
f 14 46 37
f 14 37 36
f 14 36 26
f 15 27 16
f 15 26 28
f 15 28 27
f 16 29 25
f 16 27 30
f 16 30 40
f 16 40 50
f 16 50 64
f 16 64 81
f 16 81 85
f 16 85 84
f 16 84 74
f 16 74 59
f 16 59 49
f 16 49 39
f 16 39 29
f 19 31 20
f 20 32 33
f 20 33 21
f 20 31 32
f 21 33 34
f 25 29 35
f 26 36 28
f 27 28 30
f 28 36 37
f 28 37 38
f 28 38 30
f 29 39 35
f 30 38 40
f 31 41 32
f 32 42 43
f 32 43 44
f 32 44 33
f 32 41 45
f 32 45 42
f 33 44 34
f 37 46 47
f 37 47 38
f 38 47 48
f 38 48 40
f 40 48 50
f 42 51 52
f 42 52 43
f 42 45 53
f 42 53 54
f 42 54 51
f 46 55 56
f 46 56 48
f 46 48 47
f 46 57 58
f 46 58 55
f 48 56 50
f 49 59 60
f 49 60 61
f 49 61 62
f 50 56 63
f 50 63 64
f 51 65 52
f 51 54 65
f 52 65 66
f 53 67 54
f 54 67 68
f 54 68 69
f 54 69 65
f 55 58 56
f 56 58 70
f 56 70 63
f 57 71 72
f 57 72 58
f 58 72 73
f 58 73 70
f 59 74 75
f 59 75 60
f 60 75 76
f 60 76 77
f 60 77 78
f 60 78 79
f 60 79 80
f 60 80 61
f 61 80 65
f 61 65 62
f 62 65 68
f 63 70 64
f 64 70 73
f 64 73 81
f 65 80 79
f 65 79 66
f 65 69 68
f 71 82 72
f 72 82 83
f 72 83 76
f 72 76 84
f 72 84 85
f 72 85 73
f 73 85 81
f 74 84 75
f 75 84 76
f 76 83 86
f 76 86 77
f 77 86 87
f 83 87 86

