v -0.13946482 -0.08251327 0.03428028
v -0.14786742 -0.08251327 0.03428028
v -0.13957307 -0.08298453 0.03428028
v -0.13741549 -0.08958211 0.03081418
v -0.12880199 -0.10506185 0.01862183
v -0.12880199 -0.08251327 0.02183676
v -0.14786742 -0.08251327 0.02882638
v -0.14786742 -0.09471470 0.03428028
v -0.14115019 -0.08958211 0.03428028
v -0.13860440 -0.09727588 0.03014679
v -0.13466253 -0.09727588 0.02630753
v -0.12880199 -0.10984612 0.01707894
v -0.12880199 -0.08251327 0.00875456
v -0.14786742 -0.11477382 -0.00213173
v -0.14786742 -0.09673291 0.03425875
v -0.14723284 -0.09604651 0.03428028
v -0.14132937 -0.09005336 0.03428028
v -0.14244922 -0.09727588 0.03277329
v -0.14390875 -0.10158890 0.03176144
v -0.14532536 -0.16149989 -0.00011522
v -0.12880199 -0.18717311 -0.02837508
v -0.14786742 -0.11986543 -0.00471517
v -0.12880199 -0.17693866 -0.03520682
v -0.13298836 -0.16847654 -0.03090828
v -0.13822178 -0.15370369 -0.02333739
v -0.14786742 -0.09727588 0.03412959
v -0.14786742 -0.15907190 0.00283419
v -0.14786742 -0.16270877 0.00076745
v -0.14786742 -0.18717311 -0.01463984
v -0.14610366 -0.18717311 -0.01584545
v -0.12880199 -0.18717311 -0.03903173
v -0.13724379 -0.16940881 -0.03042030
v -0.14786742 -0.18717311 -0.02614328
v -0.12880199 -0.18419191 -0.03832847
v -0.13028765 -0.18717311 -0.03843610
v -0.12988077 -0.18451973 -0.03817059
v -0.12880199 -0.18569789 -0.03878774
v -0.13803514 -0.17415210 -0.03103027
v -0.14391995 -0.18717311 -0.02952327
v -0.13596342 -0.18717311 -0.03498435
v -0.13927071 -0.18184587 -0.03192012
v -0.14048575 -0.18717311 -0.03201341
f 1 2 8
f 1 8 16
f 1 16 17
f 1 17 9
f 1 9 3
f 1 3 4
f 1 4 5
f 1 5 6
f 1 6 13
f 1 13 7
f 1 7 2
f 2 7 14
f 2 14 22
f 2 22 33
f 2 33 29
f 2 29 28
f 2 28 27
f 2 27 26
f 2 26 15
f 2 15 8
f 3 9 4
f 4 9 10
f 4 10 11
f 4 11 5
f 5 11 10
f 5 10 12
f 5 12 21
f 5 21 31
f 5 31 37
f 5 37 34
f 5 34 23
f 5 23 13
f 5 13 6
f 7 13 14
f 8 15 16
f 9 17 10
f 10 18 19
f 10 19 12
f 10 17 18
f 12 19 20
f 12 20 21
f 13 22 14
f 13 23 24
f 13 24 25
f 13 25 22
f 15 26 16
f 16 26 18
f 16 18 17
f 18 26 19
f 19 26 27
f 19 27 20
f 20 27 28
f 20 28 29
f 20 29 30
f 20 30 21
f 21 30 29
f 21 29 33
f 21 33 39
f 21 39 42
f 21 42 40
f 21 40 35
f 21 35 31
f 22 25 32
f 22 32 33
f 23 34 24
f 24 34 32
f 24 32 25
f 31 35 36
f 31 36 37
f 32 34 36
f 32 36 38
f 32 38 33
f 33 38 39
f 34 37 36
f 35 40 36
f 36 41 38
f 36 40 41
f 38 41 39
f 39 41 42
f 40 42 41

