v -0.20959812 -0.08251327 0.06501492
v -0.20683894 -0.08248545 0.06496646
v -0.20683894 -0.08251327 0.07371933
v -0.20966166 -0.08251327 0.06503431
v -0.21726571 -0.02021730 0.10591015
v -0.21450176 -0.01621256 0.10786817
v -0.20988247 -0.02037490 0.10494084
v -0.20683894 -0.02037490 0.10502808
v -0.20683894 -0.08251327 0.12208795
v -0.21651596 -0.08251327 0.06737035
v -0.21440963 -0.07767420 0.06959007
v -0.22296518 -0.02267392 0.10698609
v -0.21729749 -0.08251327 0.06771930
v -0.20683894 -0.01620330 0.10798448
v -0.20683894 0.00949379 0.12873743
v -0.20988247 -0.08251327 0.12324142
v -0.20683894 -0.07944483 0.12505404
v -0.20988247 -0.08002885 0.12566470
v -0.21953407 -0.07936139 0.07070477
v -0.22306684 -0.08251327 0.07054000
v -0.22306684 -0.02290568 0.10696670
v -0.22306684 -0.02261830 0.10719933
v -0.21860799 -0.08251327 0.06834935
v -0.20785874 0.00883560 0.12943532
v -0.20683894 0.01219143 0.13522211
v -0.21756912 -0.07717361 0.13059850
v -0.21756912 -0.08083536 0.12675033
v -0.21756912 -0.08251327 0.12492804
v -0.20683894 -0.07239017 0.13101532
v -0.20988247 -0.07578307 0.12951287
v -0.22306684 -0.08251327 0.12506375
v -0.22306684 -0.01954985 0.11216220
v -0.21295141 0.00542416 0.13522211
v -0.20910570 0.00980898 0.13522211
v -0.22306684 -0.00491215 0.14290875
v -0.22034577 -0.00217743 0.14290875
v -0.21650006 0.00161409 0.14290875
v -0.21193954 0.00546124 0.14290875
v -0.20683894 0.01082871 0.13927383
v -0.22306684 -0.07742391 0.13081176
v -0.21756912 -0.06515012 0.14139662
v -0.22306684 -0.06172014 0.14595239
v -0.22306684 -0.08087245 0.12696359
v -0.20683894 -0.07115724 0.13204279
v -0.20988247 -0.07193593 0.13271161
v -0.21756912 -0.06073749 0.14524479
v -0.22306684 -0.00694233 0.13741276
v -0.22299378 -0.00700722 0.13705411
v -0.22306684 -0.00584844 0.14891848
v -0.22306684 -0.00638612 0.15064386
v -0.21550409 0.00026991 0.14859860
v -0.20809543 0.00830720 0.14290875
v -0.20683894 0.00911371 0.14294752
v -0.22306684 -0.05787299 0.14910264
v -0.21176163 -0.06390791 0.14016560
v -0.20683894 -0.06224854 0.13870195
v -0.21299112 -0.05557397 0.14718341
v -0.21756912 -0.05689962 0.14827872
v -0.22306684 -0.00760052 0.15325130
v -0.20683894 0.00713915 0.14616565
v -0.22252517 -0.00812892 0.15515115
v -0.22306684 -0.05155996 0.15405583
v -0.20683894 -0.06196117 0.13891518
v -0.20786509 -0.05325641 0.14563251
v -0.21148683 -0.04158519 0.15570364
v -0.21449858 -0.04671163 0.15393951
v -0.21962301 -0.04851005 0.15528686
v -0.22306684 -0.00831432 0.15466649
v -0.20683894 0.00674980 0.14677630
v -0.22306684 -0.00902813 0.15560674
v -0.22306684 -0.01612913 0.16093794
v -0.21756912 -0.00690525 0.15590720
v -0.20683894 0.00636972 0.14729973
v -0.22306684 -0.04921459 0.15579090
v -0.20683894 -0.05292269 0.14518663
v -0.20683894 -0.05133748 0.14626256
v -0.20683894 -0.03941596 0.15429816
v -0.20930743 -0.03627335 0.15697344
v -0.21734037 -0.03608794 0.16073439
v -0.22237586 -0.03887828 0.16170370
v -0.21726413 -0.04385640 0.15698315
v -0.22306684 -0.03995363 0.16129659
v -0.22306684 -0.01727864 0.16161647
v -0.21756912 -0.01268060 0.15965843
v -0.20988247 -0.00185297 0.15374564
v -0.20683894 -0.00005455 0.15263094
v -0.20683894 -0.03871142 0.15460833
v -0.21022716 -0.02803211 0.16033696
v -0.21462725 -0.03057215 0.16152921
v -0.20683894 -0.03510530 0.15615923
v -0.21975168 -0.03376112 0.16267301
v -0.22306684 -0.03816447 0.16210112
v -0.22306684 -0.03906369 0.16181031
v -0.22306684 -0.02003190 0.16286688
v -0.21756912 -0.01672243 0.16204296
v -0.20988247 -0.00569085 0.15620769
v -0.20683894 -0.00426324 0.15528686
v -0.20683894 -0.02780962 0.15859221
v -0.21302130 -0.02544571 0.16240158
v -0.21734037 -0.02803211 0.16308011
v -0.22306684 -0.03401141 0.16320611
v -0.22306684 -0.03520727 0.16303166
v -0.22306684 -0.02112578 0.16310921
v -0.21756912 -0.02056030 0.16290563
v -0.21302130 -0.02182105 0.16240158
v -0.20988247 -0.01268060 0.15937733
v -0.20683894 -0.01001078 0.15788459
v -0.20683894 -0.00578355 0.15597507
v -0.20683894 -0.02480607 0.15922226
v -0.20683894 -0.01998555 0.15966814
v -0.22306684 -0.02805065 0.16398158
v -0.22306684 -0.02592777 0.16392342
v -0.20683894 -0.01674097 0.15956152
v -0.20683894 -0.01268060 0.15862128
f 1 2 3
f 1 3 9
f 1 9 16
f 1 16 28
f 1 28 31
f 1 31 20
f 1 20 23
f 1 23 13
f 1 13 10
f 1 10 4
f 1 4 5
f 1 5 6
f 1 6 7
f 1 7 2
f 2 7 8
f 2 8 14
f 2 14 15
f 2 15 25
f 2 25 39
f 2 39 53
f 2 53 60
f 2 60 69
f 2 69 73
f 2 73 86
f 2 86 97
f 2 97 108
f 2 108 107
f 2 107 114
f 2 114 113
f 2 113 110
f 2 110 109
f 2 109 98
f 2 98 90
f 2 90 87
f 2 87 77
f 2 77 76
f 2 76 75
f 2 75 63
f 2 63 56
f 2 56 44
f 2 44 29
f 2 29 17
f 2 17 9
f 2 9 3
f 4 10 11
f 4 11 5
f 5 12 6
f 5 11 10
f 5 10 13
f 5 13 12
f 6 14 7
f 6 12 15
f 6 15 14
f 7 14 8
f 9 17 18
f 9 18 16
f 12 13 19
f 12 19 20
f 12 20 21
f 12 21 22
f 12 22 15
f 13 23 19
f 15 22 24
f 15 24 25
f 16 18 26
f 16 26 27
f 16 27 28
f 17 29 30
f 17 30 18
f 18 30 26
f 19 23 20
f 20 31 43
f 20 43 40
f 20 40 42
f 20 42 54
f 20 54 62
f 20 62 74
f 20 74 82
f 20 82 93
f 20 93 92
f 20 92 102
f 20 102 101
f 20 101 111
f 20 111 112
f 20 112 103
f 20 103 94
f 20 94 83
f 20 83 71
f 20 71 70
f 20 70 68
f 20 68 59
f 20 59 50
f 20 50 49
f 20 49 35
f 20 35 47
f 20 47 32
f 20 32 22
f 20 22 21
f 22 32 24
f 24 33 34
f 24 34 25
f 24 32 33
f 25 34 35
f 25 35 36
f 25 36 37
f 25 37 38
f 25 38 39
f 26 40 27
f 26 30 41
f 26 41 42
f 26 42 40
f 27 40 28
f 28 40 43
f 28 43 31
f 29 44 30
f 30 44 45
f 30 45 46
f 30 46 41
f 32 47 48
f 32 48 33
f 33 48 47
f 33 47 35
f 33 35 34
f 35 49 36
f 36 49 37
f 37 49 50
f 37 50 38
f 38 50 51
f 38 51 52
f 38 52 39
f 39 52 53
f 41 46 42
f 42 46 54
f 44 55 45
f 44 56 57
f 44 57 55
f 45 55 46
f 46 58 54
f 46 55 58
f 50 59 51
f 51 60 53
f 51 53 52
f 51 59 61
f 51 61 60
f 54 58 62
f 55 57 58
f 56 63 57
f 57 64 65
f 57 65 66
f 57 66 67
f 57 67 58
f 57 63 64
f 58 67 62
f 59 68 61
f 60 61 69
f 61 68 70
f 61 70 71
f 61 71 72
f 61 72 73
f 61 73 69
f 62 67 74
f 63 75 64
f 64 75 76
f 64 76 77
f 64 77 65
f 65 77 78
f 65 78 79
f 65 79 80
f 65 80 81
f 65 81 67
f 65 67 66
f 67 81 80
f 67 80 82
f 67 82 74
f 71 83 84
f 71 84 72
f 72 85 73
f 72 84 85
f 73 85 86
f 77 87 78
f 78 88 89
f 78 89 79
f 78 87 90
f 78 90 88
f 79 89 91
f 79 91 80
f 80 91 92
f 80 92 93
f 80 93 82
f 83 94 95
f 83 95 84
f 84 95 96
f 84 96 85
f 85 96 86
f 86 96 97
f 88 90 98
f 88 98 99
f 88 99 89
f 89 99 91
f 91 100 101
f 91 101 102
f 91 102 92
f 91 99 100
f 94 103 104
f 94 104 95
f 95 104 105
f 95 105 106
f 95 106 107
f 95 107 108
f 95 108 97
f 95 97 96
f 98 109 99
f 99 109 110
f 99 110 105
f 99 105 111
f 99 111 100
f 100 111 101
f 103 112 104
f 104 112 105
f 105 112 111
f 105 110 113
f 105 113 114
f 105 114 106
f 106 114 107

