v -0.29246939 -0.03574457 0.12350157
v -0.33693357 -0.02467286 0.07008739
v -0.29246939 -0.04385747 0.12004376
v -0.29246939 -0.03316754 0.12240964
v -0.48289987 0.02968886 -0.09925468
v -0.48289987 0.02943434 -0.09925468
v -0.47512524 0.02254102 -0.09164141
v -0.29246939 -0.04406957 0.11989210
v -0.50600782 0.02949796 -0.12992006
v -0.29246939 -0.02885126 0.11995276
v -0.38290948 -0.00112955 0.01603624
v -0.47522124 0.02971007 -0.09152008
v -0.51323054 0.04393150 -0.13804896
v -0.53101141 0.04883105 -0.15888687
v -0.53487473 0.04883105 -0.16316364
v -0.52098116 0.04114236 -0.14575322
v -0.52417261 0.04114236 -0.14960535
v -0.53504270 0.04114236 -0.16307264
v -0.31336971 -0.03920184 0.09219923
v -0.29246939 -0.04672085 0.11224850
v -0.53684239 0.03711242 -0.16819871
v -0.29246939 -0.02465165 0.11622196
v -0.32104837 -0.01689932 0.08498027
v -0.48378773 0.03788660 -0.10623097
v -0.49149037 0.03833201 -0.11344993
v -0.53290707 0.05606373 -0.16565083
v -0.52964365 0.05313672 -0.16028212
v -0.53672238 0.05385786 -0.16835037
v -0.53749028 0.04883105 -0.16701577
v -0.53758626 0.04114236 -0.16689444
v -0.33702955 -0.03208581 0.06268645
v -0.31442553 -0.04005024 0.08707316
v -0.29602077 -0.04623301 0.10445325
v -0.29246939 -0.04770712 0.10445325
v -0.53715434 0.03688972 -0.18148401
v -0.53357894 0.03523532 -0.17286980
v -0.52513246 0.03169322 -0.16464989
v -0.52057326 0.03004943 -0.15697597
v -0.29246939 -0.02327298 0.11476604
v -0.53101141 0.06062392 -0.16810771
v -0.53672238 0.05385786 -0.16859301
v -0.53749028 0.04883105 -0.16938164
v -0.53758626 0.04114236 -0.17095890
v -0.36042544 -0.02458801 0.03238505
v -0.33777341 -0.03241457 0.05831869
v -0.31526537 -0.04023053 0.08137080
v -0.29246939 -0.04731473 0.10066179
v -0.33827735 -0.03243578 0.05061442
v -0.36100134 -0.02474709 0.02237558
v -0.53715434 0.03688972 -0.18421386
v -0.51673392 0.02871319 -0.15697597
v -0.52513246 0.03206440 -0.17235415
v -0.36114530 -0.02488495 0.02756230
v -0.29246939 -0.02225490 0.11197554
v -0.30734678 -0.01609333 0.09374615
v -0.52829988 0.06062392 -0.16810771
v -0.53101141 0.06062392 -0.16944230
v -0.30216369 -0.01611454 0.09386747
v -0.52921171 0.05304127 -0.18418353
v -0.53715434 0.03848048 -0.18421386
v -0.29246939 -0.04714504 0.09917552
v -0.33770145 -0.03211763 0.04627698
v -0.45218528 0.00650612 -0.08408881
v -0.53317101 0.04107873 -0.18503282
v -0.52520443 0.04079239 -0.18539679
v -0.53283508 0.03679427 -0.18439584
v -0.52520443 0.03540500 -0.18045273
v -0.50975116 0.02925405 -0.16182903
v -0.49021859 0.02180927 -0.13795797
v -0.49223423 0.02180927 -0.13795797
v -0.29246939 -0.01973088 0.10445325
v -0.29448504 -0.01959301 0.10445325
v -0.52829988 0.06062392 -0.16944230
v -0.29801243 -0.01641148 0.09335183
v -0.29798842 -0.01637967 0.08907506
v -0.52513246 0.05369879 -0.18472950
v -0.52513246 0.04883105 -0.18633708
v -0.53055549 0.04883105 -0.18503282
v -0.30525914 -0.03991237 0.07706370
v -0.29246939 -0.04270152 0.09043999
v -0.33570978 -0.03211763 0.04627698
v -0.52009333 0.04311491 -0.18479016
v -0.52270886 0.03799264 -0.18327358
v -0.52781998 0.03702758 -0.18421386
v -0.50581584 0.02955099 -0.16088875
v -0.39776287 -0.00908337 -0.03055330
v -0.29246939 -0.01893550 0.09629401
v -0.29506094 -0.01784317 0.09626367
v -0.50564788 0.05280796 -0.15461009
v -0.51097495 0.05408057 -0.16464989
v -0.51668593 0.05556529 -0.17308212
v -0.51867757 0.05499261 -0.18002808
v -0.52033330 0.05366698 -0.18469917
v -0.45940803 0.03746239 -0.10031629
v -0.29818039 -0.01643270 0.08482861
v -0.51968540 0.04883105 -0.18518448
v -0.29676464 -0.04053808 0.08388833
v -0.29246939 -0.04195916 0.08946938
v -0.51416638 0.03813051 -0.17575131
v -0.51294259 0.04325277 -0.17714656
v -0.30434730 -0.02805588 0.06793385
v -0.29767648 -0.03289180 0.07688170
v -0.30535514 -0.03257365 0.06917744
v -0.31334573 -0.03220247 0.06183716
v -0.32145630 -0.03186311 0.05449689
v -0.29246939 -0.02009145 0.08907506
v -0.50612780 0.05253223 -0.15973616
v -0.51246269 0.05356092 -0.17098923
v -0.51363847 0.05259586 -0.17611528
v -0.51541415 0.04955220 -0.17984609
v -0.29746052 -0.02262607 0.07633572
v -0.29928419 -0.01750381 0.07970255
v -0.30571507 -0.01625241 0.06948076
v -0.51294259 0.04746299 -0.17714656
v -0.32882300 -0.01577518 0.03881537
v -0.32882300 -0.01714324 0.03881537
v -0.29246939 -0.03748381 0.08482861
v -0.29246939 -0.03943514 0.08683051
v -0.30048398 -0.02805588 0.07230161
v -0.29246939 -0.02939212 0.08170445
v -0.29246939 -0.03436591 0.08306938
v -0.29246939 -0.03569155 0.08373666
v -0.29246939 -0.02248820 0.08376700
v -0.29246939 -0.02805588 0.08164379
f 1 2 3
f 1 3 8
f 1 8 20
f 1 20 34
f 1 34 47
f 1 47 61
f 1 61 80
f 1 80 98
f 1 98 118
f 1 118 117
f 1 117 122
f 1 122 121
f 1 121 120
f 1 120 124
f 1 124 123
f 1 123 106
f 1 106 87
f 1 87 71
f 1 71 54
f 1 54 39
f 1 39 22
f 1 22 10
f 1 10 4
f 1 4 5
f 1 5 6
f 1 6 2
f 2 6 7
f 2 7 3
f 3 7 9
f 3 9 8
f 4 10 11
f 4 11 12
f 4 12 5
f 5 12 13
f 5 13 14
f 5 14 15
f 5 15 16
f 5 16 17
f 5 17 6
f 6 17 18
f 6 18 7
f 7 18 9
f 8 19 20
f 8 9 21
f 8 21 19
f 9 18 21
f 10 22 23
f 10 23 12
f 10 12 11
f 12 24 25
f 12 25 26
f 12 26 27
f 12 27 13
f 12 23 24
f 13 27 14
f 14 27 26
f 14 26 28
f 14 28 15
f 15 28 29
f 15 29 18
f 15 18 17
f 15 17 16
f 18 29 30
f 18 30 21
f 19 31 32
f 19 32 20
f 19 21 31
f 20 33 34
f 20 32 33
f 21 30 35
f 21 35 36
f 21 36 37
f 21 37 38
f 21 38 31
f 22 39 23
f 23 39 40
f 23 40 24
f 24 40 26
f 24 26 25
f 26 40 28
f 28 40 57
f 28 57 41
f 28 41 42
f 28 42 29
f 29 42 43
f 29 43 30
f 30 43 50
f 30 50 35
f 31 44 45
f 31 45 32
f 31 38 44
f 32 46 33
f 32 45 46
f 33 46 34
f 34 46 48
f 34 48 49
f 34 49 47
f 35 50 36
f 36 50 37
f 37 51 38
f 37 50 52
f 37 52 51
f 38 51 53
f 38 53 44
f 39 54 55
f 39 55 40
f 40 56 73
f 40 73 57
f 40 55 58
f 40 58 56
f 41 57 59
f 41 59 60
f 41 60 42
f 42 60 43
f 43 60 50
f 44 53 45
f 45 53 46
f 46 53 48
f 47 49 62
f 47 62 61
f 48 53 49
f 49 53 63
f 49 63 52
f 49 52 62
f 50 60 64
f 50 64 65
f 50 65 66
f 50 66 52
f 51 52 63
f 51 63 53
f 52 66 67
f 52 67 68
f 52 68 69
f 52 69 70
f 52 70 62
f 54 71 72
f 54 72 55
f 55 72 58
f 56 58 74
f 56 74 75
f 56 75 73
f 57 73 76
f 57 76 59
f 58 72 71
f 58 71 74
f 59 76 77
f 59 77 78
f 59 78 60
f 60 78 64
f 61 79 80
f 61 62 81
f 61 81 79
f 62 70 69
f 62 69 81
f 64 78 77
f 64 77 65
f 65 77 82
f 65 82 83
f 65 83 84
f 65 84 66
f 66 84 67
f 67 84 83
f 67 83 85
f 67 85 68
f 68 85 69
f 69 85 86
f 69 86 81
f 71 87 88
f 71 88 74
f 73 89 90
f 73 90 91
f 73 91 92
f 73 92 93
f 73 93 76
f 73 75 94
f 73 94 89
f 74 88 87
f 74 87 75
f 75 87 95
f 75 95 94
f 76 93 77
f 77 93 96
f 77 96 82
f 79 97 80
f 79 81 86
f 79 86 85
f 79 85 97
f 80 97 98
f 82 99 83
f 82 96 100
f 82 100 101
f 82 101 102
f 82 102 103
f 82 103 99
f 83 99 103
f 83 103 104
f 83 104 105
f 83 105 85
f 85 105 97
f 87 106 95
f 89 107 90
f 89 94 95
f 89 95 107
f 90 107 91
f 91 108 92
f 91 107 108
f 92 108 109
f 92 109 93
f 93 110 96
f 93 109 111
f 93 111 110
f 95 106 112
f 95 112 113
f 95 113 108
f 95 108 107
f 96 110 114
f 96 114 115
f 96 115 116
f 96 116 100
f 97 117 118
f 97 118 98
f 97 105 104
f 97 104 117
f 100 116 101
f 101 116 119
f 101 119 120
f 101 120 121
f 101 121 102
f 102 121 122
f 102 122 117
f 102 117 103
f 103 117 104
f 106 123 112
f 108 113 109
f 109 113 111
f 110 111 115
f 110 115 114
f 111 113 123
f 111 123 124
f 111 124 115
f 112 123 113
f 115 124 116
f 116 124 119
f 119 124 120

