v -0.01295573 -0.25210033 -0.06471255
v -0.01185750 -0.25038751 -0.06471255
v -0.01295573 -0.24922370 -0.05702117
v -0.01295573 -0.24913584 -0.07244022
v -0.01263090 -0.24882842 -0.07239185
v -0.00608796 -0.23949579 -0.07626173
v 0.14495658 -0.02776562 -0.14553258
v 0.14504939 -0.02776562 -0.14113060
v -0.01295573 -0.24639095 -0.05402202
v 0.14501845 -0.02776562 -0.14100966
v 0.14192487 -0.02776562 -0.13423737
v 0.14184753 -0.02776562 -0.13408016
v -0.01295573 -0.24834530 -0.07375840
v -0.01295573 -0.24636901 -0.07666081
v 0.14214142 -0.03083990 -0.14553258
v 0.10260534 -0.02776562 -0.14553258
v -0.01295573 -0.24311904 -0.05272802
v 0.13960467 -0.02776562 -0.13091169
v -0.01295573 -0.23306173 -0.08435220
v -0.01128519 -0.23306173 -0.08435220
v -0.00616529 -0.23176617 -0.08389265
v 0.14064102 -0.03239900 -0.14553258
v 0.09788761 -0.02776562 -0.14351299
v 0.10554424 -0.04346641 -0.14553258
v 0.05528887 -0.11707350 -0.12242214
v 0.03915580 -0.14157990 -0.11490006
v -0.01295573 -0.24239439 -0.05251034
v 0.13627907 -0.02776562 -0.12770695
v -0.01295573 -0.22028152 -0.08729089
v -0.00993948 -0.22028152 -0.08816161
v -0.00067417 -0.21000463 -0.09205568
v 0.01312324 -0.18707928 -0.09986800
v 0.04388899 -0.14632309 -0.11425911
v 0.01901653 -0.18714514 -0.09998893
v 0.05157656 -0.14114073 -0.11526286
v 0.07114353 -0.11685390 -0.12261564
v 0.10195568 -0.07076164 -0.13795004
v 0.11748550 -0.04774845 -0.14553258
v 0.09069501 -0.02776562 -0.13959473
v 0.02851385 -0.14340252 -0.11001434
v 0.02851385 -0.13571682 -0.10979666
v 0.10787990 -0.04856094 -0.14553258
v 0.09136014 -0.06650157 -0.13874820
v 0.04388899 -0.14250219 -0.11534752
v 0.00914798 -0.18611308 -0.09936008
v 0.09216447 -0.07185960 -0.13824028
v -0.01185750 -0.23565292 -0.05168799
v -0.01295573 -0.23679479 -0.05114379
v 0.13502616 -0.02776562 -0.12669111
v -0.01295573 -0.21279346 -0.08777462
v 0.06692077 -0.11806166 -0.12301472
v 0.09768653 -0.07179372 -0.13827656
v 0.11306167 -0.04878053 -0.14553258
v 0.02503356 -0.03575875 -0.09893681
v 0.02641021 -0.02807304 -0.09823539
v 0.02625554 -0.02776562 -0.09805399
v 0.02427563 -0.13571682 -0.10725705
v 0.00981310 -0.14342447 -0.09887634
v -0.01295573 -0.20488815 -0.08770206
v 0.02401267 -0.14340252 -0.10741426
v 0.00945734 -0.15111019 -0.09915449
v 0.10868424 -0.04860485 -0.14553258
v 0.06237320 -0.10497400 -0.08454569
v 0.06300738 -0.09959401 -0.08401358
v -0.01295573 -0.22796722 -0.04972886
v -0.01295573 -0.23565292 -0.05091401
v 0.13112824 -0.02776562 -0.12357101
v -0.01295573 -0.08189494 -0.07384306
v -0.01295573 -0.03575875 -0.06864290
v -0.01295573 -0.02811697 -0.06774799
v -0.01295573 -0.02787542 -0.06771171
v 0.02034677 -0.02864398 -0.09386968
v 0.02056333 -0.02776562 -0.09382131
v 0.12726126 -0.02776562 -0.12078954
v -0.01295573 -0.02776562 -0.02198666
v -0.01295573 -0.02776562 -0.06751822
v -0.01294026 -0.02776562 -0.06769962
f 1 2 3
f 1 3 9
f 1 9 17
f 1 17 27
f 1 27 48
f 1 48 66
f 1 66 65
f 1 65 75
f 1 75 76
f 1 76 71
f 1 71 70
f 1 70 69
f 1 69 68
f 1 68 59
f 1 59 50
f 1 50 29
f 1 29 19
f 1 19 14
f 1 14 13
f 1 13 4
f 1 4 5
f 1 5 6
f 1 6 7
f 1 7 8
f 1 8 2
f 2 8 3
f 3 8 10
f 3 10 11
f 3 11 12
f 3 12 9
f 4 13 5
f 5 13 6
f 6 13 14
f 6 14 15
f 6 15 7
f 7 15 22
f 7 22 38
f 7 38 53
f 7 53 62
f 7 62 42
f 7 42 24
f 7 24 16
f 7 16 23
f 7 23 39
f 7 39 56
f 7 56 73
f 7 73 77
f 7 77 76
f 7 76 75
f 7 75 74
f 7 74 67
f 7 67 49
f 7 49 28
f 7 28 18
f 7 18 12
f 7 12 11
f 7 11 10
f 7 10 8
f 9 12 18
f 9 18 17
f 14 19 20
f 14 20 21
f 14 21 22
f 14 22 15
f 16 24 25
f 16 25 26
f 16 26 23
f 17 18 28
f 17 28 27
f 19 29 30
f 19 30 31
f 19 31 32
f 19 32 33
f 19 33 20
f 20 33 34
f 20 34 35
f 20 35 21
f 21 35 36
f 21 36 22
f 22 37 38
f 22 36 37
f 23 26 40
f 23 40 41
f 23 41 39
f 24 42 43
f 24 43 25
f 25 43 26
f 26 44 32
f 26 32 30
f 26 30 45
f 26 45 40
f 26 43 42
f 26 42 46
f 26 46 44
f 27 47 48
f 27 28 47
f 28 49 47
f 29 50 45
f 29 45 30
f 30 32 31
f 32 44 33
f 33 51 35
f 33 35 34
f 33 44 46
f 33 46 52
f 33 52 51
f 35 51 36
f 36 51 37
f 37 51 38
f 38 51 52
f 38 52 53
f 39 54 55
f 39 55 56
f 39 41 57
f 39 57 58
f 39 58 54
f 40 45 50
f 40 50 59
f 40 59 60
f 40 60 41
f 41 60 61
f 41 61 57
f 42 62 46
f 46 62 53
f 46 53 52
f 47 63 64
f 47 64 65
f 47 65 66
f 47 66 48
f 47 49 67
f 47 67 63
f 54 68 69
f 54 69 70
f 54 70 71
f 54 71 72
f 54 72 56
f 54 56 55
f 54 58 59
f 54 59 68
f 56 72 73
f 57 61 58
f 58 61 59
f 59 61 60
f 63 67 64
f 64 67 74
f 64 74 75
f 64 75 65
f 71 76 77
f 71 77 72
f 72 77 73

