v -0.11761020 -0.15706562 -0.01302673
v -0.12880012 -0.15706562 -0.01310700
v -0.11761020 -0.15878681 -0.01319619
v -0.10970076 -0.15897884 -0.01378035
v -0.10795852 -0.15837429 -0.01390076
v -0.10795852 -0.15779820 -0.01390076
v -0.10795852 -0.15706562 -0.01391413
v -0.12880012 -0.15706562 -0.02450943
v -0.12880012 -0.15858055 -0.01362427
v -0.11761020 -0.16336715 -0.01427980
v -0.11211827 -0.16338849 -0.01424858
v -0.10795852 -0.16199448 -0.01498437
v -0.10795852 -0.15706562 -0.02673017
v -0.10795852 -0.15871569 -0.02882158
v -0.10795852 -0.16455492 -0.03585390
v -0.10795852 -0.16776258 -0.03935891
v -0.10795852 -0.16877254 -0.04042023
v -0.10795852 -0.17209399 -0.04370228
v -0.10795852 -0.17518786 -0.04551721
v -0.12880012 -0.16213672 -0.02746149
v -0.12880012 -0.22971816 -0.04061198
v -0.10795852 -0.22971816 -0.05023961
v -0.12880012 -0.17695172 -0.03521176
v -0.12880012 -0.17157480 -0.03263875
v -0.10795852 -0.17858755 -0.04706013
v -0.12880012 -0.22971816 -0.05272345
v -0.10795852 -0.22971816 -0.05857851
v -0.12880012 -0.18419918 -0.03832881
v -0.10795852 -0.18185212 -0.04809469
v -0.12660906 -0.22971816 -0.05379368
v -0.10991905 -0.22971816 -0.05833325
v -0.11774893 -0.22971816 -0.05690181
v -0.12356116 -0.22971816 -0.05499769
v -0.12474441 -0.22971816 -0.05458744
f 1 2 3
f 1 3 4
f 1 4 5
f 1 5 6
f 1 6 7
f 1 7 13
f 1 13 8
f 1 8 2
f 2 8 20
f 2 20 24
f 2 24 23
f 2 23 28
f 2 28 26
f 2 26 21
f 2 21 9
f 2 9 10
f 2 10 3
f 3 10 11
f 3 11 4
f 4 11 5
f 5 11 12
f 5 12 22
f 5 22 27
f 5 27 29
f 5 29 25
f 5 25 19
f 5 19 18
f 5 18 17
f 5 17 16
f 5 16 15
f 5 15 14
f 5 14 13
f 5 13 7
f 5 7 6
f 8 13 14
f 8 14 15
f 8 15 16
f 8 16 17
f 8 17 18
f 8 18 19
f 8 19 20
f 9 21 10
f 10 21 11
f 11 21 12
f 12 21 22
f 19 23 24
f 19 24 20
f 19 25 23
f 21 26 30
f 21 30 34
f 21 34 33
f 21 33 32
f 21 32 31
f 21 31 27
f 21 27 22
f 23 25 28
f 25 29 28
f 26 28 29
f 26 29 30
f 27 31 29
f 29 31 32
f 29 32 33
f 29 33 34
f 29 34 30

