v -0.04063493 -0.13778654 -0.03929482
v -0.04063493 -0.15393488 -0.03929482
v -0.04063493 -0.13778654 -0.05237426
v -0.05718488 -0.13778654 -0.03929482
v -0.04071310 -0.16048485 -0.05237426
v -0.04063493 -0.16048263 -0.05237426
v -0.05428950 -0.14321227 -0.03929482
v -0.07257792 -0.13778654 -0.04223308
v -0.07257792 -0.14182139 -0.04387442
v -0.07257792 -0.15877848 -0.05236274
v -0.07257792 -0.13778654 -0.05237426
v -0.05521502 -0.14203469 -0.03929482
v -0.07255603 -0.15877848 -0.05237426
v -0.07257792 -0.15835411 -0.05237426
f 1 2 6
f 1 6 3
f 1 3 11
f 1 11 8
f 1 8 4
f 1 4 12
f 1 12 7
f 1 7 2
f 2 5 6
f 2 7 8
f 2 8 9
f 2 9 10
f 2 10 5
f 3 6 5
f 3 5 13
f 3 13 14
f 3 14 11
f 4 8 12
f 5 10 13
f 7 12 8
f 8 11 14
f 8 14 10
f 8 10 9
f 10 14 13

