v -0.14799154 -0.08250725 0.02892252
v -0.14968902 -0.08250725 0.02920910
v -0.14375132 -0.08247111 0.02562672
v -0.14375132 -0.08250725 0.03229545
v -0.16366354 -0.08250725 0.03166717
v -0.14375132 -0.08191697 0.02570388
v -0.14375132 -0.08250725 0.07347626
v -0.14375132 -0.06736480 0.03145773
v -0.14375132 -0.07418914 0.02875717
v -0.16434812 -0.08250725 0.03192069
v -0.14375132 -0.03267086 0.04602974
v -0.14375132 -0.08249520 0.07819397
v -0.14382468 -0.08250725 0.07829318
v -0.16926941 -0.08250725 0.03546999
v -0.16920306 -0.07581541 0.03733283
v -0.14448132 -0.03202637 0.04684542
v -0.14375132 -0.03046033 0.04741860
v -0.14375132 -0.02956287 0.09469497
v -0.16024413 -0.02319629 0.11572628
v -0.17942985 -0.02097973 0.13822362
v -0.15173577 -0.08250725 0.08574453
v -0.16958726 -0.08250725 0.03595499
v -0.16958726 -0.08188083 0.03607624
v -0.15063904 -0.02636452 0.05596119
v -0.17562275 -0.06906938 0.05354723
v -0.17942985 -0.02097973 0.08598703
v -0.17735515 -0.02097973 0.08374942
v -0.17699540 -0.02097973 0.08336363
v -0.17661469 -0.02097973 0.08297784
v -0.14551517 -0.02361190 0.05385585
v -0.14375132 -0.02633440 0.05043882
v -0.14375132 -0.02401545 0.09640348
v -0.15745691 -0.02097973 0.11318002
v -0.17942985 -0.05390282 0.12345320
v -0.15569656 -0.08250725 0.08930486
v -0.17942985 -0.08250725 0.05888221
v -0.17942985 -0.06650347 0.06420618
v -0.17693602 -0.06650347 0.05791221
v -0.14813823 -0.02097973 0.05858459
v -0.14803345 -0.02097973 0.05849642
v -0.14721963 -0.02097973 0.05782403
v -0.14375132 -0.02097973 0.05496915
v -0.14375132 -0.02291320 0.05309530
v -0.14375132 -0.02097973 0.09705382
v -0.17942985 -0.05882985 0.12114944
v -0.15582230 -0.08250725 0.08941509
v -0.17942985 -0.08250725 0.10805448
v -0.17942985 -0.06222093 0.11935274
v -0.16839274 -0.08250725 0.10001892
v -0.16398487 -0.08250725 0.09642552
v -0.16292307 -0.08250725 0.09555473
v -0.15987041 -0.08250725 0.09294236
v -0.17182961 -0.08250725 0.10254312
v -0.17942985 -0.08221211 0.10823085
v -0.17942985 -0.06650347 0.11708207
v -0.17942985 -0.07399037 0.11298161
v -0.17031724 -0.08250725 0.10144085
f 1 2 3
f 1 3 4
f 1 4 7
f 1 7 13
f 1 13 21
f 1 21 35
f 1 35 46
f 1 46 52
f 1 52 51
f 1 51 50
f 1 50 49
f 1 49 57
f 1 57 53
f 1 53 47
f 1 47 36
f 1 36 22
f 1 22 14
f 1 14 10
f 1 10 5
f 1 5 2
f 2 5 3
f 3 5 6
f 3 6 9
f 3 9 8
f 3 8 11
f 3 11 17
f 3 17 31
f 3 31 43
f 3 43 42
f 3 42 44
f 3 44 32
f 3 32 18
f 3 18 12
f 3 12 7
f 3 7 4
f 5 8 9
f 5 9 6
f 5 10 11
f 5 11 8
f 7 12 13
f 10 14 15
f 10 15 11
f 11 15 16
f 11 16 17
f 12 18 13
f 13 18 19
f 13 19 20
f 13 20 21
f 14 22 23
f 14 23 15
f 15 24 16
f 15 23 25
f 15 25 26
f 15 26 27
f 15 27 28
f 15 28 29
f 15 29 24
f 16 24 30
f 16 30 31
f 16 31 17
f 18 32 19
f 19 32 33
f 19 33 20
f 20 33 44
f 20 44 42
f 20 42 41
f 20 41 40
f 20 40 39
f 20 39 29
f 20 29 28
f 20 28 27
f 20 27 26
f 20 26 37
f 20 37 36
f 20 36 47
f 20 47 54
f 20 54 56
f 20 56 55
f 20 55 48
f 20 48 45
f 20 45 34
f 20 34 35
f 20 35 21
f 22 36 23
f 23 36 25
f 24 29 30
f 25 36 37
f 25 37 38
f 25 38 26
f 26 38 37
f 29 39 30
f 30 39 40
f 30 40 41
f 30 41 42
f 30 42 43
f 30 43 31
f 32 44 33
f 34 45 46
f 34 46 35
f 45 48 49
f 45 49 50
f 45 50 51
f 45 51 52
f 45 52 46
f 47 53 54
f 48 55 49
f 49 55 56
f 49 56 57
f 53 57 56
f 53 56 54

