v -0.16863295 -0.11975944 0.07889718
v -0.16682378 -0.11975944 0.07821152
v -0.16863295 -0.11975944 0.06784342
v -0.16863295 -0.12005591 0.07869630
v -0.13298770 -0.16835080 0.03428464
v -0.12955263 -0.16646790 0.03428464
v -0.16407884 -0.11975944 0.07684454
v -0.12880401 -0.16596857 0.03428464
v -0.12880401 -0.11975944 0.04326830
v -0.16863295 -0.15863981 0.03428464
v -0.16863295 -0.12192321 0.07742539
v -0.14048951 -0.17082667 0.03428464
v -0.16734236 -0.13196709 0.06994848
v -0.15602727 -0.11975944 0.07223260
v -0.12880401 -0.15580506 0.03953857
v -0.12880401 -0.14459086 0.03428464
v -0.12880401 -0.11975944 0.05435265
v -0.16863295 -0.17051978 0.03428464
v -0.16863295 -0.13208673 0.07006202
v -0.14836562 -0.17242869 0.03428464
v -0.15211651 -0.11975944 0.06996595
v -0.12880401 -0.13990961 0.04650451
v -0.12905355 -0.11975944 0.05454045
v -0.12880401 -0.12231332 0.05346607
v -0.16374353 -0.17187214 0.03428464
v -0.16863295 -0.16816355 0.03683954
v -0.16863295 -0.14860113 0.05567159
v -0.15605457 -0.17289682 0.03428464
v -0.14912204 -0.11975944 0.06808361
v -0.12880401 -0.13559246 0.04831696
v -0.14244294 -0.11975944 0.06368132
v -0.12975538 -0.12292709 0.05395085
v -0.12880401 -0.12799843 0.05135664
v -0.16374353 -0.16864729 0.03748155
v -0.16863295 -0.16046551 0.04461781
v -0.16863295 -0.16431973 0.04077017
v -0.16863295 -0.15244496 0.05224758
v -0.16863295 -0.15662168 0.04840431
f 1 2 7
f 1 7 14
f 1 14 21
f 1 21 29
f 1 29 31
f 1 31 23
f 1 23 17
f 1 17 9
f 1 9 3
f 1 3 10
f 1 10 18
f 1 18 26
f 1 26 36
f 1 36 35
f 1 35 38
f 1 38 37
f 1 37 27
f 1 27 19
f 1 19 11
f 1 11 4
f 1 4 5
f 1 5 6
f 1 6 2
f 2 6 8
f 2 8 7
f 3 9 10
f 4 11 5
f 5 12 20
f 5 20 28
f 5 28 25
f 5 25 18
f 5 18 10
f 5 10 16
f 5 16 8
f 5 8 6
f 5 11 13
f 5 13 12
f 7 8 15
f 7 15 14
f 8 16 9
f 8 9 17
f 8 17 24
f 8 24 33
f 8 33 30
f 8 30 22
f 8 22 15
f 9 16 10
f 11 19 13
f 12 13 20
f 13 19 20
f 14 15 21
f 15 22 21
f 17 23 24
f 18 25 26
f 19 27 28
f 19 28 20
f 21 22 29
f 22 30 29
f 23 31 32
f 23 32 24
f 24 32 33
f 25 28 34
f 25 34 35
f 25 35 36
f 25 36 26
f 27 37 28
f 28 38 34
f 28 37 38
f 29 30 31
f 30 33 31
f 31 33 32
f 34 38 35

