v 0.15864981 0.01372599 -0.17312946
v 0.15920943 0.01066139 -0.16466534
v 0.16127630 0.01038001 -0.16466534
v 0.15940344 0.01327333 -0.17233519
v 0.15926165 0.01349966 -0.17312946
v 0.15147916 0.01327945 -0.17312946
v 0.16127630 0.00767631 -0.15793834
v 0.13238481 0.00194473 -0.14553258
v 0.16127630 0.01238025 -0.17248107
v 0.15965712 0.01329168 -0.17312946
v 0.15021068 0.01294301 -0.17312946
v 0.09359918 -0.00102811 -0.14553258
v 0.16127630 0.00591463 -0.15423715
v 0.14007777 0.00135138 -0.14553258
v 0.16127630 0.01233132 -0.17312946
v 0.14632317 0.00987842 -0.17312946
v 0.08546599 -0.00776288 -0.14611072
v 0.08533168 -0.00743869 -0.14553258
v 0.16127630 0.00209153 -0.14920946
v 0.16127630 -0.00127279 -0.14553258
v 0.16127630 0.00010964 -0.14673749
v 0.16127630 -0.01466893 -0.17312946
v 0.14562923 0.00910157 -0.17312946
v 0.08539884 -0.01268092 -0.14613774
v 0.08504813 -0.01268092 -0.14553258
v 0.14278635 0.00269711 -0.17312946
v 0.16127630 -0.01561706 -0.14553258
v 0.16127630 -0.01578221 -0.17160035
v 0.11749883 -0.04773108 -0.14553258
v 0.15955265 -0.01517664 -0.17312946
v 0.08584653 -0.01694443 -0.14570278
v 0.14318928 -0.00570759 -0.17312946
v 0.09001013 -0.01268092 -0.14820987
v 0.08571968 -0.01676705 -0.14553258
v 0.16127630 -0.01575775 -0.14568387
v 0.14063739 -0.03236529 -0.14553258
v 0.16127630 -0.01696890 -0.16937963
v 0.16127630 -0.01994174 -0.15697657
v 0.16127630 -0.01977047 -0.15447219
v 0.11308154 -0.04875261 -0.14553258
v 0.11743913 -0.04766991 -0.14563524
v 0.16127630 -0.01858378 -0.16475179
v 0.16127630 -0.01909149 -0.16260131
v 0.15936612 -0.01520110 -0.17312946
v 0.10789569 -0.04853241 -0.14553258
v 0.08580922 -0.01705454 -0.14553258
v 0.14941228 -0.01269315 -0.17312946
v 0.16127630 -0.01732369 -0.14748044
v 0.16127630 -0.01849815 -0.14939047
v 0.10870155 -0.04858134 -0.14553258
v 0.15920943 -0.01521945 -0.17312946
v 0.15089716 -0.01354953 -0.17312946
f 1 2 3
f 1 3 4
f 1 4 5
f 1 5 10
f 1 10 15
f 1 15 22
f 1 22 30
f 1 30 44
f 1 44 51
f 1 51 52
f 1 52 47
f 1 47 32
f 1 32 26
f 1 26 23
f 1 23 16
f 1 16 11
f 1 11 6
f 1 6 2
f 2 7 3
f 2 6 8
f 2 8 7
f 3 9 4
f 3 7 13
f 3 13 19
f 3 19 21
f 3 21 20
f 3 20 27
f 3 27 35
f 3 35 48
f 3 48 49
f 3 49 39
f 3 39 38
f 3 38 43
f 3 43 42
f 3 42 37
f 3 37 28
f 3 28 22
f 3 22 15
f 3 15 9
f 4 9 5
f 5 9 10
f 6 11 12
f 6 12 8
f 7 8 13
f 8 12 18
f 8 18 25
f 8 25 34
f 8 34 46
f 8 46 45
f 8 45 50
f 8 50 40
f 8 40 29
f 8 29 36
f 8 36 27
f 8 27 20
f 8 20 14
f 8 14 13
f 9 15 10
f 11 16 17
f 11 17 12
f 12 17 18
f 13 14 19
f 14 20 21
f 14 21 19
f 16 23 17
f 17 24 25
f 17 25 18
f 17 23 26
f 17 26 24
f 22 28 29
f 22 29 30
f 24 31 25
f 24 26 32
f 24 32 33
f 24 33 31
f 25 31 34
f 27 36 35
f 28 37 29
f 29 38 39
f 29 39 36
f 29 40 41
f 29 41 30
f 29 37 42
f 29 42 43
f 29 43 38
f 30 41 40
f 30 40 44
f 31 45 46
f 31 46 34
f 31 33 32
f 31 32 45
f 32 47 45
f 35 36 48
f 36 39 49
f 36 49 48
f 40 50 51
f 40 51 44
f 45 47 52
f 45 52 51
f 45 51 50

