v -0.12880012 -0.08251327 0.06209243
v -0.12577262 -0.08251327 0.05982909
v -0.12880012 -0.08251327 0.01702422
v -0.12880012 -0.08557096 0.06198213
v -0.12085395 -0.08251327 0.05578332
v -0.12424663 -0.08251327 0.01702422
v -0.12880012 -0.10990848 0.01702422
v -0.12880012 -0.11271077 0.05641422
v -0.12783719 -0.11264508 0.05566861
v -0.12033373 -0.12032946 0.04782855
v -0.10795852 -0.08985466 0.04213712
v -0.10795852 -0.08703048 0.04260920
v -0.10795852 -0.08681886 0.04264450
v -0.10795852 -0.08251327 0.04311657
v -0.11301388 -0.12801385 0.03984290
v -0.10795852 -0.13768317 0.03322937
v -0.12695179 -0.10368362 0.01702422
v -0.10795852 -0.08251327 0.03062189
v -0.10795852 -0.08957735 0.02811590
v -0.10795852 -0.12032946 0.02074793
v -0.10795852 -0.15706561 0.01752719
v -0.12859611 -0.10977713 0.01702422
v -0.12880012 -0.15706561 0.02883064
v -0.12880012 -0.11792125 0.05498034
v -0.12861651 -0.11780450 0.05489651
v -0.12089476 -0.12534292 0.04723735
v -0.10795852 -0.15078236 0.03021158
v -0.12714356 -0.10498259 0.01702422
v -0.10795852 -0.15706561 0.02801001
v -0.12834722 -0.10934656 0.01702422
v -0.12880012 -0.15706561 0.03888108
v -0.12880012 -0.11862912 0.05474650
v -0.10801360 -0.15108888 0.03018070
v -0.10795852 -0.15108158 0.03014099
v -0.10979869 -0.15706561 0.02930713
v -0.12693955 -0.15706561 0.03816635
v -0.12880012 -0.15580312 0.03953848
v -0.12880012 -0.12230711 0.05346262
v -0.11305876 -0.15594908 0.03182636
v -0.11189590 -0.15706561 0.03068367
v -0.12501574 -0.15706561 0.03726190
v -0.12321842 -0.15276732 0.03828988
v -0.12834518 -0.15564258 0.03944582
v -0.12880012 -0.13990164 0.04649614
v -0.12880012 -0.12799194 0.05135371
v -0.11493564 -0.15706561 0.03235580
v -0.11347494 -0.15706561 0.03158370
v -0.12880012 -0.13558875 0.04831387
v -0.11769793 -0.15706561 0.03375439
f 1 2 5
f 1 5 14
f 1 14 18
f 1 18 6
f 1 6 3
f 1 3 7
f 1 7 23
f 1 23 31
f 1 31 37
f 1 37 44
f 1 44 48
f 1 48 45
f 1 45 38
f 1 38 32
f 1 32 24
f 1 24 8
f 1 8 4
f 1 4 2
f 2 4 5
f 3 6 17
f 3 17 28
f 3 28 30
f 3 30 22
f 3 22 7
f 4 8 9
f 4 9 10
f 4 10 5
f 5 11 12
f 5 12 13
f 5 13 14
f 5 10 15
f 5 15 16
f 5 16 11
f 6 18 19
f 6 19 20
f 6 20 21
f 6 21 17
f 7 22 21
f 7 21 23
f 8 24 25
f 8 25 26
f 8 26 9
f 9 26 10
f 10 26 15
f 11 16 27
f 11 27 34
f 11 34 29
f 11 29 21
f 11 21 20
f 11 20 19
f 11 19 18
f 11 18 14
f 11 14 13
f 11 13 12
f 15 26 27
f 15 27 16
f 17 21 28
f 21 29 35
f 21 35 40
f 21 40 47
f 21 47 46
f 21 46 49
f 21 49 41
f 21 41 36
f 21 36 31
f 21 31 23
f 21 22 30
f 21 30 28
f 24 32 33
f 24 33 25
f 25 33 26
f 26 33 34
f 26 34 27
f 29 34 33
f 29 33 35
f 31 36 37
f 32 38 39
f 32 39 33
f 33 39 40
f 33 40 35
f 36 41 42
f 36 42 43
f 36 43 37
f 37 43 44
f 38 45 39
f 39 46 47
f 39 47 40
f 39 45 48
f 39 48 46
f 41 49 42
f 42 49 44
f 42 44 43
f 44 49 48
f 46 48 49

