v 0.07736062 0.17768931 0.19208598
v 0.07736062 0.17384656 0.19136114
v 0.07736062 0.18094236 0.19128208
v 0.07096482 0.17956856 0.18499573
v 0.06742616 0.17956856 0.18114747
v 0.06358170 0.17956856 0.17678528
v 0.07736062 0.17332166 0.19112393
v 0.07736062 0.18569233 0.18789510
v 0.07608495 0.18529056 0.18739431
v 0.06850961 0.18577010 0.17988232
v 0.06159830 0.18725407 0.17180362
v 0.05497534 0.19165410 0.16265747
v 0.05449476 0.18725407 0.16335593
v 0.05094737 0.18725407 0.15828207
v 0.04800287 0.18725407 0.15374853
v 0.05461710 0.18161630 0.16322415
v 0.06117890 0.17956856 0.17293702
v 0.06207012 0.17442977 0.17176411
v 0.06898143 0.17187010 0.17960556
v 0.07736062 0.17225892 0.19062313
v 0.07736062 0.19137546 0.17843262
v 0.07668784 0.19137546 0.17843262
v 0.07155896 0.19089592 0.17723336
v 0.06262058 0.19149858 0.17026171
v 0.02366039 0.21509942 0.10938828
v 0.00816894 0.22307653 0.08648331
v 0.00086444 0.22301821 0.07852324
v 0.02447297 0.20682422 0.11628084
v 0.00071591 0.21799607 0.07889225
v 0.02455161 0.19863327 0.11618860
v 0.04704174 0.18265961 0.14850331
v 0.07058911 0.16788479 0.17781322
v 0.05577043 0.17649048 0.16011394
v 0.06068086 0.17337998 0.16596538
v 0.07736062 0.16796256 0.18677490
v 0.07736062 0.17142944 0.18996418
v 0.07736062 0.19189387 0.17392545
v 0.05548210 0.20650670 0.13919898
v 0.01803349 0.23004273 0.07927444
v 0.01312305 0.23029545 0.07951166
v 0.04734755 0.20664278 0.13934396
v 0.03148913 0.21467821 0.11680800
v 0.03917806 0.20710288 0.13218779
v 0.00039263 0.23055467 0.07122213
v -0.00711283 0.23083332 0.06340701
v -0.00761959 0.22568804 0.06450087
v -0.01189220 0.22627775 0.05746333
v -0.01186599 0.22597317 0.05746333
v 0.00115278 0.21358306 0.07839145
v 0.02380019 0.19789453 0.11216902
v 0.03243277 0.19123938 0.12322613
v 0.06990759 0.16752190 0.17366186
v 0.07481802 0.16679611 0.18077848
v 0.07736062 0.16734693 0.18615547
v 0.04613305 0.18199215 0.14290226
v 0.05528113 0.17563508 0.15498733
v 0.07736062 0.19241230 0.16596538
v 0.05565685 0.20664278 0.13520578
v 0.01849658 0.23047691 0.07372611
v 0.01419776 0.23166278 0.07372611
v 0.01312305 0.23166278 0.07475406
v 0.00560013 0.23166278 0.07310671
v 0.00829999 0.23003626 0.07845735
v -0.00054228 0.23166278 0.06891581
v -0.00663227 0.23166278 0.06301165
v -0.00815258 0.23166278 0.06131156
v -0.01062527 0.23166278 0.05746333
v -0.00872052 0.21856632 0.05746333
v -0.00710408 0.22017342 0.06405279
v 0.00034894 0.21277304 0.07372611
v -0.00591579 0.21534568 0.05746333
v 0.06981148 0.16750246 0.16782359
v 0.07462580 0.16603144 0.17366186
v 0.07736062 0.16546120 0.17640309
v 0.07736062 0.16599905 0.18097615
v 0.07736062 0.16651747 0.18367783
v 0.05528988 0.17564157 0.15058556
v 0.04539037 0.18194031 0.13520578
v 0.07736062 0.19200404 0.16050930
v 0.06503210 0.20037645 0.14290226
v 0.05565685 0.20666222 0.12884036
v 0.04193909 0.21545584 0.11216902
v 0.01791116 0.23032139 0.06604280
v 0.01563943 0.23166278 0.06604280
v 0.01391816 0.23166278 0.05746333
v -0.00515565 0.21483374 0.05746333
v 0.06693687 0.17050279 0.15828207
v 0.07462580 0.16708125 0.16716464
v 0.05536851 0.17570636 0.14669779
v 0.07736062 0.16581761 0.17366186
v 0.07736062 0.16649154 0.16947096
v 0.07736062 0.19046176 0.15571217
v 0.05539472 0.20646133 0.12374010
v 0.01725586 0.22984185 0.06123250
v 0.01476569 0.23166278 0.05938745
v 0.01488802 0.23025011 0.05746333
v -0.00135486 0.21301929 0.05746333
v 0.00877181 0.20612437 0.07529441
v 0.04770579 0.18341131 0.12370059
v 0.07736062 0.16719789 0.16766547
v 0.07462580 0.16860408 0.16331642
v 0.07736062 0.16817639 0.16518783
v 0.01011738 0.20650670 0.07016780
v 0.07736062 0.18849826 0.15295777
v 0.07091239 0.19135602 0.13886951
v 0.07177741 0.19244469 0.14290226
v 0.06327589 0.19903504 0.13100170
v 0.01743060 0.22612222 0.05746333
v 0.02607192 0.22352366 0.07372611
v 0.02508459 0.22249980 0.06910032
v 0.00449921 0.21161309 0.05746333
v 0.01524625 0.20638358 0.06971972
v 0.01716848 0.20638358 0.06971972
v 0.05283466 0.18431854 0.12489985
v 0.05722958 0.18262072 0.13002645
v 0.06438554 0.17534348 0.14599930
v 0.07299191 0.17439738 0.15245697
v 0.07736062 0.17207098 0.15962631
v 0.06951440 0.17628959 0.14733037
v 0.07736062 0.18690413 0.15094141
v 0.07091239 0.19028679 0.13886951
v 0.02545156 0.21799607 0.06861269
v 0.01786748 0.22441145 0.05746333
v 0.00543412 0.21170381 0.05746333
v 0.01148042 0.21252679 0.05746333
v 0.01219689 0.21263696 0.05746333
v 0.03366475 0.19821854 0.09205799
v 0.07736062 0.17708017 0.15343222
v 0.07736062 0.17532404 0.15548813
v 0.07736062 0.17332166 0.15801849
v 0.06235846 0.18418246 0.13181880
v 0.06518939 0.18189495 0.13694538
v 0.07736062 0.18624964 0.15094141
v 0.07274725 0.18753271 0.14241463
v 0.07030952 0.18516097 0.13952845
v 0.02529429 0.21322665 0.06896852
v 0.01822571 0.21938283 0.05746333
v 0.01822571 0.21952539 0.05746333
v 0.01598019 0.21557248 0.05746333
v 0.01802475 0.21323312 0.06110071
v 0.07271230 0.18141541 0.14465506
v 0.07736062 0.18028138 0.15163988
f 1 2 7
f 1 7 20
f 1 20 36
f 1 36 35
f 1 35 54
f 1 54 76
f 1 76 75
f 1 75 74
f 1 74 90
f 1 90 91
f 1 91 100
f 1 100 102
f 1 102 118
f 1 118 130
f 1 130 129
f 1 129 128
f 1 128 142
f 1 142 133
f 1 133 120
f 1 120 104
f 1 104 92
f 1 92 79
f 1 79 57
f 1 57 37
f 1 37 21
f 1 21 8
f 1 8 3
f 1 3 4
f 1 4 5
f 1 5 6
f 1 6 2
f 2 6 7
f 3 8 9
f 3 9 10
f 3 10 4
f 4 10 11
f 4 11 5
f 5 11 6
f 6 11 12
f 6 12 13
f 6 13 14
f 6 14 15
f 6 15 16
f 6 16 17
f 6 17 18
f 6 18 19
f 6 19 20
f 6 20 7
f 8 21 22
f 8 22 23
f 8 23 24
f 8 24 9
f 9 24 10
f 10 24 12
f 10 12 11
f 12 24 25
f 12 25 26
f 12 26 27
f 12 27 28
f 12 28 13
f 13 28 14
f 14 28 15
f 15 28 29
f 15 29 30
f 15 30 16
f 16 30 31
f 16 31 18
f 16 18 17
f 18 32 19
f 18 31 33
f 18 33 34
f 18 34 32
f 19 35 36
f 19 36 20
f 19 32 35
f 21 37 38
f 21 38 39
f 21 39 40
f 21 40 22
f 22 40 41
f 22 41 23
f 23 41 24
f 24 41 42
f 24 42 43
f 24 43 25
f 25 43 42
f 25 42 44
f 25 44 26
f 26 44 45
f 26 45 27
f 27 45 46
f 27 46 29
f 27 29 28
f 29 46 47
f 29 47 48
f 29 48 49
f 29 49 30
f 30 49 50
f 30 50 31
f 31 50 51
f 31 51 33
f 32 52 53
f 32 53 54
f 32 54 35
f 32 34 52
f 33 51 55
f 33 55 56
f 33 56 34
f 34 56 52
f 37 57 38
f 38 58 59
f 38 59 39
f 38 57 58
f 39 59 60
f 39 60 61
f 39 61 40
f 40 61 62
f 40 62 63
f 40 63 41
f 41 63 42
f 42 63 44
f 44 64 65
f 44 65 45
f 44 63 64
f 45 65 66
f 45 66 67
f 45 67 47
f 45 47 46
f 47 67 85
f 47 85 96
f 47 96 108
f 47 108 123
f 47 123 138
f 47 138 137
f 47 137 139
f 47 139 126
f 47 126 125
f 47 125 124
f 47 124 111
f 47 111 97
f 47 97 86
f 47 86 71
f 47 71 68
f 47 68 48
f 48 68 69
f 48 69 49
f 49 69 68
f 49 68 70
f 49 70 50
f 50 70 51
f 51 70 71
f 51 71 56
f 51 56 55
f 52 72 73
f 52 73 74
f 52 74 75
f 52 75 53
f 52 56 72
f 53 75 76
f 53 76 54
f 56 77 72
f 56 71 78
f 56 78 77
f 57 79 80
f 57 80 81
f 57 81 58
f 58 81 82
f 58 82 59
f 59 83 84
f 59 84 60
f 59 82 81
f 59 81 83
f 60 84 95
f 60 95 85
f 60 85 67
f 60 67 66
f 60 66 65
f 60 65 64
f 60 64 62
f 60 62 61
f 62 64 63
f 68 71 70
f 71 86 78
f 72 87 88
f 72 88 73
f 72 77 89
f 72 89 87
f 73 90 74
f 73 88 91
f 73 91 90
f 77 78 89
f 78 86 89
f 79 92 93
f 79 93 80
f 80 93 81
f 81 93 83
f 83 94 95
f 83 95 84
f 83 93 94
f 85 95 94
f 85 94 96
f 86 97 98
f 86 98 89
f 87 89 99
f 87 99 88
f 88 100 91
f 88 99 101
f 88 101 102
f 88 102 100
f 89 98 97
f 89 97 103
f 89 103 99
f 92 104 105
f 92 105 106
f 92 106 107
f 92 107 93
f 93 107 94
f 94 108 96
f 94 107 109
f 94 109 110
f 94 110 108
f 97 111 103
f 99 103 111
f 99 111 112
f 99 112 113
f 99 113 114
f 99 114 115
f 99 115 116
f 99 116 101
f 101 116 102
f 102 117 118
f 102 116 119
f 102 119 117
f 104 120 105
f 105 121 122
f 105 122 110
f 105 110 107
f 105 107 106
f 105 120 133
f 105 133 121
f 107 110 109
f 108 110 123
f 110 122 123
f 111 124 113
f 111 113 112
f 113 124 125
f 113 125 126
f 113 126 127
f 113 127 115
f 113 115 114
f 115 119 116
f 115 127 119
f 117 128 129
f 117 129 130
f 117 130 118
f 117 119 131
f 117 131 132
f 117 132 128
f 119 127 131
f 121 133 134
f 121 134 135
f 121 135 136
f 121 136 137
f 121 137 122
f 122 137 138
f 122 138 123
f 126 139 140
f 126 140 127
f 127 140 131
f 128 132 131
f 128 131 141
f 128 141 142
f 131 140 141
f 133 142 134
f 134 142 135
f 135 142 141
f 135 141 136
f 136 140 137
f 136 141 140
f 137 140 139

