v 0.05950901 0.00629049 -0.07135805
v 0.05950901 0.00260352 -0.07158322
v 0.05950901 0.00629049 -0.11037102
v 0.04732728 0.00629049 -0.06110797
v 0.05579135 -0.00223020 -0.06826442
v 0.05950901 -0.00496043 -0.07258180
v 0.05950901 -0.02776561 -0.11384646
v 0.04531946 -0.02776561 -0.10778647
v 0.04147409 -0.02776561 -0.10610260
v 0.03031401 -0.02776561 -0.10043422
v 0.05713225 0.00629049 -0.10906896
v -0.00877110 0.00629049 -0.01668115
v 0.05950901 -0.02501538 -0.07555794
v 0.05950901 -0.02776561 -0.07611597
v 0.02648283 -0.02776561 -0.09821190
v 0.05453556 0.00629049 -0.10762004
v -0.01071506 0.00629049 -0.01522245
v -0.01296411 -0.00088676 -0.01510497
v 0.05785593 -0.02776561 -0.07485306
v 0.02623452 -0.02776561 -0.09806505
v 0.02993799 0.00270019 -0.09334629
v 0.04040987 0.00629049 -0.09892656
v -0.01082148 0.00629049 -0.01514413
v -0.01261646 0.00629049 -0.01405744
v -0.01296411 0.00629049 -0.01385185
v -0.01296411 -0.02757893 -0.02193836
v -0.01277964 -0.02665885 -0.02182088
v -0.01296411 -0.02776561 -0.02198731
v 0.01667786 0.00629049 -0.08419268
v 0.01784140 0.00629049 -0.08492693
v 0.02055160 -0.02776561 -0.09383579
v -0.01296411 0.00629049 -0.06516101
v -0.01296411 -0.02776561 -0.06751060
v -0.01295701 -0.02776561 -0.06769661
v -0.01296411 -0.01267772 -0.06647286
f 1 2 6
f 1 6 13
f 1 13 14
f 1 14 7
f 1 7 3
f 1 3 11
f 1 11 16
f 1 16 22
f 1 22 30
f 1 30 29
f 1 29 32
f 1 32 25
f 1 25 24
f 1 24 23
f 1 23 17
f 1 17 12
f 1 12 4
f 1 4 5
f 1 5 2
f 2 5 6
f 3 7 8
f 3 8 9
f 3 9 10
f 3 10 11
f 4 12 5
f 5 12 13
f 5 13 6
f 7 14 19
f 7 19 28
f 7 28 33
f 7 33 34
f 7 34 31
f 7 31 20
f 7 20 15
f 7 15 10
f 7 10 9
f 7 9 8
f 10 15 16
f 10 16 11
f 12 17 18
f 12 18 19
f 12 19 14
f 12 14 13
f 15 20 16
f 16 20 21
f 16 21 22
f 17 23 18
f 18 23 24
f 18 24 25
f 18 25 32
f 18 32 35
f 18 35 33
f 18 33 28
f 18 28 26
f 18 26 27
f 18 27 19
f 19 27 28
f 20 29 30
f 20 30 21
f 20 31 32
f 20 32 29
f 21 30 22
f 26 28 27
f 31 34 32
f 32 34 35
f 33 35 34

