v -0.07257792 -0.21229728 -0.00956825
v -0.07214643 -0.21229728 -0.00977017
v -0.07257792 -0.21229728 -0.01945115
v -0.07257792 -0.22393486 -0.01346457
v -0.06595231 -0.24120283 -0.02169097
v -0.04381172 -0.26338319 -0.03742957
v -0.04247034 -0.25874096 -0.03673780
v -0.06849437 -0.21229728 -0.01175198
v -0.04063493 -0.21229728 -0.04123241
v -0.07257792 -0.27165818 -0.04776493
v -0.07257792 -0.23567198 -0.01757777
v -0.07146792 -0.23567907 -0.01788065
v -0.05875138 -0.25568404 -0.02974536
v -0.04840493 -0.26501829 -0.03650598
v -0.04840493 -0.26886429 -0.03858127
v -0.04139161 -0.27373402 -0.04415652
v -0.04103516 -0.26614152 -0.04013681
v -0.04063493 -0.26612730 -0.04034621
v -0.04063493 -0.26053955 -0.03832326
v -0.04063493 -0.25874096 -0.03776611
v -0.04063493 -0.25222194 -0.03621805
v -0.06551457 -0.21261009 -0.01347205
v -0.06543327 -0.21229728 -0.01344962
v -0.04063493 -0.21229728 -0.02885542
v -0.04063493 -0.25925281 -0.04776493
v -0.07257792 -0.28471047 -0.04776493
v -0.07257792 -0.24359148 -0.02100295
v -0.07204324 -0.24360570 -0.02109643
v -0.05560274 -0.26712969 -0.03580299
v -0.05271361 -0.27015815 -0.03796803
v -0.04440581 -0.27804925 -0.04539422
v -0.04063493 -0.27332881 -0.04428740
v -0.04063493 -0.25089252 -0.03593012
v -0.05205699 -0.21686842 -0.02230421
v -0.05143476 -0.21261009 -0.02188915
v -0.05140662 -0.21229728 -0.02186298
v -0.04168865 -0.21229728 -0.02807017
v -0.04167302 -0.21261009 -0.02806643
v -0.04063493 -0.21261009 -0.02884046
v -0.04063493 -0.27743787 -0.04776493
v -0.07146792 -0.28492373 -0.04776493
v -0.07257792 -0.28407064 -0.04705072
v -0.07257792 -0.24427397 -0.02132452
v -0.05783524 -0.27073400 -0.03747445
v -0.07257792 -0.24684745 -0.02268936
v -0.05560274 -0.27362028 -0.03989001
v -0.04840493 -0.27867484 -0.04487073
v -0.05609364 -0.28362987 -0.04776493
v -0.04661330 -0.28072227 -0.04776493
v -0.04271110 -0.27889522 -0.04776493
v -0.04063493 -0.27657056 -0.04675158
v -0.04063493 -0.22029500 -0.03013799
v -0.04262043 -0.22029500 -0.02881429
v -0.04758885 -0.21261009 -0.02422246
v -0.04756071 -0.21229728 -0.02422246
v -0.06377921 -0.28485974 -0.04776493
v -0.07146792 -0.28413463 -0.04694229
v -0.07257792 -0.28022461 -0.04363677
v -0.06377921 -0.27111077 -0.03720896
v -0.06377921 -0.27495680 -0.03991993
v -0.05609364 -0.27963458 -0.04412661
v -0.07257792 -0.24978351 -0.02430473
v -0.07146792 -0.25746844 -0.02867220
v -0.05609364 -0.28348058 -0.04761161
v -0.05646885 -0.28369386 -0.04776493
v -0.06377921 -0.28402089 -0.04692733
v -0.07146792 -0.28028860 -0.04361059
v -0.07257792 -0.27521983 -0.03978906
v -0.07146792 -0.27137380 -0.03700329
v -0.07257792 -0.25751819 -0.02863106
v -0.07146792 -0.27521983 -0.03976662
v -0.06377921 -0.28017486 -0.04376390
v -0.07257792 -0.27137380 -0.03699955
f 1 2 8
f 1 8 23
f 1 23 36
f 1 36 55
f 1 55 37
f 1 37 24
f 1 24 9
f 1 9 3
f 1 3 10
f 1 10 26
f 1 26 42
f 1 42 58
f 1 58 68
f 1 68 73
f 1 73 70
f 1 70 62
f 1 62 45
f 1 45 43
f 1 43 27
f 1 27 11
f 1 11 4
f 1 4 5
f 1 5 6
f 1 6 7
f 1 7 2
f 2 7 8
f 3 9 10
f 4 11 12
f 4 12 5
f 5 12 11
f 5 11 13
f 5 13 14
f 5 14 6
f 6 14 15
f 6 15 16
f 6 16 17
f 6 17 18
f 6 18 19
f 6 19 7
f 7 19 20
f 7 20 21
f 7 21 8
f 8 22 23
f 8 21 22
f 9 24 39
f 9 39 52
f 9 52 33
f 9 33 21
f 9 21 20
f 9 20 19
f 9 19 18
f 9 18 32
f 9 32 51
f 9 51 40
f 9 40 25
f 9 25 10
f 10 25 40
f 10 40 50
f 10 50 49
f 10 49 48
f 10 48 65
f 10 65 56
f 10 56 41
f 10 41 26
f 11 27 28
f 11 28 13
f 13 29 14
f 13 28 29
f 14 29 30
f 14 30 15
f 15 30 31
f 15 31 16
f 16 32 17
f 16 31 32
f 17 32 18
f 21 33 23
f 21 23 22
f 23 34 35
f 23 35 36
f 23 33 34
f 24 37 38
f 24 38 39
f 26 41 42
f 27 43 28
f 28 43 29
f 29 44 30
f 29 43 45
f 29 45 44
f 30 44 46
f 30 46 47
f 30 47 31
f 31 47 48
f 31 48 49
f 31 49 50
f 31 50 51
f 31 51 32
f 33 52 53
f 33 53 54
f 33 54 34
f 34 54 35
f 35 54 36
f 36 54 55
f 37 55 38
f 38 55 54
f 38 54 53
f 38 53 52
f 38 52 39
f 40 51 50
f 41 56 57
f 41 57 42
f 42 57 58
f 44 59 60
f 44 60 61
f 44 61 46
f 44 45 62
f 44 62 63
f 44 63 59
f 46 61 47
f 47 61 64
f 47 64 48
f 48 64 65
f 56 65 64
f 56 64 66
f 56 66 57
f 57 66 67
f 57 67 58
f 58 67 68
f 59 69 60
f 59 63 70
f 59 70 69
f 60 71 72
f 60 72 61
f 60 69 71
f 61 72 66
f 61 66 64
f 62 70 63
f 66 72 67
f 67 72 71
f 67 71 68
f 68 71 73
f 69 73 71
f 69 70 73

