v -0.12880506 -0.08251691 0.06210166
v -0.14382755 -0.08251691 0.07828089
v -0.12880506 -0.08557215 0.06198624
v -0.12880506 -0.08251691 0.04918279
v -0.14424292 -0.08649820 0.07784810
v -0.12880506 -0.11270832 0.05641764
v -0.15173439 -0.08251691 0.08574656
v -0.12880506 -0.08555027 0.04710538
v -0.13946618 -0.08251691 0.03428028
v -0.12880506 -0.11791462 0.05498942
v -0.15569028 -0.08251691 0.08930267
v -0.12880506 -0.08618465 0.04680965
v -0.12880506 -0.09250294 0.04515060
v -0.12880506 -0.11975942 0.04326796
v -0.13957497 -0.08297264 0.03428028
v -0.16751839 -0.08251691 0.03428028
v -0.12880506 -0.09053416 0.04559061
v -0.12880506 -0.11862193 0.05475138
v -0.15581885 -0.08251691 0.08941809
v -0.15986869 -0.08251691 0.09294535
v -0.16292461 -0.08251691 0.09555653
v -0.16866560 -0.11975942 0.03428028
v -0.16858154 -0.11968286 0.03428028
v -0.14133534 -0.09004926 0.03428028
v -0.14115238 -0.08957530 0.03428028
v -0.12880506 -0.11975942 0.05435466
v -0.16865077 -0.08373827 0.03428028
v -0.16926887 -0.08251691 0.03547047
v -0.16398282 -0.08251691 0.09642211
v -0.17931683 -0.11975942 0.03428028
v -0.16839363 -0.08251691 0.10002151
v -0.12905230 -0.11975942 0.05454221
v -0.17931683 -0.11215416 0.03428028
v -0.17931683 -0.11080519 0.03503046
v -0.16958534 -0.08251691 0.03596097
v -0.17931683 -0.11975942 0.08212553
v -0.17031718 -0.08251691 0.10144972
v -0.17183031 -0.08251691 0.10254613
v -0.17931683 -0.08251691 0.10796326
v -0.14244299 -0.11975942 0.06368855
v -0.17931683 -0.10478586 0.03883183
v -0.17931683 -0.10035248 0.04278467
v -0.17931683 -0.08251691 0.05872587
v -0.17926739 -0.11975942 0.08212553
v -0.17931683 -0.11966099 0.08221930
v -0.17931683 -0.08922895 0.10416911
v -0.15212503 -0.11975942 0.06997127
v -0.14912844 -0.11975942 0.06808862
v -0.17892125 -0.11975942 0.08203897
v -0.17931683 -0.11636148 0.08512622
v -0.17931683 -0.08935291 0.10409698
v -0.16730576 -0.10908434 0.08540755
v -0.15602653 -0.11975942 0.07222900
v -0.16553550 -0.11822087 0.07877139
v -0.17192426 -0.11975942 0.08017797
v -0.17679990 -0.11598960 0.08477278
v -0.17931683 -0.11310573 0.08764364
v -0.17931683 -0.09694725 0.09926413
v -0.16408171 -0.11975942 0.07684546
v -0.17911904 -0.10348429 0.09474144
v -0.17142978 -0.11440729 0.08388556
v -0.16682116 -0.11975942 0.07820876
v -0.17931683 -0.10352074 0.09479193
v -0.17931683 -0.10738171 0.09191387
f 1 2 3
f 1 3 6
f 1 6 10
f 1 10 18
f 1 18 26
f 1 26 14
f 1 14 13
f 1 13 17
f 1 17 12
f 1 12 8
f 1 8 4
f 1 4 9
f 1 9 16
f 1 16 28
f 1 28 35
f 1 35 43
f 1 43 39
f 1 39 38
f 1 38 37
f 1 37 31
f 1 31 29
f 1 29 21
f 1 21 20
f 1 20 19
f 1 19 11
f 1 11 7
f 1 7 2
f 2 5 6
f 2 6 3
f 2 7 5
f 4 8 9
f 5 7 10
f 5 10 6
f 7 11 10
f 8 12 9
f 9 13 14
f 9 14 15
f 9 15 25
f 9 25 24
f 9 24 23
f 9 23 22
f 9 22 30
f 9 30 33
f 9 33 27
f 9 27 16
f 9 12 17
f 9 17 13
f 10 11 19
f 10 19 20
f 10 20 21
f 10 21 18
f 14 22 23
f 14 23 24
f 14 24 25
f 14 25 15
f 14 26 32
f 14 32 40
f 14 40 48
f 14 48 47
f 14 47 53
f 14 53 59
f 14 59 62
f 14 62 55
f 14 55 49
f 14 49 44
f 14 44 36
f 14 36 30
f 14 30 22
f 16 27 28
f 18 21 26
f 21 29 26
f 26 29 31
f 26 31 32
f 27 33 28
f 28 34 35
f 28 33 34
f 30 36 45
f 30 45 50
f 30 50 57
f 30 57 64
f 30 64 63
f 30 63 58
f 30 58 51
f 30 51 46
f 30 46 39
f 30 39 43
f 30 43 42
f 30 42 41
f 30 41 34
f 30 34 33
f 31 37 32
f 32 37 38
f 32 38 39
f 32 39 40
f 34 41 35
f 35 41 42
f 35 42 43
f 36 44 45
f 39 46 47
f 39 47 48
f 39 48 40
f 44 49 50
f 44 50 45
f 46 51 52
f 46 52 47
f 47 52 54
f 47 54 53
f 49 55 50
f 50 56 57
f 50 55 56
f 51 58 54
f 51 54 52
f 53 54 59
f 54 58 60
f 54 60 61
f 54 61 62
f 54 62 59
f 55 61 56
f 55 62 61
f 56 61 63
f 56 63 64
f 56 64 57
f 58 63 60
f 60 63 61

